G04 EAGLE Gerber RS-274X export*
G75*
%MOMM*%
%FSLAX34Y34*%
%LPD*%
%INBottom Copper*%
%IPPOS*%
%AMOC8*
5,1,8,0,0,1.08239X$1,22.5*%
G01*
%ADD10C,0.203200*%
%ADD11C,0.635000*%
%ADD12C,0.100000*%
%ADD13C,0.099059*%
%ADD14C,1.879600*%
%ADD15C,0.654000*%
%ADD16R,0.754000X0.754000*%
%ADD17C,0.900000*%
%ADD18C,0.558800*%
%ADD19C,0.304800*%
%ADD20C,0.330200*%
%ADD21C,0.508000*%

G36*
X4081Y31615D02*
X4081Y31615D01*
X4178Y31611D01*
X4239Y31624D01*
X4301Y31628D01*
X4393Y31658D01*
X4489Y31679D01*
X4544Y31707D01*
X4603Y31726D01*
X4686Y31778D01*
X4773Y31822D01*
X4819Y31863D01*
X4872Y31896D01*
X4939Y31967D01*
X5012Y32031D01*
X5047Y32083D01*
X5090Y32128D01*
X5137Y32213D01*
X5192Y32294D01*
X5234Y32389D01*
X5244Y32407D01*
X5246Y32417D01*
X5257Y32441D01*
X6637Y36233D01*
X11473Y41997D01*
X17990Y45759D01*
X25400Y47066D01*
X32810Y45759D01*
X39327Y41997D01*
X42423Y38307D01*
X42449Y38283D01*
X42469Y38254D01*
X42565Y38175D01*
X42656Y38091D01*
X42687Y38074D01*
X42714Y38052D01*
X42827Y37999D01*
X42936Y37940D01*
X42970Y37931D01*
X43002Y37916D01*
X43124Y37893D01*
X43244Y37863D01*
X43280Y37863D01*
X43315Y37856D01*
X43438Y37864D01*
X43562Y37865D01*
X43597Y37874D01*
X43632Y37876D01*
X43750Y37914D01*
X43870Y37946D01*
X43901Y37963D01*
X43934Y37974D01*
X44039Y38040D01*
X44148Y38101D01*
X44173Y38125D01*
X44203Y38144D01*
X44288Y38235D01*
X44378Y38320D01*
X44397Y38350D01*
X44421Y38376D01*
X44481Y38484D01*
X44547Y38590D01*
X44558Y38623D01*
X44575Y38654D01*
X44606Y38774D01*
X44643Y38893D01*
X44645Y38928D01*
X44654Y38962D01*
X44664Y39123D01*
X44664Y39763D01*
X44652Y39861D01*
X44649Y39960D01*
X44632Y40018D01*
X44624Y40079D01*
X44588Y40171D01*
X44560Y40266D01*
X44530Y40318D01*
X44507Y40374D01*
X44449Y40454D01*
X44399Y40540D01*
X44333Y40615D01*
X44321Y40632D01*
X44311Y40639D01*
X44293Y40660D01*
X27431Y57522D01*
X27431Y61520D01*
X27416Y61638D01*
X27409Y61757D01*
X27396Y61795D01*
X27391Y61836D01*
X27348Y61946D01*
X27311Y62059D01*
X27289Y62094D01*
X27274Y62131D01*
X27205Y62227D01*
X27141Y62328D01*
X27111Y62356D01*
X27088Y62389D01*
X26996Y62465D01*
X26909Y62546D01*
X26874Y62566D01*
X26843Y62591D01*
X26735Y62642D01*
X26631Y62700D01*
X26591Y62710D01*
X26555Y62727D01*
X26438Y62749D01*
X26323Y62779D01*
X26263Y62783D01*
X26243Y62787D01*
X26222Y62785D01*
X26162Y62789D01*
X26019Y62789D01*
X26019Y69100D01*
X26004Y69218D01*
X25997Y69337D01*
X25985Y69375D01*
X25980Y69415D01*
X25936Y69526D01*
X25899Y69639D01*
X25877Y69673D01*
X25863Y69711D01*
X25793Y69807D01*
X25729Y69908D01*
X25699Y69936D01*
X25676Y69968D01*
X25584Y70044D01*
X25497Y70126D01*
X25462Y70145D01*
X25431Y70171D01*
X25323Y70222D01*
X25219Y70279D01*
X25180Y70289D01*
X25143Y70307D01*
X25026Y70329D01*
X24911Y70359D01*
X24851Y70363D01*
X24831Y70366D01*
X24830Y70366D01*
X24810Y70365D01*
X24750Y70369D01*
X24632Y70354D01*
X24513Y70347D01*
X24474Y70334D01*
X24434Y70329D01*
X24324Y70285D01*
X24210Y70249D01*
X24176Y70227D01*
X24139Y70212D01*
X24042Y70142D01*
X23942Y70078D01*
X23914Y70049D01*
X23881Y70025D01*
X23805Y69933D01*
X23724Y69847D01*
X23704Y69811D01*
X23678Y69780D01*
X23628Y69673D01*
X23570Y69568D01*
X23560Y69529D01*
X23543Y69493D01*
X23521Y69376D01*
X23491Y69260D01*
X23487Y69200D01*
X23483Y69180D01*
X23484Y69160D01*
X23481Y69100D01*
X23481Y62789D01*
X20646Y62789D01*
X19999Y62962D01*
X19420Y63297D01*
X18947Y63770D01*
X18612Y64349D01*
X18439Y64996D01*
X18439Y66646D01*
X18422Y66783D01*
X18409Y66922D01*
X18402Y66941D01*
X18399Y66961D01*
X18348Y67091D01*
X18301Y67221D01*
X18290Y67238D01*
X18282Y67257D01*
X18201Y67369D01*
X18123Y67484D01*
X18107Y67498D01*
X18096Y67514D01*
X17989Y67603D01*
X17884Y67695D01*
X17866Y67704D01*
X17851Y67717D01*
X17725Y67776D01*
X17601Y67839D01*
X17581Y67844D01*
X17563Y67852D01*
X17427Y67879D01*
X17291Y67909D01*
X17270Y67908D01*
X17251Y67912D01*
X17112Y67904D01*
X16973Y67899D01*
X16953Y67894D01*
X16933Y67893D01*
X16801Y67850D01*
X16667Y67811D01*
X16650Y67801D01*
X16631Y67794D01*
X16513Y67720D01*
X16393Y67649D01*
X16372Y67631D01*
X16362Y67624D01*
X16348Y67609D01*
X16272Y67543D01*
X16007Y67277D01*
X13699Y66321D01*
X11201Y66321D01*
X8893Y67277D01*
X7127Y69043D01*
X6171Y71351D01*
X6171Y91849D01*
X7127Y94157D01*
X8776Y95805D01*
X8836Y95883D01*
X8904Y95955D01*
X8933Y96008D01*
X8970Y96056D01*
X9010Y96147D01*
X9058Y96234D01*
X9073Y96292D01*
X9097Y96348D01*
X9112Y96446D01*
X9137Y96542D01*
X9142Y96627D01*
X9145Y96639D01*
X9144Y96647D01*
X9147Y96662D01*
X9145Y96674D01*
X9147Y96702D01*
X9147Y106498D01*
X9135Y106596D01*
X9132Y106695D01*
X9115Y106753D01*
X9107Y106813D01*
X9071Y106905D01*
X9043Y107000D01*
X9013Y107052D01*
X8990Y107109D01*
X8932Y107189D01*
X8882Y107274D01*
X8816Y107350D01*
X8804Y107366D01*
X8794Y107374D01*
X8776Y107395D01*
X7127Y109043D01*
X6171Y111351D01*
X6171Y131849D01*
X7127Y134157D01*
X8893Y135923D01*
X11201Y136879D01*
X13699Y136879D01*
X16007Y135923D01*
X16273Y135657D01*
X16382Y135572D01*
X16489Y135483D01*
X16508Y135474D01*
X16524Y135462D01*
X16652Y135407D01*
X16777Y135348D01*
X16797Y135344D01*
X16816Y135336D01*
X16954Y135314D01*
X17090Y135288D01*
X17110Y135289D01*
X17130Y135286D01*
X17269Y135299D01*
X17407Y135308D01*
X17426Y135314D01*
X17446Y135316D01*
X17578Y135363D01*
X17709Y135406D01*
X17727Y135416D01*
X17746Y135423D01*
X17861Y135501D01*
X17978Y135576D01*
X17992Y135590D01*
X18009Y135602D01*
X18101Y135706D01*
X18196Y135807D01*
X18206Y135825D01*
X18219Y135840D01*
X18283Y135964D01*
X18350Y136086D01*
X18355Y136105D01*
X18364Y136123D01*
X18394Y136259D01*
X18429Y136394D01*
X18431Y136422D01*
X18434Y136434D01*
X18433Y136454D01*
X18439Y136554D01*
X18439Y138204D01*
X18612Y138851D01*
X18947Y139430D01*
X19420Y139903D01*
X19999Y140238D01*
X20646Y140411D01*
X23481Y140411D01*
X23481Y134100D01*
X23496Y133982D01*
X23503Y133863D01*
X23515Y133825D01*
X23520Y133785D01*
X23564Y133674D01*
X23601Y133561D01*
X23623Y133527D01*
X23637Y133489D01*
X23707Y133393D01*
X23771Y133292D01*
X23772Y133292D01*
X23801Y133264D01*
X23824Y133232D01*
X23825Y133231D01*
X23917Y133155D01*
X24003Y133074D01*
X24039Y133054D01*
X24070Y133028D01*
X24177Y132978D01*
X24282Y132920D01*
X24321Y132910D01*
X24357Y132893D01*
X24474Y132871D01*
X24590Y132841D01*
X24650Y132837D01*
X24670Y132833D01*
X24690Y132834D01*
X24750Y132831D01*
X38750Y132831D01*
X38868Y132846D01*
X38987Y132853D01*
X39025Y132865D01*
X39065Y132870D01*
X39176Y132914D01*
X39289Y132951D01*
X39323Y132973D01*
X39361Y132987D01*
X39457Y133057D01*
X39558Y133121D01*
X39558Y133122D01*
X39586Y133151D01*
X39618Y133174D01*
X39619Y133175D01*
X39695Y133267D01*
X39776Y133353D01*
X39796Y133389D01*
X39822Y133420D01*
X39872Y133527D01*
X39930Y133632D01*
X39940Y133671D01*
X39957Y133707D01*
X39979Y133824D01*
X40009Y133940D01*
X40013Y134000D01*
X40017Y134020D01*
X40016Y134040D01*
X40019Y134100D01*
X40019Y140411D01*
X42854Y140411D01*
X43501Y140238D01*
X44080Y139903D01*
X44553Y139430D01*
X44888Y138851D01*
X45061Y138204D01*
X45061Y136554D01*
X45078Y136417D01*
X45091Y136278D01*
X45098Y136259D01*
X45101Y136239D01*
X45152Y136109D01*
X45199Y135979D01*
X45210Y135962D01*
X45218Y135943D01*
X45299Y135831D01*
X45377Y135716D01*
X45393Y135702D01*
X45404Y135686D01*
X45511Y135597D01*
X45616Y135505D01*
X45634Y135496D01*
X45649Y135483D01*
X45775Y135424D01*
X45899Y135361D01*
X45919Y135356D01*
X45937Y135348D01*
X46073Y135321D01*
X46209Y135291D01*
X46230Y135292D01*
X46249Y135288D01*
X46388Y135296D01*
X46527Y135301D01*
X46547Y135306D01*
X46567Y135307D01*
X46699Y135350D01*
X46833Y135389D01*
X46850Y135399D01*
X46869Y135406D01*
X46987Y135480D01*
X47107Y135551D01*
X47128Y135569D01*
X47138Y135576D01*
X47152Y135591D01*
X47228Y135657D01*
X47493Y135923D01*
X49801Y136879D01*
X52299Y136879D01*
X54607Y135923D01*
X56373Y134157D01*
X57329Y131849D01*
X57329Y111351D01*
X56373Y109043D01*
X54724Y107395D01*
X54664Y107317D01*
X54596Y107245D01*
X54567Y107192D01*
X54530Y107144D01*
X54490Y107053D01*
X54442Y106966D01*
X54427Y106908D01*
X54403Y106852D01*
X54388Y106754D01*
X54363Y106658D01*
X54357Y106558D01*
X54353Y106538D01*
X54355Y106526D01*
X54353Y106498D01*
X54353Y96702D01*
X54365Y96604D01*
X54368Y96505D01*
X54385Y96447D01*
X54393Y96387D01*
X54429Y96295D01*
X54457Y96200D01*
X54487Y96148D01*
X54510Y96091D01*
X54568Y96011D01*
X54618Y95926D01*
X54684Y95850D01*
X54696Y95834D01*
X54706Y95826D01*
X54724Y95805D01*
X56373Y94157D01*
X57329Y91849D01*
X57329Y71351D01*
X56373Y69043D01*
X54607Y67277D01*
X52299Y66321D01*
X49801Y66321D01*
X47493Y67277D01*
X47228Y67543D01*
X47118Y67628D01*
X47011Y67717D01*
X46992Y67726D01*
X46976Y67738D01*
X46849Y67793D01*
X46723Y67852D01*
X46703Y67856D01*
X46684Y67864D01*
X46547Y67886D01*
X46410Y67912D01*
X46390Y67911D01*
X46370Y67914D01*
X46231Y67901D01*
X46093Y67893D01*
X46074Y67886D01*
X46054Y67884D01*
X45922Y67837D01*
X45791Y67794D01*
X45774Y67784D01*
X45754Y67777D01*
X45639Y67699D01*
X45522Y67624D01*
X45508Y67610D01*
X45491Y67598D01*
X45399Y67494D01*
X45304Y67393D01*
X45294Y67375D01*
X45281Y67360D01*
X45217Y67236D01*
X45150Y67114D01*
X45145Y67095D01*
X45136Y67077D01*
X45106Y66941D01*
X45071Y66806D01*
X45069Y66778D01*
X45066Y66766D01*
X45067Y66746D01*
X45061Y66646D01*
X45061Y64996D01*
X44888Y64349D01*
X44553Y63770D01*
X44080Y63297D01*
X43501Y62962D01*
X42854Y62789D01*
X40019Y62789D01*
X40019Y69100D01*
X40004Y69218D01*
X39997Y69337D01*
X39985Y69375D01*
X39980Y69415D01*
X39936Y69526D01*
X39899Y69639D01*
X39877Y69673D01*
X39863Y69711D01*
X39793Y69807D01*
X39729Y69908D01*
X39699Y69936D01*
X39676Y69968D01*
X39584Y70044D01*
X39497Y70126D01*
X39462Y70145D01*
X39431Y70171D01*
X39323Y70222D01*
X39219Y70279D01*
X39180Y70289D01*
X39143Y70307D01*
X39026Y70329D01*
X38911Y70359D01*
X38851Y70363D01*
X38831Y70366D01*
X38830Y70366D01*
X38810Y70365D01*
X38750Y70369D01*
X38632Y70354D01*
X38513Y70347D01*
X38474Y70334D01*
X38434Y70329D01*
X38324Y70285D01*
X38210Y70249D01*
X38176Y70227D01*
X38139Y70212D01*
X38042Y70142D01*
X37942Y70078D01*
X37914Y70049D01*
X37881Y70025D01*
X37805Y69933D01*
X37724Y69847D01*
X37704Y69811D01*
X37678Y69780D01*
X37628Y69673D01*
X37570Y69568D01*
X37560Y69529D01*
X37543Y69493D01*
X37521Y69376D01*
X37491Y69260D01*
X37487Y69200D01*
X37483Y69180D01*
X37484Y69160D01*
X37481Y69100D01*
X37481Y62789D01*
X37443Y62789D01*
X37306Y62772D01*
X37167Y62759D01*
X37148Y62752D01*
X37128Y62749D01*
X36999Y62698D01*
X36868Y62651D01*
X36851Y62640D01*
X36832Y62632D01*
X36720Y62551D01*
X36604Y62473D01*
X36591Y62457D01*
X36575Y62446D01*
X36486Y62338D01*
X36394Y62234D01*
X36385Y62216D01*
X36372Y62201D01*
X36313Y62075D01*
X36249Y61951D01*
X36245Y61931D01*
X36236Y61913D01*
X36210Y61777D01*
X36180Y61641D01*
X36180Y61620D01*
X36177Y61601D01*
X36185Y61462D01*
X36189Y61323D01*
X36195Y61303D01*
X36196Y61283D01*
X36239Y61151D01*
X36278Y61017D01*
X36288Y61000D01*
X36294Y60981D01*
X36369Y60863D01*
X36439Y60743D01*
X36458Y60722D01*
X36464Y60712D01*
X36479Y60698D01*
X36546Y60623D01*
X50400Y46768D01*
X52411Y44757D01*
X52506Y44684D01*
X52595Y44605D01*
X52631Y44587D01*
X52663Y44562D01*
X52772Y44514D01*
X52878Y44460D01*
X52917Y44452D01*
X52955Y44435D01*
X53072Y44417D01*
X53188Y44391D01*
X53229Y44392D01*
X53269Y44386D01*
X53387Y44397D01*
X53506Y44400D01*
X53545Y44412D01*
X53585Y44415D01*
X53698Y44456D01*
X53812Y44489D01*
X53846Y44509D01*
X53885Y44523D01*
X53983Y44590D01*
X54086Y44650D01*
X54131Y44690D01*
X54148Y44702D01*
X54161Y44717D01*
X54206Y44757D01*
X54483Y45033D01*
X55176Y45434D01*
X55950Y45641D01*
X58851Y45641D01*
X58851Y39330D01*
X58866Y39212D01*
X58873Y39093D01*
X58885Y39055D01*
X58891Y39015D01*
X58934Y38904D01*
X58971Y38791D01*
X58993Y38757D01*
X59008Y38719D01*
X59077Y38623D01*
X59141Y38522D01*
X59171Y38494D01*
X59194Y38462D01*
X59286Y38386D01*
X59373Y38304D01*
X59408Y38285D01*
X59439Y38259D01*
X59547Y38208D01*
X59651Y38151D01*
X59691Y38141D01*
X59727Y38123D01*
X59844Y38101D01*
X59959Y38071D01*
X60019Y38067D01*
X60039Y38064D01*
X60060Y38065D01*
X60120Y38061D01*
X62580Y38061D01*
X62698Y38076D01*
X62817Y38083D01*
X62855Y38096D01*
X62896Y38101D01*
X63006Y38145D01*
X63119Y38181D01*
X63154Y38203D01*
X63191Y38218D01*
X63287Y38288D01*
X63388Y38351D01*
X63416Y38381D01*
X63449Y38405D01*
X63525Y38496D01*
X63606Y38583D01*
X63626Y38618D01*
X63651Y38650D01*
X63702Y38757D01*
X63760Y38862D01*
X63770Y38901D01*
X63787Y38937D01*
X63809Y39054D01*
X63839Y39170D01*
X63843Y39230D01*
X63847Y39250D01*
X63845Y39270D01*
X63849Y39330D01*
X63849Y45641D01*
X66750Y45641D01*
X67524Y45434D01*
X68217Y45033D01*
X68783Y44467D01*
X69132Y43864D01*
X69208Y43764D01*
X69278Y43660D01*
X69303Y43637D01*
X69324Y43610D01*
X69422Y43532D01*
X69517Y43449D01*
X69547Y43434D01*
X69573Y43413D01*
X69688Y43362D01*
X69800Y43304D01*
X69833Y43297D01*
X69863Y43283D01*
X69988Y43262D01*
X70110Y43235D01*
X70144Y43236D01*
X70177Y43230D01*
X70302Y43241D01*
X70428Y43244D01*
X70460Y43254D01*
X70494Y43257D01*
X70613Y43298D01*
X70733Y43333D01*
X70763Y43350D01*
X70794Y43361D01*
X70899Y43431D01*
X71007Y43494D01*
X71044Y43527D01*
X71059Y43537D01*
X71074Y43553D01*
X71128Y43601D01*
X72644Y45116D01*
X72704Y45194D01*
X72772Y45267D01*
X72801Y45320D01*
X72838Y45367D01*
X72878Y45458D01*
X72926Y45545D01*
X72941Y45604D01*
X72965Y45659D01*
X72980Y45757D01*
X73005Y45853D01*
X73011Y45953D01*
X73015Y45973D01*
X73013Y45986D01*
X73015Y46014D01*
X73015Y59302D01*
X73003Y59400D01*
X73000Y59499D01*
X72983Y59558D01*
X72975Y59618D01*
X72939Y59710D01*
X72911Y59805D01*
X72881Y59857D01*
X72858Y59913D01*
X72800Y59993D01*
X72750Y60079D01*
X72684Y60154D01*
X72672Y60171D01*
X72662Y60179D01*
X72644Y60200D01*
X71237Y61606D01*
X71237Y65394D01*
X73916Y68073D01*
X77704Y68073D01*
X79110Y66666D01*
X79189Y66606D01*
X79261Y66538D01*
X79314Y66509D01*
X79362Y66472D01*
X79453Y66432D01*
X79539Y66384D01*
X79598Y66369D01*
X79653Y66345D01*
X79751Y66330D01*
X79847Y66305D01*
X79947Y66299D01*
X79968Y66295D01*
X79980Y66297D01*
X80008Y66295D01*
X90058Y66295D01*
X92066Y64286D01*
X95241Y61112D01*
X95264Y61093D01*
X95283Y61071D01*
X95389Y60996D01*
X95492Y60917D01*
X95519Y60905D01*
X95543Y60888D01*
X95665Y60842D01*
X95784Y60790D01*
X95813Y60786D01*
X95841Y60775D01*
X95970Y60761D01*
X96098Y60740D01*
X96127Y60743D01*
X96157Y60740D01*
X96285Y60758D01*
X96415Y60770D01*
X96442Y60780D01*
X96472Y60784D01*
X96624Y60836D01*
X99377Y61977D01*
X103823Y61977D01*
X107931Y60275D01*
X109339Y58868D01*
X109448Y58782D01*
X109555Y58694D01*
X109574Y58685D01*
X109590Y58673D01*
X109718Y58617D01*
X109843Y58558D01*
X109863Y58555D01*
X109882Y58546D01*
X110020Y58525D01*
X110156Y58499D01*
X110176Y58500D01*
X110196Y58497D01*
X110335Y58510D01*
X110473Y58518D01*
X110492Y58525D01*
X110512Y58526D01*
X110644Y58574D01*
X110775Y58616D01*
X110793Y58627D01*
X110812Y58634D01*
X110927Y58712D01*
X111044Y58786D01*
X111058Y58801D01*
X111075Y58813D01*
X111167Y58917D01*
X111262Y59018D01*
X111272Y59036D01*
X111285Y59051D01*
X111349Y59175D01*
X111416Y59297D01*
X111421Y59316D01*
X111430Y59334D01*
X111460Y59470D01*
X111495Y59605D01*
X111497Y59633D01*
X111500Y59645D01*
X111499Y59665D01*
X111505Y59765D01*
X111505Y67235D01*
X111488Y67373D01*
X111475Y67511D01*
X111468Y67530D01*
X111465Y67550D01*
X111414Y67680D01*
X111367Y67810D01*
X111356Y67827D01*
X111348Y67846D01*
X111267Y67958D01*
X111189Y68074D01*
X111173Y68087D01*
X111162Y68103D01*
X111054Y68192D01*
X110950Y68284D01*
X110932Y68293D01*
X110917Y68306D01*
X110791Y68365D01*
X110667Y68429D01*
X110647Y68433D01*
X110629Y68442D01*
X110492Y68468D01*
X110357Y68498D01*
X110336Y68498D01*
X110317Y68501D01*
X110178Y68493D01*
X110039Y68489D01*
X110019Y68483D01*
X109999Y68482D01*
X109867Y68439D01*
X109733Y68400D01*
X109716Y68390D01*
X109697Y68384D01*
X109579Y68309D01*
X109459Y68239D01*
X109438Y68220D01*
X109428Y68214D01*
X109414Y68199D01*
X109339Y68132D01*
X107931Y66725D01*
X103823Y65023D01*
X99377Y65023D01*
X95269Y66725D01*
X92125Y69869D01*
X90423Y73977D01*
X90423Y78423D01*
X92125Y82531D01*
X95269Y85675D01*
X99377Y87377D01*
X103823Y87377D01*
X107931Y85675D01*
X109339Y84268D01*
X109448Y84182D01*
X109555Y84094D01*
X109574Y84085D01*
X109590Y84073D01*
X109718Y84017D01*
X109843Y83958D01*
X109863Y83955D01*
X109882Y83946D01*
X110020Y83925D01*
X110156Y83899D01*
X110176Y83900D01*
X110196Y83897D01*
X110335Y83910D01*
X110473Y83918D01*
X110492Y83925D01*
X110512Y83926D01*
X110644Y83974D01*
X110775Y84016D01*
X110793Y84027D01*
X110812Y84034D01*
X110927Y84112D01*
X111044Y84186D01*
X111058Y84201D01*
X111075Y84213D01*
X111167Y84317D01*
X111262Y84418D01*
X111272Y84436D01*
X111285Y84451D01*
X111349Y84575D01*
X111416Y84697D01*
X111421Y84716D01*
X111430Y84734D01*
X111460Y84870D01*
X111495Y85005D01*
X111497Y85033D01*
X111500Y85045D01*
X111499Y85065D01*
X111505Y85165D01*
X111505Y92635D01*
X111488Y92773D01*
X111475Y92911D01*
X111468Y92930D01*
X111465Y92950D01*
X111414Y93080D01*
X111367Y93210D01*
X111356Y93227D01*
X111348Y93246D01*
X111267Y93358D01*
X111189Y93474D01*
X111173Y93487D01*
X111162Y93503D01*
X111054Y93592D01*
X110950Y93684D01*
X110932Y93693D01*
X110917Y93706D01*
X110791Y93765D01*
X110667Y93829D01*
X110647Y93833D01*
X110629Y93842D01*
X110492Y93868D01*
X110357Y93898D01*
X110336Y93898D01*
X110317Y93901D01*
X110178Y93893D01*
X110039Y93889D01*
X110019Y93883D01*
X109999Y93882D01*
X109867Y93839D01*
X109733Y93800D01*
X109716Y93790D01*
X109697Y93784D01*
X109579Y93709D01*
X109459Y93639D01*
X109438Y93620D01*
X109428Y93614D01*
X109414Y93599D01*
X109339Y93532D01*
X107931Y92125D01*
X103823Y90423D01*
X99377Y90423D01*
X95269Y92125D01*
X92125Y95269D01*
X90423Y99377D01*
X90423Y103823D01*
X92125Y107931D01*
X95269Y111075D01*
X99377Y112777D01*
X103823Y112777D01*
X107931Y111075D01*
X109339Y109668D01*
X109448Y109582D01*
X109555Y109494D01*
X109574Y109485D01*
X109590Y109473D01*
X109718Y109417D01*
X109843Y109358D01*
X109863Y109355D01*
X109882Y109346D01*
X110020Y109325D01*
X110156Y109299D01*
X110176Y109300D01*
X110196Y109297D01*
X110335Y109310D01*
X110473Y109318D01*
X110492Y109325D01*
X110512Y109326D01*
X110644Y109374D01*
X110775Y109416D01*
X110793Y109427D01*
X110812Y109434D01*
X110927Y109512D01*
X111044Y109586D01*
X111058Y109601D01*
X111075Y109613D01*
X111167Y109717D01*
X111262Y109818D01*
X111272Y109836D01*
X111285Y109851D01*
X111349Y109975D01*
X111416Y110097D01*
X111421Y110116D01*
X111430Y110134D01*
X111460Y110270D01*
X111495Y110405D01*
X111497Y110433D01*
X111500Y110445D01*
X111499Y110465D01*
X111505Y110565D01*
X111505Y118035D01*
X111488Y118173D01*
X111475Y118311D01*
X111468Y118330D01*
X111465Y118350D01*
X111414Y118480D01*
X111367Y118610D01*
X111356Y118627D01*
X111348Y118646D01*
X111267Y118758D01*
X111189Y118874D01*
X111173Y118887D01*
X111162Y118903D01*
X111054Y118992D01*
X110950Y119084D01*
X110932Y119093D01*
X110917Y119106D01*
X110791Y119165D01*
X110667Y119229D01*
X110647Y119233D01*
X110629Y119242D01*
X110492Y119268D01*
X110357Y119298D01*
X110336Y119298D01*
X110317Y119301D01*
X110178Y119293D01*
X110039Y119289D01*
X110019Y119283D01*
X109999Y119282D01*
X109867Y119239D01*
X109733Y119200D01*
X109716Y119190D01*
X109697Y119184D01*
X109579Y119109D01*
X109459Y119039D01*
X109438Y119020D01*
X109428Y119014D01*
X109414Y118999D01*
X109339Y118932D01*
X107931Y117525D01*
X103823Y115823D01*
X99377Y115823D01*
X95269Y117525D01*
X92125Y120669D01*
X90985Y123422D01*
X90970Y123447D01*
X90961Y123475D01*
X90891Y123585D01*
X90827Y123698D01*
X90806Y123719D01*
X90791Y123744D01*
X90696Y123833D01*
X90606Y123926D01*
X90581Y123942D01*
X90559Y123962D01*
X90445Y124025D01*
X90335Y124093D01*
X90306Y124101D01*
X90281Y124116D01*
X90155Y124148D01*
X90031Y124186D01*
X90001Y124188D01*
X89973Y124195D01*
X89812Y124205D01*
X85202Y124205D01*
X75555Y133852D01*
X75555Y144526D01*
X75540Y144644D01*
X75533Y144763D01*
X75520Y144801D01*
X75515Y144842D01*
X75472Y144952D01*
X75435Y145065D01*
X75413Y145100D01*
X75398Y145137D01*
X75329Y145233D01*
X75265Y145334D01*
X75235Y145362D01*
X75212Y145395D01*
X75120Y145471D01*
X75033Y145552D01*
X74998Y145572D01*
X74967Y145597D01*
X74859Y145648D01*
X74755Y145706D01*
X74715Y145716D01*
X74679Y145733D01*
X74562Y145755D01*
X74447Y145785D01*
X74387Y145789D01*
X74367Y145793D01*
X74346Y145791D01*
X74286Y145795D01*
X35973Y145795D01*
X35875Y145783D01*
X35776Y145780D01*
X35718Y145763D01*
X35658Y145755D01*
X35566Y145719D01*
X35471Y145691D01*
X35418Y145661D01*
X35362Y145638D01*
X35282Y145580D01*
X35197Y145530D01*
X35131Y145472D01*
X35122Y145466D01*
X35117Y145460D01*
X35105Y145452D01*
X35097Y145442D01*
X35076Y145424D01*
X35063Y145411D01*
X34990Y145317D01*
X34911Y145227D01*
X34893Y145191D01*
X34868Y145159D01*
X34821Y145050D01*
X34767Y144944D01*
X34758Y144905D01*
X34742Y144868D01*
X34723Y144750D01*
X34697Y144634D01*
X34698Y144594D01*
X34692Y144554D01*
X34703Y144435D01*
X34707Y144316D01*
X34718Y144277D01*
X34722Y144237D01*
X34762Y144125D01*
X34795Y144010D01*
X34816Y143976D01*
X34829Y143938D01*
X34896Y143839D01*
X34957Y143737D01*
X34996Y143691D01*
X35008Y143674D01*
X35023Y143661D01*
X35063Y143616D01*
X36323Y142356D01*
X36323Y141680D01*
X36338Y141562D01*
X36345Y141443D01*
X36358Y141405D01*
X36363Y141364D01*
X36406Y141254D01*
X36443Y141141D01*
X36465Y141106D01*
X36480Y141069D01*
X36550Y140972D01*
X36613Y140872D01*
X36643Y140844D01*
X36666Y140811D01*
X36758Y140735D01*
X36845Y140654D01*
X36880Y140634D01*
X36911Y140609D01*
X37019Y140558D01*
X37123Y140500D01*
X37163Y140490D01*
X37199Y140473D01*
X37316Y140451D01*
X37431Y140421D01*
X37481Y140418D01*
X37481Y135369D01*
X26019Y135369D01*
X26019Y140425D01*
X26026Y140426D01*
X26145Y140433D01*
X26183Y140445D01*
X26224Y140451D01*
X26334Y140494D01*
X26447Y140531D01*
X26482Y140553D01*
X26519Y140568D01*
X26615Y140637D01*
X26716Y140701D01*
X26744Y140731D01*
X26777Y140754D01*
X26853Y140846D01*
X26934Y140933D01*
X26954Y140968D01*
X26979Y140999D01*
X27030Y141107D01*
X27088Y141211D01*
X27098Y141251D01*
X27115Y141287D01*
X27137Y141404D01*
X27167Y141519D01*
X27171Y141579D01*
X27175Y141599D01*
X27173Y141620D01*
X27177Y141680D01*
X27177Y142356D01*
X28584Y143762D01*
X28644Y143841D01*
X28712Y143913D01*
X28741Y143966D01*
X28778Y144014D01*
X28818Y144105D01*
X28866Y144191D01*
X28881Y144250D01*
X28905Y144305D01*
X28920Y144403D01*
X28945Y144499D01*
X28951Y144599D01*
X28955Y144620D01*
X28953Y144632D01*
X28955Y144660D01*
X28955Y147208D01*
X30964Y149216D01*
X31123Y149376D01*
X31124Y149376D01*
X33132Y151385D01*
X74286Y151385D01*
X74404Y151400D01*
X74523Y151407D01*
X74561Y151420D01*
X74602Y151425D01*
X74712Y151468D01*
X74825Y151505D01*
X74860Y151527D01*
X74897Y151542D01*
X74993Y151611D01*
X75094Y151675D01*
X75122Y151705D01*
X75155Y151728D01*
X75231Y151820D01*
X75312Y151907D01*
X75332Y151942D01*
X75357Y151973D01*
X75408Y152081D01*
X75466Y152185D01*
X75476Y152225D01*
X75493Y152261D01*
X75515Y152378D01*
X75545Y152493D01*
X75549Y152553D01*
X75553Y152573D01*
X75551Y152594D01*
X75555Y152654D01*
X75555Y157052D01*
X75540Y157170D01*
X75533Y157289D01*
X75520Y157327D01*
X75515Y157368D01*
X75472Y157478D01*
X75435Y157591D01*
X75413Y157626D01*
X75398Y157663D01*
X75329Y157759D01*
X75265Y157860D01*
X75235Y157888D01*
X75212Y157921D01*
X75120Y157997D01*
X75033Y158078D01*
X74998Y158098D01*
X74967Y158123D01*
X74859Y158174D01*
X74755Y158232D01*
X74715Y158242D01*
X74679Y158259D01*
X74562Y158281D01*
X74447Y158311D01*
X74387Y158315D01*
X74367Y158319D01*
X74346Y158317D01*
X74286Y158321D01*
X72406Y158321D01*
X71128Y159599D01*
X71029Y159676D01*
X70934Y159758D01*
X70904Y159773D01*
X70877Y159794D01*
X70761Y159844D01*
X70649Y159900D01*
X70616Y159907D01*
X70585Y159920D01*
X70461Y159940D01*
X70338Y159966D01*
X70304Y159965D01*
X70271Y159970D01*
X70146Y159959D01*
X70020Y159953D01*
X69988Y159944D01*
X69954Y159940D01*
X69836Y159898D01*
X69716Y159862D01*
X69687Y159844D01*
X69655Y159833D01*
X69551Y159762D01*
X69443Y159697D01*
X69420Y159673D01*
X69392Y159654D01*
X69309Y159560D01*
X69221Y159470D01*
X69194Y159430D01*
X69181Y159416D01*
X69172Y159396D01*
X69132Y159336D01*
X68783Y158733D01*
X68217Y158167D01*
X67524Y157766D01*
X66750Y157559D01*
X63849Y157559D01*
X63849Y163870D01*
X63834Y163988D01*
X63827Y164107D01*
X63815Y164145D01*
X63809Y164185D01*
X63766Y164296D01*
X63729Y164409D01*
X63707Y164443D01*
X63692Y164481D01*
X63623Y164577D01*
X63559Y164678D01*
X63529Y164706D01*
X63506Y164738D01*
X63414Y164814D01*
X63327Y164896D01*
X63292Y164915D01*
X63261Y164941D01*
X63153Y164992D01*
X63049Y165049D01*
X63009Y165059D01*
X62973Y165077D01*
X62866Y165097D01*
X62896Y165101D01*
X63006Y165145D01*
X63119Y165181D01*
X63154Y165203D01*
X63191Y165218D01*
X63287Y165288D01*
X63388Y165351D01*
X63416Y165381D01*
X63449Y165405D01*
X63525Y165496D01*
X63606Y165583D01*
X63626Y165618D01*
X63651Y165650D01*
X63702Y165757D01*
X63760Y165862D01*
X63770Y165901D01*
X63787Y165937D01*
X63809Y166054D01*
X63839Y166170D01*
X63843Y166230D01*
X63847Y166250D01*
X63845Y166270D01*
X63849Y166330D01*
X63849Y172641D01*
X66750Y172641D01*
X67524Y172434D01*
X68217Y172033D01*
X68783Y171467D01*
X69132Y170864D01*
X69208Y170763D01*
X69278Y170660D01*
X69303Y170637D01*
X69324Y170610D01*
X69422Y170532D01*
X69517Y170449D01*
X69547Y170434D01*
X69573Y170413D01*
X69688Y170362D01*
X69800Y170304D01*
X69833Y170297D01*
X69863Y170283D01*
X69988Y170262D01*
X70110Y170235D01*
X70144Y170236D01*
X70177Y170230D01*
X70302Y170241D01*
X70428Y170244D01*
X70460Y170254D01*
X70494Y170257D01*
X70613Y170298D01*
X70733Y170333D01*
X70763Y170350D01*
X70794Y170361D01*
X70899Y170431D01*
X71007Y170494D01*
X71044Y170527D01*
X71059Y170537D01*
X71074Y170553D01*
X71128Y170601D01*
X72406Y171879D01*
X84294Y171879D01*
X85629Y170544D01*
X85629Y159656D01*
X84294Y158321D01*
X82414Y158321D01*
X82296Y158306D01*
X82177Y158299D01*
X82139Y158286D01*
X82098Y158281D01*
X81988Y158238D01*
X81875Y158201D01*
X81840Y158179D01*
X81803Y158164D01*
X81707Y158095D01*
X81606Y158031D01*
X81578Y158001D01*
X81545Y157978D01*
X81469Y157886D01*
X81388Y157799D01*
X81368Y157764D01*
X81343Y157733D01*
X81292Y157625D01*
X81234Y157521D01*
X81224Y157481D01*
X81207Y157445D01*
X81185Y157328D01*
X81155Y157213D01*
X81151Y157153D01*
X81147Y157133D01*
X81149Y157112D01*
X81145Y157052D01*
X81145Y136693D01*
X81157Y136595D01*
X81160Y136496D01*
X81177Y136438D01*
X81185Y136378D01*
X81221Y136286D01*
X81249Y136191D01*
X81279Y136138D01*
X81302Y136082D01*
X81360Y136002D01*
X81410Y135917D01*
X81476Y135841D01*
X81488Y135825D01*
X81498Y135817D01*
X81516Y135796D01*
X87146Y130166D01*
X87224Y130106D01*
X87296Y130038D01*
X87349Y130009D01*
X87397Y129972D01*
X87488Y129932D01*
X87575Y129884D01*
X87633Y129869D01*
X87689Y129845D01*
X87787Y129830D01*
X87883Y129805D01*
X87983Y129799D01*
X88003Y129795D01*
X88015Y129797D01*
X88043Y129795D01*
X89812Y129795D01*
X89841Y129798D01*
X89871Y129796D01*
X89999Y129818D01*
X90127Y129835D01*
X90155Y129845D01*
X90184Y129850D01*
X90303Y129904D01*
X90423Y129952D01*
X90447Y129969D01*
X90474Y129981D01*
X90575Y130062D01*
X90680Y130138D01*
X90699Y130161D01*
X90722Y130180D01*
X90800Y130283D01*
X90883Y130383D01*
X90896Y130410D01*
X90914Y130434D01*
X90985Y130578D01*
X92125Y133331D01*
X95269Y136475D01*
X99377Y138177D01*
X103823Y138177D01*
X107931Y136475D01*
X109339Y135068D01*
X109448Y134982D01*
X109555Y134894D01*
X109574Y134885D01*
X109590Y134873D01*
X109718Y134817D01*
X109843Y134758D01*
X109863Y134755D01*
X109882Y134746D01*
X110020Y134725D01*
X110156Y134699D01*
X110176Y134700D01*
X110196Y134697D01*
X110335Y134710D01*
X110473Y134718D01*
X110492Y134725D01*
X110512Y134726D01*
X110644Y134774D01*
X110775Y134816D01*
X110793Y134827D01*
X110812Y134834D01*
X110927Y134912D01*
X111044Y134986D01*
X111058Y135001D01*
X111075Y135013D01*
X111167Y135117D01*
X111262Y135218D01*
X111272Y135236D01*
X111285Y135251D01*
X111349Y135375D01*
X111416Y135497D01*
X111421Y135516D01*
X111430Y135534D01*
X111460Y135670D01*
X111495Y135805D01*
X111497Y135833D01*
X111500Y135845D01*
X111499Y135865D01*
X111505Y135965D01*
X111505Y143435D01*
X111488Y143573D01*
X111475Y143711D01*
X111468Y143730D01*
X111465Y143750D01*
X111414Y143880D01*
X111367Y144010D01*
X111356Y144027D01*
X111348Y144046D01*
X111267Y144158D01*
X111189Y144274D01*
X111173Y144287D01*
X111162Y144303D01*
X111054Y144392D01*
X110950Y144484D01*
X110932Y144493D01*
X110917Y144506D01*
X110791Y144565D01*
X110667Y144629D01*
X110647Y144633D01*
X110629Y144642D01*
X110492Y144668D01*
X110357Y144698D01*
X110336Y144698D01*
X110317Y144701D01*
X110178Y144693D01*
X110039Y144689D01*
X110019Y144683D01*
X109999Y144682D01*
X109867Y144639D01*
X109733Y144600D01*
X109716Y144590D01*
X109697Y144584D01*
X109579Y144509D01*
X109459Y144439D01*
X109438Y144420D01*
X109428Y144414D01*
X109414Y144399D01*
X109339Y144332D01*
X107931Y142925D01*
X103823Y141223D01*
X99377Y141223D01*
X95269Y142925D01*
X92125Y146069D01*
X90423Y150177D01*
X90423Y154623D01*
X92125Y158731D01*
X95269Y161875D01*
X99564Y163654D01*
X99676Y163718D01*
X99791Y163777D01*
X99814Y163797D01*
X99840Y163812D01*
X99933Y163902D01*
X100030Y163987D01*
X100047Y164012D01*
X100068Y164033D01*
X100136Y164143D01*
X100209Y164250D01*
X100219Y164278D01*
X100235Y164304D01*
X100273Y164427D01*
X100317Y164549D01*
X100319Y164579D01*
X100328Y164608D01*
X100334Y164737D01*
X100347Y164866D01*
X100342Y164896D01*
X100343Y164926D01*
X100317Y165052D01*
X100297Y165180D01*
X100285Y165208D01*
X100279Y165237D01*
X100222Y165354D01*
X100171Y165472D01*
X100153Y165496D01*
X100139Y165523D01*
X100056Y165621D01*
X99976Y165723D01*
X99953Y165742D01*
X99933Y165765D01*
X99827Y165839D01*
X99725Y165919D01*
X99698Y165931D01*
X99673Y165948D01*
X99552Y165994D01*
X99434Y166045D01*
X99392Y166055D01*
X99376Y166061D01*
X99354Y166063D01*
X99277Y166080D01*
X98804Y166155D01*
X97017Y166736D01*
X95343Y167589D01*
X93822Y168694D01*
X92494Y170022D01*
X91389Y171543D01*
X90536Y173217D01*
X89955Y175004D01*
X89915Y175261D01*
X100330Y175261D01*
X100448Y175276D01*
X100567Y175283D01*
X100605Y175296D01*
X100645Y175301D01*
X100756Y175344D01*
X100869Y175381D01*
X100903Y175403D01*
X100941Y175418D01*
X101037Y175488D01*
X101138Y175551D01*
X101166Y175581D01*
X101198Y175604D01*
X101274Y175696D01*
X101356Y175783D01*
X101375Y175818D01*
X101401Y175849D01*
X101452Y175957D01*
X101509Y176061D01*
X101520Y176101D01*
X101537Y176137D01*
X101559Y176254D01*
X101589Y176369D01*
X101593Y176430D01*
X101597Y176450D01*
X101595Y176470D01*
X101599Y176530D01*
X101599Y177801D01*
X102870Y177801D01*
X102988Y177816D01*
X103107Y177823D01*
X103145Y177836D01*
X103185Y177841D01*
X103296Y177885D01*
X103409Y177921D01*
X103444Y177943D01*
X103481Y177958D01*
X103577Y178028D01*
X103678Y178091D01*
X103706Y178121D01*
X103739Y178145D01*
X103814Y178236D01*
X103896Y178323D01*
X103916Y178358D01*
X103941Y178390D01*
X103992Y178497D01*
X104050Y178602D01*
X104060Y178641D01*
X104077Y178677D01*
X104099Y178794D01*
X104129Y178909D01*
X104133Y178970D01*
X104137Y178990D01*
X104135Y179010D01*
X104139Y179070D01*
X104139Y189485D01*
X104396Y189445D01*
X106183Y188864D01*
X107857Y188011D01*
X109458Y186848D01*
X109474Y186839D01*
X109555Y186771D01*
X109574Y186763D01*
X109589Y186751D01*
X109717Y186695D01*
X109843Y186636D01*
X109863Y186632D01*
X109881Y186624D01*
X110019Y186602D01*
X110156Y186576D01*
X110175Y186577D01*
X110195Y186574D01*
X110334Y186587D01*
X110473Y186596D01*
X110492Y186602D01*
X110512Y186604D01*
X110643Y186651D01*
X110775Y186694D01*
X110792Y186705D01*
X110811Y186711D01*
X110926Y186789D01*
X111044Y186864D01*
X111058Y186879D01*
X111074Y186890D01*
X111166Y186994D01*
X111262Y187096D01*
X111272Y187113D01*
X111285Y187128D01*
X111348Y187252D01*
X111416Y187374D01*
X111421Y187394D01*
X111430Y187411D01*
X111460Y187547D01*
X111495Y187682D01*
X111497Y187710D01*
X111499Y187722D01*
X111499Y187742D01*
X111505Y187843D01*
X111505Y199136D01*
X111490Y199254D01*
X111483Y199373D01*
X111470Y199411D01*
X111465Y199452D01*
X111422Y199562D01*
X111385Y199675D01*
X111363Y199710D01*
X111348Y199747D01*
X111279Y199843D01*
X111215Y199944D01*
X111185Y199972D01*
X111162Y200005D01*
X111070Y200081D01*
X110983Y200162D01*
X110948Y200182D01*
X110917Y200207D01*
X110809Y200258D01*
X110705Y200316D01*
X110665Y200326D01*
X110629Y200343D01*
X110512Y200365D01*
X110397Y200395D01*
X110337Y200399D01*
X110317Y200403D01*
X110296Y200401D01*
X110236Y200405D01*
X68663Y200405D01*
X68525Y200388D01*
X68387Y200375D01*
X68368Y200368D01*
X68348Y200365D01*
X68219Y200314D01*
X68088Y200267D01*
X68071Y200256D01*
X68052Y200248D01*
X67940Y200167D01*
X67825Y200089D01*
X67811Y200073D01*
X67795Y200062D01*
X67706Y199954D01*
X67614Y199850D01*
X67605Y199832D01*
X67592Y199817D01*
X67533Y199691D01*
X67469Y199567D01*
X67465Y199547D01*
X67456Y199529D01*
X67430Y199392D01*
X67400Y199257D01*
X67400Y199236D01*
X67397Y199217D01*
X67405Y199078D01*
X67409Y198939D01*
X67415Y198919D01*
X67416Y198899D01*
X67459Y198767D01*
X67498Y198633D01*
X67508Y198616D01*
X67514Y198597D01*
X67589Y198479D01*
X67659Y198359D01*
X67678Y198338D01*
X67685Y198328D01*
X67700Y198314D01*
X67766Y198239D01*
X68708Y197297D01*
X68708Y195072D01*
X68723Y194954D01*
X68730Y194835D01*
X68743Y194797D01*
X68748Y194756D01*
X68791Y194646D01*
X68828Y194533D01*
X68850Y194498D01*
X68865Y194461D01*
X68934Y194365D01*
X68998Y194264D01*
X69028Y194236D01*
X69051Y194203D01*
X69143Y194127D01*
X69230Y194046D01*
X69265Y194026D01*
X69296Y194001D01*
X69404Y193950D01*
X69508Y193892D01*
X69548Y193882D01*
X69584Y193865D01*
X69701Y193843D01*
X69816Y193813D01*
X69876Y193809D01*
X69896Y193805D01*
X69917Y193807D01*
X69977Y193803D01*
X76552Y193803D01*
X78720Y191634D01*
X78799Y191574D01*
X78871Y191506D01*
X78924Y191477D01*
X78972Y191440D01*
X79063Y191400D01*
X79149Y191352D01*
X79208Y191337D01*
X79263Y191313D01*
X79361Y191298D01*
X79457Y191273D01*
X79557Y191267D01*
X79578Y191263D01*
X79590Y191265D01*
X79618Y191263D01*
X80634Y191263D01*
X83313Y188584D01*
X83313Y184796D01*
X80634Y182117D01*
X76846Y182117D01*
X74167Y184796D01*
X74167Y185928D01*
X74152Y186046D01*
X74145Y186165D01*
X74132Y186203D01*
X74127Y186244D01*
X74084Y186354D01*
X74047Y186467D01*
X74025Y186502D01*
X74010Y186539D01*
X73941Y186635D01*
X73877Y186736D01*
X73847Y186764D01*
X73824Y186797D01*
X73732Y186873D01*
X73645Y186954D01*
X73610Y186974D01*
X73579Y186999D01*
X73471Y187050D01*
X73367Y187108D01*
X73327Y187118D01*
X73291Y187135D01*
X73174Y187157D01*
X73059Y187187D01*
X72999Y187191D01*
X72979Y187195D01*
X72958Y187193D01*
X72898Y187197D01*
X69977Y187197D01*
X69859Y187182D01*
X69740Y187175D01*
X69702Y187162D01*
X69661Y187157D01*
X69551Y187114D01*
X69438Y187077D01*
X69403Y187055D01*
X69366Y187040D01*
X69270Y186971D01*
X69169Y186907D01*
X69141Y186877D01*
X69108Y186854D01*
X69032Y186762D01*
X68951Y186675D01*
X68931Y186640D01*
X68906Y186609D01*
X68855Y186501D01*
X68797Y186397D01*
X68787Y186357D01*
X68770Y186321D01*
X68748Y186204D01*
X68718Y186089D01*
X68714Y186029D01*
X68710Y186009D01*
X68712Y185988D01*
X68708Y185928D01*
X68708Y183703D01*
X67376Y182371D01*
X59878Y182371D01*
X59856Y182393D01*
X59762Y182466D01*
X59673Y182545D01*
X59637Y182563D01*
X59605Y182588D01*
X59496Y182636D01*
X59390Y182690D01*
X59350Y182699D01*
X59313Y182715D01*
X59195Y182733D01*
X59079Y182759D01*
X59039Y182758D01*
X58999Y182764D01*
X58880Y182753D01*
X58762Y182750D01*
X58723Y182738D01*
X58682Y182735D01*
X58570Y182694D01*
X58456Y182661D01*
X58421Y182641D01*
X58383Y182627D01*
X58285Y182560D01*
X58182Y182500D01*
X58137Y182460D01*
X58120Y182448D01*
X58107Y182433D01*
X58061Y182393D01*
X57884Y182216D01*
X57192Y181816D01*
X56419Y181609D01*
X54863Y181609D01*
X54863Y189167D01*
X65405Y189167D01*
X65424Y189179D01*
X65446Y189183D01*
X65453Y189198D01*
X65462Y189204D01*
X65461Y189214D01*
X65468Y189230D01*
X65468Y191770D01*
X65456Y191789D01*
X65452Y191811D01*
X65437Y191818D01*
X65431Y191827D01*
X65421Y191826D01*
X65405Y191833D01*
X53658Y191833D01*
X53579Y191907D01*
X53544Y191927D01*
X53512Y191952D01*
X53405Y192003D01*
X53300Y192061D01*
X53261Y192071D01*
X53225Y192088D01*
X53108Y192110D01*
X52992Y192140D01*
X52932Y192144D01*
X52912Y192148D01*
X52892Y192146D01*
X52832Y192150D01*
X47370Y192150D01*
X47370Y196754D01*
X47577Y197527D01*
X47977Y198219D01*
X47996Y198238D01*
X48082Y198348D01*
X48170Y198455D01*
X48179Y198474D01*
X48191Y198490D01*
X48247Y198618D01*
X48306Y198743D01*
X48310Y198763D01*
X48318Y198782D01*
X48340Y198919D01*
X48366Y199056D01*
X48364Y199076D01*
X48368Y199096D01*
X48355Y199234D01*
X48346Y199373D01*
X48340Y199392D01*
X48338Y199412D01*
X48291Y199544D01*
X48248Y199675D01*
X48237Y199692D01*
X48230Y199712D01*
X48152Y199827D01*
X48078Y199944D01*
X48063Y199958D01*
X48052Y199975D01*
X47948Y200067D01*
X47846Y200162D01*
X47828Y200172D01*
X47813Y200185D01*
X47690Y200248D01*
X47568Y200316D01*
X47548Y200321D01*
X47530Y200330D01*
X47394Y200360D01*
X47260Y200395D01*
X47232Y200397D01*
X47220Y200400D01*
X47199Y200399D01*
X47099Y200405D01*
X33657Y200405D01*
X33513Y200387D01*
X33367Y200372D01*
X33355Y200367D01*
X33341Y200365D01*
X33206Y200312D01*
X33069Y200261D01*
X33058Y200253D01*
X33046Y200248D01*
X32928Y200163D01*
X32808Y200080D01*
X32799Y200070D01*
X32788Y200062D01*
X32695Y199949D01*
X32600Y199839D01*
X32594Y199827D01*
X32586Y199817D01*
X32524Y199685D01*
X32459Y199554D01*
X32456Y199541D01*
X32450Y199529D01*
X32423Y199387D01*
X32392Y199243D01*
X32393Y199230D01*
X32390Y199217D01*
X32399Y199072D01*
X32405Y198926D01*
X32409Y198913D01*
X32410Y198899D01*
X32455Y198761D01*
X32497Y198621D01*
X32504Y198609D01*
X32508Y198597D01*
X32586Y198473D01*
X32661Y198349D01*
X32671Y198339D01*
X32678Y198328D01*
X32784Y198228D01*
X32888Y198126D01*
X32904Y198116D01*
X32910Y198110D01*
X32925Y198102D01*
X33022Y198037D01*
X39326Y194397D01*
X44163Y188633D01*
X44908Y186586D01*
X44953Y186499D01*
X44989Y186409D01*
X45025Y186358D01*
X45054Y186303D01*
X45118Y186230D01*
X45175Y186151D01*
X45223Y186112D01*
X45265Y186065D01*
X45345Y186011D01*
X45420Y185949D01*
X45477Y185922D01*
X45528Y185887D01*
X45620Y185855D01*
X45708Y185813D01*
X45769Y185801D01*
X45828Y185780D01*
X45925Y185772D01*
X46020Y185753D01*
X46083Y185757D01*
X46145Y185751D01*
X46241Y185767D01*
X46338Y185773D01*
X46397Y185792D01*
X46459Y185802D01*
X46548Y185841D01*
X46640Y185871D01*
X46693Y185904D01*
X46750Y185929D01*
X46827Y185989D01*
X46909Y186041D01*
X46952Y186087D01*
X47001Y186125D01*
X47060Y186202D01*
X47127Y186273D01*
X47157Y186327D01*
X47195Y186377D01*
X47234Y186466D01*
X47281Y186551D01*
X47296Y186612D01*
X47321Y186669D01*
X47336Y186765D01*
X47360Y186859D01*
X47367Y186963D01*
X47370Y186983D01*
X47369Y186994D01*
X47370Y187020D01*
X47370Y188850D01*
X51563Y188850D01*
X51563Y181609D01*
X50007Y181609D01*
X49234Y181816D01*
X48641Y182159D01*
X48518Y182210D01*
X48399Y182267D01*
X48372Y182272D01*
X48347Y182282D01*
X48216Y182302D01*
X48086Y182326D01*
X48060Y182325D01*
X48033Y182329D01*
X47901Y182315D01*
X47769Y182307D01*
X47743Y182298D01*
X47717Y182296D01*
X47592Y182249D01*
X47467Y182209D01*
X47444Y182194D01*
X47418Y182185D01*
X47310Y182109D01*
X47198Y182039D01*
X47179Y182019D01*
X47157Y182003D01*
X47071Y181903D01*
X46980Y181807D01*
X46967Y181783D01*
X46949Y181763D01*
X46890Y181644D01*
X46826Y181528D01*
X46820Y181502D01*
X46808Y181478D01*
X46780Y181348D01*
X46747Y181220D01*
X46745Y181182D01*
X46741Y181167D01*
X46742Y181145D01*
X46737Y181060D01*
X46737Y174038D01*
X44163Y166967D01*
X39327Y161203D01*
X32810Y157441D01*
X25400Y156134D01*
X17990Y157441D01*
X11474Y161203D01*
X6637Y166967D01*
X5257Y170759D01*
X5212Y170846D01*
X5176Y170936D01*
X5140Y170986D01*
X5111Y171042D01*
X5047Y171115D01*
X4990Y171193D01*
X4942Y171233D01*
X4900Y171280D01*
X4820Y171334D01*
X4745Y171396D01*
X4688Y171423D01*
X4637Y171458D01*
X4545Y171490D01*
X4457Y171532D01*
X4396Y171543D01*
X4337Y171564D01*
X4240Y171573D01*
X4144Y171592D01*
X4082Y171588D01*
X4020Y171593D01*
X3924Y171578D01*
X3827Y171572D01*
X3768Y171553D01*
X3706Y171543D01*
X3617Y171504D01*
X3525Y171474D01*
X3472Y171440D01*
X3415Y171416D01*
X3338Y171356D01*
X3256Y171304D01*
X3213Y171258D01*
X3164Y171220D01*
X3105Y171143D01*
X3038Y171072D01*
X3008Y171017D01*
X2970Y170968D01*
X2931Y170879D01*
X2884Y170793D01*
X2869Y170733D01*
X2844Y170676D01*
X2829Y170580D01*
X2805Y170486D01*
X2798Y170381D01*
X2795Y170362D01*
X2796Y170350D01*
X2795Y170325D01*
X2795Y32875D01*
X2807Y32779D01*
X2810Y32681D01*
X2827Y32621D01*
X2835Y32560D01*
X2870Y32469D01*
X2897Y32376D01*
X2929Y32322D01*
X2952Y32264D01*
X3009Y32185D01*
X3058Y32101D01*
X3102Y32057D01*
X3138Y32007D01*
X3213Y31945D01*
X3282Y31875D01*
X3336Y31843D01*
X3383Y31804D01*
X3471Y31762D01*
X3555Y31712D01*
X3615Y31695D01*
X3671Y31668D01*
X3767Y31650D01*
X3860Y31622D01*
X3922Y31620D01*
X3983Y31608D01*
X4081Y31615D01*
G37*
G36*
X73022Y2812D02*
X73022Y2812D01*
X73160Y2825D01*
X73179Y2832D01*
X73199Y2835D01*
X73329Y2886D01*
X73459Y2933D01*
X73476Y2944D01*
X73495Y2952D01*
X73607Y3033D01*
X73722Y3111D01*
X73736Y3127D01*
X73752Y3138D01*
X73841Y3245D01*
X73933Y3350D01*
X73942Y3368D01*
X73955Y3383D01*
X74014Y3509D01*
X74078Y3633D01*
X74082Y3653D01*
X74091Y3671D01*
X74117Y3807D01*
X74147Y3943D01*
X74147Y3964D01*
X74150Y3983D01*
X74142Y4122D01*
X74137Y4261D01*
X74132Y4281D01*
X74131Y4301D01*
X74088Y4433D01*
X74049Y4567D01*
X74039Y4584D01*
X74033Y4603D01*
X73958Y4721D01*
X73888Y4841D01*
X73869Y4862D01*
X73862Y4872D01*
X73847Y4886D01*
X73781Y4962D01*
X73718Y5024D01*
X73718Y12763D01*
X75727Y14771D01*
X75727Y14772D01*
X76711Y15756D01*
X81738Y15756D01*
X83683Y13811D01*
X83777Y13738D01*
X83866Y13659D01*
X83902Y13641D01*
X83934Y13616D01*
X84043Y13569D01*
X84149Y13515D01*
X84189Y13506D01*
X84226Y13490D01*
X84344Y13471D01*
X84460Y13445D01*
X84500Y13446D01*
X84540Y13440D01*
X84659Y13451D01*
X84777Y13455D01*
X84816Y13466D01*
X84857Y13470D01*
X84969Y13510D01*
X85083Y13543D01*
X85118Y13564D01*
X85156Y13577D01*
X85254Y13644D01*
X85357Y13705D01*
X85402Y13745D01*
X85419Y13756D01*
X85433Y13771D01*
X85478Y13811D01*
X86587Y14920D01*
X87422Y15756D01*
X89738Y15756D01*
X91039Y14455D01*
X91746Y13747D01*
X92507Y12986D01*
X92566Y12940D01*
X92618Y12887D01*
X92691Y12843D01*
X92758Y12791D01*
X92827Y12762D01*
X92891Y12723D01*
X92972Y12699D01*
X93050Y12665D01*
X93124Y12653D01*
X93195Y12632D01*
X93280Y12628D01*
X93364Y12615D01*
X93439Y12622D01*
X93513Y12619D01*
X93596Y12637D01*
X93681Y12645D01*
X93751Y12670D01*
X93824Y12686D01*
X93972Y12748D01*
X95009Y13267D01*
X95276Y13178D01*
X95388Y13155D01*
X95499Y13125D01*
X95544Y13124D01*
X95588Y13116D01*
X95702Y13122D01*
X95817Y13120D01*
X95860Y13131D01*
X95906Y13133D01*
X96015Y13168D01*
X96126Y13194D01*
X96166Y13215D01*
X96209Y13229D01*
X96306Y13290D01*
X96407Y13343D01*
X96440Y13373D01*
X96479Y13397D01*
X96558Y13480D01*
X96642Y13557D01*
X96667Y13595D01*
X96698Y13627D01*
X96754Y13727D01*
X96817Y13823D01*
X96832Y13865D01*
X96854Y13905D01*
X96883Y14016D01*
X96920Y14123D01*
X96924Y14168D01*
X96935Y14212D01*
X96936Y14327D01*
X96945Y14441D01*
X96938Y14485D01*
X96938Y14530D01*
X96911Y14641D01*
X96891Y14754D01*
X96872Y14795D01*
X96862Y14839D01*
X96807Y14939D01*
X96760Y15044D01*
X96732Y15079D01*
X96711Y15119D01*
X96633Y15203D01*
X96562Y15292D01*
X96526Y15319D01*
X96495Y15353D01*
X96399Y15415D01*
X96308Y15483D01*
X96246Y15514D01*
X96228Y15525D01*
X96195Y15539D01*
X96163Y15554D01*
X95269Y15925D01*
X92125Y19069D01*
X91616Y20298D01*
X91601Y20323D01*
X91592Y20351D01*
X91522Y20461D01*
X91458Y20574D01*
X91438Y20595D01*
X91422Y20620D01*
X91327Y20709D01*
X91237Y20802D01*
X91212Y20818D01*
X91190Y20838D01*
X91077Y20901D01*
X90966Y20969D01*
X90938Y20977D01*
X90912Y20992D01*
X90786Y21024D01*
X90662Y21062D01*
X90632Y21064D01*
X90604Y21071D01*
X90443Y21081D01*
X53583Y21081D01*
X50682Y23983D01*
X48903Y25761D01*
X48794Y25846D01*
X48687Y25935D01*
X48668Y25943D01*
X48652Y25956D01*
X48524Y26011D01*
X48399Y26070D01*
X48379Y26074D01*
X48360Y26082D01*
X48222Y26104D01*
X48086Y26130D01*
X48066Y26129D01*
X48046Y26132D01*
X47907Y26119D01*
X47769Y26110D01*
X47750Y26104D01*
X47730Y26102D01*
X47598Y26055D01*
X47467Y26012D01*
X47449Y26002D01*
X47430Y25995D01*
X47315Y25917D01*
X47198Y25842D01*
X47184Y25827D01*
X47167Y25816D01*
X47075Y25712D01*
X46980Y25611D01*
X46970Y25593D01*
X46957Y25578D01*
X46893Y25454D01*
X46826Y25332D01*
X46821Y25312D01*
X46812Y25294D01*
X46782Y25159D01*
X46747Y25024D01*
X46745Y24996D01*
X46742Y24984D01*
X46743Y24964D01*
X46737Y24863D01*
X46737Y21638D01*
X44163Y14567D01*
X39327Y8803D01*
X33022Y5163D01*
X32906Y5075D01*
X32788Y4990D01*
X32780Y4979D01*
X32769Y4971D01*
X32679Y4857D01*
X32585Y4745D01*
X32580Y4732D01*
X32571Y4722D01*
X32512Y4588D01*
X32450Y4457D01*
X32447Y4444D01*
X32442Y4431D01*
X32417Y4287D01*
X32390Y4144D01*
X32391Y4131D01*
X32389Y4118D01*
X32401Y3972D01*
X32410Y3827D01*
X32414Y3814D01*
X32415Y3801D01*
X32463Y3663D01*
X32508Y3525D01*
X32515Y3513D01*
X32520Y3500D01*
X32600Y3379D01*
X32678Y3256D01*
X32688Y3247D01*
X32695Y3235D01*
X32804Y3138D01*
X32910Y3038D01*
X32922Y3031D01*
X32932Y3022D01*
X33060Y2955D01*
X33188Y2884D01*
X33201Y2881D01*
X33213Y2875D01*
X33355Y2841D01*
X33496Y2805D01*
X33515Y2804D01*
X33523Y2802D01*
X33540Y2802D01*
X33657Y2795D01*
X72884Y2795D01*
X73022Y2812D01*
G37*
%LPC*%
G36*
X89915Y180339D02*
X89915Y180339D01*
X89955Y180596D01*
X90536Y182383D01*
X91389Y184057D01*
X92494Y185578D01*
X93822Y186906D01*
X95343Y188011D01*
X97017Y188864D01*
X98804Y189445D01*
X99061Y189485D01*
X99061Y180339D01*
X89915Y180339D01*
G37*
%LPD*%
%LPC*%
G36*
X53309Y167599D02*
X53309Y167599D01*
X53309Y170000D01*
X53516Y170774D01*
X53917Y171467D01*
X54483Y172033D01*
X55176Y172434D01*
X55950Y172641D01*
X58851Y172641D01*
X58851Y167599D01*
X53309Y167599D01*
G37*
%LPD*%
%LPC*%
G36*
X55950Y157559D02*
X55950Y157559D01*
X55176Y157766D01*
X54483Y158167D01*
X53917Y158733D01*
X53516Y159426D01*
X53309Y160200D01*
X53309Y162601D01*
X58851Y162601D01*
X58851Y157559D01*
X55950Y157559D01*
G37*
%LPD*%
D10*
X100647Y10249D02*
X97935Y4826D01*
X95224Y10249D01*
X91292Y10249D02*
X88580Y12961D01*
X88580Y4826D01*
X91292Y4826D02*
X85868Y4826D01*
X81936Y6182D02*
X81936Y11605D01*
X80581Y12961D01*
X77869Y12961D01*
X76513Y11605D01*
X76513Y6182D01*
X77869Y4826D01*
X80581Y4826D01*
X81936Y6182D01*
X76513Y11605D01*
D11*
X6350Y196850D03*
X107950Y6350D03*
D12*
X66350Y33600D02*
X56350Y33600D01*
X56350Y42600D01*
X66350Y42600D01*
X66350Y33600D01*
X66350Y34550D02*
X56350Y34550D01*
X56350Y35500D02*
X66350Y35500D01*
X66350Y36450D02*
X56350Y36450D01*
X56350Y37400D02*
X66350Y37400D01*
X66350Y38350D02*
X56350Y38350D01*
X56350Y39300D02*
X66350Y39300D01*
X66350Y40250D02*
X56350Y40250D01*
X56350Y41200D02*
X66350Y41200D01*
X66350Y42150D02*
X56350Y42150D01*
X73350Y33600D02*
X83350Y33600D01*
X73350Y33600D02*
X73350Y42600D01*
X83350Y42600D01*
X83350Y33600D01*
X83350Y34550D02*
X73350Y34550D01*
X73350Y35500D02*
X83350Y35500D01*
X83350Y36450D02*
X73350Y36450D01*
X73350Y37400D02*
X83350Y37400D01*
X83350Y38350D02*
X73350Y38350D01*
X73350Y39300D02*
X83350Y39300D01*
X83350Y40250D02*
X73350Y40250D01*
X73350Y41200D02*
X83350Y41200D01*
X83350Y42150D02*
X73350Y42150D01*
D13*
X56020Y184645D02*
X50406Y184645D01*
X50406Y196355D01*
X56020Y196355D01*
X56020Y184645D01*
X56020Y185586D02*
X50406Y185586D01*
X50406Y186527D02*
X56020Y186527D01*
X56020Y187468D02*
X50406Y187468D01*
X50406Y188409D02*
X56020Y188409D01*
X56020Y189350D02*
X50406Y189350D01*
X50406Y190291D02*
X56020Y190291D01*
X56020Y191232D02*
X50406Y191232D01*
X50406Y192173D02*
X56020Y192173D01*
X56020Y193114D02*
X50406Y193114D01*
X50406Y194055D02*
X56020Y194055D01*
X56020Y194996D02*
X50406Y194996D01*
X50406Y195937D02*
X56020Y195937D01*
X60820Y184645D02*
X66434Y184645D01*
X60820Y184645D02*
X60820Y196355D01*
X66434Y196355D01*
X66434Y184645D01*
X66434Y185586D02*
X60820Y185586D01*
X60820Y186527D02*
X66434Y186527D01*
X66434Y187468D02*
X60820Y187468D01*
X60820Y188409D02*
X66434Y188409D01*
X66434Y189350D02*
X60820Y189350D01*
X60820Y190291D02*
X66434Y190291D01*
X66434Y191232D02*
X60820Y191232D01*
X60820Y192173D02*
X66434Y192173D01*
X66434Y193114D02*
X60820Y193114D01*
X60820Y194055D02*
X66434Y194055D01*
X66434Y194996D02*
X60820Y194996D01*
X60820Y195937D02*
X66434Y195937D01*
D12*
X66350Y160600D02*
X56350Y160600D01*
X56350Y169600D01*
X66350Y169600D01*
X66350Y160600D01*
X66350Y161550D02*
X56350Y161550D01*
X56350Y162500D02*
X66350Y162500D01*
X66350Y163450D02*
X56350Y163450D01*
X56350Y164400D02*
X66350Y164400D01*
X66350Y165350D02*
X56350Y165350D01*
X56350Y166300D02*
X66350Y166300D01*
X66350Y167250D02*
X56350Y167250D01*
X56350Y168200D02*
X66350Y168200D01*
X66350Y169150D02*
X56350Y169150D01*
X73350Y160600D02*
X83350Y160600D01*
X73350Y160600D02*
X73350Y169600D01*
X83350Y169600D01*
X83350Y160600D01*
X83350Y161550D02*
X73350Y161550D01*
X73350Y162500D02*
X83350Y162500D01*
X83350Y163450D02*
X73350Y163450D01*
X73350Y164400D02*
X83350Y164400D01*
X83350Y165350D02*
X73350Y165350D01*
X73350Y166300D02*
X83350Y166300D01*
X83350Y167250D02*
X73350Y167250D01*
X73350Y168200D02*
X83350Y168200D01*
X83350Y169150D02*
X73350Y169150D01*
D14*
X101600Y177800D03*
X101600Y152400D03*
X101600Y127000D03*
X101600Y101600D03*
X101600Y76200D03*
X101600Y50800D03*
X101600Y25400D03*
D15*
X12450Y118330D02*
X12450Y124870D01*
D16*
X24750Y97100D03*
X24750Y106100D03*
X38750Y97100D03*
X38750Y106100D03*
X24750Y88100D03*
X38750Y115100D03*
X38750Y124600D03*
X38750Y134100D03*
X38750Y78600D03*
X38750Y69100D03*
X24750Y78600D03*
X24750Y69100D03*
X24750Y124600D03*
X24750Y134100D03*
D15*
X12450Y84870D02*
X12450Y78330D01*
X51050Y118330D02*
X51050Y124870D01*
X51050Y84870D02*
X51050Y78330D01*
D17*
X51050Y112600D02*
X51050Y130600D01*
X51050Y90600D02*
X51050Y72600D01*
X12450Y72600D02*
X12450Y90600D01*
X12450Y112600D02*
X12450Y130600D01*
D18*
X48260Y165100D03*
X63500Y88900D03*
X63500Y12700D03*
X88900Y165100D03*
X88900Y139700D03*
X76200Y114300D03*
X50800Y50800D03*
X8890Y153670D03*
D10*
X88900Y63500D02*
X101600Y50800D01*
X88900Y63500D02*
X75810Y63500D01*
X75810Y40640D01*
X78350Y38100D01*
D18*
X75810Y63500D03*
D19*
X78740Y186690D02*
X78740Y186944D01*
X75184Y190500D01*
X63627Y190500D01*
D18*
X78740Y186690D03*
D19*
X12450Y121600D02*
X12450Y81600D01*
X51050Y81600D02*
X51050Y121600D01*
D18*
X31750Y140462D03*
D10*
X31750Y146050D02*
X34290Y148590D01*
X31750Y146050D02*
X31750Y140462D01*
X86360Y127000D02*
X101600Y127000D01*
X78350Y148590D02*
X78350Y165100D01*
X78350Y148590D02*
X78350Y135010D01*
X86360Y127000D01*
X78350Y148590D02*
X34290Y148590D01*
D20*
X31750Y124600D02*
X24750Y124600D01*
X31750Y124600D02*
X38750Y124600D01*
X31750Y78600D02*
X24750Y78600D01*
X31750Y78600D02*
X31750Y124600D01*
X31750Y78600D02*
X38750Y78600D01*
D21*
X48983Y31789D02*
X55372Y25400D01*
X48983Y42078D02*
X31750Y59311D01*
X48983Y42078D02*
X48983Y31789D01*
X55372Y25400D02*
X101600Y25400D01*
D20*
X31750Y59311D02*
X31750Y78600D01*
M02*
