G04 EAGLE Gerber RS-274X export*
G75*
%MOMM*%
%FSLAX34Y34*%
%LPD*%
%INSilkscreen Top*%
%IPPOS*%
%AMOC8*
5,1,8,0,0,1.08239X$1,22.5*%
G01*
%ADD10C,0.152400*%

G36*
X93237Y19487D02*
X93237Y19487D01*
X93232Y19494D01*
X93239Y19500D01*
X93239Y30800D01*
X93235Y30806D01*
X93238Y30810D01*
X93138Y31310D01*
X93094Y31349D01*
X93092Y31347D01*
X93090Y31349D01*
X51590Y31349D01*
X51543Y31313D01*
X51548Y31306D01*
X51541Y31300D01*
X51541Y20000D01*
X51545Y19994D01*
X51542Y19990D01*
X51642Y19490D01*
X51686Y19451D01*
X51688Y19453D01*
X51690Y19451D01*
X93190Y19451D01*
X93237Y19487D01*
G37*
G36*
X94143Y146460D02*
X94143Y146460D01*
X94152Y146456D01*
X94552Y146656D01*
X94562Y146677D01*
X94571Y146684D01*
X94568Y146688D01*
X94571Y146693D01*
X94579Y146700D01*
X94579Y157900D01*
X94574Y157907D01*
X94578Y157912D01*
X94478Y158312D01*
X94431Y158349D01*
X94431Y158348D01*
X94430Y158349D01*
X57630Y158349D01*
X57625Y158346D01*
X57622Y158349D01*
X56422Y158149D01*
X56413Y158139D01*
X56405Y158142D01*
X55908Y157844D01*
X55412Y157646D01*
X55409Y157641D01*
X55405Y157642D01*
X54905Y157342D01*
X54903Y157338D01*
X54899Y157338D01*
X53899Y156538D01*
X53897Y156530D01*
X53891Y156530D01*
X53591Y156130D01*
X53192Y155631D01*
X53191Y155626D01*
X53188Y155625D01*
X52888Y155125D01*
X52889Y155117D01*
X52883Y155116D01*
X52684Y154517D01*
X52484Y154018D01*
X52486Y154011D01*
X52481Y154008D01*
X52281Y152808D01*
X52284Y152803D01*
X52281Y152800D01*
X52281Y151600D01*
X52284Y151595D01*
X52281Y151592D01*
X52381Y150992D01*
X52387Y150986D01*
X52384Y150982D01*
X52584Y150483D01*
X52783Y149884D01*
X52790Y149880D01*
X52788Y149875D01*
X53388Y148875D01*
X53392Y148873D01*
X53392Y148869D01*
X53792Y148369D01*
X53796Y148368D01*
X53795Y148365D01*
X54195Y147965D01*
X54199Y147965D01*
X54199Y147962D01*
X54699Y147562D01*
X54704Y147561D01*
X54705Y147558D01*
X55705Y146958D01*
X55713Y146959D01*
X55714Y146953D01*
X56313Y146754D01*
X56812Y146554D01*
X56819Y146556D01*
X56822Y146551D01*
X57422Y146451D01*
X57427Y146454D01*
X57430Y146451D01*
X94130Y146451D01*
X94143Y146460D01*
G37*
G36*
X93077Y121056D02*
X93077Y121056D01*
X93082Y121052D01*
X93482Y121152D01*
X93504Y121179D01*
X93511Y121185D01*
X93510Y121187D01*
X93519Y121199D01*
X93518Y121199D01*
X93519Y121200D01*
X93519Y132400D01*
X93515Y132406D01*
X93518Y132410D01*
X93418Y132910D01*
X93374Y132949D01*
X93372Y132947D01*
X93370Y132949D01*
X63970Y132949D01*
X63965Y132946D01*
X63962Y132949D01*
X62762Y132749D01*
X62758Y132744D01*
X62754Y132747D01*
X62154Y132547D01*
X62153Y132545D01*
X62152Y132546D01*
X61652Y132346D01*
X61649Y132341D01*
X61645Y132342D01*
X61145Y132042D01*
X61143Y132038D01*
X61139Y132038D01*
X60639Y131638D01*
X60638Y131634D01*
X60635Y131635D01*
X59835Y130835D01*
X59835Y130831D01*
X59832Y130831D01*
X59432Y130331D01*
X59431Y130326D01*
X59428Y130325D01*
X59128Y129825D01*
X59128Y129819D01*
X59124Y129818D01*
X58924Y129318D01*
X58925Y129316D01*
X58923Y129316D01*
X58523Y128116D01*
X58525Y128110D01*
X58521Y128108D01*
X58421Y127508D01*
X58424Y127503D01*
X58421Y127500D01*
X58421Y126400D01*
X58424Y126395D01*
X58421Y126392D01*
X58521Y125792D01*
X58526Y125788D01*
X58523Y125784D01*
X58723Y125184D01*
X58725Y125183D01*
X58724Y125182D01*
X58924Y124682D01*
X58927Y124680D01*
X58926Y124678D01*
X59226Y124078D01*
X59229Y124077D01*
X59228Y124075D01*
X59528Y123575D01*
X59531Y123573D01*
X59531Y123570D01*
X59831Y123170D01*
X59832Y123170D01*
X59832Y123169D01*
X60232Y122669D01*
X60239Y122667D01*
X60239Y122662D01*
X60739Y122262D01*
X60744Y122261D01*
X60745Y122258D01*
X61745Y121658D01*
X61751Y121658D01*
X61752Y121654D01*
X62252Y121454D01*
X62254Y121455D01*
X62254Y121453D01*
X62854Y121253D01*
X62860Y121255D01*
X62862Y121251D01*
X63462Y121151D01*
X63960Y121052D01*
X63967Y121055D01*
X63970Y121051D01*
X93070Y121051D01*
X93077Y121056D01*
G37*
G36*
X94117Y171887D02*
X94117Y171887D01*
X94112Y171894D01*
X94119Y171900D01*
X94119Y183700D01*
X94083Y183747D01*
X94076Y183742D01*
X94070Y183749D01*
X60970Y183749D01*
X60923Y183713D01*
X60924Y183711D01*
X60922Y183710D01*
X60822Y183210D01*
X60825Y183203D01*
X60821Y183200D01*
X60821Y171900D01*
X60857Y171853D01*
X60864Y171858D01*
X60870Y171851D01*
X94070Y171851D01*
X94117Y171887D01*
G37*
G36*
X93487Y44887D02*
X93487Y44887D01*
X93486Y44889D01*
X93488Y44890D01*
X93588Y45390D01*
X93585Y45397D01*
X93589Y45400D01*
X93589Y56600D01*
X93553Y56647D01*
X93551Y56646D01*
X93550Y56648D01*
X93050Y56748D01*
X93043Y56745D01*
X93040Y56749D01*
X66240Y56749D01*
X66234Y56745D01*
X66230Y56748D01*
X65730Y56648D01*
X65727Y56645D01*
X65724Y56647D01*
X64524Y56247D01*
X64523Y56245D01*
X64522Y56246D01*
X64022Y56046D01*
X64019Y56041D01*
X64015Y56042D01*
X63515Y55742D01*
X63513Y55738D01*
X63509Y55738D01*
X63009Y55338D01*
X63008Y55334D01*
X63005Y55335D01*
X62605Y54935D01*
X62605Y54931D01*
X62602Y54931D01*
X62202Y54431D01*
X62202Y54430D01*
X62201Y54430D01*
X61901Y54030D01*
X61901Y54023D01*
X61896Y54022D01*
X61597Y53423D01*
X61298Y52925D01*
X61299Y52912D01*
X61291Y52908D01*
X61192Y52313D01*
X60994Y51818D01*
X60996Y51811D01*
X60993Y51808D01*
X60996Y51804D01*
X60991Y51800D01*
X60991Y50000D01*
X60994Y49995D01*
X60991Y49992D01*
X61091Y49392D01*
X61096Y49388D01*
X61093Y49384D01*
X61293Y48784D01*
X61295Y48783D01*
X61294Y48782D01*
X61494Y48282D01*
X61499Y48279D01*
X61498Y48275D01*
X62098Y47275D01*
X62102Y47273D01*
X62102Y47269D01*
X62502Y46769D01*
X62506Y46768D01*
X62505Y46765D01*
X62905Y46365D01*
X62909Y46365D01*
X62909Y46362D01*
X63409Y45962D01*
X63414Y45961D01*
X63415Y45958D01*
X64415Y45358D01*
X64421Y45358D01*
X64422Y45354D01*
X64922Y45154D01*
X64924Y45155D01*
X64924Y45153D01*
X65524Y44953D01*
X65530Y44955D01*
X65532Y44951D01*
X66132Y44851D01*
X66137Y44854D01*
X66140Y44851D01*
X93440Y44851D01*
X93487Y44887D01*
G37*
G36*
X93263Y95660D02*
X93263Y95660D01*
X93272Y95656D01*
X93672Y95856D01*
X93682Y95877D01*
X93691Y95884D01*
X93688Y95888D01*
X93691Y95893D01*
X93699Y95900D01*
X93699Y107100D01*
X93690Y107113D01*
X93694Y107122D01*
X93494Y107522D01*
X93457Y107541D01*
X93450Y107549D01*
X73750Y107549D01*
X73745Y107546D01*
X73742Y107549D01*
X73142Y107449D01*
X73136Y107443D01*
X73132Y107446D01*
X72633Y107246D01*
X72034Y107047D01*
X72033Y107045D01*
X72032Y107046D01*
X71532Y106846D01*
X71526Y106837D01*
X71519Y106838D01*
X71022Y106440D01*
X70525Y106142D01*
X70521Y106134D01*
X70515Y106135D01*
X70115Y105735D01*
X70115Y105731D01*
X70112Y105731D01*
X69712Y105231D01*
X69711Y105226D01*
X69708Y105225D01*
X69108Y104225D01*
X69108Y104219D01*
X69104Y104218D01*
X68904Y103718D01*
X68905Y103716D01*
X68903Y103716D01*
X68703Y103116D01*
X68705Y103110D01*
X68701Y103108D01*
X68501Y101908D01*
X68504Y101903D01*
X68501Y101900D01*
X68501Y100800D01*
X68508Y100791D01*
X68503Y100784D01*
X68702Y100188D01*
X68801Y99592D01*
X68811Y99583D01*
X68808Y99575D01*
X69105Y99079D01*
X69303Y98484D01*
X69317Y98475D01*
X69315Y98465D01*
X69711Y98070D01*
X70008Y97575D01*
X70019Y97570D01*
X70019Y97562D01*
X70517Y97163D01*
X70915Y96765D01*
X70924Y96764D01*
X70925Y96758D01*
X71925Y96158D01*
X71933Y96159D01*
X71934Y96153D01*
X73134Y95753D01*
X73139Y95755D01*
X73140Y95752D01*
X73640Y95652D01*
X73647Y95655D01*
X73650Y95651D01*
X93250Y95651D01*
X93263Y95660D01*
G37*
G36*
X94036Y70263D02*
X94036Y70263D01*
X94047Y70259D01*
X94347Y70459D01*
X94353Y70476D01*
X94363Y70484D01*
X94358Y70490D01*
X94359Y70492D01*
X94369Y70500D01*
X94369Y81800D01*
X94353Y81821D01*
X94355Y81835D01*
X94055Y82135D01*
X94028Y82139D01*
X94020Y82149D01*
X76320Y82149D01*
X76319Y82149D01*
X76318Y82149D01*
X76317Y82147D01*
X76273Y82113D01*
X76283Y82099D01*
X76276Y82090D01*
X76266Y82117D01*
X76224Y82144D01*
X76220Y82149D01*
X75520Y82149D01*
X75515Y82146D01*
X75512Y82149D01*
X74912Y82049D01*
X74908Y82044D01*
X74904Y82047D01*
X74304Y81847D01*
X74303Y81845D01*
X74302Y81846D01*
X73802Y81646D01*
X73799Y81641D01*
X73795Y81642D01*
X72795Y81042D01*
X72793Y81038D01*
X72789Y81038D01*
X72289Y80638D01*
X72288Y80634D01*
X72285Y80635D01*
X71885Y80235D01*
X71885Y80231D01*
X71882Y80231D01*
X71482Y79731D01*
X71482Y79730D01*
X71481Y79730D01*
X71181Y79330D01*
X71181Y79323D01*
X71176Y79322D01*
X70876Y78722D01*
X70877Y78719D01*
X70874Y78718D01*
X70674Y78218D01*
X70675Y78216D01*
X70673Y78216D01*
X70473Y77616D01*
X70475Y77610D01*
X70471Y77608D01*
X70271Y76408D01*
X70274Y76403D01*
X70271Y76400D01*
X70271Y75900D01*
X70274Y75895D01*
X70271Y75892D01*
X70471Y74692D01*
X70476Y74688D01*
X70473Y74684D01*
X70673Y74084D01*
X70675Y74083D01*
X70674Y74082D01*
X70874Y73582D01*
X70879Y73579D01*
X70878Y73575D01*
X71178Y73075D01*
X71182Y73073D01*
X71182Y73069D01*
X71580Y72572D01*
X71878Y72075D01*
X71889Y72070D01*
X71889Y72062D01*
X72387Y71663D01*
X72785Y71265D01*
X72794Y71264D01*
X72795Y71258D01*
X73295Y70958D01*
X73303Y70959D01*
X73304Y70953D01*
X73903Y70754D01*
X74402Y70554D01*
X74404Y70555D01*
X74404Y70553D01*
X75004Y70353D01*
X75010Y70355D01*
X75012Y70351D01*
X75612Y70251D01*
X75617Y70254D01*
X75620Y70251D01*
X94020Y70251D01*
X94036Y70263D01*
G37*
G36*
X43879Y174681D02*
X43879Y174681D01*
X43941Y174683D01*
X43963Y174696D01*
X43989Y174700D01*
X44060Y174748D01*
X44093Y174766D01*
X44099Y174774D01*
X44109Y174781D01*
X44609Y175281D01*
X44628Y175312D01*
X44666Y175354D01*
X44942Y175814D01*
X45409Y176281D01*
X45417Y176294D01*
X45432Y176307D01*
X45921Y176893D01*
X47109Y178081D01*
X47116Y178092D01*
X47129Y178103D01*
X48319Y179492D01*
X49276Y180448D01*
X50174Y180987D01*
X50671Y181070D01*
X52540Y181070D01*
X52566Y181076D01*
X52603Y181075D01*
X53803Y181275D01*
X53818Y181282D01*
X53840Y181283D01*
X54940Y181583D01*
X54957Y181592D01*
X54981Y181597D01*
X55981Y181997D01*
X56003Y182012D01*
X56036Y182024D01*
X57036Y182624D01*
X57056Y182644D01*
X57090Y182664D01*
X57890Y183364D01*
X57897Y183373D01*
X57909Y183381D01*
X58709Y184181D01*
X58720Y184199D01*
X58740Y184217D01*
X59440Y185117D01*
X59451Y185140D01*
X59472Y185165D01*
X60472Y186965D01*
X60483Y187001D01*
X60508Y187053D01*
X61008Y188953D01*
X61009Y188985D01*
X61020Y189028D01*
X61120Y190728D01*
X61113Y190764D01*
X61114Y190820D01*
X60814Y192420D01*
X60805Y192441D01*
X60801Y192470D01*
X60301Y193970D01*
X60282Y194001D01*
X60261Y194054D01*
X59561Y195154D01*
X59542Y195173D01*
X59524Y195203D01*
X59299Y195456D01*
X58961Y195836D01*
X58724Y196103D01*
X58692Y196125D01*
X58642Y196172D01*
X57842Y196672D01*
X57812Y196683D01*
X57792Y196697D01*
X57757Y196703D01*
X57712Y196723D01*
X57695Y196723D01*
X57678Y196728D01*
X57646Y196724D01*
X57640Y196724D01*
X57632Y196722D01*
X57609Y196719D01*
X57539Y196717D01*
X57524Y196708D01*
X57506Y196706D01*
X57476Y196686D01*
X57471Y196685D01*
X57457Y196673D01*
X57448Y196667D01*
X57387Y196634D01*
X57377Y196619D01*
X57362Y196609D01*
X57346Y196581D01*
X57338Y196575D01*
X57324Y196544D01*
X57287Y196492D01*
X57284Y196473D01*
X57276Y196459D01*
X57274Y196433D01*
X57267Y196416D01*
X57268Y196391D01*
X57260Y196350D01*
X57260Y195512D01*
X57188Y195296D01*
X57128Y195175D01*
X56935Y194982D01*
X56778Y194930D01*
X56587Y194930D01*
X55873Y195109D01*
X55531Y195280D01*
X55260Y195461D01*
X54890Y195738D01*
X54336Y196292D01*
X53993Y196806D01*
X53920Y197097D01*
X53920Y197588D01*
X53992Y197804D01*
X54070Y197959D01*
X54220Y198185D01*
X54541Y198425D01*
X54864Y198587D01*
X55315Y198677D01*
X55322Y198681D01*
X55332Y198681D01*
X55687Y198770D01*
X56150Y198770D01*
X56270Y198710D01*
X56285Y198706D01*
X56298Y198697D01*
X56432Y198671D01*
X56439Y198670D01*
X56440Y198670D01*
X56540Y198670D01*
X56565Y198676D01*
X56591Y198673D01*
X56649Y198695D01*
X56709Y198709D01*
X56729Y198726D01*
X56753Y198735D01*
X56795Y198780D01*
X56842Y198819D01*
X56853Y198843D01*
X56870Y198862D01*
X56888Y198921D01*
X56913Y198978D01*
X56912Y199003D01*
X56920Y199028D01*
X56909Y199089D01*
X56907Y199151D01*
X56894Y199173D01*
X56890Y199199D01*
X56842Y199270D01*
X56824Y199303D01*
X56816Y199309D01*
X56809Y199319D01*
X56709Y199419D01*
X56689Y199431D01*
X56668Y199454D01*
X56268Y199754D01*
X56242Y199766D01*
X56210Y199790D01*
X54810Y200490D01*
X54798Y200493D01*
X54789Y200499D01*
X54760Y200505D01*
X54723Y200521D01*
X53823Y200721D01*
X53789Y200721D01*
X53740Y200730D01*
X52740Y200730D01*
X52712Y200724D01*
X52672Y200724D01*
X51572Y200524D01*
X51537Y200509D01*
X51480Y200491D01*
X51465Y200487D01*
X51462Y200485D01*
X51458Y200484D01*
X50358Y199884D01*
X50338Y199866D01*
X50307Y199850D01*
X49407Y199150D01*
X49387Y199126D01*
X49318Y199052D01*
X48818Y198252D01*
X48806Y198218D01*
X48779Y198170D01*
X48479Y197270D01*
X48476Y197233D01*
X48460Y197150D01*
X48460Y196350D01*
X48467Y196317D01*
X48469Y196268D01*
X48669Y195368D01*
X48686Y195332D01*
X48708Y195265D01*
X49208Y194365D01*
X49230Y194341D01*
X49254Y194300D01*
X49954Y193500D01*
X49955Y193499D01*
X49956Y193497D01*
X50756Y192597D01*
X50764Y192592D01*
X50771Y192581D01*
X51413Y191939D01*
X51660Y191281D01*
X51660Y190712D01*
X51501Y190235D01*
X51180Y189834D01*
X50684Y189503D01*
X49993Y189330D01*
X49278Y189330D01*
X48849Y189416D01*
X48454Y189574D01*
X47936Y190092D01*
X47785Y190319D01*
X47720Y190512D01*
X47720Y190788D01*
X47772Y190945D01*
X48245Y191418D01*
X48460Y191489D01*
X48480Y191502D01*
X48510Y191510D01*
X48910Y191710D01*
X48939Y191734D01*
X49009Y191781D01*
X49109Y191881D01*
X49122Y191902D01*
X49141Y191918D01*
X49167Y191975D01*
X49200Y192028D01*
X49203Y192053D01*
X49213Y192076D01*
X49211Y192139D01*
X49217Y192201D01*
X49208Y192224D01*
X49207Y192249D01*
X49177Y192304D01*
X49155Y192363D01*
X49137Y192380D01*
X49125Y192402D01*
X49055Y192456D01*
X49028Y192480D01*
X49019Y192483D01*
X49010Y192490D01*
X48610Y192690D01*
X48595Y192694D01*
X48582Y192703D01*
X48448Y192729D01*
X48442Y192730D01*
X48441Y192730D01*
X48440Y192730D01*
X47240Y192730D01*
X47214Y192724D01*
X47178Y192725D01*
X46578Y192625D01*
X46572Y192623D01*
X46565Y192623D01*
X46065Y192523D01*
X46039Y192511D01*
X45999Y192503D01*
X45499Y192303D01*
X45468Y192281D01*
X45412Y192254D01*
X45012Y191954D01*
X45008Y191950D01*
X45002Y191947D01*
X44502Y191547D01*
X44485Y191524D01*
X44414Y191446D01*
X43814Y190446D01*
X43802Y190410D01*
X43774Y190354D01*
X43574Y189654D01*
X43573Y189629D01*
X43563Y189597D01*
X43463Y188797D01*
X43465Y188776D01*
X43460Y188750D01*
X43460Y175050D01*
X43466Y175025D01*
X43463Y174999D01*
X43485Y174942D01*
X43499Y174881D01*
X43516Y174861D01*
X43525Y174837D01*
X43570Y174795D01*
X43609Y174748D01*
X43633Y174737D01*
X43652Y174720D01*
X43711Y174702D01*
X43768Y174677D01*
X43793Y174678D01*
X43818Y174670D01*
X43879Y174681D01*
G37*
%LPC*%
G36*
X77624Y72149D02*
X77624Y72149D01*
X77053Y72244D01*
X76867Y72615D01*
X76769Y73204D01*
X76769Y79788D01*
X76955Y80160D01*
X77528Y80351D01*
X80216Y80351D01*
X80808Y80252D01*
X81403Y80054D01*
X81895Y79857D01*
X82387Y79463D01*
X82783Y79067D01*
X83180Y78572D01*
X83476Y78078D01*
X83674Y77583D01*
X83871Y76992D01*
X83871Y76500D01*
X83907Y76453D01*
X83911Y76456D01*
X83914Y76451D01*
X85614Y76251D01*
X85666Y76281D01*
X85662Y76287D01*
X85668Y76290D01*
X85765Y76772D01*
X86136Y77051D01*
X89112Y77051D01*
X89683Y76861D01*
X89869Y76395D01*
X89773Y75817D01*
X89492Y75349D01*
X86040Y75349D01*
X85669Y75720D01*
X85669Y76200D01*
X85633Y76247D01*
X85629Y76244D01*
X85626Y76249D01*
X83926Y76449D01*
X83874Y76419D01*
X83881Y76408D01*
X83871Y76400D01*
X83871Y75804D01*
X83771Y75208D01*
X83673Y74718D01*
X83378Y74225D01*
X83080Y73728D01*
X82685Y73235D01*
X82192Y72840D01*
X81698Y72544D01*
X81203Y72346D01*
X80612Y72149D01*
X77624Y72149D01*
G37*
%LPD*%
%LPC*%
G36*
X83455Y148349D02*
X83455Y148349D01*
X83179Y148716D01*
X83179Y149300D01*
X83143Y149347D01*
X83138Y149344D01*
X83135Y149349D01*
X83079Y149355D01*
X83079Y155791D01*
X83271Y156269D01*
X83646Y156551D01*
X86426Y156551D01*
X87613Y156353D01*
X88105Y156058D01*
X88602Y155760D01*
X89095Y155365D01*
X89491Y154870D01*
X89786Y154477D01*
X89983Y153884D01*
X89985Y153883D01*
X89984Y153882D01*
X90182Y153387D01*
X90281Y152796D01*
X90281Y152204D01*
X90182Y151612D01*
X89984Y151017D01*
X89786Y150522D01*
X89490Y150028D01*
X89095Y149535D01*
X88600Y149139D01*
X88204Y148842D01*
X87614Y148547D01*
X87122Y148449D01*
X86526Y148349D01*
X83455Y148349D01*
G37*
%LPD*%
%LPC*%
G36*
X75854Y97549D02*
X75854Y97549D01*
X75278Y97645D01*
X74999Y98016D01*
X74999Y105188D01*
X75186Y105561D01*
X75659Y105751D01*
X78446Y105751D01*
X79037Y105652D01*
X79530Y105455D01*
X80127Y105157D01*
X80620Y104861D01*
X81013Y104467D01*
X81410Y103972D01*
X81706Y103478D01*
X81904Y102983D01*
X82101Y102392D01*
X82101Y101204D01*
X82002Y100613D01*
X81804Y100118D01*
X81607Y99625D01*
X80813Y98633D01*
X80420Y98239D01*
X79929Y97945D01*
X79334Y97747D01*
X79333Y97745D01*
X79332Y97746D01*
X78841Y97549D01*
X75854Y97549D01*
G37*
%LPD*%
%LPC*%
G36*
X82986Y173749D02*
X82986Y173749D01*
X82619Y174025D01*
X82619Y174600D01*
X82583Y174647D01*
X82577Y174643D01*
X82573Y174649D01*
X82545Y174651D01*
X82570Y174651D01*
X82617Y174687D01*
X82614Y174691D01*
X82617Y174694D01*
X82615Y174697D01*
X82619Y174700D01*
X82619Y181195D01*
X82715Y181672D01*
X83086Y181951D01*
X85866Y181951D01*
X87053Y181753D01*
X87545Y181458D01*
X88042Y181160D01*
X88535Y180765D01*
X88931Y180270D01*
X89226Y179877D01*
X89423Y179284D01*
X89425Y179283D01*
X89424Y179282D01*
X89622Y178787D01*
X89721Y178196D01*
X89721Y177604D01*
X89523Y176417D01*
X89228Y175925D01*
X88930Y175428D01*
X88533Y174933D01*
X88140Y174539D01*
X87645Y174242D01*
X87153Y173947D01*
X85966Y173749D01*
X82986Y173749D01*
G37*
%LPD*%
%LPC*%
G36*
X65810Y21349D02*
X65810Y21349D01*
X65439Y21720D01*
X65439Y28795D01*
X65535Y29272D01*
X65906Y29551D01*
X69582Y29551D01*
X70173Y29354D01*
X70662Y29158D01*
X71051Y28770D01*
X71345Y28279D01*
X71542Y27687D01*
X71641Y27195D01*
X71641Y26608D01*
X71444Y26019D01*
X71246Y25622D01*
X71246Y25620D01*
X71254Y25579D01*
X71252Y25569D01*
X71647Y25075D01*
X71842Y24587D01*
X71940Y24000D01*
X71842Y23412D01*
X71644Y22817D01*
X71448Y22328D01*
X71060Y21939D01*
X70567Y21643D01*
X69978Y21349D01*
X65810Y21349D01*
G37*
%LPD*%
%LPC*%
G36*
X73890Y173749D02*
X73890Y173749D01*
X73616Y174024D01*
X73519Y174604D01*
X73519Y181096D01*
X73615Y181670D01*
X74084Y181951D01*
X74662Y181951D01*
X75241Y181758D01*
X75631Y181270D01*
X78031Y178070D01*
X78530Y177371D01*
X78536Y177370D01*
X78535Y177365D01*
X78735Y177165D01*
X78749Y177163D01*
X78757Y177153D01*
X78767Y177161D01*
X78794Y177157D01*
X78798Y177184D01*
X78819Y177200D01*
X78819Y181380D01*
X79390Y181951D01*
X80061Y181951D01*
X80532Y181762D01*
X80721Y181291D01*
X80721Y174704D01*
X80624Y174124D01*
X80347Y173846D01*
X79667Y173749D01*
X79094Y173749D01*
X78709Y174231D01*
X75509Y178430D01*
X75493Y178434D01*
X75483Y178447D01*
X75473Y178440D01*
X75452Y178446D01*
X75444Y178418D01*
X75421Y178400D01*
X75421Y174309D01*
X75235Y173844D01*
X74666Y173749D01*
X73890Y173749D01*
G37*
%LPD*%
%LPC*%
G36*
X67479Y173749D02*
X67479Y173749D01*
X66988Y173946D01*
X66986Y173945D01*
X66986Y173947D01*
X66394Y174144D01*
X65903Y174537D01*
X65109Y175331D01*
X64812Y175825D01*
X64515Y176321D01*
X64318Y176912D01*
X64219Y177504D01*
X64219Y178692D01*
X64416Y179283D01*
X64614Y179778D01*
X64912Y180275D01*
X65208Y180767D01*
X65701Y181162D01*
X65702Y181166D01*
X65705Y181165D01*
X66099Y181559D01*
X66690Y181855D01*
X67183Y182052D01*
X67774Y182151D01*
X68866Y182151D01*
X69458Y182052D01*
X70049Y181855D01*
X70545Y181558D01*
X71030Y181266D01*
X71218Y180798D01*
X71027Y180227D01*
X70546Y179745D01*
X70076Y179651D01*
X68990Y180145D01*
X68981Y180143D01*
X68978Y180149D01*
X68378Y180249D01*
X68373Y180246D01*
X68370Y180249D01*
X67770Y180249D01*
X67759Y180241D01*
X67752Y180246D01*
X67252Y180046D01*
X67246Y180037D01*
X67239Y180038D01*
X66739Y179638D01*
X66737Y179630D01*
X66731Y179630D01*
X66431Y179230D01*
X66431Y179218D01*
X66423Y179216D01*
X66223Y178616D01*
X66224Y178613D01*
X66222Y178611D01*
X66224Y178609D01*
X66221Y178608D01*
X66121Y178008D01*
X66127Y177998D01*
X66121Y177992D01*
X66221Y177392D01*
X66227Y177386D01*
X66224Y177382D01*
X66424Y176882D01*
X66433Y176876D01*
X66432Y176869D01*
X66832Y176369D01*
X66836Y176368D01*
X66835Y176365D01*
X67235Y175965D01*
X67247Y175964D01*
X67248Y175956D01*
X67848Y175656D01*
X67864Y175659D01*
X67870Y175651D01*
X68970Y175651D01*
X68981Y175659D01*
X68988Y175654D01*
X69488Y175854D01*
X69513Y175895D01*
X69519Y175900D01*
X69519Y177100D01*
X69483Y177147D01*
X69478Y177143D01*
X69474Y177149D01*
X68292Y177248D01*
X68016Y177524D01*
X67921Y178096D01*
X68107Y178656D01*
X68674Y178751D01*
X70566Y178751D01*
X71142Y178655D01*
X71421Y178284D01*
X71421Y175305D01*
X71325Y174824D01*
X70940Y174439D01*
X70448Y174144D01*
X69953Y173946D01*
X69362Y173749D01*
X67479Y173749D01*
G37*
%LPD*%
%LPC*%
G36*
X67046Y148349D02*
X67046Y148349D01*
X66675Y148628D01*
X66579Y149105D01*
X66579Y155695D01*
X66675Y156176D01*
X66953Y156453D01*
X67725Y156550D01*
X68295Y156360D01*
X68481Y155988D01*
X68481Y153600D01*
X68490Y153587D01*
X68486Y153578D01*
X68686Y153178D01*
X68723Y153160D01*
X68730Y153151D01*
X71130Y153151D01*
X71141Y153159D01*
X71148Y153154D01*
X71648Y153354D01*
X71665Y153382D01*
X71673Y153395D01*
X71679Y153400D01*
X71679Y155795D01*
X71777Y156284D01*
X71863Y156456D01*
X72434Y156551D01*
X73016Y156551D01*
X73485Y156270D01*
X73581Y155696D01*
X73581Y149109D01*
X73388Y148628D01*
X73110Y148349D01*
X72338Y148349D01*
X71771Y148538D01*
X71679Y148906D01*
X71679Y151300D01*
X71660Y151326D01*
X71660Y151339D01*
X71260Y151639D01*
X71238Y151639D01*
X71230Y151649D01*
X68830Y151649D01*
X68809Y151633D01*
X68795Y151635D01*
X68495Y151335D01*
X68492Y151308D01*
X68481Y151300D01*
X68481Y148909D01*
X68294Y148443D01*
X67825Y148349D01*
X67046Y148349D01*
G37*
%LPD*%
%LPC*%
G36*
X83190Y122949D02*
X83190Y122949D01*
X82813Y123327D01*
X82621Y123903D01*
X82717Y124384D01*
X83011Y124971D01*
X83403Y125363D01*
X83898Y125760D01*
X85395Y126658D01*
X85895Y126958D01*
X85899Y126966D01*
X85905Y126965D01*
X86305Y127365D01*
X86306Y127377D01*
X86314Y127378D01*
X86614Y127978D01*
X86614Y127981D01*
X86615Y127982D01*
X86613Y127984D01*
X86612Y127987D01*
X86618Y127990D01*
X86718Y128490D01*
X86707Y128513D01*
X86712Y128525D01*
X86412Y129025D01*
X86397Y129032D01*
X86395Y129042D01*
X85895Y129342D01*
X85877Y129340D01*
X85870Y129349D01*
X85270Y129349D01*
X85252Y129335D01*
X85239Y129338D01*
X84739Y128938D01*
X84733Y128914D01*
X84721Y128908D01*
X84621Y128308D01*
X84524Y127821D01*
X84240Y127442D01*
X83665Y127250D01*
X82997Y127346D01*
X82717Y127720D01*
X82620Y128300D01*
X82718Y128887D01*
X82916Y129382D01*
X83113Y129875D01*
X83507Y130367D01*
X83901Y130761D01*
X84391Y131055D01*
X84978Y131251D01*
X86162Y131251D01*
X86753Y131054D01*
X87245Y130857D01*
X87737Y130463D01*
X88127Y130073D01*
X88323Y129484D01*
X88325Y129483D01*
X88324Y129482D01*
X88522Y128987D01*
X88621Y128396D01*
X88621Y127804D01*
X88523Y127217D01*
X88228Y126725D01*
X87932Y126233D01*
X87439Y125838D01*
X86942Y125440D01*
X86448Y125144D01*
X85952Y124946D01*
X85940Y124927D01*
X85923Y124913D01*
X85928Y124906D01*
X85921Y124895D01*
X85950Y124877D01*
X85970Y124851D01*
X88066Y124851D01*
X88642Y124755D01*
X88923Y124380D01*
X89020Y123800D01*
X88925Y123228D01*
X88554Y122949D01*
X83190Y122949D01*
G37*
%LPD*%
%LPC*%
G36*
X76699Y21349D02*
X76699Y21349D01*
X76208Y21546D01*
X76206Y21545D01*
X76206Y21547D01*
X75611Y21745D01*
X75121Y22039D01*
X74729Y22431D01*
X74432Y22925D01*
X74135Y23421D01*
X73938Y24012D01*
X73839Y24608D01*
X73739Y25204D01*
X73739Y28696D01*
X73836Y29276D01*
X74210Y29651D01*
X74786Y29651D01*
X75362Y29555D01*
X75641Y29184D01*
X75641Y28600D01*
X75641Y28599D01*
X75741Y24999D01*
X75745Y24994D01*
X75742Y24990D01*
X75842Y24490D01*
X75845Y24487D01*
X75843Y24484D01*
X76043Y23884D01*
X76057Y23875D01*
X76055Y23865D01*
X76455Y23465D01*
X76471Y23463D01*
X76474Y23453D01*
X77074Y23253D01*
X77085Y23257D01*
X77090Y23251D01*
X77690Y23251D01*
X77701Y23259D01*
X77708Y23254D01*
X78208Y23454D01*
X78216Y23466D01*
X78225Y23465D01*
X78625Y23865D01*
X78626Y23874D01*
X78632Y23875D01*
X78932Y24375D01*
X78931Y24388D01*
X78939Y24392D01*
X79139Y25592D01*
X79136Y25597D01*
X79139Y25600D01*
X79139Y29183D01*
X79514Y29651D01*
X80086Y29651D01*
X80662Y29555D01*
X80943Y29180D01*
X81041Y28596D01*
X81041Y25104D01*
X80941Y24508D01*
X80842Y23913D01*
X80646Y23422D01*
X80350Y22928D01*
X79953Y22433D01*
X79560Y22039D01*
X79067Y21743D01*
X78475Y21447D01*
X77886Y21349D01*
X76699Y21349D01*
G37*
%LPD*%
%LPC*%
G36*
X60739Y148349D02*
X60739Y148349D01*
X60250Y148545D01*
X59657Y148842D01*
X59167Y149233D01*
X58679Y150014D01*
X58679Y150385D01*
X59063Y150960D01*
X59535Y151149D01*
X60006Y151055D01*
X60495Y150565D01*
X60504Y150564D01*
X60505Y150558D01*
X61005Y150258D01*
X61013Y150259D01*
X61014Y150253D01*
X61614Y150053D01*
X61635Y150060D01*
X61646Y150053D01*
X62246Y150253D01*
X62257Y150270D01*
X62269Y150270D01*
X62569Y150670D01*
X62569Y150692D01*
X62579Y150700D01*
X62579Y151300D01*
X62557Y151330D01*
X62555Y151342D01*
X62055Y151642D01*
X62045Y151641D01*
X62042Y151648D01*
X60844Y151947D01*
X60247Y152146D01*
X59754Y152343D01*
X59366Y152634D01*
X58974Y153223D01*
X58778Y153713D01*
X58680Y154300D01*
X58778Y154887D01*
X58974Y155378D01*
X59269Y155870D01*
X59661Y156261D01*
X60151Y156555D01*
X60738Y156751D01*
X61926Y156751D01*
X62518Y156652D01*
X63109Y156455D01*
X63600Y156161D01*
X63981Y155780D01*
X63981Y155312D01*
X63692Y154735D01*
X63216Y154449D01*
X62747Y154449D01*
X62261Y154838D01*
X62250Y154839D01*
X62248Y154846D01*
X61748Y155046D01*
X61731Y155041D01*
X61723Y155049D01*
X61023Y154949D01*
X61004Y154930D01*
X60991Y154930D01*
X60691Y154530D01*
X60691Y154501D01*
X60682Y154490D01*
X60782Y153990D01*
X60803Y153971D01*
X60805Y153958D01*
X61305Y153658D01*
X61314Y153659D01*
X61317Y153653D01*
X62416Y153353D01*
X63013Y153154D01*
X63505Y152957D01*
X63992Y152567D01*
X64286Y152078D01*
X64482Y151587D01*
X64580Y150901D01*
X64482Y150313D01*
X64286Y149822D01*
X63991Y149331D01*
X63600Y148939D01*
X63109Y148645D01*
X62518Y148448D01*
X61926Y148349D01*
X60739Y148349D01*
G37*
%LPD*%
%LPC*%
G36*
X85295Y21349D02*
X85295Y21349D01*
X84803Y21448D01*
X84211Y21645D01*
X83718Y21940D01*
X83227Y22334D01*
X83032Y22626D01*
X82743Y23108D01*
X82835Y23477D01*
X83317Y24055D01*
X83785Y24149D01*
X84265Y23957D01*
X85259Y23162D01*
X85282Y23161D01*
X85290Y23151D01*
X85890Y23151D01*
X85899Y23158D01*
X85906Y23153D01*
X86506Y23353D01*
X86521Y23375D01*
X86534Y23378D01*
X86734Y23778D01*
X86729Y23804D01*
X86737Y23816D01*
X86537Y24416D01*
X86512Y24433D01*
X86508Y24446D01*
X86008Y24646D01*
X86001Y24644D01*
X85998Y24649D01*
X85403Y24748D01*
X84908Y24946D01*
X84906Y24945D01*
X84906Y24947D01*
X84311Y25145D01*
X83818Y25440D01*
X83328Y25833D01*
X83034Y26322D01*
X82839Y26809D01*
X82839Y27396D01*
X82938Y27988D01*
X83133Y28573D01*
X83921Y29361D01*
X84407Y29653D01*
X84994Y29751D01*
X86285Y29751D01*
X86774Y29653D01*
X87364Y29358D01*
X87758Y29063D01*
X88137Y28684D01*
X88044Y28219D01*
X87658Y27640D01*
X87185Y27451D01*
X86711Y27546D01*
X86221Y27938D01*
X86204Y27939D01*
X86200Y27948D01*
X85700Y28048D01*
X85688Y28043D01*
X85682Y28049D01*
X85082Y27949D01*
X85061Y27927D01*
X85048Y27925D01*
X84748Y27425D01*
X84752Y27385D01*
X84748Y27375D01*
X85048Y26875D01*
X85064Y26868D01*
X85065Y26858D01*
X85565Y26558D01*
X85575Y26559D01*
X85578Y26552D01*
X86775Y26253D01*
X87272Y26054D01*
X87765Y25857D01*
X88252Y25467D01*
X88543Y24983D01*
X88641Y24396D01*
X88641Y23804D01*
X88542Y23213D01*
X88346Y22722D01*
X88052Y22233D01*
X87562Y21840D01*
X87069Y21545D01*
X86482Y21349D01*
X85295Y21349D01*
G37*
%LPD*%
%LPC*%
G36*
X77079Y122949D02*
X77079Y122949D01*
X76588Y123146D01*
X76586Y123145D01*
X76586Y123147D01*
X75991Y123345D01*
X75498Y123640D01*
X75003Y124037D01*
X74609Y124431D01*
X74312Y124925D01*
X74015Y125421D01*
X73818Y126012D01*
X73719Y126604D01*
X73719Y127796D01*
X73818Y128387D01*
X74015Y128880D01*
X74311Y129471D01*
X75103Y130263D01*
X75598Y130660D01*
X76091Y130955D01*
X76683Y131152D01*
X77178Y131251D01*
X77774Y131351D01*
X78366Y131351D01*
X78958Y131252D01*
X79549Y131055D01*
X80042Y130759D01*
X80433Y130466D01*
X80718Y129991D01*
X80624Y129522D01*
X80139Y128939D01*
X79768Y128754D01*
X79292Y128944D01*
X78795Y129242D01*
X78787Y129241D01*
X78786Y129247D01*
X78186Y129447D01*
X78170Y129441D01*
X78162Y129449D01*
X76962Y129249D01*
X76953Y129239D01*
X76945Y129242D01*
X76445Y128942D01*
X76441Y128934D01*
X76435Y128935D01*
X76035Y128535D01*
X76034Y128523D01*
X76026Y128522D01*
X75726Y127922D01*
X75727Y127914D01*
X75722Y127910D01*
X75622Y127410D01*
X75625Y127403D01*
X75621Y127400D01*
X75621Y126700D01*
X75629Y126689D01*
X75624Y126682D01*
X75824Y126182D01*
X75829Y126179D01*
X75828Y126175D01*
X76128Y125675D01*
X76136Y125671D01*
X76135Y125665D01*
X76535Y125265D01*
X76547Y125264D01*
X76548Y125256D01*
X77148Y124956D01*
X77157Y124958D01*
X77160Y124952D01*
X77660Y124852D01*
X77667Y124855D01*
X77670Y124851D01*
X78270Y124851D01*
X78279Y124858D01*
X78286Y124853D01*
X78886Y125053D01*
X78889Y125058D01*
X78892Y125056D01*
X79290Y125255D01*
X79768Y125446D01*
X80136Y125262D01*
X80526Y124677D01*
X80715Y124204D01*
X80434Y123736D01*
X79948Y123444D01*
X79453Y123246D01*
X78858Y123048D01*
X78266Y122949D01*
X77079Y122949D01*
G37*
%LPD*%
%LPC*%
G36*
X68574Y122949D02*
X68574Y122949D01*
X67983Y123048D01*
X67488Y123246D01*
X67486Y123245D01*
X67486Y123247D01*
X66891Y123445D01*
X66401Y123739D01*
X65609Y124531D01*
X65313Y125023D01*
X65015Y125620D01*
X64819Y126109D01*
X64819Y126700D01*
X64816Y126705D01*
X64819Y126708D01*
X64720Y127300D01*
X64819Y127892D01*
X64918Y128487D01*
X65115Y128980D01*
X65411Y129571D01*
X66201Y130361D01*
X66693Y130657D01*
X67290Y130955D01*
X67783Y131152D01*
X68378Y131251D01*
X68974Y131351D01*
X69561Y131351D01*
X70052Y131154D01*
X70055Y131155D01*
X70056Y131153D01*
X70752Y130954D01*
X71143Y130758D01*
X71629Y130370D01*
X71816Y129902D01*
X71528Y129327D01*
X71142Y128844D01*
X70776Y128752D01*
X70193Y129043D01*
X69695Y129342D01*
X69682Y129341D01*
X69678Y129349D01*
X69078Y129449D01*
X69068Y129443D01*
X69062Y129449D01*
X68462Y129349D01*
X68456Y129343D01*
X68452Y129346D01*
X67952Y129146D01*
X67949Y129141D01*
X67945Y129142D01*
X67445Y128842D01*
X67441Y128834D01*
X67435Y128835D01*
X67035Y128435D01*
X67034Y128423D01*
X67026Y128422D01*
X66726Y127822D01*
X66727Y127815D01*
X66722Y127811D01*
X66724Y127809D01*
X66721Y127808D01*
X66621Y127208D01*
X66627Y127198D01*
X66621Y127192D01*
X66721Y126592D01*
X66727Y126586D01*
X66724Y126582D01*
X66924Y126082D01*
X66929Y126079D01*
X66928Y126075D01*
X67228Y125575D01*
X67239Y125570D01*
X67239Y125562D01*
X67739Y125162D01*
X67750Y125161D01*
X67752Y125154D01*
X68252Y124954D01*
X68259Y124956D01*
X68262Y124951D01*
X68862Y124851D01*
X68867Y124854D01*
X68870Y124851D01*
X69470Y124851D01*
X69481Y124859D01*
X69488Y124854D01*
X69988Y125054D01*
X69991Y125059D01*
X69995Y125058D01*
X70489Y125354D01*
X70862Y125447D01*
X71335Y125163D01*
X71721Y124585D01*
X71721Y124117D01*
X71337Y123638D01*
X70848Y123344D01*
X70353Y123146D01*
X69762Y122949D01*
X68574Y122949D01*
G37*
%LPD*%
%LPC*%
G36*
X80145Y46749D02*
X80145Y46749D01*
X79650Y46848D01*
X79649Y46848D01*
X79648Y46849D01*
X79055Y46947D01*
X78463Y47243D01*
X77968Y47541D01*
X77572Y47837D01*
X77177Y48233D01*
X76784Y48724D01*
X76587Y49316D01*
X76585Y49317D01*
X76586Y49318D01*
X76388Y49813D01*
X76289Y50408D01*
X76190Y51000D01*
X76289Y51592D01*
X76388Y52187D01*
X76586Y52682D01*
X76570Y52739D01*
X76561Y52737D01*
X76559Y52746D01*
X76532Y52756D01*
X76580Y52771D01*
X76579Y52774D01*
X76582Y52775D01*
X76881Y53272D01*
X77176Y53665D01*
X77671Y54062D01*
X77672Y54066D01*
X77675Y54065D01*
X78069Y54459D01*
X78660Y54755D01*
X79153Y54952D01*
X79748Y55051D01*
X80344Y55151D01*
X80936Y55151D01*
X81528Y55052D01*
X82117Y54856D01*
X82510Y54561D01*
X82514Y54561D01*
X82515Y54558D01*
X83004Y54264D01*
X83286Y53794D01*
X83097Y53227D01*
X82611Y52741D01*
X82242Y52556D01*
X81265Y53142D01*
X81252Y53141D01*
X81248Y53149D01*
X80648Y53249D01*
X80638Y53243D01*
X80632Y53249D01*
X79432Y53049D01*
X79420Y53036D01*
X79409Y53038D01*
X78909Y52638D01*
X78908Y52634D01*
X78905Y52635D01*
X78505Y52235D01*
X78504Y52226D01*
X78498Y52225D01*
X78198Y51725D01*
X78199Y51715D01*
X78192Y51710D01*
X78193Y51709D01*
X78191Y51708D01*
X78091Y51108D01*
X78097Y51098D01*
X78091Y51092D01*
X78291Y49892D01*
X78301Y49883D01*
X78298Y49875D01*
X78598Y49375D01*
X78614Y49368D01*
X78615Y49358D01*
X79115Y49058D01*
X79118Y49058D01*
X79118Y49056D01*
X79718Y48756D01*
X79727Y48758D01*
X79730Y48752D01*
X80230Y48652D01*
X80237Y48655D01*
X80240Y48651D01*
X80840Y48651D01*
X80849Y48658D01*
X80856Y48653D01*
X81456Y48853D01*
X81461Y48861D01*
X81467Y48859D01*
X81763Y49056D01*
X82240Y49247D01*
X82708Y49060D01*
X83094Y48481D01*
X83188Y48009D01*
X82904Y47536D01*
X82417Y47243D01*
X82022Y47046D01*
X81329Y46848D01*
X80736Y46749D01*
X80145Y46749D01*
G37*
%LPD*%
%LPC*%
G36*
X71044Y46749D02*
X71044Y46749D01*
X70453Y46848D01*
X69960Y47045D01*
X69363Y47343D01*
X68871Y47639D01*
X68079Y48431D01*
X67783Y48923D01*
X67487Y49516D01*
X67389Y50008D01*
X67289Y50604D01*
X67289Y51792D01*
X67486Y52383D01*
X67684Y52877D01*
X68080Y53471D01*
X68376Y53865D01*
X68868Y54260D01*
X69365Y54558D01*
X69857Y54853D01*
X70448Y54951D01*
X70452Y54956D01*
X70456Y54953D01*
X71048Y55151D01*
X71536Y55151D01*
X72132Y55051D01*
X72728Y54952D01*
X73319Y54755D01*
X73810Y54461D01*
X74195Y54076D01*
X74288Y53607D01*
X74001Y53032D01*
X73523Y52649D01*
X73154Y52649D01*
X72665Y52942D01*
X72657Y52941D01*
X72656Y52947D01*
X72056Y53147D01*
X72050Y53145D01*
X72048Y53149D01*
X71448Y53249D01*
X71438Y53243D01*
X71432Y53249D01*
X70832Y53149D01*
X70826Y53143D01*
X70822Y53146D01*
X70322Y52946D01*
X70316Y52937D01*
X70309Y52938D01*
X69809Y52538D01*
X69807Y52531D01*
X69802Y52531D01*
X69402Y52031D01*
X69401Y52020D01*
X69394Y52018D01*
X69194Y51518D01*
X69195Y51515D01*
X69193Y51513D01*
X69198Y51506D01*
X69198Y51505D01*
X69191Y51500D01*
X69191Y50900D01*
X69194Y50895D01*
X69191Y50892D01*
X69291Y50292D01*
X69296Y50288D01*
X69293Y50284D01*
X69493Y49684D01*
X69503Y49678D01*
X69501Y49670D01*
X69801Y49270D01*
X69812Y49267D01*
X69813Y49259D01*
X70413Y48859D01*
X70420Y48860D01*
X70422Y48854D01*
X70922Y48654D01*
X70935Y48658D01*
X70940Y48651D01*
X72140Y48651D01*
X72154Y48661D01*
X72164Y48657D01*
X73058Y49154D01*
X73428Y49246D01*
X73901Y48868D01*
X74191Y48288D01*
X74191Y47820D01*
X73810Y47439D01*
X73318Y47144D01*
X72824Y46947D01*
X72133Y46749D01*
X71044Y46749D01*
G37*
%LPD*%
%LPC*%
G36*
X58514Y21446D02*
X58514Y21446D01*
X58131Y21829D01*
X54937Y28216D01*
X54841Y28695D01*
X55030Y29168D01*
X55608Y29553D01*
X56173Y29647D01*
X56549Y29271D01*
X56746Y28879D01*
X58845Y24280D01*
X58856Y24274D01*
X58855Y24265D01*
X59055Y24065D01*
X59058Y24065D01*
X59058Y24062D01*
X59065Y24064D01*
X59114Y24057D01*
X59117Y24076D01*
X59135Y24080D01*
X61334Y28977D01*
X61624Y29460D01*
X62088Y29646D01*
X63053Y29163D01*
X63239Y28792D01*
X63143Y28215D01*
X59949Y21829D01*
X59566Y21445D01*
X59089Y21350D01*
X58514Y21446D01*
G37*
%LPD*%
%LPC*%
G36*
X76333Y148349D02*
X76333Y148349D01*
X75663Y148445D01*
X75477Y148815D01*
X75379Y149404D01*
X75379Y155891D01*
X75568Y156362D01*
X76039Y156551D01*
X76814Y156551D01*
X77189Y156269D01*
X77381Y155791D01*
X77381Y150400D01*
X77397Y150379D01*
X77395Y150365D01*
X77895Y149865D01*
X77922Y149862D01*
X77930Y149851D01*
X80905Y149851D01*
X81183Y149481D01*
X81278Y148813D01*
X81002Y148445D01*
X80426Y148349D01*
X76333Y148349D01*
G37*
%LPD*%
%LPC*%
G36*
X87745Y46749D02*
X87745Y46749D01*
X87271Y46844D01*
X86989Y47314D01*
X86989Y51400D01*
X86953Y51447D01*
X86946Y51442D01*
X86940Y51449D01*
X86640Y51449D01*
X86629Y51441D01*
X86622Y51446D01*
X86140Y51253D01*
X85668Y51442D01*
X85184Y51925D01*
X85088Y52312D01*
X85064Y52331D01*
X85061Y52345D01*
X85033Y52358D01*
X85079Y52369D01*
X85077Y52377D01*
X85084Y52378D01*
X85280Y52770D01*
X87071Y54461D01*
X87366Y54658D01*
X87854Y54951D01*
X88426Y54951D01*
X88891Y54672D01*
X88891Y47025D01*
X88524Y46749D01*
X87745Y46749D01*
G37*
%LPD*%
%LPC*%
G36*
X86070Y99047D02*
X86070Y99047D01*
X85699Y99325D01*
X85699Y100500D01*
X85670Y100538D01*
X85668Y100546D01*
X85168Y100746D01*
X85155Y100742D01*
X85150Y100749D01*
X84555Y100749D01*
X84081Y100844D01*
X83799Y101314D01*
X83799Y101984D01*
X84078Y102355D01*
X84654Y102451D01*
X85250Y102451D01*
X85268Y102464D01*
X85280Y102461D01*
X85680Y102761D01*
X85684Y102777D01*
X85687Y102779D01*
X85685Y102781D01*
X85689Y102792D01*
X85699Y102800D01*
X85699Y103975D01*
X86066Y104251D01*
X86642Y104251D01*
X87207Y104062D01*
X87301Y103595D01*
X87301Y102500D01*
X87337Y102453D01*
X87344Y102458D01*
X87350Y102451D01*
X88638Y102451D01*
X89006Y102267D01*
X89100Y101700D01*
X89003Y101120D01*
X88725Y100749D01*
X87450Y100749D01*
X87403Y100713D01*
X87404Y100711D01*
X87402Y100710D01*
X87302Y100210D01*
X87305Y100203D01*
X87301Y100200D01*
X87301Y99609D01*
X87112Y99138D01*
X86645Y98951D01*
X86070Y99047D01*
G37*
%LPD*%
G36*
X80228Y74057D02*
X80228Y74057D01*
X80234Y74053D01*
X80934Y74253D01*
X80944Y74267D01*
X80955Y74265D01*
X81455Y74765D01*
X81456Y74770D01*
X81459Y74770D01*
X81759Y75170D01*
X81759Y75182D01*
X81767Y75184D01*
X81967Y75784D01*
X81963Y75795D01*
X81969Y75800D01*
X81969Y76400D01*
X81966Y76405D01*
X81969Y76408D01*
X81869Y77008D01*
X81859Y77017D01*
X81862Y77025D01*
X81562Y77525D01*
X81554Y77529D01*
X81555Y77535D01*
X81155Y77935D01*
X81146Y77936D01*
X81145Y77942D01*
X80645Y78242D01*
X80639Y78242D01*
X80638Y78246D01*
X80138Y78446D01*
X80125Y78442D01*
X80120Y78449D01*
X78920Y78449D01*
X78882Y78420D01*
X78874Y78418D01*
X78674Y77918D01*
X78677Y77909D01*
X78673Y77906D01*
X78675Y77903D01*
X78671Y77900D01*
X78671Y74400D01*
X78687Y74379D01*
X78685Y74365D01*
X78985Y74065D01*
X79012Y74062D01*
X79020Y74051D01*
X80220Y74051D01*
X80228Y74057D01*
G37*
G36*
X86943Y150260D02*
X86943Y150260D01*
X86952Y150256D01*
X87152Y150356D01*
X87155Y150363D01*
X87161Y150362D01*
X87661Y150762D01*
X87663Y150769D01*
X87668Y150769D01*
X88068Y151269D01*
X88069Y151280D01*
X88076Y151282D01*
X88276Y151782D01*
X88274Y151789D01*
X88279Y151792D01*
X88379Y152392D01*
X88373Y152402D01*
X88379Y152408D01*
X88279Y153008D01*
X88274Y153012D01*
X88277Y153016D01*
X88077Y153616D01*
X88063Y153625D01*
X88065Y153635D01*
X87665Y154035D01*
X87661Y154035D01*
X87661Y154038D01*
X87161Y154438D01*
X87150Y154439D01*
X87148Y154446D01*
X86648Y154646D01*
X86635Y154642D01*
X86630Y154649D01*
X85430Y154649D01*
X85409Y154633D01*
X85395Y154635D01*
X85095Y154335D01*
X85092Y154309D01*
X85083Y154303D01*
X85083Y154302D01*
X85081Y154300D01*
X85081Y150800D01*
X85085Y150794D01*
X85082Y150790D01*
X85182Y150290D01*
X85226Y150251D01*
X85228Y150253D01*
X85230Y150251D01*
X86930Y150251D01*
X86943Y150260D01*
G37*
G36*
X86383Y175660D02*
X86383Y175660D01*
X86392Y175656D01*
X86592Y175756D01*
X86595Y175763D01*
X86601Y175762D01*
X87101Y176162D01*
X87103Y176169D01*
X87108Y176169D01*
X87508Y176669D01*
X87509Y176680D01*
X87516Y176682D01*
X87716Y177182D01*
X87714Y177189D01*
X87719Y177192D01*
X87819Y177792D01*
X87813Y177802D01*
X87819Y177808D01*
X87719Y178408D01*
X87713Y178414D01*
X87716Y178418D01*
X87516Y178918D01*
X87507Y178924D01*
X87508Y178931D01*
X87108Y179431D01*
X87100Y179433D01*
X87100Y179439D01*
X86700Y179739D01*
X86688Y179739D01*
X86686Y179747D01*
X86086Y179947D01*
X86080Y179945D01*
X86078Y179949D01*
X85478Y180049D01*
X85473Y180046D01*
X85470Y180049D01*
X84870Y180049D01*
X84849Y180033D01*
X84835Y180035D01*
X84535Y179735D01*
X84532Y179709D01*
X84523Y179703D01*
X84523Y179702D01*
X84521Y179700D01*
X84521Y175700D01*
X84557Y175653D01*
X84564Y175658D01*
X84570Y175651D01*
X86370Y175651D01*
X86383Y175660D01*
G37*
G36*
X78357Y99456D02*
X78357Y99456D01*
X78362Y99452D01*
X79162Y99652D01*
X79174Y99667D01*
X79185Y99665D01*
X79585Y100065D01*
X79586Y100074D01*
X79592Y100075D01*
X79892Y100575D01*
X79892Y100581D01*
X79896Y100582D01*
X80096Y101082D01*
X80093Y101090D01*
X80099Y101093D01*
X80199Y101793D01*
X80194Y101801D01*
X80193Y101803D01*
X80193Y101804D01*
X80198Y101810D01*
X80098Y102310D01*
X80091Y102316D01*
X80094Y102322D01*
X79794Y102922D01*
X79784Y102927D01*
X79785Y102935D01*
X79385Y103335D01*
X79376Y103336D01*
X79375Y103342D01*
X78875Y103642D01*
X78869Y103642D01*
X78868Y103646D01*
X78368Y103846D01*
X78355Y103842D01*
X78350Y103849D01*
X77150Y103849D01*
X77117Y103824D01*
X77106Y103822D01*
X76906Y103422D01*
X76908Y103409D01*
X76903Y103404D01*
X76904Y103402D01*
X76901Y103400D01*
X76901Y99800D01*
X76913Y99784D01*
X76909Y99773D01*
X77109Y99473D01*
X77142Y99461D01*
X77150Y99451D01*
X78350Y99451D01*
X78357Y99456D01*
G37*
G36*
X69096Y23255D02*
X69096Y23255D01*
X69100Y23252D01*
X69600Y23352D01*
X69616Y23370D01*
X69629Y23370D01*
X69929Y23770D01*
X69929Y23777D01*
X69932Y23779D01*
X69929Y23782D01*
X69929Y23792D01*
X69939Y23800D01*
X69939Y24300D01*
X69926Y24318D01*
X69929Y24330D01*
X69629Y24730D01*
X69604Y24737D01*
X69598Y24749D01*
X68998Y24849D01*
X68425Y24944D01*
X68241Y25406D01*
X68336Y26073D01*
X68706Y26351D01*
X69390Y26351D01*
X69416Y26370D01*
X69429Y26370D01*
X69729Y26770D01*
X69729Y26779D01*
X69735Y26783D01*
X69729Y26791D01*
X69729Y26798D01*
X69739Y26808D01*
X69639Y27408D01*
X69612Y27434D01*
X69608Y27446D01*
X69108Y27646D01*
X69095Y27642D01*
X69090Y27649D01*
X67890Y27649D01*
X67884Y27645D01*
X67880Y27648D01*
X67380Y27548D01*
X67341Y27504D01*
X67343Y27502D01*
X67341Y27500D01*
X67341Y23400D01*
X67377Y23353D01*
X67379Y23354D01*
X67380Y23352D01*
X67880Y23252D01*
X67887Y23255D01*
X67890Y23251D01*
X69090Y23251D01*
X69096Y23255D01*
G37*
D10*
X15240Y54100D02*
X48260Y54100D01*
X48260Y149100D02*
X15240Y149100D01*
X50750Y140970D02*
X50750Y137160D01*
X50750Y140970D02*
X50750Y142240D01*
X50750Y66040D02*
X50750Y60960D01*
X12650Y60960D02*
X12650Y66040D01*
X12650Y137160D02*
X12650Y142240D01*
X12650Y104140D02*
X12650Y99060D01*
X50750Y99060D02*
X50750Y104140D01*
X12650Y62230D02*
X12650Y57150D01*
X50750Y57150D02*
X50750Y62230D01*
X50750Y140970D02*
X50750Y146050D01*
X12650Y146050D02*
X12650Y140970D01*
X12650Y146050D02*
X15240Y149100D01*
X12650Y57150D02*
X15240Y54100D01*
X48260Y54100D02*
X50750Y57150D01*
X50750Y146050D02*
X48260Y149100D01*
M02*
