G04 EAGLE Gerber RS-274X export*
G75*
%MOMM*%
%FSLAX34Y34*%
%LPD*%
%INSoldermask Top*%
%IPPOS*%
%AMOC8*
5,1,8,0,0,1.08239X$1,22.5*%
G01*
%ADD10C,0.762000*%
%ADD11C,3.175000*%
%ADD12C,2.006600*%
%ADD13R,0.881000X0.881000*%

G36*
X52225Y110666D02*
X52225Y110666D01*
X52231Y110671D01*
X52235Y110668D01*
X53360Y111010D01*
X53365Y111015D01*
X53369Y111013D01*
X54407Y111568D01*
X54410Y111574D01*
X54415Y111573D01*
X55324Y112319D01*
X55326Y112326D01*
X55331Y112326D01*
X56077Y113235D01*
X56077Y113243D01*
X56082Y113243D01*
X56637Y114281D01*
X56636Y114288D01*
X56640Y114290D01*
X56757Y114674D01*
X56951Y115315D01*
X56982Y115415D01*
X56979Y115422D01*
X56984Y115425D01*
X57099Y116595D01*
X57097Y116598D01*
X57099Y116600D01*
X57099Y126600D01*
X57097Y126603D01*
X57099Y126605D01*
X56984Y127775D01*
X56979Y127781D01*
X56982Y127785D01*
X56640Y128910D01*
X56635Y128915D01*
X56637Y128919D01*
X56082Y129957D01*
X56076Y129960D01*
X56077Y129965D01*
X55331Y130874D01*
X55324Y130876D01*
X55324Y130881D01*
X54415Y131627D01*
X54407Y131627D01*
X54407Y131632D01*
X53369Y132187D01*
X53362Y132186D01*
X53360Y132190D01*
X52235Y132532D01*
X52228Y132529D01*
X52225Y132534D01*
X51055Y132649D01*
X51049Y132645D01*
X51045Y132649D01*
X49875Y132534D01*
X49869Y132529D01*
X49865Y132532D01*
X48740Y132190D01*
X48735Y132185D01*
X48731Y132187D01*
X47693Y131632D01*
X47690Y131626D01*
X47685Y131627D01*
X46776Y130881D01*
X46774Y130874D01*
X46769Y130874D01*
X46023Y129965D01*
X46023Y129957D01*
X46018Y129957D01*
X45463Y128919D01*
X45464Y128912D01*
X45460Y128910D01*
X45317Y128442D01*
X45303Y128393D01*
X45123Y127802D01*
X45118Y127785D01*
X45121Y127778D01*
X45116Y127775D01*
X45001Y126605D01*
X45003Y126602D01*
X45001Y126600D01*
X45001Y116600D01*
X45003Y116597D01*
X45001Y116595D01*
X45116Y115425D01*
X45121Y115419D01*
X45118Y115415D01*
X45460Y114290D01*
X45465Y114285D01*
X45463Y114281D01*
X46018Y113243D01*
X46024Y113240D01*
X46023Y113235D01*
X46769Y112326D01*
X46776Y112324D01*
X46776Y112319D01*
X47685Y111573D01*
X47693Y111573D01*
X47693Y111568D01*
X48731Y111013D01*
X48738Y111014D01*
X48740Y111010D01*
X49865Y110668D01*
X49872Y110671D01*
X49875Y110666D01*
X51045Y110551D01*
X51051Y110555D01*
X51055Y110551D01*
X52225Y110666D01*
G37*
G36*
X13625Y110666D02*
X13625Y110666D01*
X13631Y110671D01*
X13635Y110668D01*
X14760Y111010D01*
X14765Y111015D01*
X14769Y111013D01*
X15807Y111568D01*
X15810Y111574D01*
X15815Y111573D01*
X16724Y112319D01*
X16726Y112326D01*
X16731Y112326D01*
X17477Y113235D01*
X17477Y113243D01*
X17482Y113243D01*
X18037Y114281D01*
X18036Y114288D01*
X18040Y114290D01*
X18157Y114674D01*
X18351Y115315D01*
X18382Y115415D01*
X18379Y115422D01*
X18384Y115425D01*
X18499Y116595D01*
X18497Y116598D01*
X18499Y116600D01*
X18499Y126600D01*
X18497Y126603D01*
X18499Y126605D01*
X18384Y127775D01*
X18379Y127781D01*
X18382Y127785D01*
X18040Y128910D01*
X18035Y128915D01*
X18037Y128919D01*
X17482Y129957D01*
X17476Y129960D01*
X17477Y129965D01*
X16731Y130874D01*
X16724Y130876D01*
X16724Y130881D01*
X15815Y131627D01*
X15807Y131627D01*
X15807Y131632D01*
X14769Y132187D01*
X14762Y132186D01*
X14760Y132190D01*
X13635Y132532D01*
X13628Y132529D01*
X13625Y132534D01*
X12455Y132649D01*
X12449Y132645D01*
X12445Y132649D01*
X11275Y132534D01*
X11269Y132529D01*
X11265Y132532D01*
X10140Y132190D01*
X10135Y132185D01*
X10131Y132187D01*
X9093Y131632D01*
X9090Y131626D01*
X9085Y131627D01*
X8176Y130881D01*
X8174Y130874D01*
X8169Y130874D01*
X7423Y129965D01*
X7423Y129957D01*
X7418Y129957D01*
X6863Y128919D01*
X6864Y128912D01*
X6860Y128910D01*
X6717Y128442D01*
X6703Y128393D01*
X6523Y127802D01*
X6518Y127785D01*
X6521Y127778D01*
X6516Y127775D01*
X6401Y126605D01*
X6403Y126602D01*
X6401Y126600D01*
X6401Y116600D01*
X6403Y116597D01*
X6401Y116595D01*
X6516Y115425D01*
X6521Y115419D01*
X6518Y115415D01*
X6860Y114290D01*
X6865Y114285D01*
X6863Y114281D01*
X7418Y113243D01*
X7424Y113240D01*
X7423Y113235D01*
X8169Y112326D01*
X8176Y112324D01*
X8176Y112319D01*
X9085Y111573D01*
X9093Y111573D01*
X9093Y111568D01*
X10131Y111013D01*
X10138Y111014D01*
X10140Y111010D01*
X11265Y110668D01*
X11272Y110671D01*
X11275Y110666D01*
X12445Y110551D01*
X12451Y110555D01*
X12455Y110551D01*
X13625Y110666D01*
G37*
G36*
X52225Y70666D02*
X52225Y70666D01*
X52231Y70671D01*
X52235Y70668D01*
X53360Y71010D01*
X53365Y71015D01*
X53369Y71013D01*
X54407Y71568D01*
X54410Y71574D01*
X54415Y71573D01*
X55324Y72319D01*
X55326Y72326D01*
X55331Y72326D01*
X56077Y73235D01*
X56077Y73243D01*
X56082Y73243D01*
X56637Y74281D01*
X56636Y74288D01*
X56640Y74290D01*
X56757Y74674D01*
X56951Y75315D01*
X56982Y75415D01*
X56979Y75422D01*
X56984Y75425D01*
X57099Y76595D01*
X57097Y76598D01*
X57099Y76600D01*
X57099Y86600D01*
X57097Y86603D01*
X57099Y86605D01*
X56984Y87775D01*
X56979Y87781D01*
X56982Y87785D01*
X56640Y88910D01*
X56635Y88915D01*
X56637Y88919D01*
X56082Y89957D01*
X56076Y89960D01*
X56077Y89965D01*
X55331Y90874D01*
X55324Y90876D01*
X55324Y90881D01*
X54415Y91627D01*
X54407Y91627D01*
X54407Y91632D01*
X53369Y92187D01*
X53362Y92186D01*
X53360Y92190D01*
X52235Y92532D01*
X52228Y92529D01*
X52225Y92534D01*
X51055Y92649D01*
X51049Y92645D01*
X51045Y92649D01*
X49875Y92534D01*
X49869Y92529D01*
X49865Y92532D01*
X48740Y92190D01*
X48735Y92185D01*
X48731Y92187D01*
X47693Y91632D01*
X47690Y91626D01*
X47685Y91627D01*
X46776Y90881D01*
X46774Y90874D01*
X46769Y90874D01*
X46023Y89965D01*
X46023Y89957D01*
X46018Y89957D01*
X45463Y88919D01*
X45464Y88912D01*
X45460Y88910D01*
X45317Y88442D01*
X45303Y88393D01*
X45123Y87802D01*
X45118Y87785D01*
X45121Y87778D01*
X45116Y87775D01*
X45001Y86605D01*
X45003Y86602D01*
X45001Y86600D01*
X45001Y76600D01*
X45003Y76597D01*
X45001Y76595D01*
X45116Y75425D01*
X45121Y75419D01*
X45118Y75415D01*
X45460Y74290D01*
X45465Y74285D01*
X45463Y74281D01*
X46018Y73243D01*
X46024Y73240D01*
X46023Y73235D01*
X46769Y72326D01*
X46776Y72324D01*
X46776Y72319D01*
X47685Y71573D01*
X47693Y71573D01*
X47693Y71568D01*
X48731Y71013D01*
X48738Y71014D01*
X48740Y71010D01*
X49865Y70668D01*
X49872Y70671D01*
X49875Y70666D01*
X51045Y70551D01*
X51051Y70555D01*
X51055Y70551D01*
X52225Y70666D01*
G37*
G36*
X13625Y70666D02*
X13625Y70666D01*
X13631Y70671D01*
X13635Y70668D01*
X14760Y71010D01*
X14765Y71015D01*
X14769Y71013D01*
X15807Y71568D01*
X15810Y71574D01*
X15815Y71573D01*
X16724Y72319D01*
X16726Y72326D01*
X16731Y72326D01*
X17477Y73235D01*
X17477Y73243D01*
X17482Y73243D01*
X18037Y74281D01*
X18036Y74288D01*
X18040Y74290D01*
X18157Y74674D01*
X18351Y75315D01*
X18382Y75415D01*
X18379Y75422D01*
X18384Y75425D01*
X18499Y76595D01*
X18497Y76598D01*
X18499Y76600D01*
X18499Y86600D01*
X18497Y86603D01*
X18499Y86605D01*
X18384Y87775D01*
X18379Y87781D01*
X18382Y87785D01*
X18040Y88910D01*
X18035Y88915D01*
X18037Y88919D01*
X17482Y89957D01*
X17476Y89960D01*
X17477Y89965D01*
X16731Y90874D01*
X16724Y90876D01*
X16724Y90881D01*
X15815Y91627D01*
X15807Y91627D01*
X15807Y91632D01*
X14769Y92187D01*
X14762Y92186D01*
X14760Y92190D01*
X13635Y92532D01*
X13628Y92529D01*
X13625Y92534D01*
X12455Y92649D01*
X12449Y92645D01*
X12445Y92649D01*
X11275Y92534D01*
X11269Y92529D01*
X11265Y92532D01*
X10140Y92190D01*
X10135Y92185D01*
X10131Y92187D01*
X9093Y91632D01*
X9090Y91626D01*
X9085Y91627D01*
X8176Y90881D01*
X8174Y90874D01*
X8169Y90874D01*
X7423Y89965D01*
X7423Y89957D01*
X7418Y89957D01*
X6863Y88919D01*
X6864Y88912D01*
X6860Y88910D01*
X6717Y88442D01*
X6703Y88393D01*
X6523Y87802D01*
X6518Y87785D01*
X6521Y87778D01*
X6516Y87775D01*
X6401Y86605D01*
X6403Y86602D01*
X6401Y86600D01*
X6401Y76600D01*
X6403Y76597D01*
X6401Y76595D01*
X6516Y75425D01*
X6521Y75419D01*
X6518Y75415D01*
X6860Y74290D01*
X6865Y74285D01*
X6863Y74281D01*
X7418Y73243D01*
X7424Y73240D01*
X7423Y73235D01*
X8169Y72326D01*
X8176Y72324D01*
X8176Y72319D01*
X9085Y71573D01*
X9093Y71573D01*
X9093Y71568D01*
X10131Y71013D01*
X10138Y71014D01*
X10140Y71010D01*
X11265Y70668D01*
X11272Y70671D01*
X11275Y70666D01*
X12445Y70551D01*
X12451Y70555D01*
X12455Y70551D01*
X13625Y70666D01*
G37*
D10*
X6350Y196850D03*
X107950Y6350D03*
D11*
X25400Y177800D03*
X25400Y25400D03*
D12*
X101600Y177800D03*
X101600Y152400D03*
X101600Y127000D03*
X101600Y101600D03*
X101600Y76200D03*
X101600Y50800D03*
X101600Y25400D03*
D13*
X24750Y97100D03*
X24750Y106100D03*
X38750Y97100D03*
X38750Y106100D03*
X24750Y88100D03*
X38750Y115100D03*
X38750Y124600D03*
X38750Y134100D03*
X38750Y78600D03*
X38750Y69100D03*
X24750Y78600D03*
X24750Y69100D03*
X24750Y124600D03*
X24750Y134100D03*
M02*
