G04 EAGLE Gerber RS-274X export*
G75*
%MOMM*%
%FSLAX34Y34*%
%LPD*%
%INTop Copper*%
%IPPOS*%
%AMOC8*
5,1,8,0,0,1.08239X$1,22.5*%
G01*
%ADD10C,0.635000*%
%ADD11C,1.879600*%
%ADD12C,0.654000*%
%ADD13R,0.754000X0.754000*%
%ADD14C,0.900000*%
%ADD15C,0.558800*%
%ADD16C,0.304800*%
%ADD17C,0.203200*%
%ADD18C,0.127000*%

G36*
X102211Y2801D02*
X102211Y2801D01*
X102260Y2799D01*
X102368Y2821D01*
X102477Y2835D01*
X102523Y2853D01*
X102572Y2863D01*
X102670Y2911D01*
X102772Y2952D01*
X102813Y2981D01*
X102857Y3003D01*
X102941Y3074D01*
X103030Y3138D01*
X103061Y3177D01*
X103099Y3209D01*
X103162Y3299D01*
X103233Y3383D01*
X103254Y3428D01*
X103282Y3469D01*
X103321Y3572D01*
X103368Y3671D01*
X103377Y3720D01*
X103395Y3766D01*
X103407Y3876D01*
X103428Y3983D01*
X103425Y4033D01*
X103430Y4082D01*
X103415Y4191D01*
X103408Y4301D01*
X103393Y4348D01*
X103386Y4397D01*
X103334Y4550D01*
X102996Y5365D01*
X102996Y7335D01*
X103750Y9156D01*
X105144Y10550D01*
X106965Y11304D01*
X108935Y11304D01*
X109750Y10966D01*
X109798Y10953D01*
X109843Y10932D01*
X109951Y10911D01*
X110057Y10882D01*
X110107Y10881D01*
X110156Y10872D01*
X110265Y10879D01*
X110375Y10877D01*
X110423Y10889D01*
X110473Y10892D01*
X110577Y10926D01*
X110684Y10951D01*
X110728Y10975D01*
X110775Y10990D01*
X110868Y11049D01*
X110965Y11100D01*
X111002Y11133D01*
X111044Y11160D01*
X111119Y11240D01*
X111201Y11314D01*
X111228Y11355D01*
X111262Y11392D01*
X111315Y11488D01*
X111375Y11580D01*
X111392Y11627D01*
X111416Y11670D01*
X111443Y11776D01*
X111479Y11880D01*
X111483Y11930D01*
X111495Y11978D01*
X111505Y12139D01*
X111505Y16435D01*
X111488Y16573D01*
X111475Y16711D01*
X111468Y16730D01*
X111465Y16750D01*
X111414Y16880D01*
X111367Y17010D01*
X111356Y17027D01*
X111348Y17046D01*
X111267Y17158D01*
X111189Y17274D01*
X111173Y17287D01*
X111162Y17303D01*
X111054Y17392D01*
X110950Y17484D01*
X110932Y17493D01*
X110917Y17506D01*
X110791Y17565D01*
X110667Y17629D01*
X110647Y17633D01*
X110629Y17642D01*
X110492Y17668D01*
X110357Y17698D01*
X110336Y17698D01*
X110317Y17701D01*
X110178Y17693D01*
X110039Y17689D01*
X110019Y17683D01*
X109999Y17682D01*
X109867Y17639D01*
X109733Y17600D01*
X109716Y17590D01*
X109697Y17584D01*
X109579Y17509D01*
X109459Y17439D01*
X109438Y17420D01*
X109428Y17414D01*
X109414Y17399D01*
X109339Y17332D01*
X107931Y15925D01*
X103823Y14223D01*
X99377Y14223D01*
X95269Y15925D01*
X92125Y19069D01*
X90423Y23177D01*
X90423Y27623D01*
X92125Y31731D01*
X95269Y34875D01*
X99377Y36577D01*
X103823Y36577D01*
X107931Y34875D01*
X109339Y33468D01*
X109448Y33382D01*
X109555Y33294D01*
X109574Y33285D01*
X109590Y33273D01*
X109718Y33217D01*
X109843Y33158D01*
X109863Y33155D01*
X109882Y33146D01*
X110020Y33125D01*
X110156Y33099D01*
X110176Y33100D01*
X110196Y33097D01*
X110335Y33110D01*
X110473Y33118D01*
X110492Y33125D01*
X110512Y33126D01*
X110644Y33174D01*
X110775Y33216D01*
X110793Y33227D01*
X110812Y33234D01*
X110927Y33312D01*
X111044Y33386D01*
X111058Y33401D01*
X111075Y33413D01*
X111167Y33517D01*
X111262Y33618D01*
X111272Y33636D01*
X111285Y33651D01*
X111349Y33775D01*
X111416Y33897D01*
X111421Y33916D01*
X111430Y33934D01*
X111460Y34070D01*
X111495Y34205D01*
X111497Y34233D01*
X111500Y34245D01*
X111499Y34265D01*
X111505Y34365D01*
X111505Y41835D01*
X111488Y41973D01*
X111475Y42111D01*
X111468Y42130D01*
X111465Y42150D01*
X111414Y42280D01*
X111367Y42410D01*
X111356Y42427D01*
X111348Y42446D01*
X111267Y42558D01*
X111189Y42674D01*
X111173Y42687D01*
X111162Y42703D01*
X111054Y42792D01*
X110950Y42884D01*
X110932Y42893D01*
X110917Y42906D01*
X110791Y42965D01*
X110667Y43029D01*
X110647Y43033D01*
X110629Y43042D01*
X110492Y43068D01*
X110357Y43098D01*
X110336Y43098D01*
X110317Y43101D01*
X110178Y43093D01*
X110039Y43089D01*
X110019Y43083D01*
X109999Y43082D01*
X109867Y43039D01*
X109733Y43000D01*
X109716Y42990D01*
X109697Y42984D01*
X109579Y42909D01*
X109459Y42839D01*
X109438Y42820D01*
X109428Y42814D01*
X109414Y42799D01*
X109339Y42732D01*
X107931Y41325D01*
X103823Y39623D01*
X99377Y39623D01*
X95269Y41325D01*
X92125Y44469D01*
X90423Y48577D01*
X90423Y53023D01*
X92125Y57131D01*
X95269Y60275D01*
X99377Y61977D01*
X103823Y61977D01*
X107931Y60275D01*
X109339Y58868D01*
X109448Y58782D01*
X109555Y58694D01*
X109574Y58685D01*
X109590Y58673D01*
X109718Y58617D01*
X109843Y58558D01*
X109863Y58555D01*
X109882Y58546D01*
X110020Y58525D01*
X110156Y58499D01*
X110176Y58500D01*
X110196Y58497D01*
X110335Y58510D01*
X110473Y58518D01*
X110492Y58525D01*
X110512Y58526D01*
X110644Y58574D01*
X110775Y58616D01*
X110793Y58627D01*
X110812Y58634D01*
X110927Y58712D01*
X111044Y58786D01*
X111058Y58801D01*
X111075Y58813D01*
X111167Y58917D01*
X111262Y59018D01*
X111272Y59036D01*
X111285Y59051D01*
X111349Y59175D01*
X111416Y59297D01*
X111421Y59316D01*
X111430Y59334D01*
X111460Y59470D01*
X111495Y59605D01*
X111497Y59633D01*
X111500Y59645D01*
X111499Y59665D01*
X111505Y59765D01*
X111505Y67235D01*
X111488Y67373D01*
X111475Y67511D01*
X111468Y67530D01*
X111465Y67550D01*
X111414Y67680D01*
X111367Y67810D01*
X111356Y67827D01*
X111348Y67846D01*
X111267Y67958D01*
X111189Y68074D01*
X111173Y68087D01*
X111162Y68103D01*
X111054Y68192D01*
X110950Y68284D01*
X110932Y68293D01*
X110917Y68306D01*
X110791Y68365D01*
X110667Y68429D01*
X110647Y68433D01*
X110629Y68442D01*
X110492Y68468D01*
X110357Y68498D01*
X110336Y68498D01*
X110317Y68501D01*
X110178Y68493D01*
X110039Y68489D01*
X110019Y68483D01*
X109999Y68482D01*
X109867Y68439D01*
X109733Y68400D01*
X109716Y68390D01*
X109697Y68384D01*
X109579Y68309D01*
X109459Y68239D01*
X109438Y68220D01*
X109428Y68214D01*
X109414Y68199D01*
X109339Y68132D01*
X107931Y66725D01*
X103823Y65023D01*
X99377Y65023D01*
X95269Y66725D01*
X92125Y69869D01*
X90423Y73977D01*
X90423Y78423D01*
X91564Y81176D01*
X91571Y81205D01*
X91585Y81231D01*
X91613Y81358D01*
X91647Y81483D01*
X91648Y81512D01*
X91654Y81541D01*
X91650Y81671D01*
X91653Y81801D01*
X91646Y81829D01*
X91645Y81859D01*
X91609Y81984D01*
X91578Y82110D01*
X91565Y82136D01*
X91556Y82164D01*
X91491Y82276D01*
X91430Y82391D01*
X91410Y82413D01*
X91395Y82438D01*
X91288Y82559D01*
X77954Y95894D01*
X77876Y95954D01*
X77804Y96022D01*
X77751Y96051D01*
X77703Y96088D01*
X77612Y96128D01*
X77525Y96176D01*
X77467Y96191D01*
X77411Y96215D01*
X77313Y96230D01*
X77217Y96255D01*
X77117Y96261D01*
X77097Y96265D01*
X77085Y96263D01*
X77057Y96265D01*
X57328Y96265D01*
X57190Y96248D01*
X57052Y96235D01*
X57033Y96228D01*
X57013Y96225D01*
X56883Y96174D01*
X56753Y96127D01*
X56736Y96116D01*
X56717Y96108D01*
X56604Y96027D01*
X56490Y95949D01*
X56476Y95933D01*
X56460Y95922D01*
X56371Y95814D01*
X56279Y95710D01*
X56270Y95692D01*
X56257Y95677D01*
X56198Y95551D01*
X56135Y95427D01*
X56130Y95407D01*
X56122Y95389D01*
X56096Y95253D01*
X56065Y95117D01*
X56066Y95096D01*
X56062Y95077D01*
X56070Y94938D01*
X56075Y94799D01*
X56080Y94779D01*
X56081Y94759D01*
X56124Y94627D01*
X56163Y94493D01*
X56173Y94476D01*
X56180Y94457D01*
X56254Y94339D01*
X56325Y94219D01*
X56343Y94198D01*
X56350Y94188D01*
X56365Y94174D01*
X56367Y94171D01*
X57329Y91849D01*
X57329Y71351D01*
X56373Y69043D01*
X54607Y67277D01*
X52299Y66321D01*
X49801Y66321D01*
X47493Y67277D01*
X47228Y67543D01*
X47118Y67628D01*
X47011Y67717D01*
X46992Y67726D01*
X46976Y67738D01*
X46849Y67793D01*
X46723Y67852D01*
X46703Y67856D01*
X46684Y67864D01*
X46547Y67886D01*
X46410Y67912D01*
X46390Y67911D01*
X46370Y67914D01*
X46231Y67901D01*
X46093Y67893D01*
X46074Y67886D01*
X46054Y67884D01*
X45922Y67837D01*
X45791Y67794D01*
X45774Y67784D01*
X45754Y67777D01*
X45639Y67699D01*
X45522Y67624D01*
X45508Y67610D01*
X45491Y67598D01*
X45399Y67494D01*
X45304Y67393D01*
X45294Y67375D01*
X45281Y67360D01*
X45217Y67236D01*
X45150Y67114D01*
X45145Y67095D01*
X45136Y67077D01*
X45106Y66941D01*
X45071Y66806D01*
X45069Y66778D01*
X45066Y66766D01*
X45067Y66746D01*
X45061Y66646D01*
X45061Y64996D01*
X44888Y64349D01*
X44553Y63770D01*
X44080Y63297D01*
X43501Y62962D01*
X42854Y62789D01*
X39477Y62789D01*
X39339Y62772D01*
X39201Y62759D01*
X39182Y62752D01*
X39162Y62749D01*
X39032Y62698D01*
X38902Y62651D01*
X38885Y62640D01*
X38866Y62632D01*
X38754Y62551D01*
X38638Y62473D01*
X38625Y62457D01*
X38609Y62446D01*
X38520Y62338D01*
X38428Y62234D01*
X38419Y62216D01*
X38406Y62201D01*
X38347Y62075D01*
X38283Y61951D01*
X38279Y61931D01*
X38270Y61913D01*
X38244Y61777D01*
X38214Y61641D01*
X38214Y61620D01*
X38211Y61601D01*
X38219Y61462D01*
X38223Y61323D01*
X38229Y61303D01*
X38230Y61283D01*
X38273Y61151D01*
X38312Y61017D01*
X38322Y61000D01*
X38328Y60981D01*
X38403Y60863D01*
X38473Y60743D01*
X38492Y60722D01*
X38499Y60712D01*
X38514Y60698D01*
X38580Y60622D01*
X38886Y60316D01*
X38964Y60256D01*
X39036Y60188D01*
X39089Y60159D01*
X39137Y60122D01*
X39228Y60082D01*
X39315Y60034D01*
X39373Y60019D01*
X39429Y59995D01*
X39527Y59980D01*
X39623Y59955D01*
X39723Y59949D01*
X39743Y59945D01*
X39755Y59947D01*
X39783Y59945D01*
X67777Y59945D01*
X67875Y59957D01*
X67974Y59960D01*
X68032Y59977D01*
X68092Y59985D01*
X68184Y60021D01*
X68279Y60049D01*
X68332Y60079D01*
X68388Y60102D01*
X68468Y60160D01*
X68553Y60210D01*
X68629Y60276D01*
X68645Y60288D01*
X68653Y60298D01*
X68674Y60316D01*
X70485Y62127D01*
X70545Y62205D01*
X70613Y62277D01*
X70642Y62330D01*
X70679Y62378D01*
X70719Y62469D01*
X70767Y62556D01*
X70782Y62614D01*
X70806Y62670D01*
X70821Y62768D01*
X70846Y62864D01*
X70852Y62964D01*
X70856Y62984D01*
X70854Y62996D01*
X70856Y63024D01*
X70856Y64485D01*
X71610Y66306D01*
X73004Y67700D01*
X74825Y68454D01*
X76795Y68454D01*
X78616Y67700D01*
X80010Y66306D01*
X80764Y64485D01*
X80764Y62515D01*
X80010Y60694D01*
X78616Y59300D01*
X76795Y58546D01*
X75334Y58546D01*
X75236Y58534D01*
X75137Y58531D01*
X75079Y58514D01*
X75019Y58506D01*
X74927Y58470D01*
X74832Y58442D01*
X74779Y58412D01*
X74723Y58389D01*
X74643Y58331D01*
X74558Y58281D01*
X74482Y58215D01*
X74466Y58203D01*
X74458Y58193D01*
X74437Y58175D01*
X72626Y56364D01*
X70618Y54355D01*
X36942Y54355D01*
X28880Y62418D01*
X28802Y62478D01*
X28730Y62546D01*
X28677Y62575D01*
X28629Y62612D01*
X28538Y62652D01*
X28451Y62700D01*
X28393Y62715D01*
X28337Y62739D01*
X28239Y62754D01*
X28143Y62779D01*
X28043Y62785D01*
X28023Y62789D01*
X28011Y62787D01*
X27983Y62789D01*
X26019Y62789D01*
X26019Y69100D01*
X26004Y69218D01*
X25997Y69337D01*
X25985Y69375D01*
X25980Y69415D01*
X25936Y69526D01*
X25899Y69639D01*
X25877Y69673D01*
X25863Y69711D01*
X25793Y69807D01*
X25729Y69908D01*
X25699Y69936D01*
X25676Y69968D01*
X25584Y70044D01*
X25497Y70126D01*
X25462Y70145D01*
X25431Y70171D01*
X25323Y70222D01*
X25219Y70279D01*
X25180Y70289D01*
X25143Y70307D01*
X25026Y70329D01*
X24911Y70359D01*
X24851Y70363D01*
X24831Y70366D01*
X24830Y70366D01*
X24810Y70365D01*
X24750Y70369D01*
X24632Y70354D01*
X24513Y70347D01*
X24474Y70334D01*
X24434Y70329D01*
X24324Y70285D01*
X24210Y70249D01*
X24176Y70227D01*
X24139Y70212D01*
X24042Y70142D01*
X23942Y70078D01*
X23914Y70049D01*
X23881Y70025D01*
X23805Y69933D01*
X23724Y69847D01*
X23704Y69811D01*
X23678Y69780D01*
X23628Y69673D01*
X23570Y69568D01*
X23560Y69529D01*
X23543Y69493D01*
X23521Y69376D01*
X23491Y69260D01*
X23487Y69200D01*
X23483Y69180D01*
X23484Y69160D01*
X23481Y69100D01*
X23481Y62789D01*
X20646Y62789D01*
X19999Y62962D01*
X19420Y63297D01*
X18947Y63770D01*
X18612Y64349D01*
X18439Y64996D01*
X18439Y66646D01*
X18422Y66783D01*
X18409Y66922D01*
X18402Y66941D01*
X18399Y66961D01*
X18348Y67091D01*
X18301Y67221D01*
X18290Y67238D01*
X18282Y67257D01*
X18201Y67369D01*
X18123Y67484D01*
X18107Y67498D01*
X18096Y67514D01*
X17989Y67603D01*
X17884Y67695D01*
X17866Y67704D01*
X17851Y67717D01*
X17725Y67776D01*
X17601Y67839D01*
X17581Y67844D01*
X17563Y67852D01*
X17427Y67879D01*
X17291Y67909D01*
X17270Y67908D01*
X17251Y67912D01*
X17112Y67904D01*
X16973Y67899D01*
X16953Y67894D01*
X16933Y67893D01*
X16801Y67850D01*
X16667Y67811D01*
X16650Y67801D01*
X16631Y67794D01*
X16513Y67720D01*
X16393Y67649D01*
X16372Y67631D01*
X16362Y67624D01*
X16348Y67609D01*
X16272Y67543D01*
X16007Y67277D01*
X13699Y66321D01*
X11201Y66321D01*
X8893Y67277D01*
X7127Y69043D01*
X6171Y71351D01*
X6171Y91849D01*
X7127Y94157D01*
X8893Y95923D01*
X11201Y96879D01*
X13699Y96879D01*
X14119Y96705D01*
X14167Y96691D01*
X14212Y96670D01*
X14320Y96650D01*
X14426Y96621D01*
X14476Y96620D01*
X14525Y96611D01*
X14634Y96617D01*
X14744Y96616D01*
X14792Y96627D01*
X14842Y96630D01*
X14946Y96664D01*
X15053Y96690D01*
X15097Y96713D01*
X15144Y96728D01*
X15237Y96787D01*
X15334Y96838D01*
X15371Y96872D01*
X15413Y96898D01*
X15488Y96979D01*
X15570Y97052D01*
X15597Y97094D01*
X15631Y97130D01*
X15684Y97226D01*
X15744Y97318D01*
X15761Y97365D01*
X15785Y97409D01*
X15812Y97515D01*
X15848Y97619D01*
X15852Y97668D01*
X15864Y97717D01*
X15874Y97877D01*
X15874Y105323D01*
X15868Y105372D01*
X15870Y105422D01*
X15848Y105529D01*
X15834Y105638D01*
X15816Y105684D01*
X15806Y105733D01*
X15758Y105832D01*
X15717Y105934D01*
X15688Y105974D01*
X15666Y106019D01*
X15595Y106102D01*
X15531Y106191D01*
X15492Y106223D01*
X15460Y106261D01*
X15370Y106324D01*
X15286Y106394D01*
X15241Y106415D01*
X15200Y106444D01*
X15097Y106483D01*
X14998Y106530D01*
X14949Y106539D01*
X14903Y106557D01*
X14793Y106569D01*
X14686Y106589D01*
X14636Y106586D01*
X14587Y106592D01*
X14478Y106577D01*
X14368Y106570D01*
X14321Y106554D01*
X14272Y106547D01*
X14119Y106495D01*
X13699Y106321D01*
X11201Y106321D01*
X8893Y107277D01*
X7127Y109043D01*
X6171Y111351D01*
X6171Y131849D01*
X7127Y134157D01*
X8776Y135805D01*
X8836Y135883D01*
X8904Y135955D01*
X8933Y136008D01*
X8970Y136056D01*
X9010Y136147D01*
X9058Y136234D01*
X9073Y136292D01*
X9097Y136348D01*
X9112Y136446D01*
X9137Y136542D01*
X9143Y136642D01*
X9147Y136662D01*
X9145Y136674D01*
X9147Y136702D01*
X9147Y143608D01*
X19188Y153648D01*
X20508Y154969D01*
X20525Y154991D01*
X20547Y155010D01*
X20623Y155117D01*
X20703Y155220D01*
X20714Y155246D01*
X20731Y155270D01*
X20777Y155392D01*
X20829Y155512D01*
X20834Y155540D01*
X20844Y155567D01*
X20858Y155696D01*
X20879Y155826D01*
X20876Y155855D01*
X20880Y155883D01*
X20862Y156012D01*
X20849Y156142D01*
X20839Y156170D01*
X20836Y156198D01*
X20786Y156318D01*
X20742Y156442D01*
X20725Y156466D01*
X20715Y156492D01*
X20637Y156597D01*
X20563Y156705D01*
X20542Y156724D01*
X20524Y156747D01*
X20423Y156829D01*
X20325Y156915D01*
X20299Y156928D01*
X20277Y156946D01*
X20158Y157000D01*
X20041Y157060D01*
X20013Y157066D01*
X19987Y157078D01*
X19831Y157116D01*
X17990Y157441D01*
X11474Y161203D01*
X6637Y166967D01*
X5257Y170759D01*
X5212Y170846D01*
X5176Y170936D01*
X5140Y170986D01*
X5111Y171042D01*
X5047Y171115D01*
X4990Y171193D01*
X4942Y171233D01*
X4900Y171280D01*
X4820Y171334D01*
X4745Y171396D01*
X4688Y171423D01*
X4637Y171458D01*
X4545Y171490D01*
X4457Y171532D01*
X4396Y171543D01*
X4337Y171564D01*
X4240Y171573D01*
X4144Y171592D01*
X4082Y171588D01*
X4020Y171593D01*
X3924Y171578D01*
X3827Y171572D01*
X3768Y171553D01*
X3706Y171543D01*
X3617Y171504D01*
X3525Y171474D01*
X3472Y171440D01*
X3415Y171416D01*
X3338Y171356D01*
X3256Y171304D01*
X3213Y171258D01*
X3164Y171220D01*
X3105Y171143D01*
X3038Y171072D01*
X3008Y171017D01*
X2970Y170968D01*
X2931Y170879D01*
X2884Y170793D01*
X2869Y170733D01*
X2844Y170676D01*
X2829Y170580D01*
X2805Y170486D01*
X2798Y170381D01*
X2795Y170362D01*
X2796Y170350D01*
X2795Y170325D01*
X2795Y32875D01*
X2807Y32779D01*
X2810Y32681D01*
X2827Y32621D01*
X2835Y32560D01*
X2870Y32469D01*
X2897Y32375D01*
X2929Y32322D01*
X2952Y32264D01*
X3009Y32185D01*
X3058Y32101D01*
X3102Y32057D01*
X3138Y32007D01*
X3214Y31944D01*
X3282Y31875D01*
X3335Y31843D01*
X3383Y31804D01*
X3471Y31762D01*
X3555Y31712D01*
X3615Y31695D01*
X3671Y31668D01*
X3767Y31650D01*
X3860Y31622D01*
X3922Y31620D01*
X3983Y31608D01*
X4081Y31614D01*
X4178Y31611D01*
X4239Y31624D01*
X4301Y31628D01*
X4393Y31658D01*
X4489Y31679D01*
X4544Y31707D01*
X4603Y31726D01*
X4686Y31778D01*
X4773Y31822D01*
X4819Y31863D01*
X4872Y31896D01*
X4939Y31967D01*
X5012Y32031D01*
X5047Y32083D01*
X5090Y32128D01*
X5137Y32213D01*
X5192Y32294D01*
X5234Y32389D01*
X5244Y32407D01*
X5246Y32417D01*
X5257Y32441D01*
X6637Y36233D01*
X11473Y41997D01*
X17990Y45759D01*
X25400Y47066D01*
X32810Y45759D01*
X39326Y41997D01*
X44163Y36233D01*
X46737Y29162D01*
X46737Y21638D01*
X44163Y14567D01*
X39327Y8803D01*
X33022Y5163D01*
X32906Y5075D01*
X32788Y4990D01*
X32780Y4979D01*
X32769Y4971D01*
X32679Y4857D01*
X32585Y4745D01*
X32580Y4732D01*
X32571Y4722D01*
X32512Y4588D01*
X32450Y4457D01*
X32447Y4444D01*
X32442Y4431D01*
X32417Y4287D01*
X32390Y4144D01*
X32391Y4131D01*
X32389Y4118D01*
X32401Y3972D01*
X32410Y3827D01*
X32414Y3814D01*
X32415Y3801D01*
X32463Y3663D01*
X32508Y3525D01*
X32515Y3513D01*
X32520Y3500D01*
X32600Y3379D01*
X32678Y3256D01*
X32688Y3247D01*
X32695Y3235D01*
X32804Y3138D01*
X32910Y3038D01*
X32922Y3031D01*
X32932Y3022D01*
X33060Y2955D01*
X33188Y2884D01*
X33201Y2881D01*
X33213Y2875D01*
X33355Y2841D01*
X33496Y2805D01*
X33515Y2804D01*
X33523Y2802D01*
X33540Y2802D01*
X33657Y2795D01*
X102161Y2795D01*
X102211Y2801D01*
G37*
G36*
X71544Y124915D02*
X71544Y124915D01*
X71643Y124918D01*
X71702Y124935D01*
X71762Y124943D01*
X71854Y124979D01*
X71949Y125007D01*
X72001Y125037D01*
X72057Y125060D01*
X72137Y125118D01*
X72223Y125168D01*
X72298Y125234D01*
X72315Y125246D01*
X72323Y125256D01*
X72344Y125274D01*
X75066Y127996D01*
X75126Y128075D01*
X75194Y128147D01*
X75223Y128200D01*
X75260Y128248D01*
X75300Y128339D01*
X75348Y128425D01*
X75363Y128484D01*
X75387Y128539D01*
X75402Y128637D01*
X75427Y128733D01*
X75433Y128833D01*
X75437Y128854D01*
X75435Y128866D01*
X75437Y128894D01*
X75437Y183000D01*
X75425Y183098D01*
X75422Y183197D01*
X75405Y183256D01*
X75397Y183316D01*
X75361Y183408D01*
X75333Y183503D01*
X75303Y183555D01*
X75280Y183611D01*
X75222Y183692D01*
X75172Y183777D01*
X75106Y183852D01*
X75094Y183869D01*
X75084Y183877D01*
X75065Y183898D01*
X74167Y184796D01*
X74167Y188584D01*
X76846Y191263D01*
X80634Y191263D01*
X83313Y188584D01*
X83313Y184796D01*
X82415Y183898D01*
X82354Y183820D01*
X82286Y183747D01*
X82257Y183694D01*
X82220Y183646D01*
X82180Y183556D01*
X82132Y183469D01*
X82117Y183410D01*
X82093Y183355D01*
X82078Y183257D01*
X82053Y183161D01*
X82047Y183061D01*
X82043Y183040D01*
X82045Y183028D01*
X82043Y183000D01*
X82043Y156972D01*
X82058Y156854D01*
X82065Y156735D01*
X82078Y156697D01*
X82083Y156656D01*
X82126Y156546D01*
X82163Y156433D01*
X82185Y156398D01*
X82200Y156361D01*
X82269Y156265D01*
X82333Y156164D01*
X82363Y156136D01*
X82386Y156103D01*
X82478Y156027D01*
X82565Y155946D01*
X82600Y155926D01*
X82631Y155901D01*
X82739Y155850D01*
X82843Y155792D01*
X82883Y155782D01*
X82919Y155765D01*
X83036Y155743D01*
X83151Y155713D01*
X83211Y155709D01*
X83231Y155705D01*
X83252Y155707D01*
X83312Y155703D01*
X90022Y155703D01*
X90052Y155706D01*
X90081Y155704D01*
X90209Y155726D01*
X90338Y155743D01*
X90365Y155753D01*
X90394Y155758D01*
X90513Y155812D01*
X90634Y155860D01*
X90657Y155877D01*
X90684Y155889D01*
X90786Y155970D01*
X90891Y156046D01*
X90910Y156069D01*
X90933Y156088D01*
X91011Y156191D01*
X91094Y156291D01*
X91106Y156318D01*
X91124Y156342D01*
X91195Y156486D01*
X92125Y158731D01*
X95269Y161875D01*
X99564Y163654D01*
X99676Y163718D01*
X99791Y163777D01*
X99814Y163797D01*
X99840Y163812D01*
X99933Y163902D01*
X100030Y163987D01*
X100047Y164012D01*
X100068Y164033D01*
X100136Y164143D01*
X100209Y164250D01*
X100219Y164278D01*
X100235Y164304D01*
X100273Y164427D01*
X100317Y164549D01*
X100319Y164579D01*
X100328Y164608D01*
X100334Y164737D01*
X100347Y164866D01*
X100342Y164896D01*
X100343Y164926D01*
X100317Y165052D01*
X100297Y165180D01*
X100285Y165208D01*
X100279Y165237D01*
X100222Y165354D01*
X100171Y165472D01*
X100153Y165496D01*
X100139Y165523D01*
X100056Y165621D01*
X99976Y165723D01*
X99953Y165742D01*
X99933Y165765D01*
X99827Y165839D01*
X99725Y165919D01*
X99698Y165931D01*
X99673Y165948D01*
X99552Y165994D01*
X99434Y166045D01*
X99392Y166055D01*
X99376Y166061D01*
X99354Y166063D01*
X99277Y166080D01*
X98804Y166155D01*
X97017Y166736D01*
X95343Y167589D01*
X93822Y168694D01*
X92494Y170022D01*
X91389Y171543D01*
X90536Y173217D01*
X89955Y175004D01*
X89915Y175261D01*
X100330Y175261D01*
X100448Y175276D01*
X100567Y175283D01*
X100605Y175296D01*
X100645Y175301D01*
X100756Y175344D01*
X100869Y175381D01*
X100903Y175403D01*
X100941Y175418D01*
X101037Y175488D01*
X101138Y175551D01*
X101166Y175581D01*
X101198Y175604D01*
X101274Y175696D01*
X101356Y175783D01*
X101375Y175818D01*
X101401Y175849D01*
X101452Y175957D01*
X101509Y176061D01*
X101520Y176101D01*
X101537Y176137D01*
X101559Y176254D01*
X101589Y176369D01*
X101593Y176430D01*
X101597Y176450D01*
X101595Y176470D01*
X101599Y176530D01*
X101599Y177801D01*
X102870Y177801D01*
X102988Y177816D01*
X103107Y177823D01*
X103145Y177836D01*
X103185Y177841D01*
X103296Y177885D01*
X103409Y177921D01*
X103444Y177943D01*
X103481Y177958D01*
X103577Y178028D01*
X103678Y178091D01*
X103706Y178121D01*
X103739Y178145D01*
X103814Y178236D01*
X103896Y178323D01*
X103916Y178358D01*
X103941Y178390D01*
X103992Y178497D01*
X104050Y178602D01*
X104060Y178641D01*
X104077Y178677D01*
X104099Y178794D01*
X104129Y178909D01*
X104133Y178970D01*
X104137Y178990D01*
X104135Y179010D01*
X104139Y179070D01*
X104139Y189485D01*
X104396Y189445D01*
X106183Y188864D01*
X107857Y188011D01*
X109458Y186848D01*
X109474Y186839D01*
X109555Y186771D01*
X109574Y186763D01*
X109589Y186751D01*
X109717Y186695D01*
X109843Y186636D01*
X109863Y186632D01*
X109881Y186624D01*
X110019Y186602D01*
X110156Y186576D01*
X110175Y186577D01*
X110195Y186574D01*
X110334Y186587D01*
X110473Y186596D01*
X110492Y186602D01*
X110512Y186604D01*
X110643Y186651D01*
X110775Y186694D01*
X110792Y186705D01*
X110811Y186711D01*
X110926Y186789D01*
X111044Y186864D01*
X111058Y186879D01*
X111074Y186890D01*
X111166Y186994D01*
X111262Y187096D01*
X111272Y187113D01*
X111285Y187128D01*
X111348Y187252D01*
X111416Y187374D01*
X111421Y187394D01*
X111430Y187411D01*
X111460Y187547D01*
X111495Y187682D01*
X111497Y187710D01*
X111499Y187722D01*
X111499Y187742D01*
X111505Y187843D01*
X111505Y199136D01*
X111490Y199254D01*
X111483Y199373D01*
X111470Y199411D01*
X111465Y199452D01*
X111422Y199562D01*
X111385Y199675D01*
X111363Y199710D01*
X111348Y199747D01*
X111279Y199843D01*
X111215Y199944D01*
X111185Y199972D01*
X111162Y200005D01*
X111070Y200081D01*
X110983Y200162D01*
X110948Y200182D01*
X110917Y200207D01*
X110809Y200258D01*
X110705Y200316D01*
X110665Y200326D01*
X110629Y200343D01*
X110512Y200365D01*
X110397Y200395D01*
X110337Y200399D01*
X110317Y200403D01*
X110296Y200401D01*
X110236Y200405D01*
X33657Y200405D01*
X33513Y200387D01*
X33367Y200372D01*
X33355Y200367D01*
X33341Y200365D01*
X33206Y200312D01*
X33069Y200261D01*
X33058Y200253D01*
X33046Y200248D01*
X32928Y200163D01*
X32808Y200080D01*
X32799Y200070D01*
X32788Y200062D01*
X32695Y199949D01*
X32600Y199839D01*
X32594Y199827D01*
X32585Y199817D01*
X32524Y199685D01*
X32459Y199554D01*
X32456Y199541D01*
X32450Y199529D01*
X32423Y199387D01*
X32392Y199243D01*
X32393Y199230D01*
X32390Y199217D01*
X32399Y199072D01*
X32405Y198926D01*
X32409Y198913D01*
X32410Y198899D01*
X32455Y198761D01*
X32497Y198621D01*
X32504Y198609D01*
X32508Y198597D01*
X32586Y198473D01*
X32661Y198349D01*
X32671Y198339D01*
X32678Y198328D01*
X32785Y198228D01*
X32888Y198126D01*
X32904Y198116D01*
X32910Y198110D01*
X32925Y198102D01*
X33022Y198037D01*
X39327Y194397D01*
X44163Y188633D01*
X46737Y181562D01*
X46737Y174038D01*
X44163Y166967D01*
X39327Y161203D01*
X34339Y158323D01*
X34223Y158235D01*
X34105Y158150D01*
X34096Y158139D01*
X34085Y158131D01*
X33995Y158017D01*
X33902Y157905D01*
X33896Y157892D01*
X33888Y157882D01*
X33828Y157748D01*
X33766Y157617D01*
X33764Y157604D01*
X33758Y157591D01*
X33734Y157447D01*
X33707Y157304D01*
X33707Y157291D01*
X33705Y157278D01*
X33717Y157132D01*
X33726Y156987D01*
X33730Y156974D01*
X33732Y156961D01*
X33780Y156823D01*
X33824Y156685D01*
X33832Y156673D01*
X33836Y156660D01*
X33917Y156539D01*
X33994Y156416D01*
X34004Y156407D01*
X34012Y156395D01*
X34120Y156298D01*
X34226Y156198D01*
X34238Y156191D01*
X34248Y156182D01*
X34377Y156115D01*
X34505Y156044D01*
X34518Y156041D01*
X34530Y156035D01*
X34672Y156001D01*
X34813Y155965D01*
X34831Y155964D01*
X34839Y155962D01*
X34856Y155962D01*
X34973Y155955D01*
X43026Y155955D01*
X54353Y144628D01*
X54353Y136702D01*
X54365Y136604D01*
X54368Y136505D01*
X54385Y136447D01*
X54393Y136387D01*
X54429Y136295D01*
X54457Y136200D01*
X54487Y136148D01*
X54510Y136091D01*
X54568Y136011D01*
X54618Y135926D01*
X54684Y135850D01*
X54696Y135834D01*
X54706Y135826D01*
X54724Y135805D01*
X56373Y134157D01*
X57329Y131849D01*
X57329Y126172D01*
X57344Y126054D01*
X57351Y125935D01*
X57364Y125897D01*
X57369Y125856D01*
X57412Y125746D01*
X57449Y125633D01*
X57471Y125598D01*
X57486Y125561D01*
X57555Y125465D01*
X57619Y125364D01*
X57649Y125336D01*
X57672Y125303D01*
X57764Y125227D01*
X57851Y125146D01*
X57886Y125126D01*
X57917Y125101D01*
X58025Y125050D01*
X58129Y124992D01*
X58169Y124982D01*
X58205Y124965D01*
X58322Y124943D01*
X58437Y124913D01*
X58497Y124909D01*
X58517Y124905D01*
X58538Y124907D01*
X58598Y124903D01*
X71446Y124903D01*
X71544Y124915D01*
G37*
G36*
X89841Y104398D02*
X89841Y104398D01*
X89871Y104396D01*
X89999Y104418D01*
X90127Y104435D01*
X90155Y104445D01*
X90184Y104450D01*
X90303Y104504D01*
X90423Y104552D01*
X90447Y104569D01*
X90474Y104581D01*
X90575Y104662D01*
X90680Y104738D01*
X90699Y104761D01*
X90722Y104780D01*
X90800Y104883D01*
X90883Y104983D01*
X90896Y105010D01*
X90914Y105034D01*
X90985Y105178D01*
X92125Y107931D01*
X95269Y111075D01*
X99377Y112777D01*
X103823Y112777D01*
X107931Y111075D01*
X109339Y109668D01*
X109448Y109582D01*
X109555Y109494D01*
X109574Y109485D01*
X109590Y109473D01*
X109718Y109417D01*
X109843Y109358D01*
X109863Y109355D01*
X109882Y109346D01*
X110020Y109325D01*
X110156Y109299D01*
X110176Y109300D01*
X110196Y109297D01*
X110335Y109310D01*
X110473Y109318D01*
X110492Y109325D01*
X110512Y109326D01*
X110644Y109374D01*
X110775Y109416D01*
X110793Y109427D01*
X110812Y109434D01*
X110927Y109512D01*
X111044Y109586D01*
X111058Y109601D01*
X111075Y109613D01*
X111167Y109717D01*
X111262Y109818D01*
X111272Y109836D01*
X111285Y109851D01*
X111349Y109975D01*
X111416Y110097D01*
X111421Y110116D01*
X111430Y110134D01*
X111460Y110270D01*
X111495Y110405D01*
X111497Y110433D01*
X111500Y110445D01*
X111499Y110465D01*
X111505Y110565D01*
X111505Y118035D01*
X111488Y118173D01*
X111475Y118311D01*
X111468Y118330D01*
X111465Y118350D01*
X111414Y118480D01*
X111367Y118610D01*
X111356Y118627D01*
X111348Y118646D01*
X111267Y118758D01*
X111189Y118874D01*
X111173Y118887D01*
X111162Y118903D01*
X111054Y118992D01*
X110950Y119084D01*
X110932Y119093D01*
X110917Y119106D01*
X110791Y119165D01*
X110667Y119229D01*
X110647Y119233D01*
X110629Y119242D01*
X110492Y119268D01*
X110357Y119298D01*
X110336Y119298D01*
X110317Y119301D01*
X110178Y119293D01*
X110039Y119289D01*
X110019Y119283D01*
X109999Y119282D01*
X109867Y119239D01*
X109733Y119200D01*
X109716Y119190D01*
X109697Y119184D01*
X109579Y119109D01*
X109459Y119039D01*
X109438Y119020D01*
X109428Y119014D01*
X109414Y118999D01*
X109339Y118932D01*
X107931Y117525D01*
X103823Y115823D01*
X99377Y115823D01*
X95269Y117525D01*
X92125Y120669D01*
X90423Y124777D01*
X90423Y129223D01*
X92125Y133331D01*
X95269Y136475D01*
X99377Y138177D01*
X103823Y138177D01*
X107931Y136475D01*
X109339Y135068D01*
X109448Y134982D01*
X109555Y134894D01*
X109574Y134885D01*
X109590Y134873D01*
X109718Y134817D01*
X109843Y134758D01*
X109863Y134755D01*
X109882Y134746D01*
X110020Y134725D01*
X110156Y134699D01*
X110176Y134700D01*
X110196Y134697D01*
X110335Y134710D01*
X110473Y134718D01*
X110492Y134725D01*
X110512Y134726D01*
X110644Y134774D01*
X110775Y134816D01*
X110793Y134827D01*
X110812Y134834D01*
X110927Y134912D01*
X111044Y134986D01*
X111058Y135001D01*
X111075Y135013D01*
X111167Y135117D01*
X111262Y135218D01*
X111272Y135236D01*
X111285Y135251D01*
X111349Y135375D01*
X111416Y135497D01*
X111421Y135516D01*
X111430Y135534D01*
X111460Y135670D01*
X111495Y135805D01*
X111497Y135833D01*
X111500Y135845D01*
X111499Y135865D01*
X111505Y135965D01*
X111505Y143435D01*
X111488Y143573D01*
X111475Y143711D01*
X111468Y143730D01*
X111465Y143750D01*
X111414Y143880D01*
X111367Y144010D01*
X111356Y144027D01*
X111348Y144046D01*
X111267Y144158D01*
X111189Y144274D01*
X111173Y144287D01*
X111162Y144303D01*
X111054Y144392D01*
X110950Y144484D01*
X110932Y144493D01*
X110917Y144506D01*
X110791Y144565D01*
X110667Y144629D01*
X110647Y144633D01*
X110629Y144642D01*
X110492Y144668D01*
X110357Y144698D01*
X110336Y144698D01*
X110317Y144701D01*
X110178Y144693D01*
X110039Y144689D01*
X110019Y144683D01*
X109999Y144682D01*
X109867Y144639D01*
X109733Y144600D01*
X109716Y144590D01*
X109697Y144584D01*
X109579Y144509D01*
X109459Y144439D01*
X109438Y144420D01*
X109428Y144414D01*
X109414Y144399D01*
X109339Y144332D01*
X107931Y142925D01*
X103823Y141223D01*
X99377Y141223D01*
X95269Y142925D01*
X92125Y146069D01*
X91195Y148314D01*
X91180Y148339D01*
X91171Y148367D01*
X91102Y148477D01*
X91037Y148590D01*
X91017Y148611D01*
X91001Y148636D01*
X90906Y148725D01*
X90816Y148818D01*
X90791Y148834D01*
X90769Y148854D01*
X90656Y148917D01*
X90545Y148985D01*
X90517Y148993D01*
X90491Y149008D01*
X90365Y149040D01*
X90241Y149078D01*
X90212Y149080D01*
X90183Y149087D01*
X90022Y149097D01*
X83312Y149097D01*
X83194Y149082D01*
X83075Y149075D01*
X83037Y149062D01*
X82996Y149057D01*
X82886Y149014D01*
X82773Y148977D01*
X82738Y148955D01*
X82701Y148940D01*
X82605Y148871D01*
X82504Y148807D01*
X82476Y148777D01*
X82443Y148754D01*
X82367Y148662D01*
X82286Y148575D01*
X82266Y148540D01*
X82241Y148509D01*
X82190Y148401D01*
X82132Y148297D01*
X82122Y148257D01*
X82105Y148221D01*
X82083Y148104D01*
X82053Y147989D01*
X82049Y147929D01*
X82045Y147909D01*
X82047Y147888D01*
X82043Y147828D01*
X82043Y125632D01*
X74708Y118297D01*
X58598Y118297D01*
X58480Y118282D01*
X58361Y118275D01*
X58323Y118262D01*
X58282Y118257D01*
X58172Y118214D01*
X58059Y118177D01*
X58024Y118155D01*
X57987Y118140D01*
X57891Y118071D01*
X57790Y118007D01*
X57762Y117977D01*
X57729Y117954D01*
X57653Y117862D01*
X57572Y117775D01*
X57552Y117740D01*
X57527Y117709D01*
X57476Y117601D01*
X57418Y117497D01*
X57408Y117457D01*
X57391Y117421D01*
X57369Y117304D01*
X57339Y117189D01*
X57335Y117129D01*
X57331Y117109D01*
X57331Y117108D01*
X57333Y117088D01*
X57329Y117028D01*
X57329Y111351D01*
X56358Y109007D01*
X56346Y108992D01*
X56257Y108885D01*
X56248Y108866D01*
X56236Y108850D01*
X56181Y108723D01*
X56122Y108597D01*
X56118Y108577D01*
X56110Y108559D01*
X56088Y108421D01*
X56062Y108284D01*
X56063Y108264D01*
X56060Y108244D01*
X56073Y108106D01*
X56081Y107967D01*
X56088Y107948D01*
X56090Y107928D01*
X56137Y107797D01*
X56180Y107665D01*
X56190Y107647D01*
X56197Y107629D01*
X56275Y107514D01*
X56350Y107396D01*
X56364Y107382D01*
X56376Y107365D01*
X56480Y107273D01*
X56581Y107178D01*
X56599Y107168D01*
X56614Y107155D01*
X56738Y107092D01*
X56860Y107024D01*
X56879Y107019D01*
X56897Y107010D01*
X57033Y106980D01*
X57168Y106945D01*
X57196Y106943D01*
X57208Y106940D01*
X57228Y106941D01*
X57328Y106935D01*
X83708Y106935D01*
X85876Y104766D01*
X85954Y104706D01*
X86026Y104638D01*
X86079Y104609D01*
X86127Y104572D01*
X86218Y104532D01*
X86305Y104484D01*
X86363Y104469D01*
X86419Y104445D01*
X86517Y104430D01*
X86613Y104405D01*
X86713Y104399D01*
X86733Y104395D01*
X86745Y104397D01*
X86773Y104395D01*
X89812Y104395D01*
X89841Y104398D01*
G37*
G36*
X24868Y132846D02*
X24868Y132846D01*
X24987Y132853D01*
X25025Y132866D01*
X25066Y132871D01*
X25176Y132915D01*
X25290Y132951D01*
X25324Y132973D01*
X25361Y132988D01*
X25458Y133058D01*
X25558Y133122D01*
X25586Y133151D01*
X25619Y133175D01*
X25695Y133267D01*
X25776Y133353D01*
X25796Y133389D01*
X25822Y133420D01*
X25872Y133527D01*
X25930Y133632D01*
X25940Y133671D01*
X25957Y133707D01*
X25979Y133824D01*
X26009Y133940D01*
X26013Y134000D01*
X26017Y134020D01*
X26016Y134040D01*
X26019Y134100D01*
X26019Y140425D01*
X26026Y140426D01*
X26145Y140433D01*
X26183Y140445D01*
X26224Y140451D01*
X26334Y140494D01*
X26447Y140531D01*
X26482Y140553D01*
X26519Y140568D01*
X26615Y140637D01*
X26716Y140701D01*
X26744Y140731D01*
X26777Y140754D01*
X26853Y140846D01*
X26934Y140933D01*
X26954Y140968D01*
X26979Y140999D01*
X27030Y141107D01*
X27088Y141211D01*
X27098Y141251D01*
X27115Y141287D01*
X27137Y141404D01*
X27167Y141519D01*
X27171Y141579D01*
X27175Y141599D01*
X27173Y141620D01*
X27177Y141680D01*
X27177Y142356D01*
X29856Y145035D01*
X33644Y145035D01*
X36323Y142356D01*
X36323Y141680D01*
X36338Y141562D01*
X36345Y141443D01*
X36358Y141405D01*
X36363Y141364D01*
X36406Y141254D01*
X36443Y141141D01*
X36465Y141106D01*
X36480Y141069D01*
X36550Y140972D01*
X36613Y140872D01*
X36643Y140844D01*
X36666Y140811D01*
X36758Y140735D01*
X36845Y140654D01*
X36880Y140634D01*
X36911Y140609D01*
X37019Y140558D01*
X37123Y140500D01*
X37163Y140490D01*
X37199Y140473D01*
X37316Y140451D01*
X37431Y140421D01*
X37481Y140418D01*
X37481Y134100D01*
X37496Y133982D01*
X37503Y133863D01*
X37515Y133825D01*
X37520Y133785D01*
X37564Y133674D01*
X37601Y133561D01*
X37623Y133527D01*
X37637Y133489D01*
X37707Y133393D01*
X37771Y133292D01*
X37801Y133264D01*
X37824Y133232D01*
X37916Y133156D01*
X38003Y133074D01*
X38038Y133055D01*
X38069Y133029D01*
X38177Y132978D01*
X38281Y132921D01*
X38320Y132911D01*
X38357Y132893D01*
X38474Y132871D01*
X38589Y132841D01*
X38649Y132837D01*
X38669Y132834D01*
X38670Y132834D01*
X38690Y132835D01*
X38750Y132831D01*
X38868Y132846D01*
X38987Y132853D01*
X39025Y132866D01*
X39066Y132871D01*
X39176Y132915D01*
X39290Y132951D01*
X39324Y132973D01*
X39361Y132988D01*
X39458Y133058D01*
X39558Y133122D01*
X39586Y133151D01*
X39619Y133175D01*
X39695Y133267D01*
X39776Y133353D01*
X39796Y133389D01*
X39822Y133420D01*
X39872Y133527D01*
X39930Y133632D01*
X39940Y133671D01*
X39957Y133707D01*
X39979Y133824D01*
X40009Y133940D01*
X40013Y134000D01*
X40017Y134020D01*
X40016Y134040D01*
X40019Y134100D01*
X40019Y140411D01*
X42854Y140411D01*
X43501Y140238D01*
X44080Y139903D01*
X44553Y139430D01*
X44888Y138851D01*
X45061Y138204D01*
X45061Y136554D01*
X45078Y136417D01*
X45091Y136278D01*
X45098Y136259D01*
X45101Y136239D01*
X45152Y136110D01*
X45199Y135979D01*
X45210Y135962D01*
X45218Y135943D01*
X45299Y135831D01*
X45377Y135716D01*
X45393Y135702D01*
X45404Y135686D01*
X45512Y135597D01*
X45616Y135505D01*
X45634Y135496D01*
X45649Y135483D01*
X45775Y135424D01*
X45899Y135361D01*
X45919Y135356D01*
X45937Y135348D01*
X46073Y135321D01*
X46209Y135291D01*
X46230Y135292D01*
X46249Y135288D01*
X46388Y135296D01*
X46527Y135301D01*
X46547Y135306D01*
X46567Y135307D01*
X46699Y135350D01*
X46833Y135389D01*
X46850Y135399D01*
X46869Y135406D01*
X46987Y135480D01*
X47107Y135551D01*
X47128Y135569D01*
X47138Y135576D01*
X47152Y135591D01*
X47228Y135657D01*
X47376Y135805D01*
X47436Y135883D01*
X47504Y135955D01*
X47533Y136008D01*
X47571Y136056D01*
X47610Y136147D01*
X47658Y136234D01*
X47673Y136293D01*
X47697Y136348D01*
X47712Y136446D01*
X47737Y136542D01*
X47743Y136642D01*
X47747Y136662D01*
X47745Y136675D01*
X47747Y136702D01*
X47747Y141366D01*
X47735Y141464D01*
X47732Y141563D01*
X47715Y141622D01*
X47707Y141682D01*
X47671Y141774D01*
X47643Y141869D01*
X47613Y141921D01*
X47590Y141977D01*
X47532Y142057D01*
X47482Y142143D01*
X47416Y142218D01*
X47404Y142235D01*
X47394Y142243D01*
X47376Y142264D01*
X40662Y148978D01*
X40583Y149038D01*
X40511Y149106D01*
X40458Y149135D01*
X40410Y149172D01*
X40319Y149212D01*
X40233Y149260D01*
X40174Y149275D01*
X40119Y149299D01*
X40021Y149314D01*
X39925Y149339D01*
X39825Y149345D01*
X39804Y149349D01*
X39792Y149347D01*
X39764Y149349D01*
X24756Y149349D01*
X24658Y149337D01*
X24559Y149334D01*
X24500Y149317D01*
X24440Y149309D01*
X24348Y149273D01*
X24253Y149245D01*
X24201Y149215D01*
X24145Y149192D01*
X24065Y149134D01*
X23979Y149084D01*
X23904Y149018D01*
X23887Y149006D01*
X23879Y148996D01*
X23858Y148978D01*
X16124Y141244D01*
X16064Y141165D01*
X15996Y141093D01*
X15967Y141040D01*
X15930Y140992D01*
X15890Y140901D01*
X15842Y140815D01*
X15827Y140756D01*
X15803Y140701D01*
X15788Y140603D01*
X15763Y140507D01*
X15757Y140407D01*
X15753Y140386D01*
X15755Y140374D01*
X15753Y140346D01*
X15753Y136702D01*
X15765Y136604D01*
X15768Y136505D01*
X15785Y136447D01*
X15793Y136387D01*
X15829Y136295D01*
X15857Y136200D01*
X15887Y136148D01*
X15910Y136091D01*
X15968Y136011D01*
X16018Y135926D01*
X16084Y135850D01*
X16096Y135834D01*
X16106Y135826D01*
X16124Y135805D01*
X16273Y135657D01*
X16382Y135572D01*
X16489Y135483D01*
X16508Y135474D01*
X16524Y135462D01*
X16652Y135407D01*
X16777Y135348D01*
X16797Y135344D01*
X16816Y135336D01*
X16954Y135314D01*
X17090Y135288D01*
X17110Y135289D01*
X17130Y135286D01*
X17269Y135299D01*
X17407Y135308D01*
X17426Y135314D01*
X17446Y135316D01*
X17578Y135363D01*
X17709Y135406D01*
X17727Y135416D01*
X17746Y135423D01*
X17861Y135501D01*
X17978Y135576D01*
X17992Y135590D01*
X18009Y135602D01*
X18101Y135706D01*
X18196Y135807D01*
X18206Y135825D01*
X18219Y135840D01*
X18283Y135964D01*
X18350Y136086D01*
X18355Y136105D01*
X18364Y136123D01*
X18394Y136259D01*
X18429Y136394D01*
X18431Y136422D01*
X18434Y136434D01*
X18433Y136454D01*
X18439Y136554D01*
X18439Y138204D01*
X18612Y138851D01*
X18947Y139430D01*
X19420Y139903D01*
X19999Y140238D01*
X20646Y140411D01*
X23481Y140411D01*
X23481Y134100D01*
X23496Y133982D01*
X23503Y133863D01*
X23515Y133825D01*
X23520Y133785D01*
X23564Y133674D01*
X23601Y133561D01*
X23623Y133527D01*
X23637Y133489D01*
X23707Y133393D01*
X23771Y133292D01*
X23801Y133264D01*
X23824Y133232D01*
X23916Y133156D01*
X24003Y133074D01*
X24038Y133055D01*
X24069Y133029D01*
X24177Y132978D01*
X24281Y132921D01*
X24320Y132911D01*
X24357Y132893D01*
X24474Y132871D01*
X24589Y132841D01*
X24649Y132837D01*
X24669Y132834D01*
X24670Y132834D01*
X24690Y132835D01*
X24750Y132831D01*
X24868Y132846D01*
G37*
%LPC*%
G36*
X89915Y180339D02*
X89915Y180339D01*
X89955Y180596D01*
X90536Y182383D01*
X91389Y184057D01*
X92494Y185578D01*
X93822Y186906D01*
X95343Y188011D01*
X97017Y188864D01*
X98804Y189445D01*
X99061Y189485D01*
X99061Y180339D01*
X89915Y180339D01*
G37*
%LPD*%
D10*
X6350Y196850D03*
X107950Y6350D03*
D11*
X101600Y177800D03*
X101600Y152400D03*
X101600Y127000D03*
X101600Y101600D03*
X101600Y76200D03*
X101600Y50800D03*
X101600Y25400D03*
D12*
X12450Y118330D02*
X12450Y124870D01*
D13*
X24750Y97100D03*
X24750Y106100D03*
X38750Y97100D03*
X38750Y106100D03*
X24750Y88100D03*
X38750Y115100D03*
X38750Y124600D03*
X38750Y134100D03*
X38750Y78600D03*
X38750Y69100D03*
X24750Y78600D03*
X24750Y69100D03*
X24750Y124600D03*
X24750Y134100D03*
D12*
X12450Y84870D02*
X12450Y78330D01*
X51050Y118330D02*
X51050Y124870D01*
X51050Y84870D02*
X51050Y78330D01*
D14*
X51050Y112600D02*
X51050Y130600D01*
X51050Y90600D02*
X51050Y72600D01*
X12450Y72600D02*
X12450Y90600D01*
X12450Y112600D02*
X12450Y130600D01*
D15*
X48260Y165100D03*
X63500Y88900D03*
X63500Y12700D03*
X88900Y165100D03*
X88900Y139700D03*
D16*
X38750Y69100D02*
X44350Y63500D01*
X46990Y63500D01*
D10*
X76200Y114300D03*
X50800Y50800D03*
X8890Y153670D03*
D17*
X31750Y63500D02*
X38100Y57150D01*
X31750Y63500D02*
X31750Y86688D01*
X30338Y88100D01*
X24750Y88100D01*
D10*
X75810Y63500D03*
D17*
X69460Y57150D01*
X38100Y57150D01*
D15*
X78740Y186690D03*
D16*
X22862Y152652D02*
X12450Y142240D01*
X12450Y121600D01*
X22862Y152652D02*
X41658Y152652D01*
X51050Y143260D02*
X51050Y121600D01*
X51050Y143260D02*
X41658Y152652D01*
X78740Y152400D02*
X78740Y186690D01*
X78740Y152400D02*
X78740Y127000D01*
X73340Y121600D02*
X51050Y121600D01*
X73340Y121600D02*
X78740Y127000D01*
X78740Y152400D02*
X101600Y152400D01*
D17*
X38750Y115100D02*
X33416Y115100D01*
X31750Y116766D01*
X31750Y140462D01*
D15*
X31750Y140462D03*
D18*
X30082Y106100D02*
X24750Y106100D01*
X32694Y97100D02*
X38750Y97100D01*
X31496Y104686D02*
X30082Y106100D01*
X31496Y104686D02*
X31496Y98298D01*
X32694Y97100D01*
D17*
X38750Y97100D02*
X45030Y97100D01*
X46990Y99060D01*
X78740Y99060D01*
X101600Y76200D01*
D18*
X24750Y97100D02*
X19486Y97100D01*
X18288Y98298D01*
X18288Y109634D01*
X19075Y110913D02*
X19937Y111775D01*
X19075Y110421D02*
X18288Y109634D01*
X19075Y110421D02*
X19075Y110913D01*
X32512Y108966D02*
X32512Y107262D01*
X33674Y106100D02*
X38750Y106100D01*
X29703Y111775D02*
X19937Y111775D01*
X29703Y111775D02*
X32512Y108966D01*
X32512Y107262D02*
X33674Y106100D01*
D17*
X38750Y106100D02*
X45030Y106100D01*
X46990Y104140D01*
X82550Y104140D01*
X85090Y101600D01*
X101600Y101600D01*
M02*
