M48
;GenerationSoftware,Autodesk,EAGLE,9.6.2*%
;CreationDate,2023-09-19T13:47:15Z*%
FMAT,2
ICI,OFF
METRIC,TZ,000.000
T5C0.305
T4C0.400
T3C0.500
T2C1.016
T1C3.048
%
G90
M71
T1
X2540Y17780
X2540Y2540
T2
X10160Y2540
X10160Y17780
X10160Y15240
X10160Y12700
X10160Y10160
X10160Y7620
X10160Y5080
T3
X3875Y6910
X3875Y7860
X3875Y13410
X3875Y12460
X3875Y11510
X2475Y8810
X3875Y10610
X3875Y9710
X2475Y10610
X2475Y9710
X2475Y7860
X2475Y6910
X2475Y12460
X2475Y13410
T4
X5105Y8160
X1245Y12160
X1245Y8160
X5105Y12160
T5
X8890Y13970
X8890Y16510
X6350Y1270
X6350Y8890
X3175Y14046
X7874Y18669
X7581Y6350
X889Y15367
X5080Y5080
X7620Y11430
X4826Y16510
M30