G04 EAGLE Gerber RS-274X export*
G75*
%MOMM*%
%FSLAX34Y34*%
%LPD*%
%INSolderpaste Bottom*%
%IPPOS*%
%AMOC8*
5,1,8,0,0,1.08239X$1,22.5*%
G01*
%ADD10C,0.100000*%


D10*
X66350Y33600D02*
X56350Y33600D01*
X56350Y42600D01*
X66350Y42600D01*
X66350Y33600D01*
X66350Y34550D02*
X56350Y34550D01*
X56350Y35500D02*
X66350Y35500D01*
X66350Y36450D02*
X56350Y36450D01*
X56350Y37400D02*
X66350Y37400D01*
X66350Y38350D02*
X56350Y38350D01*
X56350Y39300D02*
X66350Y39300D01*
X66350Y40250D02*
X56350Y40250D01*
X56350Y41200D02*
X66350Y41200D01*
X66350Y42150D02*
X56350Y42150D01*
X73350Y33600D02*
X83350Y33600D01*
X73350Y33600D02*
X73350Y42600D01*
X83350Y42600D01*
X83350Y33600D01*
X83350Y34550D02*
X73350Y34550D01*
X73350Y35500D02*
X83350Y35500D01*
X83350Y36450D02*
X73350Y36450D01*
X73350Y37400D02*
X83350Y37400D01*
X83350Y38350D02*
X73350Y38350D01*
X73350Y39300D02*
X83350Y39300D01*
X83350Y40250D02*
X73350Y40250D01*
X73350Y41200D02*
X83350Y41200D01*
X83350Y42150D02*
X73350Y42150D01*
X66350Y160600D02*
X56350Y160600D01*
X56350Y169600D01*
X66350Y169600D01*
X66350Y160600D01*
X66350Y161550D02*
X56350Y161550D01*
X56350Y162500D02*
X66350Y162500D01*
X66350Y163450D02*
X56350Y163450D01*
X56350Y164400D02*
X66350Y164400D01*
X66350Y165350D02*
X56350Y165350D01*
X56350Y166300D02*
X66350Y166300D01*
X66350Y167250D02*
X56350Y167250D01*
X56350Y168200D02*
X66350Y168200D01*
X66350Y169150D02*
X56350Y169150D01*
X73350Y160600D02*
X83350Y160600D01*
X73350Y160600D02*
X73350Y169600D01*
X83350Y169600D01*
X83350Y160600D01*
X83350Y161550D02*
X73350Y161550D01*
X73350Y162500D02*
X83350Y162500D01*
X83350Y163450D02*
X73350Y163450D01*
X73350Y164400D02*
X83350Y164400D01*
X83350Y165350D02*
X73350Y165350D01*
X73350Y166300D02*
X83350Y166300D01*
X83350Y167250D02*
X73350Y167250D01*
X73350Y168200D02*
X83350Y168200D01*
X83350Y169150D02*
X73350Y169150D01*
M02*
