M48
;GenerationSoftware,Autodesk,EAGLE,9.6.2*%
;CreationDate,2023-07-28T16:43:28Z*%
FMAT,2
ICI,OFF
METRIC,TZ,000.000
T5C0.305
T4C0.400
T3C0.500
T2C1.016
T1C3.048
%
G90
M71
T1
X35560Y17780
X2540Y17780
X2540Y2540
X19050Y17780
X19050Y2540
X68580Y65024
X35560Y2540
X52070Y17780
X52070Y2540
X68580Y17780
X68580Y2540
X2540Y38608
X2540Y23368
X19050Y38608
X19050Y23368
X35560Y38608
X35560Y23368
X52070Y38608
X52070Y23368
X68580Y38608
X68580Y23368
X2540Y59436
X2540Y44196
X19050Y59436
X19050Y44196
X35560Y59436
X35560Y44196
X52070Y59436
X52070Y44196
X68580Y59436
X68580Y44196
X2540Y80264
X2540Y65024
X19050Y80264
X19050Y65024
X35560Y80264
X35560Y65024
X52070Y80264
X52070Y65024
X68580Y80264
T2
X43180Y44196
X43180Y46736
X43180Y49276
X43180Y51816
X43180Y54356
X43180Y56896
X43180Y59436
X26670Y44196
X26670Y46736
X26670Y49276
X26670Y51816
X26670Y54356
X26670Y56896
X26670Y59436
X10160Y44196
X10160Y46736
X10160Y49276
X10160Y51816
X10160Y54356
X10160Y56896
X10160Y59436
X26670Y70104
X76200Y25908
X76200Y28448
X76200Y30988
X76200Y33528
X76200Y36068
X76200Y38608
X59690Y23368
X59690Y25908
X59690Y28448
X59690Y30988
X59690Y33528
X59690Y36068
X59690Y38608
X43180Y23368
X43180Y25908
X43180Y28448
X43180Y30988
X76200Y23368
X10160Y17780
X10160Y15240
X10160Y12700
X10160Y10160
X10160Y7620
X10160Y5080
X10160Y2540
X43180Y33528
X43180Y12700
X43180Y10160
X43180Y7620
X43180Y5080
X43180Y2540
X26670Y36068
X59690Y5080
X59690Y2540
X10160Y28448
X76200Y5080
X76200Y2540
X10160Y38608
X10160Y30988
X10160Y33528
X43180Y36068
X43180Y38608
X26670Y23368
X26670Y17780
X26670Y15240
X26670Y12700
X26670Y10160
X26670Y7620
X26670Y5080
X26670Y2540
X26670Y25908
X10160Y36068
X76200Y17780
X76200Y15240
X76200Y12700
X76200Y10160
X76200Y7620
X26670Y38608
X10160Y23368
X10160Y25908
X59690Y17780
X59690Y15240
X59690Y12700
X59690Y10160
X59690Y7620
X26670Y28448
X26670Y30988
X26670Y33528
X43180Y17780
X43180Y15240
X76200Y65024
X76200Y67564
X76200Y70104
X76200Y72644
X76200Y75184
X76200Y77724
X76200Y80264
X59690Y65024
X59690Y67564
X59690Y70104
X59690Y72644
X59690Y75184
X59690Y77724
X59690Y80264
X43180Y65024
X43180Y67564
X43180Y70104
X43180Y72644
X43180Y75184
X43180Y77724
X43180Y80264
X26670Y65024
X26670Y67564
X26670Y72644
X26670Y75184
X26670Y77724
X26670Y80264
X10160Y65024
X10160Y67564
X10160Y70104
X10160Y72644
X10160Y75184
X10160Y77724
X10160Y80264
X76200Y44196
X76200Y46736
X76200Y49276
X76200Y51816
X76200Y54356
X76200Y56896
X76200Y59436
X59690Y44196
X59690Y46736
X59690Y49276
X59690Y51816
X59690Y54356
X59690Y56896
X59690Y59436
T3
X3875Y49516
X3875Y48566
X2475Y49516
X2475Y48566
X2475Y54116
X2475Y55066
X18985Y51366
X18985Y52266
X20385Y51366
X20385Y52266
X18985Y50466
X20385Y53166
X20385Y54116
X20385Y55066
X20385Y49516
X20385Y48566
X18985Y49516
X18985Y48566
X18985Y54116
X18985Y55066
X35495Y51366
X36895Y51366
X36895Y52266
X35495Y50466
X36895Y53166
X36895Y54116
X36895Y55066
X36895Y49516
X36895Y48566
X35495Y49516
X35495Y48566
X35495Y54116
X35495Y55066
X52005Y51366
X52005Y52266
X53405Y51366
X53405Y52266
X52005Y50466
X53405Y53166
X53405Y54116
X53405Y55066
X53405Y49516
X53405Y48566
X52005Y49516
X52005Y48566
X52005Y54116
X52005Y55066
X68515Y51366
X68515Y52266
X69915Y51366
X69915Y52266
X68515Y50466
X69915Y53166
X69915Y54116
X69915Y55066
X69915Y49516
X69915Y48566
X68515Y49516
X68515Y48566
X68515Y54116
X68515Y55066
X2475Y72194
X2475Y73094
X3875Y72194
X3875Y73094
X2475Y71294
X3875Y73994
X3875Y74944
X3875Y75894
X3875Y70344
X3875Y69394
X2475Y70344
X2475Y69394
X2475Y74944
X2475Y75894
X18985Y72194
X18985Y73094
X20385Y72194
X20385Y73094
X18985Y71294
X20385Y73994
X20385Y74944
X20385Y75894
X20385Y70344
X20385Y69394
X18985Y70344
X18985Y69394
X18985Y74944
X18985Y75894
X35495Y72194
X35495Y73094
X36895Y72194
X36895Y73094
X35495Y71294
X36895Y73994
X68515Y12460
X36895Y74944
X36895Y75894
X36895Y70344
X36895Y69394
X35495Y70344
X35495Y69394
X35495Y74944
X35495Y75894
X52005Y72194
X52005Y73094
X53405Y72194
X53405Y73094
X52005Y71294
X53405Y73994
X53405Y74944
X53405Y75894
X53405Y70344
X53405Y69394
X52005Y70344
X52005Y69394
X52005Y74944
X52005Y75894
X68515Y72194
X68515Y73094
X69915Y72194
X69915Y73094
X68515Y71294
X69915Y73994
X69915Y74944
X69915Y75894
X69915Y70344
X69915Y69394
X68515Y70344
X68515Y69394
X68515Y74944
X68515Y75894
X2475Y9710
X2475Y10610
X3875Y9710
X3875Y10610
X2475Y8810
X3875Y11510
X3875Y12460
X3875Y13410
X3875Y7860
X3875Y6910
X2475Y7860
X2475Y6910
X2475Y12460
X2475Y13410
X18985Y9710
X18985Y10610
X20385Y9710
X20385Y10610
X18985Y8810
X20385Y11510
X20385Y12460
X20385Y13410
X20385Y7860
X20385Y6910
X18985Y7860
X18985Y6910
X18985Y12460
X18985Y13410
X35495Y9710
X35495Y10610
X36895Y9710
X36895Y10610
X35495Y8810
X36895Y11510
X36895Y12460
X36895Y13410
X36895Y7860
X36895Y6910
X35495Y7860
X35495Y6910
X35495Y12460
X35495Y13410
X52005Y9710
X52005Y10610
X53405Y9710
X53405Y10610
X52005Y8810
X53405Y11510
X53405Y12460
X53405Y13410
X53405Y7860
X53405Y6910
X52005Y7860
X52005Y6910
X52005Y12460
X52005Y13410
X68515Y9710
X68515Y10610
X69915Y9710
X69915Y10610
X68515Y8810
X69915Y11510
X69915Y12460
X69915Y13410
X69915Y7860
X69915Y6910
X68515Y7860
X68515Y6910
X35495Y52266
X68515Y13410
X2475Y30538
X2475Y31438
X3875Y30538
X3875Y31438
X2475Y29638
X3875Y32338
X3875Y33288
X3875Y34238
X3875Y28688
X3875Y27738
X2475Y28688
X2475Y27738
X2475Y33288
X2475Y34238
X18985Y30538
X18985Y31438
X20385Y30538
X20385Y31438
X18985Y29638
X20385Y32338
X20385Y33288
X20385Y34238
X20385Y28688
X20385Y27738
X18985Y28688
X18985Y27738
X18985Y33288
X18985Y34238
X35495Y30538
X35495Y31438
X36895Y30538
X36895Y31438
X35495Y29638
X36895Y32338
X36895Y33288
X36895Y34238
X36895Y28688
X36895Y27738
X35495Y28688
X35495Y27738
X35495Y33288
X35495Y34238
X52005Y30538
X52005Y31438
X53405Y30538
X53405Y31438
X52005Y29638
X53405Y32338
X53405Y33288
X53405Y34238
X53405Y28688
X53405Y27738
X52005Y28688
X52005Y27738
X52005Y33288
X52005Y34238
X68515Y30538
X68515Y31438
X69915Y30538
X69915Y31438
X68515Y29638
X69915Y32338
X69915Y33288
X69915Y34238
X69915Y28688
X69915Y27738
X68515Y28688
X68515Y27738
X68515Y33288
X68515Y34238
X2475Y51366
X2475Y52266
X3875Y51366
X3875Y52266
X2475Y50466
X3875Y53166
X3875Y54116
X3875Y55066
T4
X34265Y32988
X34265Y8160
X34265Y12160
X21615Y8160
X21615Y12160
X71145Y70644
X38125Y28988
X17755Y8160
X17755Y12160
X5105Y8160
X17755Y32988
X50775Y53816
X67285Y12160
X50775Y49816
X54635Y53816
X54635Y49816
X67285Y53816
X67285Y28988
X71145Y32988
X71145Y28988
X1245Y53816
X54635Y8160
X54635Y12160
X50775Y8160
X67285Y49816
X71145Y53816
X71145Y49816
X1245Y74644
X50775Y12160
X38125Y8160
X34265Y28988
X38125Y32988
X1245Y49816
X5105Y53816
X5105Y49816
X1245Y70644
X5105Y74644
X5105Y70644
X17755Y74644
X17755Y53816
X50775Y32988
X38125Y12160
X1245Y32988
X67285Y8160
X71145Y12160
X17755Y70644
X21615Y74644
X21615Y70644
X34265Y53816
X34265Y74644
X71145Y8160
X1245Y28988
X5105Y32988
X5105Y28988
X17755Y28988
X21615Y32988
X21615Y28988
X5105Y12160
X17755Y49816
X21615Y53816
X21615Y49816
X34265Y70644
X38125Y74644
X38125Y70644
X50775Y74644
X1245Y8160
X1245Y12160
X50775Y28988
X54635Y32988
X54635Y28988
X50775Y70644
X54635Y74644
X54635Y70644
X67285Y74644
X67285Y32988
X34265Y49816
X38125Y53816
X38125Y49816
X67285Y70644
X71145Y74644
T5
X3175Y34874
X21336Y37338
X22860Y29718
X22860Y22098
X25400Y37338
X25400Y34798
X24130Y32258
X21590Y25908
X17399Y36195
X24091Y27178
X24384Y39497
X19685Y34874
X37846Y37338
X39370Y29718
X39370Y22098
X41910Y37338
X41910Y34798
X40640Y32258
X38100Y25908
X33909Y36195
X40601Y27178
X40894Y39497
X36195Y34874
X54356Y37338
X55880Y29718
X55880Y22098
X58420Y37338
X58420Y34798
X57150Y32258
X54610Y25908
X57111Y27178
X57404Y39497
X52705Y34874
X70866Y37338
X72390Y29718
X72390Y22098
X74930Y37338
X74930Y34798
X73660Y32258
X71120Y25908
X66929Y36195
X73621Y27178
X73914Y39497
X69215Y34874
X4826Y58166
X6350Y50546
X6350Y42926
X8890Y58166
X7620Y53086
X5080Y46736
X889Y57023
X7581Y48006
X7874Y60325
X3175Y55702
X21336Y58166
X22860Y50546
X22860Y42926
X25400Y58166
X25400Y55626
X24130Y53086
X21590Y46736
X17399Y57023
X24091Y48006
X24384Y60325
X19685Y55702
X7581Y68834
X69215Y76530
X73914Y81153
X73621Y68834
X66929Y77851
X58420Y13970
X5080Y67564
X7620Y73914
X8890Y76454
X8890Y78994
X6350Y63754
X6350Y71374
X4826Y16510
X6350Y8890
X6350Y1270
X8890Y16510
X58420Y78994
X55880Y63754
X55880Y71374
X54356Y78994
X36195Y76530
X40894Y81153
X40601Y68834
X8890Y13970
X7620Y11430
X5080Y5080
X889Y15367
X7581Y6350
X7874Y18669
X3175Y14046
X4826Y78994
X69215Y55702
X73914Y60325
X73621Y48006
X66929Y57023
X71120Y46736
X73660Y53086
X21336Y16510
X22860Y8890
X22860Y1270
X25400Y16510
X25400Y13970
X889Y77851
X71120Y67564
X73660Y73914
X74930Y76454
X74930Y78994
X72390Y63754
X72390Y71374
X24130Y11430
X21590Y5080
X17399Y15367
X24091Y6350
X24384Y18669
X19685Y14046
X74930Y55626
X74930Y58166
X72390Y42926
X72390Y50546
X50419Y36195
X70866Y58166
X52705Y55702
X37846Y16510
X33909Y77851
X38100Y67564
X40640Y73914
X41910Y76454
X41910Y78994
X39370Y63754
X39370Y71374
X39370Y8890
X70866Y78994
X39370Y1270
X41910Y16510
X41910Y13970
X40640Y11430
X38100Y5080
X33909Y15367
X40601Y6350
X40894Y18669
X36195Y14046
X57111Y48006
X50419Y57023
X54610Y46736
X57150Y53086
X58420Y55626
X58420Y58166
X54356Y16510
X55880Y8890
X55880Y1270
X58420Y16510
X57150Y11430
X54610Y5080
X50419Y15367
X57111Y6350
X57404Y18669
X52705Y14046
X70866Y16510
X72390Y8890
X37846Y78994
X19685Y76530
X24384Y81153
X72390Y1270
X74930Y16510
X74930Y13970
X55880Y42926
X55880Y50546
X54356Y58166
X36195Y55702
X40894Y60325
X40601Y48006
X33909Y57023
X73660Y11430
X24091Y68834
X17399Y77851
X21590Y67564
X24130Y73914
X8890Y55626
X71120Y5080
X25400Y76454
X66929Y15367
X73621Y6350
X73914Y18669
X69215Y14046
X52705Y76530
X57404Y81153
X57111Y68834
X4826Y37338
X6350Y29718
X6350Y22098
X38100Y46736
X40640Y53086
X41910Y55626
X41910Y58166
X39370Y42926
X39370Y50546
X37846Y58166
X8890Y37338
X50419Y77851
X54610Y67564
X57150Y73914
X58420Y76454
X8890Y34798
X7620Y32258
X5080Y25908
X889Y36195
X25400Y78994
X22860Y63754
X22860Y71374
X21336Y78994
X3175Y76530
X7874Y81153
X7581Y27178
X7874Y39497
X57404Y60325
M30