G04 EAGLE Gerber RS-274X export*
G75*
%MOMM*%
%FSLAX34Y34*%
%LPD*%
%INSoldermask Top*%
%IPPOS*%
%AMOC8*
5,1,8,0,0,1.08239X$1,22.5*%
G01*
%ADD10C,0.762000*%
%ADD11C,3.175000*%
%ADD12C,2.006600*%
%ADD13R,0.881000X0.881000*%
%ADD14C,1.127000*%
%ADD15C,1.270000*%
%ADD16C,1.627000*%

G36*
X382425Y735506D02*
X382425Y735506D01*
X382431Y735511D01*
X382435Y735508D01*
X383560Y735850D01*
X383565Y735855D01*
X383569Y735853D01*
X384607Y736408D01*
X384610Y736414D01*
X384615Y736413D01*
X385524Y737159D01*
X385526Y737166D01*
X385531Y737166D01*
X386277Y738075D01*
X386277Y738083D01*
X386282Y738083D01*
X386837Y739121D01*
X386836Y739128D01*
X386840Y739130D01*
X386957Y739514D01*
X387151Y740155D01*
X387182Y740255D01*
X387179Y740262D01*
X387184Y740265D01*
X387299Y741435D01*
X387297Y741438D01*
X387299Y741440D01*
X387299Y751440D01*
X387297Y751443D01*
X387299Y751445D01*
X387184Y752615D01*
X387179Y752621D01*
X387182Y752625D01*
X386840Y753750D01*
X386835Y753755D01*
X386837Y753759D01*
X386282Y754797D01*
X386276Y754800D01*
X386277Y754805D01*
X385531Y755714D01*
X385524Y755716D01*
X385524Y755721D01*
X384615Y756467D01*
X384607Y756467D01*
X384607Y756472D01*
X383569Y757027D01*
X383562Y757026D01*
X383560Y757030D01*
X382435Y757372D01*
X382428Y757369D01*
X382425Y757374D01*
X381255Y757489D01*
X381249Y757485D01*
X381245Y757489D01*
X380075Y757374D01*
X380069Y757369D01*
X380065Y757372D01*
X378940Y757030D01*
X378935Y757025D01*
X378931Y757027D01*
X377893Y756472D01*
X377890Y756466D01*
X377885Y756467D01*
X376976Y755721D01*
X376974Y755714D01*
X376969Y755714D01*
X376223Y754805D01*
X376223Y754797D01*
X376218Y754797D01*
X375663Y753759D01*
X375664Y753752D01*
X375660Y753750D01*
X375517Y753282D01*
X375503Y753233D01*
X375323Y752642D01*
X375318Y752625D01*
X375321Y752618D01*
X375316Y752615D01*
X375201Y751445D01*
X375203Y751442D01*
X375201Y751440D01*
X375201Y741440D01*
X375203Y741437D01*
X375201Y741435D01*
X375316Y740265D01*
X375321Y740259D01*
X375318Y740255D01*
X375660Y739130D01*
X375665Y739125D01*
X375663Y739121D01*
X376218Y738083D01*
X376224Y738080D01*
X376223Y738075D01*
X376969Y737166D01*
X376976Y737164D01*
X376976Y737159D01*
X377885Y736413D01*
X377893Y736413D01*
X377893Y736408D01*
X378931Y735853D01*
X378938Y735854D01*
X378940Y735850D01*
X380065Y735508D01*
X380072Y735511D01*
X380075Y735506D01*
X381245Y735391D01*
X381251Y735395D01*
X381255Y735391D01*
X382425Y735506D01*
G37*
G36*
X712625Y735506D02*
X712625Y735506D01*
X712631Y735511D01*
X712635Y735508D01*
X713760Y735850D01*
X713765Y735855D01*
X713769Y735853D01*
X714807Y736408D01*
X714810Y736414D01*
X714815Y736413D01*
X715724Y737159D01*
X715726Y737166D01*
X715731Y737166D01*
X716477Y738075D01*
X716477Y738083D01*
X716482Y738083D01*
X717037Y739121D01*
X717036Y739128D01*
X717040Y739130D01*
X717157Y739514D01*
X717351Y740155D01*
X717382Y740255D01*
X717379Y740262D01*
X717384Y740265D01*
X717499Y741435D01*
X717497Y741438D01*
X717499Y741440D01*
X717499Y751440D01*
X717497Y751443D01*
X717499Y751445D01*
X717384Y752615D01*
X717379Y752621D01*
X717382Y752625D01*
X717040Y753750D01*
X717035Y753755D01*
X717037Y753759D01*
X716482Y754797D01*
X716476Y754800D01*
X716477Y754805D01*
X715731Y755714D01*
X715724Y755716D01*
X715724Y755721D01*
X714815Y756467D01*
X714807Y756467D01*
X714807Y756472D01*
X713769Y757027D01*
X713762Y757026D01*
X713760Y757030D01*
X712635Y757372D01*
X712628Y757369D01*
X712625Y757374D01*
X711455Y757489D01*
X711449Y757485D01*
X711445Y757489D01*
X710275Y757374D01*
X710269Y757369D01*
X710265Y757372D01*
X709140Y757030D01*
X709135Y757025D01*
X709131Y757027D01*
X708093Y756472D01*
X708090Y756466D01*
X708085Y756467D01*
X707176Y755721D01*
X707174Y755714D01*
X707169Y755714D01*
X706423Y754805D01*
X706423Y754797D01*
X706418Y754797D01*
X705863Y753759D01*
X705864Y753752D01*
X705860Y753750D01*
X705717Y753282D01*
X705703Y753233D01*
X705523Y752642D01*
X705518Y752625D01*
X705521Y752618D01*
X705516Y752615D01*
X705401Y751445D01*
X705403Y751442D01*
X705401Y751440D01*
X705401Y741440D01*
X705403Y741437D01*
X705401Y741435D01*
X705516Y740265D01*
X705521Y740259D01*
X705518Y740255D01*
X705860Y739130D01*
X705865Y739125D01*
X705863Y739121D01*
X706418Y738083D01*
X706424Y738080D01*
X706423Y738075D01*
X707169Y737166D01*
X707176Y737164D01*
X707176Y737159D01*
X708085Y736413D01*
X708093Y736413D01*
X708093Y736408D01*
X709131Y735853D01*
X709138Y735854D01*
X709140Y735850D01*
X710265Y735508D01*
X710272Y735511D01*
X710275Y735506D01*
X711445Y735391D01*
X711451Y735395D01*
X711455Y735391D01*
X712625Y735506D01*
G37*
G36*
X674025Y735506D02*
X674025Y735506D01*
X674031Y735511D01*
X674035Y735508D01*
X675160Y735850D01*
X675165Y735855D01*
X675169Y735853D01*
X676207Y736408D01*
X676210Y736414D01*
X676215Y736413D01*
X677124Y737159D01*
X677126Y737166D01*
X677131Y737166D01*
X677877Y738075D01*
X677877Y738083D01*
X677882Y738083D01*
X678437Y739121D01*
X678436Y739128D01*
X678440Y739130D01*
X678557Y739514D01*
X678751Y740155D01*
X678782Y740255D01*
X678779Y740262D01*
X678784Y740265D01*
X678899Y741435D01*
X678897Y741438D01*
X678899Y741440D01*
X678899Y751440D01*
X678897Y751443D01*
X678899Y751445D01*
X678784Y752615D01*
X678779Y752621D01*
X678782Y752625D01*
X678440Y753750D01*
X678435Y753755D01*
X678437Y753759D01*
X677882Y754797D01*
X677876Y754800D01*
X677877Y754805D01*
X677131Y755714D01*
X677124Y755716D01*
X677124Y755721D01*
X676215Y756467D01*
X676207Y756467D01*
X676207Y756472D01*
X675169Y757027D01*
X675162Y757026D01*
X675160Y757030D01*
X674035Y757372D01*
X674028Y757369D01*
X674025Y757374D01*
X672855Y757489D01*
X672849Y757485D01*
X672845Y757489D01*
X671675Y757374D01*
X671669Y757369D01*
X671665Y757372D01*
X670540Y757030D01*
X670535Y757025D01*
X670531Y757027D01*
X669493Y756472D01*
X669490Y756466D01*
X669485Y756467D01*
X668576Y755721D01*
X668574Y755714D01*
X668569Y755714D01*
X667823Y754805D01*
X667823Y754797D01*
X667818Y754797D01*
X667263Y753759D01*
X667264Y753752D01*
X667260Y753750D01*
X667117Y753282D01*
X667103Y753233D01*
X666923Y752642D01*
X666918Y752625D01*
X666921Y752618D01*
X666916Y752615D01*
X666801Y751445D01*
X666803Y751442D01*
X666801Y751440D01*
X666801Y741440D01*
X666803Y741437D01*
X666801Y741435D01*
X666916Y740265D01*
X666921Y740259D01*
X666918Y740255D01*
X667260Y739130D01*
X667265Y739125D01*
X667263Y739121D01*
X667818Y738083D01*
X667824Y738080D01*
X667823Y738075D01*
X668569Y737166D01*
X668576Y737164D01*
X668576Y737159D01*
X669485Y736413D01*
X669493Y736413D01*
X669493Y736408D01*
X670531Y735853D01*
X670538Y735854D01*
X670540Y735850D01*
X671665Y735508D01*
X671672Y735511D01*
X671675Y735506D01*
X672845Y735391D01*
X672851Y735395D01*
X672855Y735391D01*
X674025Y735506D01*
G37*
G36*
X508925Y735506D02*
X508925Y735506D01*
X508931Y735511D01*
X508935Y735508D01*
X510060Y735850D01*
X510065Y735855D01*
X510069Y735853D01*
X511107Y736408D01*
X511110Y736414D01*
X511115Y736413D01*
X512024Y737159D01*
X512026Y737166D01*
X512031Y737166D01*
X512777Y738075D01*
X512777Y738083D01*
X512782Y738083D01*
X513337Y739121D01*
X513336Y739128D01*
X513340Y739130D01*
X513457Y739514D01*
X513651Y740155D01*
X513682Y740255D01*
X513679Y740262D01*
X513684Y740265D01*
X513799Y741435D01*
X513797Y741438D01*
X513799Y741440D01*
X513799Y751440D01*
X513797Y751443D01*
X513799Y751445D01*
X513684Y752615D01*
X513679Y752621D01*
X513682Y752625D01*
X513340Y753750D01*
X513335Y753755D01*
X513337Y753759D01*
X512782Y754797D01*
X512776Y754800D01*
X512777Y754805D01*
X512031Y755714D01*
X512024Y755716D01*
X512024Y755721D01*
X511115Y756467D01*
X511107Y756467D01*
X511107Y756472D01*
X510069Y757027D01*
X510062Y757026D01*
X510060Y757030D01*
X508935Y757372D01*
X508928Y757369D01*
X508925Y757374D01*
X507755Y757489D01*
X507749Y757485D01*
X507745Y757489D01*
X506575Y757374D01*
X506569Y757369D01*
X506565Y757372D01*
X505440Y757030D01*
X505435Y757025D01*
X505431Y757027D01*
X504393Y756472D01*
X504390Y756466D01*
X504385Y756467D01*
X503476Y755721D01*
X503474Y755714D01*
X503469Y755714D01*
X502723Y754805D01*
X502723Y754797D01*
X502718Y754797D01*
X502163Y753759D01*
X502164Y753752D01*
X502160Y753750D01*
X502017Y753282D01*
X502003Y753233D01*
X501823Y752642D01*
X501818Y752625D01*
X501821Y752618D01*
X501816Y752615D01*
X501701Y751445D01*
X501703Y751442D01*
X501701Y751440D01*
X501701Y741440D01*
X501703Y741437D01*
X501701Y741435D01*
X501816Y740265D01*
X501821Y740259D01*
X501818Y740255D01*
X502160Y739130D01*
X502165Y739125D01*
X502163Y739121D01*
X502718Y738083D01*
X502724Y738080D01*
X502723Y738075D01*
X503469Y737166D01*
X503476Y737164D01*
X503476Y737159D01*
X504385Y736413D01*
X504393Y736413D01*
X504393Y736408D01*
X505431Y735853D01*
X505438Y735854D01*
X505440Y735850D01*
X506565Y735508D01*
X506572Y735511D01*
X506575Y735506D01*
X507745Y735391D01*
X507751Y735395D01*
X507755Y735391D01*
X508925Y735506D01*
G37*
G36*
X217325Y735506D02*
X217325Y735506D01*
X217331Y735511D01*
X217335Y735508D01*
X218460Y735850D01*
X218465Y735855D01*
X218469Y735853D01*
X219507Y736408D01*
X219510Y736414D01*
X219515Y736413D01*
X220424Y737159D01*
X220426Y737166D01*
X220431Y737166D01*
X221177Y738075D01*
X221177Y738083D01*
X221182Y738083D01*
X221737Y739121D01*
X221736Y739128D01*
X221740Y739130D01*
X221857Y739514D01*
X222051Y740155D01*
X222082Y740255D01*
X222079Y740262D01*
X222084Y740265D01*
X222199Y741435D01*
X222197Y741438D01*
X222199Y741440D01*
X222199Y751440D01*
X222197Y751443D01*
X222199Y751445D01*
X222084Y752615D01*
X222079Y752621D01*
X222082Y752625D01*
X221740Y753750D01*
X221735Y753755D01*
X221737Y753759D01*
X221182Y754797D01*
X221176Y754800D01*
X221177Y754805D01*
X220431Y755714D01*
X220424Y755716D01*
X220424Y755721D01*
X219515Y756467D01*
X219507Y756467D01*
X219507Y756472D01*
X218469Y757027D01*
X218462Y757026D01*
X218460Y757030D01*
X217335Y757372D01*
X217328Y757369D01*
X217325Y757374D01*
X216155Y757489D01*
X216149Y757485D01*
X216145Y757489D01*
X214975Y757374D01*
X214969Y757369D01*
X214965Y757372D01*
X213840Y757030D01*
X213835Y757025D01*
X213831Y757027D01*
X212793Y756472D01*
X212790Y756466D01*
X212785Y756467D01*
X211876Y755721D01*
X211874Y755714D01*
X211869Y755714D01*
X211123Y754805D01*
X211123Y754797D01*
X211118Y754797D01*
X210563Y753759D01*
X210564Y753752D01*
X210560Y753750D01*
X210417Y753282D01*
X210403Y753233D01*
X210223Y752642D01*
X210218Y752625D01*
X210221Y752618D01*
X210216Y752615D01*
X210101Y751445D01*
X210103Y751442D01*
X210101Y751440D01*
X210101Y741440D01*
X210103Y741437D01*
X210101Y741435D01*
X210216Y740265D01*
X210221Y740259D01*
X210218Y740255D01*
X210560Y739130D01*
X210565Y739125D01*
X210563Y739121D01*
X211118Y738083D01*
X211124Y738080D01*
X211123Y738075D01*
X211869Y737166D01*
X211876Y737164D01*
X211876Y737159D01*
X212785Y736413D01*
X212793Y736413D01*
X212793Y736408D01*
X213831Y735853D01*
X213838Y735854D01*
X213840Y735850D01*
X214965Y735508D01*
X214972Y735511D01*
X214975Y735506D01*
X216145Y735391D01*
X216151Y735395D01*
X216155Y735391D01*
X217325Y735506D01*
G37*
G36*
X343825Y735506D02*
X343825Y735506D01*
X343831Y735511D01*
X343835Y735508D01*
X344960Y735850D01*
X344965Y735855D01*
X344969Y735853D01*
X346007Y736408D01*
X346010Y736414D01*
X346015Y736413D01*
X346924Y737159D01*
X346926Y737166D01*
X346931Y737166D01*
X347677Y738075D01*
X347677Y738083D01*
X347682Y738083D01*
X348237Y739121D01*
X348236Y739128D01*
X348240Y739130D01*
X348357Y739514D01*
X348551Y740155D01*
X348582Y740255D01*
X348579Y740262D01*
X348584Y740265D01*
X348699Y741435D01*
X348697Y741438D01*
X348699Y741440D01*
X348699Y751440D01*
X348697Y751443D01*
X348699Y751445D01*
X348584Y752615D01*
X348579Y752621D01*
X348582Y752625D01*
X348240Y753750D01*
X348235Y753755D01*
X348237Y753759D01*
X347682Y754797D01*
X347676Y754800D01*
X347677Y754805D01*
X346931Y755714D01*
X346924Y755716D01*
X346924Y755721D01*
X346015Y756467D01*
X346007Y756467D01*
X346007Y756472D01*
X344969Y757027D01*
X344962Y757026D01*
X344960Y757030D01*
X343835Y757372D01*
X343828Y757369D01*
X343825Y757374D01*
X342655Y757489D01*
X342649Y757485D01*
X342645Y757489D01*
X341475Y757374D01*
X341469Y757369D01*
X341465Y757372D01*
X340340Y757030D01*
X340335Y757025D01*
X340331Y757027D01*
X339293Y756472D01*
X339290Y756466D01*
X339285Y756467D01*
X338376Y755721D01*
X338374Y755714D01*
X338369Y755714D01*
X337623Y754805D01*
X337623Y754797D01*
X337618Y754797D01*
X337063Y753759D01*
X337064Y753752D01*
X337060Y753750D01*
X336917Y753282D01*
X336903Y753233D01*
X336723Y752642D01*
X336718Y752625D01*
X336721Y752618D01*
X336716Y752615D01*
X336601Y751445D01*
X336603Y751442D01*
X336601Y751440D01*
X336601Y741440D01*
X336603Y741437D01*
X336601Y741435D01*
X336716Y740265D01*
X336721Y740259D01*
X336718Y740255D01*
X337060Y739130D01*
X337065Y739125D01*
X337063Y739121D01*
X337618Y738083D01*
X337624Y738080D01*
X337623Y738075D01*
X338369Y737166D01*
X338376Y737164D01*
X338376Y737159D01*
X339285Y736413D01*
X339293Y736413D01*
X339293Y736408D01*
X340331Y735853D01*
X340338Y735854D01*
X340340Y735850D01*
X341465Y735508D01*
X341472Y735511D01*
X341475Y735506D01*
X342645Y735391D01*
X342651Y735395D01*
X342655Y735391D01*
X343825Y735506D01*
G37*
G36*
X178725Y735506D02*
X178725Y735506D01*
X178731Y735511D01*
X178735Y735508D01*
X179860Y735850D01*
X179865Y735855D01*
X179869Y735853D01*
X180907Y736408D01*
X180910Y736414D01*
X180915Y736413D01*
X181824Y737159D01*
X181826Y737166D01*
X181831Y737166D01*
X182577Y738075D01*
X182577Y738083D01*
X182582Y738083D01*
X183137Y739121D01*
X183136Y739128D01*
X183140Y739130D01*
X183257Y739514D01*
X183451Y740155D01*
X183482Y740255D01*
X183479Y740262D01*
X183484Y740265D01*
X183599Y741435D01*
X183597Y741438D01*
X183599Y741440D01*
X183599Y751440D01*
X183597Y751443D01*
X183599Y751445D01*
X183484Y752615D01*
X183479Y752621D01*
X183482Y752625D01*
X183140Y753750D01*
X183135Y753755D01*
X183137Y753759D01*
X182582Y754797D01*
X182576Y754800D01*
X182577Y754805D01*
X181831Y755714D01*
X181824Y755716D01*
X181824Y755721D01*
X180915Y756467D01*
X180907Y756467D01*
X180907Y756472D01*
X179869Y757027D01*
X179862Y757026D01*
X179860Y757030D01*
X178735Y757372D01*
X178728Y757369D01*
X178725Y757374D01*
X177555Y757489D01*
X177549Y757485D01*
X177545Y757489D01*
X176375Y757374D01*
X176369Y757369D01*
X176365Y757372D01*
X175240Y757030D01*
X175235Y757025D01*
X175231Y757027D01*
X174193Y756472D01*
X174190Y756466D01*
X174185Y756467D01*
X173276Y755721D01*
X173274Y755714D01*
X173269Y755714D01*
X172523Y754805D01*
X172523Y754797D01*
X172518Y754797D01*
X171963Y753759D01*
X171964Y753752D01*
X171960Y753750D01*
X171817Y753282D01*
X171803Y753233D01*
X171623Y752642D01*
X171618Y752625D01*
X171621Y752618D01*
X171616Y752615D01*
X171501Y751445D01*
X171503Y751442D01*
X171501Y751440D01*
X171501Y741440D01*
X171503Y741437D01*
X171501Y741435D01*
X171616Y740265D01*
X171621Y740259D01*
X171618Y740255D01*
X171960Y739130D01*
X171965Y739125D01*
X171963Y739121D01*
X172518Y738083D01*
X172524Y738080D01*
X172523Y738075D01*
X173269Y737166D01*
X173276Y737164D01*
X173276Y737159D01*
X174185Y736413D01*
X174193Y736413D01*
X174193Y736408D01*
X175231Y735853D01*
X175238Y735854D01*
X175240Y735850D01*
X176365Y735508D01*
X176372Y735511D01*
X176375Y735506D01*
X177545Y735391D01*
X177551Y735395D01*
X177555Y735391D01*
X178725Y735506D01*
G37*
G36*
X13625Y735506D02*
X13625Y735506D01*
X13631Y735511D01*
X13635Y735508D01*
X14760Y735850D01*
X14765Y735855D01*
X14769Y735853D01*
X15807Y736408D01*
X15810Y736414D01*
X15815Y736413D01*
X16724Y737159D01*
X16726Y737166D01*
X16731Y737166D01*
X17477Y738075D01*
X17477Y738083D01*
X17482Y738083D01*
X18037Y739121D01*
X18036Y739128D01*
X18040Y739130D01*
X18157Y739514D01*
X18351Y740155D01*
X18382Y740255D01*
X18379Y740262D01*
X18384Y740265D01*
X18499Y741435D01*
X18497Y741438D01*
X18499Y741440D01*
X18499Y751440D01*
X18497Y751443D01*
X18499Y751445D01*
X18384Y752615D01*
X18379Y752621D01*
X18382Y752625D01*
X18040Y753750D01*
X18035Y753755D01*
X18037Y753759D01*
X17482Y754797D01*
X17476Y754800D01*
X17477Y754805D01*
X16731Y755714D01*
X16724Y755716D01*
X16724Y755721D01*
X15815Y756467D01*
X15807Y756467D01*
X15807Y756472D01*
X14769Y757027D01*
X14762Y757026D01*
X14760Y757030D01*
X13635Y757372D01*
X13628Y757369D01*
X13625Y757374D01*
X12455Y757489D01*
X12449Y757485D01*
X12445Y757489D01*
X11275Y757374D01*
X11269Y757369D01*
X11265Y757372D01*
X10140Y757030D01*
X10135Y757025D01*
X10131Y757027D01*
X9093Y756472D01*
X9090Y756466D01*
X9085Y756467D01*
X8176Y755721D01*
X8174Y755714D01*
X8169Y755714D01*
X7423Y754805D01*
X7423Y754797D01*
X7418Y754797D01*
X6863Y753759D01*
X6864Y753752D01*
X6860Y753750D01*
X6717Y753282D01*
X6703Y753233D01*
X6523Y752642D01*
X6518Y752625D01*
X6521Y752618D01*
X6516Y752615D01*
X6401Y751445D01*
X6403Y751442D01*
X6401Y751440D01*
X6401Y741440D01*
X6403Y741437D01*
X6401Y741435D01*
X6516Y740265D01*
X6521Y740259D01*
X6518Y740255D01*
X6860Y739130D01*
X6865Y739125D01*
X6863Y739121D01*
X7418Y738083D01*
X7424Y738080D01*
X7423Y738075D01*
X8169Y737166D01*
X8176Y737164D01*
X8176Y737159D01*
X9085Y736413D01*
X9093Y736413D01*
X9093Y736408D01*
X10131Y735853D01*
X10138Y735854D01*
X10140Y735850D01*
X11265Y735508D01*
X11272Y735511D01*
X11275Y735506D01*
X12445Y735391D01*
X12451Y735395D01*
X12455Y735391D01*
X13625Y735506D01*
G37*
G36*
X52225Y735506D02*
X52225Y735506D01*
X52231Y735511D01*
X52235Y735508D01*
X53360Y735850D01*
X53365Y735855D01*
X53369Y735853D01*
X54407Y736408D01*
X54410Y736414D01*
X54415Y736413D01*
X55324Y737159D01*
X55326Y737166D01*
X55331Y737166D01*
X56077Y738075D01*
X56077Y738083D01*
X56082Y738083D01*
X56637Y739121D01*
X56636Y739128D01*
X56640Y739130D01*
X56757Y739514D01*
X56951Y740155D01*
X56982Y740255D01*
X56979Y740262D01*
X56984Y740265D01*
X57099Y741435D01*
X57097Y741438D01*
X57099Y741440D01*
X57099Y751440D01*
X57097Y751443D01*
X57099Y751445D01*
X56984Y752615D01*
X56979Y752621D01*
X56982Y752625D01*
X56640Y753750D01*
X56635Y753755D01*
X56637Y753759D01*
X56082Y754797D01*
X56076Y754800D01*
X56077Y754805D01*
X55331Y755714D01*
X55324Y755716D01*
X55324Y755721D01*
X54415Y756467D01*
X54407Y756467D01*
X54407Y756472D01*
X53369Y757027D01*
X53362Y757026D01*
X53360Y757030D01*
X52235Y757372D01*
X52228Y757369D01*
X52225Y757374D01*
X51055Y757489D01*
X51049Y757485D01*
X51045Y757489D01*
X49875Y757374D01*
X49869Y757369D01*
X49865Y757372D01*
X48740Y757030D01*
X48735Y757025D01*
X48731Y757027D01*
X47693Y756472D01*
X47690Y756466D01*
X47685Y756467D01*
X46776Y755721D01*
X46774Y755714D01*
X46769Y755714D01*
X46023Y754805D01*
X46023Y754797D01*
X46018Y754797D01*
X45463Y753759D01*
X45464Y753752D01*
X45460Y753750D01*
X45317Y753282D01*
X45303Y753233D01*
X45123Y752642D01*
X45118Y752625D01*
X45121Y752618D01*
X45116Y752615D01*
X45001Y751445D01*
X45003Y751442D01*
X45001Y751440D01*
X45001Y741440D01*
X45003Y741437D01*
X45001Y741435D01*
X45116Y740265D01*
X45121Y740259D01*
X45118Y740255D01*
X45460Y739130D01*
X45465Y739125D01*
X45463Y739121D01*
X46018Y738083D01*
X46024Y738080D01*
X46023Y738075D01*
X46769Y737166D01*
X46776Y737164D01*
X46776Y737159D01*
X47685Y736413D01*
X47693Y736413D01*
X47693Y736408D01*
X48731Y735853D01*
X48738Y735854D01*
X48740Y735850D01*
X49865Y735508D01*
X49872Y735511D01*
X49875Y735506D01*
X51045Y735391D01*
X51051Y735395D01*
X51055Y735391D01*
X52225Y735506D01*
G37*
G36*
X547525Y735506D02*
X547525Y735506D01*
X547531Y735511D01*
X547535Y735508D01*
X548660Y735850D01*
X548665Y735855D01*
X548669Y735853D01*
X549707Y736408D01*
X549710Y736414D01*
X549715Y736413D01*
X550624Y737159D01*
X550626Y737166D01*
X550631Y737166D01*
X551377Y738075D01*
X551377Y738083D01*
X551382Y738083D01*
X551937Y739121D01*
X551936Y739128D01*
X551940Y739130D01*
X552057Y739514D01*
X552251Y740155D01*
X552282Y740255D01*
X552279Y740262D01*
X552284Y740265D01*
X552399Y741435D01*
X552397Y741438D01*
X552399Y741440D01*
X552399Y751440D01*
X552397Y751443D01*
X552399Y751445D01*
X552284Y752615D01*
X552279Y752621D01*
X552282Y752625D01*
X551940Y753750D01*
X551935Y753755D01*
X551937Y753759D01*
X551382Y754797D01*
X551376Y754800D01*
X551377Y754805D01*
X550631Y755714D01*
X550624Y755716D01*
X550624Y755721D01*
X549715Y756467D01*
X549707Y756467D01*
X549707Y756472D01*
X548669Y757027D01*
X548662Y757026D01*
X548660Y757030D01*
X547535Y757372D01*
X547528Y757369D01*
X547525Y757374D01*
X546355Y757489D01*
X546349Y757485D01*
X546345Y757489D01*
X545175Y757374D01*
X545169Y757369D01*
X545165Y757372D01*
X544040Y757030D01*
X544035Y757025D01*
X544031Y757027D01*
X542993Y756472D01*
X542990Y756466D01*
X542985Y756467D01*
X542076Y755721D01*
X542074Y755714D01*
X542069Y755714D01*
X541323Y754805D01*
X541323Y754797D01*
X541318Y754797D01*
X540763Y753759D01*
X540764Y753752D01*
X540760Y753750D01*
X540617Y753282D01*
X540603Y753233D01*
X540423Y752642D01*
X540418Y752625D01*
X540421Y752618D01*
X540416Y752615D01*
X540301Y751445D01*
X540303Y751442D01*
X540301Y751440D01*
X540301Y741440D01*
X540303Y741437D01*
X540301Y741435D01*
X540416Y740265D01*
X540421Y740259D01*
X540418Y740255D01*
X540760Y739130D01*
X540765Y739125D01*
X540763Y739121D01*
X541318Y738083D01*
X541324Y738080D01*
X541323Y738075D01*
X542069Y737166D01*
X542076Y737164D01*
X542076Y737159D01*
X542985Y736413D01*
X542993Y736413D01*
X542993Y736408D01*
X544031Y735853D01*
X544038Y735854D01*
X544040Y735850D01*
X545165Y735508D01*
X545172Y735511D01*
X545175Y735506D01*
X546345Y735391D01*
X546351Y735395D01*
X546355Y735391D01*
X547525Y735506D01*
G37*
G36*
X547525Y695506D02*
X547525Y695506D01*
X547531Y695511D01*
X547535Y695508D01*
X548660Y695850D01*
X548665Y695855D01*
X548669Y695853D01*
X549707Y696408D01*
X549710Y696414D01*
X549715Y696413D01*
X550624Y697159D01*
X550626Y697166D01*
X550631Y697166D01*
X551377Y698075D01*
X551377Y698083D01*
X551382Y698083D01*
X551937Y699121D01*
X551936Y699128D01*
X551940Y699130D01*
X552057Y699514D01*
X552251Y700155D01*
X552282Y700255D01*
X552279Y700262D01*
X552284Y700265D01*
X552399Y701435D01*
X552397Y701438D01*
X552399Y701440D01*
X552399Y711440D01*
X552397Y711443D01*
X552399Y711445D01*
X552284Y712615D01*
X552279Y712621D01*
X552282Y712625D01*
X551940Y713750D01*
X551935Y713755D01*
X551937Y713759D01*
X551382Y714797D01*
X551376Y714800D01*
X551377Y714805D01*
X550631Y715714D01*
X550624Y715716D01*
X550624Y715721D01*
X549715Y716467D01*
X549707Y716467D01*
X549707Y716472D01*
X548669Y717027D01*
X548662Y717026D01*
X548660Y717030D01*
X547535Y717372D01*
X547528Y717369D01*
X547525Y717374D01*
X546355Y717489D01*
X546349Y717485D01*
X546345Y717489D01*
X545175Y717374D01*
X545169Y717369D01*
X545165Y717372D01*
X544040Y717030D01*
X544035Y717025D01*
X544031Y717027D01*
X542993Y716472D01*
X542990Y716466D01*
X542985Y716467D01*
X542076Y715721D01*
X542074Y715714D01*
X542069Y715714D01*
X541323Y714805D01*
X541323Y714797D01*
X541318Y714797D01*
X540763Y713759D01*
X540764Y713752D01*
X540760Y713750D01*
X540617Y713282D01*
X540603Y713233D01*
X540423Y712642D01*
X540418Y712625D01*
X540421Y712618D01*
X540416Y712615D01*
X540301Y711445D01*
X540303Y711442D01*
X540301Y711440D01*
X540301Y701440D01*
X540303Y701437D01*
X540301Y701435D01*
X540416Y700265D01*
X540421Y700259D01*
X540418Y700255D01*
X540760Y699130D01*
X540765Y699125D01*
X540763Y699121D01*
X541318Y698083D01*
X541324Y698080D01*
X541323Y698075D01*
X542069Y697166D01*
X542076Y697164D01*
X542076Y697159D01*
X542985Y696413D01*
X542993Y696413D01*
X542993Y696408D01*
X544031Y695853D01*
X544038Y695854D01*
X544040Y695850D01*
X545165Y695508D01*
X545172Y695511D01*
X545175Y695506D01*
X546345Y695391D01*
X546351Y695395D01*
X546355Y695391D01*
X547525Y695506D01*
G37*
G36*
X508925Y695506D02*
X508925Y695506D01*
X508931Y695511D01*
X508935Y695508D01*
X510060Y695850D01*
X510065Y695855D01*
X510069Y695853D01*
X511107Y696408D01*
X511110Y696414D01*
X511115Y696413D01*
X512024Y697159D01*
X512026Y697166D01*
X512031Y697166D01*
X512777Y698075D01*
X512777Y698083D01*
X512782Y698083D01*
X513337Y699121D01*
X513336Y699128D01*
X513340Y699130D01*
X513457Y699514D01*
X513651Y700155D01*
X513682Y700255D01*
X513679Y700262D01*
X513684Y700265D01*
X513799Y701435D01*
X513797Y701438D01*
X513799Y701440D01*
X513799Y711440D01*
X513797Y711443D01*
X513799Y711445D01*
X513684Y712615D01*
X513679Y712621D01*
X513682Y712625D01*
X513340Y713750D01*
X513335Y713755D01*
X513337Y713759D01*
X512782Y714797D01*
X512776Y714800D01*
X512777Y714805D01*
X512031Y715714D01*
X512024Y715716D01*
X512024Y715721D01*
X511115Y716467D01*
X511107Y716467D01*
X511107Y716472D01*
X510069Y717027D01*
X510062Y717026D01*
X510060Y717030D01*
X508935Y717372D01*
X508928Y717369D01*
X508925Y717374D01*
X507755Y717489D01*
X507749Y717485D01*
X507745Y717489D01*
X506575Y717374D01*
X506569Y717369D01*
X506565Y717372D01*
X505440Y717030D01*
X505435Y717025D01*
X505431Y717027D01*
X504393Y716472D01*
X504390Y716466D01*
X504385Y716467D01*
X503476Y715721D01*
X503474Y715714D01*
X503469Y715714D01*
X502723Y714805D01*
X502723Y714797D01*
X502718Y714797D01*
X502163Y713759D01*
X502164Y713752D01*
X502160Y713750D01*
X502017Y713282D01*
X502003Y713233D01*
X501823Y712642D01*
X501818Y712625D01*
X501821Y712618D01*
X501816Y712615D01*
X501701Y711445D01*
X501703Y711442D01*
X501701Y711440D01*
X501701Y701440D01*
X501703Y701437D01*
X501701Y701435D01*
X501816Y700265D01*
X501821Y700259D01*
X501818Y700255D01*
X502160Y699130D01*
X502165Y699125D01*
X502163Y699121D01*
X502718Y698083D01*
X502724Y698080D01*
X502723Y698075D01*
X503469Y697166D01*
X503476Y697164D01*
X503476Y697159D01*
X504385Y696413D01*
X504393Y696413D01*
X504393Y696408D01*
X505431Y695853D01*
X505438Y695854D01*
X505440Y695850D01*
X506565Y695508D01*
X506572Y695511D01*
X506575Y695506D01*
X507745Y695391D01*
X507751Y695395D01*
X507755Y695391D01*
X508925Y695506D01*
G37*
G36*
X13625Y695506D02*
X13625Y695506D01*
X13631Y695511D01*
X13635Y695508D01*
X14760Y695850D01*
X14765Y695855D01*
X14769Y695853D01*
X15807Y696408D01*
X15810Y696414D01*
X15815Y696413D01*
X16724Y697159D01*
X16726Y697166D01*
X16731Y697166D01*
X17477Y698075D01*
X17477Y698083D01*
X17482Y698083D01*
X18037Y699121D01*
X18036Y699128D01*
X18040Y699130D01*
X18157Y699514D01*
X18351Y700155D01*
X18382Y700255D01*
X18379Y700262D01*
X18384Y700265D01*
X18499Y701435D01*
X18497Y701438D01*
X18499Y701440D01*
X18499Y711440D01*
X18497Y711443D01*
X18499Y711445D01*
X18384Y712615D01*
X18379Y712621D01*
X18382Y712625D01*
X18040Y713750D01*
X18035Y713755D01*
X18037Y713759D01*
X17482Y714797D01*
X17476Y714800D01*
X17477Y714805D01*
X16731Y715714D01*
X16724Y715716D01*
X16724Y715721D01*
X15815Y716467D01*
X15807Y716467D01*
X15807Y716472D01*
X14769Y717027D01*
X14762Y717026D01*
X14760Y717030D01*
X13635Y717372D01*
X13628Y717369D01*
X13625Y717374D01*
X12455Y717489D01*
X12449Y717485D01*
X12445Y717489D01*
X11275Y717374D01*
X11269Y717369D01*
X11265Y717372D01*
X10140Y717030D01*
X10135Y717025D01*
X10131Y717027D01*
X9093Y716472D01*
X9090Y716466D01*
X9085Y716467D01*
X8176Y715721D01*
X8174Y715714D01*
X8169Y715714D01*
X7423Y714805D01*
X7423Y714797D01*
X7418Y714797D01*
X6863Y713759D01*
X6864Y713752D01*
X6860Y713750D01*
X6717Y713282D01*
X6703Y713233D01*
X6523Y712642D01*
X6518Y712625D01*
X6521Y712618D01*
X6516Y712615D01*
X6401Y711445D01*
X6403Y711442D01*
X6401Y711440D01*
X6401Y701440D01*
X6403Y701437D01*
X6401Y701435D01*
X6516Y700265D01*
X6521Y700259D01*
X6518Y700255D01*
X6860Y699130D01*
X6865Y699125D01*
X6863Y699121D01*
X7418Y698083D01*
X7424Y698080D01*
X7423Y698075D01*
X8169Y697166D01*
X8176Y697164D01*
X8176Y697159D01*
X9085Y696413D01*
X9093Y696413D01*
X9093Y696408D01*
X10131Y695853D01*
X10138Y695854D01*
X10140Y695850D01*
X11265Y695508D01*
X11272Y695511D01*
X11275Y695506D01*
X12445Y695391D01*
X12451Y695395D01*
X12455Y695391D01*
X13625Y695506D01*
G37*
G36*
X178725Y695506D02*
X178725Y695506D01*
X178731Y695511D01*
X178735Y695508D01*
X179860Y695850D01*
X179865Y695855D01*
X179869Y695853D01*
X180907Y696408D01*
X180910Y696414D01*
X180915Y696413D01*
X181824Y697159D01*
X181826Y697166D01*
X181831Y697166D01*
X182577Y698075D01*
X182577Y698083D01*
X182582Y698083D01*
X183137Y699121D01*
X183136Y699128D01*
X183140Y699130D01*
X183257Y699514D01*
X183451Y700155D01*
X183482Y700255D01*
X183479Y700262D01*
X183484Y700265D01*
X183599Y701435D01*
X183597Y701438D01*
X183599Y701440D01*
X183599Y711440D01*
X183597Y711443D01*
X183599Y711445D01*
X183484Y712615D01*
X183479Y712621D01*
X183482Y712625D01*
X183140Y713750D01*
X183135Y713755D01*
X183137Y713759D01*
X182582Y714797D01*
X182576Y714800D01*
X182577Y714805D01*
X181831Y715714D01*
X181824Y715716D01*
X181824Y715721D01*
X180915Y716467D01*
X180907Y716467D01*
X180907Y716472D01*
X179869Y717027D01*
X179862Y717026D01*
X179860Y717030D01*
X178735Y717372D01*
X178728Y717369D01*
X178725Y717374D01*
X177555Y717489D01*
X177549Y717485D01*
X177545Y717489D01*
X176375Y717374D01*
X176369Y717369D01*
X176365Y717372D01*
X175240Y717030D01*
X175235Y717025D01*
X175231Y717027D01*
X174193Y716472D01*
X174190Y716466D01*
X174185Y716467D01*
X173276Y715721D01*
X173274Y715714D01*
X173269Y715714D01*
X172523Y714805D01*
X172523Y714797D01*
X172518Y714797D01*
X171963Y713759D01*
X171964Y713752D01*
X171960Y713750D01*
X171817Y713282D01*
X171803Y713233D01*
X171623Y712642D01*
X171618Y712625D01*
X171621Y712618D01*
X171616Y712615D01*
X171501Y711445D01*
X171503Y711442D01*
X171501Y711440D01*
X171501Y701440D01*
X171503Y701437D01*
X171501Y701435D01*
X171616Y700265D01*
X171621Y700259D01*
X171618Y700255D01*
X171960Y699130D01*
X171965Y699125D01*
X171963Y699121D01*
X172518Y698083D01*
X172524Y698080D01*
X172523Y698075D01*
X173269Y697166D01*
X173276Y697164D01*
X173276Y697159D01*
X174185Y696413D01*
X174193Y696413D01*
X174193Y696408D01*
X175231Y695853D01*
X175238Y695854D01*
X175240Y695850D01*
X176365Y695508D01*
X176372Y695511D01*
X176375Y695506D01*
X177545Y695391D01*
X177551Y695395D01*
X177555Y695391D01*
X178725Y695506D01*
G37*
G36*
X674025Y695506D02*
X674025Y695506D01*
X674031Y695511D01*
X674035Y695508D01*
X675160Y695850D01*
X675165Y695855D01*
X675169Y695853D01*
X676207Y696408D01*
X676210Y696414D01*
X676215Y696413D01*
X677124Y697159D01*
X677126Y697166D01*
X677131Y697166D01*
X677877Y698075D01*
X677877Y698083D01*
X677882Y698083D01*
X678437Y699121D01*
X678436Y699128D01*
X678440Y699130D01*
X678557Y699514D01*
X678751Y700155D01*
X678782Y700255D01*
X678779Y700262D01*
X678784Y700265D01*
X678899Y701435D01*
X678897Y701438D01*
X678899Y701440D01*
X678899Y711440D01*
X678897Y711443D01*
X678899Y711445D01*
X678784Y712615D01*
X678779Y712621D01*
X678782Y712625D01*
X678440Y713750D01*
X678435Y713755D01*
X678437Y713759D01*
X677882Y714797D01*
X677876Y714800D01*
X677877Y714805D01*
X677131Y715714D01*
X677124Y715716D01*
X677124Y715721D01*
X676215Y716467D01*
X676207Y716467D01*
X676207Y716472D01*
X675169Y717027D01*
X675162Y717026D01*
X675160Y717030D01*
X674035Y717372D01*
X674028Y717369D01*
X674025Y717374D01*
X672855Y717489D01*
X672849Y717485D01*
X672845Y717489D01*
X671675Y717374D01*
X671669Y717369D01*
X671665Y717372D01*
X670540Y717030D01*
X670535Y717025D01*
X670531Y717027D01*
X669493Y716472D01*
X669490Y716466D01*
X669485Y716467D01*
X668576Y715721D01*
X668574Y715714D01*
X668569Y715714D01*
X667823Y714805D01*
X667823Y714797D01*
X667818Y714797D01*
X667263Y713759D01*
X667264Y713752D01*
X667260Y713750D01*
X667117Y713282D01*
X667103Y713233D01*
X666923Y712642D01*
X666918Y712625D01*
X666921Y712618D01*
X666916Y712615D01*
X666801Y711445D01*
X666803Y711442D01*
X666801Y711440D01*
X666801Y701440D01*
X666803Y701437D01*
X666801Y701435D01*
X666916Y700265D01*
X666921Y700259D01*
X666918Y700255D01*
X667260Y699130D01*
X667265Y699125D01*
X667263Y699121D01*
X667818Y698083D01*
X667824Y698080D01*
X667823Y698075D01*
X668569Y697166D01*
X668576Y697164D01*
X668576Y697159D01*
X669485Y696413D01*
X669493Y696413D01*
X669493Y696408D01*
X670531Y695853D01*
X670538Y695854D01*
X670540Y695850D01*
X671665Y695508D01*
X671672Y695511D01*
X671675Y695506D01*
X672845Y695391D01*
X672851Y695395D01*
X672855Y695391D01*
X674025Y695506D01*
G37*
G36*
X343825Y695506D02*
X343825Y695506D01*
X343831Y695511D01*
X343835Y695508D01*
X344960Y695850D01*
X344965Y695855D01*
X344969Y695853D01*
X346007Y696408D01*
X346010Y696414D01*
X346015Y696413D01*
X346924Y697159D01*
X346926Y697166D01*
X346931Y697166D01*
X347677Y698075D01*
X347677Y698083D01*
X347682Y698083D01*
X348237Y699121D01*
X348236Y699128D01*
X348240Y699130D01*
X348357Y699514D01*
X348551Y700155D01*
X348582Y700255D01*
X348579Y700262D01*
X348584Y700265D01*
X348699Y701435D01*
X348697Y701438D01*
X348699Y701440D01*
X348699Y711440D01*
X348697Y711443D01*
X348699Y711445D01*
X348584Y712615D01*
X348579Y712621D01*
X348582Y712625D01*
X348240Y713750D01*
X348235Y713755D01*
X348237Y713759D01*
X347682Y714797D01*
X347676Y714800D01*
X347677Y714805D01*
X346931Y715714D01*
X346924Y715716D01*
X346924Y715721D01*
X346015Y716467D01*
X346007Y716467D01*
X346007Y716472D01*
X344969Y717027D01*
X344962Y717026D01*
X344960Y717030D01*
X343835Y717372D01*
X343828Y717369D01*
X343825Y717374D01*
X342655Y717489D01*
X342649Y717485D01*
X342645Y717489D01*
X341475Y717374D01*
X341469Y717369D01*
X341465Y717372D01*
X340340Y717030D01*
X340335Y717025D01*
X340331Y717027D01*
X339293Y716472D01*
X339290Y716466D01*
X339285Y716467D01*
X338376Y715721D01*
X338374Y715714D01*
X338369Y715714D01*
X337623Y714805D01*
X337623Y714797D01*
X337618Y714797D01*
X337063Y713759D01*
X337064Y713752D01*
X337060Y713750D01*
X336917Y713282D01*
X336903Y713233D01*
X336723Y712642D01*
X336718Y712625D01*
X336721Y712618D01*
X336716Y712615D01*
X336601Y711445D01*
X336603Y711442D01*
X336601Y711440D01*
X336601Y701440D01*
X336603Y701437D01*
X336601Y701435D01*
X336716Y700265D01*
X336721Y700259D01*
X336718Y700255D01*
X337060Y699130D01*
X337065Y699125D01*
X337063Y699121D01*
X337618Y698083D01*
X337624Y698080D01*
X337623Y698075D01*
X338369Y697166D01*
X338376Y697164D01*
X338376Y697159D01*
X339285Y696413D01*
X339293Y696413D01*
X339293Y696408D01*
X340331Y695853D01*
X340338Y695854D01*
X340340Y695850D01*
X341465Y695508D01*
X341472Y695511D01*
X341475Y695506D01*
X342645Y695391D01*
X342651Y695395D01*
X342655Y695391D01*
X343825Y695506D01*
G37*
G36*
X712625Y695506D02*
X712625Y695506D01*
X712631Y695511D01*
X712635Y695508D01*
X713760Y695850D01*
X713765Y695855D01*
X713769Y695853D01*
X714807Y696408D01*
X714810Y696414D01*
X714815Y696413D01*
X715724Y697159D01*
X715726Y697166D01*
X715731Y697166D01*
X716477Y698075D01*
X716477Y698083D01*
X716482Y698083D01*
X717037Y699121D01*
X717036Y699128D01*
X717040Y699130D01*
X717157Y699514D01*
X717351Y700155D01*
X717382Y700255D01*
X717379Y700262D01*
X717384Y700265D01*
X717499Y701435D01*
X717497Y701438D01*
X717499Y701440D01*
X717499Y711440D01*
X717497Y711443D01*
X717499Y711445D01*
X717384Y712615D01*
X717379Y712621D01*
X717382Y712625D01*
X717040Y713750D01*
X717035Y713755D01*
X717037Y713759D01*
X716482Y714797D01*
X716476Y714800D01*
X716477Y714805D01*
X715731Y715714D01*
X715724Y715716D01*
X715724Y715721D01*
X714815Y716467D01*
X714807Y716467D01*
X714807Y716472D01*
X713769Y717027D01*
X713762Y717026D01*
X713760Y717030D01*
X712635Y717372D01*
X712628Y717369D01*
X712625Y717374D01*
X711455Y717489D01*
X711449Y717485D01*
X711445Y717489D01*
X710275Y717374D01*
X710269Y717369D01*
X710265Y717372D01*
X709140Y717030D01*
X709135Y717025D01*
X709131Y717027D01*
X708093Y716472D01*
X708090Y716466D01*
X708085Y716467D01*
X707176Y715721D01*
X707174Y715714D01*
X707169Y715714D01*
X706423Y714805D01*
X706423Y714797D01*
X706418Y714797D01*
X705863Y713759D01*
X705864Y713752D01*
X705860Y713750D01*
X705717Y713282D01*
X705703Y713233D01*
X705523Y712642D01*
X705518Y712625D01*
X705521Y712618D01*
X705516Y712615D01*
X705401Y711445D01*
X705403Y711442D01*
X705401Y711440D01*
X705401Y701440D01*
X705403Y701437D01*
X705401Y701435D01*
X705516Y700265D01*
X705521Y700259D01*
X705518Y700255D01*
X705860Y699130D01*
X705865Y699125D01*
X705863Y699121D01*
X706418Y698083D01*
X706424Y698080D01*
X706423Y698075D01*
X707169Y697166D01*
X707176Y697164D01*
X707176Y697159D01*
X708085Y696413D01*
X708093Y696413D01*
X708093Y696408D01*
X709131Y695853D01*
X709138Y695854D01*
X709140Y695850D01*
X710265Y695508D01*
X710272Y695511D01*
X710275Y695506D01*
X711445Y695391D01*
X711451Y695395D01*
X711455Y695391D01*
X712625Y695506D01*
G37*
G36*
X52225Y695506D02*
X52225Y695506D01*
X52231Y695511D01*
X52235Y695508D01*
X53360Y695850D01*
X53365Y695855D01*
X53369Y695853D01*
X54407Y696408D01*
X54410Y696414D01*
X54415Y696413D01*
X55324Y697159D01*
X55326Y697166D01*
X55331Y697166D01*
X56077Y698075D01*
X56077Y698083D01*
X56082Y698083D01*
X56637Y699121D01*
X56636Y699128D01*
X56640Y699130D01*
X56757Y699514D01*
X56951Y700155D01*
X56982Y700255D01*
X56979Y700262D01*
X56984Y700265D01*
X57099Y701435D01*
X57097Y701438D01*
X57099Y701440D01*
X57099Y711440D01*
X57097Y711443D01*
X57099Y711445D01*
X56984Y712615D01*
X56979Y712621D01*
X56982Y712625D01*
X56640Y713750D01*
X56635Y713755D01*
X56637Y713759D01*
X56082Y714797D01*
X56076Y714800D01*
X56077Y714805D01*
X55331Y715714D01*
X55324Y715716D01*
X55324Y715721D01*
X54415Y716467D01*
X54407Y716467D01*
X54407Y716472D01*
X53369Y717027D01*
X53362Y717026D01*
X53360Y717030D01*
X52235Y717372D01*
X52228Y717369D01*
X52225Y717374D01*
X51055Y717489D01*
X51049Y717485D01*
X51045Y717489D01*
X49875Y717374D01*
X49869Y717369D01*
X49865Y717372D01*
X48740Y717030D01*
X48735Y717025D01*
X48731Y717027D01*
X47693Y716472D01*
X47690Y716466D01*
X47685Y716467D01*
X46776Y715721D01*
X46774Y715714D01*
X46769Y715714D01*
X46023Y714805D01*
X46023Y714797D01*
X46018Y714797D01*
X45463Y713759D01*
X45464Y713752D01*
X45460Y713750D01*
X45317Y713282D01*
X45303Y713233D01*
X45123Y712642D01*
X45118Y712625D01*
X45121Y712618D01*
X45116Y712615D01*
X45001Y711445D01*
X45003Y711442D01*
X45001Y711440D01*
X45001Y701440D01*
X45003Y701437D01*
X45001Y701435D01*
X45116Y700265D01*
X45121Y700259D01*
X45118Y700255D01*
X45460Y699130D01*
X45465Y699125D01*
X45463Y699121D01*
X46018Y698083D01*
X46024Y698080D01*
X46023Y698075D01*
X46769Y697166D01*
X46776Y697164D01*
X46776Y697159D01*
X47685Y696413D01*
X47693Y696413D01*
X47693Y696408D01*
X48731Y695853D01*
X48738Y695854D01*
X48740Y695850D01*
X49865Y695508D01*
X49872Y695511D01*
X49875Y695506D01*
X51045Y695391D01*
X51051Y695395D01*
X51055Y695391D01*
X52225Y695506D01*
G37*
G36*
X382425Y695506D02*
X382425Y695506D01*
X382431Y695511D01*
X382435Y695508D01*
X383560Y695850D01*
X383565Y695855D01*
X383569Y695853D01*
X384607Y696408D01*
X384610Y696414D01*
X384615Y696413D01*
X385524Y697159D01*
X385526Y697166D01*
X385531Y697166D01*
X386277Y698075D01*
X386277Y698083D01*
X386282Y698083D01*
X386837Y699121D01*
X386836Y699128D01*
X386840Y699130D01*
X386957Y699514D01*
X387151Y700155D01*
X387182Y700255D01*
X387179Y700262D01*
X387184Y700265D01*
X387299Y701435D01*
X387297Y701438D01*
X387299Y701440D01*
X387299Y711440D01*
X387297Y711443D01*
X387299Y711445D01*
X387184Y712615D01*
X387179Y712621D01*
X387182Y712625D01*
X386840Y713750D01*
X386835Y713755D01*
X386837Y713759D01*
X386282Y714797D01*
X386276Y714800D01*
X386277Y714805D01*
X385531Y715714D01*
X385524Y715716D01*
X385524Y715721D01*
X384615Y716467D01*
X384607Y716467D01*
X384607Y716472D01*
X383569Y717027D01*
X383562Y717026D01*
X383560Y717030D01*
X382435Y717372D01*
X382428Y717369D01*
X382425Y717374D01*
X381255Y717489D01*
X381249Y717485D01*
X381245Y717489D01*
X380075Y717374D01*
X380069Y717369D01*
X380065Y717372D01*
X378940Y717030D01*
X378935Y717025D01*
X378931Y717027D01*
X377893Y716472D01*
X377890Y716466D01*
X377885Y716467D01*
X376976Y715721D01*
X376974Y715714D01*
X376969Y715714D01*
X376223Y714805D01*
X376223Y714797D01*
X376218Y714797D01*
X375663Y713759D01*
X375664Y713752D01*
X375660Y713750D01*
X375517Y713282D01*
X375503Y713233D01*
X375323Y712642D01*
X375318Y712625D01*
X375321Y712618D01*
X375316Y712615D01*
X375201Y711445D01*
X375203Y711442D01*
X375201Y711440D01*
X375201Y701440D01*
X375203Y701437D01*
X375201Y701435D01*
X375316Y700265D01*
X375321Y700259D01*
X375318Y700255D01*
X375660Y699130D01*
X375665Y699125D01*
X375663Y699121D01*
X376218Y698083D01*
X376224Y698080D01*
X376223Y698075D01*
X376969Y697166D01*
X376976Y697164D01*
X376976Y697159D01*
X377885Y696413D01*
X377893Y696413D01*
X377893Y696408D01*
X378931Y695853D01*
X378938Y695854D01*
X378940Y695850D01*
X380065Y695508D01*
X380072Y695511D01*
X380075Y695506D01*
X381245Y695391D01*
X381251Y695395D01*
X381255Y695391D01*
X382425Y695506D01*
G37*
G36*
X217325Y695506D02*
X217325Y695506D01*
X217331Y695511D01*
X217335Y695508D01*
X218460Y695850D01*
X218465Y695855D01*
X218469Y695853D01*
X219507Y696408D01*
X219510Y696414D01*
X219515Y696413D01*
X220424Y697159D01*
X220426Y697166D01*
X220431Y697166D01*
X221177Y698075D01*
X221177Y698083D01*
X221182Y698083D01*
X221737Y699121D01*
X221736Y699128D01*
X221740Y699130D01*
X221857Y699514D01*
X222051Y700155D01*
X222082Y700255D01*
X222079Y700262D01*
X222084Y700265D01*
X222199Y701435D01*
X222197Y701438D01*
X222199Y701440D01*
X222199Y711440D01*
X222197Y711443D01*
X222199Y711445D01*
X222084Y712615D01*
X222079Y712621D01*
X222082Y712625D01*
X221740Y713750D01*
X221735Y713755D01*
X221737Y713759D01*
X221182Y714797D01*
X221176Y714800D01*
X221177Y714805D01*
X220431Y715714D01*
X220424Y715716D01*
X220424Y715721D01*
X219515Y716467D01*
X219507Y716467D01*
X219507Y716472D01*
X218469Y717027D01*
X218462Y717026D01*
X218460Y717030D01*
X217335Y717372D01*
X217328Y717369D01*
X217325Y717374D01*
X216155Y717489D01*
X216149Y717485D01*
X216145Y717489D01*
X214975Y717374D01*
X214969Y717369D01*
X214965Y717372D01*
X213840Y717030D01*
X213835Y717025D01*
X213831Y717027D01*
X212793Y716472D01*
X212790Y716466D01*
X212785Y716467D01*
X211876Y715721D01*
X211874Y715714D01*
X211869Y715714D01*
X211123Y714805D01*
X211123Y714797D01*
X211118Y714797D01*
X210563Y713759D01*
X210564Y713752D01*
X210560Y713750D01*
X210417Y713282D01*
X210403Y713233D01*
X210223Y712642D01*
X210218Y712625D01*
X210221Y712618D01*
X210216Y712615D01*
X210101Y711445D01*
X210103Y711442D01*
X210101Y711440D01*
X210101Y701440D01*
X210103Y701437D01*
X210101Y701435D01*
X210216Y700265D01*
X210221Y700259D01*
X210218Y700255D01*
X210560Y699130D01*
X210565Y699125D01*
X210563Y699121D01*
X211118Y698083D01*
X211124Y698080D01*
X211123Y698075D01*
X211869Y697166D01*
X211876Y697164D01*
X211876Y697159D01*
X212785Y696413D01*
X212793Y696413D01*
X212793Y696408D01*
X213831Y695853D01*
X213838Y695854D01*
X213840Y695850D01*
X214965Y695508D01*
X214972Y695511D01*
X214975Y695506D01*
X216145Y695391D01*
X216151Y695395D01*
X216155Y695391D01*
X217325Y695506D01*
G37*
G36*
X52225Y527226D02*
X52225Y527226D01*
X52231Y527231D01*
X52235Y527228D01*
X53360Y527570D01*
X53365Y527575D01*
X53369Y527573D01*
X54407Y528128D01*
X54410Y528134D01*
X54415Y528133D01*
X55324Y528879D01*
X55326Y528886D01*
X55331Y528886D01*
X56077Y529795D01*
X56077Y529803D01*
X56082Y529803D01*
X56637Y530841D01*
X56636Y530848D01*
X56640Y530850D01*
X56757Y531234D01*
X56951Y531875D01*
X56982Y531975D01*
X56979Y531982D01*
X56984Y531985D01*
X57099Y533155D01*
X57097Y533158D01*
X57099Y533160D01*
X57099Y543160D01*
X57097Y543163D01*
X57099Y543165D01*
X56984Y544335D01*
X56979Y544341D01*
X56982Y544345D01*
X56640Y545470D01*
X56635Y545475D01*
X56637Y545479D01*
X56082Y546517D01*
X56076Y546520D01*
X56077Y546525D01*
X55331Y547434D01*
X55324Y547436D01*
X55324Y547441D01*
X54415Y548187D01*
X54407Y548187D01*
X54407Y548192D01*
X53369Y548747D01*
X53362Y548746D01*
X53360Y548750D01*
X52235Y549092D01*
X52228Y549089D01*
X52225Y549094D01*
X51055Y549209D01*
X51049Y549205D01*
X51045Y549209D01*
X49875Y549094D01*
X49869Y549089D01*
X49865Y549092D01*
X48740Y548750D01*
X48735Y548745D01*
X48731Y548747D01*
X47693Y548192D01*
X47690Y548186D01*
X47685Y548187D01*
X46776Y547441D01*
X46774Y547434D01*
X46769Y547434D01*
X46023Y546525D01*
X46023Y546517D01*
X46018Y546517D01*
X45463Y545479D01*
X45464Y545472D01*
X45460Y545470D01*
X45317Y545002D01*
X45303Y544953D01*
X45123Y544362D01*
X45118Y544345D01*
X45121Y544338D01*
X45116Y544335D01*
X45001Y543165D01*
X45003Y543162D01*
X45001Y543160D01*
X45001Y533160D01*
X45003Y533157D01*
X45001Y533155D01*
X45116Y531985D01*
X45121Y531979D01*
X45118Y531975D01*
X45460Y530850D01*
X45465Y530845D01*
X45463Y530841D01*
X46018Y529803D01*
X46024Y529800D01*
X46023Y529795D01*
X46769Y528886D01*
X46776Y528884D01*
X46776Y528879D01*
X47685Y528133D01*
X47693Y528133D01*
X47693Y528128D01*
X48731Y527573D01*
X48738Y527574D01*
X48740Y527570D01*
X49865Y527228D01*
X49872Y527231D01*
X49875Y527226D01*
X51045Y527111D01*
X51051Y527115D01*
X51055Y527111D01*
X52225Y527226D01*
G37*
G36*
X343825Y527226D02*
X343825Y527226D01*
X343831Y527231D01*
X343835Y527228D01*
X344960Y527570D01*
X344965Y527575D01*
X344969Y527573D01*
X346007Y528128D01*
X346010Y528134D01*
X346015Y528133D01*
X346924Y528879D01*
X346926Y528886D01*
X346931Y528886D01*
X347677Y529795D01*
X347677Y529803D01*
X347682Y529803D01*
X348237Y530841D01*
X348236Y530848D01*
X348240Y530850D01*
X348357Y531234D01*
X348551Y531875D01*
X348582Y531975D01*
X348579Y531982D01*
X348584Y531985D01*
X348699Y533155D01*
X348697Y533158D01*
X348699Y533160D01*
X348699Y543160D01*
X348697Y543163D01*
X348699Y543165D01*
X348584Y544335D01*
X348579Y544341D01*
X348582Y544345D01*
X348240Y545470D01*
X348235Y545475D01*
X348237Y545479D01*
X347682Y546517D01*
X347676Y546520D01*
X347677Y546525D01*
X346931Y547434D01*
X346924Y547436D01*
X346924Y547441D01*
X346015Y548187D01*
X346007Y548187D01*
X346007Y548192D01*
X344969Y548747D01*
X344962Y548746D01*
X344960Y548750D01*
X343835Y549092D01*
X343828Y549089D01*
X343825Y549094D01*
X342655Y549209D01*
X342649Y549205D01*
X342645Y549209D01*
X341475Y549094D01*
X341469Y549089D01*
X341465Y549092D01*
X340340Y548750D01*
X340335Y548745D01*
X340331Y548747D01*
X339293Y548192D01*
X339290Y548186D01*
X339285Y548187D01*
X338376Y547441D01*
X338374Y547434D01*
X338369Y547434D01*
X337623Y546525D01*
X337623Y546517D01*
X337618Y546517D01*
X337063Y545479D01*
X337064Y545472D01*
X337060Y545470D01*
X336917Y545002D01*
X336903Y544953D01*
X336723Y544362D01*
X336718Y544345D01*
X336721Y544338D01*
X336716Y544335D01*
X336601Y543165D01*
X336603Y543162D01*
X336601Y543160D01*
X336601Y533160D01*
X336603Y533157D01*
X336601Y533155D01*
X336716Y531985D01*
X336721Y531979D01*
X336718Y531975D01*
X337060Y530850D01*
X337065Y530845D01*
X337063Y530841D01*
X337618Y529803D01*
X337624Y529800D01*
X337623Y529795D01*
X338369Y528886D01*
X338376Y528884D01*
X338376Y528879D01*
X339285Y528133D01*
X339293Y528133D01*
X339293Y528128D01*
X340331Y527573D01*
X340338Y527574D01*
X340340Y527570D01*
X341465Y527228D01*
X341472Y527231D01*
X341475Y527226D01*
X342645Y527111D01*
X342651Y527115D01*
X342655Y527111D01*
X343825Y527226D01*
G37*
G36*
X382425Y527226D02*
X382425Y527226D01*
X382431Y527231D01*
X382435Y527228D01*
X383560Y527570D01*
X383565Y527575D01*
X383569Y527573D01*
X384607Y528128D01*
X384610Y528134D01*
X384615Y528133D01*
X385524Y528879D01*
X385526Y528886D01*
X385531Y528886D01*
X386277Y529795D01*
X386277Y529803D01*
X386282Y529803D01*
X386837Y530841D01*
X386836Y530848D01*
X386840Y530850D01*
X386957Y531234D01*
X387151Y531875D01*
X387182Y531975D01*
X387179Y531982D01*
X387184Y531985D01*
X387299Y533155D01*
X387297Y533158D01*
X387299Y533160D01*
X387299Y543160D01*
X387297Y543163D01*
X387299Y543165D01*
X387184Y544335D01*
X387179Y544341D01*
X387182Y544345D01*
X386840Y545470D01*
X386835Y545475D01*
X386837Y545479D01*
X386282Y546517D01*
X386276Y546520D01*
X386277Y546525D01*
X385531Y547434D01*
X385524Y547436D01*
X385524Y547441D01*
X384615Y548187D01*
X384607Y548187D01*
X384607Y548192D01*
X383569Y548747D01*
X383562Y548746D01*
X383560Y548750D01*
X382435Y549092D01*
X382428Y549089D01*
X382425Y549094D01*
X381255Y549209D01*
X381249Y549205D01*
X381245Y549209D01*
X380075Y549094D01*
X380069Y549089D01*
X380065Y549092D01*
X378940Y548750D01*
X378935Y548745D01*
X378931Y548747D01*
X377893Y548192D01*
X377890Y548186D01*
X377885Y548187D01*
X376976Y547441D01*
X376974Y547434D01*
X376969Y547434D01*
X376223Y546525D01*
X376223Y546517D01*
X376218Y546517D01*
X375663Y545479D01*
X375664Y545472D01*
X375660Y545470D01*
X375517Y545002D01*
X375503Y544953D01*
X375323Y544362D01*
X375318Y544345D01*
X375321Y544338D01*
X375316Y544335D01*
X375201Y543165D01*
X375203Y543162D01*
X375201Y543160D01*
X375201Y533160D01*
X375203Y533157D01*
X375201Y533155D01*
X375316Y531985D01*
X375321Y531979D01*
X375318Y531975D01*
X375660Y530850D01*
X375665Y530845D01*
X375663Y530841D01*
X376218Y529803D01*
X376224Y529800D01*
X376223Y529795D01*
X376969Y528886D01*
X376976Y528884D01*
X376976Y528879D01*
X377885Y528133D01*
X377893Y528133D01*
X377893Y528128D01*
X378931Y527573D01*
X378938Y527574D01*
X378940Y527570D01*
X380065Y527228D01*
X380072Y527231D01*
X380075Y527226D01*
X381245Y527111D01*
X381251Y527115D01*
X381255Y527111D01*
X382425Y527226D01*
G37*
G36*
X508925Y527226D02*
X508925Y527226D01*
X508931Y527231D01*
X508935Y527228D01*
X510060Y527570D01*
X510065Y527575D01*
X510069Y527573D01*
X511107Y528128D01*
X511110Y528134D01*
X511115Y528133D01*
X512024Y528879D01*
X512026Y528886D01*
X512031Y528886D01*
X512777Y529795D01*
X512777Y529803D01*
X512782Y529803D01*
X513337Y530841D01*
X513336Y530848D01*
X513340Y530850D01*
X513457Y531234D01*
X513651Y531875D01*
X513682Y531975D01*
X513679Y531982D01*
X513684Y531985D01*
X513799Y533155D01*
X513797Y533158D01*
X513799Y533160D01*
X513799Y543160D01*
X513797Y543163D01*
X513799Y543165D01*
X513684Y544335D01*
X513679Y544341D01*
X513682Y544345D01*
X513340Y545470D01*
X513335Y545475D01*
X513337Y545479D01*
X512782Y546517D01*
X512776Y546520D01*
X512777Y546525D01*
X512031Y547434D01*
X512024Y547436D01*
X512024Y547441D01*
X511115Y548187D01*
X511107Y548187D01*
X511107Y548192D01*
X510069Y548747D01*
X510062Y548746D01*
X510060Y548750D01*
X508935Y549092D01*
X508928Y549089D01*
X508925Y549094D01*
X507755Y549209D01*
X507749Y549205D01*
X507745Y549209D01*
X506575Y549094D01*
X506569Y549089D01*
X506565Y549092D01*
X505440Y548750D01*
X505435Y548745D01*
X505431Y548747D01*
X504393Y548192D01*
X504390Y548186D01*
X504385Y548187D01*
X503476Y547441D01*
X503474Y547434D01*
X503469Y547434D01*
X502723Y546525D01*
X502723Y546517D01*
X502718Y546517D01*
X502163Y545479D01*
X502164Y545472D01*
X502160Y545470D01*
X502017Y545002D01*
X502003Y544953D01*
X501823Y544362D01*
X501818Y544345D01*
X501821Y544338D01*
X501816Y544335D01*
X501701Y543165D01*
X501703Y543162D01*
X501701Y543160D01*
X501701Y533160D01*
X501703Y533157D01*
X501701Y533155D01*
X501816Y531985D01*
X501821Y531979D01*
X501818Y531975D01*
X502160Y530850D01*
X502165Y530845D01*
X502163Y530841D01*
X502718Y529803D01*
X502724Y529800D01*
X502723Y529795D01*
X503469Y528886D01*
X503476Y528884D01*
X503476Y528879D01*
X504385Y528133D01*
X504393Y528133D01*
X504393Y528128D01*
X505431Y527573D01*
X505438Y527574D01*
X505440Y527570D01*
X506565Y527228D01*
X506572Y527231D01*
X506575Y527226D01*
X507745Y527111D01*
X507751Y527115D01*
X507755Y527111D01*
X508925Y527226D01*
G37*
G36*
X712625Y527226D02*
X712625Y527226D01*
X712631Y527231D01*
X712635Y527228D01*
X713760Y527570D01*
X713765Y527575D01*
X713769Y527573D01*
X714807Y528128D01*
X714810Y528134D01*
X714815Y528133D01*
X715724Y528879D01*
X715726Y528886D01*
X715731Y528886D01*
X716477Y529795D01*
X716477Y529803D01*
X716482Y529803D01*
X717037Y530841D01*
X717036Y530848D01*
X717040Y530850D01*
X717157Y531234D01*
X717351Y531875D01*
X717382Y531975D01*
X717379Y531982D01*
X717384Y531985D01*
X717499Y533155D01*
X717497Y533158D01*
X717499Y533160D01*
X717499Y543160D01*
X717497Y543163D01*
X717499Y543165D01*
X717384Y544335D01*
X717379Y544341D01*
X717382Y544345D01*
X717040Y545470D01*
X717035Y545475D01*
X717037Y545479D01*
X716482Y546517D01*
X716476Y546520D01*
X716477Y546525D01*
X715731Y547434D01*
X715724Y547436D01*
X715724Y547441D01*
X714815Y548187D01*
X714807Y548187D01*
X714807Y548192D01*
X713769Y548747D01*
X713762Y548746D01*
X713760Y548750D01*
X712635Y549092D01*
X712628Y549089D01*
X712625Y549094D01*
X711455Y549209D01*
X711449Y549205D01*
X711445Y549209D01*
X710275Y549094D01*
X710269Y549089D01*
X710265Y549092D01*
X709140Y548750D01*
X709135Y548745D01*
X709131Y548747D01*
X708093Y548192D01*
X708090Y548186D01*
X708085Y548187D01*
X707176Y547441D01*
X707174Y547434D01*
X707169Y547434D01*
X706423Y546525D01*
X706423Y546517D01*
X706418Y546517D01*
X705863Y545479D01*
X705864Y545472D01*
X705860Y545470D01*
X705717Y545002D01*
X705703Y544953D01*
X705523Y544362D01*
X705518Y544345D01*
X705521Y544338D01*
X705516Y544335D01*
X705401Y543165D01*
X705403Y543162D01*
X705401Y543160D01*
X705401Y533160D01*
X705403Y533157D01*
X705401Y533155D01*
X705516Y531985D01*
X705521Y531979D01*
X705518Y531975D01*
X705860Y530850D01*
X705865Y530845D01*
X705863Y530841D01*
X706418Y529803D01*
X706424Y529800D01*
X706423Y529795D01*
X707169Y528886D01*
X707176Y528884D01*
X707176Y528879D01*
X708085Y528133D01*
X708093Y528133D01*
X708093Y528128D01*
X709131Y527573D01*
X709138Y527574D01*
X709140Y527570D01*
X710265Y527228D01*
X710272Y527231D01*
X710275Y527226D01*
X711445Y527111D01*
X711451Y527115D01*
X711455Y527111D01*
X712625Y527226D01*
G37*
G36*
X13625Y527226D02*
X13625Y527226D01*
X13631Y527231D01*
X13635Y527228D01*
X14760Y527570D01*
X14765Y527575D01*
X14769Y527573D01*
X15807Y528128D01*
X15810Y528134D01*
X15815Y528133D01*
X16724Y528879D01*
X16726Y528886D01*
X16731Y528886D01*
X17477Y529795D01*
X17477Y529803D01*
X17482Y529803D01*
X18037Y530841D01*
X18036Y530848D01*
X18040Y530850D01*
X18157Y531234D01*
X18351Y531875D01*
X18382Y531975D01*
X18379Y531982D01*
X18384Y531985D01*
X18499Y533155D01*
X18497Y533158D01*
X18499Y533160D01*
X18499Y543160D01*
X18497Y543163D01*
X18499Y543165D01*
X18384Y544335D01*
X18379Y544341D01*
X18382Y544345D01*
X18040Y545470D01*
X18035Y545475D01*
X18037Y545479D01*
X17482Y546517D01*
X17476Y546520D01*
X17477Y546525D01*
X16731Y547434D01*
X16724Y547436D01*
X16724Y547441D01*
X15815Y548187D01*
X15807Y548187D01*
X15807Y548192D01*
X14769Y548747D01*
X14762Y548746D01*
X14760Y548750D01*
X13635Y549092D01*
X13628Y549089D01*
X13625Y549094D01*
X12455Y549209D01*
X12449Y549205D01*
X12445Y549209D01*
X11275Y549094D01*
X11269Y549089D01*
X11265Y549092D01*
X10140Y548750D01*
X10135Y548745D01*
X10131Y548747D01*
X9093Y548192D01*
X9090Y548186D01*
X9085Y548187D01*
X8176Y547441D01*
X8174Y547434D01*
X8169Y547434D01*
X7423Y546525D01*
X7423Y546517D01*
X7418Y546517D01*
X6863Y545479D01*
X6864Y545472D01*
X6860Y545470D01*
X6717Y545002D01*
X6703Y544953D01*
X6523Y544362D01*
X6518Y544345D01*
X6521Y544338D01*
X6516Y544335D01*
X6401Y543165D01*
X6403Y543162D01*
X6401Y543160D01*
X6401Y533160D01*
X6403Y533157D01*
X6401Y533155D01*
X6516Y531985D01*
X6521Y531979D01*
X6518Y531975D01*
X6860Y530850D01*
X6865Y530845D01*
X6863Y530841D01*
X7418Y529803D01*
X7424Y529800D01*
X7423Y529795D01*
X8169Y528886D01*
X8176Y528884D01*
X8176Y528879D01*
X9085Y528133D01*
X9093Y528133D01*
X9093Y528128D01*
X10131Y527573D01*
X10138Y527574D01*
X10140Y527570D01*
X11265Y527228D01*
X11272Y527231D01*
X11275Y527226D01*
X12445Y527111D01*
X12451Y527115D01*
X12455Y527111D01*
X13625Y527226D01*
G37*
G36*
X217325Y527226D02*
X217325Y527226D01*
X217331Y527231D01*
X217335Y527228D01*
X218460Y527570D01*
X218465Y527575D01*
X218469Y527573D01*
X219507Y528128D01*
X219510Y528134D01*
X219515Y528133D01*
X220424Y528879D01*
X220426Y528886D01*
X220431Y528886D01*
X221177Y529795D01*
X221177Y529803D01*
X221182Y529803D01*
X221737Y530841D01*
X221736Y530848D01*
X221740Y530850D01*
X221857Y531234D01*
X222051Y531875D01*
X222082Y531975D01*
X222079Y531982D01*
X222084Y531985D01*
X222199Y533155D01*
X222197Y533158D01*
X222199Y533160D01*
X222199Y543160D01*
X222197Y543163D01*
X222199Y543165D01*
X222084Y544335D01*
X222079Y544341D01*
X222082Y544345D01*
X221740Y545470D01*
X221735Y545475D01*
X221737Y545479D01*
X221182Y546517D01*
X221176Y546520D01*
X221177Y546525D01*
X220431Y547434D01*
X220424Y547436D01*
X220424Y547441D01*
X219515Y548187D01*
X219507Y548187D01*
X219507Y548192D01*
X218469Y548747D01*
X218462Y548746D01*
X218460Y548750D01*
X217335Y549092D01*
X217328Y549089D01*
X217325Y549094D01*
X216155Y549209D01*
X216149Y549205D01*
X216145Y549209D01*
X214975Y549094D01*
X214969Y549089D01*
X214965Y549092D01*
X213840Y548750D01*
X213835Y548745D01*
X213831Y548747D01*
X212793Y548192D01*
X212790Y548186D01*
X212785Y548187D01*
X211876Y547441D01*
X211874Y547434D01*
X211869Y547434D01*
X211123Y546525D01*
X211123Y546517D01*
X211118Y546517D01*
X210563Y545479D01*
X210564Y545472D01*
X210560Y545470D01*
X210417Y545002D01*
X210403Y544953D01*
X210223Y544362D01*
X210218Y544345D01*
X210221Y544338D01*
X210216Y544335D01*
X210101Y543165D01*
X210103Y543162D01*
X210101Y543160D01*
X210101Y533160D01*
X210103Y533157D01*
X210101Y533155D01*
X210216Y531985D01*
X210221Y531979D01*
X210218Y531975D01*
X210560Y530850D01*
X210565Y530845D01*
X210563Y530841D01*
X211118Y529803D01*
X211124Y529800D01*
X211123Y529795D01*
X211869Y528886D01*
X211876Y528884D01*
X211876Y528879D01*
X212785Y528133D01*
X212793Y528133D01*
X212793Y528128D01*
X213831Y527573D01*
X213838Y527574D01*
X213840Y527570D01*
X214965Y527228D01*
X214972Y527231D01*
X214975Y527226D01*
X216145Y527111D01*
X216151Y527115D01*
X216155Y527111D01*
X217325Y527226D01*
G37*
G36*
X674025Y527226D02*
X674025Y527226D01*
X674031Y527231D01*
X674035Y527228D01*
X675160Y527570D01*
X675165Y527575D01*
X675169Y527573D01*
X676207Y528128D01*
X676210Y528134D01*
X676215Y528133D01*
X677124Y528879D01*
X677126Y528886D01*
X677131Y528886D01*
X677877Y529795D01*
X677877Y529803D01*
X677882Y529803D01*
X678437Y530841D01*
X678436Y530848D01*
X678440Y530850D01*
X678557Y531234D01*
X678751Y531875D01*
X678782Y531975D01*
X678779Y531982D01*
X678784Y531985D01*
X678899Y533155D01*
X678897Y533158D01*
X678899Y533160D01*
X678899Y543160D01*
X678897Y543163D01*
X678899Y543165D01*
X678784Y544335D01*
X678779Y544341D01*
X678782Y544345D01*
X678440Y545470D01*
X678435Y545475D01*
X678437Y545479D01*
X677882Y546517D01*
X677876Y546520D01*
X677877Y546525D01*
X677131Y547434D01*
X677124Y547436D01*
X677124Y547441D01*
X676215Y548187D01*
X676207Y548187D01*
X676207Y548192D01*
X675169Y548747D01*
X675162Y548746D01*
X675160Y548750D01*
X674035Y549092D01*
X674028Y549089D01*
X674025Y549094D01*
X672855Y549209D01*
X672849Y549205D01*
X672845Y549209D01*
X671675Y549094D01*
X671669Y549089D01*
X671665Y549092D01*
X670540Y548750D01*
X670535Y548745D01*
X670531Y548747D01*
X669493Y548192D01*
X669490Y548186D01*
X669485Y548187D01*
X668576Y547441D01*
X668574Y547434D01*
X668569Y547434D01*
X667823Y546525D01*
X667823Y546517D01*
X667818Y546517D01*
X667263Y545479D01*
X667264Y545472D01*
X667260Y545470D01*
X667117Y545002D01*
X667103Y544953D01*
X666923Y544362D01*
X666918Y544345D01*
X666921Y544338D01*
X666916Y544335D01*
X666801Y543165D01*
X666803Y543162D01*
X666801Y543160D01*
X666801Y533160D01*
X666803Y533157D01*
X666801Y533155D01*
X666916Y531985D01*
X666921Y531979D01*
X666918Y531975D01*
X667260Y530850D01*
X667265Y530845D01*
X667263Y530841D01*
X667818Y529803D01*
X667824Y529800D01*
X667823Y529795D01*
X668569Y528886D01*
X668576Y528884D01*
X668576Y528879D01*
X669485Y528133D01*
X669493Y528133D01*
X669493Y528128D01*
X670531Y527573D01*
X670538Y527574D01*
X670540Y527570D01*
X671665Y527228D01*
X671672Y527231D01*
X671675Y527226D01*
X672845Y527111D01*
X672851Y527115D01*
X672855Y527111D01*
X674025Y527226D01*
G37*
G36*
X178725Y527226D02*
X178725Y527226D01*
X178731Y527231D01*
X178735Y527228D01*
X179860Y527570D01*
X179865Y527575D01*
X179869Y527573D01*
X180907Y528128D01*
X180910Y528134D01*
X180915Y528133D01*
X181824Y528879D01*
X181826Y528886D01*
X181831Y528886D01*
X182577Y529795D01*
X182577Y529803D01*
X182582Y529803D01*
X183137Y530841D01*
X183136Y530848D01*
X183140Y530850D01*
X183257Y531234D01*
X183451Y531875D01*
X183482Y531975D01*
X183479Y531982D01*
X183484Y531985D01*
X183599Y533155D01*
X183597Y533158D01*
X183599Y533160D01*
X183599Y543160D01*
X183597Y543163D01*
X183599Y543165D01*
X183484Y544335D01*
X183479Y544341D01*
X183482Y544345D01*
X183140Y545470D01*
X183135Y545475D01*
X183137Y545479D01*
X182582Y546517D01*
X182576Y546520D01*
X182577Y546525D01*
X181831Y547434D01*
X181824Y547436D01*
X181824Y547441D01*
X180915Y548187D01*
X180907Y548187D01*
X180907Y548192D01*
X179869Y548747D01*
X179862Y548746D01*
X179860Y548750D01*
X178735Y549092D01*
X178728Y549089D01*
X178725Y549094D01*
X177555Y549209D01*
X177549Y549205D01*
X177545Y549209D01*
X176375Y549094D01*
X176369Y549089D01*
X176365Y549092D01*
X175240Y548750D01*
X175235Y548745D01*
X175231Y548747D01*
X174193Y548192D01*
X174190Y548186D01*
X174185Y548187D01*
X173276Y547441D01*
X173274Y547434D01*
X173269Y547434D01*
X172523Y546525D01*
X172523Y546517D01*
X172518Y546517D01*
X171963Y545479D01*
X171964Y545472D01*
X171960Y545470D01*
X171817Y545002D01*
X171803Y544953D01*
X171623Y544362D01*
X171618Y544345D01*
X171621Y544338D01*
X171616Y544335D01*
X171501Y543165D01*
X171503Y543162D01*
X171501Y543160D01*
X171501Y533160D01*
X171503Y533157D01*
X171501Y533155D01*
X171616Y531985D01*
X171621Y531979D01*
X171618Y531975D01*
X171960Y530850D01*
X171965Y530845D01*
X171963Y530841D01*
X172518Y529803D01*
X172524Y529800D01*
X172523Y529795D01*
X173269Y528886D01*
X173276Y528884D01*
X173276Y528879D01*
X174185Y528133D01*
X174193Y528133D01*
X174193Y528128D01*
X175231Y527573D01*
X175238Y527574D01*
X175240Y527570D01*
X176365Y527228D01*
X176372Y527231D01*
X176375Y527226D01*
X177545Y527111D01*
X177551Y527115D01*
X177555Y527111D01*
X178725Y527226D01*
G37*
G36*
X547525Y527226D02*
X547525Y527226D01*
X547531Y527231D01*
X547535Y527228D01*
X548660Y527570D01*
X548665Y527575D01*
X548669Y527573D01*
X549707Y528128D01*
X549710Y528134D01*
X549715Y528133D01*
X550624Y528879D01*
X550626Y528886D01*
X550631Y528886D01*
X551377Y529795D01*
X551377Y529803D01*
X551382Y529803D01*
X551937Y530841D01*
X551936Y530848D01*
X551940Y530850D01*
X552057Y531234D01*
X552251Y531875D01*
X552282Y531975D01*
X552279Y531982D01*
X552284Y531985D01*
X552399Y533155D01*
X552397Y533158D01*
X552399Y533160D01*
X552399Y543160D01*
X552397Y543163D01*
X552399Y543165D01*
X552284Y544335D01*
X552279Y544341D01*
X552282Y544345D01*
X551940Y545470D01*
X551935Y545475D01*
X551937Y545479D01*
X551382Y546517D01*
X551376Y546520D01*
X551377Y546525D01*
X550631Y547434D01*
X550624Y547436D01*
X550624Y547441D01*
X549715Y548187D01*
X549707Y548187D01*
X549707Y548192D01*
X548669Y548747D01*
X548662Y548746D01*
X548660Y548750D01*
X547535Y549092D01*
X547528Y549089D01*
X547525Y549094D01*
X546355Y549209D01*
X546349Y549205D01*
X546345Y549209D01*
X545175Y549094D01*
X545169Y549089D01*
X545165Y549092D01*
X544040Y548750D01*
X544035Y548745D01*
X544031Y548747D01*
X542993Y548192D01*
X542990Y548186D01*
X542985Y548187D01*
X542076Y547441D01*
X542074Y547434D01*
X542069Y547434D01*
X541323Y546525D01*
X541323Y546517D01*
X541318Y546517D01*
X540763Y545479D01*
X540764Y545472D01*
X540760Y545470D01*
X540617Y545002D01*
X540603Y544953D01*
X540423Y544362D01*
X540418Y544345D01*
X540421Y544338D01*
X540416Y544335D01*
X540301Y543165D01*
X540303Y543162D01*
X540301Y543160D01*
X540301Y533160D01*
X540303Y533157D01*
X540301Y533155D01*
X540416Y531985D01*
X540421Y531979D01*
X540418Y531975D01*
X540760Y530850D01*
X540765Y530845D01*
X540763Y530841D01*
X541318Y529803D01*
X541324Y529800D01*
X541323Y529795D01*
X542069Y528886D01*
X542076Y528884D01*
X542076Y528879D01*
X542985Y528133D01*
X542993Y528133D01*
X542993Y528128D01*
X544031Y527573D01*
X544038Y527574D01*
X544040Y527570D01*
X545165Y527228D01*
X545172Y527231D01*
X545175Y527226D01*
X546345Y527111D01*
X546351Y527115D01*
X546355Y527111D01*
X547525Y527226D01*
G37*
G36*
X217325Y487226D02*
X217325Y487226D01*
X217331Y487231D01*
X217335Y487228D01*
X218460Y487570D01*
X218465Y487575D01*
X218469Y487573D01*
X219507Y488128D01*
X219510Y488134D01*
X219515Y488133D01*
X220424Y488879D01*
X220426Y488886D01*
X220431Y488886D01*
X221177Y489795D01*
X221177Y489803D01*
X221182Y489803D01*
X221737Y490841D01*
X221736Y490848D01*
X221740Y490850D01*
X221857Y491234D01*
X222051Y491875D01*
X222082Y491975D01*
X222079Y491982D01*
X222084Y491985D01*
X222199Y493155D01*
X222197Y493158D01*
X222199Y493160D01*
X222199Y503160D01*
X222197Y503163D01*
X222199Y503165D01*
X222084Y504335D01*
X222079Y504341D01*
X222082Y504345D01*
X221740Y505470D01*
X221735Y505475D01*
X221737Y505479D01*
X221182Y506517D01*
X221176Y506520D01*
X221177Y506525D01*
X220431Y507434D01*
X220424Y507436D01*
X220424Y507441D01*
X219515Y508187D01*
X219507Y508187D01*
X219507Y508192D01*
X218469Y508747D01*
X218462Y508746D01*
X218460Y508750D01*
X217335Y509092D01*
X217328Y509089D01*
X217325Y509094D01*
X216155Y509209D01*
X216149Y509205D01*
X216145Y509209D01*
X214975Y509094D01*
X214969Y509089D01*
X214965Y509092D01*
X213840Y508750D01*
X213835Y508745D01*
X213831Y508747D01*
X212793Y508192D01*
X212790Y508186D01*
X212785Y508187D01*
X211876Y507441D01*
X211874Y507434D01*
X211869Y507434D01*
X211123Y506525D01*
X211123Y506517D01*
X211118Y506517D01*
X210563Y505479D01*
X210564Y505472D01*
X210560Y505470D01*
X210417Y505002D01*
X210403Y504953D01*
X210223Y504362D01*
X210218Y504345D01*
X210221Y504338D01*
X210216Y504335D01*
X210101Y503165D01*
X210103Y503162D01*
X210101Y503160D01*
X210101Y493160D01*
X210103Y493157D01*
X210101Y493155D01*
X210216Y491985D01*
X210221Y491979D01*
X210218Y491975D01*
X210560Y490850D01*
X210565Y490845D01*
X210563Y490841D01*
X211118Y489803D01*
X211124Y489800D01*
X211123Y489795D01*
X211869Y488886D01*
X211876Y488884D01*
X211876Y488879D01*
X212785Y488133D01*
X212793Y488133D01*
X212793Y488128D01*
X213831Y487573D01*
X213838Y487574D01*
X213840Y487570D01*
X214965Y487228D01*
X214972Y487231D01*
X214975Y487226D01*
X216145Y487111D01*
X216151Y487115D01*
X216155Y487111D01*
X217325Y487226D01*
G37*
G36*
X13625Y487226D02*
X13625Y487226D01*
X13631Y487231D01*
X13635Y487228D01*
X14760Y487570D01*
X14765Y487575D01*
X14769Y487573D01*
X15807Y488128D01*
X15810Y488134D01*
X15815Y488133D01*
X16724Y488879D01*
X16726Y488886D01*
X16731Y488886D01*
X17477Y489795D01*
X17477Y489803D01*
X17482Y489803D01*
X18037Y490841D01*
X18036Y490848D01*
X18040Y490850D01*
X18157Y491234D01*
X18351Y491875D01*
X18382Y491975D01*
X18379Y491982D01*
X18384Y491985D01*
X18499Y493155D01*
X18497Y493158D01*
X18499Y493160D01*
X18499Y503160D01*
X18497Y503163D01*
X18499Y503165D01*
X18384Y504335D01*
X18379Y504341D01*
X18382Y504345D01*
X18040Y505470D01*
X18035Y505475D01*
X18037Y505479D01*
X17482Y506517D01*
X17476Y506520D01*
X17477Y506525D01*
X16731Y507434D01*
X16724Y507436D01*
X16724Y507441D01*
X15815Y508187D01*
X15807Y508187D01*
X15807Y508192D01*
X14769Y508747D01*
X14762Y508746D01*
X14760Y508750D01*
X13635Y509092D01*
X13628Y509089D01*
X13625Y509094D01*
X12455Y509209D01*
X12449Y509205D01*
X12445Y509209D01*
X11275Y509094D01*
X11269Y509089D01*
X11265Y509092D01*
X10140Y508750D01*
X10135Y508745D01*
X10131Y508747D01*
X9093Y508192D01*
X9090Y508186D01*
X9085Y508187D01*
X8176Y507441D01*
X8174Y507434D01*
X8169Y507434D01*
X7423Y506525D01*
X7423Y506517D01*
X7418Y506517D01*
X6863Y505479D01*
X6864Y505472D01*
X6860Y505470D01*
X6717Y505002D01*
X6703Y504953D01*
X6523Y504362D01*
X6518Y504345D01*
X6521Y504338D01*
X6516Y504335D01*
X6401Y503165D01*
X6403Y503162D01*
X6401Y503160D01*
X6401Y493160D01*
X6403Y493157D01*
X6401Y493155D01*
X6516Y491985D01*
X6521Y491979D01*
X6518Y491975D01*
X6860Y490850D01*
X6865Y490845D01*
X6863Y490841D01*
X7418Y489803D01*
X7424Y489800D01*
X7423Y489795D01*
X8169Y488886D01*
X8176Y488884D01*
X8176Y488879D01*
X9085Y488133D01*
X9093Y488133D01*
X9093Y488128D01*
X10131Y487573D01*
X10138Y487574D01*
X10140Y487570D01*
X11265Y487228D01*
X11272Y487231D01*
X11275Y487226D01*
X12445Y487111D01*
X12451Y487115D01*
X12455Y487111D01*
X13625Y487226D01*
G37*
G36*
X382425Y487226D02*
X382425Y487226D01*
X382431Y487231D01*
X382435Y487228D01*
X383560Y487570D01*
X383565Y487575D01*
X383569Y487573D01*
X384607Y488128D01*
X384610Y488134D01*
X384615Y488133D01*
X385524Y488879D01*
X385526Y488886D01*
X385531Y488886D01*
X386277Y489795D01*
X386277Y489803D01*
X386282Y489803D01*
X386837Y490841D01*
X386836Y490848D01*
X386840Y490850D01*
X386957Y491234D01*
X387151Y491875D01*
X387182Y491975D01*
X387179Y491982D01*
X387184Y491985D01*
X387299Y493155D01*
X387297Y493158D01*
X387299Y493160D01*
X387299Y503160D01*
X387297Y503163D01*
X387299Y503165D01*
X387184Y504335D01*
X387179Y504341D01*
X387182Y504345D01*
X386840Y505470D01*
X386835Y505475D01*
X386837Y505479D01*
X386282Y506517D01*
X386276Y506520D01*
X386277Y506525D01*
X385531Y507434D01*
X385524Y507436D01*
X385524Y507441D01*
X384615Y508187D01*
X384607Y508187D01*
X384607Y508192D01*
X383569Y508747D01*
X383562Y508746D01*
X383560Y508750D01*
X382435Y509092D01*
X382428Y509089D01*
X382425Y509094D01*
X381255Y509209D01*
X381249Y509205D01*
X381245Y509209D01*
X380075Y509094D01*
X380069Y509089D01*
X380065Y509092D01*
X378940Y508750D01*
X378935Y508745D01*
X378931Y508747D01*
X377893Y508192D01*
X377890Y508186D01*
X377885Y508187D01*
X376976Y507441D01*
X376974Y507434D01*
X376969Y507434D01*
X376223Y506525D01*
X376223Y506517D01*
X376218Y506517D01*
X375663Y505479D01*
X375664Y505472D01*
X375660Y505470D01*
X375517Y505002D01*
X375503Y504953D01*
X375323Y504362D01*
X375318Y504345D01*
X375321Y504338D01*
X375316Y504335D01*
X375201Y503165D01*
X375203Y503162D01*
X375201Y503160D01*
X375201Y493160D01*
X375203Y493157D01*
X375201Y493155D01*
X375316Y491985D01*
X375321Y491979D01*
X375318Y491975D01*
X375660Y490850D01*
X375665Y490845D01*
X375663Y490841D01*
X376218Y489803D01*
X376224Y489800D01*
X376223Y489795D01*
X376969Y488886D01*
X376976Y488884D01*
X376976Y488879D01*
X377885Y488133D01*
X377893Y488133D01*
X377893Y488128D01*
X378931Y487573D01*
X378938Y487574D01*
X378940Y487570D01*
X380065Y487228D01*
X380072Y487231D01*
X380075Y487226D01*
X381245Y487111D01*
X381251Y487115D01*
X381255Y487111D01*
X382425Y487226D01*
G37*
G36*
X674025Y487226D02*
X674025Y487226D01*
X674031Y487231D01*
X674035Y487228D01*
X675160Y487570D01*
X675165Y487575D01*
X675169Y487573D01*
X676207Y488128D01*
X676210Y488134D01*
X676215Y488133D01*
X677124Y488879D01*
X677126Y488886D01*
X677131Y488886D01*
X677877Y489795D01*
X677877Y489803D01*
X677882Y489803D01*
X678437Y490841D01*
X678436Y490848D01*
X678440Y490850D01*
X678557Y491234D01*
X678751Y491875D01*
X678782Y491975D01*
X678779Y491982D01*
X678784Y491985D01*
X678899Y493155D01*
X678897Y493158D01*
X678899Y493160D01*
X678899Y503160D01*
X678897Y503163D01*
X678899Y503165D01*
X678784Y504335D01*
X678779Y504341D01*
X678782Y504345D01*
X678440Y505470D01*
X678435Y505475D01*
X678437Y505479D01*
X677882Y506517D01*
X677876Y506520D01*
X677877Y506525D01*
X677131Y507434D01*
X677124Y507436D01*
X677124Y507441D01*
X676215Y508187D01*
X676207Y508187D01*
X676207Y508192D01*
X675169Y508747D01*
X675162Y508746D01*
X675160Y508750D01*
X674035Y509092D01*
X674028Y509089D01*
X674025Y509094D01*
X672855Y509209D01*
X672849Y509205D01*
X672845Y509209D01*
X671675Y509094D01*
X671669Y509089D01*
X671665Y509092D01*
X670540Y508750D01*
X670535Y508745D01*
X670531Y508747D01*
X669493Y508192D01*
X669490Y508186D01*
X669485Y508187D01*
X668576Y507441D01*
X668574Y507434D01*
X668569Y507434D01*
X667823Y506525D01*
X667823Y506517D01*
X667818Y506517D01*
X667263Y505479D01*
X667264Y505472D01*
X667260Y505470D01*
X667117Y505002D01*
X667103Y504953D01*
X666923Y504362D01*
X666918Y504345D01*
X666921Y504338D01*
X666916Y504335D01*
X666801Y503165D01*
X666803Y503162D01*
X666801Y503160D01*
X666801Y493160D01*
X666803Y493157D01*
X666801Y493155D01*
X666916Y491985D01*
X666921Y491979D01*
X666918Y491975D01*
X667260Y490850D01*
X667265Y490845D01*
X667263Y490841D01*
X667818Y489803D01*
X667824Y489800D01*
X667823Y489795D01*
X668569Y488886D01*
X668576Y488884D01*
X668576Y488879D01*
X669485Y488133D01*
X669493Y488133D01*
X669493Y488128D01*
X670531Y487573D01*
X670538Y487574D01*
X670540Y487570D01*
X671665Y487228D01*
X671672Y487231D01*
X671675Y487226D01*
X672845Y487111D01*
X672851Y487115D01*
X672855Y487111D01*
X674025Y487226D01*
G37*
G36*
X547525Y487226D02*
X547525Y487226D01*
X547531Y487231D01*
X547535Y487228D01*
X548660Y487570D01*
X548665Y487575D01*
X548669Y487573D01*
X549707Y488128D01*
X549710Y488134D01*
X549715Y488133D01*
X550624Y488879D01*
X550626Y488886D01*
X550631Y488886D01*
X551377Y489795D01*
X551377Y489803D01*
X551382Y489803D01*
X551937Y490841D01*
X551936Y490848D01*
X551940Y490850D01*
X552057Y491234D01*
X552251Y491875D01*
X552282Y491975D01*
X552279Y491982D01*
X552284Y491985D01*
X552399Y493155D01*
X552397Y493158D01*
X552399Y493160D01*
X552399Y503160D01*
X552397Y503163D01*
X552399Y503165D01*
X552284Y504335D01*
X552279Y504341D01*
X552282Y504345D01*
X551940Y505470D01*
X551935Y505475D01*
X551937Y505479D01*
X551382Y506517D01*
X551376Y506520D01*
X551377Y506525D01*
X550631Y507434D01*
X550624Y507436D01*
X550624Y507441D01*
X549715Y508187D01*
X549707Y508187D01*
X549707Y508192D01*
X548669Y508747D01*
X548662Y508746D01*
X548660Y508750D01*
X547535Y509092D01*
X547528Y509089D01*
X547525Y509094D01*
X546355Y509209D01*
X546349Y509205D01*
X546345Y509209D01*
X545175Y509094D01*
X545169Y509089D01*
X545165Y509092D01*
X544040Y508750D01*
X544035Y508745D01*
X544031Y508747D01*
X542993Y508192D01*
X542990Y508186D01*
X542985Y508187D01*
X542076Y507441D01*
X542074Y507434D01*
X542069Y507434D01*
X541323Y506525D01*
X541323Y506517D01*
X541318Y506517D01*
X540763Y505479D01*
X540764Y505472D01*
X540760Y505470D01*
X540617Y505002D01*
X540603Y504953D01*
X540423Y504362D01*
X540418Y504345D01*
X540421Y504338D01*
X540416Y504335D01*
X540301Y503165D01*
X540303Y503162D01*
X540301Y503160D01*
X540301Y493160D01*
X540303Y493157D01*
X540301Y493155D01*
X540416Y491985D01*
X540421Y491979D01*
X540418Y491975D01*
X540760Y490850D01*
X540765Y490845D01*
X540763Y490841D01*
X541318Y489803D01*
X541324Y489800D01*
X541323Y489795D01*
X542069Y488886D01*
X542076Y488884D01*
X542076Y488879D01*
X542985Y488133D01*
X542993Y488133D01*
X542993Y488128D01*
X544031Y487573D01*
X544038Y487574D01*
X544040Y487570D01*
X545165Y487228D01*
X545172Y487231D01*
X545175Y487226D01*
X546345Y487111D01*
X546351Y487115D01*
X546355Y487111D01*
X547525Y487226D01*
G37*
G36*
X712625Y487226D02*
X712625Y487226D01*
X712631Y487231D01*
X712635Y487228D01*
X713760Y487570D01*
X713765Y487575D01*
X713769Y487573D01*
X714807Y488128D01*
X714810Y488134D01*
X714815Y488133D01*
X715724Y488879D01*
X715726Y488886D01*
X715731Y488886D01*
X716477Y489795D01*
X716477Y489803D01*
X716482Y489803D01*
X717037Y490841D01*
X717036Y490848D01*
X717040Y490850D01*
X717157Y491234D01*
X717351Y491875D01*
X717382Y491975D01*
X717379Y491982D01*
X717384Y491985D01*
X717499Y493155D01*
X717497Y493158D01*
X717499Y493160D01*
X717499Y503160D01*
X717497Y503163D01*
X717499Y503165D01*
X717384Y504335D01*
X717379Y504341D01*
X717382Y504345D01*
X717040Y505470D01*
X717035Y505475D01*
X717037Y505479D01*
X716482Y506517D01*
X716476Y506520D01*
X716477Y506525D01*
X715731Y507434D01*
X715724Y507436D01*
X715724Y507441D01*
X714815Y508187D01*
X714807Y508187D01*
X714807Y508192D01*
X713769Y508747D01*
X713762Y508746D01*
X713760Y508750D01*
X712635Y509092D01*
X712628Y509089D01*
X712625Y509094D01*
X711455Y509209D01*
X711449Y509205D01*
X711445Y509209D01*
X710275Y509094D01*
X710269Y509089D01*
X710265Y509092D01*
X709140Y508750D01*
X709135Y508745D01*
X709131Y508747D01*
X708093Y508192D01*
X708090Y508186D01*
X708085Y508187D01*
X707176Y507441D01*
X707174Y507434D01*
X707169Y507434D01*
X706423Y506525D01*
X706423Y506517D01*
X706418Y506517D01*
X705863Y505479D01*
X705864Y505472D01*
X705860Y505470D01*
X705717Y505002D01*
X705703Y504953D01*
X705523Y504362D01*
X705518Y504345D01*
X705521Y504338D01*
X705516Y504335D01*
X705401Y503165D01*
X705403Y503162D01*
X705401Y503160D01*
X705401Y493160D01*
X705403Y493157D01*
X705401Y493155D01*
X705516Y491985D01*
X705521Y491979D01*
X705518Y491975D01*
X705860Y490850D01*
X705865Y490845D01*
X705863Y490841D01*
X706418Y489803D01*
X706424Y489800D01*
X706423Y489795D01*
X707169Y488886D01*
X707176Y488884D01*
X707176Y488879D01*
X708085Y488133D01*
X708093Y488133D01*
X708093Y488128D01*
X709131Y487573D01*
X709138Y487574D01*
X709140Y487570D01*
X710265Y487228D01*
X710272Y487231D01*
X710275Y487226D01*
X711445Y487111D01*
X711451Y487115D01*
X711455Y487111D01*
X712625Y487226D01*
G37*
G36*
X52225Y487226D02*
X52225Y487226D01*
X52231Y487231D01*
X52235Y487228D01*
X53360Y487570D01*
X53365Y487575D01*
X53369Y487573D01*
X54407Y488128D01*
X54410Y488134D01*
X54415Y488133D01*
X55324Y488879D01*
X55326Y488886D01*
X55331Y488886D01*
X56077Y489795D01*
X56077Y489803D01*
X56082Y489803D01*
X56637Y490841D01*
X56636Y490848D01*
X56640Y490850D01*
X56757Y491234D01*
X56951Y491875D01*
X56982Y491975D01*
X56979Y491982D01*
X56984Y491985D01*
X57099Y493155D01*
X57097Y493158D01*
X57099Y493160D01*
X57099Y503160D01*
X57097Y503163D01*
X57099Y503165D01*
X56984Y504335D01*
X56979Y504341D01*
X56982Y504345D01*
X56640Y505470D01*
X56635Y505475D01*
X56637Y505479D01*
X56082Y506517D01*
X56076Y506520D01*
X56077Y506525D01*
X55331Y507434D01*
X55324Y507436D01*
X55324Y507441D01*
X54415Y508187D01*
X54407Y508187D01*
X54407Y508192D01*
X53369Y508747D01*
X53362Y508746D01*
X53360Y508750D01*
X52235Y509092D01*
X52228Y509089D01*
X52225Y509094D01*
X51055Y509209D01*
X51049Y509205D01*
X51045Y509209D01*
X49875Y509094D01*
X49869Y509089D01*
X49865Y509092D01*
X48740Y508750D01*
X48735Y508745D01*
X48731Y508747D01*
X47693Y508192D01*
X47690Y508186D01*
X47685Y508187D01*
X46776Y507441D01*
X46774Y507434D01*
X46769Y507434D01*
X46023Y506525D01*
X46023Y506517D01*
X46018Y506517D01*
X45463Y505479D01*
X45464Y505472D01*
X45460Y505470D01*
X45317Y505002D01*
X45303Y504953D01*
X45123Y504362D01*
X45118Y504345D01*
X45121Y504338D01*
X45116Y504335D01*
X45001Y503165D01*
X45003Y503162D01*
X45001Y503160D01*
X45001Y493160D01*
X45003Y493157D01*
X45001Y493155D01*
X45116Y491985D01*
X45121Y491979D01*
X45118Y491975D01*
X45460Y490850D01*
X45465Y490845D01*
X45463Y490841D01*
X46018Y489803D01*
X46024Y489800D01*
X46023Y489795D01*
X46769Y488886D01*
X46776Y488884D01*
X46776Y488879D01*
X47685Y488133D01*
X47693Y488133D01*
X47693Y488128D01*
X48731Y487573D01*
X48738Y487574D01*
X48740Y487570D01*
X49865Y487228D01*
X49872Y487231D01*
X49875Y487226D01*
X51045Y487111D01*
X51051Y487115D01*
X51055Y487111D01*
X52225Y487226D01*
G37*
G36*
X508925Y487226D02*
X508925Y487226D01*
X508931Y487231D01*
X508935Y487228D01*
X510060Y487570D01*
X510065Y487575D01*
X510069Y487573D01*
X511107Y488128D01*
X511110Y488134D01*
X511115Y488133D01*
X512024Y488879D01*
X512026Y488886D01*
X512031Y488886D01*
X512777Y489795D01*
X512777Y489803D01*
X512782Y489803D01*
X513337Y490841D01*
X513336Y490848D01*
X513340Y490850D01*
X513457Y491234D01*
X513651Y491875D01*
X513682Y491975D01*
X513679Y491982D01*
X513684Y491985D01*
X513799Y493155D01*
X513797Y493158D01*
X513799Y493160D01*
X513799Y503160D01*
X513797Y503163D01*
X513799Y503165D01*
X513684Y504335D01*
X513679Y504341D01*
X513682Y504345D01*
X513340Y505470D01*
X513335Y505475D01*
X513337Y505479D01*
X512782Y506517D01*
X512776Y506520D01*
X512777Y506525D01*
X512031Y507434D01*
X512024Y507436D01*
X512024Y507441D01*
X511115Y508187D01*
X511107Y508187D01*
X511107Y508192D01*
X510069Y508747D01*
X510062Y508746D01*
X510060Y508750D01*
X508935Y509092D01*
X508928Y509089D01*
X508925Y509094D01*
X507755Y509209D01*
X507749Y509205D01*
X507745Y509209D01*
X506575Y509094D01*
X506569Y509089D01*
X506565Y509092D01*
X505440Y508750D01*
X505435Y508745D01*
X505431Y508747D01*
X504393Y508192D01*
X504390Y508186D01*
X504385Y508187D01*
X503476Y507441D01*
X503474Y507434D01*
X503469Y507434D01*
X502723Y506525D01*
X502723Y506517D01*
X502718Y506517D01*
X502163Y505479D01*
X502164Y505472D01*
X502160Y505470D01*
X502017Y505002D01*
X502003Y504953D01*
X501823Y504362D01*
X501818Y504345D01*
X501821Y504338D01*
X501816Y504335D01*
X501701Y503165D01*
X501703Y503162D01*
X501701Y503160D01*
X501701Y493160D01*
X501703Y493157D01*
X501701Y493155D01*
X501816Y491985D01*
X501821Y491979D01*
X501818Y491975D01*
X502160Y490850D01*
X502165Y490845D01*
X502163Y490841D01*
X502718Y489803D01*
X502724Y489800D01*
X502723Y489795D01*
X503469Y488886D01*
X503476Y488884D01*
X503476Y488879D01*
X504385Y488133D01*
X504393Y488133D01*
X504393Y488128D01*
X505431Y487573D01*
X505438Y487574D01*
X505440Y487570D01*
X506565Y487228D01*
X506572Y487231D01*
X506575Y487226D01*
X507745Y487111D01*
X507751Y487115D01*
X507755Y487111D01*
X508925Y487226D01*
G37*
G36*
X178725Y487226D02*
X178725Y487226D01*
X178731Y487231D01*
X178735Y487228D01*
X179860Y487570D01*
X179865Y487575D01*
X179869Y487573D01*
X180907Y488128D01*
X180910Y488134D01*
X180915Y488133D01*
X181824Y488879D01*
X181826Y488886D01*
X181831Y488886D01*
X182577Y489795D01*
X182577Y489803D01*
X182582Y489803D01*
X183137Y490841D01*
X183136Y490848D01*
X183140Y490850D01*
X183257Y491234D01*
X183451Y491875D01*
X183482Y491975D01*
X183479Y491982D01*
X183484Y491985D01*
X183599Y493155D01*
X183597Y493158D01*
X183599Y493160D01*
X183599Y503160D01*
X183597Y503163D01*
X183599Y503165D01*
X183484Y504335D01*
X183479Y504341D01*
X183482Y504345D01*
X183140Y505470D01*
X183135Y505475D01*
X183137Y505479D01*
X182582Y506517D01*
X182576Y506520D01*
X182577Y506525D01*
X181831Y507434D01*
X181824Y507436D01*
X181824Y507441D01*
X180915Y508187D01*
X180907Y508187D01*
X180907Y508192D01*
X179869Y508747D01*
X179862Y508746D01*
X179860Y508750D01*
X178735Y509092D01*
X178728Y509089D01*
X178725Y509094D01*
X177555Y509209D01*
X177549Y509205D01*
X177545Y509209D01*
X176375Y509094D01*
X176369Y509089D01*
X176365Y509092D01*
X175240Y508750D01*
X175235Y508745D01*
X175231Y508747D01*
X174193Y508192D01*
X174190Y508186D01*
X174185Y508187D01*
X173276Y507441D01*
X173274Y507434D01*
X173269Y507434D01*
X172523Y506525D01*
X172523Y506517D01*
X172518Y506517D01*
X171963Y505479D01*
X171964Y505472D01*
X171960Y505470D01*
X171817Y505002D01*
X171803Y504953D01*
X171623Y504362D01*
X171618Y504345D01*
X171621Y504338D01*
X171616Y504335D01*
X171501Y503165D01*
X171503Y503162D01*
X171501Y503160D01*
X171501Y493160D01*
X171503Y493157D01*
X171501Y493155D01*
X171616Y491985D01*
X171621Y491979D01*
X171618Y491975D01*
X171960Y490850D01*
X171965Y490845D01*
X171963Y490841D01*
X172518Y489803D01*
X172524Y489800D01*
X172523Y489795D01*
X173269Y488886D01*
X173276Y488884D01*
X173276Y488879D01*
X174185Y488133D01*
X174193Y488133D01*
X174193Y488128D01*
X175231Y487573D01*
X175238Y487574D01*
X175240Y487570D01*
X176365Y487228D01*
X176372Y487231D01*
X176375Y487226D01*
X177545Y487111D01*
X177551Y487115D01*
X177555Y487111D01*
X178725Y487226D01*
G37*
G36*
X343825Y487226D02*
X343825Y487226D01*
X343831Y487231D01*
X343835Y487228D01*
X344960Y487570D01*
X344965Y487575D01*
X344969Y487573D01*
X346007Y488128D01*
X346010Y488134D01*
X346015Y488133D01*
X346924Y488879D01*
X346926Y488886D01*
X346931Y488886D01*
X347677Y489795D01*
X347677Y489803D01*
X347682Y489803D01*
X348237Y490841D01*
X348236Y490848D01*
X348240Y490850D01*
X348357Y491234D01*
X348551Y491875D01*
X348582Y491975D01*
X348579Y491982D01*
X348584Y491985D01*
X348699Y493155D01*
X348697Y493158D01*
X348699Y493160D01*
X348699Y503160D01*
X348697Y503163D01*
X348699Y503165D01*
X348584Y504335D01*
X348579Y504341D01*
X348582Y504345D01*
X348240Y505470D01*
X348235Y505475D01*
X348237Y505479D01*
X347682Y506517D01*
X347676Y506520D01*
X347677Y506525D01*
X346931Y507434D01*
X346924Y507436D01*
X346924Y507441D01*
X346015Y508187D01*
X346007Y508187D01*
X346007Y508192D01*
X344969Y508747D01*
X344962Y508746D01*
X344960Y508750D01*
X343835Y509092D01*
X343828Y509089D01*
X343825Y509094D01*
X342655Y509209D01*
X342649Y509205D01*
X342645Y509209D01*
X341475Y509094D01*
X341469Y509089D01*
X341465Y509092D01*
X340340Y508750D01*
X340335Y508745D01*
X340331Y508747D01*
X339293Y508192D01*
X339290Y508186D01*
X339285Y508187D01*
X338376Y507441D01*
X338374Y507434D01*
X338369Y507434D01*
X337623Y506525D01*
X337623Y506517D01*
X337618Y506517D01*
X337063Y505479D01*
X337064Y505472D01*
X337060Y505470D01*
X336917Y505002D01*
X336903Y504953D01*
X336723Y504362D01*
X336718Y504345D01*
X336721Y504338D01*
X336716Y504335D01*
X336601Y503165D01*
X336603Y503162D01*
X336601Y503160D01*
X336601Y493160D01*
X336603Y493157D01*
X336601Y493155D01*
X336716Y491985D01*
X336721Y491979D01*
X336718Y491975D01*
X337060Y490850D01*
X337065Y490845D01*
X337063Y490841D01*
X337618Y489803D01*
X337624Y489800D01*
X337623Y489795D01*
X338369Y488886D01*
X338376Y488884D01*
X338376Y488879D01*
X339285Y488133D01*
X339293Y488133D01*
X339293Y488128D01*
X340331Y487573D01*
X340338Y487574D01*
X340340Y487570D01*
X341465Y487228D01*
X341472Y487231D01*
X341475Y487226D01*
X342645Y487111D01*
X342651Y487115D01*
X342655Y487111D01*
X343825Y487226D01*
G37*
G36*
X343825Y318946D02*
X343825Y318946D01*
X343831Y318951D01*
X343835Y318948D01*
X344960Y319290D01*
X344965Y319295D01*
X344969Y319293D01*
X346007Y319848D01*
X346010Y319854D01*
X346015Y319853D01*
X346924Y320599D01*
X346926Y320606D01*
X346931Y320606D01*
X347677Y321515D01*
X347677Y321523D01*
X347682Y321523D01*
X348237Y322561D01*
X348236Y322568D01*
X348240Y322570D01*
X348357Y322954D01*
X348551Y323595D01*
X348582Y323695D01*
X348579Y323702D01*
X348584Y323705D01*
X348699Y324875D01*
X348697Y324878D01*
X348699Y324880D01*
X348699Y334880D01*
X348697Y334883D01*
X348699Y334885D01*
X348584Y336055D01*
X348579Y336061D01*
X348582Y336065D01*
X348240Y337190D01*
X348235Y337195D01*
X348237Y337199D01*
X347682Y338237D01*
X347676Y338240D01*
X347677Y338245D01*
X346931Y339154D01*
X346924Y339156D01*
X346924Y339161D01*
X346015Y339907D01*
X346007Y339907D01*
X346007Y339912D01*
X344969Y340467D01*
X344962Y340466D01*
X344960Y340470D01*
X343835Y340812D01*
X343828Y340809D01*
X343825Y340814D01*
X342655Y340929D01*
X342649Y340925D01*
X342645Y340929D01*
X341475Y340814D01*
X341469Y340809D01*
X341465Y340812D01*
X340340Y340470D01*
X340335Y340465D01*
X340331Y340467D01*
X339293Y339912D01*
X339290Y339906D01*
X339285Y339907D01*
X338376Y339161D01*
X338374Y339154D01*
X338369Y339154D01*
X337623Y338245D01*
X337623Y338237D01*
X337618Y338237D01*
X337063Y337199D01*
X337064Y337192D01*
X337060Y337190D01*
X336917Y336722D01*
X336903Y336673D01*
X336723Y336082D01*
X336718Y336065D01*
X336721Y336058D01*
X336716Y336055D01*
X336601Y334885D01*
X336603Y334882D01*
X336601Y334880D01*
X336601Y324880D01*
X336603Y324877D01*
X336601Y324875D01*
X336716Y323705D01*
X336721Y323699D01*
X336718Y323695D01*
X337060Y322570D01*
X337065Y322565D01*
X337063Y322561D01*
X337618Y321523D01*
X337624Y321520D01*
X337623Y321515D01*
X338369Y320606D01*
X338376Y320604D01*
X338376Y320599D01*
X339285Y319853D01*
X339293Y319853D01*
X339293Y319848D01*
X340331Y319293D01*
X340338Y319294D01*
X340340Y319290D01*
X341465Y318948D01*
X341472Y318951D01*
X341475Y318946D01*
X342645Y318831D01*
X342651Y318835D01*
X342655Y318831D01*
X343825Y318946D01*
G37*
G36*
X178725Y318946D02*
X178725Y318946D01*
X178731Y318951D01*
X178735Y318948D01*
X179860Y319290D01*
X179865Y319295D01*
X179869Y319293D01*
X180907Y319848D01*
X180910Y319854D01*
X180915Y319853D01*
X181824Y320599D01*
X181826Y320606D01*
X181831Y320606D01*
X182577Y321515D01*
X182577Y321523D01*
X182582Y321523D01*
X183137Y322561D01*
X183136Y322568D01*
X183140Y322570D01*
X183257Y322954D01*
X183451Y323595D01*
X183482Y323695D01*
X183479Y323702D01*
X183484Y323705D01*
X183599Y324875D01*
X183597Y324878D01*
X183599Y324880D01*
X183599Y334880D01*
X183597Y334883D01*
X183599Y334885D01*
X183484Y336055D01*
X183479Y336061D01*
X183482Y336065D01*
X183140Y337190D01*
X183135Y337195D01*
X183137Y337199D01*
X182582Y338237D01*
X182576Y338240D01*
X182577Y338245D01*
X181831Y339154D01*
X181824Y339156D01*
X181824Y339161D01*
X180915Y339907D01*
X180907Y339907D01*
X180907Y339912D01*
X179869Y340467D01*
X179862Y340466D01*
X179860Y340470D01*
X178735Y340812D01*
X178728Y340809D01*
X178725Y340814D01*
X177555Y340929D01*
X177549Y340925D01*
X177545Y340929D01*
X176375Y340814D01*
X176369Y340809D01*
X176365Y340812D01*
X175240Y340470D01*
X175235Y340465D01*
X175231Y340467D01*
X174193Y339912D01*
X174190Y339906D01*
X174185Y339907D01*
X173276Y339161D01*
X173274Y339154D01*
X173269Y339154D01*
X172523Y338245D01*
X172523Y338237D01*
X172518Y338237D01*
X171963Y337199D01*
X171964Y337192D01*
X171960Y337190D01*
X171817Y336722D01*
X171803Y336673D01*
X171623Y336082D01*
X171618Y336065D01*
X171621Y336058D01*
X171616Y336055D01*
X171501Y334885D01*
X171503Y334882D01*
X171501Y334880D01*
X171501Y324880D01*
X171503Y324877D01*
X171501Y324875D01*
X171616Y323705D01*
X171621Y323699D01*
X171618Y323695D01*
X171960Y322570D01*
X171965Y322565D01*
X171963Y322561D01*
X172518Y321523D01*
X172524Y321520D01*
X172523Y321515D01*
X173269Y320606D01*
X173276Y320604D01*
X173276Y320599D01*
X174185Y319853D01*
X174193Y319853D01*
X174193Y319848D01*
X175231Y319293D01*
X175238Y319294D01*
X175240Y319290D01*
X176365Y318948D01*
X176372Y318951D01*
X176375Y318946D01*
X177545Y318831D01*
X177551Y318835D01*
X177555Y318831D01*
X178725Y318946D01*
G37*
G36*
X712625Y318946D02*
X712625Y318946D01*
X712631Y318951D01*
X712635Y318948D01*
X713760Y319290D01*
X713765Y319295D01*
X713769Y319293D01*
X714807Y319848D01*
X714810Y319854D01*
X714815Y319853D01*
X715724Y320599D01*
X715726Y320606D01*
X715731Y320606D01*
X716477Y321515D01*
X716477Y321523D01*
X716482Y321523D01*
X717037Y322561D01*
X717036Y322568D01*
X717040Y322570D01*
X717157Y322954D01*
X717351Y323595D01*
X717382Y323695D01*
X717379Y323702D01*
X717384Y323705D01*
X717499Y324875D01*
X717497Y324878D01*
X717499Y324880D01*
X717499Y334880D01*
X717497Y334883D01*
X717499Y334885D01*
X717384Y336055D01*
X717379Y336061D01*
X717382Y336065D01*
X717040Y337190D01*
X717035Y337195D01*
X717037Y337199D01*
X716482Y338237D01*
X716476Y338240D01*
X716477Y338245D01*
X715731Y339154D01*
X715724Y339156D01*
X715724Y339161D01*
X714815Y339907D01*
X714807Y339907D01*
X714807Y339912D01*
X713769Y340467D01*
X713762Y340466D01*
X713760Y340470D01*
X712635Y340812D01*
X712628Y340809D01*
X712625Y340814D01*
X711455Y340929D01*
X711449Y340925D01*
X711445Y340929D01*
X710275Y340814D01*
X710269Y340809D01*
X710265Y340812D01*
X709140Y340470D01*
X709135Y340465D01*
X709131Y340467D01*
X708093Y339912D01*
X708090Y339906D01*
X708085Y339907D01*
X707176Y339161D01*
X707174Y339154D01*
X707169Y339154D01*
X706423Y338245D01*
X706423Y338237D01*
X706418Y338237D01*
X705863Y337199D01*
X705864Y337192D01*
X705860Y337190D01*
X705717Y336722D01*
X705703Y336673D01*
X705523Y336082D01*
X705518Y336065D01*
X705521Y336058D01*
X705516Y336055D01*
X705401Y334885D01*
X705403Y334882D01*
X705401Y334880D01*
X705401Y324880D01*
X705403Y324877D01*
X705401Y324875D01*
X705516Y323705D01*
X705521Y323699D01*
X705518Y323695D01*
X705860Y322570D01*
X705865Y322565D01*
X705863Y322561D01*
X706418Y321523D01*
X706424Y321520D01*
X706423Y321515D01*
X707169Y320606D01*
X707176Y320604D01*
X707176Y320599D01*
X708085Y319853D01*
X708093Y319853D01*
X708093Y319848D01*
X709131Y319293D01*
X709138Y319294D01*
X709140Y319290D01*
X710265Y318948D01*
X710272Y318951D01*
X710275Y318946D01*
X711445Y318831D01*
X711451Y318835D01*
X711455Y318831D01*
X712625Y318946D01*
G37*
G36*
X217325Y318946D02*
X217325Y318946D01*
X217331Y318951D01*
X217335Y318948D01*
X218460Y319290D01*
X218465Y319295D01*
X218469Y319293D01*
X219507Y319848D01*
X219510Y319854D01*
X219515Y319853D01*
X220424Y320599D01*
X220426Y320606D01*
X220431Y320606D01*
X221177Y321515D01*
X221177Y321523D01*
X221182Y321523D01*
X221737Y322561D01*
X221736Y322568D01*
X221740Y322570D01*
X221857Y322954D01*
X222051Y323595D01*
X222082Y323695D01*
X222079Y323702D01*
X222084Y323705D01*
X222199Y324875D01*
X222197Y324878D01*
X222199Y324880D01*
X222199Y334880D01*
X222197Y334883D01*
X222199Y334885D01*
X222084Y336055D01*
X222079Y336061D01*
X222082Y336065D01*
X221740Y337190D01*
X221735Y337195D01*
X221737Y337199D01*
X221182Y338237D01*
X221176Y338240D01*
X221177Y338245D01*
X220431Y339154D01*
X220424Y339156D01*
X220424Y339161D01*
X219515Y339907D01*
X219507Y339907D01*
X219507Y339912D01*
X218469Y340467D01*
X218462Y340466D01*
X218460Y340470D01*
X217335Y340812D01*
X217328Y340809D01*
X217325Y340814D01*
X216155Y340929D01*
X216149Y340925D01*
X216145Y340929D01*
X214975Y340814D01*
X214969Y340809D01*
X214965Y340812D01*
X213840Y340470D01*
X213835Y340465D01*
X213831Y340467D01*
X212793Y339912D01*
X212790Y339906D01*
X212785Y339907D01*
X211876Y339161D01*
X211874Y339154D01*
X211869Y339154D01*
X211123Y338245D01*
X211123Y338237D01*
X211118Y338237D01*
X210563Y337199D01*
X210564Y337192D01*
X210560Y337190D01*
X210417Y336722D01*
X210403Y336673D01*
X210223Y336082D01*
X210218Y336065D01*
X210221Y336058D01*
X210216Y336055D01*
X210101Y334885D01*
X210103Y334882D01*
X210101Y334880D01*
X210101Y324880D01*
X210103Y324877D01*
X210101Y324875D01*
X210216Y323705D01*
X210221Y323699D01*
X210218Y323695D01*
X210560Y322570D01*
X210565Y322565D01*
X210563Y322561D01*
X211118Y321523D01*
X211124Y321520D01*
X211123Y321515D01*
X211869Y320606D01*
X211876Y320604D01*
X211876Y320599D01*
X212785Y319853D01*
X212793Y319853D01*
X212793Y319848D01*
X213831Y319293D01*
X213838Y319294D01*
X213840Y319290D01*
X214965Y318948D01*
X214972Y318951D01*
X214975Y318946D01*
X216145Y318831D01*
X216151Y318835D01*
X216155Y318831D01*
X217325Y318946D01*
G37*
G36*
X547525Y318946D02*
X547525Y318946D01*
X547531Y318951D01*
X547535Y318948D01*
X548660Y319290D01*
X548665Y319295D01*
X548669Y319293D01*
X549707Y319848D01*
X549710Y319854D01*
X549715Y319853D01*
X550624Y320599D01*
X550626Y320606D01*
X550631Y320606D01*
X551377Y321515D01*
X551377Y321523D01*
X551382Y321523D01*
X551937Y322561D01*
X551936Y322568D01*
X551940Y322570D01*
X552057Y322954D01*
X552251Y323595D01*
X552282Y323695D01*
X552279Y323702D01*
X552284Y323705D01*
X552399Y324875D01*
X552397Y324878D01*
X552399Y324880D01*
X552399Y334880D01*
X552397Y334883D01*
X552399Y334885D01*
X552284Y336055D01*
X552279Y336061D01*
X552282Y336065D01*
X551940Y337190D01*
X551935Y337195D01*
X551937Y337199D01*
X551382Y338237D01*
X551376Y338240D01*
X551377Y338245D01*
X550631Y339154D01*
X550624Y339156D01*
X550624Y339161D01*
X549715Y339907D01*
X549707Y339907D01*
X549707Y339912D01*
X548669Y340467D01*
X548662Y340466D01*
X548660Y340470D01*
X547535Y340812D01*
X547528Y340809D01*
X547525Y340814D01*
X546355Y340929D01*
X546349Y340925D01*
X546345Y340929D01*
X545175Y340814D01*
X545169Y340809D01*
X545165Y340812D01*
X544040Y340470D01*
X544035Y340465D01*
X544031Y340467D01*
X542993Y339912D01*
X542990Y339906D01*
X542985Y339907D01*
X542076Y339161D01*
X542074Y339154D01*
X542069Y339154D01*
X541323Y338245D01*
X541323Y338237D01*
X541318Y338237D01*
X540763Y337199D01*
X540764Y337192D01*
X540760Y337190D01*
X540617Y336722D01*
X540603Y336673D01*
X540423Y336082D01*
X540418Y336065D01*
X540421Y336058D01*
X540416Y336055D01*
X540301Y334885D01*
X540303Y334882D01*
X540301Y334880D01*
X540301Y324880D01*
X540303Y324877D01*
X540301Y324875D01*
X540416Y323705D01*
X540421Y323699D01*
X540418Y323695D01*
X540760Y322570D01*
X540765Y322565D01*
X540763Y322561D01*
X541318Y321523D01*
X541324Y321520D01*
X541323Y321515D01*
X542069Y320606D01*
X542076Y320604D01*
X542076Y320599D01*
X542985Y319853D01*
X542993Y319853D01*
X542993Y319848D01*
X544031Y319293D01*
X544038Y319294D01*
X544040Y319290D01*
X545165Y318948D01*
X545172Y318951D01*
X545175Y318946D01*
X546345Y318831D01*
X546351Y318835D01*
X546355Y318831D01*
X547525Y318946D01*
G37*
G36*
X674025Y318946D02*
X674025Y318946D01*
X674031Y318951D01*
X674035Y318948D01*
X675160Y319290D01*
X675165Y319295D01*
X675169Y319293D01*
X676207Y319848D01*
X676210Y319854D01*
X676215Y319853D01*
X677124Y320599D01*
X677126Y320606D01*
X677131Y320606D01*
X677877Y321515D01*
X677877Y321523D01*
X677882Y321523D01*
X678437Y322561D01*
X678436Y322568D01*
X678440Y322570D01*
X678557Y322954D01*
X678751Y323595D01*
X678782Y323695D01*
X678779Y323702D01*
X678784Y323705D01*
X678899Y324875D01*
X678897Y324878D01*
X678899Y324880D01*
X678899Y334880D01*
X678897Y334883D01*
X678899Y334885D01*
X678784Y336055D01*
X678779Y336061D01*
X678782Y336065D01*
X678440Y337190D01*
X678435Y337195D01*
X678437Y337199D01*
X677882Y338237D01*
X677876Y338240D01*
X677877Y338245D01*
X677131Y339154D01*
X677124Y339156D01*
X677124Y339161D01*
X676215Y339907D01*
X676207Y339907D01*
X676207Y339912D01*
X675169Y340467D01*
X675162Y340466D01*
X675160Y340470D01*
X674035Y340812D01*
X674028Y340809D01*
X674025Y340814D01*
X672855Y340929D01*
X672849Y340925D01*
X672845Y340929D01*
X671675Y340814D01*
X671669Y340809D01*
X671665Y340812D01*
X670540Y340470D01*
X670535Y340465D01*
X670531Y340467D01*
X669493Y339912D01*
X669490Y339906D01*
X669485Y339907D01*
X668576Y339161D01*
X668574Y339154D01*
X668569Y339154D01*
X667823Y338245D01*
X667823Y338237D01*
X667818Y338237D01*
X667263Y337199D01*
X667264Y337192D01*
X667260Y337190D01*
X667117Y336722D01*
X667103Y336673D01*
X666923Y336082D01*
X666918Y336065D01*
X666921Y336058D01*
X666916Y336055D01*
X666801Y334885D01*
X666803Y334882D01*
X666801Y334880D01*
X666801Y324880D01*
X666803Y324877D01*
X666801Y324875D01*
X666916Y323705D01*
X666921Y323699D01*
X666918Y323695D01*
X667260Y322570D01*
X667265Y322565D01*
X667263Y322561D01*
X667818Y321523D01*
X667824Y321520D01*
X667823Y321515D01*
X668569Y320606D01*
X668576Y320604D01*
X668576Y320599D01*
X669485Y319853D01*
X669493Y319853D01*
X669493Y319848D01*
X670531Y319293D01*
X670538Y319294D01*
X670540Y319290D01*
X671665Y318948D01*
X671672Y318951D01*
X671675Y318946D01*
X672845Y318831D01*
X672851Y318835D01*
X672855Y318831D01*
X674025Y318946D01*
G37*
G36*
X13625Y318946D02*
X13625Y318946D01*
X13631Y318951D01*
X13635Y318948D01*
X14760Y319290D01*
X14765Y319295D01*
X14769Y319293D01*
X15807Y319848D01*
X15810Y319854D01*
X15815Y319853D01*
X16724Y320599D01*
X16726Y320606D01*
X16731Y320606D01*
X17477Y321515D01*
X17477Y321523D01*
X17482Y321523D01*
X18037Y322561D01*
X18036Y322568D01*
X18040Y322570D01*
X18157Y322954D01*
X18351Y323595D01*
X18382Y323695D01*
X18379Y323702D01*
X18384Y323705D01*
X18499Y324875D01*
X18497Y324878D01*
X18499Y324880D01*
X18499Y334880D01*
X18497Y334883D01*
X18499Y334885D01*
X18384Y336055D01*
X18379Y336061D01*
X18382Y336065D01*
X18040Y337190D01*
X18035Y337195D01*
X18037Y337199D01*
X17482Y338237D01*
X17476Y338240D01*
X17477Y338245D01*
X16731Y339154D01*
X16724Y339156D01*
X16724Y339161D01*
X15815Y339907D01*
X15807Y339907D01*
X15807Y339912D01*
X14769Y340467D01*
X14762Y340466D01*
X14760Y340470D01*
X13635Y340812D01*
X13628Y340809D01*
X13625Y340814D01*
X12455Y340929D01*
X12449Y340925D01*
X12445Y340929D01*
X11275Y340814D01*
X11269Y340809D01*
X11265Y340812D01*
X10140Y340470D01*
X10135Y340465D01*
X10131Y340467D01*
X9093Y339912D01*
X9090Y339906D01*
X9085Y339907D01*
X8176Y339161D01*
X8174Y339154D01*
X8169Y339154D01*
X7423Y338245D01*
X7423Y338237D01*
X7418Y338237D01*
X6863Y337199D01*
X6864Y337192D01*
X6860Y337190D01*
X6717Y336722D01*
X6703Y336673D01*
X6523Y336082D01*
X6518Y336065D01*
X6521Y336058D01*
X6516Y336055D01*
X6401Y334885D01*
X6403Y334882D01*
X6401Y334880D01*
X6401Y324880D01*
X6403Y324877D01*
X6401Y324875D01*
X6516Y323705D01*
X6521Y323699D01*
X6518Y323695D01*
X6860Y322570D01*
X6865Y322565D01*
X6863Y322561D01*
X7418Y321523D01*
X7424Y321520D01*
X7423Y321515D01*
X8169Y320606D01*
X8176Y320604D01*
X8176Y320599D01*
X9085Y319853D01*
X9093Y319853D01*
X9093Y319848D01*
X10131Y319293D01*
X10138Y319294D01*
X10140Y319290D01*
X11265Y318948D01*
X11272Y318951D01*
X11275Y318946D01*
X12445Y318831D01*
X12451Y318835D01*
X12455Y318831D01*
X13625Y318946D01*
G37*
G36*
X382425Y318946D02*
X382425Y318946D01*
X382431Y318951D01*
X382435Y318948D01*
X383560Y319290D01*
X383565Y319295D01*
X383569Y319293D01*
X384607Y319848D01*
X384610Y319854D01*
X384615Y319853D01*
X385524Y320599D01*
X385526Y320606D01*
X385531Y320606D01*
X386277Y321515D01*
X386277Y321523D01*
X386282Y321523D01*
X386837Y322561D01*
X386836Y322568D01*
X386840Y322570D01*
X386957Y322954D01*
X387151Y323595D01*
X387182Y323695D01*
X387179Y323702D01*
X387184Y323705D01*
X387299Y324875D01*
X387297Y324878D01*
X387299Y324880D01*
X387299Y334880D01*
X387297Y334883D01*
X387299Y334885D01*
X387184Y336055D01*
X387179Y336061D01*
X387182Y336065D01*
X386840Y337190D01*
X386835Y337195D01*
X386837Y337199D01*
X386282Y338237D01*
X386276Y338240D01*
X386277Y338245D01*
X385531Y339154D01*
X385524Y339156D01*
X385524Y339161D01*
X384615Y339907D01*
X384607Y339907D01*
X384607Y339912D01*
X383569Y340467D01*
X383562Y340466D01*
X383560Y340470D01*
X382435Y340812D01*
X382428Y340809D01*
X382425Y340814D01*
X381255Y340929D01*
X381249Y340925D01*
X381245Y340929D01*
X380075Y340814D01*
X380069Y340809D01*
X380065Y340812D01*
X378940Y340470D01*
X378935Y340465D01*
X378931Y340467D01*
X377893Y339912D01*
X377890Y339906D01*
X377885Y339907D01*
X376976Y339161D01*
X376974Y339154D01*
X376969Y339154D01*
X376223Y338245D01*
X376223Y338237D01*
X376218Y338237D01*
X375663Y337199D01*
X375664Y337192D01*
X375660Y337190D01*
X375517Y336722D01*
X375503Y336673D01*
X375323Y336082D01*
X375318Y336065D01*
X375321Y336058D01*
X375316Y336055D01*
X375201Y334885D01*
X375203Y334882D01*
X375201Y334880D01*
X375201Y324880D01*
X375203Y324877D01*
X375201Y324875D01*
X375316Y323705D01*
X375321Y323699D01*
X375318Y323695D01*
X375660Y322570D01*
X375665Y322565D01*
X375663Y322561D01*
X376218Y321523D01*
X376224Y321520D01*
X376223Y321515D01*
X376969Y320606D01*
X376976Y320604D01*
X376976Y320599D01*
X377885Y319853D01*
X377893Y319853D01*
X377893Y319848D01*
X378931Y319293D01*
X378938Y319294D01*
X378940Y319290D01*
X380065Y318948D01*
X380072Y318951D01*
X380075Y318946D01*
X381245Y318831D01*
X381251Y318835D01*
X381255Y318831D01*
X382425Y318946D01*
G37*
G36*
X508925Y318946D02*
X508925Y318946D01*
X508931Y318951D01*
X508935Y318948D01*
X510060Y319290D01*
X510065Y319295D01*
X510069Y319293D01*
X511107Y319848D01*
X511110Y319854D01*
X511115Y319853D01*
X512024Y320599D01*
X512026Y320606D01*
X512031Y320606D01*
X512777Y321515D01*
X512777Y321523D01*
X512782Y321523D01*
X513337Y322561D01*
X513336Y322568D01*
X513340Y322570D01*
X513457Y322954D01*
X513651Y323595D01*
X513682Y323695D01*
X513679Y323702D01*
X513684Y323705D01*
X513799Y324875D01*
X513797Y324878D01*
X513799Y324880D01*
X513799Y334880D01*
X513797Y334883D01*
X513799Y334885D01*
X513684Y336055D01*
X513679Y336061D01*
X513682Y336065D01*
X513340Y337190D01*
X513335Y337195D01*
X513337Y337199D01*
X512782Y338237D01*
X512776Y338240D01*
X512777Y338245D01*
X512031Y339154D01*
X512024Y339156D01*
X512024Y339161D01*
X511115Y339907D01*
X511107Y339907D01*
X511107Y339912D01*
X510069Y340467D01*
X510062Y340466D01*
X510060Y340470D01*
X508935Y340812D01*
X508928Y340809D01*
X508925Y340814D01*
X507755Y340929D01*
X507749Y340925D01*
X507745Y340929D01*
X506575Y340814D01*
X506569Y340809D01*
X506565Y340812D01*
X505440Y340470D01*
X505435Y340465D01*
X505431Y340467D01*
X504393Y339912D01*
X504390Y339906D01*
X504385Y339907D01*
X503476Y339161D01*
X503474Y339154D01*
X503469Y339154D01*
X502723Y338245D01*
X502723Y338237D01*
X502718Y338237D01*
X502163Y337199D01*
X502164Y337192D01*
X502160Y337190D01*
X502017Y336722D01*
X502003Y336673D01*
X501823Y336082D01*
X501818Y336065D01*
X501821Y336058D01*
X501816Y336055D01*
X501701Y334885D01*
X501703Y334882D01*
X501701Y334880D01*
X501701Y324880D01*
X501703Y324877D01*
X501701Y324875D01*
X501816Y323705D01*
X501821Y323699D01*
X501818Y323695D01*
X502160Y322570D01*
X502165Y322565D01*
X502163Y322561D01*
X502718Y321523D01*
X502724Y321520D01*
X502723Y321515D01*
X503469Y320606D01*
X503476Y320604D01*
X503476Y320599D01*
X504385Y319853D01*
X504393Y319853D01*
X504393Y319848D01*
X505431Y319293D01*
X505438Y319294D01*
X505440Y319290D01*
X506565Y318948D01*
X506572Y318951D01*
X506575Y318946D01*
X507745Y318831D01*
X507751Y318835D01*
X507755Y318831D01*
X508925Y318946D01*
G37*
G36*
X52225Y318946D02*
X52225Y318946D01*
X52231Y318951D01*
X52235Y318948D01*
X53360Y319290D01*
X53365Y319295D01*
X53369Y319293D01*
X54407Y319848D01*
X54410Y319854D01*
X54415Y319853D01*
X55324Y320599D01*
X55326Y320606D01*
X55331Y320606D01*
X56077Y321515D01*
X56077Y321523D01*
X56082Y321523D01*
X56637Y322561D01*
X56636Y322568D01*
X56640Y322570D01*
X56757Y322954D01*
X56951Y323595D01*
X56982Y323695D01*
X56979Y323702D01*
X56984Y323705D01*
X57099Y324875D01*
X57097Y324878D01*
X57099Y324880D01*
X57099Y334880D01*
X57097Y334883D01*
X57099Y334885D01*
X56984Y336055D01*
X56979Y336061D01*
X56982Y336065D01*
X56640Y337190D01*
X56635Y337195D01*
X56637Y337199D01*
X56082Y338237D01*
X56076Y338240D01*
X56077Y338245D01*
X55331Y339154D01*
X55324Y339156D01*
X55324Y339161D01*
X54415Y339907D01*
X54407Y339907D01*
X54407Y339912D01*
X53369Y340467D01*
X53362Y340466D01*
X53360Y340470D01*
X52235Y340812D01*
X52228Y340809D01*
X52225Y340814D01*
X51055Y340929D01*
X51049Y340925D01*
X51045Y340929D01*
X49875Y340814D01*
X49869Y340809D01*
X49865Y340812D01*
X48740Y340470D01*
X48735Y340465D01*
X48731Y340467D01*
X47693Y339912D01*
X47690Y339906D01*
X47685Y339907D01*
X46776Y339161D01*
X46774Y339154D01*
X46769Y339154D01*
X46023Y338245D01*
X46023Y338237D01*
X46018Y338237D01*
X45463Y337199D01*
X45464Y337192D01*
X45460Y337190D01*
X45317Y336722D01*
X45303Y336673D01*
X45123Y336082D01*
X45118Y336065D01*
X45121Y336058D01*
X45116Y336055D01*
X45001Y334885D01*
X45003Y334882D01*
X45001Y334880D01*
X45001Y324880D01*
X45003Y324877D01*
X45001Y324875D01*
X45116Y323705D01*
X45121Y323699D01*
X45118Y323695D01*
X45460Y322570D01*
X45465Y322565D01*
X45463Y322561D01*
X46018Y321523D01*
X46024Y321520D01*
X46023Y321515D01*
X46769Y320606D01*
X46776Y320604D01*
X46776Y320599D01*
X47685Y319853D01*
X47693Y319853D01*
X47693Y319848D01*
X48731Y319293D01*
X48738Y319294D01*
X48740Y319290D01*
X49865Y318948D01*
X49872Y318951D01*
X49875Y318946D01*
X51045Y318831D01*
X51051Y318835D01*
X51055Y318831D01*
X52225Y318946D01*
G37*
G36*
X217325Y278946D02*
X217325Y278946D01*
X217331Y278951D01*
X217335Y278948D01*
X218460Y279290D01*
X218465Y279295D01*
X218469Y279293D01*
X219507Y279848D01*
X219510Y279854D01*
X219515Y279853D01*
X220424Y280599D01*
X220426Y280606D01*
X220431Y280606D01*
X221177Y281515D01*
X221177Y281523D01*
X221182Y281523D01*
X221737Y282561D01*
X221736Y282568D01*
X221740Y282570D01*
X221857Y282954D01*
X222051Y283595D01*
X222082Y283695D01*
X222079Y283702D01*
X222084Y283705D01*
X222199Y284875D01*
X222197Y284878D01*
X222199Y284880D01*
X222199Y294880D01*
X222197Y294883D01*
X222199Y294885D01*
X222084Y296055D01*
X222079Y296061D01*
X222082Y296065D01*
X221740Y297190D01*
X221735Y297195D01*
X221737Y297199D01*
X221182Y298237D01*
X221176Y298240D01*
X221177Y298245D01*
X220431Y299154D01*
X220424Y299156D01*
X220424Y299161D01*
X219515Y299907D01*
X219507Y299907D01*
X219507Y299912D01*
X218469Y300467D01*
X218462Y300466D01*
X218460Y300470D01*
X217335Y300812D01*
X217328Y300809D01*
X217325Y300814D01*
X216155Y300929D01*
X216149Y300925D01*
X216145Y300929D01*
X214975Y300814D01*
X214969Y300809D01*
X214965Y300812D01*
X213840Y300470D01*
X213835Y300465D01*
X213831Y300467D01*
X212793Y299912D01*
X212790Y299906D01*
X212785Y299907D01*
X211876Y299161D01*
X211874Y299154D01*
X211869Y299154D01*
X211123Y298245D01*
X211123Y298237D01*
X211118Y298237D01*
X210563Y297199D01*
X210564Y297192D01*
X210560Y297190D01*
X210417Y296722D01*
X210403Y296673D01*
X210223Y296082D01*
X210218Y296065D01*
X210221Y296058D01*
X210216Y296055D01*
X210101Y294885D01*
X210103Y294882D01*
X210101Y294880D01*
X210101Y284880D01*
X210103Y284877D01*
X210101Y284875D01*
X210216Y283705D01*
X210221Y283699D01*
X210218Y283695D01*
X210560Y282570D01*
X210565Y282565D01*
X210563Y282561D01*
X211118Y281523D01*
X211124Y281520D01*
X211123Y281515D01*
X211869Y280606D01*
X211876Y280604D01*
X211876Y280599D01*
X212785Y279853D01*
X212793Y279853D01*
X212793Y279848D01*
X213831Y279293D01*
X213838Y279294D01*
X213840Y279290D01*
X214965Y278948D01*
X214972Y278951D01*
X214975Y278946D01*
X216145Y278831D01*
X216151Y278835D01*
X216155Y278831D01*
X217325Y278946D01*
G37*
G36*
X382425Y278946D02*
X382425Y278946D01*
X382431Y278951D01*
X382435Y278948D01*
X383560Y279290D01*
X383565Y279295D01*
X383569Y279293D01*
X384607Y279848D01*
X384610Y279854D01*
X384615Y279853D01*
X385524Y280599D01*
X385526Y280606D01*
X385531Y280606D01*
X386277Y281515D01*
X386277Y281523D01*
X386282Y281523D01*
X386837Y282561D01*
X386836Y282568D01*
X386840Y282570D01*
X386957Y282954D01*
X387151Y283595D01*
X387182Y283695D01*
X387179Y283702D01*
X387184Y283705D01*
X387299Y284875D01*
X387297Y284878D01*
X387299Y284880D01*
X387299Y294880D01*
X387297Y294883D01*
X387299Y294885D01*
X387184Y296055D01*
X387179Y296061D01*
X387182Y296065D01*
X386840Y297190D01*
X386835Y297195D01*
X386837Y297199D01*
X386282Y298237D01*
X386276Y298240D01*
X386277Y298245D01*
X385531Y299154D01*
X385524Y299156D01*
X385524Y299161D01*
X384615Y299907D01*
X384607Y299907D01*
X384607Y299912D01*
X383569Y300467D01*
X383562Y300466D01*
X383560Y300470D01*
X382435Y300812D01*
X382428Y300809D01*
X382425Y300814D01*
X381255Y300929D01*
X381249Y300925D01*
X381245Y300929D01*
X380075Y300814D01*
X380069Y300809D01*
X380065Y300812D01*
X378940Y300470D01*
X378935Y300465D01*
X378931Y300467D01*
X377893Y299912D01*
X377890Y299906D01*
X377885Y299907D01*
X376976Y299161D01*
X376974Y299154D01*
X376969Y299154D01*
X376223Y298245D01*
X376223Y298237D01*
X376218Y298237D01*
X375663Y297199D01*
X375664Y297192D01*
X375660Y297190D01*
X375517Y296722D01*
X375503Y296673D01*
X375323Y296082D01*
X375318Y296065D01*
X375321Y296058D01*
X375316Y296055D01*
X375201Y294885D01*
X375203Y294882D01*
X375201Y294880D01*
X375201Y284880D01*
X375203Y284877D01*
X375201Y284875D01*
X375316Y283705D01*
X375321Y283699D01*
X375318Y283695D01*
X375660Y282570D01*
X375665Y282565D01*
X375663Y282561D01*
X376218Y281523D01*
X376224Y281520D01*
X376223Y281515D01*
X376969Y280606D01*
X376976Y280604D01*
X376976Y280599D01*
X377885Y279853D01*
X377893Y279853D01*
X377893Y279848D01*
X378931Y279293D01*
X378938Y279294D01*
X378940Y279290D01*
X380065Y278948D01*
X380072Y278951D01*
X380075Y278946D01*
X381245Y278831D01*
X381251Y278835D01*
X381255Y278831D01*
X382425Y278946D01*
G37*
G36*
X343825Y278946D02*
X343825Y278946D01*
X343831Y278951D01*
X343835Y278948D01*
X344960Y279290D01*
X344965Y279295D01*
X344969Y279293D01*
X346007Y279848D01*
X346010Y279854D01*
X346015Y279853D01*
X346924Y280599D01*
X346926Y280606D01*
X346931Y280606D01*
X347677Y281515D01*
X347677Y281523D01*
X347682Y281523D01*
X348237Y282561D01*
X348236Y282568D01*
X348240Y282570D01*
X348357Y282954D01*
X348551Y283595D01*
X348582Y283695D01*
X348579Y283702D01*
X348584Y283705D01*
X348699Y284875D01*
X348697Y284878D01*
X348699Y284880D01*
X348699Y294880D01*
X348697Y294883D01*
X348699Y294885D01*
X348584Y296055D01*
X348579Y296061D01*
X348582Y296065D01*
X348240Y297190D01*
X348235Y297195D01*
X348237Y297199D01*
X347682Y298237D01*
X347676Y298240D01*
X347677Y298245D01*
X346931Y299154D01*
X346924Y299156D01*
X346924Y299161D01*
X346015Y299907D01*
X346007Y299907D01*
X346007Y299912D01*
X344969Y300467D01*
X344962Y300466D01*
X344960Y300470D01*
X343835Y300812D01*
X343828Y300809D01*
X343825Y300814D01*
X342655Y300929D01*
X342649Y300925D01*
X342645Y300929D01*
X341475Y300814D01*
X341469Y300809D01*
X341465Y300812D01*
X340340Y300470D01*
X340335Y300465D01*
X340331Y300467D01*
X339293Y299912D01*
X339290Y299906D01*
X339285Y299907D01*
X338376Y299161D01*
X338374Y299154D01*
X338369Y299154D01*
X337623Y298245D01*
X337623Y298237D01*
X337618Y298237D01*
X337063Y297199D01*
X337064Y297192D01*
X337060Y297190D01*
X336917Y296722D01*
X336903Y296673D01*
X336723Y296082D01*
X336718Y296065D01*
X336721Y296058D01*
X336716Y296055D01*
X336601Y294885D01*
X336603Y294882D01*
X336601Y294880D01*
X336601Y284880D01*
X336603Y284877D01*
X336601Y284875D01*
X336716Y283705D01*
X336721Y283699D01*
X336718Y283695D01*
X337060Y282570D01*
X337065Y282565D01*
X337063Y282561D01*
X337618Y281523D01*
X337624Y281520D01*
X337623Y281515D01*
X338369Y280606D01*
X338376Y280604D01*
X338376Y280599D01*
X339285Y279853D01*
X339293Y279853D01*
X339293Y279848D01*
X340331Y279293D01*
X340338Y279294D01*
X340340Y279290D01*
X341465Y278948D01*
X341472Y278951D01*
X341475Y278946D01*
X342645Y278831D01*
X342651Y278835D01*
X342655Y278831D01*
X343825Y278946D01*
G37*
G36*
X13625Y278946D02*
X13625Y278946D01*
X13631Y278951D01*
X13635Y278948D01*
X14760Y279290D01*
X14765Y279295D01*
X14769Y279293D01*
X15807Y279848D01*
X15810Y279854D01*
X15815Y279853D01*
X16724Y280599D01*
X16726Y280606D01*
X16731Y280606D01*
X17477Y281515D01*
X17477Y281523D01*
X17482Y281523D01*
X18037Y282561D01*
X18036Y282568D01*
X18040Y282570D01*
X18157Y282954D01*
X18351Y283595D01*
X18382Y283695D01*
X18379Y283702D01*
X18384Y283705D01*
X18499Y284875D01*
X18497Y284878D01*
X18499Y284880D01*
X18499Y294880D01*
X18497Y294883D01*
X18499Y294885D01*
X18384Y296055D01*
X18379Y296061D01*
X18382Y296065D01*
X18040Y297190D01*
X18035Y297195D01*
X18037Y297199D01*
X17482Y298237D01*
X17476Y298240D01*
X17477Y298245D01*
X16731Y299154D01*
X16724Y299156D01*
X16724Y299161D01*
X15815Y299907D01*
X15807Y299907D01*
X15807Y299912D01*
X14769Y300467D01*
X14762Y300466D01*
X14760Y300470D01*
X13635Y300812D01*
X13628Y300809D01*
X13625Y300814D01*
X12455Y300929D01*
X12449Y300925D01*
X12445Y300929D01*
X11275Y300814D01*
X11269Y300809D01*
X11265Y300812D01*
X10140Y300470D01*
X10135Y300465D01*
X10131Y300467D01*
X9093Y299912D01*
X9090Y299906D01*
X9085Y299907D01*
X8176Y299161D01*
X8174Y299154D01*
X8169Y299154D01*
X7423Y298245D01*
X7423Y298237D01*
X7418Y298237D01*
X6863Y297199D01*
X6864Y297192D01*
X6860Y297190D01*
X6717Y296722D01*
X6703Y296673D01*
X6523Y296082D01*
X6518Y296065D01*
X6521Y296058D01*
X6516Y296055D01*
X6401Y294885D01*
X6403Y294882D01*
X6401Y294880D01*
X6401Y284880D01*
X6403Y284877D01*
X6401Y284875D01*
X6516Y283705D01*
X6521Y283699D01*
X6518Y283695D01*
X6860Y282570D01*
X6865Y282565D01*
X6863Y282561D01*
X7418Y281523D01*
X7424Y281520D01*
X7423Y281515D01*
X8169Y280606D01*
X8176Y280604D01*
X8176Y280599D01*
X9085Y279853D01*
X9093Y279853D01*
X9093Y279848D01*
X10131Y279293D01*
X10138Y279294D01*
X10140Y279290D01*
X11265Y278948D01*
X11272Y278951D01*
X11275Y278946D01*
X12445Y278831D01*
X12451Y278835D01*
X12455Y278831D01*
X13625Y278946D01*
G37*
G36*
X508925Y278946D02*
X508925Y278946D01*
X508931Y278951D01*
X508935Y278948D01*
X510060Y279290D01*
X510065Y279295D01*
X510069Y279293D01*
X511107Y279848D01*
X511110Y279854D01*
X511115Y279853D01*
X512024Y280599D01*
X512026Y280606D01*
X512031Y280606D01*
X512777Y281515D01*
X512777Y281523D01*
X512782Y281523D01*
X513337Y282561D01*
X513336Y282568D01*
X513340Y282570D01*
X513457Y282954D01*
X513651Y283595D01*
X513682Y283695D01*
X513679Y283702D01*
X513684Y283705D01*
X513799Y284875D01*
X513797Y284878D01*
X513799Y284880D01*
X513799Y294880D01*
X513797Y294883D01*
X513799Y294885D01*
X513684Y296055D01*
X513679Y296061D01*
X513682Y296065D01*
X513340Y297190D01*
X513335Y297195D01*
X513337Y297199D01*
X512782Y298237D01*
X512776Y298240D01*
X512777Y298245D01*
X512031Y299154D01*
X512024Y299156D01*
X512024Y299161D01*
X511115Y299907D01*
X511107Y299907D01*
X511107Y299912D01*
X510069Y300467D01*
X510062Y300466D01*
X510060Y300470D01*
X508935Y300812D01*
X508928Y300809D01*
X508925Y300814D01*
X507755Y300929D01*
X507749Y300925D01*
X507745Y300929D01*
X506575Y300814D01*
X506569Y300809D01*
X506565Y300812D01*
X505440Y300470D01*
X505435Y300465D01*
X505431Y300467D01*
X504393Y299912D01*
X504390Y299906D01*
X504385Y299907D01*
X503476Y299161D01*
X503474Y299154D01*
X503469Y299154D01*
X502723Y298245D01*
X502723Y298237D01*
X502718Y298237D01*
X502163Y297199D01*
X502164Y297192D01*
X502160Y297190D01*
X502017Y296722D01*
X502003Y296673D01*
X501823Y296082D01*
X501818Y296065D01*
X501821Y296058D01*
X501816Y296055D01*
X501701Y294885D01*
X501703Y294882D01*
X501701Y294880D01*
X501701Y284880D01*
X501703Y284877D01*
X501701Y284875D01*
X501816Y283705D01*
X501821Y283699D01*
X501818Y283695D01*
X502160Y282570D01*
X502165Y282565D01*
X502163Y282561D01*
X502718Y281523D01*
X502724Y281520D01*
X502723Y281515D01*
X503469Y280606D01*
X503476Y280604D01*
X503476Y280599D01*
X504385Y279853D01*
X504393Y279853D01*
X504393Y279848D01*
X505431Y279293D01*
X505438Y279294D01*
X505440Y279290D01*
X506565Y278948D01*
X506572Y278951D01*
X506575Y278946D01*
X507745Y278831D01*
X507751Y278835D01*
X507755Y278831D01*
X508925Y278946D01*
G37*
G36*
X178725Y278946D02*
X178725Y278946D01*
X178731Y278951D01*
X178735Y278948D01*
X179860Y279290D01*
X179865Y279295D01*
X179869Y279293D01*
X180907Y279848D01*
X180910Y279854D01*
X180915Y279853D01*
X181824Y280599D01*
X181826Y280606D01*
X181831Y280606D01*
X182577Y281515D01*
X182577Y281523D01*
X182582Y281523D01*
X183137Y282561D01*
X183136Y282568D01*
X183140Y282570D01*
X183257Y282954D01*
X183451Y283595D01*
X183482Y283695D01*
X183479Y283702D01*
X183484Y283705D01*
X183599Y284875D01*
X183597Y284878D01*
X183599Y284880D01*
X183599Y294880D01*
X183597Y294883D01*
X183599Y294885D01*
X183484Y296055D01*
X183479Y296061D01*
X183482Y296065D01*
X183140Y297190D01*
X183135Y297195D01*
X183137Y297199D01*
X182582Y298237D01*
X182576Y298240D01*
X182577Y298245D01*
X181831Y299154D01*
X181824Y299156D01*
X181824Y299161D01*
X180915Y299907D01*
X180907Y299907D01*
X180907Y299912D01*
X179869Y300467D01*
X179862Y300466D01*
X179860Y300470D01*
X178735Y300812D01*
X178728Y300809D01*
X178725Y300814D01*
X177555Y300929D01*
X177549Y300925D01*
X177545Y300929D01*
X176375Y300814D01*
X176369Y300809D01*
X176365Y300812D01*
X175240Y300470D01*
X175235Y300465D01*
X175231Y300467D01*
X174193Y299912D01*
X174190Y299906D01*
X174185Y299907D01*
X173276Y299161D01*
X173274Y299154D01*
X173269Y299154D01*
X172523Y298245D01*
X172523Y298237D01*
X172518Y298237D01*
X171963Y297199D01*
X171964Y297192D01*
X171960Y297190D01*
X171817Y296722D01*
X171803Y296673D01*
X171623Y296082D01*
X171618Y296065D01*
X171621Y296058D01*
X171616Y296055D01*
X171501Y294885D01*
X171503Y294882D01*
X171501Y294880D01*
X171501Y284880D01*
X171503Y284877D01*
X171501Y284875D01*
X171616Y283705D01*
X171621Y283699D01*
X171618Y283695D01*
X171960Y282570D01*
X171965Y282565D01*
X171963Y282561D01*
X172518Y281523D01*
X172524Y281520D01*
X172523Y281515D01*
X173269Y280606D01*
X173276Y280604D01*
X173276Y280599D01*
X174185Y279853D01*
X174193Y279853D01*
X174193Y279848D01*
X175231Y279293D01*
X175238Y279294D01*
X175240Y279290D01*
X176365Y278948D01*
X176372Y278951D01*
X176375Y278946D01*
X177545Y278831D01*
X177551Y278835D01*
X177555Y278831D01*
X178725Y278946D01*
G37*
G36*
X712625Y278946D02*
X712625Y278946D01*
X712631Y278951D01*
X712635Y278948D01*
X713760Y279290D01*
X713765Y279295D01*
X713769Y279293D01*
X714807Y279848D01*
X714810Y279854D01*
X714815Y279853D01*
X715724Y280599D01*
X715726Y280606D01*
X715731Y280606D01*
X716477Y281515D01*
X716477Y281523D01*
X716482Y281523D01*
X717037Y282561D01*
X717036Y282568D01*
X717040Y282570D01*
X717157Y282954D01*
X717351Y283595D01*
X717382Y283695D01*
X717379Y283702D01*
X717384Y283705D01*
X717499Y284875D01*
X717497Y284878D01*
X717499Y284880D01*
X717499Y294880D01*
X717497Y294883D01*
X717499Y294885D01*
X717384Y296055D01*
X717379Y296061D01*
X717382Y296065D01*
X717040Y297190D01*
X717035Y297195D01*
X717037Y297199D01*
X716482Y298237D01*
X716476Y298240D01*
X716477Y298245D01*
X715731Y299154D01*
X715724Y299156D01*
X715724Y299161D01*
X714815Y299907D01*
X714807Y299907D01*
X714807Y299912D01*
X713769Y300467D01*
X713762Y300466D01*
X713760Y300470D01*
X712635Y300812D01*
X712628Y300809D01*
X712625Y300814D01*
X711455Y300929D01*
X711449Y300925D01*
X711445Y300929D01*
X710275Y300814D01*
X710269Y300809D01*
X710265Y300812D01*
X709140Y300470D01*
X709135Y300465D01*
X709131Y300467D01*
X708093Y299912D01*
X708090Y299906D01*
X708085Y299907D01*
X707176Y299161D01*
X707174Y299154D01*
X707169Y299154D01*
X706423Y298245D01*
X706423Y298237D01*
X706418Y298237D01*
X705863Y297199D01*
X705864Y297192D01*
X705860Y297190D01*
X705717Y296722D01*
X705703Y296673D01*
X705523Y296082D01*
X705518Y296065D01*
X705521Y296058D01*
X705516Y296055D01*
X705401Y294885D01*
X705403Y294882D01*
X705401Y294880D01*
X705401Y284880D01*
X705403Y284877D01*
X705401Y284875D01*
X705516Y283705D01*
X705521Y283699D01*
X705518Y283695D01*
X705860Y282570D01*
X705865Y282565D01*
X705863Y282561D01*
X706418Y281523D01*
X706424Y281520D01*
X706423Y281515D01*
X707169Y280606D01*
X707176Y280604D01*
X707176Y280599D01*
X708085Y279853D01*
X708093Y279853D01*
X708093Y279848D01*
X709131Y279293D01*
X709138Y279294D01*
X709140Y279290D01*
X710265Y278948D01*
X710272Y278951D01*
X710275Y278946D01*
X711445Y278831D01*
X711451Y278835D01*
X711455Y278831D01*
X712625Y278946D01*
G37*
G36*
X547525Y278946D02*
X547525Y278946D01*
X547531Y278951D01*
X547535Y278948D01*
X548660Y279290D01*
X548665Y279295D01*
X548669Y279293D01*
X549707Y279848D01*
X549710Y279854D01*
X549715Y279853D01*
X550624Y280599D01*
X550626Y280606D01*
X550631Y280606D01*
X551377Y281515D01*
X551377Y281523D01*
X551382Y281523D01*
X551937Y282561D01*
X551936Y282568D01*
X551940Y282570D01*
X552057Y282954D01*
X552251Y283595D01*
X552282Y283695D01*
X552279Y283702D01*
X552284Y283705D01*
X552399Y284875D01*
X552397Y284878D01*
X552399Y284880D01*
X552399Y294880D01*
X552397Y294883D01*
X552399Y294885D01*
X552284Y296055D01*
X552279Y296061D01*
X552282Y296065D01*
X551940Y297190D01*
X551935Y297195D01*
X551937Y297199D01*
X551382Y298237D01*
X551376Y298240D01*
X551377Y298245D01*
X550631Y299154D01*
X550624Y299156D01*
X550624Y299161D01*
X549715Y299907D01*
X549707Y299907D01*
X549707Y299912D01*
X548669Y300467D01*
X548662Y300466D01*
X548660Y300470D01*
X547535Y300812D01*
X547528Y300809D01*
X547525Y300814D01*
X546355Y300929D01*
X546349Y300925D01*
X546345Y300929D01*
X545175Y300814D01*
X545169Y300809D01*
X545165Y300812D01*
X544040Y300470D01*
X544035Y300465D01*
X544031Y300467D01*
X542993Y299912D01*
X542990Y299906D01*
X542985Y299907D01*
X542076Y299161D01*
X542074Y299154D01*
X542069Y299154D01*
X541323Y298245D01*
X541323Y298237D01*
X541318Y298237D01*
X540763Y297199D01*
X540764Y297192D01*
X540760Y297190D01*
X540617Y296722D01*
X540603Y296673D01*
X540423Y296082D01*
X540418Y296065D01*
X540421Y296058D01*
X540416Y296055D01*
X540301Y294885D01*
X540303Y294882D01*
X540301Y294880D01*
X540301Y284880D01*
X540303Y284877D01*
X540301Y284875D01*
X540416Y283705D01*
X540421Y283699D01*
X540418Y283695D01*
X540760Y282570D01*
X540765Y282565D01*
X540763Y282561D01*
X541318Y281523D01*
X541324Y281520D01*
X541323Y281515D01*
X542069Y280606D01*
X542076Y280604D01*
X542076Y280599D01*
X542985Y279853D01*
X542993Y279853D01*
X542993Y279848D01*
X544031Y279293D01*
X544038Y279294D01*
X544040Y279290D01*
X545165Y278948D01*
X545172Y278951D01*
X545175Y278946D01*
X546345Y278831D01*
X546351Y278835D01*
X546355Y278831D01*
X547525Y278946D01*
G37*
G36*
X674025Y278946D02*
X674025Y278946D01*
X674031Y278951D01*
X674035Y278948D01*
X675160Y279290D01*
X675165Y279295D01*
X675169Y279293D01*
X676207Y279848D01*
X676210Y279854D01*
X676215Y279853D01*
X677124Y280599D01*
X677126Y280606D01*
X677131Y280606D01*
X677877Y281515D01*
X677877Y281523D01*
X677882Y281523D01*
X678437Y282561D01*
X678436Y282568D01*
X678440Y282570D01*
X678557Y282954D01*
X678751Y283595D01*
X678782Y283695D01*
X678779Y283702D01*
X678784Y283705D01*
X678899Y284875D01*
X678897Y284878D01*
X678899Y284880D01*
X678899Y294880D01*
X678897Y294883D01*
X678899Y294885D01*
X678784Y296055D01*
X678779Y296061D01*
X678782Y296065D01*
X678440Y297190D01*
X678435Y297195D01*
X678437Y297199D01*
X677882Y298237D01*
X677876Y298240D01*
X677877Y298245D01*
X677131Y299154D01*
X677124Y299156D01*
X677124Y299161D01*
X676215Y299907D01*
X676207Y299907D01*
X676207Y299912D01*
X675169Y300467D01*
X675162Y300466D01*
X675160Y300470D01*
X674035Y300812D01*
X674028Y300809D01*
X674025Y300814D01*
X672855Y300929D01*
X672849Y300925D01*
X672845Y300929D01*
X671675Y300814D01*
X671669Y300809D01*
X671665Y300812D01*
X670540Y300470D01*
X670535Y300465D01*
X670531Y300467D01*
X669493Y299912D01*
X669490Y299906D01*
X669485Y299907D01*
X668576Y299161D01*
X668574Y299154D01*
X668569Y299154D01*
X667823Y298245D01*
X667823Y298237D01*
X667818Y298237D01*
X667263Y297199D01*
X667264Y297192D01*
X667260Y297190D01*
X667117Y296722D01*
X667103Y296673D01*
X666923Y296082D01*
X666918Y296065D01*
X666921Y296058D01*
X666916Y296055D01*
X666801Y294885D01*
X666803Y294882D01*
X666801Y294880D01*
X666801Y284880D01*
X666803Y284877D01*
X666801Y284875D01*
X666916Y283705D01*
X666921Y283699D01*
X666918Y283695D01*
X667260Y282570D01*
X667265Y282565D01*
X667263Y282561D01*
X667818Y281523D01*
X667824Y281520D01*
X667823Y281515D01*
X668569Y280606D01*
X668576Y280604D01*
X668576Y280599D01*
X669485Y279853D01*
X669493Y279853D01*
X669493Y279848D01*
X670531Y279293D01*
X670538Y279294D01*
X670540Y279290D01*
X671665Y278948D01*
X671672Y278951D01*
X671675Y278946D01*
X672845Y278831D01*
X672851Y278835D01*
X672855Y278831D01*
X674025Y278946D01*
G37*
G36*
X52225Y278946D02*
X52225Y278946D01*
X52231Y278951D01*
X52235Y278948D01*
X53360Y279290D01*
X53365Y279295D01*
X53369Y279293D01*
X54407Y279848D01*
X54410Y279854D01*
X54415Y279853D01*
X55324Y280599D01*
X55326Y280606D01*
X55331Y280606D01*
X56077Y281515D01*
X56077Y281523D01*
X56082Y281523D01*
X56637Y282561D01*
X56636Y282568D01*
X56640Y282570D01*
X56757Y282954D01*
X56951Y283595D01*
X56982Y283695D01*
X56979Y283702D01*
X56984Y283705D01*
X57099Y284875D01*
X57097Y284878D01*
X57099Y284880D01*
X57099Y294880D01*
X57097Y294883D01*
X57099Y294885D01*
X56984Y296055D01*
X56979Y296061D01*
X56982Y296065D01*
X56640Y297190D01*
X56635Y297195D01*
X56637Y297199D01*
X56082Y298237D01*
X56076Y298240D01*
X56077Y298245D01*
X55331Y299154D01*
X55324Y299156D01*
X55324Y299161D01*
X54415Y299907D01*
X54407Y299907D01*
X54407Y299912D01*
X53369Y300467D01*
X53362Y300466D01*
X53360Y300470D01*
X52235Y300812D01*
X52228Y300809D01*
X52225Y300814D01*
X51055Y300929D01*
X51049Y300925D01*
X51045Y300929D01*
X49875Y300814D01*
X49869Y300809D01*
X49865Y300812D01*
X48740Y300470D01*
X48735Y300465D01*
X48731Y300467D01*
X47693Y299912D01*
X47690Y299906D01*
X47685Y299907D01*
X46776Y299161D01*
X46774Y299154D01*
X46769Y299154D01*
X46023Y298245D01*
X46023Y298237D01*
X46018Y298237D01*
X45463Y297199D01*
X45464Y297192D01*
X45460Y297190D01*
X45317Y296722D01*
X45303Y296673D01*
X45123Y296082D01*
X45118Y296065D01*
X45121Y296058D01*
X45116Y296055D01*
X45001Y294885D01*
X45003Y294882D01*
X45001Y294880D01*
X45001Y284880D01*
X45003Y284877D01*
X45001Y284875D01*
X45116Y283705D01*
X45121Y283699D01*
X45118Y283695D01*
X45460Y282570D01*
X45465Y282565D01*
X45463Y282561D01*
X46018Y281523D01*
X46024Y281520D01*
X46023Y281515D01*
X46769Y280606D01*
X46776Y280604D01*
X46776Y280599D01*
X47685Y279853D01*
X47693Y279853D01*
X47693Y279848D01*
X48731Y279293D01*
X48738Y279294D01*
X48740Y279290D01*
X49865Y278948D01*
X49872Y278951D01*
X49875Y278946D01*
X51045Y278831D01*
X51051Y278835D01*
X51055Y278831D01*
X52225Y278946D01*
G37*
G36*
X508925Y110666D02*
X508925Y110666D01*
X508931Y110671D01*
X508935Y110668D01*
X510060Y111010D01*
X510065Y111015D01*
X510069Y111013D01*
X511107Y111568D01*
X511110Y111574D01*
X511115Y111573D01*
X512024Y112319D01*
X512026Y112326D01*
X512031Y112326D01*
X512777Y113235D01*
X512777Y113243D01*
X512782Y113243D01*
X513337Y114281D01*
X513336Y114288D01*
X513340Y114290D01*
X513457Y114674D01*
X513651Y115315D01*
X513682Y115415D01*
X513679Y115422D01*
X513684Y115425D01*
X513799Y116595D01*
X513797Y116598D01*
X513799Y116600D01*
X513799Y126600D01*
X513797Y126603D01*
X513799Y126605D01*
X513684Y127775D01*
X513679Y127781D01*
X513682Y127785D01*
X513340Y128910D01*
X513335Y128915D01*
X513337Y128919D01*
X512782Y129957D01*
X512776Y129960D01*
X512777Y129965D01*
X512031Y130874D01*
X512024Y130876D01*
X512024Y130881D01*
X511115Y131627D01*
X511107Y131627D01*
X511107Y131632D01*
X510069Y132187D01*
X510062Y132186D01*
X510060Y132190D01*
X508935Y132532D01*
X508928Y132529D01*
X508925Y132534D01*
X507755Y132649D01*
X507749Y132645D01*
X507745Y132649D01*
X506575Y132534D01*
X506569Y132529D01*
X506565Y132532D01*
X505440Y132190D01*
X505435Y132185D01*
X505431Y132187D01*
X504393Y131632D01*
X504390Y131626D01*
X504385Y131627D01*
X503476Y130881D01*
X503474Y130874D01*
X503469Y130874D01*
X502723Y129965D01*
X502723Y129957D01*
X502718Y129957D01*
X502163Y128919D01*
X502164Y128912D01*
X502160Y128910D01*
X502017Y128442D01*
X502003Y128393D01*
X501823Y127802D01*
X501818Y127785D01*
X501821Y127778D01*
X501816Y127775D01*
X501701Y126605D01*
X501703Y126602D01*
X501701Y126600D01*
X501701Y116600D01*
X501703Y116597D01*
X501701Y116595D01*
X501816Y115425D01*
X501821Y115419D01*
X501818Y115415D01*
X502160Y114290D01*
X502165Y114285D01*
X502163Y114281D01*
X502718Y113243D01*
X502724Y113240D01*
X502723Y113235D01*
X503469Y112326D01*
X503476Y112324D01*
X503476Y112319D01*
X504385Y111573D01*
X504393Y111573D01*
X504393Y111568D01*
X505431Y111013D01*
X505438Y111014D01*
X505440Y111010D01*
X506565Y110668D01*
X506572Y110671D01*
X506575Y110666D01*
X507745Y110551D01*
X507751Y110555D01*
X507755Y110551D01*
X508925Y110666D01*
G37*
G36*
X217325Y110666D02*
X217325Y110666D01*
X217331Y110671D01*
X217335Y110668D01*
X218460Y111010D01*
X218465Y111015D01*
X218469Y111013D01*
X219507Y111568D01*
X219510Y111574D01*
X219515Y111573D01*
X220424Y112319D01*
X220426Y112326D01*
X220431Y112326D01*
X221177Y113235D01*
X221177Y113243D01*
X221182Y113243D01*
X221737Y114281D01*
X221736Y114288D01*
X221740Y114290D01*
X221857Y114674D01*
X222051Y115315D01*
X222082Y115415D01*
X222079Y115422D01*
X222084Y115425D01*
X222199Y116595D01*
X222197Y116598D01*
X222199Y116600D01*
X222199Y126600D01*
X222197Y126603D01*
X222199Y126605D01*
X222084Y127775D01*
X222079Y127781D01*
X222082Y127785D01*
X221740Y128910D01*
X221735Y128915D01*
X221737Y128919D01*
X221182Y129957D01*
X221176Y129960D01*
X221177Y129965D01*
X220431Y130874D01*
X220424Y130876D01*
X220424Y130881D01*
X219515Y131627D01*
X219507Y131627D01*
X219507Y131632D01*
X218469Y132187D01*
X218462Y132186D01*
X218460Y132190D01*
X217335Y132532D01*
X217328Y132529D01*
X217325Y132534D01*
X216155Y132649D01*
X216149Y132645D01*
X216145Y132649D01*
X214975Y132534D01*
X214969Y132529D01*
X214965Y132532D01*
X213840Y132190D01*
X213835Y132185D01*
X213831Y132187D01*
X212793Y131632D01*
X212790Y131626D01*
X212785Y131627D01*
X211876Y130881D01*
X211874Y130874D01*
X211869Y130874D01*
X211123Y129965D01*
X211123Y129957D01*
X211118Y129957D01*
X210563Y128919D01*
X210564Y128912D01*
X210560Y128910D01*
X210417Y128442D01*
X210403Y128393D01*
X210223Y127802D01*
X210218Y127785D01*
X210221Y127778D01*
X210216Y127775D01*
X210101Y126605D01*
X210103Y126602D01*
X210101Y126600D01*
X210101Y116600D01*
X210103Y116597D01*
X210101Y116595D01*
X210216Y115425D01*
X210221Y115419D01*
X210218Y115415D01*
X210560Y114290D01*
X210565Y114285D01*
X210563Y114281D01*
X211118Y113243D01*
X211124Y113240D01*
X211123Y113235D01*
X211869Y112326D01*
X211876Y112324D01*
X211876Y112319D01*
X212785Y111573D01*
X212793Y111573D01*
X212793Y111568D01*
X213831Y111013D01*
X213838Y111014D01*
X213840Y111010D01*
X214965Y110668D01*
X214972Y110671D01*
X214975Y110666D01*
X216145Y110551D01*
X216151Y110555D01*
X216155Y110551D01*
X217325Y110666D01*
G37*
G36*
X712625Y110666D02*
X712625Y110666D01*
X712631Y110671D01*
X712635Y110668D01*
X713760Y111010D01*
X713765Y111015D01*
X713769Y111013D01*
X714807Y111568D01*
X714810Y111574D01*
X714815Y111573D01*
X715724Y112319D01*
X715726Y112326D01*
X715731Y112326D01*
X716477Y113235D01*
X716477Y113243D01*
X716482Y113243D01*
X717037Y114281D01*
X717036Y114288D01*
X717040Y114290D01*
X717157Y114674D01*
X717351Y115315D01*
X717382Y115415D01*
X717379Y115422D01*
X717384Y115425D01*
X717499Y116595D01*
X717497Y116598D01*
X717499Y116600D01*
X717499Y126600D01*
X717497Y126603D01*
X717499Y126605D01*
X717384Y127775D01*
X717379Y127781D01*
X717382Y127785D01*
X717040Y128910D01*
X717035Y128915D01*
X717037Y128919D01*
X716482Y129957D01*
X716476Y129960D01*
X716477Y129965D01*
X715731Y130874D01*
X715724Y130876D01*
X715724Y130881D01*
X714815Y131627D01*
X714807Y131627D01*
X714807Y131632D01*
X713769Y132187D01*
X713762Y132186D01*
X713760Y132190D01*
X712635Y132532D01*
X712628Y132529D01*
X712625Y132534D01*
X711455Y132649D01*
X711449Y132645D01*
X711445Y132649D01*
X710275Y132534D01*
X710269Y132529D01*
X710265Y132532D01*
X709140Y132190D01*
X709135Y132185D01*
X709131Y132187D01*
X708093Y131632D01*
X708090Y131626D01*
X708085Y131627D01*
X707176Y130881D01*
X707174Y130874D01*
X707169Y130874D01*
X706423Y129965D01*
X706423Y129957D01*
X706418Y129957D01*
X705863Y128919D01*
X705864Y128912D01*
X705860Y128910D01*
X705717Y128442D01*
X705703Y128393D01*
X705523Y127802D01*
X705518Y127785D01*
X705521Y127778D01*
X705516Y127775D01*
X705401Y126605D01*
X705403Y126602D01*
X705401Y126600D01*
X705401Y116600D01*
X705403Y116597D01*
X705401Y116595D01*
X705516Y115425D01*
X705521Y115419D01*
X705518Y115415D01*
X705860Y114290D01*
X705865Y114285D01*
X705863Y114281D01*
X706418Y113243D01*
X706424Y113240D01*
X706423Y113235D01*
X707169Y112326D01*
X707176Y112324D01*
X707176Y112319D01*
X708085Y111573D01*
X708093Y111573D01*
X708093Y111568D01*
X709131Y111013D01*
X709138Y111014D01*
X709140Y111010D01*
X710265Y110668D01*
X710272Y110671D01*
X710275Y110666D01*
X711445Y110551D01*
X711451Y110555D01*
X711455Y110551D01*
X712625Y110666D01*
G37*
G36*
X13625Y110666D02*
X13625Y110666D01*
X13631Y110671D01*
X13635Y110668D01*
X14760Y111010D01*
X14765Y111015D01*
X14769Y111013D01*
X15807Y111568D01*
X15810Y111574D01*
X15815Y111573D01*
X16724Y112319D01*
X16726Y112326D01*
X16731Y112326D01*
X17477Y113235D01*
X17477Y113243D01*
X17482Y113243D01*
X18037Y114281D01*
X18036Y114288D01*
X18040Y114290D01*
X18157Y114674D01*
X18351Y115315D01*
X18382Y115415D01*
X18379Y115422D01*
X18384Y115425D01*
X18499Y116595D01*
X18497Y116598D01*
X18499Y116600D01*
X18499Y126600D01*
X18497Y126603D01*
X18499Y126605D01*
X18384Y127775D01*
X18379Y127781D01*
X18382Y127785D01*
X18040Y128910D01*
X18035Y128915D01*
X18037Y128919D01*
X17482Y129957D01*
X17476Y129960D01*
X17477Y129965D01*
X16731Y130874D01*
X16724Y130876D01*
X16724Y130881D01*
X15815Y131627D01*
X15807Y131627D01*
X15807Y131632D01*
X14769Y132187D01*
X14762Y132186D01*
X14760Y132190D01*
X13635Y132532D01*
X13628Y132529D01*
X13625Y132534D01*
X12455Y132649D01*
X12449Y132645D01*
X12445Y132649D01*
X11275Y132534D01*
X11269Y132529D01*
X11265Y132532D01*
X10140Y132190D01*
X10135Y132185D01*
X10131Y132187D01*
X9093Y131632D01*
X9090Y131626D01*
X9085Y131627D01*
X8176Y130881D01*
X8174Y130874D01*
X8169Y130874D01*
X7423Y129965D01*
X7423Y129957D01*
X7418Y129957D01*
X6863Y128919D01*
X6864Y128912D01*
X6860Y128910D01*
X6717Y128442D01*
X6703Y128393D01*
X6523Y127802D01*
X6518Y127785D01*
X6521Y127778D01*
X6516Y127775D01*
X6401Y126605D01*
X6403Y126602D01*
X6401Y126600D01*
X6401Y116600D01*
X6403Y116597D01*
X6401Y116595D01*
X6516Y115425D01*
X6521Y115419D01*
X6518Y115415D01*
X6860Y114290D01*
X6865Y114285D01*
X6863Y114281D01*
X7418Y113243D01*
X7424Y113240D01*
X7423Y113235D01*
X8169Y112326D01*
X8176Y112324D01*
X8176Y112319D01*
X9085Y111573D01*
X9093Y111573D01*
X9093Y111568D01*
X10131Y111013D01*
X10138Y111014D01*
X10140Y111010D01*
X11265Y110668D01*
X11272Y110671D01*
X11275Y110666D01*
X12445Y110551D01*
X12451Y110555D01*
X12455Y110551D01*
X13625Y110666D01*
G37*
G36*
X382425Y110666D02*
X382425Y110666D01*
X382431Y110671D01*
X382435Y110668D01*
X383560Y111010D01*
X383565Y111015D01*
X383569Y111013D01*
X384607Y111568D01*
X384610Y111574D01*
X384615Y111573D01*
X385524Y112319D01*
X385526Y112326D01*
X385531Y112326D01*
X386277Y113235D01*
X386277Y113243D01*
X386282Y113243D01*
X386837Y114281D01*
X386836Y114288D01*
X386840Y114290D01*
X386957Y114674D01*
X387151Y115315D01*
X387182Y115415D01*
X387179Y115422D01*
X387184Y115425D01*
X387299Y116595D01*
X387297Y116598D01*
X387299Y116600D01*
X387299Y126600D01*
X387297Y126603D01*
X387299Y126605D01*
X387184Y127775D01*
X387179Y127781D01*
X387182Y127785D01*
X386840Y128910D01*
X386835Y128915D01*
X386837Y128919D01*
X386282Y129957D01*
X386276Y129960D01*
X386277Y129965D01*
X385531Y130874D01*
X385524Y130876D01*
X385524Y130881D01*
X384615Y131627D01*
X384607Y131627D01*
X384607Y131632D01*
X383569Y132187D01*
X383562Y132186D01*
X383560Y132190D01*
X382435Y132532D01*
X382428Y132529D01*
X382425Y132534D01*
X381255Y132649D01*
X381249Y132645D01*
X381245Y132649D01*
X380075Y132534D01*
X380069Y132529D01*
X380065Y132532D01*
X378940Y132190D01*
X378935Y132185D01*
X378931Y132187D01*
X377893Y131632D01*
X377890Y131626D01*
X377885Y131627D01*
X376976Y130881D01*
X376974Y130874D01*
X376969Y130874D01*
X376223Y129965D01*
X376223Y129957D01*
X376218Y129957D01*
X375663Y128919D01*
X375664Y128912D01*
X375660Y128910D01*
X375517Y128442D01*
X375503Y128393D01*
X375323Y127802D01*
X375318Y127785D01*
X375321Y127778D01*
X375316Y127775D01*
X375201Y126605D01*
X375203Y126602D01*
X375201Y126600D01*
X375201Y116600D01*
X375203Y116597D01*
X375201Y116595D01*
X375316Y115425D01*
X375321Y115419D01*
X375318Y115415D01*
X375660Y114290D01*
X375665Y114285D01*
X375663Y114281D01*
X376218Y113243D01*
X376224Y113240D01*
X376223Y113235D01*
X376969Y112326D01*
X376976Y112324D01*
X376976Y112319D01*
X377885Y111573D01*
X377893Y111573D01*
X377893Y111568D01*
X378931Y111013D01*
X378938Y111014D01*
X378940Y111010D01*
X380065Y110668D01*
X380072Y110671D01*
X380075Y110666D01*
X381245Y110551D01*
X381251Y110555D01*
X381255Y110551D01*
X382425Y110666D01*
G37*
G36*
X343825Y110666D02*
X343825Y110666D01*
X343831Y110671D01*
X343835Y110668D01*
X344960Y111010D01*
X344965Y111015D01*
X344969Y111013D01*
X346007Y111568D01*
X346010Y111574D01*
X346015Y111573D01*
X346924Y112319D01*
X346926Y112326D01*
X346931Y112326D01*
X347677Y113235D01*
X347677Y113243D01*
X347682Y113243D01*
X348237Y114281D01*
X348236Y114288D01*
X348240Y114290D01*
X348357Y114674D01*
X348551Y115315D01*
X348582Y115415D01*
X348579Y115422D01*
X348584Y115425D01*
X348699Y116595D01*
X348697Y116598D01*
X348699Y116600D01*
X348699Y126600D01*
X348697Y126603D01*
X348699Y126605D01*
X348584Y127775D01*
X348579Y127781D01*
X348582Y127785D01*
X348240Y128910D01*
X348235Y128915D01*
X348237Y128919D01*
X347682Y129957D01*
X347676Y129960D01*
X347677Y129965D01*
X346931Y130874D01*
X346924Y130876D01*
X346924Y130881D01*
X346015Y131627D01*
X346007Y131627D01*
X346007Y131632D01*
X344969Y132187D01*
X344962Y132186D01*
X344960Y132190D01*
X343835Y132532D01*
X343828Y132529D01*
X343825Y132534D01*
X342655Y132649D01*
X342649Y132645D01*
X342645Y132649D01*
X341475Y132534D01*
X341469Y132529D01*
X341465Y132532D01*
X340340Y132190D01*
X340335Y132185D01*
X340331Y132187D01*
X339293Y131632D01*
X339290Y131626D01*
X339285Y131627D01*
X338376Y130881D01*
X338374Y130874D01*
X338369Y130874D01*
X337623Y129965D01*
X337623Y129957D01*
X337618Y129957D01*
X337063Y128919D01*
X337064Y128912D01*
X337060Y128910D01*
X336917Y128442D01*
X336903Y128393D01*
X336723Y127802D01*
X336718Y127785D01*
X336721Y127778D01*
X336716Y127775D01*
X336601Y126605D01*
X336603Y126602D01*
X336601Y126600D01*
X336601Y116600D01*
X336603Y116597D01*
X336601Y116595D01*
X336716Y115425D01*
X336721Y115419D01*
X336718Y115415D01*
X337060Y114290D01*
X337065Y114285D01*
X337063Y114281D01*
X337618Y113243D01*
X337624Y113240D01*
X337623Y113235D01*
X338369Y112326D01*
X338376Y112324D01*
X338376Y112319D01*
X339285Y111573D01*
X339293Y111573D01*
X339293Y111568D01*
X340331Y111013D01*
X340338Y111014D01*
X340340Y111010D01*
X341465Y110668D01*
X341472Y110671D01*
X341475Y110666D01*
X342645Y110551D01*
X342651Y110555D01*
X342655Y110551D01*
X343825Y110666D01*
G37*
G36*
X674025Y110666D02*
X674025Y110666D01*
X674031Y110671D01*
X674035Y110668D01*
X675160Y111010D01*
X675165Y111015D01*
X675169Y111013D01*
X676207Y111568D01*
X676210Y111574D01*
X676215Y111573D01*
X677124Y112319D01*
X677126Y112326D01*
X677131Y112326D01*
X677877Y113235D01*
X677877Y113243D01*
X677882Y113243D01*
X678437Y114281D01*
X678436Y114288D01*
X678440Y114290D01*
X678557Y114674D01*
X678751Y115315D01*
X678782Y115415D01*
X678779Y115422D01*
X678784Y115425D01*
X678899Y116595D01*
X678897Y116598D01*
X678899Y116600D01*
X678899Y126600D01*
X678897Y126603D01*
X678899Y126605D01*
X678784Y127775D01*
X678779Y127781D01*
X678782Y127785D01*
X678440Y128910D01*
X678435Y128915D01*
X678437Y128919D01*
X677882Y129957D01*
X677876Y129960D01*
X677877Y129965D01*
X677131Y130874D01*
X677124Y130876D01*
X677124Y130881D01*
X676215Y131627D01*
X676207Y131627D01*
X676207Y131632D01*
X675169Y132187D01*
X675162Y132186D01*
X675160Y132190D01*
X674035Y132532D01*
X674028Y132529D01*
X674025Y132534D01*
X672855Y132649D01*
X672849Y132645D01*
X672845Y132649D01*
X671675Y132534D01*
X671669Y132529D01*
X671665Y132532D01*
X670540Y132190D01*
X670535Y132185D01*
X670531Y132187D01*
X669493Y131632D01*
X669490Y131626D01*
X669485Y131627D01*
X668576Y130881D01*
X668574Y130874D01*
X668569Y130874D01*
X667823Y129965D01*
X667823Y129957D01*
X667818Y129957D01*
X667263Y128919D01*
X667264Y128912D01*
X667260Y128910D01*
X667117Y128442D01*
X667103Y128393D01*
X666923Y127802D01*
X666918Y127785D01*
X666921Y127778D01*
X666916Y127775D01*
X666801Y126605D01*
X666803Y126602D01*
X666801Y126600D01*
X666801Y116600D01*
X666803Y116597D01*
X666801Y116595D01*
X666916Y115425D01*
X666921Y115419D01*
X666918Y115415D01*
X667260Y114290D01*
X667265Y114285D01*
X667263Y114281D01*
X667818Y113243D01*
X667824Y113240D01*
X667823Y113235D01*
X668569Y112326D01*
X668576Y112324D01*
X668576Y112319D01*
X669485Y111573D01*
X669493Y111573D01*
X669493Y111568D01*
X670531Y111013D01*
X670538Y111014D01*
X670540Y111010D01*
X671665Y110668D01*
X671672Y110671D01*
X671675Y110666D01*
X672845Y110551D01*
X672851Y110555D01*
X672855Y110551D01*
X674025Y110666D01*
G37*
G36*
X547525Y110666D02*
X547525Y110666D01*
X547531Y110671D01*
X547535Y110668D01*
X548660Y111010D01*
X548665Y111015D01*
X548669Y111013D01*
X549707Y111568D01*
X549710Y111574D01*
X549715Y111573D01*
X550624Y112319D01*
X550626Y112326D01*
X550631Y112326D01*
X551377Y113235D01*
X551377Y113243D01*
X551382Y113243D01*
X551937Y114281D01*
X551936Y114288D01*
X551940Y114290D01*
X552057Y114674D01*
X552251Y115315D01*
X552282Y115415D01*
X552279Y115422D01*
X552284Y115425D01*
X552399Y116595D01*
X552397Y116598D01*
X552399Y116600D01*
X552399Y126600D01*
X552397Y126603D01*
X552399Y126605D01*
X552284Y127775D01*
X552279Y127781D01*
X552282Y127785D01*
X551940Y128910D01*
X551935Y128915D01*
X551937Y128919D01*
X551382Y129957D01*
X551376Y129960D01*
X551377Y129965D01*
X550631Y130874D01*
X550624Y130876D01*
X550624Y130881D01*
X549715Y131627D01*
X549707Y131627D01*
X549707Y131632D01*
X548669Y132187D01*
X548662Y132186D01*
X548660Y132190D01*
X547535Y132532D01*
X547528Y132529D01*
X547525Y132534D01*
X546355Y132649D01*
X546349Y132645D01*
X546345Y132649D01*
X545175Y132534D01*
X545169Y132529D01*
X545165Y132532D01*
X544040Y132190D01*
X544035Y132185D01*
X544031Y132187D01*
X542993Y131632D01*
X542990Y131626D01*
X542985Y131627D01*
X542076Y130881D01*
X542074Y130874D01*
X542069Y130874D01*
X541323Y129965D01*
X541323Y129957D01*
X541318Y129957D01*
X540763Y128919D01*
X540764Y128912D01*
X540760Y128910D01*
X540617Y128442D01*
X540603Y128393D01*
X540423Y127802D01*
X540418Y127785D01*
X540421Y127778D01*
X540416Y127775D01*
X540301Y126605D01*
X540303Y126602D01*
X540301Y126600D01*
X540301Y116600D01*
X540303Y116597D01*
X540301Y116595D01*
X540416Y115425D01*
X540421Y115419D01*
X540418Y115415D01*
X540760Y114290D01*
X540765Y114285D01*
X540763Y114281D01*
X541318Y113243D01*
X541324Y113240D01*
X541323Y113235D01*
X542069Y112326D01*
X542076Y112324D01*
X542076Y112319D01*
X542985Y111573D01*
X542993Y111573D01*
X542993Y111568D01*
X544031Y111013D01*
X544038Y111014D01*
X544040Y111010D01*
X545165Y110668D01*
X545172Y110671D01*
X545175Y110666D01*
X546345Y110551D01*
X546351Y110555D01*
X546355Y110551D01*
X547525Y110666D01*
G37*
G36*
X178725Y110666D02*
X178725Y110666D01*
X178731Y110671D01*
X178735Y110668D01*
X179860Y111010D01*
X179865Y111015D01*
X179869Y111013D01*
X180907Y111568D01*
X180910Y111574D01*
X180915Y111573D01*
X181824Y112319D01*
X181826Y112326D01*
X181831Y112326D01*
X182577Y113235D01*
X182577Y113243D01*
X182582Y113243D01*
X183137Y114281D01*
X183136Y114288D01*
X183140Y114290D01*
X183257Y114674D01*
X183451Y115315D01*
X183482Y115415D01*
X183479Y115422D01*
X183484Y115425D01*
X183599Y116595D01*
X183597Y116598D01*
X183599Y116600D01*
X183599Y126600D01*
X183597Y126603D01*
X183599Y126605D01*
X183484Y127775D01*
X183479Y127781D01*
X183482Y127785D01*
X183140Y128910D01*
X183135Y128915D01*
X183137Y128919D01*
X182582Y129957D01*
X182576Y129960D01*
X182577Y129965D01*
X181831Y130874D01*
X181824Y130876D01*
X181824Y130881D01*
X180915Y131627D01*
X180907Y131627D01*
X180907Y131632D01*
X179869Y132187D01*
X179862Y132186D01*
X179860Y132190D01*
X178735Y132532D01*
X178728Y132529D01*
X178725Y132534D01*
X177555Y132649D01*
X177549Y132645D01*
X177545Y132649D01*
X176375Y132534D01*
X176369Y132529D01*
X176365Y132532D01*
X175240Y132190D01*
X175235Y132185D01*
X175231Y132187D01*
X174193Y131632D01*
X174190Y131626D01*
X174185Y131627D01*
X173276Y130881D01*
X173274Y130874D01*
X173269Y130874D01*
X172523Y129965D01*
X172523Y129957D01*
X172518Y129957D01*
X171963Y128919D01*
X171964Y128912D01*
X171960Y128910D01*
X171817Y128442D01*
X171803Y128393D01*
X171623Y127802D01*
X171618Y127785D01*
X171621Y127778D01*
X171616Y127775D01*
X171501Y126605D01*
X171503Y126602D01*
X171501Y126600D01*
X171501Y116600D01*
X171503Y116597D01*
X171501Y116595D01*
X171616Y115425D01*
X171621Y115419D01*
X171618Y115415D01*
X171960Y114290D01*
X171965Y114285D01*
X171963Y114281D01*
X172518Y113243D01*
X172524Y113240D01*
X172523Y113235D01*
X173269Y112326D01*
X173276Y112324D01*
X173276Y112319D01*
X174185Y111573D01*
X174193Y111573D01*
X174193Y111568D01*
X175231Y111013D01*
X175238Y111014D01*
X175240Y111010D01*
X176365Y110668D01*
X176372Y110671D01*
X176375Y110666D01*
X177545Y110551D01*
X177551Y110555D01*
X177555Y110551D01*
X178725Y110666D01*
G37*
G36*
X52225Y110666D02*
X52225Y110666D01*
X52231Y110671D01*
X52235Y110668D01*
X53360Y111010D01*
X53365Y111015D01*
X53369Y111013D01*
X54407Y111568D01*
X54410Y111574D01*
X54415Y111573D01*
X55324Y112319D01*
X55326Y112326D01*
X55331Y112326D01*
X56077Y113235D01*
X56077Y113243D01*
X56082Y113243D01*
X56637Y114281D01*
X56636Y114288D01*
X56640Y114290D01*
X56757Y114674D01*
X56951Y115315D01*
X56982Y115415D01*
X56979Y115422D01*
X56984Y115425D01*
X57099Y116595D01*
X57097Y116598D01*
X57099Y116600D01*
X57099Y126600D01*
X57097Y126603D01*
X57099Y126605D01*
X56984Y127775D01*
X56979Y127781D01*
X56982Y127785D01*
X56640Y128910D01*
X56635Y128915D01*
X56637Y128919D01*
X56082Y129957D01*
X56076Y129960D01*
X56077Y129965D01*
X55331Y130874D01*
X55324Y130876D01*
X55324Y130881D01*
X54415Y131627D01*
X54407Y131627D01*
X54407Y131632D01*
X53369Y132187D01*
X53362Y132186D01*
X53360Y132190D01*
X52235Y132532D01*
X52228Y132529D01*
X52225Y132534D01*
X51055Y132649D01*
X51049Y132645D01*
X51045Y132649D01*
X49875Y132534D01*
X49869Y132529D01*
X49865Y132532D01*
X48740Y132190D01*
X48735Y132185D01*
X48731Y132187D01*
X47693Y131632D01*
X47690Y131626D01*
X47685Y131627D01*
X46776Y130881D01*
X46774Y130874D01*
X46769Y130874D01*
X46023Y129965D01*
X46023Y129957D01*
X46018Y129957D01*
X45463Y128919D01*
X45464Y128912D01*
X45460Y128910D01*
X45317Y128442D01*
X45303Y128393D01*
X45123Y127802D01*
X45118Y127785D01*
X45121Y127778D01*
X45116Y127775D01*
X45001Y126605D01*
X45003Y126602D01*
X45001Y126600D01*
X45001Y116600D01*
X45003Y116597D01*
X45001Y116595D01*
X45116Y115425D01*
X45121Y115419D01*
X45118Y115415D01*
X45460Y114290D01*
X45465Y114285D01*
X45463Y114281D01*
X46018Y113243D01*
X46024Y113240D01*
X46023Y113235D01*
X46769Y112326D01*
X46776Y112324D01*
X46776Y112319D01*
X47685Y111573D01*
X47693Y111573D01*
X47693Y111568D01*
X48731Y111013D01*
X48738Y111014D01*
X48740Y111010D01*
X49865Y110668D01*
X49872Y110671D01*
X49875Y110666D01*
X51045Y110551D01*
X51051Y110555D01*
X51055Y110551D01*
X52225Y110666D01*
G37*
G36*
X712625Y70666D02*
X712625Y70666D01*
X712631Y70671D01*
X712635Y70668D01*
X713760Y71010D01*
X713765Y71015D01*
X713769Y71013D01*
X714807Y71568D01*
X714810Y71574D01*
X714815Y71573D01*
X715724Y72319D01*
X715726Y72326D01*
X715731Y72326D01*
X716477Y73235D01*
X716477Y73243D01*
X716482Y73243D01*
X717037Y74281D01*
X717036Y74288D01*
X717040Y74290D01*
X717157Y74674D01*
X717351Y75315D01*
X717382Y75415D01*
X717379Y75422D01*
X717384Y75425D01*
X717499Y76595D01*
X717497Y76598D01*
X717499Y76600D01*
X717499Y86600D01*
X717497Y86603D01*
X717499Y86605D01*
X717384Y87775D01*
X717379Y87781D01*
X717382Y87785D01*
X717040Y88910D01*
X717035Y88915D01*
X717037Y88919D01*
X716482Y89957D01*
X716476Y89960D01*
X716477Y89965D01*
X715731Y90874D01*
X715724Y90876D01*
X715724Y90881D01*
X714815Y91627D01*
X714807Y91627D01*
X714807Y91632D01*
X713769Y92187D01*
X713762Y92186D01*
X713760Y92190D01*
X712635Y92532D01*
X712628Y92529D01*
X712625Y92534D01*
X711455Y92649D01*
X711449Y92645D01*
X711445Y92649D01*
X710275Y92534D01*
X710269Y92529D01*
X710265Y92532D01*
X709140Y92190D01*
X709135Y92185D01*
X709131Y92187D01*
X708093Y91632D01*
X708090Y91626D01*
X708085Y91627D01*
X707176Y90881D01*
X707174Y90874D01*
X707169Y90874D01*
X706423Y89965D01*
X706423Y89957D01*
X706418Y89957D01*
X705863Y88919D01*
X705864Y88912D01*
X705860Y88910D01*
X705717Y88442D01*
X705703Y88393D01*
X705523Y87802D01*
X705518Y87785D01*
X705521Y87778D01*
X705516Y87775D01*
X705401Y86605D01*
X705403Y86602D01*
X705401Y86600D01*
X705401Y76600D01*
X705403Y76597D01*
X705401Y76595D01*
X705516Y75425D01*
X705521Y75419D01*
X705518Y75415D01*
X705860Y74290D01*
X705865Y74285D01*
X705863Y74281D01*
X706418Y73243D01*
X706424Y73240D01*
X706423Y73235D01*
X707169Y72326D01*
X707176Y72324D01*
X707176Y72319D01*
X708085Y71573D01*
X708093Y71573D01*
X708093Y71568D01*
X709131Y71013D01*
X709138Y71014D01*
X709140Y71010D01*
X710265Y70668D01*
X710272Y70671D01*
X710275Y70666D01*
X711445Y70551D01*
X711451Y70555D01*
X711455Y70551D01*
X712625Y70666D01*
G37*
G36*
X178725Y70666D02*
X178725Y70666D01*
X178731Y70671D01*
X178735Y70668D01*
X179860Y71010D01*
X179865Y71015D01*
X179869Y71013D01*
X180907Y71568D01*
X180910Y71574D01*
X180915Y71573D01*
X181824Y72319D01*
X181826Y72326D01*
X181831Y72326D01*
X182577Y73235D01*
X182577Y73243D01*
X182582Y73243D01*
X183137Y74281D01*
X183136Y74288D01*
X183140Y74290D01*
X183257Y74674D01*
X183451Y75315D01*
X183482Y75415D01*
X183479Y75422D01*
X183484Y75425D01*
X183599Y76595D01*
X183597Y76598D01*
X183599Y76600D01*
X183599Y86600D01*
X183597Y86603D01*
X183599Y86605D01*
X183484Y87775D01*
X183479Y87781D01*
X183482Y87785D01*
X183140Y88910D01*
X183135Y88915D01*
X183137Y88919D01*
X182582Y89957D01*
X182576Y89960D01*
X182577Y89965D01*
X181831Y90874D01*
X181824Y90876D01*
X181824Y90881D01*
X180915Y91627D01*
X180907Y91627D01*
X180907Y91632D01*
X179869Y92187D01*
X179862Y92186D01*
X179860Y92190D01*
X178735Y92532D01*
X178728Y92529D01*
X178725Y92534D01*
X177555Y92649D01*
X177549Y92645D01*
X177545Y92649D01*
X176375Y92534D01*
X176369Y92529D01*
X176365Y92532D01*
X175240Y92190D01*
X175235Y92185D01*
X175231Y92187D01*
X174193Y91632D01*
X174190Y91626D01*
X174185Y91627D01*
X173276Y90881D01*
X173274Y90874D01*
X173269Y90874D01*
X172523Y89965D01*
X172523Y89957D01*
X172518Y89957D01*
X171963Y88919D01*
X171964Y88912D01*
X171960Y88910D01*
X171817Y88442D01*
X171803Y88393D01*
X171623Y87802D01*
X171618Y87785D01*
X171621Y87778D01*
X171616Y87775D01*
X171501Y86605D01*
X171503Y86602D01*
X171501Y86600D01*
X171501Y76600D01*
X171503Y76597D01*
X171501Y76595D01*
X171616Y75425D01*
X171621Y75419D01*
X171618Y75415D01*
X171960Y74290D01*
X171965Y74285D01*
X171963Y74281D01*
X172518Y73243D01*
X172524Y73240D01*
X172523Y73235D01*
X173269Y72326D01*
X173276Y72324D01*
X173276Y72319D01*
X174185Y71573D01*
X174193Y71573D01*
X174193Y71568D01*
X175231Y71013D01*
X175238Y71014D01*
X175240Y71010D01*
X176365Y70668D01*
X176372Y70671D01*
X176375Y70666D01*
X177545Y70551D01*
X177551Y70555D01*
X177555Y70551D01*
X178725Y70666D01*
G37*
G36*
X547525Y70666D02*
X547525Y70666D01*
X547531Y70671D01*
X547535Y70668D01*
X548660Y71010D01*
X548665Y71015D01*
X548669Y71013D01*
X549707Y71568D01*
X549710Y71574D01*
X549715Y71573D01*
X550624Y72319D01*
X550626Y72326D01*
X550631Y72326D01*
X551377Y73235D01*
X551377Y73243D01*
X551382Y73243D01*
X551937Y74281D01*
X551936Y74288D01*
X551940Y74290D01*
X552057Y74674D01*
X552251Y75315D01*
X552282Y75415D01*
X552279Y75422D01*
X552284Y75425D01*
X552399Y76595D01*
X552397Y76598D01*
X552399Y76600D01*
X552399Y86600D01*
X552397Y86603D01*
X552399Y86605D01*
X552284Y87775D01*
X552279Y87781D01*
X552282Y87785D01*
X551940Y88910D01*
X551935Y88915D01*
X551937Y88919D01*
X551382Y89957D01*
X551376Y89960D01*
X551377Y89965D01*
X550631Y90874D01*
X550624Y90876D01*
X550624Y90881D01*
X549715Y91627D01*
X549707Y91627D01*
X549707Y91632D01*
X548669Y92187D01*
X548662Y92186D01*
X548660Y92190D01*
X547535Y92532D01*
X547528Y92529D01*
X547525Y92534D01*
X546355Y92649D01*
X546349Y92645D01*
X546345Y92649D01*
X545175Y92534D01*
X545169Y92529D01*
X545165Y92532D01*
X544040Y92190D01*
X544035Y92185D01*
X544031Y92187D01*
X542993Y91632D01*
X542990Y91626D01*
X542985Y91627D01*
X542076Y90881D01*
X542074Y90874D01*
X542069Y90874D01*
X541323Y89965D01*
X541323Y89957D01*
X541318Y89957D01*
X540763Y88919D01*
X540764Y88912D01*
X540760Y88910D01*
X540617Y88442D01*
X540603Y88393D01*
X540423Y87802D01*
X540418Y87785D01*
X540421Y87778D01*
X540416Y87775D01*
X540301Y86605D01*
X540303Y86602D01*
X540301Y86600D01*
X540301Y76600D01*
X540303Y76597D01*
X540301Y76595D01*
X540416Y75425D01*
X540421Y75419D01*
X540418Y75415D01*
X540760Y74290D01*
X540765Y74285D01*
X540763Y74281D01*
X541318Y73243D01*
X541324Y73240D01*
X541323Y73235D01*
X542069Y72326D01*
X542076Y72324D01*
X542076Y72319D01*
X542985Y71573D01*
X542993Y71573D01*
X542993Y71568D01*
X544031Y71013D01*
X544038Y71014D01*
X544040Y71010D01*
X545165Y70668D01*
X545172Y70671D01*
X545175Y70666D01*
X546345Y70551D01*
X546351Y70555D01*
X546355Y70551D01*
X547525Y70666D01*
G37*
G36*
X13625Y70666D02*
X13625Y70666D01*
X13631Y70671D01*
X13635Y70668D01*
X14760Y71010D01*
X14765Y71015D01*
X14769Y71013D01*
X15807Y71568D01*
X15810Y71574D01*
X15815Y71573D01*
X16724Y72319D01*
X16726Y72326D01*
X16731Y72326D01*
X17477Y73235D01*
X17477Y73243D01*
X17482Y73243D01*
X18037Y74281D01*
X18036Y74288D01*
X18040Y74290D01*
X18157Y74674D01*
X18351Y75315D01*
X18382Y75415D01*
X18379Y75422D01*
X18384Y75425D01*
X18499Y76595D01*
X18497Y76598D01*
X18499Y76600D01*
X18499Y86600D01*
X18497Y86603D01*
X18499Y86605D01*
X18384Y87775D01*
X18379Y87781D01*
X18382Y87785D01*
X18040Y88910D01*
X18035Y88915D01*
X18037Y88919D01*
X17482Y89957D01*
X17476Y89960D01*
X17477Y89965D01*
X16731Y90874D01*
X16724Y90876D01*
X16724Y90881D01*
X15815Y91627D01*
X15807Y91627D01*
X15807Y91632D01*
X14769Y92187D01*
X14762Y92186D01*
X14760Y92190D01*
X13635Y92532D01*
X13628Y92529D01*
X13625Y92534D01*
X12455Y92649D01*
X12449Y92645D01*
X12445Y92649D01*
X11275Y92534D01*
X11269Y92529D01*
X11265Y92532D01*
X10140Y92190D01*
X10135Y92185D01*
X10131Y92187D01*
X9093Y91632D01*
X9090Y91626D01*
X9085Y91627D01*
X8176Y90881D01*
X8174Y90874D01*
X8169Y90874D01*
X7423Y89965D01*
X7423Y89957D01*
X7418Y89957D01*
X6863Y88919D01*
X6864Y88912D01*
X6860Y88910D01*
X6717Y88442D01*
X6703Y88393D01*
X6523Y87802D01*
X6518Y87785D01*
X6521Y87778D01*
X6516Y87775D01*
X6401Y86605D01*
X6403Y86602D01*
X6401Y86600D01*
X6401Y76600D01*
X6403Y76597D01*
X6401Y76595D01*
X6516Y75425D01*
X6521Y75419D01*
X6518Y75415D01*
X6860Y74290D01*
X6865Y74285D01*
X6863Y74281D01*
X7418Y73243D01*
X7424Y73240D01*
X7423Y73235D01*
X8169Y72326D01*
X8176Y72324D01*
X8176Y72319D01*
X9085Y71573D01*
X9093Y71573D01*
X9093Y71568D01*
X10131Y71013D01*
X10138Y71014D01*
X10140Y71010D01*
X11265Y70668D01*
X11272Y70671D01*
X11275Y70666D01*
X12445Y70551D01*
X12451Y70555D01*
X12455Y70551D01*
X13625Y70666D01*
G37*
G36*
X217325Y70666D02*
X217325Y70666D01*
X217331Y70671D01*
X217335Y70668D01*
X218460Y71010D01*
X218465Y71015D01*
X218469Y71013D01*
X219507Y71568D01*
X219510Y71574D01*
X219515Y71573D01*
X220424Y72319D01*
X220426Y72326D01*
X220431Y72326D01*
X221177Y73235D01*
X221177Y73243D01*
X221182Y73243D01*
X221737Y74281D01*
X221736Y74288D01*
X221740Y74290D01*
X221857Y74674D01*
X222051Y75315D01*
X222082Y75415D01*
X222079Y75422D01*
X222084Y75425D01*
X222199Y76595D01*
X222197Y76598D01*
X222199Y76600D01*
X222199Y86600D01*
X222197Y86603D01*
X222199Y86605D01*
X222084Y87775D01*
X222079Y87781D01*
X222082Y87785D01*
X221740Y88910D01*
X221735Y88915D01*
X221737Y88919D01*
X221182Y89957D01*
X221176Y89960D01*
X221177Y89965D01*
X220431Y90874D01*
X220424Y90876D01*
X220424Y90881D01*
X219515Y91627D01*
X219507Y91627D01*
X219507Y91632D01*
X218469Y92187D01*
X218462Y92186D01*
X218460Y92190D01*
X217335Y92532D01*
X217328Y92529D01*
X217325Y92534D01*
X216155Y92649D01*
X216149Y92645D01*
X216145Y92649D01*
X214975Y92534D01*
X214969Y92529D01*
X214965Y92532D01*
X213840Y92190D01*
X213835Y92185D01*
X213831Y92187D01*
X212793Y91632D01*
X212790Y91626D01*
X212785Y91627D01*
X211876Y90881D01*
X211874Y90874D01*
X211869Y90874D01*
X211123Y89965D01*
X211123Y89957D01*
X211118Y89957D01*
X210563Y88919D01*
X210564Y88912D01*
X210560Y88910D01*
X210417Y88442D01*
X210403Y88393D01*
X210223Y87802D01*
X210218Y87785D01*
X210221Y87778D01*
X210216Y87775D01*
X210101Y86605D01*
X210103Y86602D01*
X210101Y86600D01*
X210101Y76600D01*
X210103Y76597D01*
X210101Y76595D01*
X210216Y75425D01*
X210221Y75419D01*
X210218Y75415D01*
X210560Y74290D01*
X210565Y74285D01*
X210563Y74281D01*
X211118Y73243D01*
X211124Y73240D01*
X211123Y73235D01*
X211869Y72326D01*
X211876Y72324D01*
X211876Y72319D01*
X212785Y71573D01*
X212793Y71573D01*
X212793Y71568D01*
X213831Y71013D01*
X213838Y71014D01*
X213840Y71010D01*
X214965Y70668D01*
X214972Y70671D01*
X214975Y70666D01*
X216145Y70551D01*
X216151Y70555D01*
X216155Y70551D01*
X217325Y70666D01*
G37*
G36*
X52225Y70666D02*
X52225Y70666D01*
X52231Y70671D01*
X52235Y70668D01*
X53360Y71010D01*
X53365Y71015D01*
X53369Y71013D01*
X54407Y71568D01*
X54410Y71574D01*
X54415Y71573D01*
X55324Y72319D01*
X55326Y72326D01*
X55331Y72326D01*
X56077Y73235D01*
X56077Y73243D01*
X56082Y73243D01*
X56637Y74281D01*
X56636Y74288D01*
X56640Y74290D01*
X56757Y74674D01*
X56951Y75315D01*
X56982Y75415D01*
X56979Y75422D01*
X56984Y75425D01*
X57099Y76595D01*
X57097Y76598D01*
X57099Y76600D01*
X57099Y86600D01*
X57097Y86603D01*
X57099Y86605D01*
X56984Y87775D01*
X56979Y87781D01*
X56982Y87785D01*
X56640Y88910D01*
X56635Y88915D01*
X56637Y88919D01*
X56082Y89957D01*
X56076Y89960D01*
X56077Y89965D01*
X55331Y90874D01*
X55324Y90876D01*
X55324Y90881D01*
X54415Y91627D01*
X54407Y91627D01*
X54407Y91632D01*
X53369Y92187D01*
X53362Y92186D01*
X53360Y92190D01*
X52235Y92532D01*
X52228Y92529D01*
X52225Y92534D01*
X51055Y92649D01*
X51049Y92645D01*
X51045Y92649D01*
X49875Y92534D01*
X49869Y92529D01*
X49865Y92532D01*
X48740Y92190D01*
X48735Y92185D01*
X48731Y92187D01*
X47693Y91632D01*
X47690Y91626D01*
X47685Y91627D01*
X46776Y90881D01*
X46774Y90874D01*
X46769Y90874D01*
X46023Y89965D01*
X46023Y89957D01*
X46018Y89957D01*
X45463Y88919D01*
X45464Y88912D01*
X45460Y88910D01*
X45317Y88442D01*
X45303Y88393D01*
X45123Y87802D01*
X45118Y87785D01*
X45121Y87778D01*
X45116Y87775D01*
X45001Y86605D01*
X45003Y86602D01*
X45001Y86600D01*
X45001Y76600D01*
X45003Y76597D01*
X45001Y76595D01*
X45116Y75425D01*
X45121Y75419D01*
X45118Y75415D01*
X45460Y74290D01*
X45465Y74285D01*
X45463Y74281D01*
X46018Y73243D01*
X46024Y73240D01*
X46023Y73235D01*
X46769Y72326D01*
X46776Y72324D01*
X46776Y72319D01*
X47685Y71573D01*
X47693Y71573D01*
X47693Y71568D01*
X48731Y71013D01*
X48738Y71014D01*
X48740Y71010D01*
X49865Y70668D01*
X49872Y70671D01*
X49875Y70666D01*
X51045Y70551D01*
X51051Y70555D01*
X51055Y70551D01*
X52225Y70666D01*
G37*
G36*
X674025Y70666D02*
X674025Y70666D01*
X674031Y70671D01*
X674035Y70668D01*
X675160Y71010D01*
X675165Y71015D01*
X675169Y71013D01*
X676207Y71568D01*
X676210Y71574D01*
X676215Y71573D01*
X677124Y72319D01*
X677126Y72326D01*
X677131Y72326D01*
X677877Y73235D01*
X677877Y73243D01*
X677882Y73243D01*
X678437Y74281D01*
X678436Y74288D01*
X678440Y74290D01*
X678557Y74674D01*
X678751Y75315D01*
X678782Y75415D01*
X678779Y75422D01*
X678784Y75425D01*
X678899Y76595D01*
X678897Y76598D01*
X678899Y76600D01*
X678899Y86600D01*
X678897Y86603D01*
X678899Y86605D01*
X678784Y87775D01*
X678779Y87781D01*
X678782Y87785D01*
X678440Y88910D01*
X678435Y88915D01*
X678437Y88919D01*
X677882Y89957D01*
X677876Y89960D01*
X677877Y89965D01*
X677131Y90874D01*
X677124Y90876D01*
X677124Y90881D01*
X676215Y91627D01*
X676207Y91627D01*
X676207Y91632D01*
X675169Y92187D01*
X675162Y92186D01*
X675160Y92190D01*
X674035Y92532D01*
X674028Y92529D01*
X674025Y92534D01*
X672855Y92649D01*
X672849Y92645D01*
X672845Y92649D01*
X671675Y92534D01*
X671669Y92529D01*
X671665Y92532D01*
X670540Y92190D01*
X670535Y92185D01*
X670531Y92187D01*
X669493Y91632D01*
X669490Y91626D01*
X669485Y91627D01*
X668576Y90881D01*
X668574Y90874D01*
X668569Y90874D01*
X667823Y89965D01*
X667823Y89957D01*
X667818Y89957D01*
X667263Y88919D01*
X667264Y88912D01*
X667260Y88910D01*
X667117Y88442D01*
X667103Y88393D01*
X666923Y87802D01*
X666918Y87785D01*
X666921Y87778D01*
X666916Y87775D01*
X666801Y86605D01*
X666803Y86602D01*
X666801Y86600D01*
X666801Y76600D01*
X666803Y76597D01*
X666801Y76595D01*
X666916Y75425D01*
X666921Y75419D01*
X666918Y75415D01*
X667260Y74290D01*
X667265Y74285D01*
X667263Y74281D01*
X667818Y73243D01*
X667824Y73240D01*
X667823Y73235D01*
X668569Y72326D01*
X668576Y72324D01*
X668576Y72319D01*
X669485Y71573D01*
X669493Y71573D01*
X669493Y71568D01*
X670531Y71013D01*
X670538Y71014D01*
X670540Y71010D01*
X671665Y70668D01*
X671672Y70671D01*
X671675Y70666D01*
X672845Y70551D01*
X672851Y70555D01*
X672855Y70551D01*
X674025Y70666D01*
G37*
G36*
X382425Y70666D02*
X382425Y70666D01*
X382431Y70671D01*
X382435Y70668D01*
X383560Y71010D01*
X383565Y71015D01*
X383569Y71013D01*
X384607Y71568D01*
X384610Y71574D01*
X384615Y71573D01*
X385524Y72319D01*
X385526Y72326D01*
X385531Y72326D01*
X386277Y73235D01*
X386277Y73243D01*
X386282Y73243D01*
X386837Y74281D01*
X386836Y74288D01*
X386840Y74290D01*
X386957Y74674D01*
X387151Y75315D01*
X387182Y75415D01*
X387179Y75422D01*
X387184Y75425D01*
X387299Y76595D01*
X387297Y76598D01*
X387299Y76600D01*
X387299Y86600D01*
X387297Y86603D01*
X387299Y86605D01*
X387184Y87775D01*
X387179Y87781D01*
X387182Y87785D01*
X386840Y88910D01*
X386835Y88915D01*
X386837Y88919D01*
X386282Y89957D01*
X386276Y89960D01*
X386277Y89965D01*
X385531Y90874D01*
X385524Y90876D01*
X385524Y90881D01*
X384615Y91627D01*
X384607Y91627D01*
X384607Y91632D01*
X383569Y92187D01*
X383562Y92186D01*
X383560Y92190D01*
X382435Y92532D01*
X382428Y92529D01*
X382425Y92534D01*
X381255Y92649D01*
X381249Y92645D01*
X381245Y92649D01*
X380075Y92534D01*
X380069Y92529D01*
X380065Y92532D01*
X378940Y92190D01*
X378935Y92185D01*
X378931Y92187D01*
X377893Y91632D01*
X377890Y91626D01*
X377885Y91627D01*
X376976Y90881D01*
X376974Y90874D01*
X376969Y90874D01*
X376223Y89965D01*
X376223Y89957D01*
X376218Y89957D01*
X375663Y88919D01*
X375664Y88912D01*
X375660Y88910D01*
X375517Y88442D01*
X375503Y88393D01*
X375323Y87802D01*
X375318Y87785D01*
X375321Y87778D01*
X375316Y87775D01*
X375201Y86605D01*
X375203Y86602D01*
X375201Y86600D01*
X375201Y76600D01*
X375203Y76597D01*
X375201Y76595D01*
X375316Y75425D01*
X375321Y75419D01*
X375318Y75415D01*
X375660Y74290D01*
X375665Y74285D01*
X375663Y74281D01*
X376218Y73243D01*
X376224Y73240D01*
X376223Y73235D01*
X376969Y72326D01*
X376976Y72324D01*
X376976Y72319D01*
X377885Y71573D01*
X377893Y71573D01*
X377893Y71568D01*
X378931Y71013D01*
X378938Y71014D01*
X378940Y71010D01*
X380065Y70668D01*
X380072Y70671D01*
X380075Y70666D01*
X381245Y70551D01*
X381251Y70555D01*
X381255Y70551D01*
X382425Y70666D01*
G37*
G36*
X508925Y70666D02*
X508925Y70666D01*
X508931Y70671D01*
X508935Y70668D01*
X510060Y71010D01*
X510065Y71015D01*
X510069Y71013D01*
X511107Y71568D01*
X511110Y71574D01*
X511115Y71573D01*
X512024Y72319D01*
X512026Y72326D01*
X512031Y72326D01*
X512777Y73235D01*
X512777Y73243D01*
X512782Y73243D01*
X513337Y74281D01*
X513336Y74288D01*
X513340Y74290D01*
X513457Y74674D01*
X513651Y75315D01*
X513682Y75415D01*
X513679Y75422D01*
X513684Y75425D01*
X513799Y76595D01*
X513797Y76598D01*
X513799Y76600D01*
X513799Y86600D01*
X513797Y86603D01*
X513799Y86605D01*
X513684Y87775D01*
X513679Y87781D01*
X513682Y87785D01*
X513340Y88910D01*
X513335Y88915D01*
X513337Y88919D01*
X512782Y89957D01*
X512776Y89960D01*
X512777Y89965D01*
X512031Y90874D01*
X512024Y90876D01*
X512024Y90881D01*
X511115Y91627D01*
X511107Y91627D01*
X511107Y91632D01*
X510069Y92187D01*
X510062Y92186D01*
X510060Y92190D01*
X508935Y92532D01*
X508928Y92529D01*
X508925Y92534D01*
X507755Y92649D01*
X507749Y92645D01*
X507745Y92649D01*
X506575Y92534D01*
X506569Y92529D01*
X506565Y92532D01*
X505440Y92190D01*
X505435Y92185D01*
X505431Y92187D01*
X504393Y91632D01*
X504390Y91626D01*
X504385Y91627D01*
X503476Y90881D01*
X503474Y90874D01*
X503469Y90874D01*
X502723Y89965D01*
X502723Y89957D01*
X502718Y89957D01*
X502163Y88919D01*
X502164Y88912D01*
X502160Y88910D01*
X502017Y88442D01*
X502003Y88393D01*
X501823Y87802D01*
X501818Y87785D01*
X501821Y87778D01*
X501816Y87775D01*
X501701Y86605D01*
X501703Y86602D01*
X501701Y86600D01*
X501701Y76600D01*
X501703Y76597D01*
X501701Y76595D01*
X501816Y75425D01*
X501821Y75419D01*
X501818Y75415D01*
X502160Y74290D01*
X502165Y74285D01*
X502163Y74281D01*
X502718Y73243D01*
X502724Y73240D01*
X502723Y73235D01*
X503469Y72326D01*
X503476Y72324D01*
X503476Y72319D01*
X504385Y71573D01*
X504393Y71573D01*
X504393Y71568D01*
X505431Y71013D01*
X505438Y71014D01*
X505440Y71010D01*
X506565Y70668D01*
X506572Y70671D01*
X506575Y70666D01*
X507745Y70551D01*
X507751Y70555D01*
X507755Y70551D01*
X508925Y70666D01*
G37*
G36*
X343825Y70666D02*
X343825Y70666D01*
X343831Y70671D01*
X343835Y70668D01*
X344960Y71010D01*
X344965Y71015D01*
X344969Y71013D01*
X346007Y71568D01*
X346010Y71574D01*
X346015Y71573D01*
X346924Y72319D01*
X346926Y72326D01*
X346931Y72326D01*
X347677Y73235D01*
X347677Y73243D01*
X347682Y73243D01*
X348237Y74281D01*
X348236Y74288D01*
X348240Y74290D01*
X348357Y74674D01*
X348551Y75315D01*
X348582Y75415D01*
X348579Y75422D01*
X348584Y75425D01*
X348699Y76595D01*
X348697Y76598D01*
X348699Y76600D01*
X348699Y86600D01*
X348697Y86603D01*
X348699Y86605D01*
X348584Y87775D01*
X348579Y87781D01*
X348582Y87785D01*
X348240Y88910D01*
X348235Y88915D01*
X348237Y88919D01*
X347682Y89957D01*
X347676Y89960D01*
X347677Y89965D01*
X346931Y90874D01*
X346924Y90876D01*
X346924Y90881D01*
X346015Y91627D01*
X346007Y91627D01*
X346007Y91632D01*
X344969Y92187D01*
X344962Y92186D01*
X344960Y92190D01*
X343835Y92532D01*
X343828Y92529D01*
X343825Y92534D01*
X342655Y92649D01*
X342649Y92645D01*
X342645Y92649D01*
X341475Y92534D01*
X341469Y92529D01*
X341465Y92532D01*
X340340Y92190D01*
X340335Y92185D01*
X340331Y92187D01*
X339293Y91632D01*
X339290Y91626D01*
X339285Y91627D01*
X338376Y90881D01*
X338374Y90874D01*
X338369Y90874D01*
X337623Y89965D01*
X337623Y89957D01*
X337618Y89957D01*
X337063Y88919D01*
X337064Y88912D01*
X337060Y88910D01*
X336917Y88442D01*
X336903Y88393D01*
X336723Y87802D01*
X336718Y87785D01*
X336721Y87778D01*
X336716Y87775D01*
X336601Y86605D01*
X336603Y86602D01*
X336601Y86600D01*
X336601Y76600D01*
X336603Y76597D01*
X336601Y76595D01*
X336716Y75425D01*
X336721Y75419D01*
X336718Y75415D01*
X337060Y74290D01*
X337065Y74285D01*
X337063Y74281D01*
X337618Y73243D01*
X337624Y73240D01*
X337623Y73235D01*
X338369Y72326D01*
X338376Y72324D01*
X338376Y72319D01*
X339285Y71573D01*
X339293Y71573D01*
X339293Y71568D01*
X340331Y71013D01*
X340338Y71014D01*
X340340Y71010D01*
X341465Y70668D01*
X341472Y70671D01*
X341475Y70666D01*
X342645Y70551D01*
X342651Y70555D01*
X342655Y70551D01*
X343825Y70666D01*
G37*
D10*
X6350Y196850D03*
X107950Y6350D03*
D11*
X25400Y177800D03*
X25400Y25400D03*
D12*
X101600Y177800D03*
X101600Y152400D03*
X101600Y127000D03*
X101600Y101600D03*
X101600Y76200D03*
X101600Y50800D03*
X101600Y25400D03*
D13*
X24750Y97100D03*
X24750Y106100D03*
X38750Y97100D03*
X38750Y106100D03*
X24750Y88100D03*
X38750Y115100D03*
X38750Y124600D03*
X38750Y134100D03*
X38750Y78600D03*
X38750Y69100D03*
X24750Y78600D03*
X24750Y69100D03*
X24750Y124600D03*
X24750Y134100D03*
D10*
X171450Y196850D03*
X273050Y6350D03*
D11*
X190500Y177800D03*
X190500Y25400D03*
D12*
X266700Y177800D03*
X266700Y152400D03*
X266700Y127000D03*
X266700Y101600D03*
X266700Y76200D03*
X266700Y50800D03*
X266700Y25400D03*
D13*
X189850Y97100D03*
X189850Y106100D03*
X203850Y97100D03*
X203850Y106100D03*
X189850Y88100D03*
X203850Y115100D03*
X203850Y124600D03*
X203850Y134100D03*
X203850Y78600D03*
X203850Y69100D03*
X189850Y78600D03*
X189850Y69100D03*
X189850Y124600D03*
X189850Y134100D03*
D10*
X336550Y196850D03*
X438150Y6350D03*
D11*
X355600Y177800D03*
X355600Y25400D03*
D12*
X431800Y177800D03*
X431800Y152400D03*
X431800Y127000D03*
X431800Y101600D03*
X431800Y76200D03*
X431800Y50800D03*
X431800Y25400D03*
D13*
X354950Y97100D03*
X354950Y106100D03*
X368950Y97100D03*
X368950Y106100D03*
X354950Y88100D03*
X368950Y115100D03*
X368950Y124600D03*
X368950Y134100D03*
X368950Y78600D03*
X368950Y69100D03*
X354950Y78600D03*
X354950Y69100D03*
X354950Y124600D03*
X354950Y134100D03*
D10*
X501650Y196850D03*
X603250Y6350D03*
D11*
X520700Y177800D03*
X520700Y25400D03*
D12*
X596900Y177800D03*
X596900Y152400D03*
X596900Y127000D03*
X596900Y101600D03*
X596900Y76200D03*
X596900Y50800D03*
X596900Y25400D03*
D13*
X520050Y97100D03*
X520050Y106100D03*
X534050Y97100D03*
X534050Y106100D03*
X520050Y88100D03*
X534050Y115100D03*
X534050Y124600D03*
X534050Y134100D03*
X534050Y78600D03*
X534050Y69100D03*
X520050Y78600D03*
X520050Y69100D03*
X520050Y124600D03*
X520050Y134100D03*
D10*
X666750Y196850D03*
X768350Y6350D03*
D11*
X685800Y177800D03*
X685800Y25400D03*
D12*
X762000Y177800D03*
X762000Y152400D03*
X762000Y127000D03*
X762000Y101600D03*
X762000Y76200D03*
X762000Y50800D03*
X762000Y25400D03*
D13*
X685150Y97100D03*
X685150Y106100D03*
X699150Y97100D03*
X699150Y106100D03*
X685150Y88100D03*
X699150Y115100D03*
X699150Y124600D03*
X699150Y134100D03*
X699150Y78600D03*
X699150Y69100D03*
X685150Y78600D03*
X685150Y69100D03*
X685150Y124600D03*
X685150Y134100D03*
D10*
X6350Y405130D03*
X107950Y214630D03*
D11*
X25400Y386080D03*
X25400Y233680D03*
D12*
X101600Y386080D03*
X101600Y360680D03*
X101600Y335280D03*
X101600Y309880D03*
X101600Y284480D03*
X101600Y259080D03*
X101600Y233680D03*
D13*
X24750Y305380D03*
X24750Y314380D03*
X38750Y305380D03*
X38750Y314380D03*
X24750Y296380D03*
X38750Y323380D03*
X38750Y332880D03*
X38750Y342380D03*
X38750Y286880D03*
X38750Y277380D03*
X24750Y286880D03*
X24750Y277380D03*
X24750Y332880D03*
X24750Y342380D03*
D10*
X171450Y405130D03*
X273050Y214630D03*
D11*
X190500Y386080D03*
X190500Y233680D03*
D12*
X266700Y386080D03*
X266700Y360680D03*
X266700Y335280D03*
X266700Y309880D03*
X266700Y284480D03*
X266700Y259080D03*
X266700Y233680D03*
D13*
X189850Y305380D03*
X189850Y314380D03*
X203850Y305380D03*
X203850Y314380D03*
X189850Y296380D03*
X203850Y323380D03*
X203850Y332880D03*
X203850Y342380D03*
X203850Y286880D03*
X203850Y277380D03*
X189850Y286880D03*
X189850Y277380D03*
X189850Y332880D03*
X189850Y342380D03*
D10*
X336550Y405130D03*
X438150Y214630D03*
D11*
X355600Y386080D03*
X355600Y233680D03*
D12*
X431800Y386080D03*
X431800Y360680D03*
X431800Y335280D03*
X431800Y309880D03*
X431800Y284480D03*
X431800Y259080D03*
X431800Y233680D03*
D13*
X354950Y305380D03*
X354950Y314380D03*
X368950Y305380D03*
X368950Y314380D03*
X354950Y296380D03*
X368950Y323380D03*
X368950Y332880D03*
X368950Y342380D03*
X368950Y286880D03*
X368950Y277380D03*
X354950Y286880D03*
X354950Y277380D03*
X354950Y332880D03*
X354950Y342380D03*
D10*
X501650Y405130D03*
X603250Y214630D03*
D11*
X520700Y386080D03*
X520700Y233680D03*
D12*
X596900Y386080D03*
X596900Y360680D03*
X596900Y335280D03*
X596900Y309880D03*
X596900Y284480D03*
X596900Y259080D03*
X596900Y233680D03*
D13*
X520050Y305380D03*
X520050Y314380D03*
X534050Y305380D03*
X534050Y314380D03*
X520050Y296380D03*
X534050Y323380D03*
X534050Y332880D03*
X534050Y342380D03*
X534050Y286880D03*
X534050Y277380D03*
X520050Y286880D03*
X520050Y277380D03*
X520050Y332880D03*
X520050Y342380D03*
D10*
X666750Y405130D03*
X768350Y214630D03*
D11*
X685800Y386080D03*
X685800Y233680D03*
D12*
X762000Y386080D03*
X762000Y360680D03*
X762000Y335280D03*
X762000Y309880D03*
X762000Y284480D03*
X762000Y259080D03*
X762000Y233680D03*
D13*
X685150Y305380D03*
X685150Y314380D03*
X699150Y305380D03*
X699150Y314380D03*
X685150Y296380D03*
X699150Y323380D03*
X699150Y332880D03*
X699150Y342380D03*
X699150Y286880D03*
X699150Y277380D03*
X685150Y286880D03*
X685150Y277380D03*
X685150Y332880D03*
X685150Y342380D03*
D10*
X6350Y613410D03*
X107950Y422910D03*
D11*
X25400Y594360D03*
X25400Y441960D03*
D12*
X101600Y594360D03*
X101600Y568960D03*
X101600Y543560D03*
X101600Y518160D03*
X101600Y492760D03*
X101600Y467360D03*
X101600Y441960D03*
D13*
X24750Y513660D03*
X24750Y522660D03*
X38750Y513660D03*
X38750Y522660D03*
X24750Y504660D03*
X38750Y531660D03*
X38750Y541160D03*
X38750Y550660D03*
X38750Y495160D03*
X38750Y485660D03*
X24750Y495160D03*
X24750Y485660D03*
X24750Y541160D03*
X24750Y550660D03*
D10*
X171450Y613410D03*
X273050Y422910D03*
D11*
X190500Y594360D03*
X190500Y441960D03*
D12*
X266700Y594360D03*
X266700Y568960D03*
X266700Y543560D03*
X266700Y518160D03*
X266700Y492760D03*
X266700Y467360D03*
X266700Y441960D03*
D13*
X189850Y513660D03*
X189850Y522660D03*
X203850Y513660D03*
X203850Y522660D03*
X189850Y504660D03*
X203850Y531660D03*
X203850Y541160D03*
X203850Y550660D03*
X203850Y495160D03*
X203850Y485660D03*
X189850Y495160D03*
X189850Y485660D03*
X189850Y541160D03*
X189850Y550660D03*
D10*
X336550Y613410D03*
X438150Y422910D03*
D11*
X355600Y594360D03*
X355600Y441960D03*
D12*
X431800Y594360D03*
X431800Y568960D03*
X431800Y543560D03*
X431800Y518160D03*
X431800Y492760D03*
X431800Y467360D03*
X431800Y441960D03*
D13*
X354950Y513660D03*
X354950Y522660D03*
X368950Y513660D03*
X368950Y522660D03*
X354950Y504660D03*
X368950Y531660D03*
X368950Y541160D03*
X368950Y550660D03*
X368950Y495160D03*
X368950Y485660D03*
X354950Y495160D03*
X354950Y485660D03*
X354950Y541160D03*
X354950Y550660D03*
D10*
X501650Y613410D03*
X603250Y422910D03*
D11*
X520700Y594360D03*
X520700Y441960D03*
D12*
X596900Y594360D03*
X596900Y568960D03*
X596900Y543560D03*
X596900Y518160D03*
X596900Y492760D03*
X596900Y467360D03*
X596900Y441960D03*
D13*
X520050Y513660D03*
X520050Y522660D03*
X534050Y513660D03*
X534050Y522660D03*
X520050Y504660D03*
X534050Y531660D03*
X534050Y541160D03*
X534050Y550660D03*
X534050Y495160D03*
X534050Y485660D03*
X520050Y495160D03*
X520050Y485660D03*
X520050Y541160D03*
X520050Y550660D03*
D10*
X666750Y613410D03*
X768350Y422910D03*
D11*
X685800Y594360D03*
X685800Y441960D03*
D12*
X762000Y594360D03*
X762000Y568960D03*
X762000Y543560D03*
X762000Y518160D03*
X762000Y492760D03*
X762000Y467360D03*
X762000Y441960D03*
D13*
X685150Y513660D03*
X685150Y522660D03*
X699150Y513660D03*
X699150Y522660D03*
X685150Y504660D03*
X699150Y531660D03*
X699150Y541160D03*
X699150Y550660D03*
X699150Y495160D03*
X699150Y485660D03*
X685150Y495160D03*
X685150Y485660D03*
X685150Y541160D03*
X685150Y550660D03*
D10*
X6350Y821690D03*
X107950Y631190D03*
D11*
X25400Y802640D03*
X25400Y650240D03*
D12*
X101600Y802640D03*
X101600Y777240D03*
X101600Y751840D03*
X101600Y726440D03*
X101600Y701040D03*
X101600Y675640D03*
X101600Y650240D03*
D13*
X24750Y721940D03*
X24750Y730940D03*
X38750Y721940D03*
X38750Y730940D03*
X24750Y712940D03*
X38750Y739940D03*
X38750Y749440D03*
X38750Y758940D03*
X38750Y703440D03*
X38750Y693940D03*
X24750Y703440D03*
X24750Y693940D03*
X24750Y749440D03*
X24750Y758940D03*
D10*
X171450Y821690D03*
X273050Y631190D03*
D11*
X190500Y802640D03*
X190500Y650240D03*
D12*
X266700Y802640D03*
X266700Y777240D03*
X266700Y751840D03*
X266700Y726440D03*
X266700Y701040D03*
X266700Y675640D03*
X266700Y650240D03*
D13*
X189850Y721940D03*
X189850Y730940D03*
X203850Y721940D03*
X203850Y730940D03*
X189850Y712940D03*
X203850Y739940D03*
X203850Y749440D03*
X203850Y758940D03*
X203850Y703440D03*
X203850Y693940D03*
X189850Y703440D03*
X189850Y693940D03*
X189850Y749440D03*
X189850Y758940D03*
D10*
X336550Y821690D03*
X438150Y631190D03*
D11*
X355600Y802640D03*
X355600Y650240D03*
D12*
X431800Y802640D03*
X431800Y777240D03*
X431800Y751840D03*
X431800Y726440D03*
X431800Y701040D03*
X431800Y675640D03*
X431800Y650240D03*
D13*
X354950Y721940D03*
X354950Y730940D03*
X368950Y721940D03*
X368950Y730940D03*
X354950Y712940D03*
X368950Y739940D03*
X368950Y749440D03*
X368950Y758940D03*
X368950Y703440D03*
X368950Y693940D03*
X354950Y703440D03*
X354950Y693940D03*
X354950Y749440D03*
X354950Y758940D03*
D10*
X501650Y821690D03*
X603250Y631190D03*
D11*
X520700Y802640D03*
X520700Y650240D03*
D12*
X596900Y802640D03*
X596900Y777240D03*
X596900Y751840D03*
X596900Y726440D03*
X596900Y701040D03*
X596900Y675640D03*
X596900Y650240D03*
D13*
X520050Y721940D03*
X520050Y730940D03*
X534050Y721940D03*
X534050Y730940D03*
X520050Y712940D03*
X534050Y739940D03*
X534050Y749440D03*
X534050Y758940D03*
X534050Y703440D03*
X534050Y693940D03*
X520050Y703440D03*
X520050Y693940D03*
X520050Y749440D03*
X520050Y758940D03*
D10*
X666750Y821690D03*
X768350Y631190D03*
D11*
X685800Y802640D03*
X685800Y650240D03*
D12*
X762000Y802640D03*
X762000Y777240D03*
X762000Y751840D03*
X762000Y726440D03*
X762000Y701040D03*
X762000Y675640D03*
X762000Y650240D03*
D13*
X685150Y721940D03*
X685150Y730940D03*
X699150Y721940D03*
X699150Y730940D03*
X685150Y712940D03*
X699150Y739940D03*
X699150Y749440D03*
X699150Y758940D03*
X699150Y703440D03*
X699150Y693940D03*
X685150Y703440D03*
X685150Y693940D03*
X685150Y749440D03*
X685150Y758940D03*
D14*
X114300Y848995D03*
X746125Y848995D03*
D15*
X105245Y-20955D02*
X105248Y-20733D01*
X105256Y-20511D01*
X105270Y-20289D01*
X105289Y-20067D01*
X105313Y-19847D01*
X105343Y-19626D01*
X105378Y-19407D01*
X105419Y-19188D01*
X105465Y-18971D01*
X105516Y-18755D01*
X105573Y-18540D01*
X105635Y-18326D01*
X105702Y-18115D01*
X105774Y-17904D01*
X105852Y-17696D01*
X105934Y-17490D01*
X106022Y-17286D01*
X106114Y-17083D01*
X106212Y-16884D01*
X106314Y-16687D01*
X106421Y-16492D01*
X106533Y-16300D01*
X106650Y-16111D01*
X106771Y-15924D01*
X106897Y-15741D01*
X107027Y-15561D01*
X107162Y-15384D01*
X107300Y-15211D01*
X107443Y-15041D01*
X107591Y-14874D01*
X107742Y-14711D01*
X107897Y-14552D01*
X108056Y-14397D01*
X108219Y-14246D01*
X108386Y-14098D01*
X108556Y-13955D01*
X108729Y-13817D01*
X108906Y-13682D01*
X109086Y-13552D01*
X109269Y-13426D01*
X109456Y-13305D01*
X109645Y-13188D01*
X109837Y-13076D01*
X110032Y-12969D01*
X110229Y-12867D01*
X110428Y-12769D01*
X110631Y-12677D01*
X110835Y-12589D01*
X111041Y-12507D01*
X111249Y-12429D01*
X111460Y-12357D01*
X111671Y-12290D01*
X111885Y-12228D01*
X112100Y-12171D01*
X112316Y-12120D01*
X112533Y-12074D01*
X112752Y-12033D01*
X112971Y-11998D01*
X113192Y-11968D01*
X113412Y-11944D01*
X113634Y-11925D01*
X113856Y-11911D01*
X114078Y-11903D01*
X114300Y-11900D01*
X114522Y-11903D01*
X114744Y-11911D01*
X114966Y-11925D01*
X115188Y-11944D01*
X115408Y-11968D01*
X115629Y-11998D01*
X115848Y-12033D01*
X116067Y-12074D01*
X116284Y-12120D01*
X116500Y-12171D01*
X116715Y-12228D01*
X116929Y-12290D01*
X117140Y-12357D01*
X117351Y-12429D01*
X117559Y-12507D01*
X117765Y-12589D01*
X117969Y-12677D01*
X118172Y-12769D01*
X118371Y-12867D01*
X118568Y-12969D01*
X118763Y-13076D01*
X118955Y-13188D01*
X119144Y-13305D01*
X119331Y-13426D01*
X119514Y-13552D01*
X119694Y-13682D01*
X119871Y-13817D01*
X120044Y-13955D01*
X120214Y-14098D01*
X120381Y-14246D01*
X120544Y-14397D01*
X120703Y-14552D01*
X120858Y-14711D01*
X121009Y-14874D01*
X121157Y-15041D01*
X121300Y-15211D01*
X121438Y-15384D01*
X121573Y-15561D01*
X121703Y-15741D01*
X121829Y-15924D01*
X121950Y-16111D01*
X122067Y-16300D01*
X122179Y-16492D01*
X122286Y-16687D01*
X122388Y-16884D01*
X122486Y-17083D01*
X122578Y-17286D01*
X122666Y-17490D01*
X122748Y-17696D01*
X122826Y-17904D01*
X122898Y-18115D01*
X122965Y-18326D01*
X123027Y-18540D01*
X123084Y-18755D01*
X123135Y-18971D01*
X123181Y-19188D01*
X123222Y-19407D01*
X123257Y-19626D01*
X123287Y-19847D01*
X123311Y-20067D01*
X123330Y-20289D01*
X123344Y-20511D01*
X123352Y-20733D01*
X123355Y-20955D01*
X123352Y-21177D01*
X123344Y-21399D01*
X123330Y-21621D01*
X123311Y-21843D01*
X123287Y-22063D01*
X123257Y-22284D01*
X123222Y-22503D01*
X123181Y-22722D01*
X123135Y-22939D01*
X123084Y-23155D01*
X123027Y-23370D01*
X122965Y-23584D01*
X122898Y-23795D01*
X122826Y-24006D01*
X122748Y-24214D01*
X122666Y-24420D01*
X122578Y-24624D01*
X122486Y-24827D01*
X122388Y-25026D01*
X122286Y-25223D01*
X122179Y-25418D01*
X122067Y-25610D01*
X121950Y-25799D01*
X121829Y-25986D01*
X121703Y-26169D01*
X121573Y-26349D01*
X121438Y-26526D01*
X121300Y-26699D01*
X121157Y-26869D01*
X121009Y-27036D01*
X120858Y-27199D01*
X120703Y-27358D01*
X120544Y-27513D01*
X120381Y-27664D01*
X120214Y-27812D01*
X120044Y-27955D01*
X119871Y-28093D01*
X119694Y-28228D01*
X119514Y-28358D01*
X119331Y-28484D01*
X119144Y-28605D01*
X118955Y-28722D01*
X118763Y-28834D01*
X118568Y-28941D01*
X118371Y-29043D01*
X118172Y-29141D01*
X117969Y-29233D01*
X117765Y-29321D01*
X117559Y-29403D01*
X117351Y-29481D01*
X117140Y-29553D01*
X116929Y-29620D01*
X116715Y-29682D01*
X116500Y-29739D01*
X116284Y-29790D01*
X116067Y-29836D01*
X115848Y-29877D01*
X115629Y-29912D01*
X115408Y-29942D01*
X115188Y-29966D01*
X114966Y-29985D01*
X114744Y-29999D01*
X114522Y-30007D01*
X114300Y-30010D01*
X114078Y-30007D01*
X113856Y-29999D01*
X113634Y-29985D01*
X113412Y-29966D01*
X113192Y-29942D01*
X112971Y-29912D01*
X112752Y-29877D01*
X112533Y-29836D01*
X112316Y-29790D01*
X112100Y-29739D01*
X111885Y-29682D01*
X111671Y-29620D01*
X111460Y-29553D01*
X111249Y-29481D01*
X111041Y-29403D01*
X110835Y-29321D01*
X110631Y-29233D01*
X110428Y-29141D01*
X110229Y-29043D01*
X110032Y-28941D01*
X109837Y-28834D01*
X109645Y-28722D01*
X109456Y-28605D01*
X109269Y-28484D01*
X109086Y-28358D01*
X108906Y-28228D01*
X108729Y-28093D01*
X108556Y-27955D01*
X108386Y-27812D01*
X108219Y-27664D01*
X108056Y-27513D01*
X107897Y-27358D01*
X107742Y-27199D01*
X107591Y-27036D01*
X107443Y-26869D01*
X107300Y-26699D01*
X107162Y-26526D01*
X107027Y-26349D01*
X106897Y-26169D01*
X106771Y-25986D01*
X106650Y-25799D01*
X106533Y-25610D01*
X106421Y-25418D01*
X106314Y-25223D01*
X106212Y-25026D01*
X106114Y-24827D01*
X106022Y-24624D01*
X105934Y-24420D01*
X105852Y-24214D01*
X105774Y-24006D01*
X105702Y-23795D01*
X105635Y-23584D01*
X105573Y-23370D01*
X105516Y-23155D01*
X105465Y-22939D01*
X105419Y-22722D01*
X105378Y-22503D01*
X105343Y-22284D01*
X105313Y-22063D01*
X105289Y-21843D01*
X105270Y-21621D01*
X105256Y-21399D01*
X105248Y-21177D01*
X105245Y-20955D01*
D16*
X114300Y-20955D03*
M02*
