G04 EAGLE Gerber RS-274X export*
G75*
%MOMM*%
%FSLAX34Y34*%
%LPD*%
%INSolderpaste Bottom*%
%IPPOS*%
%AMOC8*
5,1,8,0,0,1.08239X$1,22.5*%
G01*
%ADD10C,0.100000*%


D10*
X66350Y33600D02*
X56350Y33600D01*
X56350Y42600D01*
X66350Y42600D01*
X66350Y33600D01*
X66350Y34550D02*
X56350Y34550D01*
X56350Y35500D02*
X66350Y35500D01*
X66350Y36450D02*
X56350Y36450D01*
X56350Y37400D02*
X66350Y37400D01*
X66350Y38350D02*
X56350Y38350D01*
X56350Y39300D02*
X66350Y39300D01*
X66350Y40250D02*
X56350Y40250D01*
X56350Y41200D02*
X66350Y41200D01*
X66350Y42150D02*
X56350Y42150D01*
X73350Y33600D02*
X83350Y33600D01*
X73350Y33600D02*
X73350Y42600D01*
X83350Y42600D01*
X83350Y33600D01*
X83350Y34550D02*
X73350Y34550D01*
X73350Y35500D02*
X83350Y35500D01*
X83350Y36450D02*
X73350Y36450D01*
X73350Y37400D02*
X83350Y37400D01*
X83350Y38350D02*
X73350Y38350D01*
X73350Y39300D02*
X83350Y39300D01*
X83350Y40250D02*
X73350Y40250D01*
X73350Y41200D02*
X83350Y41200D01*
X83350Y42150D02*
X73350Y42150D01*
X66350Y160600D02*
X56350Y160600D01*
X56350Y169600D01*
X66350Y169600D01*
X66350Y160600D01*
X66350Y161550D02*
X56350Y161550D01*
X56350Y162500D02*
X66350Y162500D01*
X66350Y163450D02*
X56350Y163450D01*
X56350Y164400D02*
X66350Y164400D01*
X66350Y165350D02*
X56350Y165350D01*
X56350Y166300D02*
X66350Y166300D01*
X66350Y167250D02*
X56350Y167250D01*
X56350Y168200D02*
X66350Y168200D01*
X66350Y169150D02*
X56350Y169150D01*
X73350Y160600D02*
X83350Y160600D01*
X73350Y160600D02*
X73350Y169600D01*
X83350Y169600D01*
X83350Y160600D01*
X83350Y161550D02*
X73350Y161550D01*
X73350Y162500D02*
X83350Y162500D01*
X83350Y163450D02*
X73350Y163450D01*
X73350Y164400D02*
X83350Y164400D01*
X83350Y165350D02*
X73350Y165350D01*
X73350Y166300D02*
X83350Y166300D01*
X83350Y167250D02*
X73350Y167250D01*
X73350Y168200D02*
X83350Y168200D01*
X83350Y169150D02*
X73350Y169150D01*
X221450Y33600D02*
X231450Y33600D01*
X221450Y33600D02*
X221450Y42600D01*
X231450Y42600D01*
X231450Y33600D01*
X231450Y34550D02*
X221450Y34550D01*
X221450Y35500D02*
X231450Y35500D01*
X231450Y36450D02*
X221450Y36450D01*
X221450Y37400D02*
X231450Y37400D01*
X231450Y38350D02*
X221450Y38350D01*
X221450Y39300D02*
X231450Y39300D01*
X231450Y40250D02*
X221450Y40250D01*
X221450Y41200D02*
X231450Y41200D01*
X231450Y42150D02*
X221450Y42150D01*
X238450Y33600D02*
X248450Y33600D01*
X238450Y33600D02*
X238450Y42600D01*
X248450Y42600D01*
X248450Y33600D01*
X248450Y34550D02*
X238450Y34550D01*
X238450Y35500D02*
X248450Y35500D01*
X248450Y36450D02*
X238450Y36450D01*
X238450Y37400D02*
X248450Y37400D01*
X248450Y38350D02*
X238450Y38350D01*
X238450Y39300D02*
X248450Y39300D01*
X248450Y40250D02*
X238450Y40250D01*
X238450Y41200D02*
X248450Y41200D01*
X248450Y42150D02*
X238450Y42150D01*
X231450Y160600D02*
X221450Y160600D01*
X221450Y169600D01*
X231450Y169600D01*
X231450Y160600D01*
X231450Y161550D02*
X221450Y161550D01*
X221450Y162500D02*
X231450Y162500D01*
X231450Y163450D02*
X221450Y163450D01*
X221450Y164400D02*
X231450Y164400D01*
X231450Y165350D02*
X221450Y165350D01*
X221450Y166300D02*
X231450Y166300D01*
X231450Y167250D02*
X221450Y167250D01*
X221450Y168200D02*
X231450Y168200D01*
X231450Y169150D02*
X221450Y169150D01*
X238450Y160600D02*
X248450Y160600D01*
X238450Y160600D02*
X238450Y169600D01*
X248450Y169600D01*
X248450Y160600D01*
X248450Y161550D02*
X238450Y161550D01*
X238450Y162500D02*
X248450Y162500D01*
X248450Y163450D02*
X238450Y163450D01*
X238450Y164400D02*
X248450Y164400D01*
X248450Y165350D02*
X238450Y165350D01*
X238450Y166300D02*
X248450Y166300D01*
X248450Y167250D02*
X238450Y167250D01*
X238450Y168200D02*
X248450Y168200D01*
X248450Y169150D02*
X238450Y169150D01*
X386550Y33600D02*
X396550Y33600D01*
X386550Y33600D02*
X386550Y42600D01*
X396550Y42600D01*
X396550Y33600D01*
X396550Y34550D02*
X386550Y34550D01*
X386550Y35500D02*
X396550Y35500D01*
X396550Y36450D02*
X386550Y36450D01*
X386550Y37400D02*
X396550Y37400D01*
X396550Y38350D02*
X386550Y38350D01*
X386550Y39300D02*
X396550Y39300D01*
X396550Y40250D02*
X386550Y40250D01*
X386550Y41200D02*
X396550Y41200D01*
X396550Y42150D02*
X386550Y42150D01*
X403550Y33600D02*
X413550Y33600D01*
X403550Y33600D02*
X403550Y42600D01*
X413550Y42600D01*
X413550Y33600D01*
X413550Y34550D02*
X403550Y34550D01*
X403550Y35500D02*
X413550Y35500D01*
X413550Y36450D02*
X403550Y36450D01*
X403550Y37400D02*
X413550Y37400D01*
X413550Y38350D02*
X403550Y38350D01*
X403550Y39300D02*
X413550Y39300D01*
X413550Y40250D02*
X403550Y40250D01*
X403550Y41200D02*
X413550Y41200D01*
X413550Y42150D02*
X403550Y42150D01*
X396550Y160600D02*
X386550Y160600D01*
X386550Y169600D01*
X396550Y169600D01*
X396550Y160600D01*
X396550Y161550D02*
X386550Y161550D01*
X386550Y162500D02*
X396550Y162500D01*
X396550Y163450D02*
X386550Y163450D01*
X386550Y164400D02*
X396550Y164400D01*
X396550Y165350D02*
X386550Y165350D01*
X386550Y166300D02*
X396550Y166300D01*
X396550Y167250D02*
X386550Y167250D01*
X386550Y168200D02*
X396550Y168200D01*
X396550Y169150D02*
X386550Y169150D01*
X403550Y160600D02*
X413550Y160600D01*
X403550Y160600D02*
X403550Y169600D01*
X413550Y169600D01*
X413550Y160600D01*
X413550Y161550D02*
X403550Y161550D01*
X403550Y162500D02*
X413550Y162500D01*
X413550Y163450D02*
X403550Y163450D01*
X403550Y164400D02*
X413550Y164400D01*
X413550Y165350D02*
X403550Y165350D01*
X403550Y166300D02*
X413550Y166300D01*
X413550Y167250D02*
X403550Y167250D01*
X403550Y168200D02*
X413550Y168200D01*
X413550Y169150D02*
X403550Y169150D01*
X551650Y33600D02*
X561650Y33600D01*
X551650Y33600D02*
X551650Y42600D01*
X561650Y42600D01*
X561650Y33600D01*
X561650Y34550D02*
X551650Y34550D01*
X551650Y35500D02*
X561650Y35500D01*
X561650Y36450D02*
X551650Y36450D01*
X551650Y37400D02*
X561650Y37400D01*
X561650Y38350D02*
X551650Y38350D01*
X551650Y39300D02*
X561650Y39300D01*
X561650Y40250D02*
X551650Y40250D01*
X551650Y41200D02*
X561650Y41200D01*
X561650Y42150D02*
X551650Y42150D01*
X568650Y33600D02*
X578650Y33600D01*
X568650Y33600D02*
X568650Y42600D01*
X578650Y42600D01*
X578650Y33600D01*
X578650Y34550D02*
X568650Y34550D01*
X568650Y35500D02*
X578650Y35500D01*
X578650Y36450D02*
X568650Y36450D01*
X568650Y37400D02*
X578650Y37400D01*
X578650Y38350D02*
X568650Y38350D01*
X568650Y39300D02*
X578650Y39300D01*
X578650Y40250D02*
X568650Y40250D01*
X568650Y41200D02*
X578650Y41200D01*
X578650Y42150D02*
X568650Y42150D01*
X561650Y160600D02*
X551650Y160600D01*
X551650Y169600D01*
X561650Y169600D01*
X561650Y160600D01*
X561650Y161550D02*
X551650Y161550D01*
X551650Y162500D02*
X561650Y162500D01*
X561650Y163450D02*
X551650Y163450D01*
X551650Y164400D02*
X561650Y164400D01*
X561650Y165350D02*
X551650Y165350D01*
X551650Y166300D02*
X561650Y166300D01*
X561650Y167250D02*
X551650Y167250D01*
X551650Y168200D02*
X561650Y168200D01*
X561650Y169150D02*
X551650Y169150D01*
X568650Y160600D02*
X578650Y160600D01*
X568650Y160600D02*
X568650Y169600D01*
X578650Y169600D01*
X578650Y160600D01*
X578650Y161550D02*
X568650Y161550D01*
X568650Y162500D02*
X578650Y162500D01*
X578650Y163450D02*
X568650Y163450D01*
X568650Y164400D02*
X578650Y164400D01*
X578650Y165350D02*
X568650Y165350D01*
X568650Y166300D02*
X578650Y166300D01*
X578650Y167250D02*
X568650Y167250D01*
X568650Y168200D02*
X578650Y168200D01*
X578650Y169150D02*
X568650Y169150D01*
X716750Y33600D02*
X726750Y33600D01*
X716750Y33600D02*
X716750Y42600D01*
X726750Y42600D01*
X726750Y33600D01*
X726750Y34550D02*
X716750Y34550D01*
X716750Y35500D02*
X726750Y35500D01*
X726750Y36450D02*
X716750Y36450D01*
X716750Y37400D02*
X726750Y37400D01*
X726750Y38350D02*
X716750Y38350D01*
X716750Y39300D02*
X726750Y39300D01*
X726750Y40250D02*
X716750Y40250D01*
X716750Y41200D02*
X726750Y41200D01*
X726750Y42150D02*
X716750Y42150D01*
X733750Y33600D02*
X743750Y33600D01*
X733750Y33600D02*
X733750Y42600D01*
X743750Y42600D01*
X743750Y33600D01*
X743750Y34550D02*
X733750Y34550D01*
X733750Y35500D02*
X743750Y35500D01*
X743750Y36450D02*
X733750Y36450D01*
X733750Y37400D02*
X743750Y37400D01*
X743750Y38350D02*
X733750Y38350D01*
X733750Y39300D02*
X743750Y39300D01*
X743750Y40250D02*
X733750Y40250D01*
X733750Y41200D02*
X743750Y41200D01*
X743750Y42150D02*
X733750Y42150D01*
X726750Y160600D02*
X716750Y160600D01*
X716750Y169600D01*
X726750Y169600D01*
X726750Y160600D01*
X726750Y161550D02*
X716750Y161550D01*
X716750Y162500D02*
X726750Y162500D01*
X726750Y163450D02*
X716750Y163450D01*
X716750Y164400D02*
X726750Y164400D01*
X726750Y165350D02*
X716750Y165350D01*
X716750Y166300D02*
X726750Y166300D01*
X726750Y167250D02*
X716750Y167250D01*
X716750Y168200D02*
X726750Y168200D01*
X726750Y169150D02*
X716750Y169150D01*
X733750Y160600D02*
X743750Y160600D01*
X733750Y160600D02*
X733750Y169600D01*
X743750Y169600D01*
X743750Y160600D01*
X743750Y161550D02*
X733750Y161550D01*
X733750Y162500D02*
X743750Y162500D01*
X743750Y163450D02*
X733750Y163450D01*
X733750Y164400D02*
X743750Y164400D01*
X743750Y165350D02*
X733750Y165350D01*
X733750Y166300D02*
X743750Y166300D01*
X743750Y167250D02*
X733750Y167250D01*
X733750Y168200D02*
X743750Y168200D01*
X743750Y169150D02*
X733750Y169150D01*
X66350Y241880D02*
X56350Y241880D01*
X56350Y250880D01*
X66350Y250880D01*
X66350Y241880D01*
X66350Y242830D02*
X56350Y242830D01*
X56350Y243780D02*
X66350Y243780D01*
X66350Y244730D02*
X56350Y244730D01*
X56350Y245680D02*
X66350Y245680D01*
X66350Y246630D02*
X56350Y246630D01*
X56350Y247580D02*
X66350Y247580D01*
X66350Y248530D02*
X56350Y248530D01*
X56350Y249480D02*
X66350Y249480D01*
X66350Y250430D02*
X56350Y250430D01*
X73350Y241880D02*
X83350Y241880D01*
X73350Y241880D02*
X73350Y250880D01*
X83350Y250880D01*
X83350Y241880D01*
X83350Y242830D02*
X73350Y242830D01*
X73350Y243780D02*
X83350Y243780D01*
X83350Y244730D02*
X73350Y244730D01*
X73350Y245680D02*
X83350Y245680D01*
X83350Y246630D02*
X73350Y246630D01*
X73350Y247580D02*
X83350Y247580D01*
X83350Y248530D02*
X73350Y248530D01*
X73350Y249480D02*
X83350Y249480D01*
X83350Y250430D02*
X73350Y250430D01*
X66350Y368880D02*
X56350Y368880D01*
X56350Y377880D01*
X66350Y377880D01*
X66350Y368880D01*
X66350Y369830D02*
X56350Y369830D01*
X56350Y370780D02*
X66350Y370780D01*
X66350Y371730D02*
X56350Y371730D01*
X56350Y372680D02*
X66350Y372680D01*
X66350Y373630D02*
X56350Y373630D01*
X56350Y374580D02*
X66350Y374580D01*
X66350Y375530D02*
X56350Y375530D01*
X56350Y376480D02*
X66350Y376480D01*
X66350Y377430D02*
X56350Y377430D01*
X73350Y368880D02*
X83350Y368880D01*
X73350Y368880D02*
X73350Y377880D01*
X83350Y377880D01*
X83350Y368880D01*
X83350Y369830D02*
X73350Y369830D01*
X73350Y370780D02*
X83350Y370780D01*
X83350Y371730D02*
X73350Y371730D01*
X73350Y372680D02*
X83350Y372680D01*
X83350Y373630D02*
X73350Y373630D01*
X73350Y374580D02*
X83350Y374580D01*
X83350Y375530D02*
X73350Y375530D01*
X73350Y376480D02*
X83350Y376480D01*
X83350Y377430D02*
X73350Y377430D01*
X221450Y241880D02*
X231450Y241880D01*
X221450Y241880D02*
X221450Y250880D01*
X231450Y250880D01*
X231450Y241880D01*
X231450Y242830D02*
X221450Y242830D01*
X221450Y243780D02*
X231450Y243780D01*
X231450Y244730D02*
X221450Y244730D01*
X221450Y245680D02*
X231450Y245680D01*
X231450Y246630D02*
X221450Y246630D01*
X221450Y247580D02*
X231450Y247580D01*
X231450Y248530D02*
X221450Y248530D01*
X221450Y249480D02*
X231450Y249480D01*
X231450Y250430D02*
X221450Y250430D01*
X238450Y241880D02*
X248450Y241880D01*
X238450Y241880D02*
X238450Y250880D01*
X248450Y250880D01*
X248450Y241880D01*
X248450Y242830D02*
X238450Y242830D01*
X238450Y243780D02*
X248450Y243780D01*
X248450Y244730D02*
X238450Y244730D01*
X238450Y245680D02*
X248450Y245680D01*
X248450Y246630D02*
X238450Y246630D01*
X238450Y247580D02*
X248450Y247580D01*
X248450Y248530D02*
X238450Y248530D01*
X238450Y249480D02*
X248450Y249480D01*
X248450Y250430D02*
X238450Y250430D01*
X231450Y368880D02*
X221450Y368880D01*
X221450Y377880D01*
X231450Y377880D01*
X231450Y368880D01*
X231450Y369830D02*
X221450Y369830D01*
X221450Y370780D02*
X231450Y370780D01*
X231450Y371730D02*
X221450Y371730D01*
X221450Y372680D02*
X231450Y372680D01*
X231450Y373630D02*
X221450Y373630D01*
X221450Y374580D02*
X231450Y374580D01*
X231450Y375530D02*
X221450Y375530D01*
X221450Y376480D02*
X231450Y376480D01*
X231450Y377430D02*
X221450Y377430D01*
X238450Y368880D02*
X248450Y368880D01*
X238450Y368880D02*
X238450Y377880D01*
X248450Y377880D01*
X248450Y368880D01*
X248450Y369830D02*
X238450Y369830D01*
X238450Y370780D02*
X248450Y370780D01*
X248450Y371730D02*
X238450Y371730D01*
X238450Y372680D02*
X248450Y372680D01*
X248450Y373630D02*
X238450Y373630D01*
X238450Y374580D02*
X248450Y374580D01*
X248450Y375530D02*
X238450Y375530D01*
X238450Y376480D02*
X248450Y376480D01*
X248450Y377430D02*
X238450Y377430D01*
X386550Y241880D02*
X396550Y241880D01*
X386550Y241880D02*
X386550Y250880D01*
X396550Y250880D01*
X396550Y241880D01*
X396550Y242830D02*
X386550Y242830D01*
X386550Y243780D02*
X396550Y243780D01*
X396550Y244730D02*
X386550Y244730D01*
X386550Y245680D02*
X396550Y245680D01*
X396550Y246630D02*
X386550Y246630D01*
X386550Y247580D02*
X396550Y247580D01*
X396550Y248530D02*
X386550Y248530D01*
X386550Y249480D02*
X396550Y249480D01*
X396550Y250430D02*
X386550Y250430D01*
X403550Y241880D02*
X413550Y241880D01*
X403550Y241880D02*
X403550Y250880D01*
X413550Y250880D01*
X413550Y241880D01*
X413550Y242830D02*
X403550Y242830D01*
X403550Y243780D02*
X413550Y243780D01*
X413550Y244730D02*
X403550Y244730D01*
X403550Y245680D02*
X413550Y245680D01*
X413550Y246630D02*
X403550Y246630D01*
X403550Y247580D02*
X413550Y247580D01*
X413550Y248530D02*
X403550Y248530D01*
X403550Y249480D02*
X413550Y249480D01*
X413550Y250430D02*
X403550Y250430D01*
X396550Y368880D02*
X386550Y368880D01*
X386550Y377880D01*
X396550Y377880D01*
X396550Y368880D01*
X396550Y369830D02*
X386550Y369830D01*
X386550Y370780D02*
X396550Y370780D01*
X396550Y371730D02*
X386550Y371730D01*
X386550Y372680D02*
X396550Y372680D01*
X396550Y373630D02*
X386550Y373630D01*
X386550Y374580D02*
X396550Y374580D01*
X396550Y375530D02*
X386550Y375530D01*
X386550Y376480D02*
X396550Y376480D01*
X396550Y377430D02*
X386550Y377430D01*
X403550Y368880D02*
X413550Y368880D01*
X403550Y368880D02*
X403550Y377880D01*
X413550Y377880D01*
X413550Y368880D01*
X413550Y369830D02*
X403550Y369830D01*
X403550Y370780D02*
X413550Y370780D01*
X413550Y371730D02*
X403550Y371730D01*
X403550Y372680D02*
X413550Y372680D01*
X413550Y373630D02*
X403550Y373630D01*
X403550Y374580D02*
X413550Y374580D01*
X413550Y375530D02*
X403550Y375530D01*
X403550Y376480D02*
X413550Y376480D01*
X413550Y377430D02*
X403550Y377430D01*
X551650Y241880D02*
X561650Y241880D01*
X551650Y241880D02*
X551650Y250880D01*
X561650Y250880D01*
X561650Y241880D01*
X561650Y242830D02*
X551650Y242830D01*
X551650Y243780D02*
X561650Y243780D01*
X561650Y244730D02*
X551650Y244730D01*
X551650Y245680D02*
X561650Y245680D01*
X561650Y246630D02*
X551650Y246630D01*
X551650Y247580D02*
X561650Y247580D01*
X561650Y248530D02*
X551650Y248530D01*
X551650Y249480D02*
X561650Y249480D01*
X561650Y250430D02*
X551650Y250430D01*
X568650Y241880D02*
X578650Y241880D01*
X568650Y241880D02*
X568650Y250880D01*
X578650Y250880D01*
X578650Y241880D01*
X578650Y242830D02*
X568650Y242830D01*
X568650Y243780D02*
X578650Y243780D01*
X578650Y244730D02*
X568650Y244730D01*
X568650Y245680D02*
X578650Y245680D01*
X578650Y246630D02*
X568650Y246630D01*
X568650Y247580D02*
X578650Y247580D01*
X578650Y248530D02*
X568650Y248530D01*
X568650Y249480D02*
X578650Y249480D01*
X578650Y250430D02*
X568650Y250430D01*
X561650Y368880D02*
X551650Y368880D01*
X551650Y377880D01*
X561650Y377880D01*
X561650Y368880D01*
X561650Y369830D02*
X551650Y369830D01*
X551650Y370780D02*
X561650Y370780D01*
X561650Y371730D02*
X551650Y371730D01*
X551650Y372680D02*
X561650Y372680D01*
X561650Y373630D02*
X551650Y373630D01*
X551650Y374580D02*
X561650Y374580D01*
X561650Y375530D02*
X551650Y375530D01*
X551650Y376480D02*
X561650Y376480D01*
X561650Y377430D02*
X551650Y377430D01*
X568650Y368880D02*
X578650Y368880D01*
X568650Y368880D02*
X568650Y377880D01*
X578650Y377880D01*
X578650Y368880D01*
X578650Y369830D02*
X568650Y369830D01*
X568650Y370780D02*
X578650Y370780D01*
X578650Y371730D02*
X568650Y371730D01*
X568650Y372680D02*
X578650Y372680D01*
X578650Y373630D02*
X568650Y373630D01*
X568650Y374580D02*
X578650Y374580D01*
X578650Y375530D02*
X568650Y375530D01*
X568650Y376480D02*
X578650Y376480D01*
X578650Y377430D02*
X568650Y377430D01*
X716750Y241880D02*
X726750Y241880D01*
X716750Y241880D02*
X716750Y250880D01*
X726750Y250880D01*
X726750Y241880D01*
X726750Y242830D02*
X716750Y242830D01*
X716750Y243780D02*
X726750Y243780D01*
X726750Y244730D02*
X716750Y244730D01*
X716750Y245680D02*
X726750Y245680D01*
X726750Y246630D02*
X716750Y246630D01*
X716750Y247580D02*
X726750Y247580D01*
X726750Y248530D02*
X716750Y248530D01*
X716750Y249480D02*
X726750Y249480D01*
X726750Y250430D02*
X716750Y250430D01*
X733750Y241880D02*
X743750Y241880D01*
X733750Y241880D02*
X733750Y250880D01*
X743750Y250880D01*
X743750Y241880D01*
X743750Y242830D02*
X733750Y242830D01*
X733750Y243780D02*
X743750Y243780D01*
X743750Y244730D02*
X733750Y244730D01*
X733750Y245680D02*
X743750Y245680D01*
X743750Y246630D02*
X733750Y246630D01*
X733750Y247580D02*
X743750Y247580D01*
X743750Y248530D02*
X733750Y248530D01*
X733750Y249480D02*
X743750Y249480D01*
X743750Y250430D02*
X733750Y250430D01*
X726750Y368880D02*
X716750Y368880D01*
X716750Y377880D01*
X726750Y377880D01*
X726750Y368880D01*
X726750Y369830D02*
X716750Y369830D01*
X716750Y370780D02*
X726750Y370780D01*
X726750Y371730D02*
X716750Y371730D01*
X716750Y372680D02*
X726750Y372680D01*
X726750Y373630D02*
X716750Y373630D01*
X716750Y374580D02*
X726750Y374580D01*
X726750Y375530D02*
X716750Y375530D01*
X716750Y376480D02*
X726750Y376480D01*
X726750Y377430D02*
X716750Y377430D01*
X733750Y368880D02*
X743750Y368880D01*
X733750Y368880D02*
X733750Y377880D01*
X743750Y377880D01*
X743750Y368880D01*
X743750Y369830D02*
X733750Y369830D01*
X733750Y370780D02*
X743750Y370780D01*
X743750Y371730D02*
X733750Y371730D01*
X733750Y372680D02*
X743750Y372680D01*
X743750Y373630D02*
X733750Y373630D01*
X733750Y374580D02*
X743750Y374580D01*
X743750Y375530D02*
X733750Y375530D01*
X733750Y376480D02*
X743750Y376480D01*
X743750Y377430D02*
X733750Y377430D01*
X66350Y450160D02*
X56350Y450160D01*
X56350Y459160D01*
X66350Y459160D01*
X66350Y450160D01*
X66350Y451110D02*
X56350Y451110D01*
X56350Y452060D02*
X66350Y452060D01*
X66350Y453010D02*
X56350Y453010D01*
X56350Y453960D02*
X66350Y453960D01*
X66350Y454910D02*
X56350Y454910D01*
X56350Y455860D02*
X66350Y455860D01*
X66350Y456810D02*
X56350Y456810D01*
X56350Y457760D02*
X66350Y457760D01*
X66350Y458710D02*
X56350Y458710D01*
X73350Y450160D02*
X83350Y450160D01*
X73350Y450160D02*
X73350Y459160D01*
X83350Y459160D01*
X83350Y450160D01*
X83350Y451110D02*
X73350Y451110D01*
X73350Y452060D02*
X83350Y452060D01*
X83350Y453010D02*
X73350Y453010D01*
X73350Y453960D02*
X83350Y453960D01*
X83350Y454910D02*
X73350Y454910D01*
X73350Y455860D02*
X83350Y455860D01*
X83350Y456810D02*
X73350Y456810D01*
X73350Y457760D02*
X83350Y457760D01*
X83350Y458710D02*
X73350Y458710D01*
X66350Y577160D02*
X56350Y577160D01*
X56350Y586160D01*
X66350Y586160D01*
X66350Y577160D01*
X66350Y578110D02*
X56350Y578110D01*
X56350Y579060D02*
X66350Y579060D01*
X66350Y580010D02*
X56350Y580010D01*
X56350Y580960D02*
X66350Y580960D01*
X66350Y581910D02*
X56350Y581910D01*
X56350Y582860D02*
X66350Y582860D01*
X66350Y583810D02*
X56350Y583810D01*
X56350Y584760D02*
X66350Y584760D01*
X66350Y585710D02*
X56350Y585710D01*
X73350Y577160D02*
X83350Y577160D01*
X73350Y577160D02*
X73350Y586160D01*
X83350Y586160D01*
X83350Y577160D01*
X83350Y578110D02*
X73350Y578110D01*
X73350Y579060D02*
X83350Y579060D01*
X83350Y580010D02*
X73350Y580010D01*
X73350Y580960D02*
X83350Y580960D01*
X83350Y581910D02*
X73350Y581910D01*
X73350Y582860D02*
X83350Y582860D01*
X83350Y583810D02*
X73350Y583810D01*
X73350Y584760D02*
X83350Y584760D01*
X83350Y585710D02*
X73350Y585710D01*
X221450Y450160D02*
X231450Y450160D01*
X221450Y450160D02*
X221450Y459160D01*
X231450Y459160D01*
X231450Y450160D01*
X231450Y451110D02*
X221450Y451110D01*
X221450Y452060D02*
X231450Y452060D01*
X231450Y453010D02*
X221450Y453010D01*
X221450Y453960D02*
X231450Y453960D01*
X231450Y454910D02*
X221450Y454910D01*
X221450Y455860D02*
X231450Y455860D01*
X231450Y456810D02*
X221450Y456810D01*
X221450Y457760D02*
X231450Y457760D01*
X231450Y458710D02*
X221450Y458710D01*
X238450Y450160D02*
X248450Y450160D01*
X238450Y450160D02*
X238450Y459160D01*
X248450Y459160D01*
X248450Y450160D01*
X248450Y451110D02*
X238450Y451110D01*
X238450Y452060D02*
X248450Y452060D01*
X248450Y453010D02*
X238450Y453010D01*
X238450Y453960D02*
X248450Y453960D01*
X248450Y454910D02*
X238450Y454910D01*
X238450Y455860D02*
X248450Y455860D01*
X248450Y456810D02*
X238450Y456810D01*
X238450Y457760D02*
X248450Y457760D01*
X248450Y458710D02*
X238450Y458710D01*
X231450Y577160D02*
X221450Y577160D01*
X221450Y586160D01*
X231450Y586160D01*
X231450Y577160D01*
X231450Y578110D02*
X221450Y578110D01*
X221450Y579060D02*
X231450Y579060D01*
X231450Y580010D02*
X221450Y580010D01*
X221450Y580960D02*
X231450Y580960D01*
X231450Y581910D02*
X221450Y581910D01*
X221450Y582860D02*
X231450Y582860D01*
X231450Y583810D02*
X221450Y583810D01*
X221450Y584760D02*
X231450Y584760D01*
X231450Y585710D02*
X221450Y585710D01*
X238450Y577160D02*
X248450Y577160D01*
X238450Y577160D02*
X238450Y586160D01*
X248450Y586160D01*
X248450Y577160D01*
X248450Y578110D02*
X238450Y578110D01*
X238450Y579060D02*
X248450Y579060D01*
X248450Y580010D02*
X238450Y580010D01*
X238450Y580960D02*
X248450Y580960D01*
X248450Y581910D02*
X238450Y581910D01*
X238450Y582860D02*
X248450Y582860D01*
X248450Y583810D02*
X238450Y583810D01*
X238450Y584760D02*
X248450Y584760D01*
X248450Y585710D02*
X238450Y585710D01*
X386550Y450160D02*
X396550Y450160D01*
X386550Y450160D02*
X386550Y459160D01*
X396550Y459160D01*
X396550Y450160D01*
X396550Y451110D02*
X386550Y451110D01*
X386550Y452060D02*
X396550Y452060D01*
X396550Y453010D02*
X386550Y453010D01*
X386550Y453960D02*
X396550Y453960D01*
X396550Y454910D02*
X386550Y454910D01*
X386550Y455860D02*
X396550Y455860D01*
X396550Y456810D02*
X386550Y456810D01*
X386550Y457760D02*
X396550Y457760D01*
X396550Y458710D02*
X386550Y458710D01*
X403550Y450160D02*
X413550Y450160D01*
X403550Y450160D02*
X403550Y459160D01*
X413550Y459160D01*
X413550Y450160D01*
X413550Y451110D02*
X403550Y451110D01*
X403550Y452060D02*
X413550Y452060D01*
X413550Y453010D02*
X403550Y453010D01*
X403550Y453960D02*
X413550Y453960D01*
X413550Y454910D02*
X403550Y454910D01*
X403550Y455860D02*
X413550Y455860D01*
X413550Y456810D02*
X403550Y456810D01*
X403550Y457760D02*
X413550Y457760D01*
X413550Y458710D02*
X403550Y458710D01*
X396550Y577160D02*
X386550Y577160D01*
X386550Y586160D01*
X396550Y586160D01*
X396550Y577160D01*
X396550Y578110D02*
X386550Y578110D01*
X386550Y579060D02*
X396550Y579060D01*
X396550Y580010D02*
X386550Y580010D01*
X386550Y580960D02*
X396550Y580960D01*
X396550Y581910D02*
X386550Y581910D01*
X386550Y582860D02*
X396550Y582860D01*
X396550Y583810D02*
X386550Y583810D01*
X386550Y584760D02*
X396550Y584760D01*
X396550Y585710D02*
X386550Y585710D01*
X403550Y577160D02*
X413550Y577160D01*
X403550Y577160D02*
X403550Y586160D01*
X413550Y586160D01*
X413550Y577160D01*
X413550Y578110D02*
X403550Y578110D01*
X403550Y579060D02*
X413550Y579060D01*
X413550Y580010D02*
X403550Y580010D01*
X403550Y580960D02*
X413550Y580960D01*
X413550Y581910D02*
X403550Y581910D01*
X403550Y582860D02*
X413550Y582860D01*
X413550Y583810D02*
X403550Y583810D01*
X403550Y584760D02*
X413550Y584760D01*
X413550Y585710D02*
X403550Y585710D01*
X551650Y450160D02*
X561650Y450160D01*
X551650Y450160D02*
X551650Y459160D01*
X561650Y459160D01*
X561650Y450160D01*
X561650Y451110D02*
X551650Y451110D01*
X551650Y452060D02*
X561650Y452060D01*
X561650Y453010D02*
X551650Y453010D01*
X551650Y453960D02*
X561650Y453960D01*
X561650Y454910D02*
X551650Y454910D01*
X551650Y455860D02*
X561650Y455860D01*
X561650Y456810D02*
X551650Y456810D01*
X551650Y457760D02*
X561650Y457760D01*
X561650Y458710D02*
X551650Y458710D01*
X568650Y450160D02*
X578650Y450160D01*
X568650Y450160D02*
X568650Y459160D01*
X578650Y459160D01*
X578650Y450160D01*
X578650Y451110D02*
X568650Y451110D01*
X568650Y452060D02*
X578650Y452060D01*
X578650Y453010D02*
X568650Y453010D01*
X568650Y453960D02*
X578650Y453960D01*
X578650Y454910D02*
X568650Y454910D01*
X568650Y455860D02*
X578650Y455860D01*
X578650Y456810D02*
X568650Y456810D01*
X568650Y457760D02*
X578650Y457760D01*
X578650Y458710D02*
X568650Y458710D01*
X561650Y577160D02*
X551650Y577160D01*
X551650Y586160D01*
X561650Y586160D01*
X561650Y577160D01*
X561650Y578110D02*
X551650Y578110D01*
X551650Y579060D02*
X561650Y579060D01*
X561650Y580010D02*
X551650Y580010D01*
X551650Y580960D02*
X561650Y580960D01*
X561650Y581910D02*
X551650Y581910D01*
X551650Y582860D02*
X561650Y582860D01*
X561650Y583810D02*
X551650Y583810D01*
X551650Y584760D02*
X561650Y584760D01*
X561650Y585710D02*
X551650Y585710D01*
X568650Y577160D02*
X578650Y577160D01*
X568650Y577160D02*
X568650Y586160D01*
X578650Y586160D01*
X578650Y577160D01*
X578650Y578110D02*
X568650Y578110D01*
X568650Y579060D02*
X578650Y579060D01*
X578650Y580010D02*
X568650Y580010D01*
X568650Y580960D02*
X578650Y580960D01*
X578650Y581910D02*
X568650Y581910D01*
X568650Y582860D02*
X578650Y582860D01*
X578650Y583810D02*
X568650Y583810D01*
X568650Y584760D02*
X578650Y584760D01*
X578650Y585710D02*
X568650Y585710D01*
X716750Y450160D02*
X726750Y450160D01*
X716750Y450160D02*
X716750Y459160D01*
X726750Y459160D01*
X726750Y450160D01*
X726750Y451110D02*
X716750Y451110D01*
X716750Y452060D02*
X726750Y452060D01*
X726750Y453010D02*
X716750Y453010D01*
X716750Y453960D02*
X726750Y453960D01*
X726750Y454910D02*
X716750Y454910D01*
X716750Y455860D02*
X726750Y455860D01*
X726750Y456810D02*
X716750Y456810D01*
X716750Y457760D02*
X726750Y457760D01*
X726750Y458710D02*
X716750Y458710D01*
X733750Y450160D02*
X743750Y450160D01*
X733750Y450160D02*
X733750Y459160D01*
X743750Y459160D01*
X743750Y450160D01*
X743750Y451110D02*
X733750Y451110D01*
X733750Y452060D02*
X743750Y452060D01*
X743750Y453010D02*
X733750Y453010D01*
X733750Y453960D02*
X743750Y453960D01*
X743750Y454910D02*
X733750Y454910D01*
X733750Y455860D02*
X743750Y455860D01*
X743750Y456810D02*
X733750Y456810D01*
X733750Y457760D02*
X743750Y457760D01*
X743750Y458710D02*
X733750Y458710D01*
X726750Y577160D02*
X716750Y577160D01*
X716750Y586160D01*
X726750Y586160D01*
X726750Y577160D01*
X726750Y578110D02*
X716750Y578110D01*
X716750Y579060D02*
X726750Y579060D01*
X726750Y580010D02*
X716750Y580010D01*
X716750Y580960D02*
X726750Y580960D01*
X726750Y581910D02*
X716750Y581910D01*
X716750Y582860D02*
X726750Y582860D01*
X726750Y583810D02*
X716750Y583810D01*
X716750Y584760D02*
X726750Y584760D01*
X726750Y585710D02*
X716750Y585710D01*
X733750Y577160D02*
X743750Y577160D01*
X733750Y577160D02*
X733750Y586160D01*
X743750Y586160D01*
X743750Y577160D01*
X743750Y578110D02*
X733750Y578110D01*
X733750Y579060D02*
X743750Y579060D01*
X743750Y580010D02*
X733750Y580010D01*
X733750Y580960D02*
X743750Y580960D01*
X743750Y581910D02*
X733750Y581910D01*
X733750Y582860D02*
X743750Y582860D01*
X743750Y583810D02*
X733750Y583810D01*
X733750Y584760D02*
X743750Y584760D01*
X743750Y585710D02*
X733750Y585710D01*
X66350Y658440D02*
X56350Y658440D01*
X56350Y667440D01*
X66350Y667440D01*
X66350Y658440D01*
X66350Y659390D02*
X56350Y659390D01*
X56350Y660340D02*
X66350Y660340D01*
X66350Y661290D02*
X56350Y661290D01*
X56350Y662240D02*
X66350Y662240D01*
X66350Y663190D02*
X56350Y663190D01*
X56350Y664140D02*
X66350Y664140D01*
X66350Y665090D02*
X56350Y665090D01*
X56350Y666040D02*
X66350Y666040D01*
X66350Y666990D02*
X56350Y666990D01*
X73350Y658440D02*
X83350Y658440D01*
X73350Y658440D02*
X73350Y667440D01*
X83350Y667440D01*
X83350Y658440D01*
X83350Y659390D02*
X73350Y659390D01*
X73350Y660340D02*
X83350Y660340D01*
X83350Y661290D02*
X73350Y661290D01*
X73350Y662240D02*
X83350Y662240D01*
X83350Y663190D02*
X73350Y663190D01*
X73350Y664140D02*
X83350Y664140D01*
X83350Y665090D02*
X73350Y665090D01*
X73350Y666040D02*
X83350Y666040D01*
X83350Y666990D02*
X73350Y666990D01*
X66350Y785440D02*
X56350Y785440D01*
X56350Y794440D01*
X66350Y794440D01*
X66350Y785440D01*
X66350Y786390D02*
X56350Y786390D01*
X56350Y787340D02*
X66350Y787340D01*
X66350Y788290D02*
X56350Y788290D01*
X56350Y789240D02*
X66350Y789240D01*
X66350Y790190D02*
X56350Y790190D01*
X56350Y791140D02*
X66350Y791140D01*
X66350Y792090D02*
X56350Y792090D01*
X56350Y793040D02*
X66350Y793040D01*
X66350Y793990D02*
X56350Y793990D01*
X73350Y785440D02*
X83350Y785440D01*
X73350Y785440D02*
X73350Y794440D01*
X83350Y794440D01*
X83350Y785440D01*
X83350Y786390D02*
X73350Y786390D01*
X73350Y787340D02*
X83350Y787340D01*
X83350Y788290D02*
X73350Y788290D01*
X73350Y789240D02*
X83350Y789240D01*
X83350Y790190D02*
X73350Y790190D01*
X73350Y791140D02*
X83350Y791140D01*
X83350Y792090D02*
X73350Y792090D01*
X73350Y793040D02*
X83350Y793040D01*
X83350Y793990D02*
X73350Y793990D01*
X221450Y658440D02*
X231450Y658440D01*
X221450Y658440D02*
X221450Y667440D01*
X231450Y667440D01*
X231450Y658440D01*
X231450Y659390D02*
X221450Y659390D01*
X221450Y660340D02*
X231450Y660340D01*
X231450Y661290D02*
X221450Y661290D01*
X221450Y662240D02*
X231450Y662240D01*
X231450Y663190D02*
X221450Y663190D01*
X221450Y664140D02*
X231450Y664140D01*
X231450Y665090D02*
X221450Y665090D01*
X221450Y666040D02*
X231450Y666040D01*
X231450Y666990D02*
X221450Y666990D01*
X238450Y658440D02*
X248450Y658440D01*
X238450Y658440D02*
X238450Y667440D01*
X248450Y667440D01*
X248450Y658440D01*
X248450Y659390D02*
X238450Y659390D01*
X238450Y660340D02*
X248450Y660340D01*
X248450Y661290D02*
X238450Y661290D01*
X238450Y662240D02*
X248450Y662240D01*
X248450Y663190D02*
X238450Y663190D01*
X238450Y664140D02*
X248450Y664140D01*
X248450Y665090D02*
X238450Y665090D01*
X238450Y666040D02*
X248450Y666040D01*
X248450Y666990D02*
X238450Y666990D01*
X231450Y785440D02*
X221450Y785440D01*
X221450Y794440D01*
X231450Y794440D01*
X231450Y785440D01*
X231450Y786390D02*
X221450Y786390D01*
X221450Y787340D02*
X231450Y787340D01*
X231450Y788290D02*
X221450Y788290D01*
X221450Y789240D02*
X231450Y789240D01*
X231450Y790190D02*
X221450Y790190D01*
X221450Y791140D02*
X231450Y791140D01*
X231450Y792090D02*
X221450Y792090D01*
X221450Y793040D02*
X231450Y793040D01*
X231450Y793990D02*
X221450Y793990D01*
X238450Y785440D02*
X248450Y785440D01*
X238450Y785440D02*
X238450Y794440D01*
X248450Y794440D01*
X248450Y785440D01*
X248450Y786390D02*
X238450Y786390D01*
X238450Y787340D02*
X248450Y787340D01*
X248450Y788290D02*
X238450Y788290D01*
X238450Y789240D02*
X248450Y789240D01*
X248450Y790190D02*
X238450Y790190D01*
X238450Y791140D02*
X248450Y791140D01*
X248450Y792090D02*
X238450Y792090D01*
X238450Y793040D02*
X248450Y793040D01*
X248450Y793990D02*
X238450Y793990D01*
X386550Y658440D02*
X396550Y658440D01*
X386550Y658440D02*
X386550Y667440D01*
X396550Y667440D01*
X396550Y658440D01*
X396550Y659390D02*
X386550Y659390D01*
X386550Y660340D02*
X396550Y660340D01*
X396550Y661290D02*
X386550Y661290D01*
X386550Y662240D02*
X396550Y662240D01*
X396550Y663190D02*
X386550Y663190D01*
X386550Y664140D02*
X396550Y664140D01*
X396550Y665090D02*
X386550Y665090D01*
X386550Y666040D02*
X396550Y666040D01*
X396550Y666990D02*
X386550Y666990D01*
X403550Y658440D02*
X413550Y658440D01*
X403550Y658440D02*
X403550Y667440D01*
X413550Y667440D01*
X413550Y658440D01*
X413550Y659390D02*
X403550Y659390D01*
X403550Y660340D02*
X413550Y660340D01*
X413550Y661290D02*
X403550Y661290D01*
X403550Y662240D02*
X413550Y662240D01*
X413550Y663190D02*
X403550Y663190D01*
X403550Y664140D02*
X413550Y664140D01*
X413550Y665090D02*
X403550Y665090D01*
X403550Y666040D02*
X413550Y666040D01*
X413550Y666990D02*
X403550Y666990D01*
X396550Y785440D02*
X386550Y785440D01*
X386550Y794440D01*
X396550Y794440D01*
X396550Y785440D01*
X396550Y786390D02*
X386550Y786390D01*
X386550Y787340D02*
X396550Y787340D01*
X396550Y788290D02*
X386550Y788290D01*
X386550Y789240D02*
X396550Y789240D01*
X396550Y790190D02*
X386550Y790190D01*
X386550Y791140D02*
X396550Y791140D01*
X396550Y792090D02*
X386550Y792090D01*
X386550Y793040D02*
X396550Y793040D01*
X396550Y793990D02*
X386550Y793990D01*
X403550Y785440D02*
X413550Y785440D01*
X403550Y785440D02*
X403550Y794440D01*
X413550Y794440D01*
X413550Y785440D01*
X413550Y786390D02*
X403550Y786390D01*
X403550Y787340D02*
X413550Y787340D01*
X413550Y788290D02*
X403550Y788290D01*
X403550Y789240D02*
X413550Y789240D01*
X413550Y790190D02*
X403550Y790190D01*
X403550Y791140D02*
X413550Y791140D01*
X413550Y792090D02*
X403550Y792090D01*
X403550Y793040D02*
X413550Y793040D01*
X413550Y793990D02*
X403550Y793990D01*
X551650Y658440D02*
X561650Y658440D01*
X551650Y658440D02*
X551650Y667440D01*
X561650Y667440D01*
X561650Y658440D01*
X561650Y659390D02*
X551650Y659390D01*
X551650Y660340D02*
X561650Y660340D01*
X561650Y661290D02*
X551650Y661290D01*
X551650Y662240D02*
X561650Y662240D01*
X561650Y663190D02*
X551650Y663190D01*
X551650Y664140D02*
X561650Y664140D01*
X561650Y665090D02*
X551650Y665090D01*
X551650Y666040D02*
X561650Y666040D01*
X561650Y666990D02*
X551650Y666990D01*
X568650Y658440D02*
X578650Y658440D01*
X568650Y658440D02*
X568650Y667440D01*
X578650Y667440D01*
X578650Y658440D01*
X578650Y659390D02*
X568650Y659390D01*
X568650Y660340D02*
X578650Y660340D01*
X578650Y661290D02*
X568650Y661290D01*
X568650Y662240D02*
X578650Y662240D01*
X578650Y663190D02*
X568650Y663190D01*
X568650Y664140D02*
X578650Y664140D01*
X578650Y665090D02*
X568650Y665090D01*
X568650Y666040D02*
X578650Y666040D01*
X578650Y666990D02*
X568650Y666990D01*
X561650Y785440D02*
X551650Y785440D01*
X551650Y794440D01*
X561650Y794440D01*
X561650Y785440D01*
X561650Y786390D02*
X551650Y786390D01*
X551650Y787340D02*
X561650Y787340D01*
X561650Y788290D02*
X551650Y788290D01*
X551650Y789240D02*
X561650Y789240D01*
X561650Y790190D02*
X551650Y790190D01*
X551650Y791140D02*
X561650Y791140D01*
X561650Y792090D02*
X551650Y792090D01*
X551650Y793040D02*
X561650Y793040D01*
X561650Y793990D02*
X551650Y793990D01*
X568650Y785440D02*
X578650Y785440D01*
X568650Y785440D02*
X568650Y794440D01*
X578650Y794440D01*
X578650Y785440D01*
X578650Y786390D02*
X568650Y786390D01*
X568650Y787340D02*
X578650Y787340D01*
X578650Y788290D02*
X568650Y788290D01*
X568650Y789240D02*
X578650Y789240D01*
X578650Y790190D02*
X568650Y790190D01*
X568650Y791140D02*
X578650Y791140D01*
X578650Y792090D02*
X568650Y792090D01*
X568650Y793040D02*
X578650Y793040D01*
X578650Y793990D02*
X568650Y793990D01*
X716750Y658440D02*
X726750Y658440D01*
X716750Y658440D02*
X716750Y667440D01*
X726750Y667440D01*
X726750Y658440D01*
X726750Y659390D02*
X716750Y659390D01*
X716750Y660340D02*
X726750Y660340D01*
X726750Y661290D02*
X716750Y661290D01*
X716750Y662240D02*
X726750Y662240D01*
X726750Y663190D02*
X716750Y663190D01*
X716750Y664140D02*
X726750Y664140D01*
X726750Y665090D02*
X716750Y665090D01*
X716750Y666040D02*
X726750Y666040D01*
X726750Y666990D02*
X716750Y666990D01*
X733750Y658440D02*
X743750Y658440D01*
X733750Y658440D02*
X733750Y667440D01*
X743750Y667440D01*
X743750Y658440D01*
X743750Y659390D02*
X733750Y659390D01*
X733750Y660340D02*
X743750Y660340D01*
X743750Y661290D02*
X733750Y661290D01*
X733750Y662240D02*
X743750Y662240D01*
X743750Y663190D02*
X733750Y663190D01*
X733750Y664140D02*
X743750Y664140D01*
X743750Y665090D02*
X733750Y665090D01*
X733750Y666040D02*
X743750Y666040D01*
X743750Y666990D02*
X733750Y666990D01*
X726750Y785440D02*
X716750Y785440D01*
X716750Y794440D01*
X726750Y794440D01*
X726750Y785440D01*
X726750Y786390D02*
X716750Y786390D01*
X716750Y787340D02*
X726750Y787340D01*
X726750Y788290D02*
X716750Y788290D01*
X716750Y789240D02*
X726750Y789240D01*
X726750Y790190D02*
X716750Y790190D01*
X716750Y791140D02*
X726750Y791140D01*
X726750Y792090D02*
X716750Y792090D01*
X716750Y793040D02*
X726750Y793040D01*
X726750Y793990D02*
X716750Y793990D01*
X733750Y785440D02*
X743750Y785440D01*
X733750Y785440D02*
X733750Y794440D01*
X743750Y794440D01*
X743750Y785440D01*
X743750Y786390D02*
X733750Y786390D01*
X733750Y787340D02*
X743750Y787340D01*
X743750Y788290D02*
X733750Y788290D01*
X733750Y789240D02*
X743750Y789240D01*
X743750Y790190D02*
X733750Y790190D01*
X733750Y791140D02*
X743750Y791140D01*
X743750Y792090D02*
X733750Y792090D01*
X733750Y793040D02*
X743750Y793040D01*
X743750Y793990D02*
X733750Y793990D01*
M02*
