M48
;GenerationSoftware,Autodesk,EAGLE,9.6.2*%
;CreationDate,2023-05-18T20:31:46Z*%
FMAT,2
ICI,OFF
METRIC,TZ,000.000
T5C0.305
T4C0.400
T3C0.500
T2C1.016
T1C3.048
%
G90
M71
T1
X86360Y38608
X2794Y17780
X2794Y2540
X14732Y17780
X14732Y2540
X26670Y17780
X26670Y2540
X38608Y17780
X38608Y2540
X50546Y17780
X50546Y2540
X62484Y17780
X62484Y2540
X74422Y17780
X74422Y2540
X86360Y17780
X86360Y2540
X2794Y38608
X2794Y23368
X14732Y38608
X14732Y23368
X26670Y38608
X26670Y23368
X38608Y38608
X38608Y23368
X50546Y38608
X50546Y23368
X62484Y38608
X62484Y23368
X74422Y38608
X74422Y23368
X62484Y65024
X86360Y23368
X2794Y59436
X2794Y44196
X14732Y59436
X14732Y44196
X26670Y59436
X26670Y44196
X38608Y59436
X38608Y44196
X50546Y59436
X50546Y44196
X62484Y59436
X62484Y44196
X74422Y80264
X74422Y59436
X74422Y44196
X86360Y59436
X86360Y44196
X2794Y80264
X2794Y65024
X14732Y80264
X14732Y65024
X26670Y80264
X26670Y65024
X38608Y80264
X38608Y65024
X50546Y80264
X50546Y65024
X62484Y80264
X74422Y65024
X86360Y80264
X86360Y65024
X2794Y101092
X2794Y85852
X14732Y101092
X14732Y85852
X26670Y101092
X26670Y85852
X38608Y101092
X38608Y85852
X50546Y101092
X50546Y85852
X62484Y101092
X62484Y85852
X74422Y101092
X74422Y85852
X86360Y101092
X86360Y85852
T2
X57912Y54356
X57912Y56896
X57912Y59436
X10160Y5080
X10160Y2540
X93726Y28448
X10160Y28448
X10160Y25908
X10160Y23368
X81788Y28448
X22098Y30988
X22098Y28448
X81788Y17780
X81788Y15240
X81788Y12700
X57912Y17780
X57912Y15240
X45974Y44196
X45974Y46736
X45974Y49276
X45974Y51816
X45974Y54356
X45974Y56896
X45974Y59436
X57912Y12700
X57912Y7620
X93726Y25908
X69850Y38608
X69850Y36068
X22098Y17780
X22098Y15240
X22098Y12700
X22098Y10160
X22098Y7620
X22098Y5080
X22098Y2540
X69850Y33528
X34036Y44196
X34036Y46736
X34036Y49276
X34036Y51816
X34036Y54356
X34036Y56896
X34036Y59436
X57912Y5080
X57912Y2540
X81788Y10160
X81788Y7620
X81788Y5080
X81788Y2540
X22098Y25908
X22098Y23368
X81788Y25908
X81788Y23368
X93726Y30988
X22098Y38608
X22098Y36068
X22098Y33528
X22098Y44196
X22098Y46736
X22098Y49276
X22098Y51816
X22098Y54356
X22098Y56896
X22098Y59436
X69850Y30988
X69850Y28448
X69850Y25908
X34036Y17780
X34036Y15240
X34036Y12700
X34036Y10160
X34036Y7620
X34036Y5080
X34036Y2540
X69850Y23368
X81788Y36068
X81788Y33528
X81788Y30988
X10160Y44196
X10160Y46736
X10160Y49276
X10160Y51816
X10160Y54356
X10160Y56896
X10160Y59436
X10160Y38608
X10160Y36068
X10160Y33528
X69850Y17780
X69850Y15240
X69850Y12700
X69850Y10160
X69850Y7620
X93726Y85852
X69850Y5080
X69850Y2540
X10160Y30988
X93726Y23368
X22098Y85852
X57912Y10160
X69850Y59436
X93726Y33528
X93726Y17780
X93726Y15240
X93726Y12700
X93726Y10160
X93726Y7620
X93726Y5080
X93726Y2540
X81788Y38608
X10160Y17780
X10160Y15240
X10160Y12700
X10160Y10160
X10160Y7620
X57912Y44196
X57912Y46736
X57912Y49276
X57912Y51816
X93726Y38608
X93726Y36068
X45974Y17780
X45974Y15240
X45974Y12700
X45974Y10160
X45974Y7620
X45974Y5080
X45974Y2540
X34036Y38608
X34036Y36068
X34036Y33528
X34036Y30988
X34036Y28448
X34036Y25908
X34036Y23368
X45974Y38608
X45974Y36068
X45974Y33528
X45974Y30988
X45974Y28448
X45974Y25908
X45974Y23368
X57912Y38608
X57912Y36068
X57912Y33528
X57912Y30988
X57912Y28448
X57912Y25908
X57912Y23368
X69850Y56896
X69850Y54356
X69850Y51816
X69850Y49276
X69850Y46736
X69850Y44196
X81788Y59436
X81788Y56896
X81788Y54356
X81788Y51816
X81788Y49276
X81788Y46736
X81788Y44196
X93726Y59436
X93726Y56896
X93726Y54356
X93726Y51816
X93726Y49276
X93726Y46736
X93726Y44196
X10160Y80264
X10160Y77724
X10160Y75184
X10160Y72644
X10160Y70104
X10160Y67564
X10160Y65024
X22098Y80264
X22098Y77724
X22098Y75184
X22098Y72644
X22098Y70104
X22098Y67564
X22098Y65024
X34036Y80264
X34036Y77724
X34036Y75184
X34036Y72644
X34036Y70104
X34036Y67564
X34036Y65024
X45974Y80264
X45974Y77724
X45974Y75184
X45974Y72644
X45974Y70104
X45974Y67564
X45974Y65024
X57912Y80264
X57912Y77724
X57912Y75184
X57912Y72644
X57912Y70104
X57912Y67564
X57912Y65024
X69850Y80264
X69850Y77724
X69850Y75184
X69850Y72644
X69850Y70104
X69850Y67564
X69850Y65024
X81788Y80264
X81788Y77724
X81788Y75184
X81788Y72644
X81788Y70104
X81788Y67564
X81788Y65024
X93726Y80264
X93726Y77724
X93726Y75184
X93726Y72644
X93726Y70104
X93726Y67564
X93726Y65024
X10160Y101092
X10160Y98552
X10160Y96012
X10160Y93472
X10160Y90932
X10160Y88392
X10160Y85852
X22098Y101092
X22098Y98552
X22098Y96012
X22098Y93472
X22098Y90932
X22098Y88392
X34036Y101092
X34036Y98552
X34036Y96012
X34036Y93472
X34036Y90932
X34036Y88392
X34036Y85852
X45974Y101092
X45974Y98552
X45974Y96012
X45974Y93472
X45974Y90932
X45974Y88392
X45974Y85852
X57912Y101092
X57912Y98552
X57912Y96012
X57912Y93472
X57912Y90932
X57912Y88392
X57912Y85852
X69850Y101092
X69850Y98552
X69850Y96012
X69850Y93472
X69850Y90932
X69850Y88392
X69850Y85852
X81788Y101092
X81788Y98552
X81788Y96012
X81788Y93472
X81788Y90932
X81788Y88392
X81788Y85852
X93726Y101092
X93726Y98552
X93726Y96012
X93726Y93472
X93726Y90932
X93726Y88392
T3
X51271Y12460
X51271Y13410
X51271Y7860
X51271Y6910
X49821Y7860
X49821Y6910
X49821Y12460
X49821Y13410
X75147Y30538
X75147Y31438
X73697Y29638
X75147Y32338
X61759Y9710
X61759Y10610
X63209Y9710
X63209Y10610
X61759Y8810
X63209Y11510
X63209Y12460
X63209Y13410
X63209Y7860
X63209Y6910
X61759Y7860
X61759Y6910
X61759Y12460
X61759Y13410
X75147Y33288
X75147Y34238
X75147Y28688
X75147Y27738
X73697Y9710
X73697Y10610
X75147Y9710
X75147Y10610
X73697Y8810
X75147Y11510
X75147Y12460
X75147Y13410
X75147Y7860
X75147Y6910
X73697Y7860
X73697Y6910
X73697Y12460
X73697Y13410
X73697Y28688
X73697Y27738
X73697Y33288
X73697Y34238
X85635Y9710
X85635Y10610
X87085Y9710
X87085Y10610
X85635Y8810
X87085Y11510
X87085Y12460
X87085Y13410
X87085Y7860
X87085Y6910
X85635Y7860
X85635Y6910
X85635Y12460
X85635Y13410
X2069Y30538
X2069Y31438
X3519Y30538
X3519Y31438
X2069Y29638
X3519Y32338
X3519Y33288
X3519Y34238
X3519Y28688
X3519Y27738
X2069Y28688
X2069Y27738
X2069Y33288
X2069Y34238
X14007Y30538
X14007Y31438
X15457Y30538
X15457Y31438
X14007Y29638
X15457Y32338
X15457Y33288
X15457Y34238
X15457Y28688
X15457Y27738
X14007Y28688
X14007Y27738
X14007Y33288
X14007Y34238
X85635Y30538
X25945Y30538
X25945Y31438
X27395Y30538
X27395Y31438
X25945Y29638
X27395Y32338
X27395Y33288
X27395Y34238
X27395Y28688
X3519Y53166
X25945Y28688
X25945Y27738
X25945Y33288
X25945Y34238
X85635Y31438
X87085Y30538
X87085Y31438
X61759Y55066
X61759Y54116
X61759Y48566
X61759Y49516
X63209Y48566
X63209Y49516
X63209Y55066
X85635Y29638
X37883Y30538
X37883Y31438
X39333Y30538
X39333Y31438
X37883Y29638
X39333Y32338
X39333Y33288
X39333Y34238
X39333Y28688
X39333Y27738
X37883Y28688
X37883Y27738
X37883Y33288
X37883Y34238
X87085Y32338
X87085Y33288
X87085Y34238
X63209Y54116
X63209Y53166
X61759Y50466
X63209Y52266
X63209Y51366
X61759Y52266
X61759Y51366
X87085Y28688
X49821Y30538
X49821Y31438
X51271Y30538
X51271Y31438
X49821Y29638
X51271Y32338
X51271Y33288
X51271Y34238
X51271Y28688
X51271Y27738
X49821Y28688
X49821Y27738
X49821Y33288
X49821Y34238
X87085Y27738
X85635Y28688
X85635Y27738
X49821Y55066
X49821Y54116
X49821Y48566
X49821Y49516
X51271Y48566
X51271Y49516
X51271Y55066
X85635Y33288
X61759Y30538
X61759Y31438
X63209Y30538
X63209Y31438
X61759Y29638
X63209Y32338
X63209Y33288
X63209Y34238
X63209Y28688
X63209Y27738
X61759Y28688
X51271Y54116
X51271Y53166
X49821Y50466
X51271Y52266
X51271Y51366
X49821Y52266
X73697Y51366
X73697Y52266
X75147Y51366
X75147Y52266
X73697Y50466
X75147Y53166
X75147Y54116
X75147Y55066
X75147Y49516
X75147Y48566
X73697Y49516
X73697Y48566
X73697Y54116
X73697Y55066
X49821Y51366
X37883Y55066
X37883Y54116
X37883Y48566
X37883Y49516
X39333Y48566
X39333Y49516
X85635Y51366
X85635Y52266
X87085Y51366
X87085Y52266
X85635Y50466
X87085Y53166
X87085Y54116
X87085Y55066
X87085Y49516
X87085Y48566
X85635Y49516
X85635Y48566
X85635Y54116
X85635Y55066
X39333Y55066
X39333Y54116
X39333Y53166
X37883Y50466
X39333Y52266
X39333Y51366
X37883Y52266
X2069Y72194
X2069Y73094
X3519Y72194
X3519Y73094
X2069Y71294
X3519Y73994
X3519Y74944
X3519Y75894
X3519Y70344
X3519Y69394
X2069Y70344
X2069Y69394
X2069Y74944
X2069Y75894
X37883Y51366
X25945Y55066
X25945Y54116
X25945Y48566
X25945Y49516
X27395Y48566
X27395Y49516
X14007Y72194
X14007Y73094
X15457Y72194
X15457Y73094
X14007Y71294
X15457Y73994
X15457Y74944
X15457Y75894
X15457Y70344
X15457Y69394
X14007Y70344
X14007Y69394
X14007Y74944
X14007Y75894
X27395Y55066
X27395Y54116
X27395Y53166
X25945Y50466
X27395Y52266
X27395Y51366
X25945Y52266
X25945Y72194
X25945Y73094
X27395Y72194
X27395Y73094
X25945Y71294
X27395Y73994
X27395Y74944
X27395Y75894
X27395Y70344
X27395Y69394
X25945Y70344
X25945Y69394
X25945Y74944
X25945Y75894
X25945Y51366
X14007Y55066
X14007Y54116
X14007Y48566
X14007Y49516
X15457Y48566
X15457Y49516
X37883Y72194
X37883Y73094
X39333Y72194
X39333Y73094
X37883Y71294
X39333Y73994
X39333Y74944
X39333Y75894
X39333Y70344
X39333Y69394
X37883Y70344
X37883Y69394
X37883Y74944
X37883Y75894
X15457Y55066
X15457Y54116
X15457Y53166
X14007Y50466
X15457Y52266
X15457Y51366
X14007Y52266
X49821Y72194
X49821Y73094
X51271Y72194
X51271Y73094
X49821Y71294
X51271Y73994
X51271Y74944
X51271Y75894
X51271Y70344
X51271Y69394
X49821Y70344
X49821Y69394
X49821Y74944
X49821Y75894
X14007Y51366
X2069Y55066
X2069Y54116
X2069Y48566
X2069Y49516
X3519Y48566
X3519Y49516
X61759Y72194
X61759Y73094
X63209Y72194
X63209Y73094
X61759Y71294
X63209Y73994
X63209Y74944
X63209Y75894
X63209Y70344
X63209Y69394
X61759Y70344
X61759Y69394
X61759Y74944
X61759Y75894
X3519Y55066
X3519Y54116
X2069Y50466
X3519Y52266
X3519Y51366
X2069Y52266
X61759Y27738
X73697Y72194
X73697Y73094
X75147Y72194
X75147Y73094
X73697Y71294
X75147Y73994
X75147Y74944
X75147Y75894
X75147Y70344
X75147Y69394
X73697Y70344
X73697Y69394
X73697Y74944
X73697Y75894
X2069Y9710
X2069Y10610
X3519Y9710
X3519Y10610
X2069Y8810
X3519Y11510
X3519Y12460
X85635Y72194
X85635Y73094
X87085Y72194
X87085Y73094
X85635Y71294
X87085Y73994
X87085Y74944
X87085Y75894
X87085Y70344
X87085Y69394
X85635Y70344
X85635Y69394
X85635Y74944
X85635Y75894
X3519Y13410
X3519Y7860
X3519Y6910
X2069Y7860
X2069Y6910
X2069Y12460
X2069Y13410
X2069Y93022
X2069Y93922
X3519Y93022
X3519Y93922
X2069Y92122
X3519Y94822
X3519Y95772
X3519Y96722
X3519Y91172
X3519Y90222
X2069Y91172
X2069Y90222
X2069Y95772
X2069Y96722
X61759Y33288
X61759Y34238
X85635Y34238
X14007Y9710
X14007Y10610
X15457Y9710
X15457Y10610
X14007Y93022
X14007Y93922
X15457Y93022
X15457Y93922
X14007Y92122
X15457Y94822
X15457Y95772
X15457Y96722
X15457Y91172
X15457Y90222
X14007Y91172
X14007Y90222
X14007Y95772
X14007Y96722
X14007Y8810
X15457Y11510
X15457Y12460
X15457Y13410
X15457Y7860
X15457Y6910
X25945Y93022
X25945Y93922
X27395Y93022
X27395Y93922
X25945Y92122
X27395Y94822
X27395Y95772
X27395Y96722
X27395Y91172
X27395Y90222
X27395Y27738
X25945Y90222
X25945Y95772
X25945Y96722
X14007Y7860
X14007Y6910
X14007Y12460
X14007Y13410
X25945Y9710
X25945Y10610
X27395Y9710
X37883Y93022
X37883Y93922
X39333Y93022
X39333Y93922
X37883Y92122
X39333Y94822
X39333Y95772
X39333Y96722
X39333Y91172
X39333Y90222
X37883Y91172
X37883Y90222
X37883Y95772
X37883Y96722
X27395Y10610
X25945Y8810
X27395Y11510
X27395Y12460
X27395Y13410
X27395Y7860
X27395Y6910
X49821Y93022
X49821Y93922
X51271Y93022
X51271Y93922
X49821Y92122
X51271Y94822
X51271Y95772
X51271Y96722
X51271Y91172
X51271Y90222
X49821Y91172
X49821Y90222
X49821Y95772
X49821Y96722
X25945Y7860
X25945Y6910
X25945Y12460
X25945Y13410
X37883Y9710
X37883Y10610
X39333Y9710
X61759Y93022
X61759Y93922
X63209Y93022
X63209Y93922
X61759Y92122
X63209Y94822
X63209Y95772
X63209Y96722
X63209Y91172
X63209Y90222
X61759Y91172
X61759Y90222
X61759Y95772
X61759Y96722
X39333Y10610
X37883Y8810
X39333Y11510
X39333Y12460
X39333Y13410
X39333Y7860
X39333Y6910
X73697Y93022
X73697Y93922
X75147Y93022
X75147Y93922
X73697Y92122
X75147Y94822
X75147Y95772
X75147Y96722
X75147Y91172
X75147Y90222
X73697Y91172
X73697Y90222
X73697Y95772
X73697Y96722
X37883Y7860
X37883Y6910
X37883Y12460
X37883Y13410
X73697Y30538
X73697Y31438
X2069Y51366
X85635Y93022
X85635Y93922
X87085Y93022
X87085Y93922
X85635Y92122
X87085Y94822
X87085Y95772
X87085Y96722
X87085Y91172
X87085Y90222
X85635Y91172
X85635Y90222
X85635Y95772
X85635Y96722
X49821Y9710
X49821Y10610
X51271Y9710
X51271Y10610
X49821Y8810
X51271Y11510
X25945Y91172
T4
X12802Y91472
X16662Y95472
X16662Y91472
X36678Y28988
X40538Y32988
X40538Y28988
X48616Y32988
X864Y74644
X48616Y28988
X864Y53816
X24740Y95472
X52476Y32988
X48616Y70644
X52476Y74644
X52476Y70644
X52476Y28988
X60554Y32988
X60554Y28988
X64414Y32988
X64414Y28988
X72492Y32988
X72492Y28988
X60554Y74644
X76352Y32988
X76352Y28988
X24740Y91472
X28600Y95472
X28600Y91472
X84430Y32988
X84430Y28988
X88290Y32988
X864Y70644
X4724Y74644
X4724Y70644
X88290Y28988
X36678Y95472
X48616Y12160
X864Y49816
X4724Y53816
X4724Y49816
X12802Y53816
X60554Y70644
X64414Y74644
X64414Y70644
X12802Y49816
X12802Y74644
X16662Y53816
X16662Y49816
X24740Y53816
X24740Y49816
X36678Y91472
X40538Y95472
X40538Y91472
X28600Y53816
X72492Y74644
X28600Y49816
X36678Y53816
X36678Y49816
X40538Y53816
X40538Y49816
X48616Y95472
X48616Y53816
X48616Y49816
X52476Y53816
X52476Y49816
X12802Y70644
X16662Y74644
X16662Y70644
X60554Y53816
X60554Y49816
X72492Y70644
X76352Y74644
X76352Y70644
X64414Y53816
X64414Y49816
X48616Y91472
X52476Y95472
X52476Y91472
X864Y12160
X864Y8160
X4724Y12160
X24740Y74644
X4724Y8160
X84430Y74644
X12802Y12160
X60554Y95472
X12802Y8160
X72492Y53816
X16662Y12160
X16662Y8160
X24740Y12160
X24740Y8160
X28600Y12160
X28600Y8160
X36678Y12160
X36678Y8160
X40538Y12160
X40538Y8160
X24740Y70644
X84430Y70644
X60554Y91472
X64414Y95472
X64414Y91472
X88290Y74644
X88290Y70644
X28600Y74644
X28600Y70644
X48616Y8160
X52476Y12160
X52476Y8160
X72492Y95472
X60554Y12160
X72492Y49816
X864Y95472
X76352Y53816
X76352Y49816
X36678Y74644
X60554Y8160
X64414Y12160
X64414Y8160
X72492Y12160
X72492Y8160
X76352Y12160
X76352Y8160
X84430Y53816
X72492Y91472
X76352Y95472
X76352Y91472
X84430Y12160
X84430Y8160
X88290Y12160
X864Y91472
X4724Y95472
X4724Y91472
X88290Y8160
X84430Y95472
X864Y32988
X864Y28988
X36678Y70644
X40538Y74644
X40538Y70644
X4724Y32988
X12802Y95472
X4724Y28988
X12802Y32988
X12802Y28988
X16662Y32988
X16662Y28988
X24740Y32988
X48616Y74644
X84430Y91472
X88290Y95472
X88290Y91472
X24740Y28988
X84430Y49816
X88290Y53816
X88290Y49816
X28600Y32988
X28600Y28988
X36678Y32988
T5
X79248Y8903
X78867Y19050
X80127Y6340
X67310Y8903
X66929Y19050
X31496Y92215
X68189Y6340
X55372Y8903
X54991Y19050
X56251Y6340
X43434Y8903
X43053Y19050
X44313Y6340
X31496Y8903
X31115Y19050
X32375Y6340
X19558Y8903
X19177Y19050
X20437Y6340
X7620Y8903
X31115Y102362
X32375Y89652
X19558Y92215
X7239Y19050
X19177Y102362
X92065Y89652
X20437Y89652
X7620Y92215
X7239Y102362
X8499Y89652
X91186Y71387
X90805Y81534
X92065Y68824
X79248Y71387
X78867Y81534
X80127Y68824
X67310Y71387
X66929Y81534
X68189Y68824
X55372Y71387
X79248Y92215
X78867Y102362
X80127Y89652
X54991Y81534
X56251Y68824
X43434Y71387
X43053Y81534
X44313Y68824
X31496Y71387
X31115Y81534
X67310Y92215
X32375Y68824
X19558Y71387
X19177Y81534
X20437Y68824
X7620Y71387
X7239Y81534
X8499Y68824
X91186Y50559
X90805Y60706
X92065Y47996
X79248Y50559
X78867Y60706
X80127Y47996
X67310Y50559
X66929Y102362
X68189Y89652
X55372Y92215
X66929Y60706
X68189Y47996
X55372Y50559
X54991Y60706
X56251Y47996
X43434Y50559
X43053Y60706
X54991Y102362
X44313Y47996
X31496Y50559
X31115Y60706
X32375Y47996
X19558Y50559
X19177Y60706
X20437Y47996
X7620Y50559
X7239Y60706
X8499Y47996
X91186Y29731
X90805Y39878
X92065Y27168
X79248Y29731
X56251Y89652
X43434Y92215
X8499Y6340
X78867Y39878
X80127Y27168
X67310Y29731
X66929Y39878
X68189Y27168
X55372Y29731
X54991Y39878
X91186Y92215
X56251Y27168
X43434Y29731
X43053Y39878
X44313Y27168
X31496Y29731
X31115Y39878
X32375Y27168
X19558Y29731
X19177Y39878
X20437Y27168
X7620Y29731
X7239Y39878
X8499Y27168
X91186Y8903
X90805Y102362
X43053Y102362
X44313Y89652
X90805Y19050
X92065Y6340
M30