M48
;GenerationSoftware,Autodesk,EAGLE,9.6.2*%
;CreationDate,2023-08-11T17:42:42Z*%
FMAT,2
ICI,OFF
METRIC,TZ,000.000
T5C0.305
T4C0.400
T3C0.500
T2C1.016
T1C3.048
%
G90
M71
T1
X134620Y17780
X2540Y17780
X2540Y2540
X19050Y17780
X19050Y2540
X35560Y17780
X35560Y2540
X52070Y17780
X52070Y2540
X68580Y17780
X68580Y2540
X85090Y17780
X85090Y2540
X101600Y17780
X101600Y2540
X118110Y17780
X118110Y2540
X151130Y127508
X134620Y2540
X151130Y17780
X151130Y2540
X2540Y38608
X2540Y23368
X19050Y38608
X19050Y23368
X35560Y38608
X35560Y23368
X52070Y38608
X52070Y23368
X68580Y38608
X68580Y23368
X85090Y38608
X85090Y23368
X101600Y38608
X101600Y23368
X118110Y38608
X118110Y23368
X134620Y38608
X134620Y23368
X151130Y38608
X151130Y23368
X2540Y59436
X2540Y44196
X19050Y59436
X19050Y44196
X35560Y59436
X35560Y44196
X52070Y59436
X52070Y44196
X68580Y59436
X68580Y44196
X85090Y59436
X85090Y44196
X101600Y59436
X101600Y44196
X118110Y59436
X118110Y44196
X134620Y59436
X134620Y44196
X151130Y59436
X151130Y44196
X2540Y80264
X2540Y65024
X19050Y80264
X19050Y65024
X35560Y80264
X35560Y65024
X52070Y80264
X52070Y65024
X68580Y80264
X68580Y65024
X85090Y80264
X85090Y65024
X101600Y80264
X101600Y65024
X118110Y80264
X118110Y65024
X134620Y80264
X134620Y65024
X151130Y80264
X151130Y65024
X2540Y101092
X2540Y85852
X19050Y101092
X19050Y85852
X35560Y101092
X35560Y85852
X52070Y101092
X52070Y85852
X68580Y101092
X68580Y85852
X85090Y101092
X85090Y85852
X101600Y101092
X101600Y85852
X118110Y101092
X118110Y85852
X134620Y101092
X134620Y85852
X151130Y101092
X151130Y85852
X2540Y121920
X2540Y106680
X19050Y121920
X19050Y106680
X35560Y121920
X35560Y106680
X52070Y121920
X52070Y106680
X68580Y121920
X68580Y106680
X85090Y121920
X85090Y106680
X101600Y121920
X101600Y106680
X118110Y121920
X118110Y106680
X134620Y121920
X134620Y106680
X151130Y121920
X151130Y106680
X2540Y142748
X2540Y127508
X19050Y142748
X19050Y127508
X35560Y142748
X35560Y127508
X52070Y142748
X52070Y127508
X68580Y142748
X68580Y127508
X85090Y142748
X85090Y127508
X101600Y142748
X101600Y127508
X118110Y142748
X118110Y127508
X134620Y142748
X134620Y127508
X151130Y142748
T2
X109220Y98552
X109220Y101092
X92710Y85852
X92710Y88392
X92710Y90932
X92710Y93472
X92710Y96012
X92710Y98552
X92710Y101092
X76200Y85852
X76200Y88392
X76200Y90932
X76200Y93472
X76200Y96012
X76200Y98552
X76200Y101092
X59690Y85852
X59690Y88392
X59690Y90932
X59690Y93472
X59690Y96012
X59690Y98552
X59690Y101092
X43180Y85852
X43180Y88392
X43180Y90932
X43180Y93472
X43180Y96012
X43180Y98552
X43180Y101092
X26670Y85852
X26670Y88392
X26670Y90932
X26670Y93472
X26670Y96012
X26670Y98552
X26670Y101092
X10160Y85852
X10160Y88392
X10160Y90932
X10160Y93472
X10160Y96012
X10160Y98552
X10160Y101092
X158750Y65024
X158750Y67564
X158750Y70104
X158750Y72644
X158750Y75184
X158750Y77724
X158750Y80264
X142240Y65024
X142240Y67564
X142240Y70104
X142240Y72644
X142240Y75184
X142240Y77724
X142240Y80264
X125730Y65024
X125730Y67564
X125730Y70104
X125730Y72644
X125730Y75184
X125730Y77724
X125730Y80264
X109220Y65024
X109220Y67564
X109220Y70104
X109220Y72644
X109220Y75184
X109220Y77724
X109220Y80264
X92710Y65024
X92710Y67564
X92710Y70104
X92710Y72644
X92710Y75184
X109220Y96012
X92710Y80264
X76200Y65024
X76200Y67564
X76200Y70104
X76200Y72644
X76200Y75184
X76200Y77724
X76200Y80264
X59690Y65024
X59690Y67564
X59690Y70104
X59690Y72644
X59690Y75184
X59690Y77724
X59690Y80264
X43180Y65024
X43180Y67564
X43180Y70104
X43180Y72644
X43180Y75184
X43180Y77724
X43180Y80264
X26670Y65024
X26670Y67564
X26670Y70104
X26670Y72644
X26670Y75184
X26670Y77724
X26670Y80264
X10160Y65024
X10160Y67564
X10160Y70104
X10160Y72644
X10160Y77724
X10160Y80264
X158750Y44196
X158750Y46736
X158750Y49276
X158750Y51816
X158750Y54356
X158750Y56896
X158750Y59436
X142240Y44196
X142240Y46736
X142240Y49276
X142240Y51816
X142240Y54356
X142240Y56896
X142240Y59436
X125730Y44196
X125730Y46736
X125730Y49276
X125730Y51816
X125730Y54356
X125730Y56896
X125730Y59436
X109220Y44196
X109220Y46736
X109220Y49276
X109220Y51816
X109220Y54356
X92710Y77724
X10160Y17780
X10160Y15240
X10160Y12700
X10160Y10160
X10160Y7620
X10160Y5080
X10160Y2540
X109220Y56896
X142240Y38608
X125730Y23368
X125730Y25908
X92710Y38608
X92710Y36068
X92710Y33528
X92710Y30988
X92710Y28448
X142240Y28448
X142240Y30988
X142240Y33528
X76200Y38608
X43180Y59436
X26670Y44196
X109220Y59436
X92710Y44196
X92710Y46736
X26670Y17780
X26670Y15240
X26670Y12700
X26670Y10160
X26670Y7620
X26670Y5080
X26670Y2540
X92710Y49276
X26670Y46736
X142240Y17780
X142240Y15240
X142240Y12700
X142240Y10160
X142240Y7620
X142240Y5080
X142240Y2540
X26670Y49276
X76200Y36068
X158750Y25908
X158750Y28448
X158750Y30988
X43180Y38608
X92710Y51816
X92710Y54356
X92710Y56896
X43180Y17780
X43180Y15240
X43180Y12700
X43180Y10160
X43180Y7620
X43180Y5080
X43180Y2540
X92710Y59436
X43180Y36068
X43180Y33528
X43180Y30988
X43180Y28448
X43180Y25908
X43180Y23368
X158750Y33528
X76200Y33528
X76200Y30988
X26670Y51816
X26670Y54356
X26670Y56896
X158750Y17780
X158750Y15240
X76200Y44196
X76200Y46736
X76200Y49276
X59690Y17780
X59690Y15240
X59690Y12700
X59690Y10160
X59690Y7620
X59690Y5080
X59690Y2540
X76200Y51816
X158750Y12700
X158750Y10160
X158750Y7620
X158750Y5080
X158750Y2540
X10160Y75184
X26670Y59436
X76200Y28448
X76200Y25908
X76200Y23368
X142240Y36068
X92710Y25908
X92710Y23368
X125730Y28448
X76200Y54356
X76200Y56896
X76200Y59436
X76200Y17780
X76200Y15240
X76200Y12700
X76200Y10160
X76200Y7620
X76200Y5080
X76200Y2540
X59690Y44196
X109220Y25908
X109220Y23368
X125730Y38608
X125730Y30988
X125730Y33528
X158750Y36068
X158750Y38608
X10160Y44196
X10160Y46736
X10160Y49276
X10160Y38608
X10160Y36068
X10160Y33528
X10160Y30988
X59690Y46736
X59690Y49276
X59690Y51816
X92710Y17780
X92710Y15240
X92710Y12700
X92710Y10160
X92710Y7620
X92710Y5080
X92710Y2540
X59690Y54356
X10160Y28448
X10160Y25908
X10160Y23368
X10160Y51816
X142240Y23368
X59690Y38608
X59690Y36068
X59690Y33528
X59690Y30988
X59690Y28448
X59690Y25908
X59690Y23368
X142240Y25908
X125730Y36068
X59690Y56896
X59690Y59436
X43180Y44196
X109220Y17780
X109220Y15240
X109220Y12700
X109220Y10160
X109220Y7620
X109220Y5080
X109220Y2540
X43180Y46736
X109220Y38608
X109220Y36068
X109220Y33528
X109220Y30988
X10160Y54356
X10160Y56896
X10160Y59436
X26670Y38608
X26670Y36068
X26670Y33528
X26670Y30988
X26670Y28448
X26670Y25908
X26670Y23368
X43180Y49276
X43180Y51816
X43180Y54356
X125730Y17780
X125730Y15240
X125730Y12700
X125730Y10160
X125730Y7620
X125730Y5080
X125730Y2540
X43180Y56896
X158750Y23368
X109220Y28448
X158750Y127508
X158750Y130048
X158750Y132588
X158750Y135128
X158750Y137668
X158750Y140208
X158750Y142748
X142240Y127508
X142240Y130048
X142240Y132588
X142240Y135128
X142240Y137668
X142240Y140208
X142240Y142748
X125730Y127508
X125730Y130048
X125730Y132588
X125730Y135128
X125730Y137668
X125730Y140208
X125730Y142748
X109220Y127508
X109220Y130048
X109220Y132588
X109220Y135128
X109220Y137668
X109220Y140208
X109220Y142748
X92710Y127508
X92710Y130048
X92710Y132588
X92710Y135128
X92710Y137668
X92710Y140208
X92710Y142748
X76200Y127508
X76200Y130048
X76200Y132588
X76200Y135128
X76200Y137668
X76200Y140208
X76200Y142748
X59690Y127508
X59690Y130048
X59690Y132588
X59690Y135128
X59690Y137668
X59690Y140208
X59690Y142748
X43180Y127508
X43180Y130048
X43180Y132588
X43180Y135128
X43180Y137668
X43180Y140208
X43180Y142748
X26670Y127508
X26670Y130048
X26670Y132588
X26670Y135128
X26670Y137668
X26670Y140208
X26670Y142748
X10160Y127508
X10160Y130048
X10160Y132588
X10160Y135128
X10160Y137668
X10160Y140208
X10160Y142748
X158750Y106680
X158750Y109220
X158750Y111760
X158750Y114300
X158750Y116840
X158750Y119380
X158750Y121920
X142240Y106680
X142240Y109220
X142240Y111760
X142240Y114300
X142240Y116840
X142240Y119380
X142240Y121920
X125730Y106680
X125730Y109220
X125730Y111760
X125730Y114300
X125730Y116840
X125730Y119380
X125730Y121920
X109220Y106680
X109220Y109220
X109220Y111760
X109220Y114300
X109220Y116840
X109220Y119380
X109220Y121920
X92710Y106680
X92710Y109220
X92710Y111760
X92710Y114300
X92710Y116840
X92710Y119380
X92710Y121920
X76200Y106680
X76200Y109220
X76200Y111760
X76200Y114300
X76200Y116840
X76200Y119380
X76200Y121920
X59690Y106680
X59690Y109220
X59690Y111760
X59690Y114300
X59690Y116840
X59690Y119380
X59690Y121920
X43180Y106680
X43180Y109220
X43180Y111760
X43180Y114300
X43180Y116840
X43180Y119380
X43180Y121920
X26670Y106680
X26670Y109220
X26670Y111760
X26670Y114300
X26670Y116840
X26670Y119380
X26670Y121920
X10160Y106680
X10160Y109220
X10160Y111760
X10160Y114300
X10160Y116840
X10160Y119380
X10160Y121920
X158750Y85852
X158750Y88392
X158750Y90932
X158750Y93472
X158750Y96012
X158750Y98552
X158750Y101092
X142240Y85852
X142240Y88392
X142240Y90932
X142240Y93472
X142240Y96012
X142240Y98552
X142240Y101092
X125730Y85852
X125730Y88392
X125730Y90932
X125730Y93472
X125730Y96012
X125730Y98552
X125730Y101092
X109220Y85852
X109220Y88392
X109220Y90932
X109220Y93472
T3
X101535Y69394
X101535Y74944
X101535Y75894
X118045Y72194
X118045Y73094
X119445Y72194
X119445Y73094
X118045Y71294
X119445Y73994
X119445Y74944
X119445Y75894
X119445Y70344
X119445Y69394
X118045Y70344
X118045Y69394
X118045Y74944
X118045Y75894
X134555Y72194
X134555Y73094
X135955Y72194
X135955Y73094
X134555Y71294
X135955Y73994
X135955Y74944
X135955Y75894
X135955Y70344
X135955Y69394
X134555Y70344
X134555Y69394
X134555Y74944
X134555Y75894
X151065Y72194
X151065Y73094
X152465Y72194
X152465Y73094
X151065Y71294
X152465Y73994
X152465Y74944
X152465Y75894
X152465Y70344
X152465Y69394
X151065Y70344
X151065Y69394
X151065Y74944
X151065Y75894
X2475Y93022
X2475Y93922
X3875Y93022
X3875Y93922
X2475Y92122
X3875Y94822
X3875Y95772
X3875Y96722
X3875Y91172
X3875Y90222
X2475Y91172
X2475Y90222
X2475Y95772
X2475Y96722
X18985Y93022
X18985Y93922
X20385Y93022
X20385Y93922
X18985Y92122
X20385Y94822
X20385Y95772
X20385Y96722
X20385Y91172
X20385Y90222
X18985Y91172
X18985Y90222
X18985Y95772
X18985Y96722
X35495Y93022
X35495Y93922
X36895Y93022
X36895Y93922
X35495Y92122
X36895Y94822
X36895Y95772
X36895Y96722
X36895Y91172
X36895Y90222
X35495Y91172
X35495Y90222
X35495Y95772
X35495Y96722
X52005Y93022
X52005Y93922
X53405Y93022
X53405Y93922
X52005Y92122
X53405Y94822
X53405Y95772
X53405Y96722
X53405Y91172
X53405Y90222
X52005Y91172
X52005Y90222
X52005Y95772
X52005Y96722
X68515Y93022
X68515Y93922
X69915Y93022
X69915Y93922
X68515Y92122
X69915Y94822
X69915Y95772
X69915Y96722
X69915Y91172
X69915Y90222
X68515Y91172
X68515Y90222
X68515Y95772
X68515Y96722
X85025Y93022
X85025Y93922
X86425Y93022
X86425Y93922
X85025Y92122
X86425Y94822
X86425Y95772
X86425Y96722
X86425Y91172
X86425Y90222
X85025Y91172
X85025Y90222
X85025Y95772
X85025Y96722
X101535Y93022
X101535Y93922
X102935Y93022
X102935Y93922
X101535Y92122
X102935Y94822
X102935Y95772
X102935Y96722
X102935Y91172
X102935Y90222
X101535Y91172
X101535Y90222
X101535Y95772
X101535Y96722
X118045Y93022
X118045Y93922
X119445Y93022
X119445Y93922
X118045Y92122
X119445Y94822
X119445Y95772
X119445Y96722
X119445Y91172
X119445Y90222
X118045Y91172
X118045Y90222
X118045Y95772
X118045Y96722
X134555Y93022
X134555Y93922
X135955Y93022
X135955Y93922
X134555Y92122
X135955Y94822
X135955Y95772
X135955Y96722
X135955Y91172
X135955Y90222
X134555Y91172
X134555Y90222
X134555Y95772
X134555Y96722
X151065Y93022
X151065Y93922
X152465Y93022
X152465Y93922
X151065Y92122
X152465Y94822
X152465Y95772
X152465Y96722
X152465Y91172
X152465Y90222
X151065Y91172
X151065Y90222
X151065Y95772
X151065Y96722
X2475Y113850
X2475Y114750
X3875Y113850
X3875Y114750
X2475Y112950
X3875Y115650
X3875Y116600
X3875Y117550
X3875Y112000
X3875Y111050
X2475Y112000
X2475Y111050
X2475Y116600
X2475Y117550
X18985Y113850
X18985Y114750
X20385Y113850
X20385Y114750
X18985Y112950
X20385Y115650
X20385Y116600
X20385Y117550
X20385Y112000
X20385Y111050
X18985Y112000
X18985Y111050
X18985Y116600
X18985Y117550
X35495Y113850
X35495Y114750
X36895Y113850
X36895Y114750
X35495Y112950
X36895Y115650
X36895Y116600
X36895Y117550
X36895Y112000
X36895Y111050
X35495Y112000
X35495Y111050
X35495Y116600
X35495Y117550
X52005Y113850
X52005Y114750
X53405Y113850
X53405Y114750
X52005Y112950
X53405Y115650
X53405Y116600
X53405Y117550
X53405Y112000
X53405Y111050
X52005Y112000
X52005Y111050
X52005Y116600
X52005Y117550
X68515Y113850
X68515Y114750
X69915Y113850
X69915Y114750
X68515Y112950
X69915Y115650
X69915Y116600
X69915Y117550
X69915Y112000
X69915Y111050
X68515Y112000
X68515Y111050
X68515Y116600
X68515Y117550
X85025Y113850
X85025Y114750
X86425Y113850
X86425Y114750
X85025Y112950
X86425Y115650
X86425Y116600
X86425Y117550
X86425Y112000
X86425Y111050
X85025Y112000
X85025Y111050
X85025Y116600
X85025Y117550
X101535Y113850
X101535Y114750
X102935Y113850
X102935Y114750
X101535Y112950
X102935Y115650
X102935Y116600
X102935Y117550
X102935Y112000
X101535Y112000
X101535Y111050
X101535Y116600
X101535Y117550
X118045Y113850
X118045Y114750
X119445Y113850
X119445Y114750
X118045Y112950
X119445Y115650
X119445Y116600
X119445Y117550
X119445Y112000
X119445Y111050
X118045Y112000
X118045Y111050
X118045Y116600
X118045Y117550
X134555Y113850
X134555Y114750
X135955Y113850
X135955Y114750
X134555Y112950
X135955Y115650
X135955Y116600
X135955Y117550
X135955Y112000
X135955Y111050
X134555Y112000
X134555Y111050
X134555Y116600
X134555Y117550
X151065Y113850
X151065Y114750
X152465Y113850
X152465Y114750
X151065Y112950
X152465Y115650
X152465Y116600
X152465Y117550
X152465Y112000
X152465Y111050
X151065Y112000
X151065Y111050
X151065Y116600
X151065Y117550
X2475Y134678
X2475Y135578
X3875Y134678
X3875Y135578
X2475Y133778
X3875Y136478
X3875Y137428
X3875Y138378
X53405Y11510
X3875Y132828
X3875Y131878
X2475Y132828
X2475Y131878
X2475Y137428
X2475Y138378
X18985Y134678
X18985Y135578
X20385Y134678
X20385Y135578
X18985Y133778
X20385Y136478
X20385Y137428
X20385Y138378
X20385Y132828
X20385Y131878
X18985Y132828
X18985Y131878
X18985Y137428
X18985Y138378
X35495Y134678
X35495Y135578
X36895Y134678
X36895Y135578
X35495Y133778
X36895Y136478
X36895Y137428
X36895Y138378
X36895Y132828
X36895Y131878
X35495Y132828
X35495Y131878
X35495Y137428
X35495Y138378
X52005Y134678
X52005Y135578
X53405Y134678
X53405Y135578
X52005Y133778
X53405Y136478
X53405Y137428
X53405Y138378
X53405Y132828
X53405Y131878
X52005Y132828
X52005Y131878
X52005Y137428
X52005Y138378
X68515Y134678
X68515Y135578
X69915Y134678
X69915Y135578
X68515Y133778
X69915Y136478
X69915Y137428
X69915Y138378
X69915Y132828
X69915Y131878
X68515Y132828
X68515Y131878
X68515Y137428
X68515Y138378
X85025Y134678
X85025Y135578
X86425Y134678
X86425Y135578
X85025Y133778
X86425Y136478
X86425Y137428
X86425Y138378
X86425Y132828
X86425Y131878
X85025Y132828
X85025Y131878
X85025Y137428
X85025Y138378
X101535Y134678
X101535Y135578
X102935Y134678
X102935Y135578
X101535Y133778
X102935Y136478
X102935Y137428
X102935Y138378
X102935Y132828
X102935Y131878
X101535Y132828
X101535Y131878
X101535Y137428
X101535Y138378
X118045Y134678
X118045Y135578
X119445Y134678
X119445Y135578
X118045Y133778
X119445Y136478
X119445Y137428
X119445Y138378
X119445Y132828
X119445Y131878
X118045Y132828
X118045Y131878
X118045Y137428
X118045Y138378
X134555Y134678
X134555Y135578
X135955Y134678
X135955Y135578
X134555Y133778
X135955Y136478
X135955Y137428
X135955Y138378
X135955Y132828
X135955Y131878
X134555Y132828
X134555Y131878
X134555Y137428
X134555Y138378
X151065Y134678
X151065Y135578
X152465Y134678
X152465Y135578
X151065Y133778
X152465Y136478
X152465Y137428
X152465Y138378
X152465Y132828
X152465Y131878
X151065Y132828
X151065Y131878
X151065Y137428
X151065Y138378
X2475Y9710
X2475Y10610
X3875Y9710
X3875Y10610
X2475Y8810
X3875Y11510
X3875Y12460
X3875Y13410
X3875Y7860
X3875Y6910
X2475Y7860
X2475Y6910
X2475Y12460
X2475Y13410
X18985Y9710
X18985Y10610
X20385Y9710
X20385Y10610
X18985Y8810
X20385Y11510
X20385Y12460
X20385Y13410
X20385Y7860
X20385Y6910
X18985Y7860
X18985Y6910
X18985Y12460
X18985Y13410
X35495Y9710
X35495Y10610
X36895Y9710
X36895Y10610
X35495Y8810
X36895Y11510
X36895Y12460
X36895Y13410
X36895Y7860
X36895Y6910
X35495Y7860
X35495Y6910
X35495Y12460
X35495Y13410
X52005Y9710
X52005Y10610
X53405Y9710
X53405Y10610
X52005Y8810
X53405Y12460
X53405Y13410
X53405Y7860
X53405Y6910
X52005Y7860
X52005Y6910
X52005Y12460
X52005Y13410
X68515Y9710
X68515Y10610
X69915Y9710
X69915Y10610
X68515Y8810
X69915Y11510
X69915Y12460
X69915Y13410
X69915Y7860
X69915Y6910
X68515Y7860
X68515Y6910
X68515Y12460
X68515Y13410
X85025Y9710
X85025Y10610
X86425Y9710
X86425Y10610
X85025Y8810
X86425Y11510
X86425Y12460
X86425Y13410
X86425Y7860
X86425Y6910
X85025Y7860
X85025Y6910
X85025Y12460
X85025Y13410
X101535Y9710
X101535Y10610
X102935Y9710
X102935Y10610
X101535Y8810
X102935Y11510
X102935Y12460
X102935Y13410
X102935Y7860
X102935Y6910
X101535Y7860
X101535Y6910
X101535Y12460
X101535Y13410
X118045Y9710
X118045Y10610
X119445Y9710
X119445Y10610
X118045Y8810
X119445Y11510
X119445Y12460
X119445Y13410
X119445Y7860
X119445Y6910
X118045Y7860
X118045Y6910
X118045Y12460
X118045Y13410
X134555Y9710
X134555Y10610
X135955Y9710
X135955Y10610
X134555Y8810
X135955Y11510
X135955Y12460
X135955Y13410
X135955Y7860
X135955Y6910
X134555Y7860
X134555Y6910
X134555Y12460
X134555Y13410
X151065Y9710
X151065Y10610
X152465Y9710
X152465Y10610
X151065Y8810
X152465Y11510
X152465Y12460
X152465Y13410
X152465Y7860
X152465Y6910
X151065Y7860
X151065Y6910
X151065Y12460
X151065Y13410
X2475Y30538
X2475Y31438
X3875Y30538
X3875Y31438
X2475Y29638
X3875Y32338
X3875Y33288
X3875Y34238
X3875Y28688
X3875Y27738
X2475Y28688
X2475Y27738
X2475Y33288
X2475Y34238
X18985Y30538
X18985Y31438
X20385Y30538
X20385Y31438
X18985Y29638
X20385Y32338
X20385Y33288
X20385Y34238
X20385Y28688
X20385Y27738
X18985Y28688
X18985Y27738
X18985Y33288
X18985Y34238
X35495Y30538
X35495Y31438
X36895Y30538
X36895Y31438
X35495Y29638
X36895Y32338
X36895Y33288
X36895Y34238
X36895Y28688
X36895Y27738
X35495Y28688
X35495Y27738
X35495Y33288
X35495Y34238
X52005Y30538
X52005Y31438
X53405Y30538
X53405Y31438
X52005Y29638
X53405Y32338
X53405Y33288
X53405Y34238
X53405Y28688
X53405Y27738
X52005Y28688
X52005Y27738
X52005Y33288
X52005Y34238
X68515Y30538
X68515Y31438
X69915Y30538
X69915Y31438
X68515Y29638
X69915Y32338
X69915Y33288
X69915Y34238
X69915Y28688
X69915Y27738
X68515Y28688
X68515Y27738
X68515Y33288
X68515Y34238
X85025Y30538
X85025Y31438
X86425Y30538
X86425Y31438
X85025Y29638
X86425Y32338
X86425Y33288
X86425Y34238
X86425Y28688
X86425Y27738
X85025Y28688
X85025Y27738
X85025Y33288
X85025Y34238
X101535Y30538
X101535Y31438
X102935Y30538
X102935Y31438
X101535Y29638
X102935Y32338
X102935Y33288
X102935Y34238
X102935Y28688
X102935Y27738
X101535Y28688
X101535Y27738
X102935Y111050
X101535Y34238
X118045Y30538
X118045Y31438
X119445Y30538
X119445Y31438
X118045Y29638
X119445Y32338
X119445Y33288
X119445Y34238
X119445Y28688
X119445Y27738
X118045Y28688
X118045Y27738
X118045Y33288
X118045Y34238
X134555Y30538
X134555Y31438
X135955Y30538
X135955Y31438
X134555Y29638
X135955Y32338
X135955Y33288
X135955Y34238
X135955Y28688
X135955Y27738
X134555Y28688
X134555Y27738
X134555Y33288
X134555Y34238
X151065Y30538
X151065Y31438
X152465Y30538
X152465Y31438
X151065Y29638
X152465Y32338
X152465Y33288
X152465Y34238
X152465Y28688
X152465Y27738
X151065Y28688
X151065Y27738
X151065Y33288
X151065Y34238
X2475Y51366
X2475Y52266
X3875Y51366
X3875Y52266
X2475Y50466
X3875Y53166
X3875Y54116
X3875Y55066
X3875Y49516
X3875Y48566
X2475Y49516
X2475Y48566
X2475Y54116
X2475Y55066
X18985Y51366
X18985Y52266
X20385Y51366
X20385Y52266
X18985Y50466
X20385Y53166
X20385Y54116
X20385Y55066
X20385Y49516
X20385Y48566
X18985Y49516
X18985Y48566
X18985Y54116
X18985Y55066
X35495Y51366
X35495Y52266
X36895Y51366
X36895Y52266
X35495Y50466
X36895Y53166
X36895Y54116
X36895Y55066
X36895Y49516
X36895Y48566
X35495Y49516
X35495Y48566
X35495Y54116
X35495Y55066
X52005Y51366
X52005Y52266
X53405Y51366
X53405Y52266
X52005Y50466
X53405Y53166
X53405Y54116
X53405Y55066
X53405Y49516
X53405Y48566
X52005Y49516
X52005Y48566
X52005Y54116
X52005Y55066
X68515Y51366
X68515Y52266
X69915Y51366
X69915Y52266
X68515Y50466
X69915Y53166
X69915Y54116
X69915Y55066
X69915Y49516
X69915Y48566
X68515Y49516
X68515Y48566
X68515Y54116
X68515Y55066
X85025Y51366
X85025Y52266
X86425Y51366
X86425Y52266
X85025Y50466
X86425Y53166
X86425Y54116
X86425Y55066
X86425Y49516
X86425Y48566
X85025Y49516
X85025Y48566
X85025Y54116
X85025Y55066
X101535Y51366
X101535Y52266
X102935Y51366
X102935Y52266
X101535Y50466
X102935Y53166
X102935Y54116
X102935Y55066
X102935Y49516
X102935Y48566
X101535Y49516
X101535Y48566
X101535Y54116
X101535Y55066
X118045Y51366
X118045Y52266
X119445Y51366
X119445Y52266
X118045Y50466
X119445Y53166
X119445Y54116
X119445Y55066
X119445Y49516
X119445Y48566
X118045Y49516
X118045Y48566
X118045Y54116
X118045Y55066
X134555Y51366
X134555Y52266
X135955Y51366
X135955Y52266
X134555Y50466
X135955Y53166
X135955Y54116
X135955Y55066
X135955Y49516
X135955Y48566
X134555Y49516
X134555Y48566
X134555Y54116
X134555Y55066
X151065Y51366
X151065Y52266
X152465Y51366
X152465Y52266
X151065Y50466
X152465Y53166
X152465Y54116
X152465Y55066
X152465Y49516
X152465Y48566
X151065Y49516
X151065Y48566
X151065Y54116
X151065Y55066
X101535Y33288
X2475Y72194
X2475Y73094
X3875Y72194
X3875Y73094
X2475Y71294
X3875Y73994
X3875Y74944
X3875Y75894
X3875Y70344
X3875Y69394
X2475Y70344
X2475Y69394
X2475Y74944
X2475Y75894
X18985Y72194
X18985Y73094
X20385Y72194
X20385Y73094
X18985Y71294
X20385Y73994
X20385Y74944
X20385Y75894
X20385Y70344
X20385Y69394
X18985Y70344
X18985Y69394
X18985Y74944
X18985Y75894
X35495Y72194
X35495Y73094
X36895Y72194
X36895Y73094
X35495Y71294
X36895Y73994
X36895Y74944
X36895Y75894
X36895Y70344
X36895Y69394
X35495Y70344
X35495Y69394
X35495Y74944
X35495Y75894
X52005Y72194
X52005Y73094
X53405Y72194
X53405Y73094
X52005Y71294
X53405Y73994
X53405Y74944
X53405Y75894
X53405Y70344
X53405Y69394
X52005Y70344
X52005Y69394
X52005Y74944
X52005Y75894
X68515Y72194
X68515Y73094
X69915Y72194
X69915Y73094
X68515Y71294
X69915Y73994
X69915Y74944
X69915Y75894
X69915Y70344
X69915Y69394
X68515Y70344
X68515Y69394
X68515Y74944
X68515Y75894
X85025Y72194
X85025Y73094
X86425Y72194
X86425Y73094
X85025Y71294
X86425Y73994
X86425Y74944
X86425Y75894
X86425Y70344
X86425Y69394
X85025Y70344
X85025Y69394
X85025Y74944
X85025Y75894
X101535Y72194
X101535Y73094
X102935Y72194
X102935Y73094
X101535Y71294
X102935Y73994
X102935Y74944
X102935Y75894
X102935Y70344
X102935Y69394
X101535Y70344
T4
X34265Y53816
X87655Y28988
X87655Y32988
X116815Y91472
X120675Y95472
X87655Y49816
X1245Y8160
X1245Y12160
X120675Y91472
X83795Y28988
X83795Y32988
X100305Y49816
X104165Y53816
X100305Y91472
X104165Y95472
X104165Y91472
X133325Y91472
X137185Y95472
X137185Y91472
X133325Y95472
X67285Y74644
X116815Y12160
X104165Y8160
X153695Y133128
X116815Y95472
X100305Y53816
X21615Y53816
X21615Y49816
X116815Y8160
X50775Y70644
X54635Y74644
X54635Y70644
X104165Y12160
X100305Y8160
X100305Y12160
X87655Y8160
X149835Y95472
X104165Y49816
X67285Y70644
X71145Y74644
X71145Y70644
X83795Y74644
X149835Y91472
X153695Y95472
X153695Y91472
X1245Y116300
X116815Y53816
X71145Y28988
X149835Y28988
X153695Y32988
X153695Y28988
X5105Y28988
X5105Y32988
X83795Y70644
X87655Y74644
X1245Y112300
X5105Y116300
X5105Y112300
X17755Y116300
X87655Y70644
X100305Y74644
X1245Y28988
X1245Y32988
X153695Y8160
X153695Y12160
X34265Y49816
X17755Y112300
X21615Y116300
X21615Y112300
X34265Y116300
X38125Y53816
X38125Y49816
X87655Y12160
X116815Y49816
X120675Y53816
X120675Y49816
X100305Y70644
X104165Y74644
X104165Y70644
X34265Y112300
X38125Y116300
X38125Y112300
X50775Y116300
X116815Y74644
X133325Y53816
X83795Y8160
X83795Y12160
X71145Y8160
X50775Y112300
X54635Y116300
X54635Y112300
X67285Y116300
X71145Y12160
X67285Y8160
X67285Y12160
X50775Y53816
X149835Y8160
X1245Y53816
X116815Y70644
X120675Y74644
X120675Y70644
X67285Y112300
X71145Y116300
X71145Y112300
X83795Y116300
X133325Y74644
X71145Y32988
X116815Y32988
X100305Y28988
X104165Y32988
X104165Y28988
X133325Y49816
X137185Y53816
X137185Y49816
X83795Y112300
X87655Y116300
X87655Y112300
X100305Y116300
X133325Y70644
X137185Y74644
X137185Y70644
X100305Y112300
X104165Y116300
X104165Y112300
X116815Y116300
X149835Y74644
X149835Y53816
X116815Y28988
X120675Y32988
X120675Y28988
X133325Y28988
X137185Y32988
X137185Y28988
X38125Y32988
X50775Y49816
X54635Y53816
X54635Y49816
X54635Y8160
X116815Y112300
X120675Y116300
X120675Y112300
X133325Y116300
X54635Y12160
X149835Y70644
X153695Y74644
X153695Y70644
X1245Y95472
X50775Y8160
X50775Y12160
X133325Y112300
X137185Y116300
X137185Y112300
X149835Y116300
X149835Y49816
X153695Y53816
X153695Y49816
X5105Y8160
X38125Y8160
X1245Y74644
X38125Y12160
X1245Y91472
X5105Y95472
X149835Y112300
X153695Y116300
X153695Y112300
X1245Y137128
X5105Y91472
X17755Y95472
X34265Y8160
X67285Y53816
X34265Y28988
X34265Y32988
X1245Y49816
X1245Y133128
X5105Y137128
X5105Y133128
X17755Y137128
X5105Y53816
X5105Y49816
X149835Y12160
X137185Y8160
X137185Y12160
X133325Y8160
X133325Y12160
X120675Y8160
X1245Y70644
X17755Y91472
X21615Y95472
X21615Y91472
X17755Y133128
X21615Y137128
X21615Y133128
X34265Y137128
X34265Y95472
X5105Y74644
X5105Y70644
X34265Y133128
X38125Y137128
X38125Y133128
X50775Y137128
X17755Y74644
X120675Y12160
X17755Y53816
X21615Y28988
X67285Y49816
X34265Y91472
X38125Y95472
X38125Y91472
X50775Y133128
X54635Y137128
X54635Y133128
X67285Y137128
X50775Y95472
X71145Y53816
X71145Y49816
X34265Y12160
X21615Y8160
X21615Y12160
X17755Y8160
X17755Y12160
X5105Y12160
X83795Y53816
X17755Y70644
X67285Y133128
X71145Y137128
X71145Y133128
X83795Y137128
X21615Y74644
X21615Y70644
X50775Y91472
X54635Y95472
X54635Y91472
X67285Y95472
X83795Y133128
X87655Y137128
X87655Y133128
X100305Y137128
X34265Y74644
X21615Y32988
X17755Y28988
X17755Y32988
X149835Y32988
X67285Y28988
X67285Y32988
X54635Y28988
X100305Y133128
X104165Y137128
X104165Y133128
X116815Y137128
X67285Y91472
X71145Y95472
X71145Y91472
X83795Y95472
X54635Y32988
X50775Y28988
X50775Y32988
X116815Y133128
X120675Y137128
X120675Y133128
X133325Y137128
X38125Y28988
X133325Y32988
X100305Y32988
X17755Y49816
X34265Y70644
X38125Y74644
X38125Y70644
X83795Y91472
X87655Y95472
X87655Y91472
X133325Y133128
X137185Y137128
X137185Y133128
X149835Y137128
X100305Y95472
X50775Y74644
X83795Y49816
X87655Y53816
X149835Y133128
X153695Y137128
T5
X41910Y58166
X41910Y55626
X40640Y53086
X38100Y46736
X33909Y57023
X40601Y48006
X40894Y60325
X36195Y55702
X54356Y58166
X55880Y50546
X55880Y42926
X58420Y58166
X58420Y55626
X57150Y53086
X54610Y46736
X50419Y57023
X57111Y48006
X57404Y60325
X52705Y55702
X70866Y58166
X72390Y50546
X72390Y42926
X74930Y58166
X74930Y55626
X73660Y53086
X71120Y46736
X66929Y57023
X73621Y48006
X73914Y60325
X69215Y55702
X87376Y58166
X88900Y50546
X88900Y42926
X91440Y58166
X91440Y55626
X90170Y53086
X87630Y46736
X83439Y57023
X90131Y48006
X90424Y60325
X85725Y55702
X103886Y58166
X105410Y50546
X105410Y42926
X107950Y58166
X107950Y55626
X106680Y53086
X104140Y46736
X99949Y57023
X106641Y48006
X106934Y60325
X102235Y55702
X120396Y58166
X121920Y50546
X121920Y42926
X124460Y58166
X124460Y55626
X123190Y53086
X120650Y46736
X116459Y57023
X123151Y48006
X123444Y60325
X118745Y55702
X136906Y58166
X138430Y50546
X138430Y42926
X140970Y58166
X140970Y55626
X139700Y53086
X137160Y46736
X132969Y57023
X139661Y48006
X139954Y60325
X135255Y55702
X153416Y58166
X154940Y50546
X154940Y42926
X157480Y58166
X157480Y55626
X156210Y53086
X153670Y46736
X149479Y57023
X156171Y48006
X156464Y60325
X151765Y55702
X4826Y78994
X6350Y71374
X8890Y78994
X8890Y76454
X7620Y73914
X5080Y67564
X889Y77851
X7581Y68834
X7874Y81153
X3175Y76530
X21336Y78994
X22860Y71374
X22860Y63754
X25400Y78994
X25400Y76454
X24130Y73914
X21590Y67564
X17399Y77851
X24091Y68834
X24384Y81153
X19685Y76530
X37846Y78994
X39370Y71374
X39370Y63754
X41910Y78994
X41910Y76454
X40640Y73914
X38100Y67564
X33909Y77851
X40601Y68834
X40894Y81153
X36195Y76530
X54356Y78994
X55880Y71374
X55880Y63754
X58420Y78994
X58420Y76454
X57150Y73914
X54610Y67564
X50419Y77851
X57111Y68834
X57404Y81153
X52705Y76530
X70866Y78994
X72390Y71374
X72390Y63754
X74930Y78994
X74930Y76454
X73660Y73914
X71120Y67564
X66929Y77851
X73621Y68834
X73914Y81153
X69215Y76530
X87376Y78994
X88900Y71374
X88900Y63754
X91440Y78994
X91440Y76454
X90170Y73914
X87630Y67564
X83439Y77851
X90131Y68834
X90424Y81153
X85725Y76530
X103886Y78994
X105410Y71374
X105410Y63754
X107950Y78994
X107950Y76454
X106680Y73914
X104140Y67564
X99949Y77851
X106641Y68834
X106934Y81153
X102235Y76530
X120396Y78994
X121920Y71374
X121920Y63754
X124460Y78994
X124460Y76454
X123190Y73914
X120650Y67564
X116459Y77851
X123151Y68834
X123444Y81153
X118745Y76530
X136906Y78994
X138430Y71374
X138430Y63754
X140970Y78994
X140970Y76454
X139700Y73914
X137160Y67564
X132969Y77851
X139661Y68834
X139954Y81153
X135255Y76530
X153416Y78994
X154940Y71374
X154940Y63754
X157480Y78994
X157480Y76454
X156210Y73914
X153670Y67564
X149479Y77851
X156171Y68834
X156464Y81153
X151765Y76530
X4826Y99822
X6350Y92202
X6350Y84582
X8890Y99822
X8890Y97282
X7620Y94742
X5080Y88392
X889Y98679
X7581Y89662
X7874Y101981
X3175Y97358
X21336Y99822
X22860Y92202
X22860Y84582
X25400Y99822
X25400Y97282
X24130Y94742
X21590Y88392
X17399Y98679
X24091Y89662
X24384Y101981
X19685Y97358
X37846Y99822
X39370Y92202
X39370Y84582
X151765Y139014
X156464Y143637
X156171Y131318
X149479Y140335
X153670Y130048
X106934Y122809
X106641Y110490
X99949Y119507
X104140Y109220
X106680Y115570
X107950Y118110
X107950Y120650
X88900Y133858
X87376Y141478
X69215Y139014
X73914Y143637
X73621Y131318
X66929Y140335
X71120Y130048
X105410Y105410
X105410Y113030
X103886Y120650
X85725Y118186
X90424Y122809
X90131Y110490
X83439Y119507
X19685Y34874
X90170Y115570
X91440Y118110
X91440Y120650
X88900Y105410
X88900Y113030
X87376Y120650
X4826Y16510
X6350Y8890
X6350Y1270
X8890Y16510
X8890Y13970
X73660Y136398
X74930Y138938
X74930Y141478
X72390Y126238
X72390Y133858
X70866Y141478
X52705Y139014
X7620Y11430
X156210Y136398
X157480Y138938
X5080Y5080
X889Y15367
X7581Y6350
X69215Y118186
X73914Y122809
X73621Y110490
X66929Y119507
X71120Y109220
X73660Y115570
X74930Y118110
X7874Y18669
X157480Y141478
X154940Y126238
X154940Y133858
X153416Y141478
X135255Y139014
X3175Y14046
X21336Y16510
X22860Y8890
X22860Y1270
X25400Y16510
X25400Y13970
X24130Y11430
X21590Y5080
X17399Y15367
X24091Y6350
X24384Y18669
X19685Y14046
X74930Y120650
X72390Y105410
X72390Y113030
X70866Y120650
X52705Y118186
X57404Y122809
X57111Y110490
X37846Y16510
X39370Y8890
X57404Y143637
X57111Y131318
X50419Y140335
X54610Y130048
X57150Y136398
X58420Y138938
X58420Y141478
X39370Y1270
X41910Y16510
X41910Y13970
X40640Y11430
X38100Y5080
X33909Y15367
X40601Y6350
X40894Y18669
X36195Y14046
X50419Y119507
X54610Y109220
X57150Y115570
X58420Y118110
X58420Y120650
X55880Y105410
X55880Y113030
X54356Y16510
X55880Y8890
X55880Y1270
X58420Y16510
X58420Y13970
X57150Y11430
X54610Y5080
X139954Y143637
X139661Y131318
X132969Y140335
X50419Y15367
X57111Y6350
X57404Y18669
X55880Y126238
X55880Y133858
X52705Y14046
X70866Y16510
X72390Y8890
X54356Y120650
X36195Y118186
X40894Y122809
X40601Y110490
X33909Y119507
X38100Y109220
X40640Y115570
X72390Y1270
X54356Y141478
X36195Y139014
X40894Y143637
X40601Y131318
X33909Y140335
X74930Y16510
X137160Y130048
X139700Y136398
X140970Y138938
X140970Y141478
X74930Y13970
X73660Y11430
X71120Y5080
X66929Y15367
X73621Y6350
X73914Y18669
X69215Y14046
X41910Y118110
X41910Y120650
X39370Y105410
X39370Y113030
X37846Y120650
X19685Y118186
X24384Y122809
X87376Y16510
X88900Y8890
X88900Y1270
X91440Y16510
X91440Y13970
X90170Y11430
X87630Y5080
X83439Y15367
X90131Y6350
X90424Y18669
X38100Y130048
X40640Y136398
X41910Y138938
X41910Y141478
X39370Y126238
X85725Y14046
X103886Y16510
X105410Y8890
X24091Y110490
X17399Y119507
X21590Y109220
X24130Y115570
X25400Y118110
X25400Y120650
X22860Y105410
X105410Y1270
X39370Y133858
X37846Y141478
X107950Y16510
X107950Y13970
X106680Y11430
X104140Y5080
X99949Y15367
X106641Y6350
X106934Y18669
X102235Y14046
X120396Y16510
X138430Y126238
X138430Y133858
X136906Y141478
X121920Y8890
X121920Y1270
X124460Y16510
X22860Y113030
X21336Y120650
X3175Y118186
X7874Y122809
X7581Y110490
X889Y119507
X5080Y109220
X124460Y13970
X118745Y139014
X123444Y143637
X123151Y131318
X123190Y11430
X120650Y5080
X116459Y15367
X19685Y139014
X24384Y143637
X24091Y131318
X6350Y63754
X17399Y140335
X21590Y130048
X24130Y136398
X25400Y138938
X123151Y6350
X123444Y18669
X118745Y14046
X7620Y115570
X8890Y118110
X8890Y120650
X6350Y105410
X6350Y113030
X4826Y120650
X151765Y97358
X136906Y16510
X138430Y8890
X116459Y140335
X138430Y1270
X140970Y16510
X140970Y13970
X139700Y11430
X137160Y5080
X132969Y15367
X139661Y6350
X139954Y18669
X135255Y14046
X153416Y16510
X154940Y8890
X154940Y1270
X157480Y16510
X157480Y13970
X156210Y11430
X156464Y101981
X156171Y89662
X149479Y98679
X153670Y88392
X156210Y94742
X157480Y97282
X157480Y99822
X153670Y5080
X149479Y15367
X156171Y6350
X156464Y18669
X151765Y14046
X25400Y141478
X22860Y126238
X22860Y133858
X21336Y141478
X3175Y139014
X7874Y143637
X7581Y131318
X4826Y37338
X6350Y29718
X6350Y22098
X8890Y37338
X8890Y34798
X7620Y32258
X154940Y84582
X154940Y92202
X153416Y99822
X135255Y97358
X139954Y101981
X139661Y89662
X132969Y98679
X5080Y25908
X889Y36195
X7581Y27178
X7874Y39497
X120650Y130048
X3175Y34874
X21336Y37338
X124460Y138938
X124460Y141478
X121920Y126238
X121920Y133858
X22860Y29718
X22860Y22098
X25400Y37338
X25400Y34798
X24130Y32258
X21590Y25908
X17399Y36195
X137160Y88392
X139700Y94742
X140970Y97282
X140970Y99822
X138430Y84582
X138430Y92202
X136906Y99822
X24091Y27178
X24384Y39497
X889Y140335
X5080Y130048
X7620Y136398
X8890Y138938
X8890Y141478
X6350Y126238
X6350Y133858
X37846Y37338
X39370Y29718
X39370Y22098
X41910Y37338
X41910Y34798
X40640Y32258
X38100Y25908
X33909Y36195
X40601Y27178
X118745Y97358
X123444Y101981
X123151Y89662
X116459Y98679
X120650Y88392
X123190Y94742
X124460Y97282
X40894Y39497
X36195Y34874
X54356Y37338
X55880Y29718
X55880Y22098
X58420Y37338
X58420Y34798
X57150Y32258
X54610Y25908
X50419Y36195
X57111Y27178
X57404Y39497
X52705Y34874
X4826Y141478
X151765Y118186
X70866Y37338
X72390Y29718
X72390Y22098
X124460Y99822
X121920Y84582
X121920Y92202
X120396Y99822
X102235Y97358
X106934Y101981
X106641Y89662
X74930Y37338
X156464Y122809
X156171Y110490
X149479Y119507
X153670Y109220
X156210Y115570
X74930Y34798
X73660Y32258
X71120Y25908
X120396Y141478
X102235Y139014
X106934Y143637
X106641Y131318
X99949Y140335
X104140Y130048
X66929Y36195
X73621Y27178
X73914Y39497
X99949Y98679
X104140Y88392
X106680Y94742
X107950Y97282
X107950Y99822
X105410Y84582
X105410Y92202
X69215Y34874
X106680Y136398
X87376Y37338
X88900Y29718
X88900Y22098
X91440Y37338
X91440Y34798
X90170Y32258
X87630Y25908
X83439Y36195
X157480Y118110
X157480Y120650
X154940Y105410
X154940Y113030
X153416Y120650
X90131Y27178
X90424Y39497
X85725Y34874
X103886Y99822
X85725Y97358
X90424Y101981
X90131Y89662
X83439Y98679
X87630Y88392
X90170Y94742
X103886Y37338
X135255Y118186
X139954Y122809
X105410Y29718
X105410Y22098
X107950Y37338
X107950Y34798
X106680Y32258
X104140Y25908
X99949Y36195
X106641Y27178
X87630Y109220
X106934Y39497
X102235Y34874
X120396Y37338
X121920Y29718
X121920Y22098
X124460Y37338
X91440Y97282
X91440Y99822
X88900Y84582
X88900Y92202
X87376Y99822
X69215Y97358
X73914Y101981
X124460Y34798
X123190Y32258
X120650Y25908
X107950Y138938
X116459Y36195
X123151Y27178
X123444Y39497
X139661Y110490
X132969Y119507
X137160Y109220
X139700Y115570
X140970Y118110
X140970Y120650
X138430Y105410
X118745Y34874
X136906Y37338
X138430Y29718
X138430Y22098
X73621Y89662
X66929Y98679
X71120Y88392
X73660Y94742
X74930Y97282
X74930Y99822
X72390Y84582
X140970Y37338
X107950Y141478
X105410Y126238
X105410Y133858
X103886Y141478
X85725Y139014
X90424Y143637
X140970Y34798
X139700Y32258
X137160Y25908
X132969Y36195
X139661Y27178
X139954Y39497
X135255Y34874
X153416Y37338
X154940Y29718
X154940Y22098
X157480Y37338
X72390Y92202
X70866Y99822
X52705Y97358
X57404Y101981
X57111Y89662
X50419Y98679
X54610Y88392
X157480Y34798
X156210Y32258
X153670Y25908
X149479Y36195
X138430Y113030
X136906Y120650
X118745Y118186
X123444Y122809
X123151Y110490
X116459Y119507
X120650Y109220
X156171Y27178
X156464Y39497
X151765Y34874
X4826Y58166
X6350Y50546
X6350Y42926
X8890Y58166
X57150Y94742
X58420Y97282
X58420Y99822
X55880Y84582
X55880Y92202
X54356Y99822
X36195Y97358
X8890Y55626
X7620Y53086
X5080Y46736
X889Y57023
X7581Y48006
X7874Y60325
X3175Y55702
X21336Y58166
X90131Y131318
X83439Y140335
X87630Y130048
X90170Y136398
X22860Y50546
X22860Y42926
X25400Y58166
X25400Y55626
X24130Y53086
X21590Y46736
X40894Y101981
X40601Y89662
X33909Y98679
X38100Y88392
X40640Y94742
X41910Y97282
X41910Y99822
X17399Y57023
X123190Y115570
X124460Y118110
X124460Y120650
X121920Y105410
X121920Y113030
X120396Y120650
X102235Y118186
X24091Y48006
X91440Y138938
X91440Y141478
X88900Y126238
X24384Y60325
X19685Y55702
X37846Y58166
X39370Y50546
X39370Y42926
X123190Y136398
M30