G04 EAGLE Gerber RS-274X export*
G75*
%MOMM*%
%FSLAX34Y34*%
%LPD*%
%INSolderpaste Bottom*%
%IPPOS*%
%AMOC8*
5,1,8,0,0,1.08239X$1,22.5*%
G01*
%ADD10C,0.100000*%


D10*
X66350Y33600D02*
X56350Y33600D01*
X56350Y42600D01*
X66350Y42600D01*
X66350Y33600D01*
X66350Y34550D02*
X56350Y34550D01*
X56350Y35500D02*
X66350Y35500D01*
X66350Y36450D02*
X56350Y36450D01*
X56350Y37400D02*
X66350Y37400D01*
X66350Y38350D02*
X56350Y38350D01*
X56350Y39300D02*
X66350Y39300D01*
X66350Y40250D02*
X56350Y40250D01*
X56350Y41200D02*
X66350Y41200D01*
X66350Y42150D02*
X56350Y42150D01*
X73350Y33600D02*
X83350Y33600D01*
X73350Y33600D02*
X73350Y42600D01*
X83350Y42600D01*
X83350Y33600D01*
X83350Y34550D02*
X73350Y34550D01*
X73350Y35500D02*
X83350Y35500D01*
X83350Y36450D02*
X73350Y36450D01*
X73350Y37400D02*
X83350Y37400D01*
X83350Y38350D02*
X73350Y38350D01*
X73350Y39300D02*
X83350Y39300D01*
X83350Y40250D02*
X73350Y40250D01*
X73350Y41200D02*
X83350Y41200D01*
X83350Y42150D02*
X73350Y42150D01*
X66350Y160600D02*
X56350Y160600D01*
X56350Y169600D01*
X66350Y169600D01*
X66350Y160600D01*
X66350Y161550D02*
X56350Y161550D01*
X56350Y162500D02*
X66350Y162500D01*
X66350Y163450D02*
X56350Y163450D01*
X56350Y164400D02*
X66350Y164400D01*
X66350Y165350D02*
X56350Y165350D01*
X56350Y166300D02*
X66350Y166300D01*
X66350Y167250D02*
X56350Y167250D01*
X56350Y168200D02*
X66350Y168200D01*
X66350Y169150D02*
X56350Y169150D01*
X73350Y160600D02*
X83350Y160600D01*
X73350Y160600D02*
X73350Y169600D01*
X83350Y169600D01*
X83350Y160600D01*
X83350Y161550D02*
X73350Y161550D01*
X73350Y162500D02*
X83350Y162500D01*
X83350Y163450D02*
X73350Y163450D01*
X73350Y164400D02*
X83350Y164400D01*
X83350Y165350D02*
X73350Y165350D01*
X73350Y166300D02*
X83350Y166300D01*
X83350Y167250D02*
X73350Y167250D01*
X73350Y168200D02*
X83350Y168200D01*
X83350Y169150D02*
X73350Y169150D01*
X221450Y33600D02*
X231450Y33600D01*
X221450Y33600D02*
X221450Y42600D01*
X231450Y42600D01*
X231450Y33600D01*
X231450Y34550D02*
X221450Y34550D01*
X221450Y35500D02*
X231450Y35500D01*
X231450Y36450D02*
X221450Y36450D01*
X221450Y37400D02*
X231450Y37400D01*
X231450Y38350D02*
X221450Y38350D01*
X221450Y39300D02*
X231450Y39300D01*
X231450Y40250D02*
X221450Y40250D01*
X221450Y41200D02*
X231450Y41200D01*
X231450Y42150D02*
X221450Y42150D01*
X238450Y33600D02*
X248450Y33600D01*
X238450Y33600D02*
X238450Y42600D01*
X248450Y42600D01*
X248450Y33600D01*
X248450Y34550D02*
X238450Y34550D01*
X238450Y35500D02*
X248450Y35500D01*
X248450Y36450D02*
X238450Y36450D01*
X238450Y37400D02*
X248450Y37400D01*
X248450Y38350D02*
X238450Y38350D01*
X238450Y39300D02*
X248450Y39300D01*
X248450Y40250D02*
X238450Y40250D01*
X238450Y41200D02*
X248450Y41200D01*
X248450Y42150D02*
X238450Y42150D01*
X231450Y160600D02*
X221450Y160600D01*
X221450Y169600D01*
X231450Y169600D01*
X231450Y160600D01*
X231450Y161550D02*
X221450Y161550D01*
X221450Y162500D02*
X231450Y162500D01*
X231450Y163450D02*
X221450Y163450D01*
X221450Y164400D02*
X231450Y164400D01*
X231450Y165350D02*
X221450Y165350D01*
X221450Y166300D02*
X231450Y166300D01*
X231450Y167250D02*
X221450Y167250D01*
X221450Y168200D02*
X231450Y168200D01*
X231450Y169150D02*
X221450Y169150D01*
X238450Y160600D02*
X248450Y160600D01*
X238450Y160600D02*
X238450Y169600D01*
X248450Y169600D01*
X248450Y160600D01*
X248450Y161550D02*
X238450Y161550D01*
X238450Y162500D02*
X248450Y162500D01*
X248450Y163450D02*
X238450Y163450D01*
X238450Y164400D02*
X248450Y164400D01*
X248450Y165350D02*
X238450Y165350D01*
X238450Y166300D02*
X248450Y166300D01*
X248450Y167250D02*
X238450Y167250D01*
X238450Y168200D02*
X248450Y168200D01*
X248450Y169150D02*
X238450Y169150D01*
X386550Y33600D02*
X396550Y33600D01*
X386550Y33600D02*
X386550Y42600D01*
X396550Y42600D01*
X396550Y33600D01*
X396550Y34550D02*
X386550Y34550D01*
X386550Y35500D02*
X396550Y35500D01*
X396550Y36450D02*
X386550Y36450D01*
X386550Y37400D02*
X396550Y37400D01*
X396550Y38350D02*
X386550Y38350D01*
X386550Y39300D02*
X396550Y39300D01*
X396550Y40250D02*
X386550Y40250D01*
X386550Y41200D02*
X396550Y41200D01*
X396550Y42150D02*
X386550Y42150D01*
X403550Y33600D02*
X413550Y33600D01*
X403550Y33600D02*
X403550Y42600D01*
X413550Y42600D01*
X413550Y33600D01*
X413550Y34550D02*
X403550Y34550D01*
X403550Y35500D02*
X413550Y35500D01*
X413550Y36450D02*
X403550Y36450D01*
X403550Y37400D02*
X413550Y37400D01*
X413550Y38350D02*
X403550Y38350D01*
X403550Y39300D02*
X413550Y39300D01*
X413550Y40250D02*
X403550Y40250D01*
X403550Y41200D02*
X413550Y41200D01*
X413550Y42150D02*
X403550Y42150D01*
X396550Y160600D02*
X386550Y160600D01*
X386550Y169600D01*
X396550Y169600D01*
X396550Y160600D01*
X396550Y161550D02*
X386550Y161550D01*
X386550Y162500D02*
X396550Y162500D01*
X396550Y163450D02*
X386550Y163450D01*
X386550Y164400D02*
X396550Y164400D01*
X396550Y165350D02*
X386550Y165350D01*
X386550Y166300D02*
X396550Y166300D01*
X396550Y167250D02*
X386550Y167250D01*
X386550Y168200D02*
X396550Y168200D01*
X396550Y169150D02*
X386550Y169150D01*
X403550Y160600D02*
X413550Y160600D01*
X403550Y160600D02*
X403550Y169600D01*
X413550Y169600D01*
X413550Y160600D01*
X413550Y161550D02*
X403550Y161550D01*
X403550Y162500D02*
X413550Y162500D01*
X413550Y163450D02*
X403550Y163450D01*
X403550Y164400D02*
X413550Y164400D01*
X413550Y165350D02*
X403550Y165350D01*
X403550Y166300D02*
X413550Y166300D01*
X413550Y167250D02*
X403550Y167250D01*
X403550Y168200D02*
X413550Y168200D01*
X413550Y169150D02*
X403550Y169150D01*
X551650Y33600D02*
X561650Y33600D01*
X551650Y33600D02*
X551650Y42600D01*
X561650Y42600D01*
X561650Y33600D01*
X561650Y34550D02*
X551650Y34550D01*
X551650Y35500D02*
X561650Y35500D01*
X561650Y36450D02*
X551650Y36450D01*
X551650Y37400D02*
X561650Y37400D01*
X561650Y38350D02*
X551650Y38350D01*
X551650Y39300D02*
X561650Y39300D01*
X561650Y40250D02*
X551650Y40250D01*
X551650Y41200D02*
X561650Y41200D01*
X561650Y42150D02*
X551650Y42150D01*
X568650Y33600D02*
X578650Y33600D01*
X568650Y33600D02*
X568650Y42600D01*
X578650Y42600D01*
X578650Y33600D01*
X578650Y34550D02*
X568650Y34550D01*
X568650Y35500D02*
X578650Y35500D01*
X578650Y36450D02*
X568650Y36450D01*
X568650Y37400D02*
X578650Y37400D01*
X578650Y38350D02*
X568650Y38350D01*
X568650Y39300D02*
X578650Y39300D01*
X578650Y40250D02*
X568650Y40250D01*
X568650Y41200D02*
X578650Y41200D01*
X578650Y42150D02*
X568650Y42150D01*
X561650Y160600D02*
X551650Y160600D01*
X551650Y169600D01*
X561650Y169600D01*
X561650Y160600D01*
X561650Y161550D02*
X551650Y161550D01*
X551650Y162500D02*
X561650Y162500D01*
X561650Y163450D02*
X551650Y163450D01*
X551650Y164400D02*
X561650Y164400D01*
X561650Y165350D02*
X551650Y165350D01*
X551650Y166300D02*
X561650Y166300D01*
X561650Y167250D02*
X551650Y167250D01*
X551650Y168200D02*
X561650Y168200D01*
X561650Y169150D02*
X551650Y169150D01*
X568650Y160600D02*
X578650Y160600D01*
X568650Y160600D02*
X568650Y169600D01*
X578650Y169600D01*
X578650Y160600D01*
X578650Y161550D02*
X568650Y161550D01*
X568650Y162500D02*
X578650Y162500D01*
X578650Y163450D02*
X568650Y163450D01*
X568650Y164400D02*
X578650Y164400D01*
X578650Y165350D02*
X568650Y165350D01*
X568650Y166300D02*
X578650Y166300D01*
X578650Y167250D02*
X568650Y167250D01*
X568650Y168200D02*
X578650Y168200D01*
X578650Y169150D02*
X568650Y169150D01*
X716750Y33600D02*
X726750Y33600D01*
X716750Y33600D02*
X716750Y42600D01*
X726750Y42600D01*
X726750Y33600D01*
X726750Y34550D02*
X716750Y34550D01*
X716750Y35500D02*
X726750Y35500D01*
X726750Y36450D02*
X716750Y36450D01*
X716750Y37400D02*
X726750Y37400D01*
X726750Y38350D02*
X716750Y38350D01*
X716750Y39300D02*
X726750Y39300D01*
X726750Y40250D02*
X716750Y40250D01*
X716750Y41200D02*
X726750Y41200D01*
X726750Y42150D02*
X716750Y42150D01*
X733750Y33600D02*
X743750Y33600D01*
X733750Y33600D02*
X733750Y42600D01*
X743750Y42600D01*
X743750Y33600D01*
X743750Y34550D02*
X733750Y34550D01*
X733750Y35500D02*
X743750Y35500D01*
X743750Y36450D02*
X733750Y36450D01*
X733750Y37400D02*
X743750Y37400D01*
X743750Y38350D02*
X733750Y38350D01*
X733750Y39300D02*
X743750Y39300D01*
X743750Y40250D02*
X733750Y40250D01*
X733750Y41200D02*
X743750Y41200D01*
X743750Y42150D02*
X733750Y42150D01*
X726750Y160600D02*
X716750Y160600D01*
X716750Y169600D01*
X726750Y169600D01*
X726750Y160600D01*
X726750Y161550D02*
X716750Y161550D01*
X716750Y162500D02*
X726750Y162500D01*
X726750Y163450D02*
X716750Y163450D01*
X716750Y164400D02*
X726750Y164400D01*
X726750Y165350D02*
X716750Y165350D01*
X716750Y166300D02*
X726750Y166300D01*
X726750Y167250D02*
X716750Y167250D01*
X716750Y168200D02*
X726750Y168200D01*
X726750Y169150D02*
X716750Y169150D01*
X733750Y160600D02*
X743750Y160600D01*
X733750Y160600D02*
X733750Y169600D01*
X743750Y169600D01*
X743750Y160600D01*
X743750Y161550D02*
X733750Y161550D01*
X733750Y162500D02*
X743750Y162500D01*
X743750Y163450D02*
X733750Y163450D01*
X733750Y164400D02*
X743750Y164400D01*
X743750Y165350D02*
X733750Y165350D01*
X733750Y166300D02*
X743750Y166300D01*
X743750Y167250D02*
X733750Y167250D01*
X733750Y168200D02*
X743750Y168200D01*
X743750Y169150D02*
X733750Y169150D01*
X881850Y33600D02*
X891850Y33600D01*
X881850Y33600D02*
X881850Y42600D01*
X891850Y42600D01*
X891850Y33600D01*
X891850Y34550D02*
X881850Y34550D01*
X881850Y35500D02*
X891850Y35500D01*
X891850Y36450D02*
X881850Y36450D01*
X881850Y37400D02*
X891850Y37400D01*
X891850Y38350D02*
X881850Y38350D01*
X881850Y39300D02*
X891850Y39300D01*
X891850Y40250D02*
X881850Y40250D01*
X881850Y41200D02*
X891850Y41200D01*
X891850Y42150D02*
X881850Y42150D01*
X898850Y33600D02*
X908850Y33600D01*
X898850Y33600D02*
X898850Y42600D01*
X908850Y42600D01*
X908850Y33600D01*
X908850Y34550D02*
X898850Y34550D01*
X898850Y35500D02*
X908850Y35500D01*
X908850Y36450D02*
X898850Y36450D01*
X898850Y37400D02*
X908850Y37400D01*
X908850Y38350D02*
X898850Y38350D01*
X898850Y39300D02*
X908850Y39300D01*
X908850Y40250D02*
X898850Y40250D01*
X898850Y41200D02*
X908850Y41200D01*
X908850Y42150D02*
X898850Y42150D01*
X891850Y160600D02*
X881850Y160600D01*
X881850Y169600D01*
X891850Y169600D01*
X891850Y160600D01*
X891850Y161550D02*
X881850Y161550D01*
X881850Y162500D02*
X891850Y162500D01*
X891850Y163450D02*
X881850Y163450D01*
X881850Y164400D02*
X891850Y164400D01*
X891850Y165350D02*
X881850Y165350D01*
X881850Y166300D02*
X891850Y166300D01*
X891850Y167250D02*
X881850Y167250D01*
X881850Y168200D02*
X891850Y168200D01*
X891850Y169150D02*
X881850Y169150D01*
X898850Y160600D02*
X908850Y160600D01*
X898850Y160600D02*
X898850Y169600D01*
X908850Y169600D01*
X908850Y160600D01*
X908850Y161550D02*
X898850Y161550D01*
X898850Y162500D02*
X908850Y162500D01*
X908850Y163450D02*
X898850Y163450D01*
X898850Y164400D02*
X908850Y164400D01*
X908850Y165350D02*
X898850Y165350D01*
X898850Y166300D02*
X908850Y166300D01*
X908850Y167250D02*
X898850Y167250D01*
X898850Y168200D02*
X908850Y168200D01*
X908850Y169150D02*
X898850Y169150D01*
X1046950Y33600D02*
X1056950Y33600D01*
X1046950Y33600D02*
X1046950Y42600D01*
X1056950Y42600D01*
X1056950Y33600D01*
X1056950Y34550D02*
X1046950Y34550D01*
X1046950Y35500D02*
X1056950Y35500D01*
X1056950Y36450D02*
X1046950Y36450D01*
X1046950Y37400D02*
X1056950Y37400D01*
X1056950Y38350D02*
X1046950Y38350D01*
X1046950Y39300D02*
X1056950Y39300D01*
X1056950Y40250D02*
X1046950Y40250D01*
X1046950Y41200D02*
X1056950Y41200D01*
X1056950Y42150D02*
X1046950Y42150D01*
X1063950Y33600D02*
X1073950Y33600D01*
X1063950Y33600D02*
X1063950Y42600D01*
X1073950Y42600D01*
X1073950Y33600D01*
X1073950Y34550D02*
X1063950Y34550D01*
X1063950Y35500D02*
X1073950Y35500D01*
X1073950Y36450D02*
X1063950Y36450D01*
X1063950Y37400D02*
X1073950Y37400D01*
X1073950Y38350D02*
X1063950Y38350D01*
X1063950Y39300D02*
X1073950Y39300D01*
X1073950Y40250D02*
X1063950Y40250D01*
X1063950Y41200D02*
X1073950Y41200D01*
X1073950Y42150D02*
X1063950Y42150D01*
X1056950Y160600D02*
X1046950Y160600D01*
X1046950Y169600D01*
X1056950Y169600D01*
X1056950Y160600D01*
X1056950Y161550D02*
X1046950Y161550D01*
X1046950Y162500D02*
X1056950Y162500D01*
X1056950Y163450D02*
X1046950Y163450D01*
X1046950Y164400D02*
X1056950Y164400D01*
X1056950Y165350D02*
X1046950Y165350D01*
X1046950Y166300D02*
X1056950Y166300D01*
X1056950Y167250D02*
X1046950Y167250D01*
X1046950Y168200D02*
X1056950Y168200D01*
X1056950Y169150D02*
X1046950Y169150D01*
X1063950Y160600D02*
X1073950Y160600D01*
X1063950Y160600D02*
X1063950Y169600D01*
X1073950Y169600D01*
X1073950Y160600D01*
X1073950Y161550D02*
X1063950Y161550D01*
X1063950Y162500D02*
X1073950Y162500D01*
X1073950Y163450D02*
X1063950Y163450D01*
X1063950Y164400D02*
X1073950Y164400D01*
X1073950Y165350D02*
X1063950Y165350D01*
X1063950Y166300D02*
X1073950Y166300D01*
X1073950Y167250D02*
X1063950Y167250D01*
X1063950Y168200D02*
X1073950Y168200D01*
X1073950Y169150D02*
X1063950Y169150D01*
X1212050Y33600D02*
X1222050Y33600D01*
X1212050Y33600D02*
X1212050Y42600D01*
X1222050Y42600D01*
X1222050Y33600D01*
X1222050Y34550D02*
X1212050Y34550D01*
X1212050Y35500D02*
X1222050Y35500D01*
X1222050Y36450D02*
X1212050Y36450D01*
X1212050Y37400D02*
X1222050Y37400D01*
X1222050Y38350D02*
X1212050Y38350D01*
X1212050Y39300D02*
X1222050Y39300D01*
X1222050Y40250D02*
X1212050Y40250D01*
X1212050Y41200D02*
X1222050Y41200D01*
X1222050Y42150D02*
X1212050Y42150D01*
X1229050Y33600D02*
X1239050Y33600D01*
X1229050Y33600D02*
X1229050Y42600D01*
X1239050Y42600D01*
X1239050Y33600D01*
X1239050Y34550D02*
X1229050Y34550D01*
X1229050Y35500D02*
X1239050Y35500D01*
X1239050Y36450D02*
X1229050Y36450D01*
X1229050Y37400D02*
X1239050Y37400D01*
X1239050Y38350D02*
X1229050Y38350D01*
X1229050Y39300D02*
X1239050Y39300D01*
X1239050Y40250D02*
X1229050Y40250D01*
X1229050Y41200D02*
X1239050Y41200D01*
X1239050Y42150D02*
X1229050Y42150D01*
X1222050Y160600D02*
X1212050Y160600D01*
X1212050Y169600D01*
X1222050Y169600D01*
X1222050Y160600D01*
X1222050Y161550D02*
X1212050Y161550D01*
X1212050Y162500D02*
X1222050Y162500D01*
X1222050Y163450D02*
X1212050Y163450D01*
X1212050Y164400D02*
X1222050Y164400D01*
X1222050Y165350D02*
X1212050Y165350D01*
X1212050Y166300D02*
X1222050Y166300D01*
X1222050Y167250D02*
X1212050Y167250D01*
X1212050Y168200D02*
X1222050Y168200D01*
X1222050Y169150D02*
X1212050Y169150D01*
X1229050Y160600D02*
X1239050Y160600D01*
X1229050Y160600D02*
X1229050Y169600D01*
X1239050Y169600D01*
X1239050Y160600D01*
X1239050Y161550D02*
X1229050Y161550D01*
X1229050Y162500D02*
X1239050Y162500D01*
X1239050Y163450D02*
X1229050Y163450D01*
X1229050Y164400D02*
X1239050Y164400D01*
X1239050Y165350D02*
X1229050Y165350D01*
X1229050Y166300D02*
X1239050Y166300D01*
X1239050Y167250D02*
X1229050Y167250D01*
X1229050Y168200D02*
X1239050Y168200D01*
X1239050Y169150D02*
X1229050Y169150D01*
X1377150Y33600D02*
X1387150Y33600D01*
X1377150Y33600D02*
X1377150Y42600D01*
X1387150Y42600D01*
X1387150Y33600D01*
X1387150Y34550D02*
X1377150Y34550D01*
X1377150Y35500D02*
X1387150Y35500D01*
X1387150Y36450D02*
X1377150Y36450D01*
X1377150Y37400D02*
X1387150Y37400D01*
X1387150Y38350D02*
X1377150Y38350D01*
X1377150Y39300D02*
X1387150Y39300D01*
X1387150Y40250D02*
X1377150Y40250D01*
X1377150Y41200D02*
X1387150Y41200D01*
X1387150Y42150D02*
X1377150Y42150D01*
X1394150Y33600D02*
X1404150Y33600D01*
X1394150Y33600D02*
X1394150Y42600D01*
X1404150Y42600D01*
X1404150Y33600D01*
X1404150Y34550D02*
X1394150Y34550D01*
X1394150Y35500D02*
X1404150Y35500D01*
X1404150Y36450D02*
X1394150Y36450D01*
X1394150Y37400D02*
X1404150Y37400D01*
X1404150Y38350D02*
X1394150Y38350D01*
X1394150Y39300D02*
X1404150Y39300D01*
X1404150Y40250D02*
X1394150Y40250D01*
X1394150Y41200D02*
X1404150Y41200D01*
X1404150Y42150D02*
X1394150Y42150D01*
X1387150Y160600D02*
X1377150Y160600D01*
X1377150Y169600D01*
X1387150Y169600D01*
X1387150Y160600D01*
X1387150Y161550D02*
X1377150Y161550D01*
X1377150Y162500D02*
X1387150Y162500D01*
X1387150Y163450D02*
X1377150Y163450D01*
X1377150Y164400D02*
X1387150Y164400D01*
X1387150Y165350D02*
X1377150Y165350D01*
X1377150Y166300D02*
X1387150Y166300D01*
X1387150Y167250D02*
X1377150Y167250D01*
X1377150Y168200D02*
X1387150Y168200D01*
X1387150Y169150D02*
X1377150Y169150D01*
X1394150Y160600D02*
X1404150Y160600D01*
X1394150Y160600D02*
X1394150Y169600D01*
X1404150Y169600D01*
X1404150Y160600D01*
X1404150Y161550D02*
X1394150Y161550D01*
X1394150Y162500D02*
X1404150Y162500D01*
X1404150Y163450D02*
X1394150Y163450D01*
X1394150Y164400D02*
X1404150Y164400D01*
X1404150Y165350D02*
X1394150Y165350D01*
X1394150Y166300D02*
X1404150Y166300D01*
X1404150Y167250D02*
X1394150Y167250D01*
X1394150Y168200D02*
X1404150Y168200D01*
X1404150Y169150D02*
X1394150Y169150D01*
X1542250Y33600D02*
X1552250Y33600D01*
X1542250Y33600D02*
X1542250Y42600D01*
X1552250Y42600D01*
X1552250Y33600D01*
X1552250Y34550D02*
X1542250Y34550D01*
X1542250Y35500D02*
X1552250Y35500D01*
X1552250Y36450D02*
X1542250Y36450D01*
X1542250Y37400D02*
X1552250Y37400D01*
X1552250Y38350D02*
X1542250Y38350D01*
X1542250Y39300D02*
X1552250Y39300D01*
X1552250Y40250D02*
X1542250Y40250D01*
X1542250Y41200D02*
X1552250Y41200D01*
X1552250Y42150D02*
X1542250Y42150D01*
X1559250Y33600D02*
X1569250Y33600D01*
X1559250Y33600D02*
X1559250Y42600D01*
X1569250Y42600D01*
X1569250Y33600D01*
X1569250Y34550D02*
X1559250Y34550D01*
X1559250Y35500D02*
X1569250Y35500D01*
X1569250Y36450D02*
X1559250Y36450D01*
X1559250Y37400D02*
X1569250Y37400D01*
X1569250Y38350D02*
X1559250Y38350D01*
X1559250Y39300D02*
X1569250Y39300D01*
X1569250Y40250D02*
X1559250Y40250D01*
X1559250Y41200D02*
X1569250Y41200D01*
X1569250Y42150D02*
X1559250Y42150D01*
X1552250Y160600D02*
X1542250Y160600D01*
X1542250Y169600D01*
X1552250Y169600D01*
X1552250Y160600D01*
X1552250Y161550D02*
X1542250Y161550D01*
X1542250Y162500D02*
X1552250Y162500D01*
X1552250Y163450D02*
X1542250Y163450D01*
X1542250Y164400D02*
X1552250Y164400D01*
X1552250Y165350D02*
X1542250Y165350D01*
X1542250Y166300D02*
X1552250Y166300D01*
X1552250Y167250D02*
X1542250Y167250D01*
X1542250Y168200D02*
X1552250Y168200D01*
X1552250Y169150D02*
X1542250Y169150D01*
X1559250Y160600D02*
X1569250Y160600D01*
X1559250Y160600D02*
X1559250Y169600D01*
X1569250Y169600D01*
X1569250Y160600D01*
X1569250Y161550D02*
X1559250Y161550D01*
X1559250Y162500D02*
X1569250Y162500D01*
X1569250Y163450D02*
X1559250Y163450D01*
X1559250Y164400D02*
X1569250Y164400D01*
X1569250Y165350D02*
X1559250Y165350D01*
X1559250Y166300D02*
X1569250Y166300D01*
X1569250Y167250D02*
X1559250Y167250D01*
X1559250Y168200D02*
X1569250Y168200D01*
X1569250Y169150D02*
X1559250Y169150D01*
X66350Y241880D02*
X56350Y241880D01*
X56350Y250880D01*
X66350Y250880D01*
X66350Y241880D01*
X66350Y242830D02*
X56350Y242830D01*
X56350Y243780D02*
X66350Y243780D01*
X66350Y244730D02*
X56350Y244730D01*
X56350Y245680D02*
X66350Y245680D01*
X66350Y246630D02*
X56350Y246630D01*
X56350Y247580D02*
X66350Y247580D01*
X66350Y248530D02*
X56350Y248530D01*
X56350Y249480D02*
X66350Y249480D01*
X66350Y250430D02*
X56350Y250430D01*
X73350Y241880D02*
X83350Y241880D01*
X73350Y241880D02*
X73350Y250880D01*
X83350Y250880D01*
X83350Y241880D01*
X83350Y242830D02*
X73350Y242830D01*
X73350Y243780D02*
X83350Y243780D01*
X83350Y244730D02*
X73350Y244730D01*
X73350Y245680D02*
X83350Y245680D01*
X83350Y246630D02*
X73350Y246630D01*
X73350Y247580D02*
X83350Y247580D01*
X83350Y248530D02*
X73350Y248530D01*
X73350Y249480D02*
X83350Y249480D01*
X83350Y250430D02*
X73350Y250430D01*
X66350Y368880D02*
X56350Y368880D01*
X56350Y377880D01*
X66350Y377880D01*
X66350Y368880D01*
X66350Y369830D02*
X56350Y369830D01*
X56350Y370780D02*
X66350Y370780D01*
X66350Y371730D02*
X56350Y371730D01*
X56350Y372680D02*
X66350Y372680D01*
X66350Y373630D02*
X56350Y373630D01*
X56350Y374580D02*
X66350Y374580D01*
X66350Y375530D02*
X56350Y375530D01*
X56350Y376480D02*
X66350Y376480D01*
X66350Y377430D02*
X56350Y377430D01*
X73350Y368880D02*
X83350Y368880D01*
X73350Y368880D02*
X73350Y377880D01*
X83350Y377880D01*
X83350Y368880D01*
X83350Y369830D02*
X73350Y369830D01*
X73350Y370780D02*
X83350Y370780D01*
X83350Y371730D02*
X73350Y371730D01*
X73350Y372680D02*
X83350Y372680D01*
X83350Y373630D02*
X73350Y373630D01*
X73350Y374580D02*
X83350Y374580D01*
X83350Y375530D02*
X73350Y375530D01*
X73350Y376480D02*
X83350Y376480D01*
X83350Y377430D02*
X73350Y377430D01*
X221450Y241880D02*
X231450Y241880D01*
X221450Y241880D02*
X221450Y250880D01*
X231450Y250880D01*
X231450Y241880D01*
X231450Y242830D02*
X221450Y242830D01*
X221450Y243780D02*
X231450Y243780D01*
X231450Y244730D02*
X221450Y244730D01*
X221450Y245680D02*
X231450Y245680D01*
X231450Y246630D02*
X221450Y246630D01*
X221450Y247580D02*
X231450Y247580D01*
X231450Y248530D02*
X221450Y248530D01*
X221450Y249480D02*
X231450Y249480D01*
X231450Y250430D02*
X221450Y250430D01*
X238450Y241880D02*
X248450Y241880D01*
X238450Y241880D02*
X238450Y250880D01*
X248450Y250880D01*
X248450Y241880D01*
X248450Y242830D02*
X238450Y242830D01*
X238450Y243780D02*
X248450Y243780D01*
X248450Y244730D02*
X238450Y244730D01*
X238450Y245680D02*
X248450Y245680D01*
X248450Y246630D02*
X238450Y246630D01*
X238450Y247580D02*
X248450Y247580D01*
X248450Y248530D02*
X238450Y248530D01*
X238450Y249480D02*
X248450Y249480D01*
X248450Y250430D02*
X238450Y250430D01*
X231450Y368880D02*
X221450Y368880D01*
X221450Y377880D01*
X231450Y377880D01*
X231450Y368880D01*
X231450Y369830D02*
X221450Y369830D01*
X221450Y370780D02*
X231450Y370780D01*
X231450Y371730D02*
X221450Y371730D01*
X221450Y372680D02*
X231450Y372680D01*
X231450Y373630D02*
X221450Y373630D01*
X221450Y374580D02*
X231450Y374580D01*
X231450Y375530D02*
X221450Y375530D01*
X221450Y376480D02*
X231450Y376480D01*
X231450Y377430D02*
X221450Y377430D01*
X238450Y368880D02*
X248450Y368880D01*
X238450Y368880D02*
X238450Y377880D01*
X248450Y377880D01*
X248450Y368880D01*
X248450Y369830D02*
X238450Y369830D01*
X238450Y370780D02*
X248450Y370780D01*
X248450Y371730D02*
X238450Y371730D01*
X238450Y372680D02*
X248450Y372680D01*
X248450Y373630D02*
X238450Y373630D01*
X238450Y374580D02*
X248450Y374580D01*
X248450Y375530D02*
X238450Y375530D01*
X238450Y376480D02*
X248450Y376480D01*
X248450Y377430D02*
X238450Y377430D01*
X386550Y241880D02*
X396550Y241880D01*
X386550Y241880D02*
X386550Y250880D01*
X396550Y250880D01*
X396550Y241880D01*
X396550Y242830D02*
X386550Y242830D01*
X386550Y243780D02*
X396550Y243780D01*
X396550Y244730D02*
X386550Y244730D01*
X386550Y245680D02*
X396550Y245680D01*
X396550Y246630D02*
X386550Y246630D01*
X386550Y247580D02*
X396550Y247580D01*
X396550Y248530D02*
X386550Y248530D01*
X386550Y249480D02*
X396550Y249480D01*
X396550Y250430D02*
X386550Y250430D01*
X403550Y241880D02*
X413550Y241880D01*
X403550Y241880D02*
X403550Y250880D01*
X413550Y250880D01*
X413550Y241880D01*
X413550Y242830D02*
X403550Y242830D01*
X403550Y243780D02*
X413550Y243780D01*
X413550Y244730D02*
X403550Y244730D01*
X403550Y245680D02*
X413550Y245680D01*
X413550Y246630D02*
X403550Y246630D01*
X403550Y247580D02*
X413550Y247580D01*
X413550Y248530D02*
X403550Y248530D01*
X403550Y249480D02*
X413550Y249480D01*
X413550Y250430D02*
X403550Y250430D01*
X396550Y368880D02*
X386550Y368880D01*
X386550Y377880D01*
X396550Y377880D01*
X396550Y368880D01*
X396550Y369830D02*
X386550Y369830D01*
X386550Y370780D02*
X396550Y370780D01*
X396550Y371730D02*
X386550Y371730D01*
X386550Y372680D02*
X396550Y372680D01*
X396550Y373630D02*
X386550Y373630D01*
X386550Y374580D02*
X396550Y374580D01*
X396550Y375530D02*
X386550Y375530D01*
X386550Y376480D02*
X396550Y376480D01*
X396550Y377430D02*
X386550Y377430D01*
X403550Y368880D02*
X413550Y368880D01*
X403550Y368880D02*
X403550Y377880D01*
X413550Y377880D01*
X413550Y368880D01*
X413550Y369830D02*
X403550Y369830D01*
X403550Y370780D02*
X413550Y370780D01*
X413550Y371730D02*
X403550Y371730D01*
X403550Y372680D02*
X413550Y372680D01*
X413550Y373630D02*
X403550Y373630D01*
X403550Y374580D02*
X413550Y374580D01*
X413550Y375530D02*
X403550Y375530D01*
X403550Y376480D02*
X413550Y376480D01*
X413550Y377430D02*
X403550Y377430D01*
X551650Y241880D02*
X561650Y241880D01*
X551650Y241880D02*
X551650Y250880D01*
X561650Y250880D01*
X561650Y241880D01*
X561650Y242830D02*
X551650Y242830D01*
X551650Y243780D02*
X561650Y243780D01*
X561650Y244730D02*
X551650Y244730D01*
X551650Y245680D02*
X561650Y245680D01*
X561650Y246630D02*
X551650Y246630D01*
X551650Y247580D02*
X561650Y247580D01*
X561650Y248530D02*
X551650Y248530D01*
X551650Y249480D02*
X561650Y249480D01*
X561650Y250430D02*
X551650Y250430D01*
X568650Y241880D02*
X578650Y241880D01*
X568650Y241880D02*
X568650Y250880D01*
X578650Y250880D01*
X578650Y241880D01*
X578650Y242830D02*
X568650Y242830D01*
X568650Y243780D02*
X578650Y243780D01*
X578650Y244730D02*
X568650Y244730D01*
X568650Y245680D02*
X578650Y245680D01*
X578650Y246630D02*
X568650Y246630D01*
X568650Y247580D02*
X578650Y247580D01*
X578650Y248530D02*
X568650Y248530D01*
X568650Y249480D02*
X578650Y249480D01*
X578650Y250430D02*
X568650Y250430D01*
X561650Y368880D02*
X551650Y368880D01*
X551650Y377880D01*
X561650Y377880D01*
X561650Y368880D01*
X561650Y369830D02*
X551650Y369830D01*
X551650Y370780D02*
X561650Y370780D01*
X561650Y371730D02*
X551650Y371730D01*
X551650Y372680D02*
X561650Y372680D01*
X561650Y373630D02*
X551650Y373630D01*
X551650Y374580D02*
X561650Y374580D01*
X561650Y375530D02*
X551650Y375530D01*
X551650Y376480D02*
X561650Y376480D01*
X561650Y377430D02*
X551650Y377430D01*
X568650Y368880D02*
X578650Y368880D01*
X568650Y368880D02*
X568650Y377880D01*
X578650Y377880D01*
X578650Y368880D01*
X578650Y369830D02*
X568650Y369830D01*
X568650Y370780D02*
X578650Y370780D01*
X578650Y371730D02*
X568650Y371730D01*
X568650Y372680D02*
X578650Y372680D01*
X578650Y373630D02*
X568650Y373630D01*
X568650Y374580D02*
X578650Y374580D01*
X578650Y375530D02*
X568650Y375530D01*
X568650Y376480D02*
X578650Y376480D01*
X578650Y377430D02*
X568650Y377430D01*
X716750Y241880D02*
X726750Y241880D01*
X716750Y241880D02*
X716750Y250880D01*
X726750Y250880D01*
X726750Y241880D01*
X726750Y242830D02*
X716750Y242830D01*
X716750Y243780D02*
X726750Y243780D01*
X726750Y244730D02*
X716750Y244730D01*
X716750Y245680D02*
X726750Y245680D01*
X726750Y246630D02*
X716750Y246630D01*
X716750Y247580D02*
X726750Y247580D01*
X726750Y248530D02*
X716750Y248530D01*
X716750Y249480D02*
X726750Y249480D01*
X726750Y250430D02*
X716750Y250430D01*
X733750Y241880D02*
X743750Y241880D01*
X733750Y241880D02*
X733750Y250880D01*
X743750Y250880D01*
X743750Y241880D01*
X743750Y242830D02*
X733750Y242830D01*
X733750Y243780D02*
X743750Y243780D01*
X743750Y244730D02*
X733750Y244730D01*
X733750Y245680D02*
X743750Y245680D01*
X743750Y246630D02*
X733750Y246630D01*
X733750Y247580D02*
X743750Y247580D01*
X743750Y248530D02*
X733750Y248530D01*
X733750Y249480D02*
X743750Y249480D01*
X743750Y250430D02*
X733750Y250430D01*
X726750Y368880D02*
X716750Y368880D01*
X716750Y377880D01*
X726750Y377880D01*
X726750Y368880D01*
X726750Y369830D02*
X716750Y369830D01*
X716750Y370780D02*
X726750Y370780D01*
X726750Y371730D02*
X716750Y371730D01*
X716750Y372680D02*
X726750Y372680D01*
X726750Y373630D02*
X716750Y373630D01*
X716750Y374580D02*
X726750Y374580D01*
X726750Y375530D02*
X716750Y375530D01*
X716750Y376480D02*
X726750Y376480D01*
X726750Y377430D02*
X716750Y377430D01*
X733750Y368880D02*
X743750Y368880D01*
X733750Y368880D02*
X733750Y377880D01*
X743750Y377880D01*
X743750Y368880D01*
X743750Y369830D02*
X733750Y369830D01*
X733750Y370780D02*
X743750Y370780D01*
X743750Y371730D02*
X733750Y371730D01*
X733750Y372680D02*
X743750Y372680D01*
X743750Y373630D02*
X733750Y373630D01*
X733750Y374580D02*
X743750Y374580D01*
X743750Y375530D02*
X733750Y375530D01*
X733750Y376480D02*
X743750Y376480D01*
X743750Y377430D02*
X733750Y377430D01*
X881850Y241880D02*
X891850Y241880D01*
X881850Y241880D02*
X881850Y250880D01*
X891850Y250880D01*
X891850Y241880D01*
X891850Y242830D02*
X881850Y242830D01*
X881850Y243780D02*
X891850Y243780D01*
X891850Y244730D02*
X881850Y244730D01*
X881850Y245680D02*
X891850Y245680D01*
X891850Y246630D02*
X881850Y246630D01*
X881850Y247580D02*
X891850Y247580D01*
X891850Y248530D02*
X881850Y248530D01*
X881850Y249480D02*
X891850Y249480D01*
X891850Y250430D02*
X881850Y250430D01*
X898850Y241880D02*
X908850Y241880D01*
X898850Y241880D02*
X898850Y250880D01*
X908850Y250880D01*
X908850Y241880D01*
X908850Y242830D02*
X898850Y242830D01*
X898850Y243780D02*
X908850Y243780D01*
X908850Y244730D02*
X898850Y244730D01*
X898850Y245680D02*
X908850Y245680D01*
X908850Y246630D02*
X898850Y246630D01*
X898850Y247580D02*
X908850Y247580D01*
X908850Y248530D02*
X898850Y248530D01*
X898850Y249480D02*
X908850Y249480D01*
X908850Y250430D02*
X898850Y250430D01*
X891850Y368880D02*
X881850Y368880D01*
X881850Y377880D01*
X891850Y377880D01*
X891850Y368880D01*
X891850Y369830D02*
X881850Y369830D01*
X881850Y370780D02*
X891850Y370780D01*
X891850Y371730D02*
X881850Y371730D01*
X881850Y372680D02*
X891850Y372680D01*
X891850Y373630D02*
X881850Y373630D01*
X881850Y374580D02*
X891850Y374580D01*
X891850Y375530D02*
X881850Y375530D01*
X881850Y376480D02*
X891850Y376480D01*
X891850Y377430D02*
X881850Y377430D01*
X898850Y368880D02*
X908850Y368880D01*
X898850Y368880D02*
X898850Y377880D01*
X908850Y377880D01*
X908850Y368880D01*
X908850Y369830D02*
X898850Y369830D01*
X898850Y370780D02*
X908850Y370780D01*
X908850Y371730D02*
X898850Y371730D01*
X898850Y372680D02*
X908850Y372680D01*
X908850Y373630D02*
X898850Y373630D01*
X898850Y374580D02*
X908850Y374580D01*
X908850Y375530D02*
X898850Y375530D01*
X898850Y376480D02*
X908850Y376480D01*
X908850Y377430D02*
X898850Y377430D01*
X1046950Y241880D02*
X1056950Y241880D01*
X1046950Y241880D02*
X1046950Y250880D01*
X1056950Y250880D01*
X1056950Y241880D01*
X1056950Y242830D02*
X1046950Y242830D01*
X1046950Y243780D02*
X1056950Y243780D01*
X1056950Y244730D02*
X1046950Y244730D01*
X1046950Y245680D02*
X1056950Y245680D01*
X1056950Y246630D02*
X1046950Y246630D01*
X1046950Y247580D02*
X1056950Y247580D01*
X1056950Y248530D02*
X1046950Y248530D01*
X1046950Y249480D02*
X1056950Y249480D01*
X1056950Y250430D02*
X1046950Y250430D01*
X1063950Y241880D02*
X1073950Y241880D01*
X1063950Y241880D02*
X1063950Y250880D01*
X1073950Y250880D01*
X1073950Y241880D01*
X1073950Y242830D02*
X1063950Y242830D01*
X1063950Y243780D02*
X1073950Y243780D01*
X1073950Y244730D02*
X1063950Y244730D01*
X1063950Y245680D02*
X1073950Y245680D01*
X1073950Y246630D02*
X1063950Y246630D01*
X1063950Y247580D02*
X1073950Y247580D01*
X1073950Y248530D02*
X1063950Y248530D01*
X1063950Y249480D02*
X1073950Y249480D01*
X1073950Y250430D02*
X1063950Y250430D01*
X1056950Y368880D02*
X1046950Y368880D01*
X1046950Y377880D01*
X1056950Y377880D01*
X1056950Y368880D01*
X1056950Y369830D02*
X1046950Y369830D01*
X1046950Y370780D02*
X1056950Y370780D01*
X1056950Y371730D02*
X1046950Y371730D01*
X1046950Y372680D02*
X1056950Y372680D01*
X1056950Y373630D02*
X1046950Y373630D01*
X1046950Y374580D02*
X1056950Y374580D01*
X1056950Y375530D02*
X1046950Y375530D01*
X1046950Y376480D02*
X1056950Y376480D01*
X1056950Y377430D02*
X1046950Y377430D01*
X1063950Y368880D02*
X1073950Y368880D01*
X1063950Y368880D02*
X1063950Y377880D01*
X1073950Y377880D01*
X1073950Y368880D01*
X1073950Y369830D02*
X1063950Y369830D01*
X1063950Y370780D02*
X1073950Y370780D01*
X1073950Y371730D02*
X1063950Y371730D01*
X1063950Y372680D02*
X1073950Y372680D01*
X1073950Y373630D02*
X1063950Y373630D01*
X1063950Y374580D02*
X1073950Y374580D01*
X1073950Y375530D02*
X1063950Y375530D01*
X1063950Y376480D02*
X1073950Y376480D01*
X1073950Y377430D02*
X1063950Y377430D01*
X1212050Y241880D02*
X1222050Y241880D01*
X1212050Y241880D02*
X1212050Y250880D01*
X1222050Y250880D01*
X1222050Y241880D01*
X1222050Y242830D02*
X1212050Y242830D01*
X1212050Y243780D02*
X1222050Y243780D01*
X1222050Y244730D02*
X1212050Y244730D01*
X1212050Y245680D02*
X1222050Y245680D01*
X1222050Y246630D02*
X1212050Y246630D01*
X1212050Y247580D02*
X1222050Y247580D01*
X1222050Y248530D02*
X1212050Y248530D01*
X1212050Y249480D02*
X1222050Y249480D01*
X1222050Y250430D02*
X1212050Y250430D01*
X1229050Y241880D02*
X1239050Y241880D01*
X1229050Y241880D02*
X1229050Y250880D01*
X1239050Y250880D01*
X1239050Y241880D01*
X1239050Y242830D02*
X1229050Y242830D01*
X1229050Y243780D02*
X1239050Y243780D01*
X1239050Y244730D02*
X1229050Y244730D01*
X1229050Y245680D02*
X1239050Y245680D01*
X1239050Y246630D02*
X1229050Y246630D01*
X1229050Y247580D02*
X1239050Y247580D01*
X1239050Y248530D02*
X1229050Y248530D01*
X1229050Y249480D02*
X1239050Y249480D01*
X1239050Y250430D02*
X1229050Y250430D01*
X1222050Y368880D02*
X1212050Y368880D01*
X1212050Y377880D01*
X1222050Y377880D01*
X1222050Y368880D01*
X1222050Y369830D02*
X1212050Y369830D01*
X1212050Y370780D02*
X1222050Y370780D01*
X1222050Y371730D02*
X1212050Y371730D01*
X1212050Y372680D02*
X1222050Y372680D01*
X1222050Y373630D02*
X1212050Y373630D01*
X1212050Y374580D02*
X1222050Y374580D01*
X1222050Y375530D02*
X1212050Y375530D01*
X1212050Y376480D02*
X1222050Y376480D01*
X1222050Y377430D02*
X1212050Y377430D01*
X1229050Y368880D02*
X1239050Y368880D01*
X1229050Y368880D02*
X1229050Y377880D01*
X1239050Y377880D01*
X1239050Y368880D01*
X1239050Y369830D02*
X1229050Y369830D01*
X1229050Y370780D02*
X1239050Y370780D01*
X1239050Y371730D02*
X1229050Y371730D01*
X1229050Y372680D02*
X1239050Y372680D01*
X1239050Y373630D02*
X1229050Y373630D01*
X1229050Y374580D02*
X1239050Y374580D01*
X1239050Y375530D02*
X1229050Y375530D01*
X1229050Y376480D02*
X1239050Y376480D01*
X1239050Y377430D02*
X1229050Y377430D01*
X1377150Y241880D02*
X1387150Y241880D01*
X1377150Y241880D02*
X1377150Y250880D01*
X1387150Y250880D01*
X1387150Y241880D01*
X1387150Y242830D02*
X1377150Y242830D01*
X1377150Y243780D02*
X1387150Y243780D01*
X1387150Y244730D02*
X1377150Y244730D01*
X1377150Y245680D02*
X1387150Y245680D01*
X1387150Y246630D02*
X1377150Y246630D01*
X1377150Y247580D02*
X1387150Y247580D01*
X1387150Y248530D02*
X1377150Y248530D01*
X1377150Y249480D02*
X1387150Y249480D01*
X1387150Y250430D02*
X1377150Y250430D01*
X1394150Y241880D02*
X1404150Y241880D01*
X1394150Y241880D02*
X1394150Y250880D01*
X1404150Y250880D01*
X1404150Y241880D01*
X1404150Y242830D02*
X1394150Y242830D01*
X1394150Y243780D02*
X1404150Y243780D01*
X1404150Y244730D02*
X1394150Y244730D01*
X1394150Y245680D02*
X1404150Y245680D01*
X1404150Y246630D02*
X1394150Y246630D01*
X1394150Y247580D02*
X1404150Y247580D01*
X1404150Y248530D02*
X1394150Y248530D01*
X1394150Y249480D02*
X1404150Y249480D01*
X1404150Y250430D02*
X1394150Y250430D01*
X1387150Y368880D02*
X1377150Y368880D01*
X1377150Y377880D01*
X1387150Y377880D01*
X1387150Y368880D01*
X1387150Y369830D02*
X1377150Y369830D01*
X1377150Y370780D02*
X1387150Y370780D01*
X1387150Y371730D02*
X1377150Y371730D01*
X1377150Y372680D02*
X1387150Y372680D01*
X1387150Y373630D02*
X1377150Y373630D01*
X1377150Y374580D02*
X1387150Y374580D01*
X1387150Y375530D02*
X1377150Y375530D01*
X1377150Y376480D02*
X1387150Y376480D01*
X1387150Y377430D02*
X1377150Y377430D01*
X1394150Y368880D02*
X1404150Y368880D01*
X1394150Y368880D02*
X1394150Y377880D01*
X1404150Y377880D01*
X1404150Y368880D01*
X1404150Y369830D02*
X1394150Y369830D01*
X1394150Y370780D02*
X1404150Y370780D01*
X1404150Y371730D02*
X1394150Y371730D01*
X1394150Y372680D02*
X1404150Y372680D01*
X1404150Y373630D02*
X1394150Y373630D01*
X1394150Y374580D02*
X1404150Y374580D01*
X1404150Y375530D02*
X1394150Y375530D01*
X1394150Y376480D02*
X1404150Y376480D01*
X1404150Y377430D02*
X1394150Y377430D01*
X1542250Y241880D02*
X1552250Y241880D01*
X1542250Y241880D02*
X1542250Y250880D01*
X1552250Y250880D01*
X1552250Y241880D01*
X1552250Y242830D02*
X1542250Y242830D01*
X1542250Y243780D02*
X1552250Y243780D01*
X1552250Y244730D02*
X1542250Y244730D01*
X1542250Y245680D02*
X1552250Y245680D01*
X1552250Y246630D02*
X1542250Y246630D01*
X1542250Y247580D02*
X1552250Y247580D01*
X1552250Y248530D02*
X1542250Y248530D01*
X1542250Y249480D02*
X1552250Y249480D01*
X1552250Y250430D02*
X1542250Y250430D01*
X1559250Y241880D02*
X1569250Y241880D01*
X1559250Y241880D02*
X1559250Y250880D01*
X1569250Y250880D01*
X1569250Y241880D01*
X1569250Y242830D02*
X1559250Y242830D01*
X1559250Y243780D02*
X1569250Y243780D01*
X1569250Y244730D02*
X1559250Y244730D01*
X1559250Y245680D02*
X1569250Y245680D01*
X1569250Y246630D02*
X1559250Y246630D01*
X1559250Y247580D02*
X1569250Y247580D01*
X1569250Y248530D02*
X1559250Y248530D01*
X1559250Y249480D02*
X1569250Y249480D01*
X1569250Y250430D02*
X1559250Y250430D01*
X1552250Y368880D02*
X1542250Y368880D01*
X1542250Y377880D01*
X1552250Y377880D01*
X1552250Y368880D01*
X1552250Y369830D02*
X1542250Y369830D01*
X1542250Y370780D02*
X1552250Y370780D01*
X1552250Y371730D02*
X1542250Y371730D01*
X1542250Y372680D02*
X1552250Y372680D01*
X1552250Y373630D02*
X1542250Y373630D01*
X1542250Y374580D02*
X1552250Y374580D01*
X1552250Y375530D02*
X1542250Y375530D01*
X1542250Y376480D02*
X1552250Y376480D01*
X1552250Y377430D02*
X1542250Y377430D01*
X1559250Y368880D02*
X1569250Y368880D01*
X1559250Y368880D02*
X1559250Y377880D01*
X1569250Y377880D01*
X1569250Y368880D01*
X1569250Y369830D02*
X1559250Y369830D01*
X1559250Y370780D02*
X1569250Y370780D01*
X1569250Y371730D02*
X1559250Y371730D01*
X1559250Y372680D02*
X1569250Y372680D01*
X1569250Y373630D02*
X1559250Y373630D01*
X1559250Y374580D02*
X1569250Y374580D01*
X1569250Y375530D02*
X1559250Y375530D01*
X1559250Y376480D02*
X1569250Y376480D01*
X1569250Y377430D02*
X1559250Y377430D01*
X66350Y450160D02*
X56350Y450160D01*
X56350Y459160D01*
X66350Y459160D01*
X66350Y450160D01*
X66350Y451110D02*
X56350Y451110D01*
X56350Y452060D02*
X66350Y452060D01*
X66350Y453010D02*
X56350Y453010D01*
X56350Y453960D02*
X66350Y453960D01*
X66350Y454910D02*
X56350Y454910D01*
X56350Y455860D02*
X66350Y455860D01*
X66350Y456810D02*
X56350Y456810D01*
X56350Y457760D02*
X66350Y457760D01*
X66350Y458710D02*
X56350Y458710D01*
X73350Y450160D02*
X83350Y450160D01*
X73350Y450160D02*
X73350Y459160D01*
X83350Y459160D01*
X83350Y450160D01*
X83350Y451110D02*
X73350Y451110D01*
X73350Y452060D02*
X83350Y452060D01*
X83350Y453010D02*
X73350Y453010D01*
X73350Y453960D02*
X83350Y453960D01*
X83350Y454910D02*
X73350Y454910D01*
X73350Y455860D02*
X83350Y455860D01*
X83350Y456810D02*
X73350Y456810D01*
X73350Y457760D02*
X83350Y457760D01*
X83350Y458710D02*
X73350Y458710D01*
X66350Y577160D02*
X56350Y577160D01*
X56350Y586160D01*
X66350Y586160D01*
X66350Y577160D01*
X66350Y578110D02*
X56350Y578110D01*
X56350Y579060D02*
X66350Y579060D01*
X66350Y580010D02*
X56350Y580010D01*
X56350Y580960D02*
X66350Y580960D01*
X66350Y581910D02*
X56350Y581910D01*
X56350Y582860D02*
X66350Y582860D01*
X66350Y583810D02*
X56350Y583810D01*
X56350Y584760D02*
X66350Y584760D01*
X66350Y585710D02*
X56350Y585710D01*
X73350Y577160D02*
X83350Y577160D01*
X73350Y577160D02*
X73350Y586160D01*
X83350Y586160D01*
X83350Y577160D01*
X83350Y578110D02*
X73350Y578110D01*
X73350Y579060D02*
X83350Y579060D01*
X83350Y580010D02*
X73350Y580010D01*
X73350Y580960D02*
X83350Y580960D01*
X83350Y581910D02*
X73350Y581910D01*
X73350Y582860D02*
X83350Y582860D01*
X83350Y583810D02*
X73350Y583810D01*
X73350Y584760D02*
X83350Y584760D01*
X83350Y585710D02*
X73350Y585710D01*
X221450Y450160D02*
X231450Y450160D01*
X221450Y450160D02*
X221450Y459160D01*
X231450Y459160D01*
X231450Y450160D01*
X231450Y451110D02*
X221450Y451110D01*
X221450Y452060D02*
X231450Y452060D01*
X231450Y453010D02*
X221450Y453010D01*
X221450Y453960D02*
X231450Y453960D01*
X231450Y454910D02*
X221450Y454910D01*
X221450Y455860D02*
X231450Y455860D01*
X231450Y456810D02*
X221450Y456810D01*
X221450Y457760D02*
X231450Y457760D01*
X231450Y458710D02*
X221450Y458710D01*
X238450Y450160D02*
X248450Y450160D01*
X238450Y450160D02*
X238450Y459160D01*
X248450Y459160D01*
X248450Y450160D01*
X248450Y451110D02*
X238450Y451110D01*
X238450Y452060D02*
X248450Y452060D01*
X248450Y453010D02*
X238450Y453010D01*
X238450Y453960D02*
X248450Y453960D01*
X248450Y454910D02*
X238450Y454910D01*
X238450Y455860D02*
X248450Y455860D01*
X248450Y456810D02*
X238450Y456810D01*
X238450Y457760D02*
X248450Y457760D01*
X248450Y458710D02*
X238450Y458710D01*
X231450Y577160D02*
X221450Y577160D01*
X221450Y586160D01*
X231450Y586160D01*
X231450Y577160D01*
X231450Y578110D02*
X221450Y578110D01*
X221450Y579060D02*
X231450Y579060D01*
X231450Y580010D02*
X221450Y580010D01*
X221450Y580960D02*
X231450Y580960D01*
X231450Y581910D02*
X221450Y581910D01*
X221450Y582860D02*
X231450Y582860D01*
X231450Y583810D02*
X221450Y583810D01*
X221450Y584760D02*
X231450Y584760D01*
X231450Y585710D02*
X221450Y585710D01*
X238450Y577160D02*
X248450Y577160D01*
X238450Y577160D02*
X238450Y586160D01*
X248450Y586160D01*
X248450Y577160D01*
X248450Y578110D02*
X238450Y578110D01*
X238450Y579060D02*
X248450Y579060D01*
X248450Y580010D02*
X238450Y580010D01*
X238450Y580960D02*
X248450Y580960D01*
X248450Y581910D02*
X238450Y581910D01*
X238450Y582860D02*
X248450Y582860D01*
X248450Y583810D02*
X238450Y583810D01*
X238450Y584760D02*
X248450Y584760D01*
X248450Y585710D02*
X238450Y585710D01*
X386550Y450160D02*
X396550Y450160D01*
X386550Y450160D02*
X386550Y459160D01*
X396550Y459160D01*
X396550Y450160D01*
X396550Y451110D02*
X386550Y451110D01*
X386550Y452060D02*
X396550Y452060D01*
X396550Y453010D02*
X386550Y453010D01*
X386550Y453960D02*
X396550Y453960D01*
X396550Y454910D02*
X386550Y454910D01*
X386550Y455860D02*
X396550Y455860D01*
X396550Y456810D02*
X386550Y456810D01*
X386550Y457760D02*
X396550Y457760D01*
X396550Y458710D02*
X386550Y458710D01*
X403550Y450160D02*
X413550Y450160D01*
X403550Y450160D02*
X403550Y459160D01*
X413550Y459160D01*
X413550Y450160D01*
X413550Y451110D02*
X403550Y451110D01*
X403550Y452060D02*
X413550Y452060D01*
X413550Y453010D02*
X403550Y453010D01*
X403550Y453960D02*
X413550Y453960D01*
X413550Y454910D02*
X403550Y454910D01*
X403550Y455860D02*
X413550Y455860D01*
X413550Y456810D02*
X403550Y456810D01*
X403550Y457760D02*
X413550Y457760D01*
X413550Y458710D02*
X403550Y458710D01*
X396550Y577160D02*
X386550Y577160D01*
X386550Y586160D01*
X396550Y586160D01*
X396550Y577160D01*
X396550Y578110D02*
X386550Y578110D01*
X386550Y579060D02*
X396550Y579060D01*
X396550Y580010D02*
X386550Y580010D01*
X386550Y580960D02*
X396550Y580960D01*
X396550Y581910D02*
X386550Y581910D01*
X386550Y582860D02*
X396550Y582860D01*
X396550Y583810D02*
X386550Y583810D01*
X386550Y584760D02*
X396550Y584760D01*
X396550Y585710D02*
X386550Y585710D01*
X403550Y577160D02*
X413550Y577160D01*
X403550Y577160D02*
X403550Y586160D01*
X413550Y586160D01*
X413550Y577160D01*
X413550Y578110D02*
X403550Y578110D01*
X403550Y579060D02*
X413550Y579060D01*
X413550Y580010D02*
X403550Y580010D01*
X403550Y580960D02*
X413550Y580960D01*
X413550Y581910D02*
X403550Y581910D01*
X403550Y582860D02*
X413550Y582860D01*
X413550Y583810D02*
X403550Y583810D01*
X403550Y584760D02*
X413550Y584760D01*
X413550Y585710D02*
X403550Y585710D01*
X551650Y450160D02*
X561650Y450160D01*
X551650Y450160D02*
X551650Y459160D01*
X561650Y459160D01*
X561650Y450160D01*
X561650Y451110D02*
X551650Y451110D01*
X551650Y452060D02*
X561650Y452060D01*
X561650Y453010D02*
X551650Y453010D01*
X551650Y453960D02*
X561650Y453960D01*
X561650Y454910D02*
X551650Y454910D01*
X551650Y455860D02*
X561650Y455860D01*
X561650Y456810D02*
X551650Y456810D01*
X551650Y457760D02*
X561650Y457760D01*
X561650Y458710D02*
X551650Y458710D01*
X568650Y450160D02*
X578650Y450160D01*
X568650Y450160D02*
X568650Y459160D01*
X578650Y459160D01*
X578650Y450160D01*
X578650Y451110D02*
X568650Y451110D01*
X568650Y452060D02*
X578650Y452060D01*
X578650Y453010D02*
X568650Y453010D01*
X568650Y453960D02*
X578650Y453960D01*
X578650Y454910D02*
X568650Y454910D01*
X568650Y455860D02*
X578650Y455860D01*
X578650Y456810D02*
X568650Y456810D01*
X568650Y457760D02*
X578650Y457760D01*
X578650Y458710D02*
X568650Y458710D01*
X561650Y577160D02*
X551650Y577160D01*
X551650Y586160D01*
X561650Y586160D01*
X561650Y577160D01*
X561650Y578110D02*
X551650Y578110D01*
X551650Y579060D02*
X561650Y579060D01*
X561650Y580010D02*
X551650Y580010D01*
X551650Y580960D02*
X561650Y580960D01*
X561650Y581910D02*
X551650Y581910D01*
X551650Y582860D02*
X561650Y582860D01*
X561650Y583810D02*
X551650Y583810D01*
X551650Y584760D02*
X561650Y584760D01*
X561650Y585710D02*
X551650Y585710D01*
X568650Y577160D02*
X578650Y577160D01*
X568650Y577160D02*
X568650Y586160D01*
X578650Y586160D01*
X578650Y577160D01*
X578650Y578110D02*
X568650Y578110D01*
X568650Y579060D02*
X578650Y579060D01*
X578650Y580010D02*
X568650Y580010D01*
X568650Y580960D02*
X578650Y580960D01*
X578650Y581910D02*
X568650Y581910D01*
X568650Y582860D02*
X578650Y582860D01*
X578650Y583810D02*
X568650Y583810D01*
X568650Y584760D02*
X578650Y584760D01*
X578650Y585710D02*
X568650Y585710D01*
X716750Y450160D02*
X726750Y450160D01*
X716750Y450160D02*
X716750Y459160D01*
X726750Y459160D01*
X726750Y450160D01*
X726750Y451110D02*
X716750Y451110D01*
X716750Y452060D02*
X726750Y452060D01*
X726750Y453010D02*
X716750Y453010D01*
X716750Y453960D02*
X726750Y453960D01*
X726750Y454910D02*
X716750Y454910D01*
X716750Y455860D02*
X726750Y455860D01*
X726750Y456810D02*
X716750Y456810D01*
X716750Y457760D02*
X726750Y457760D01*
X726750Y458710D02*
X716750Y458710D01*
X733750Y450160D02*
X743750Y450160D01*
X733750Y450160D02*
X733750Y459160D01*
X743750Y459160D01*
X743750Y450160D01*
X743750Y451110D02*
X733750Y451110D01*
X733750Y452060D02*
X743750Y452060D01*
X743750Y453010D02*
X733750Y453010D01*
X733750Y453960D02*
X743750Y453960D01*
X743750Y454910D02*
X733750Y454910D01*
X733750Y455860D02*
X743750Y455860D01*
X743750Y456810D02*
X733750Y456810D01*
X733750Y457760D02*
X743750Y457760D01*
X743750Y458710D02*
X733750Y458710D01*
X726750Y577160D02*
X716750Y577160D01*
X716750Y586160D01*
X726750Y586160D01*
X726750Y577160D01*
X726750Y578110D02*
X716750Y578110D01*
X716750Y579060D02*
X726750Y579060D01*
X726750Y580010D02*
X716750Y580010D01*
X716750Y580960D02*
X726750Y580960D01*
X726750Y581910D02*
X716750Y581910D01*
X716750Y582860D02*
X726750Y582860D01*
X726750Y583810D02*
X716750Y583810D01*
X716750Y584760D02*
X726750Y584760D01*
X726750Y585710D02*
X716750Y585710D01*
X733750Y577160D02*
X743750Y577160D01*
X733750Y577160D02*
X733750Y586160D01*
X743750Y586160D01*
X743750Y577160D01*
X743750Y578110D02*
X733750Y578110D01*
X733750Y579060D02*
X743750Y579060D01*
X743750Y580010D02*
X733750Y580010D01*
X733750Y580960D02*
X743750Y580960D01*
X743750Y581910D02*
X733750Y581910D01*
X733750Y582860D02*
X743750Y582860D01*
X743750Y583810D02*
X733750Y583810D01*
X733750Y584760D02*
X743750Y584760D01*
X743750Y585710D02*
X733750Y585710D01*
X881850Y450160D02*
X891850Y450160D01*
X881850Y450160D02*
X881850Y459160D01*
X891850Y459160D01*
X891850Y450160D01*
X891850Y451110D02*
X881850Y451110D01*
X881850Y452060D02*
X891850Y452060D01*
X891850Y453010D02*
X881850Y453010D01*
X881850Y453960D02*
X891850Y453960D01*
X891850Y454910D02*
X881850Y454910D01*
X881850Y455860D02*
X891850Y455860D01*
X891850Y456810D02*
X881850Y456810D01*
X881850Y457760D02*
X891850Y457760D01*
X891850Y458710D02*
X881850Y458710D01*
X898850Y450160D02*
X908850Y450160D01*
X898850Y450160D02*
X898850Y459160D01*
X908850Y459160D01*
X908850Y450160D01*
X908850Y451110D02*
X898850Y451110D01*
X898850Y452060D02*
X908850Y452060D01*
X908850Y453010D02*
X898850Y453010D01*
X898850Y453960D02*
X908850Y453960D01*
X908850Y454910D02*
X898850Y454910D01*
X898850Y455860D02*
X908850Y455860D01*
X908850Y456810D02*
X898850Y456810D01*
X898850Y457760D02*
X908850Y457760D01*
X908850Y458710D02*
X898850Y458710D01*
X891850Y577160D02*
X881850Y577160D01*
X881850Y586160D01*
X891850Y586160D01*
X891850Y577160D01*
X891850Y578110D02*
X881850Y578110D01*
X881850Y579060D02*
X891850Y579060D01*
X891850Y580010D02*
X881850Y580010D01*
X881850Y580960D02*
X891850Y580960D01*
X891850Y581910D02*
X881850Y581910D01*
X881850Y582860D02*
X891850Y582860D01*
X891850Y583810D02*
X881850Y583810D01*
X881850Y584760D02*
X891850Y584760D01*
X891850Y585710D02*
X881850Y585710D01*
X898850Y577160D02*
X908850Y577160D01*
X898850Y577160D02*
X898850Y586160D01*
X908850Y586160D01*
X908850Y577160D01*
X908850Y578110D02*
X898850Y578110D01*
X898850Y579060D02*
X908850Y579060D01*
X908850Y580010D02*
X898850Y580010D01*
X898850Y580960D02*
X908850Y580960D01*
X908850Y581910D02*
X898850Y581910D01*
X898850Y582860D02*
X908850Y582860D01*
X908850Y583810D02*
X898850Y583810D01*
X898850Y584760D02*
X908850Y584760D01*
X908850Y585710D02*
X898850Y585710D01*
X1046950Y450160D02*
X1056950Y450160D01*
X1046950Y450160D02*
X1046950Y459160D01*
X1056950Y459160D01*
X1056950Y450160D01*
X1056950Y451110D02*
X1046950Y451110D01*
X1046950Y452060D02*
X1056950Y452060D01*
X1056950Y453010D02*
X1046950Y453010D01*
X1046950Y453960D02*
X1056950Y453960D01*
X1056950Y454910D02*
X1046950Y454910D01*
X1046950Y455860D02*
X1056950Y455860D01*
X1056950Y456810D02*
X1046950Y456810D01*
X1046950Y457760D02*
X1056950Y457760D01*
X1056950Y458710D02*
X1046950Y458710D01*
X1063950Y450160D02*
X1073950Y450160D01*
X1063950Y450160D02*
X1063950Y459160D01*
X1073950Y459160D01*
X1073950Y450160D01*
X1073950Y451110D02*
X1063950Y451110D01*
X1063950Y452060D02*
X1073950Y452060D01*
X1073950Y453010D02*
X1063950Y453010D01*
X1063950Y453960D02*
X1073950Y453960D01*
X1073950Y454910D02*
X1063950Y454910D01*
X1063950Y455860D02*
X1073950Y455860D01*
X1073950Y456810D02*
X1063950Y456810D01*
X1063950Y457760D02*
X1073950Y457760D01*
X1073950Y458710D02*
X1063950Y458710D01*
X1056950Y577160D02*
X1046950Y577160D01*
X1046950Y586160D01*
X1056950Y586160D01*
X1056950Y577160D01*
X1056950Y578110D02*
X1046950Y578110D01*
X1046950Y579060D02*
X1056950Y579060D01*
X1056950Y580010D02*
X1046950Y580010D01*
X1046950Y580960D02*
X1056950Y580960D01*
X1056950Y581910D02*
X1046950Y581910D01*
X1046950Y582860D02*
X1056950Y582860D01*
X1056950Y583810D02*
X1046950Y583810D01*
X1046950Y584760D02*
X1056950Y584760D01*
X1056950Y585710D02*
X1046950Y585710D01*
X1063950Y577160D02*
X1073950Y577160D01*
X1063950Y577160D02*
X1063950Y586160D01*
X1073950Y586160D01*
X1073950Y577160D01*
X1073950Y578110D02*
X1063950Y578110D01*
X1063950Y579060D02*
X1073950Y579060D01*
X1073950Y580010D02*
X1063950Y580010D01*
X1063950Y580960D02*
X1073950Y580960D01*
X1073950Y581910D02*
X1063950Y581910D01*
X1063950Y582860D02*
X1073950Y582860D01*
X1073950Y583810D02*
X1063950Y583810D01*
X1063950Y584760D02*
X1073950Y584760D01*
X1073950Y585710D02*
X1063950Y585710D01*
X1212050Y450160D02*
X1222050Y450160D01*
X1212050Y450160D02*
X1212050Y459160D01*
X1222050Y459160D01*
X1222050Y450160D01*
X1222050Y451110D02*
X1212050Y451110D01*
X1212050Y452060D02*
X1222050Y452060D01*
X1222050Y453010D02*
X1212050Y453010D01*
X1212050Y453960D02*
X1222050Y453960D01*
X1222050Y454910D02*
X1212050Y454910D01*
X1212050Y455860D02*
X1222050Y455860D01*
X1222050Y456810D02*
X1212050Y456810D01*
X1212050Y457760D02*
X1222050Y457760D01*
X1222050Y458710D02*
X1212050Y458710D01*
X1229050Y450160D02*
X1239050Y450160D01*
X1229050Y450160D02*
X1229050Y459160D01*
X1239050Y459160D01*
X1239050Y450160D01*
X1239050Y451110D02*
X1229050Y451110D01*
X1229050Y452060D02*
X1239050Y452060D01*
X1239050Y453010D02*
X1229050Y453010D01*
X1229050Y453960D02*
X1239050Y453960D01*
X1239050Y454910D02*
X1229050Y454910D01*
X1229050Y455860D02*
X1239050Y455860D01*
X1239050Y456810D02*
X1229050Y456810D01*
X1229050Y457760D02*
X1239050Y457760D01*
X1239050Y458710D02*
X1229050Y458710D01*
X1222050Y577160D02*
X1212050Y577160D01*
X1212050Y586160D01*
X1222050Y586160D01*
X1222050Y577160D01*
X1222050Y578110D02*
X1212050Y578110D01*
X1212050Y579060D02*
X1222050Y579060D01*
X1222050Y580010D02*
X1212050Y580010D01*
X1212050Y580960D02*
X1222050Y580960D01*
X1222050Y581910D02*
X1212050Y581910D01*
X1212050Y582860D02*
X1222050Y582860D01*
X1222050Y583810D02*
X1212050Y583810D01*
X1212050Y584760D02*
X1222050Y584760D01*
X1222050Y585710D02*
X1212050Y585710D01*
X1229050Y577160D02*
X1239050Y577160D01*
X1229050Y577160D02*
X1229050Y586160D01*
X1239050Y586160D01*
X1239050Y577160D01*
X1239050Y578110D02*
X1229050Y578110D01*
X1229050Y579060D02*
X1239050Y579060D01*
X1239050Y580010D02*
X1229050Y580010D01*
X1229050Y580960D02*
X1239050Y580960D01*
X1239050Y581910D02*
X1229050Y581910D01*
X1229050Y582860D02*
X1239050Y582860D01*
X1239050Y583810D02*
X1229050Y583810D01*
X1229050Y584760D02*
X1239050Y584760D01*
X1239050Y585710D02*
X1229050Y585710D01*
X1377150Y450160D02*
X1387150Y450160D01*
X1377150Y450160D02*
X1377150Y459160D01*
X1387150Y459160D01*
X1387150Y450160D01*
X1387150Y451110D02*
X1377150Y451110D01*
X1377150Y452060D02*
X1387150Y452060D01*
X1387150Y453010D02*
X1377150Y453010D01*
X1377150Y453960D02*
X1387150Y453960D01*
X1387150Y454910D02*
X1377150Y454910D01*
X1377150Y455860D02*
X1387150Y455860D01*
X1387150Y456810D02*
X1377150Y456810D01*
X1377150Y457760D02*
X1387150Y457760D01*
X1387150Y458710D02*
X1377150Y458710D01*
X1394150Y450160D02*
X1404150Y450160D01*
X1394150Y450160D02*
X1394150Y459160D01*
X1404150Y459160D01*
X1404150Y450160D01*
X1404150Y451110D02*
X1394150Y451110D01*
X1394150Y452060D02*
X1404150Y452060D01*
X1404150Y453010D02*
X1394150Y453010D01*
X1394150Y453960D02*
X1404150Y453960D01*
X1404150Y454910D02*
X1394150Y454910D01*
X1394150Y455860D02*
X1404150Y455860D01*
X1404150Y456810D02*
X1394150Y456810D01*
X1394150Y457760D02*
X1404150Y457760D01*
X1404150Y458710D02*
X1394150Y458710D01*
X1387150Y577160D02*
X1377150Y577160D01*
X1377150Y586160D01*
X1387150Y586160D01*
X1387150Y577160D01*
X1387150Y578110D02*
X1377150Y578110D01*
X1377150Y579060D02*
X1387150Y579060D01*
X1387150Y580010D02*
X1377150Y580010D01*
X1377150Y580960D02*
X1387150Y580960D01*
X1387150Y581910D02*
X1377150Y581910D01*
X1377150Y582860D02*
X1387150Y582860D01*
X1387150Y583810D02*
X1377150Y583810D01*
X1377150Y584760D02*
X1387150Y584760D01*
X1387150Y585710D02*
X1377150Y585710D01*
X1394150Y577160D02*
X1404150Y577160D01*
X1394150Y577160D02*
X1394150Y586160D01*
X1404150Y586160D01*
X1404150Y577160D01*
X1404150Y578110D02*
X1394150Y578110D01*
X1394150Y579060D02*
X1404150Y579060D01*
X1404150Y580010D02*
X1394150Y580010D01*
X1394150Y580960D02*
X1404150Y580960D01*
X1404150Y581910D02*
X1394150Y581910D01*
X1394150Y582860D02*
X1404150Y582860D01*
X1404150Y583810D02*
X1394150Y583810D01*
X1394150Y584760D02*
X1404150Y584760D01*
X1404150Y585710D02*
X1394150Y585710D01*
X1542250Y450160D02*
X1552250Y450160D01*
X1542250Y450160D02*
X1542250Y459160D01*
X1552250Y459160D01*
X1552250Y450160D01*
X1552250Y451110D02*
X1542250Y451110D01*
X1542250Y452060D02*
X1552250Y452060D01*
X1552250Y453010D02*
X1542250Y453010D01*
X1542250Y453960D02*
X1552250Y453960D01*
X1552250Y454910D02*
X1542250Y454910D01*
X1542250Y455860D02*
X1552250Y455860D01*
X1552250Y456810D02*
X1542250Y456810D01*
X1542250Y457760D02*
X1552250Y457760D01*
X1552250Y458710D02*
X1542250Y458710D01*
X1559250Y450160D02*
X1569250Y450160D01*
X1559250Y450160D02*
X1559250Y459160D01*
X1569250Y459160D01*
X1569250Y450160D01*
X1569250Y451110D02*
X1559250Y451110D01*
X1559250Y452060D02*
X1569250Y452060D01*
X1569250Y453010D02*
X1559250Y453010D01*
X1559250Y453960D02*
X1569250Y453960D01*
X1569250Y454910D02*
X1559250Y454910D01*
X1559250Y455860D02*
X1569250Y455860D01*
X1569250Y456810D02*
X1559250Y456810D01*
X1559250Y457760D02*
X1569250Y457760D01*
X1569250Y458710D02*
X1559250Y458710D01*
X1552250Y577160D02*
X1542250Y577160D01*
X1542250Y586160D01*
X1552250Y586160D01*
X1552250Y577160D01*
X1552250Y578110D02*
X1542250Y578110D01*
X1542250Y579060D02*
X1552250Y579060D01*
X1552250Y580010D02*
X1542250Y580010D01*
X1542250Y580960D02*
X1552250Y580960D01*
X1552250Y581910D02*
X1542250Y581910D01*
X1542250Y582860D02*
X1552250Y582860D01*
X1552250Y583810D02*
X1542250Y583810D01*
X1542250Y584760D02*
X1552250Y584760D01*
X1552250Y585710D02*
X1542250Y585710D01*
X1559250Y577160D02*
X1569250Y577160D01*
X1559250Y577160D02*
X1559250Y586160D01*
X1569250Y586160D01*
X1569250Y577160D01*
X1569250Y578110D02*
X1559250Y578110D01*
X1559250Y579060D02*
X1569250Y579060D01*
X1569250Y580010D02*
X1559250Y580010D01*
X1559250Y580960D02*
X1569250Y580960D01*
X1569250Y581910D02*
X1559250Y581910D01*
X1559250Y582860D02*
X1569250Y582860D01*
X1569250Y583810D02*
X1559250Y583810D01*
X1559250Y584760D02*
X1569250Y584760D01*
X1569250Y585710D02*
X1559250Y585710D01*
X66350Y658440D02*
X56350Y658440D01*
X56350Y667440D01*
X66350Y667440D01*
X66350Y658440D01*
X66350Y659390D02*
X56350Y659390D01*
X56350Y660340D02*
X66350Y660340D01*
X66350Y661290D02*
X56350Y661290D01*
X56350Y662240D02*
X66350Y662240D01*
X66350Y663190D02*
X56350Y663190D01*
X56350Y664140D02*
X66350Y664140D01*
X66350Y665090D02*
X56350Y665090D01*
X56350Y666040D02*
X66350Y666040D01*
X66350Y666990D02*
X56350Y666990D01*
X73350Y658440D02*
X83350Y658440D01*
X73350Y658440D02*
X73350Y667440D01*
X83350Y667440D01*
X83350Y658440D01*
X83350Y659390D02*
X73350Y659390D01*
X73350Y660340D02*
X83350Y660340D01*
X83350Y661290D02*
X73350Y661290D01*
X73350Y662240D02*
X83350Y662240D01*
X83350Y663190D02*
X73350Y663190D01*
X73350Y664140D02*
X83350Y664140D01*
X83350Y665090D02*
X73350Y665090D01*
X73350Y666040D02*
X83350Y666040D01*
X83350Y666990D02*
X73350Y666990D01*
X66350Y785440D02*
X56350Y785440D01*
X56350Y794440D01*
X66350Y794440D01*
X66350Y785440D01*
X66350Y786390D02*
X56350Y786390D01*
X56350Y787340D02*
X66350Y787340D01*
X66350Y788290D02*
X56350Y788290D01*
X56350Y789240D02*
X66350Y789240D01*
X66350Y790190D02*
X56350Y790190D01*
X56350Y791140D02*
X66350Y791140D01*
X66350Y792090D02*
X56350Y792090D01*
X56350Y793040D02*
X66350Y793040D01*
X66350Y793990D02*
X56350Y793990D01*
X73350Y785440D02*
X83350Y785440D01*
X73350Y785440D02*
X73350Y794440D01*
X83350Y794440D01*
X83350Y785440D01*
X83350Y786390D02*
X73350Y786390D01*
X73350Y787340D02*
X83350Y787340D01*
X83350Y788290D02*
X73350Y788290D01*
X73350Y789240D02*
X83350Y789240D01*
X83350Y790190D02*
X73350Y790190D01*
X73350Y791140D02*
X83350Y791140D01*
X83350Y792090D02*
X73350Y792090D01*
X73350Y793040D02*
X83350Y793040D01*
X83350Y793990D02*
X73350Y793990D01*
X221450Y658440D02*
X231450Y658440D01*
X221450Y658440D02*
X221450Y667440D01*
X231450Y667440D01*
X231450Y658440D01*
X231450Y659390D02*
X221450Y659390D01*
X221450Y660340D02*
X231450Y660340D01*
X231450Y661290D02*
X221450Y661290D01*
X221450Y662240D02*
X231450Y662240D01*
X231450Y663190D02*
X221450Y663190D01*
X221450Y664140D02*
X231450Y664140D01*
X231450Y665090D02*
X221450Y665090D01*
X221450Y666040D02*
X231450Y666040D01*
X231450Y666990D02*
X221450Y666990D01*
X238450Y658440D02*
X248450Y658440D01*
X238450Y658440D02*
X238450Y667440D01*
X248450Y667440D01*
X248450Y658440D01*
X248450Y659390D02*
X238450Y659390D01*
X238450Y660340D02*
X248450Y660340D01*
X248450Y661290D02*
X238450Y661290D01*
X238450Y662240D02*
X248450Y662240D01*
X248450Y663190D02*
X238450Y663190D01*
X238450Y664140D02*
X248450Y664140D01*
X248450Y665090D02*
X238450Y665090D01*
X238450Y666040D02*
X248450Y666040D01*
X248450Y666990D02*
X238450Y666990D01*
X231450Y785440D02*
X221450Y785440D01*
X221450Y794440D01*
X231450Y794440D01*
X231450Y785440D01*
X231450Y786390D02*
X221450Y786390D01*
X221450Y787340D02*
X231450Y787340D01*
X231450Y788290D02*
X221450Y788290D01*
X221450Y789240D02*
X231450Y789240D01*
X231450Y790190D02*
X221450Y790190D01*
X221450Y791140D02*
X231450Y791140D01*
X231450Y792090D02*
X221450Y792090D01*
X221450Y793040D02*
X231450Y793040D01*
X231450Y793990D02*
X221450Y793990D01*
X238450Y785440D02*
X248450Y785440D01*
X238450Y785440D02*
X238450Y794440D01*
X248450Y794440D01*
X248450Y785440D01*
X248450Y786390D02*
X238450Y786390D01*
X238450Y787340D02*
X248450Y787340D01*
X248450Y788290D02*
X238450Y788290D01*
X238450Y789240D02*
X248450Y789240D01*
X248450Y790190D02*
X238450Y790190D01*
X238450Y791140D02*
X248450Y791140D01*
X248450Y792090D02*
X238450Y792090D01*
X238450Y793040D02*
X248450Y793040D01*
X248450Y793990D02*
X238450Y793990D01*
X386550Y658440D02*
X396550Y658440D01*
X386550Y658440D02*
X386550Y667440D01*
X396550Y667440D01*
X396550Y658440D01*
X396550Y659390D02*
X386550Y659390D01*
X386550Y660340D02*
X396550Y660340D01*
X396550Y661290D02*
X386550Y661290D01*
X386550Y662240D02*
X396550Y662240D01*
X396550Y663190D02*
X386550Y663190D01*
X386550Y664140D02*
X396550Y664140D01*
X396550Y665090D02*
X386550Y665090D01*
X386550Y666040D02*
X396550Y666040D01*
X396550Y666990D02*
X386550Y666990D01*
X403550Y658440D02*
X413550Y658440D01*
X403550Y658440D02*
X403550Y667440D01*
X413550Y667440D01*
X413550Y658440D01*
X413550Y659390D02*
X403550Y659390D01*
X403550Y660340D02*
X413550Y660340D01*
X413550Y661290D02*
X403550Y661290D01*
X403550Y662240D02*
X413550Y662240D01*
X413550Y663190D02*
X403550Y663190D01*
X403550Y664140D02*
X413550Y664140D01*
X413550Y665090D02*
X403550Y665090D01*
X403550Y666040D02*
X413550Y666040D01*
X413550Y666990D02*
X403550Y666990D01*
X396550Y785440D02*
X386550Y785440D01*
X386550Y794440D01*
X396550Y794440D01*
X396550Y785440D01*
X396550Y786390D02*
X386550Y786390D01*
X386550Y787340D02*
X396550Y787340D01*
X396550Y788290D02*
X386550Y788290D01*
X386550Y789240D02*
X396550Y789240D01*
X396550Y790190D02*
X386550Y790190D01*
X386550Y791140D02*
X396550Y791140D01*
X396550Y792090D02*
X386550Y792090D01*
X386550Y793040D02*
X396550Y793040D01*
X396550Y793990D02*
X386550Y793990D01*
X403550Y785440D02*
X413550Y785440D01*
X403550Y785440D02*
X403550Y794440D01*
X413550Y794440D01*
X413550Y785440D01*
X413550Y786390D02*
X403550Y786390D01*
X403550Y787340D02*
X413550Y787340D01*
X413550Y788290D02*
X403550Y788290D01*
X403550Y789240D02*
X413550Y789240D01*
X413550Y790190D02*
X403550Y790190D01*
X403550Y791140D02*
X413550Y791140D01*
X413550Y792090D02*
X403550Y792090D01*
X403550Y793040D02*
X413550Y793040D01*
X413550Y793990D02*
X403550Y793990D01*
X551650Y658440D02*
X561650Y658440D01*
X551650Y658440D02*
X551650Y667440D01*
X561650Y667440D01*
X561650Y658440D01*
X561650Y659390D02*
X551650Y659390D01*
X551650Y660340D02*
X561650Y660340D01*
X561650Y661290D02*
X551650Y661290D01*
X551650Y662240D02*
X561650Y662240D01*
X561650Y663190D02*
X551650Y663190D01*
X551650Y664140D02*
X561650Y664140D01*
X561650Y665090D02*
X551650Y665090D01*
X551650Y666040D02*
X561650Y666040D01*
X561650Y666990D02*
X551650Y666990D01*
X568650Y658440D02*
X578650Y658440D01*
X568650Y658440D02*
X568650Y667440D01*
X578650Y667440D01*
X578650Y658440D01*
X578650Y659390D02*
X568650Y659390D01*
X568650Y660340D02*
X578650Y660340D01*
X578650Y661290D02*
X568650Y661290D01*
X568650Y662240D02*
X578650Y662240D01*
X578650Y663190D02*
X568650Y663190D01*
X568650Y664140D02*
X578650Y664140D01*
X578650Y665090D02*
X568650Y665090D01*
X568650Y666040D02*
X578650Y666040D01*
X578650Y666990D02*
X568650Y666990D01*
X561650Y785440D02*
X551650Y785440D01*
X551650Y794440D01*
X561650Y794440D01*
X561650Y785440D01*
X561650Y786390D02*
X551650Y786390D01*
X551650Y787340D02*
X561650Y787340D01*
X561650Y788290D02*
X551650Y788290D01*
X551650Y789240D02*
X561650Y789240D01*
X561650Y790190D02*
X551650Y790190D01*
X551650Y791140D02*
X561650Y791140D01*
X561650Y792090D02*
X551650Y792090D01*
X551650Y793040D02*
X561650Y793040D01*
X561650Y793990D02*
X551650Y793990D01*
X568650Y785440D02*
X578650Y785440D01*
X568650Y785440D02*
X568650Y794440D01*
X578650Y794440D01*
X578650Y785440D01*
X578650Y786390D02*
X568650Y786390D01*
X568650Y787340D02*
X578650Y787340D01*
X578650Y788290D02*
X568650Y788290D01*
X568650Y789240D02*
X578650Y789240D01*
X578650Y790190D02*
X568650Y790190D01*
X568650Y791140D02*
X578650Y791140D01*
X578650Y792090D02*
X568650Y792090D01*
X568650Y793040D02*
X578650Y793040D01*
X578650Y793990D02*
X568650Y793990D01*
X716750Y658440D02*
X726750Y658440D01*
X716750Y658440D02*
X716750Y667440D01*
X726750Y667440D01*
X726750Y658440D01*
X726750Y659390D02*
X716750Y659390D01*
X716750Y660340D02*
X726750Y660340D01*
X726750Y661290D02*
X716750Y661290D01*
X716750Y662240D02*
X726750Y662240D01*
X726750Y663190D02*
X716750Y663190D01*
X716750Y664140D02*
X726750Y664140D01*
X726750Y665090D02*
X716750Y665090D01*
X716750Y666040D02*
X726750Y666040D01*
X726750Y666990D02*
X716750Y666990D01*
X733750Y658440D02*
X743750Y658440D01*
X733750Y658440D02*
X733750Y667440D01*
X743750Y667440D01*
X743750Y658440D01*
X743750Y659390D02*
X733750Y659390D01*
X733750Y660340D02*
X743750Y660340D01*
X743750Y661290D02*
X733750Y661290D01*
X733750Y662240D02*
X743750Y662240D01*
X743750Y663190D02*
X733750Y663190D01*
X733750Y664140D02*
X743750Y664140D01*
X743750Y665090D02*
X733750Y665090D01*
X733750Y666040D02*
X743750Y666040D01*
X743750Y666990D02*
X733750Y666990D01*
X726750Y785440D02*
X716750Y785440D01*
X716750Y794440D01*
X726750Y794440D01*
X726750Y785440D01*
X726750Y786390D02*
X716750Y786390D01*
X716750Y787340D02*
X726750Y787340D01*
X726750Y788290D02*
X716750Y788290D01*
X716750Y789240D02*
X726750Y789240D01*
X726750Y790190D02*
X716750Y790190D01*
X716750Y791140D02*
X726750Y791140D01*
X726750Y792090D02*
X716750Y792090D01*
X716750Y793040D02*
X726750Y793040D01*
X726750Y793990D02*
X716750Y793990D01*
X733750Y785440D02*
X743750Y785440D01*
X733750Y785440D02*
X733750Y794440D01*
X743750Y794440D01*
X743750Y785440D01*
X743750Y786390D02*
X733750Y786390D01*
X733750Y787340D02*
X743750Y787340D01*
X743750Y788290D02*
X733750Y788290D01*
X733750Y789240D02*
X743750Y789240D01*
X743750Y790190D02*
X733750Y790190D01*
X733750Y791140D02*
X743750Y791140D01*
X743750Y792090D02*
X733750Y792090D01*
X733750Y793040D02*
X743750Y793040D01*
X743750Y793990D02*
X733750Y793990D01*
X881850Y658440D02*
X891850Y658440D01*
X881850Y658440D02*
X881850Y667440D01*
X891850Y667440D01*
X891850Y658440D01*
X891850Y659390D02*
X881850Y659390D01*
X881850Y660340D02*
X891850Y660340D01*
X891850Y661290D02*
X881850Y661290D01*
X881850Y662240D02*
X891850Y662240D01*
X891850Y663190D02*
X881850Y663190D01*
X881850Y664140D02*
X891850Y664140D01*
X891850Y665090D02*
X881850Y665090D01*
X881850Y666040D02*
X891850Y666040D01*
X891850Y666990D02*
X881850Y666990D01*
X898850Y658440D02*
X908850Y658440D01*
X898850Y658440D02*
X898850Y667440D01*
X908850Y667440D01*
X908850Y658440D01*
X908850Y659390D02*
X898850Y659390D01*
X898850Y660340D02*
X908850Y660340D01*
X908850Y661290D02*
X898850Y661290D01*
X898850Y662240D02*
X908850Y662240D01*
X908850Y663190D02*
X898850Y663190D01*
X898850Y664140D02*
X908850Y664140D01*
X908850Y665090D02*
X898850Y665090D01*
X898850Y666040D02*
X908850Y666040D01*
X908850Y666990D02*
X898850Y666990D01*
X891850Y785440D02*
X881850Y785440D01*
X881850Y794440D01*
X891850Y794440D01*
X891850Y785440D01*
X891850Y786390D02*
X881850Y786390D01*
X881850Y787340D02*
X891850Y787340D01*
X891850Y788290D02*
X881850Y788290D01*
X881850Y789240D02*
X891850Y789240D01*
X891850Y790190D02*
X881850Y790190D01*
X881850Y791140D02*
X891850Y791140D01*
X891850Y792090D02*
X881850Y792090D01*
X881850Y793040D02*
X891850Y793040D01*
X891850Y793990D02*
X881850Y793990D01*
X898850Y785440D02*
X908850Y785440D01*
X898850Y785440D02*
X898850Y794440D01*
X908850Y794440D01*
X908850Y785440D01*
X908850Y786390D02*
X898850Y786390D01*
X898850Y787340D02*
X908850Y787340D01*
X908850Y788290D02*
X898850Y788290D01*
X898850Y789240D02*
X908850Y789240D01*
X908850Y790190D02*
X898850Y790190D01*
X898850Y791140D02*
X908850Y791140D01*
X908850Y792090D02*
X898850Y792090D01*
X898850Y793040D02*
X908850Y793040D01*
X908850Y793990D02*
X898850Y793990D01*
X1046950Y658440D02*
X1056950Y658440D01*
X1046950Y658440D02*
X1046950Y667440D01*
X1056950Y667440D01*
X1056950Y658440D01*
X1056950Y659390D02*
X1046950Y659390D01*
X1046950Y660340D02*
X1056950Y660340D01*
X1056950Y661290D02*
X1046950Y661290D01*
X1046950Y662240D02*
X1056950Y662240D01*
X1056950Y663190D02*
X1046950Y663190D01*
X1046950Y664140D02*
X1056950Y664140D01*
X1056950Y665090D02*
X1046950Y665090D01*
X1046950Y666040D02*
X1056950Y666040D01*
X1056950Y666990D02*
X1046950Y666990D01*
X1063950Y658440D02*
X1073950Y658440D01*
X1063950Y658440D02*
X1063950Y667440D01*
X1073950Y667440D01*
X1073950Y658440D01*
X1073950Y659390D02*
X1063950Y659390D01*
X1063950Y660340D02*
X1073950Y660340D01*
X1073950Y661290D02*
X1063950Y661290D01*
X1063950Y662240D02*
X1073950Y662240D01*
X1073950Y663190D02*
X1063950Y663190D01*
X1063950Y664140D02*
X1073950Y664140D01*
X1073950Y665090D02*
X1063950Y665090D01*
X1063950Y666040D02*
X1073950Y666040D01*
X1073950Y666990D02*
X1063950Y666990D01*
X1056950Y785440D02*
X1046950Y785440D01*
X1046950Y794440D01*
X1056950Y794440D01*
X1056950Y785440D01*
X1056950Y786390D02*
X1046950Y786390D01*
X1046950Y787340D02*
X1056950Y787340D01*
X1056950Y788290D02*
X1046950Y788290D01*
X1046950Y789240D02*
X1056950Y789240D01*
X1056950Y790190D02*
X1046950Y790190D01*
X1046950Y791140D02*
X1056950Y791140D01*
X1056950Y792090D02*
X1046950Y792090D01*
X1046950Y793040D02*
X1056950Y793040D01*
X1056950Y793990D02*
X1046950Y793990D01*
X1063950Y785440D02*
X1073950Y785440D01*
X1063950Y785440D02*
X1063950Y794440D01*
X1073950Y794440D01*
X1073950Y785440D01*
X1073950Y786390D02*
X1063950Y786390D01*
X1063950Y787340D02*
X1073950Y787340D01*
X1073950Y788290D02*
X1063950Y788290D01*
X1063950Y789240D02*
X1073950Y789240D01*
X1073950Y790190D02*
X1063950Y790190D01*
X1063950Y791140D02*
X1073950Y791140D01*
X1073950Y792090D02*
X1063950Y792090D01*
X1063950Y793040D02*
X1073950Y793040D01*
X1073950Y793990D02*
X1063950Y793990D01*
X1212050Y658440D02*
X1222050Y658440D01*
X1212050Y658440D02*
X1212050Y667440D01*
X1222050Y667440D01*
X1222050Y658440D01*
X1222050Y659390D02*
X1212050Y659390D01*
X1212050Y660340D02*
X1222050Y660340D01*
X1222050Y661290D02*
X1212050Y661290D01*
X1212050Y662240D02*
X1222050Y662240D01*
X1222050Y663190D02*
X1212050Y663190D01*
X1212050Y664140D02*
X1222050Y664140D01*
X1222050Y665090D02*
X1212050Y665090D01*
X1212050Y666040D02*
X1222050Y666040D01*
X1222050Y666990D02*
X1212050Y666990D01*
X1229050Y658440D02*
X1239050Y658440D01*
X1229050Y658440D02*
X1229050Y667440D01*
X1239050Y667440D01*
X1239050Y658440D01*
X1239050Y659390D02*
X1229050Y659390D01*
X1229050Y660340D02*
X1239050Y660340D01*
X1239050Y661290D02*
X1229050Y661290D01*
X1229050Y662240D02*
X1239050Y662240D01*
X1239050Y663190D02*
X1229050Y663190D01*
X1229050Y664140D02*
X1239050Y664140D01*
X1239050Y665090D02*
X1229050Y665090D01*
X1229050Y666040D02*
X1239050Y666040D01*
X1239050Y666990D02*
X1229050Y666990D01*
X1222050Y785440D02*
X1212050Y785440D01*
X1212050Y794440D01*
X1222050Y794440D01*
X1222050Y785440D01*
X1222050Y786390D02*
X1212050Y786390D01*
X1212050Y787340D02*
X1222050Y787340D01*
X1222050Y788290D02*
X1212050Y788290D01*
X1212050Y789240D02*
X1222050Y789240D01*
X1222050Y790190D02*
X1212050Y790190D01*
X1212050Y791140D02*
X1222050Y791140D01*
X1222050Y792090D02*
X1212050Y792090D01*
X1212050Y793040D02*
X1222050Y793040D01*
X1222050Y793990D02*
X1212050Y793990D01*
X1229050Y785440D02*
X1239050Y785440D01*
X1229050Y785440D02*
X1229050Y794440D01*
X1239050Y794440D01*
X1239050Y785440D01*
X1239050Y786390D02*
X1229050Y786390D01*
X1229050Y787340D02*
X1239050Y787340D01*
X1239050Y788290D02*
X1229050Y788290D01*
X1229050Y789240D02*
X1239050Y789240D01*
X1239050Y790190D02*
X1229050Y790190D01*
X1229050Y791140D02*
X1239050Y791140D01*
X1239050Y792090D02*
X1229050Y792090D01*
X1229050Y793040D02*
X1239050Y793040D01*
X1239050Y793990D02*
X1229050Y793990D01*
X1377150Y658440D02*
X1387150Y658440D01*
X1377150Y658440D02*
X1377150Y667440D01*
X1387150Y667440D01*
X1387150Y658440D01*
X1387150Y659390D02*
X1377150Y659390D01*
X1377150Y660340D02*
X1387150Y660340D01*
X1387150Y661290D02*
X1377150Y661290D01*
X1377150Y662240D02*
X1387150Y662240D01*
X1387150Y663190D02*
X1377150Y663190D01*
X1377150Y664140D02*
X1387150Y664140D01*
X1387150Y665090D02*
X1377150Y665090D01*
X1377150Y666040D02*
X1387150Y666040D01*
X1387150Y666990D02*
X1377150Y666990D01*
X1394150Y658440D02*
X1404150Y658440D01*
X1394150Y658440D02*
X1394150Y667440D01*
X1404150Y667440D01*
X1404150Y658440D01*
X1404150Y659390D02*
X1394150Y659390D01*
X1394150Y660340D02*
X1404150Y660340D01*
X1404150Y661290D02*
X1394150Y661290D01*
X1394150Y662240D02*
X1404150Y662240D01*
X1404150Y663190D02*
X1394150Y663190D01*
X1394150Y664140D02*
X1404150Y664140D01*
X1404150Y665090D02*
X1394150Y665090D01*
X1394150Y666040D02*
X1404150Y666040D01*
X1404150Y666990D02*
X1394150Y666990D01*
X1387150Y785440D02*
X1377150Y785440D01*
X1377150Y794440D01*
X1387150Y794440D01*
X1387150Y785440D01*
X1387150Y786390D02*
X1377150Y786390D01*
X1377150Y787340D02*
X1387150Y787340D01*
X1387150Y788290D02*
X1377150Y788290D01*
X1377150Y789240D02*
X1387150Y789240D01*
X1387150Y790190D02*
X1377150Y790190D01*
X1377150Y791140D02*
X1387150Y791140D01*
X1387150Y792090D02*
X1377150Y792090D01*
X1377150Y793040D02*
X1387150Y793040D01*
X1387150Y793990D02*
X1377150Y793990D01*
X1394150Y785440D02*
X1404150Y785440D01*
X1394150Y785440D02*
X1394150Y794440D01*
X1404150Y794440D01*
X1404150Y785440D01*
X1404150Y786390D02*
X1394150Y786390D01*
X1394150Y787340D02*
X1404150Y787340D01*
X1404150Y788290D02*
X1394150Y788290D01*
X1394150Y789240D02*
X1404150Y789240D01*
X1404150Y790190D02*
X1394150Y790190D01*
X1394150Y791140D02*
X1404150Y791140D01*
X1404150Y792090D02*
X1394150Y792090D01*
X1394150Y793040D02*
X1404150Y793040D01*
X1404150Y793990D02*
X1394150Y793990D01*
X1542250Y658440D02*
X1552250Y658440D01*
X1542250Y658440D02*
X1542250Y667440D01*
X1552250Y667440D01*
X1552250Y658440D01*
X1552250Y659390D02*
X1542250Y659390D01*
X1542250Y660340D02*
X1552250Y660340D01*
X1552250Y661290D02*
X1542250Y661290D01*
X1542250Y662240D02*
X1552250Y662240D01*
X1552250Y663190D02*
X1542250Y663190D01*
X1542250Y664140D02*
X1552250Y664140D01*
X1552250Y665090D02*
X1542250Y665090D01*
X1542250Y666040D02*
X1552250Y666040D01*
X1552250Y666990D02*
X1542250Y666990D01*
X1559250Y658440D02*
X1569250Y658440D01*
X1559250Y658440D02*
X1559250Y667440D01*
X1569250Y667440D01*
X1569250Y658440D01*
X1569250Y659390D02*
X1559250Y659390D01*
X1559250Y660340D02*
X1569250Y660340D01*
X1569250Y661290D02*
X1559250Y661290D01*
X1559250Y662240D02*
X1569250Y662240D01*
X1569250Y663190D02*
X1559250Y663190D01*
X1559250Y664140D02*
X1569250Y664140D01*
X1569250Y665090D02*
X1559250Y665090D01*
X1559250Y666040D02*
X1569250Y666040D01*
X1569250Y666990D02*
X1559250Y666990D01*
X1552250Y785440D02*
X1542250Y785440D01*
X1542250Y794440D01*
X1552250Y794440D01*
X1552250Y785440D01*
X1552250Y786390D02*
X1542250Y786390D01*
X1542250Y787340D02*
X1552250Y787340D01*
X1552250Y788290D02*
X1542250Y788290D01*
X1542250Y789240D02*
X1552250Y789240D01*
X1552250Y790190D02*
X1542250Y790190D01*
X1542250Y791140D02*
X1552250Y791140D01*
X1552250Y792090D02*
X1542250Y792090D01*
X1542250Y793040D02*
X1552250Y793040D01*
X1552250Y793990D02*
X1542250Y793990D01*
X1559250Y785440D02*
X1569250Y785440D01*
X1559250Y785440D02*
X1559250Y794440D01*
X1569250Y794440D01*
X1569250Y785440D01*
X1569250Y786390D02*
X1559250Y786390D01*
X1559250Y787340D02*
X1569250Y787340D01*
X1569250Y788290D02*
X1559250Y788290D01*
X1559250Y789240D02*
X1569250Y789240D01*
X1569250Y790190D02*
X1559250Y790190D01*
X1559250Y791140D02*
X1569250Y791140D01*
X1569250Y792090D02*
X1559250Y792090D01*
X1559250Y793040D02*
X1569250Y793040D01*
X1569250Y793990D02*
X1559250Y793990D01*
X66350Y866720D02*
X56350Y866720D01*
X56350Y875720D01*
X66350Y875720D01*
X66350Y866720D01*
X66350Y867670D02*
X56350Y867670D01*
X56350Y868620D02*
X66350Y868620D01*
X66350Y869570D02*
X56350Y869570D01*
X56350Y870520D02*
X66350Y870520D01*
X66350Y871470D02*
X56350Y871470D01*
X56350Y872420D02*
X66350Y872420D01*
X66350Y873370D02*
X56350Y873370D01*
X56350Y874320D02*
X66350Y874320D01*
X66350Y875270D02*
X56350Y875270D01*
X73350Y866720D02*
X83350Y866720D01*
X73350Y866720D02*
X73350Y875720D01*
X83350Y875720D01*
X83350Y866720D01*
X83350Y867670D02*
X73350Y867670D01*
X73350Y868620D02*
X83350Y868620D01*
X83350Y869570D02*
X73350Y869570D01*
X73350Y870520D02*
X83350Y870520D01*
X83350Y871470D02*
X73350Y871470D01*
X73350Y872420D02*
X83350Y872420D01*
X83350Y873370D02*
X73350Y873370D01*
X73350Y874320D02*
X83350Y874320D01*
X83350Y875270D02*
X73350Y875270D01*
X66350Y993720D02*
X56350Y993720D01*
X56350Y1002720D01*
X66350Y1002720D01*
X66350Y993720D01*
X66350Y994670D02*
X56350Y994670D01*
X56350Y995620D02*
X66350Y995620D01*
X66350Y996570D02*
X56350Y996570D01*
X56350Y997520D02*
X66350Y997520D01*
X66350Y998470D02*
X56350Y998470D01*
X56350Y999420D02*
X66350Y999420D01*
X66350Y1000370D02*
X56350Y1000370D01*
X56350Y1001320D02*
X66350Y1001320D01*
X66350Y1002270D02*
X56350Y1002270D01*
X73350Y993720D02*
X83350Y993720D01*
X73350Y993720D02*
X73350Y1002720D01*
X83350Y1002720D01*
X83350Y993720D01*
X83350Y994670D02*
X73350Y994670D01*
X73350Y995620D02*
X83350Y995620D01*
X83350Y996570D02*
X73350Y996570D01*
X73350Y997520D02*
X83350Y997520D01*
X83350Y998470D02*
X73350Y998470D01*
X73350Y999420D02*
X83350Y999420D01*
X83350Y1000370D02*
X73350Y1000370D01*
X73350Y1001320D02*
X83350Y1001320D01*
X83350Y1002270D02*
X73350Y1002270D01*
X221450Y866720D02*
X231450Y866720D01*
X221450Y866720D02*
X221450Y875720D01*
X231450Y875720D01*
X231450Y866720D01*
X231450Y867670D02*
X221450Y867670D01*
X221450Y868620D02*
X231450Y868620D01*
X231450Y869570D02*
X221450Y869570D01*
X221450Y870520D02*
X231450Y870520D01*
X231450Y871470D02*
X221450Y871470D01*
X221450Y872420D02*
X231450Y872420D01*
X231450Y873370D02*
X221450Y873370D01*
X221450Y874320D02*
X231450Y874320D01*
X231450Y875270D02*
X221450Y875270D01*
X238450Y866720D02*
X248450Y866720D01*
X238450Y866720D02*
X238450Y875720D01*
X248450Y875720D01*
X248450Y866720D01*
X248450Y867670D02*
X238450Y867670D01*
X238450Y868620D02*
X248450Y868620D01*
X248450Y869570D02*
X238450Y869570D01*
X238450Y870520D02*
X248450Y870520D01*
X248450Y871470D02*
X238450Y871470D01*
X238450Y872420D02*
X248450Y872420D01*
X248450Y873370D02*
X238450Y873370D01*
X238450Y874320D02*
X248450Y874320D01*
X248450Y875270D02*
X238450Y875270D01*
X231450Y993720D02*
X221450Y993720D01*
X221450Y1002720D01*
X231450Y1002720D01*
X231450Y993720D01*
X231450Y994670D02*
X221450Y994670D01*
X221450Y995620D02*
X231450Y995620D01*
X231450Y996570D02*
X221450Y996570D01*
X221450Y997520D02*
X231450Y997520D01*
X231450Y998470D02*
X221450Y998470D01*
X221450Y999420D02*
X231450Y999420D01*
X231450Y1000370D02*
X221450Y1000370D01*
X221450Y1001320D02*
X231450Y1001320D01*
X231450Y1002270D02*
X221450Y1002270D01*
X238450Y993720D02*
X248450Y993720D01*
X238450Y993720D02*
X238450Y1002720D01*
X248450Y1002720D01*
X248450Y993720D01*
X248450Y994670D02*
X238450Y994670D01*
X238450Y995620D02*
X248450Y995620D01*
X248450Y996570D02*
X238450Y996570D01*
X238450Y997520D02*
X248450Y997520D01*
X248450Y998470D02*
X238450Y998470D01*
X238450Y999420D02*
X248450Y999420D01*
X248450Y1000370D02*
X238450Y1000370D01*
X238450Y1001320D02*
X248450Y1001320D01*
X248450Y1002270D02*
X238450Y1002270D01*
X386550Y866720D02*
X396550Y866720D01*
X386550Y866720D02*
X386550Y875720D01*
X396550Y875720D01*
X396550Y866720D01*
X396550Y867670D02*
X386550Y867670D01*
X386550Y868620D02*
X396550Y868620D01*
X396550Y869570D02*
X386550Y869570D01*
X386550Y870520D02*
X396550Y870520D01*
X396550Y871470D02*
X386550Y871470D01*
X386550Y872420D02*
X396550Y872420D01*
X396550Y873370D02*
X386550Y873370D01*
X386550Y874320D02*
X396550Y874320D01*
X396550Y875270D02*
X386550Y875270D01*
X403550Y866720D02*
X413550Y866720D01*
X403550Y866720D02*
X403550Y875720D01*
X413550Y875720D01*
X413550Y866720D01*
X413550Y867670D02*
X403550Y867670D01*
X403550Y868620D02*
X413550Y868620D01*
X413550Y869570D02*
X403550Y869570D01*
X403550Y870520D02*
X413550Y870520D01*
X413550Y871470D02*
X403550Y871470D01*
X403550Y872420D02*
X413550Y872420D01*
X413550Y873370D02*
X403550Y873370D01*
X403550Y874320D02*
X413550Y874320D01*
X413550Y875270D02*
X403550Y875270D01*
X396550Y993720D02*
X386550Y993720D01*
X386550Y1002720D01*
X396550Y1002720D01*
X396550Y993720D01*
X396550Y994670D02*
X386550Y994670D01*
X386550Y995620D02*
X396550Y995620D01*
X396550Y996570D02*
X386550Y996570D01*
X386550Y997520D02*
X396550Y997520D01*
X396550Y998470D02*
X386550Y998470D01*
X386550Y999420D02*
X396550Y999420D01*
X396550Y1000370D02*
X386550Y1000370D01*
X386550Y1001320D02*
X396550Y1001320D01*
X396550Y1002270D02*
X386550Y1002270D01*
X403550Y993720D02*
X413550Y993720D01*
X403550Y993720D02*
X403550Y1002720D01*
X413550Y1002720D01*
X413550Y993720D01*
X413550Y994670D02*
X403550Y994670D01*
X403550Y995620D02*
X413550Y995620D01*
X413550Y996570D02*
X403550Y996570D01*
X403550Y997520D02*
X413550Y997520D01*
X413550Y998470D02*
X403550Y998470D01*
X403550Y999420D02*
X413550Y999420D01*
X413550Y1000370D02*
X403550Y1000370D01*
X403550Y1001320D02*
X413550Y1001320D01*
X413550Y1002270D02*
X403550Y1002270D01*
X551650Y866720D02*
X561650Y866720D01*
X551650Y866720D02*
X551650Y875720D01*
X561650Y875720D01*
X561650Y866720D01*
X561650Y867670D02*
X551650Y867670D01*
X551650Y868620D02*
X561650Y868620D01*
X561650Y869570D02*
X551650Y869570D01*
X551650Y870520D02*
X561650Y870520D01*
X561650Y871470D02*
X551650Y871470D01*
X551650Y872420D02*
X561650Y872420D01*
X561650Y873370D02*
X551650Y873370D01*
X551650Y874320D02*
X561650Y874320D01*
X561650Y875270D02*
X551650Y875270D01*
X568650Y866720D02*
X578650Y866720D01*
X568650Y866720D02*
X568650Y875720D01*
X578650Y875720D01*
X578650Y866720D01*
X578650Y867670D02*
X568650Y867670D01*
X568650Y868620D02*
X578650Y868620D01*
X578650Y869570D02*
X568650Y869570D01*
X568650Y870520D02*
X578650Y870520D01*
X578650Y871470D02*
X568650Y871470D01*
X568650Y872420D02*
X578650Y872420D01*
X578650Y873370D02*
X568650Y873370D01*
X568650Y874320D02*
X578650Y874320D01*
X578650Y875270D02*
X568650Y875270D01*
X561650Y993720D02*
X551650Y993720D01*
X551650Y1002720D01*
X561650Y1002720D01*
X561650Y993720D01*
X561650Y994670D02*
X551650Y994670D01*
X551650Y995620D02*
X561650Y995620D01*
X561650Y996570D02*
X551650Y996570D01*
X551650Y997520D02*
X561650Y997520D01*
X561650Y998470D02*
X551650Y998470D01*
X551650Y999420D02*
X561650Y999420D01*
X561650Y1000370D02*
X551650Y1000370D01*
X551650Y1001320D02*
X561650Y1001320D01*
X561650Y1002270D02*
X551650Y1002270D01*
X568650Y993720D02*
X578650Y993720D01*
X568650Y993720D02*
X568650Y1002720D01*
X578650Y1002720D01*
X578650Y993720D01*
X578650Y994670D02*
X568650Y994670D01*
X568650Y995620D02*
X578650Y995620D01*
X578650Y996570D02*
X568650Y996570D01*
X568650Y997520D02*
X578650Y997520D01*
X578650Y998470D02*
X568650Y998470D01*
X568650Y999420D02*
X578650Y999420D01*
X578650Y1000370D02*
X568650Y1000370D01*
X568650Y1001320D02*
X578650Y1001320D01*
X578650Y1002270D02*
X568650Y1002270D01*
X716750Y866720D02*
X726750Y866720D01*
X716750Y866720D02*
X716750Y875720D01*
X726750Y875720D01*
X726750Y866720D01*
X726750Y867670D02*
X716750Y867670D01*
X716750Y868620D02*
X726750Y868620D01*
X726750Y869570D02*
X716750Y869570D01*
X716750Y870520D02*
X726750Y870520D01*
X726750Y871470D02*
X716750Y871470D01*
X716750Y872420D02*
X726750Y872420D01*
X726750Y873370D02*
X716750Y873370D01*
X716750Y874320D02*
X726750Y874320D01*
X726750Y875270D02*
X716750Y875270D01*
X733750Y866720D02*
X743750Y866720D01*
X733750Y866720D02*
X733750Y875720D01*
X743750Y875720D01*
X743750Y866720D01*
X743750Y867670D02*
X733750Y867670D01*
X733750Y868620D02*
X743750Y868620D01*
X743750Y869570D02*
X733750Y869570D01*
X733750Y870520D02*
X743750Y870520D01*
X743750Y871470D02*
X733750Y871470D01*
X733750Y872420D02*
X743750Y872420D01*
X743750Y873370D02*
X733750Y873370D01*
X733750Y874320D02*
X743750Y874320D01*
X743750Y875270D02*
X733750Y875270D01*
X726750Y993720D02*
X716750Y993720D01*
X716750Y1002720D01*
X726750Y1002720D01*
X726750Y993720D01*
X726750Y994670D02*
X716750Y994670D01*
X716750Y995620D02*
X726750Y995620D01*
X726750Y996570D02*
X716750Y996570D01*
X716750Y997520D02*
X726750Y997520D01*
X726750Y998470D02*
X716750Y998470D01*
X716750Y999420D02*
X726750Y999420D01*
X726750Y1000370D02*
X716750Y1000370D01*
X716750Y1001320D02*
X726750Y1001320D01*
X726750Y1002270D02*
X716750Y1002270D01*
X733750Y993720D02*
X743750Y993720D01*
X733750Y993720D02*
X733750Y1002720D01*
X743750Y1002720D01*
X743750Y993720D01*
X743750Y994670D02*
X733750Y994670D01*
X733750Y995620D02*
X743750Y995620D01*
X743750Y996570D02*
X733750Y996570D01*
X733750Y997520D02*
X743750Y997520D01*
X743750Y998470D02*
X733750Y998470D01*
X733750Y999420D02*
X743750Y999420D01*
X743750Y1000370D02*
X733750Y1000370D01*
X733750Y1001320D02*
X743750Y1001320D01*
X743750Y1002270D02*
X733750Y1002270D01*
X881850Y866720D02*
X891850Y866720D01*
X881850Y866720D02*
X881850Y875720D01*
X891850Y875720D01*
X891850Y866720D01*
X891850Y867670D02*
X881850Y867670D01*
X881850Y868620D02*
X891850Y868620D01*
X891850Y869570D02*
X881850Y869570D01*
X881850Y870520D02*
X891850Y870520D01*
X891850Y871470D02*
X881850Y871470D01*
X881850Y872420D02*
X891850Y872420D01*
X891850Y873370D02*
X881850Y873370D01*
X881850Y874320D02*
X891850Y874320D01*
X891850Y875270D02*
X881850Y875270D01*
X898850Y866720D02*
X908850Y866720D01*
X898850Y866720D02*
X898850Y875720D01*
X908850Y875720D01*
X908850Y866720D01*
X908850Y867670D02*
X898850Y867670D01*
X898850Y868620D02*
X908850Y868620D01*
X908850Y869570D02*
X898850Y869570D01*
X898850Y870520D02*
X908850Y870520D01*
X908850Y871470D02*
X898850Y871470D01*
X898850Y872420D02*
X908850Y872420D01*
X908850Y873370D02*
X898850Y873370D01*
X898850Y874320D02*
X908850Y874320D01*
X908850Y875270D02*
X898850Y875270D01*
X891850Y993720D02*
X881850Y993720D01*
X881850Y1002720D01*
X891850Y1002720D01*
X891850Y993720D01*
X891850Y994670D02*
X881850Y994670D01*
X881850Y995620D02*
X891850Y995620D01*
X891850Y996570D02*
X881850Y996570D01*
X881850Y997520D02*
X891850Y997520D01*
X891850Y998470D02*
X881850Y998470D01*
X881850Y999420D02*
X891850Y999420D01*
X891850Y1000370D02*
X881850Y1000370D01*
X881850Y1001320D02*
X891850Y1001320D01*
X891850Y1002270D02*
X881850Y1002270D01*
X898850Y993720D02*
X908850Y993720D01*
X898850Y993720D02*
X898850Y1002720D01*
X908850Y1002720D01*
X908850Y993720D01*
X908850Y994670D02*
X898850Y994670D01*
X898850Y995620D02*
X908850Y995620D01*
X908850Y996570D02*
X898850Y996570D01*
X898850Y997520D02*
X908850Y997520D01*
X908850Y998470D02*
X898850Y998470D01*
X898850Y999420D02*
X908850Y999420D01*
X908850Y1000370D02*
X898850Y1000370D01*
X898850Y1001320D02*
X908850Y1001320D01*
X908850Y1002270D02*
X898850Y1002270D01*
X1046950Y866720D02*
X1056950Y866720D01*
X1046950Y866720D02*
X1046950Y875720D01*
X1056950Y875720D01*
X1056950Y866720D01*
X1056950Y867670D02*
X1046950Y867670D01*
X1046950Y868620D02*
X1056950Y868620D01*
X1056950Y869570D02*
X1046950Y869570D01*
X1046950Y870520D02*
X1056950Y870520D01*
X1056950Y871470D02*
X1046950Y871470D01*
X1046950Y872420D02*
X1056950Y872420D01*
X1056950Y873370D02*
X1046950Y873370D01*
X1046950Y874320D02*
X1056950Y874320D01*
X1056950Y875270D02*
X1046950Y875270D01*
X1063950Y866720D02*
X1073950Y866720D01*
X1063950Y866720D02*
X1063950Y875720D01*
X1073950Y875720D01*
X1073950Y866720D01*
X1073950Y867670D02*
X1063950Y867670D01*
X1063950Y868620D02*
X1073950Y868620D01*
X1073950Y869570D02*
X1063950Y869570D01*
X1063950Y870520D02*
X1073950Y870520D01*
X1073950Y871470D02*
X1063950Y871470D01*
X1063950Y872420D02*
X1073950Y872420D01*
X1073950Y873370D02*
X1063950Y873370D01*
X1063950Y874320D02*
X1073950Y874320D01*
X1073950Y875270D02*
X1063950Y875270D01*
X1056950Y993720D02*
X1046950Y993720D01*
X1046950Y1002720D01*
X1056950Y1002720D01*
X1056950Y993720D01*
X1056950Y994670D02*
X1046950Y994670D01*
X1046950Y995620D02*
X1056950Y995620D01*
X1056950Y996570D02*
X1046950Y996570D01*
X1046950Y997520D02*
X1056950Y997520D01*
X1056950Y998470D02*
X1046950Y998470D01*
X1046950Y999420D02*
X1056950Y999420D01*
X1056950Y1000370D02*
X1046950Y1000370D01*
X1046950Y1001320D02*
X1056950Y1001320D01*
X1056950Y1002270D02*
X1046950Y1002270D01*
X1063950Y993720D02*
X1073950Y993720D01*
X1063950Y993720D02*
X1063950Y1002720D01*
X1073950Y1002720D01*
X1073950Y993720D01*
X1073950Y994670D02*
X1063950Y994670D01*
X1063950Y995620D02*
X1073950Y995620D01*
X1073950Y996570D02*
X1063950Y996570D01*
X1063950Y997520D02*
X1073950Y997520D01*
X1073950Y998470D02*
X1063950Y998470D01*
X1063950Y999420D02*
X1073950Y999420D01*
X1073950Y1000370D02*
X1063950Y1000370D01*
X1063950Y1001320D02*
X1073950Y1001320D01*
X1073950Y1002270D02*
X1063950Y1002270D01*
X1212050Y866720D02*
X1222050Y866720D01*
X1212050Y866720D02*
X1212050Y875720D01*
X1222050Y875720D01*
X1222050Y866720D01*
X1222050Y867670D02*
X1212050Y867670D01*
X1212050Y868620D02*
X1222050Y868620D01*
X1222050Y869570D02*
X1212050Y869570D01*
X1212050Y870520D02*
X1222050Y870520D01*
X1222050Y871470D02*
X1212050Y871470D01*
X1212050Y872420D02*
X1222050Y872420D01*
X1222050Y873370D02*
X1212050Y873370D01*
X1212050Y874320D02*
X1222050Y874320D01*
X1222050Y875270D02*
X1212050Y875270D01*
X1229050Y866720D02*
X1239050Y866720D01*
X1229050Y866720D02*
X1229050Y875720D01*
X1239050Y875720D01*
X1239050Y866720D01*
X1239050Y867670D02*
X1229050Y867670D01*
X1229050Y868620D02*
X1239050Y868620D01*
X1239050Y869570D02*
X1229050Y869570D01*
X1229050Y870520D02*
X1239050Y870520D01*
X1239050Y871470D02*
X1229050Y871470D01*
X1229050Y872420D02*
X1239050Y872420D01*
X1239050Y873370D02*
X1229050Y873370D01*
X1229050Y874320D02*
X1239050Y874320D01*
X1239050Y875270D02*
X1229050Y875270D01*
X1222050Y993720D02*
X1212050Y993720D01*
X1212050Y1002720D01*
X1222050Y1002720D01*
X1222050Y993720D01*
X1222050Y994670D02*
X1212050Y994670D01*
X1212050Y995620D02*
X1222050Y995620D01*
X1222050Y996570D02*
X1212050Y996570D01*
X1212050Y997520D02*
X1222050Y997520D01*
X1222050Y998470D02*
X1212050Y998470D01*
X1212050Y999420D02*
X1222050Y999420D01*
X1222050Y1000370D02*
X1212050Y1000370D01*
X1212050Y1001320D02*
X1222050Y1001320D01*
X1222050Y1002270D02*
X1212050Y1002270D01*
X1229050Y993720D02*
X1239050Y993720D01*
X1229050Y993720D02*
X1229050Y1002720D01*
X1239050Y1002720D01*
X1239050Y993720D01*
X1239050Y994670D02*
X1229050Y994670D01*
X1229050Y995620D02*
X1239050Y995620D01*
X1239050Y996570D02*
X1229050Y996570D01*
X1229050Y997520D02*
X1239050Y997520D01*
X1239050Y998470D02*
X1229050Y998470D01*
X1229050Y999420D02*
X1239050Y999420D01*
X1239050Y1000370D02*
X1229050Y1000370D01*
X1229050Y1001320D02*
X1239050Y1001320D01*
X1239050Y1002270D02*
X1229050Y1002270D01*
X1377150Y866720D02*
X1387150Y866720D01*
X1377150Y866720D02*
X1377150Y875720D01*
X1387150Y875720D01*
X1387150Y866720D01*
X1387150Y867670D02*
X1377150Y867670D01*
X1377150Y868620D02*
X1387150Y868620D01*
X1387150Y869570D02*
X1377150Y869570D01*
X1377150Y870520D02*
X1387150Y870520D01*
X1387150Y871470D02*
X1377150Y871470D01*
X1377150Y872420D02*
X1387150Y872420D01*
X1387150Y873370D02*
X1377150Y873370D01*
X1377150Y874320D02*
X1387150Y874320D01*
X1387150Y875270D02*
X1377150Y875270D01*
X1394150Y866720D02*
X1404150Y866720D01*
X1394150Y866720D02*
X1394150Y875720D01*
X1404150Y875720D01*
X1404150Y866720D01*
X1404150Y867670D02*
X1394150Y867670D01*
X1394150Y868620D02*
X1404150Y868620D01*
X1404150Y869570D02*
X1394150Y869570D01*
X1394150Y870520D02*
X1404150Y870520D01*
X1404150Y871470D02*
X1394150Y871470D01*
X1394150Y872420D02*
X1404150Y872420D01*
X1404150Y873370D02*
X1394150Y873370D01*
X1394150Y874320D02*
X1404150Y874320D01*
X1404150Y875270D02*
X1394150Y875270D01*
X1387150Y993720D02*
X1377150Y993720D01*
X1377150Y1002720D01*
X1387150Y1002720D01*
X1387150Y993720D01*
X1387150Y994670D02*
X1377150Y994670D01*
X1377150Y995620D02*
X1387150Y995620D01*
X1387150Y996570D02*
X1377150Y996570D01*
X1377150Y997520D02*
X1387150Y997520D01*
X1387150Y998470D02*
X1377150Y998470D01*
X1377150Y999420D02*
X1387150Y999420D01*
X1387150Y1000370D02*
X1377150Y1000370D01*
X1377150Y1001320D02*
X1387150Y1001320D01*
X1387150Y1002270D02*
X1377150Y1002270D01*
X1394150Y993720D02*
X1404150Y993720D01*
X1394150Y993720D02*
X1394150Y1002720D01*
X1404150Y1002720D01*
X1404150Y993720D01*
X1404150Y994670D02*
X1394150Y994670D01*
X1394150Y995620D02*
X1404150Y995620D01*
X1404150Y996570D02*
X1394150Y996570D01*
X1394150Y997520D02*
X1404150Y997520D01*
X1404150Y998470D02*
X1394150Y998470D01*
X1394150Y999420D02*
X1404150Y999420D01*
X1404150Y1000370D02*
X1394150Y1000370D01*
X1394150Y1001320D02*
X1404150Y1001320D01*
X1404150Y1002270D02*
X1394150Y1002270D01*
X1542250Y866720D02*
X1552250Y866720D01*
X1542250Y866720D02*
X1542250Y875720D01*
X1552250Y875720D01*
X1552250Y866720D01*
X1552250Y867670D02*
X1542250Y867670D01*
X1542250Y868620D02*
X1552250Y868620D01*
X1552250Y869570D02*
X1542250Y869570D01*
X1542250Y870520D02*
X1552250Y870520D01*
X1552250Y871470D02*
X1542250Y871470D01*
X1542250Y872420D02*
X1552250Y872420D01*
X1552250Y873370D02*
X1542250Y873370D01*
X1542250Y874320D02*
X1552250Y874320D01*
X1552250Y875270D02*
X1542250Y875270D01*
X1559250Y866720D02*
X1569250Y866720D01*
X1559250Y866720D02*
X1559250Y875720D01*
X1569250Y875720D01*
X1569250Y866720D01*
X1569250Y867670D02*
X1559250Y867670D01*
X1559250Y868620D02*
X1569250Y868620D01*
X1569250Y869570D02*
X1559250Y869570D01*
X1559250Y870520D02*
X1569250Y870520D01*
X1569250Y871470D02*
X1559250Y871470D01*
X1559250Y872420D02*
X1569250Y872420D01*
X1569250Y873370D02*
X1559250Y873370D01*
X1559250Y874320D02*
X1569250Y874320D01*
X1569250Y875270D02*
X1559250Y875270D01*
X1552250Y993720D02*
X1542250Y993720D01*
X1542250Y1002720D01*
X1552250Y1002720D01*
X1552250Y993720D01*
X1552250Y994670D02*
X1542250Y994670D01*
X1542250Y995620D02*
X1552250Y995620D01*
X1552250Y996570D02*
X1542250Y996570D01*
X1542250Y997520D02*
X1552250Y997520D01*
X1552250Y998470D02*
X1542250Y998470D01*
X1542250Y999420D02*
X1552250Y999420D01*
X1552250Y1000370D02*
X1542250Y1000370D01*
X1542250Y1001320D02*
X1552250Y1001320D01*
X1552250Y1002270D02*
X1542250Y1002270D01*
X1559250Y993720D02*
X1569250Y993720D01*
X1559250Y993720D02*
X1559250Y1002720D01*
X1569250Y1002720D01*
X1569250Y993720D01*
X1569250Y994670D02*
X1559250Y994670D01*
X1559250Y995620D02*
X1569250Y995620D01*
X1569250Y996570D02*
X1559250Y996570D01*
X1559250Y997520D02*
X1569250Y997520D01*
X1569250Y998470D02*
X1559250Y998470D01*
X1559250Y999420D02*
X1569250Y999420D01*
X1569250Y1000370D02*
X1559250Y1000370D01*
X1559250Y1001320D02*
X1569250Y1001320D01*
X1569250Y1002270D02*
X1559250Y1002270D01*
X66350Y1075000D02*
X56350Y1075000D01*
X56350Y1084000D01*
X66350Y1084000D01*
X66350Y1075000D01*
X66350Y1075950D02*
X56350Y1075950D01*
X56350Y1076900D02*
X66350Y1076900D01*
X66350Y1077850D02*
X56350Y1077850D01*
X56350Y1078800D02*
X66350Y1078800D01*
X66350Y1079750D02*
X56350Y1079750D01*
X56350Y1080700D02*
X66350Y1080700D01*
X66350Y1081650D02*
X56350Y1081650D01*
X56350Y1082600D02*
X66350Y1082600D01*
X66350Y1083550D02*
X56350Y1083550D01*
X73350Y1075000D02*
X83350Y1075000D01*
X73350Y1075000D02*
X73350Y1084000D01*
X83350Y1084000D01*
X83350Y1075000D01*
X83350Y1075950D02*
X73350Y1075950D01*
X73350Y1076900D02*
X83350Y1076900D01*
X83350Y1077850D02*
X73350Y1077850D01*
X73350Y1078800D02*
X83350Y1078800D01*
X83350Y1079750D02*
X73350Y1079750D01*
X73350Y1080700D02*
X83350Y1080700D01*
X83350Y1081650D02*
X73350Y1081650D01*
X73350Y1082600D02*
X83350Y1082600D01*
X83350Y1083550D02*
X73350Y1083550D01*
X66350Y1202000D02*
X56350Y1202000D01*
X56350Y1211000D01*
X66350Y1211000D01*
X66350Y1202000D01*
X66350Y1202950D02*
X56350Y1202950D01*
X56350Y1203900D02*
X66350Y1203900D01*
X66350Y1204850D02*
X56350Y1204850D01*
X56350Y1205800D02*
X66350Y1205800D01*
X66350Y1206750D02*
X56350Y1206750D01*
X56350Y1207700D02*
X66350Y1207700D01*
X66350Y1208650D02*
X56350Y1208650D01*
X56350Y1209600D02*
X66350Y1209600D01*
X66350Y1210550D02*
X56350Y1210550D01*
X73350Y1202000D02*
X83350Y1202000D01*
X73350Y1202000D02*
X73350Y1211000D01*
X83350Y1211000D01*
X83350Y1202000D01*
X83350Y1202950D02*
X73350Y1202950D01*
X73350Y1203900D02*
X83350Y1203900D01*
X83350Y1204850D02*
X73350Y1204850D01*
X73350Y1205800D02*
X83350Y1205800D01*
X83350Y1206750D02*
X73350Y1206750D01*
X73350Y1207700D02*
X83350Y1207700D01*
X83350Y1208650D02*
X73350Y1208650D01*
X73350Y1209600D02*
X83350Y1209600D01*
X83350Y1210550D02*
X73350Y1210550D01*
X221450Y1075000D02*
X231450Y1075000D01*
X221450Y1075000D02*
X221450Y1084000D01*
X231450Y1084000D01*
X231450Y1075000D01*
X231450Y1075950D02*
X221450Y1075950D01*
X221450Y1076900D02*
X231450Y1076900D01*
X231450Y1077850D02*
X221450Y1077850D01*
X221450Y1078800D02*
X231450Y1078800D01*
X231450Y1079750D02*
X221450Y1079750D01*
X221450Y1080700D02*
X231450Y1080700D01*
X231450Y1081650D02*
X221450Y1081650D01*
X221450Y1082600D02*
X231450Y1082600D01*
X231450Y1083550D02*
X221450Y1083550D01*
X238450Y1075000D02*
X248450Y1075000D01*
X238450Y1075000D02*
X238450Y1084000D01*
X248450Y1084000D01*
X248450Y1075000D01*
X248450Y1075950D02*
X238450Y1075950D01*
X238450Y1076900D02*
X248450Y1076900D01*
X248450Y1077850D02*
X238450Y1077850D01*
X238450Y1078800D02*
X248450Y1078800D01*
X248450Y1079750D02*
X238450Y1079750D01*
X238450Y1080700D02*
X248450Y1080700D01*
X248450Y1081650D02*
X238450Y1081650D01*
X238450Y1082600D02*
X248450Y1082600D01*
X248450Y1083550D02*
X238450Y1083550D01*
X231450Y1202000D02*
X221450Y1202000D01*
X221450Y1211000D01*
X231450Y1211000D01*
X231450Y1202000D01*
X231450Y1202950D02*
X221450Y1202950D01*
X221450Y1203900D02*
X231450Y1203900D01*
X231450Y1204850D02*
X221450Y1204850D01*
X221450Y1205800D02*
X231450Y1205800D01*
X231450Y1206750D02*
X221450Y1206750D01*
X221450Y1207700D02*
X231450Y1207700D01*
X231450Y1208650D02*
X221450Y1208650D01*
X221450Y1209600D02*
X231450Y1209600D01*
X231450Y1210550D02*
X221450Y1210550D01*
X238450Y1202000D02*
X248450Y1202000D01*
X238450Y1202000D02*
X238450Y1211000D01*
X248450Y1211000D01*
X248450Y1202000D01*
X248450Y1202950D02*
X238450Y1202950D01*
X238450Y1203900D02*
X248450Y1203900D01*
X248450Y1204850D02*
X238450Y1204850D01*
X238450Y1205800D02*
X248450Y1205800D01*
X248450Y1206750D02*
X238450Y1206750D01*
X238450Y1207700D02*
X248450Y1207700D01*
X248450Y1208650D02*
X238450Y1208650D01*
X238450Y1209600D02*
X248450Y1209600D01*
X248450Y1210550D02*
X238450Y1210550D01*
X386550Y1075000D02*
X396550Y1075000D01*
X386550Y1075000D02*
X386550Y1084000D01*
X396550Y1084000D01*
X396550Y1075000D01*
X396550Y1075950D02*
X386550Y1075950D01*
X386550Y1076900D02*
X396550Y1076900D01*
X396550Y1077850D02*
X386550Y1077850D01*
X386550Y1078800D02*
X396550Y1078800D01*
X396550Y1079750D02*
X386550Y1079750D01*
X386550Y1080700D02*
X396550Y1080700D01*
X396550Y1081650D02*
X386550Y1081650D01*
X386550Y1082600D02*
X396550Y1082600D01*
X396550Y1083550D02*
X386550Y1083550D01*
X403550Y1075000D02*
X413550Y1075000D01*
X403550Y1075000D02*
X403550Y1084000D01*
X413550Y1084000D01*
X413550Y1075000D01*
X413550Y1075950D02*
X403550Y1075950D01*
X403550Y1076900D02*
X413550Y1076900D01*
X413550Y1077850D02*
X403550Y1077850D01*
X403550Y1078800D02*
X413550Y1078800D01*
X413550Y1079750D02*
X403550Y1079750D01*
X403550Y1080700D02*
X413550Y1080700D01*
X413550Y1081650D02*
X403550Y1081650D01*
X403550Y1082600D02*
X413550Y1082600D01*
X413550Y1083550D02*
X403550Y1083550D01*
X396550Y1202000D02*
X386550Y1202000D01*
X386550Y1211000D01*
X396550Y1211000D01*
X396550Y1202000D01*
X396550Y1202950D02*
X386550Y1202950D01*
X386550Y1203900D02*
X396550Y1203900D01*
X396550Y1204850D02*
X386550Y1204850D01*
X386550Y1205800D02*
X396550Y1205800D01*
X396550Y1206750D02*
X386550Y1206750D01*
X386550Y1207700D02*
X396550Y1207700D01*
X396550Y1208650D02*
X386550Y1208650D01*
X386550Y1209600D02*
X396550Y1209600D01*
X396550Y1210550D02*
X386550Y1210550D01*
X403550Y1202000D02*
X413550Y1202000D01*
X403550Y1202000D02*
X403550Y1211000D01*
X413550Y1211000D01*
X413550Y1202000D01*
X413550Y1202950D02*
X403550Y1202950D01*
X403550Y1203900D02*
X413550Y1203900D01*
X413550Y1204850D02*
X403550Y1204850D01*
X403550Y1205800D02*
X413550Y1205800D01*
X413550Y1206750D02*
X403550Y1206750D01*
X403550Y1207700D02*
X413550Y1207700D01*
X413550Y1208650D02*
X403550Y1208650D01*
X403550Y1209600D02*
X413550Y1209600D01*
X413550Y1210550D02*
X403550Y1210550D01*
X551650Y1075000D02*
X561650Y1075000D01*
X551650Y1075000D02*
X551650Y1084000D01*
X561650Y1084000D01*
X561650Y1075000D01*
X561650Y1075950D02*
X551650Y1075950D01*
X551650Y1076900D02*
X561650Y1076900D01*
X561650Y1077850D02*
X551650Y1077850D01*
X551650Y1078800D02*
X561650Y1078800D01*
X561650Y1079750D02*
X551650Y1079750D01*
X551650Y1080700D02*
X561650Y1080700D01*
X561650Y1081650D02*
X551650Y1081650D01*
X551650Y1082600D02*
X561650Y1082600D01*
X561650Y1083550D02*
X551650Y1083550D01*
X568650Y1075000D02*
X578650Y1075000D01*
X568650Y1075000D02*
X568650Y1084000D01*
X578650Y1084000D01*
X578650Y1075000D01*
X578650Y1075950D02*
X568650Y1075950D01*
X568650Y1076900D02*
X578650Y1076900D01*
X578650Y1077850D02*
X568650Y1077850D01*
X568650Y1078800D02*
X578650Y1078800D01*
X578650Y1079750D02*
X568650Y1079750D01*
X568650Y1080700D02*
X578650Y1080700D01*
X578650Y1081650D02*
X568650Y1081650D01*
X568650Y1082600D02*
X578650Y1082600D01*
X578650Y1083550D02*
X568650Y1083550D01*
X561650Y1202000D02*
X551650Y1202000D01*
X551650Y1211000D01*
X561650Y1211000D01*
X561650Y1202000D01*
X561650Y1202950D02*
X551650Y1202950D01*
X551650Y1203900D02*
X561650Y1203900D01*
X561650Y1204850D02*
X551650Y1204850D01*
X551650Y1205800D02*
X561650Y1205800D01*
X561650Y1206750D02*
X551650Y1206750D01*
X551650Y1207700D02*
X561650Y1207700D01*
X561650Y1208650D02*
X551650Y1208650D01*
X551650Y1209600D02*
X561650Y1209600D01*
X561650Y1210550D02*
X551650Y1210550D01*
X568650Y1202000D02*
X578650Y1202000D01*
X568650Y1202000D02*
X568650Y1211000D01*
X578650Y1211000D01*
X578650Y1202000D01*
X578650Y1202950D02*
X568650Y1202950D01*
X568650Y1203900D02*
X578650Y1203900D01*
X578650Y1204850D02*
X568650Y1204850D01*
X568650Y1205800D02*
X578650Y1205800D01*
X578650Y1206750D02*
X568650Y1206750D01*
X568650Y1207700D02*
X578650Y1207700D01*
X578650Y1208650D02*
X568650Y1208650D01*
X568650Y1209600D02*
X578650Y1209600D01*
X578650Y1210550D02*
X568650Y1210550D01*
X716750Y1075000D02*
X726750Y1075000D01*
X716750Y1075000D02*
X716750Y1084000D01*
X726750Y1084000D01*
X726750Y1075000D01*
X726750Y1075950D02*
X716750Y1075950D01*
X716750Y1076900D02*
X726750Y1076900D01*
X726750Y1077850D02*
X716750Y1077850D01*
X716750Y1078800D02*
X726750Y1078800D01*
X726750Y1079750D02*
X716750Y1079750D01*
X716750Y1080700D02*
X726750Y1080700D01*
X726750Y1081650D02*
X716750Y1081650D01*
X716750Y1082600D02*
X726750Y1082600D01*
X726750Y1083550D02*
X716750Y1083550D01*
X733750Y1075000D02*
X743750Y1075000D01*
X733750Y1075000D02*
X733750Y1084000D01*
X743750Y1084000D01*
X743750Y1075000D01*
X743750Y1075950D02*
X733750Y1075950D01*
X733750Y1076900D02*
X743750Y1076900D01*
X743750Y1077850D02*
X733750Y1077850D01*
X733750Y1078800D02*
X743750Y1078800D01*
X743750Y1079750D02*
X733750Y1079750D01*
X733750Y1080700D02*
X743750Y1080700D01*
X743750Y1081650D02*
X733750Y1081650D01*
X733750Y1082600D02*
X743750Y1082600D01*
X743750Y1083550D02*
X733750Y1083550D01*
X726750Y1202000D02*
X716750Y1202000D01*
X716750Y1211000D01*
X726750Y1211000D01*
X726750Y1202000D01*
X726750Y1202950D02*
X716750Y1202950D01*
X716750Y1203900D02*
X726750Y1203900D01*
X726750Y1204850D02*
X716750Y1204850D01*
X716750Y1205800D02*
X726750Y1205800D01*
X726750Y1206750D02*
X716750Y1206750D01*
X716750Y1207700D02*
X726750Y1207700D01*
X726750Y1208650D02*
X716750Y1208650D01*
X716750Y1209600D02*
X726750Y1209600D01*
X726750Y1210550D02*
X716750Y1210550D01*
X733750Y1202000D02*
X743750Y1202000D01*
X733750Y1202000D02*
X733750Y1211000D01*
X743750Y1211000D01*
X743750Y1202000D01*
X743750Y1202950D02*
X733750Y1202950D01*
X733750Y1203900D02*
X743750Y1203900D01*
X743750Y1204850D02*
X733750Y1204850D01*
X733750Y1205800D02*
X743750Y1205800D01*
X743750Y1206750D02*
X733750Y1206750D01*
X733750Y1207700D02*
X743750Y1207700D01*
X743750Y1208650D02*
X733750Y1208650D01*
X733750Y1209600D02*
X743750Y1209600D01*
X743750Y1210550D02*
X733750Y1210550D01*
X881850Y1075000D02*
X891850Y1075000D01*
X881850Y1075000D02*
X881850Y1084000D01*
X891850Y1084000D01*
X891850Y1075000D01*
X891850Y1075950D02*
X881850Y1075950D01*
X881850Y1076900D02*
X891850Y1076900D01*
X891850Y1077850D02*
X881850Y1077850D01*
X881850Y1078800D02*
X891850Y1078800D01*
X891850Y1079750D02*
X881850Y1079750D01*
X881850Y1080700D02*
X891850Y1080700D01*
X891850Y1081650D02*
X881850Y1081650D01*
X881850Y1082600D02*
X891850Y1082600D01*
X891850Y1083550D02*
X881850Y1083550D01*
X898850Y1075000D02*
X908850Y1075000D01*
X898850Y1075000D02*
X898850Y1084000D01*
X908850Y1084000D01*
X908850Y1075000D01*
X908850Y1075950D02*
X898850Y1075950D01*
X898850Y1076900D02*
X908850Y1076900D01*
X908850Y1077850D02*
X898850Y1077850D01*
X898850Y1078800D02*
X908850Y1078800D01*
X908850Y1079750D02*
X898850Y1079750D01*
X898850Y1080700D02*
X908850Y1080700D01*
X908850Y1081650D02*
X898850Y1081650D01*
X898850Y1082600D02*
X908850Y1082600D01*
X908850Y1083550D02*
X898850Y1083550D01*
X891850Y1202000D02*
X881850Y1202000D01*
X881850Y1211000D01*
X891850Y1211000D01*
X891850Y1202000D01*
X891850Y1202950D02*
X881850Y1202950D01*
X881850Y1203900D02*
X891850Y1203900D01*
X891850Y1204850D02*
X881850Y1204850D01*
X881850Y1205800D02*
X891850Y1205800D01*
X891850Y1206750D02*
X881850Y1206750D01*
X881850Y1207700D02*
X891850Y1207700D01*
X891850Y1208650D02*
X881850Y1208650D01*
X881850Y1209600D02*
X891850Y1209600D01*
X891850Y1210550D02*
X881850Y1210550D01*
X898850Y1202000D02*
X908850Y1202000D01*
X898850Y1202000D02*
X898850Y1211000D01*
X908850Y1211000D01*
X908850Y1202000D01*
X908850Y1202950D02*
X898850Y1202950D01*
X898850Y1203900D02*
X908850Y1203900D01*
X908850Y1204850D02*
X898850Y1204850D01*
X898850Y1205800D02*
X908850Y1205800D01*
X908850Y1206750D02*
X898850Y1206750D01*
X898850Y1207700D02*
X908850Y1207700D01*
X908850Y1208650D02*
X898850Y1208650D01*
X898850Y1209600D02*
X908850Y1209600D01*
X908850Y1210550D02*
X898850Y1210550D01*
X1046950Y1075000D02*
X1056950Y1075000D01*
X1046950Y1075000D02*
X1046950Y1084000D01*
X1056950Y1084000D01*
X1056950Y1075000D01*
X1056950Y1075950D02*
X1046950Y1075950D01*
X1046950Y1076900D02*
X1056950Y1076900D01*
X1056950Y1077850D02*
X1046950Y1077850D01*
X1046950Y1078800D02*
X1056950Y1078800D01*
X1056950Y1079750D02*
X1046950Y1079750D01*
X1046950Y1080700D02*
X1056950Y1080700D01*
X1056950Y1081650D02*
X1046950Y1081650D01*
X1046950Y1082600D02*
X1056950Y1082600D01*
X1056950Y1083550D02*
X1046950Y1083550D01*
X1063950Y1075000D02*
X1073950Y1075000D01*
X1063950Y1075000D02*
X1063950Y1084000D01*
X1073950Y1084000D01*
X1073950Y1075000D01*
X1073950Y1075950D02*
X1063950Y1075950D01*
X1063950Y1076900D02*
X1073950Y1076900D01*
X1073950Y1077850D02*
X1063950Y1077850D01*
X1063950Y1078800D02*
X1073950Y1078800D01*
X1073950Y1079750D02*
X1063950Y1079750D01*
X1063950Y1080700D02*
X1073950Y1080700D01*
X1073950Y1081650D02*
X1063950Y1081650D01*
X1063950Y1082600D02*
X1073950Y1082600D01*
X1073950Y1083550D02*
X1063950Y1083550D01*
X1056950Y1202000D02*
X1046950Y1202000D01*
X1046950Y1211000D01*
X1056950Y1211000D01*
X1056950Y1202000D01*
X1056950Y1202950D02*
X1046950Y1202950D01*
X1046950Y1203900D02*
X1056950Y1203900D01*
X1056950Y1204850D02*
X1046950Y1204850D01*
X1046950Y1205800D02*
X1056950Y1205800D01*
X1056950Y1206750D02*
X1046950Y1206750D01*
X1046950Y1207700D02*
X1056950Y1207700D01*
X1056950Y1208650D02*
X1046950Y1208650D01*
X1046950Y1209600D02*
X1056950Y1209600D01*
X1056950Y1210550D02*
X1046950Y1210550D01*
X1063950Y1202000D02*
X1073950Y1202000D01*
X1063950Y1202000D02*
X1063950Y1211000D01*
X1073950Y1211000D01*
X1073950Y1202000D01*
X1073950Y1202950D02*
X1063950Y1202950D01*
X1063950Y1203900D02*
X1073950Y1203900D01*
X1073950Y1204850D02*
X1063950Y1204850D01*
X1063950Y1205800D02*
X1073950Y1205800D01*
X1073950Y1206750D02*
X1063950Y1206750D01*
X1063950Y1207700D02*
X1073950Y1207700D01*
X1073950Y1208650D02*
X1063950Y1208650D01*
X1063950Y1209600D02*
X1073950Y1209600D01*
X1073950Y1210550D02*
X1063950Y1210550D01*
X1212050Y1075000D02*
X1222050Y1075000D01*
X1212050Y1075000D02*
X1212050Y1084000D01*
X1222050Y1084000D01*
X1222050Y1075000D01*
X1222050Y1075950D02*
X1212050Y1075950D01*
X1212050Y1076900D02*
X1222050Y1076900D01*
X1222050Y1077850D02*
X1212050Y1077850D01*
X1212050Y1078800D02*
X1222050Y1078800D01*
X1222050Y1079750D02*
X1212050Y1079750D01*
X1212050Y1080700D02*
X1222050Y1080700D01*
X1222050Y1081650D02*
X1212050Y1081650D01*
X1212050Y1082600D02*
X1222050Y1082600D01*
X1222050Y1083550D02*
X1212050Y1083550D01*
X1229050Y1075000D02*
X1239050Y1075000D01*
X1229050Y1075000D02*
X1229050Y1084000D01*
X1239050Y1084000D01*
X1239050Y1075000D01*
X1239050Y1075950D02*
X1229050Y1075950D01*
X1229050Y1076900D02*
X1239050Y1076900D01*
X1239050Y1077850D02*
X1229050Y1077850D01*
X1229050Y1078800D02*
X1239050Y1078800D01*
X1239050Y1079750D02*
X1229050Y1079750D01*
X1229050Y1080700D02*
X1239050Y1080700D01*
X1239050Y1081650D02*
X1229050Y1081650D01*
X1229050Y1082600D02*
X1239050Y1082600D01*
X1239050Y1083550D02*
X1229050Y1083550D01*
X1222050Y1202000D02*
X1212050Y1202000D01*
X1212050Y1211000D01*
X1222050Y1211000D01*
X1222050Y1202000D01*
X1222050Y1202950D02*
X1212050Y1202950D01*
X1212050Y1203900D02*
X1222050Y1203900D01*
X1222050Y1204850D02*
X1212050Y1204850D01*
X1212050Y1205800D02*
X1222050Y1205800D01*
X1222050Y1206750D02*
X1212050Y1206750D01*
X1212050Y1207700D02*
X1222050Y1207700D01*
X1222050Y1208650D02*
X1212050Y1208650D01*
X1212050Y1209600D02*
X1222050Y1209600D01*
X1222050Y1210550D02*
X1212050Y1210550D01*
X1229050Y1202000D02*
X1239050Y1202000D01*
X1229050Y1202000D02*
X1229050Y1211000D01*
X1239050Y1211000D01*
X1239050Y1202000D01*
X1239050Y1202950D02*
X1229050Y1202950D01*
X1229050Y1203900D02*
X1239050Y1203900D01*
X1239050Y1204850D02*
X1229050Y1204850D01*
X1229050Y1205800D02*
X1239050Y1205800D01*
X1239050Y1206750D02*
X1229050Y1206750D01*
X1229050Y1207700D02*
X1239050Y1207700D01*
X1239050Y1208650D02*
X1229050Y1208650D01*
X1229050Y1209600D02*
X1239050Y1209600D01*
X1239050Y1210550D02*
X1229050Y1210550D01*
X1377150Y1075000D02*
X1387150Y1075000D01*
X1377150Y1075000D02*
X1377150Y1084000D01*
X1387150Y1084000D01*
X1387150Y1075000D01*
X1387150Y1075950D02*
X1377150Y1075950D01*
X1377150Y1076900D02*
X1387150Y1076900D01*
X1387150Y1077850D02*
X1377150Y1077850D01*
X1377150Y1078800D02*
X1387150Y1078800D01*
X1387150Y1079750D02*
X1377150Y1079750D01*
X1377150Y1080700D02*
X1387150Y1080700D01*
X1387150Y1081650D02*
X1377150Y1081650D01*
X1377150Y1082600D02*
X1387150Y1082600D01*
X1387150Y1083550D02*
X1377150Y1083550D01*
X1394150Y1075000D02*
X1404150Y1075000D01*
X1394150Y1075000D02*
X1394150Y1084000D01*
X1404150Y1084000D01*
X1404150Y1075000D01*
X1404150Y1075950D02*
X1394150Y1075950D01*
X1394150Y1076900D02*
X1404150Y1076900D01*
X1404150Y1077850D02*
X1394150Y1077850D01*
X1394150Y1078800D02*
X1404150Y1078800D01*
X1404150Y1079750D02*
X1394150Y1079750D01*
X1394150Y1080700D02*
X1404150Y1080700D01*
X1404150Y1081650D02*
X1394150Y1081650D01*
X1394150Y1082600D02*
X1404150Y1082600D01*
X1404150Y1083550D02*
X1394150Y1083550D01*
X1387150Y1202000D02*
X1377150Y1202000D01*
X1377150Y1211000D01*
X1387150Y1211000D01*
X1387150Y1202000D01*
X1387150Y1202950D02*
X1377150Y1202950D01*
X1377150Y1203900D02*
X1387150Y1203900D01*
X1387150Y1204850D02*
X1377150Y1204850D01*
X1377150Y1205800D02*
X1387150Y1205800D01*
X1387150Y1206750D02*
X1377150Y1206750D01*
X1377150Y1207700D02*
X1387150Y1207700D01*
X1387150Y1208650D02*
X1377150Y1208650D01*
X1377150Y1209600D02*
X1387150Y1209600D01*
X1387150Y1210550D02*
X1377150Y1210550D01*
X1394150Y1202000D02*
X1404150Y1202000D01*
X1394150Y1202000D02*
X1394150Y1211000D01*
X1404150Y1211000D01*
X1404150Y1202000D01*
X1404150Y1202950D02*
X1394150Y1202950D01*
X1394150Y1203900D02*
X1404150Y1203900D01*
X1404150Y1204850D02*
X1394150Y1204850D01*
X1394150Y1205800D02*
X1404150Y1205800D01*
X1404150Y1206750D02*
X1394150Y1206750D01*
X1394150Y1207700D02*
X1404150Y1207700D01*
X1404150Y1208650D02*
X1394150Y1208650D01*
X1394150Y1209600D02*
X1404150Y1209600D01*
X1404150Y1210550D02*
X1394150Y1210550D01*
X1542250Y1075000D02*
X1552250Y1075000D01*
X1542250Y1075000D02*
X1542250Y1084000D01*
X1552250Y1084000D01*
X1552250Y1075000D01*
X1552250Y1075950D02*
X1542250Y1075950D01*
X1542250Y1076900D02*
X1552250Y1076900D01*
X1552250Y1077850D02*
X1542250Y1077850D01*
X1542250Y1078800D02*
X1552250Y1078800D01*
X1552250Y1079750D02*
X1542250Y1079750D01*
X1542250Y1080700D02*
X1552250Y1080700D01*
X1552250Y1081650D02*
X1542250Y1081650D01*
X1542250Y1082600D02*
X1552250Y1082600D01*
X1552250Y1083550D02*
X1542250Y1083550D01*
X1559250Y1075000D02*
X1569250Y1075000D01*
X1559250Y1075000D02*
X1559250Y1084000D01*
X1569250Y1084000D01*
X1569250Y1075000D01*
X1569250Y1075950D02*
X1559250Y1075950D01*
X1559250Y1076900D02*
X1569250Y1076900D01*
X1569250Y1077850D02*
X1559250Y1077850D01*
X1559250Y1078800D02*
X1569250Y1078800D01*
X1569250Y1079750D02*
X1559250Y1079750D01*
X1559250Y1080700D02*
X1569250Y1080700D01*
X1569250Y1081650D02*
X1559250Y1081650D01*
X1559250Y1082600D02*
X1569250Y1082600D01*
X1569250Y1083550D02*
X1559250Y1083550D01*
X1552250Y1202000D02*
X1542250Y1202000D01*
X1542250Y1211000D01*
X1552250Y1211000D01*
X1552250Y1202000D01*
X1552250Y1202950D02*
X1542250Y1202950D01*
X1542250Y1203900D02*
X1552250Y1203900D01*
X1552250Y1204850D02*
X1542250Y1204850D01*
X1542250Y1205800D02*
X1552250Y1205800D01*
X1552250Y1206750D02*
X1542250Y1206750D01*
X1542250Y1207700D02*
X1552250Y1207700D01*
X1552250Y1208650D02*
X1542250Y1208650D01*
X1542250Y1209600D02*
X1552250Y1209600D01*
X1552250Y1210550D02*
X1542250Y1210550D01*
X1559250Y1202000D02*
X1569250Y1202000D01*
X1559250Y1202000D02*
X1559250Y1211000D01*
X1569250Y1211000D01*
X1569250Y1202000D01*
X1569250Y1202950D02*
X1559250Y1202950D01*
X1559250Y1203900D02*
X1569250Y1203900D01*
X1569250Y1204850D02*
X1559250Y1204850D01*
X1559250Y1205800D02*
X1569250Y1205800D01*
X1569250Y1206750D02*
X1559250Y1206750D01*
X1559250Y1207700D02*
X1569250Y1207700D01*
X1569250Y1208650D02*
X1559250Y1208650D01*
X1559250Y1209600D02*
X1569250Y1209600D01*
X1569250Y1210550D02*
X1559250Y1210550D01*
X66350Y1283280D02*
X56350Y1283280D01*
X56350Y1292280D01*
X66350Y1292280D01*
X66350Y1283280D01*
X66350Y1284230D02*
X56350Y1284230D01*
X56350Y1285180D02*
X66350Y1285180D01*
X66350Y1286130D02*
X56350Y1286130D01*
X56350Y1287080D02*
X66350Y1287080D01*
X66350Y1288030D02*
X56350Y1288030D01*
X56350Y1288980D02*
X66350Y1288980D01*
X66350Y1289930D02*
X56350Y1289930D01*
X56350Y1290880D02*
X66350Y1290880D01*
X66350Y1291830D02*
X56350Y1291830D01*
X73350Y1283280D02*
X83350Y1283280D01*
X73350Y1283280D02*
X73350Y1292280D01*
X83350Y1292280D01*
X83350Y1283280D01*
X83350Y1284230D02*
X73350Y1284230D01*
X73350Y1285180D02*
X83350Y1285180D01*
X83350Y1286130D02*
X73350Y1286130D01*
X73350Y1287080D02*
X83350Y1287080D01*
X83350Y1288030D02*
X73350Y1288030D01*
X73350Y1288980D02*
X83350Y1288980D01*
X83350Y1289930D02*
X73350Y1289930D01*
X73350Y1290880D02*
X83350Y1290880D01*
X83350Y1291830D02*
X73350Y1291830D01*
X66350Y1410280D02*
X56350Y1410280D01*
X56350Y1419280D01*
X66350Y1419280D01*
X66350Y1410280D01*
X66350Y1411230D02*
X56350Y1411230D01*
X56350Y1412180D02*
X66350Y1412180D01*
X66350Y1413130D02*
X56350Y1413130D01*
X56350Y1414080D02*
X66350Y1414080D01*
X66350Y1415030D02*
X56350Y1415030D01*
X56350Y1415980D02*
X66350Y1415980D01*
X66350Y1416930D02*
X56350Y1416930D01*
X56350Y1417880D02*
X66350Y1417880D01*
X66350Y1418830D02*
X56350Y1418830D01*
X73350Y1410280D02*
X83350Y1410280D01*
X73350Y1410280D02*
X73350Y1419280D01*
X83350Y1419280D01*
X83350Y1410280D01*
X83350Y1411230D02*
X73350Y1411230D01*
X73350Y1412180D02*
X83350Y1412180D01*
X83350Y1413130D02*
X73350Y1413130D01*
X73350Y1414080D02*
X83350Y1414080D01*
X83350Y1415030D02*
X73350Y1415030D01*
X73350Y1415980D02*
X83350Y1415980D01*
X83350Y1416930D02*
X73350Y1416930D01*
X73350Y1417880D02*
X83350Y1417880D01*
X83350Y1418830D02*
X73350Y1418830D01*
X221450Y1283280D02*
X231450Y1283280D01*
X221450Y1283280D02*
X221450Y1292280D01*
X231450Y1292280D01*
X231450Y1283280D01*
X231450Y1284230D02*
X221450Y1284230D01*
X221450Y1285180D02*
X231450Y1285180D01*
X231450Y1286130D02*
X221450Y1286130D01*
X221450Y1287080D02*
X231450Y1287080D01*
X231450Y1288030D02*
X221450Y1288030D01*
X221450Y1288980D02*
X231450Y1288980D01*
X231450Y1289930D02*
X221450Y1289930D01*
X221450Y1290880D02*
X231450Y1290880D01*
X231450Y1291830D02*
X221450Y1291830D01*
X238450Y1283280D02*
X248450Y1283280D01*
X238450Y1283280D02*
X238450Y1292280D01*
X248450Y1292280D01*
X248450Y1283280D01*
X248450Y1284230D02*
X238450Y1284230D01*
X238450Y1285180D02*
X248450Y1285180D01*
X248450Y1286130D02*
X238450Y1286130D01*
X238450Y1287080D02*
X248450Y1287080D01*
X248450Y1288030D02*
X238450Y1288030D01*
X238450Y1288980D02*
X248450Y1288980D01*
X248450Y1289930D02*
X238450Y1289930D01*
X238450Y1290880D02*
X248450Y1290880D01*
X248450Y1291830D02*
X238450Y1291830D01*
X231450Y1410280D02*
X221450Y1410280D01*
X221450Y1419280D01*
X231450Y1419280D01*
X231450Y1410280D01*
X231450Y1411230D02*
X221450Y1411230D01*
X221450Y1412180D02*
X231450Y1412180D01*
X231450Y1413130D02*
X221450Y1413130D01*
X221450Y1414080D02*
X231450Y1414080D01*
X231450Y1415030D02*
X221450Y1415030D01*
X221450Y1415980D02*
X231450Y1415980D01*
X231450Y1416930D02*
X221450Y1416930D01*
X221450Y1417880D02*
X231450Y1417880D01*
X231450Y1418830D02*
X221450Y1418830D01*
X238450Y1410280D02*
X248450Y1410280D01*
X238450Y1410280D02*
X238450Y1419280D01*
X248450Y1419280D01*
X248450Y1410280D01*
X248450Y1411230D02*
X238450Y1411230D01*
X238450Y1412180D02*
X248450Y1412180D01*
X248450Y1413130D02*
X238450Y1413130D01*
X238450Y1414080D02*
X248450Y1414080D01*
X248450Y1415030D02*
X238450Y1415030D01*
X238450Y1415980D02*
X248450Y1415980D01*
X248450Y1416930D02*
X238450Y1416930D01*
X238450Y1417880D02*
X248450Y1417880D01*
X248450Y1418830D02*
X238450Y1418830D01*
X386550Y1283280D02*
X396550Y1283280D01*
X386550Y1283280D02*
X386550Y1292280D01*
X396550Y1292280D01*
X396550Y1283280D01*
X396550Y1284230D02*
X386550Y1284230D01*
X386550Y1285180D02*
X396550Y1285180D01*
X396550Y1286130D02*
X386550Y1286130D01*
X386550Y1287080D02*
X396550Y1287080D01*
X396550Y1288030D02*
X386550Y1288030D01*
X386550Y1288980D02*
X396550Y1288980D01*
X396550Y1289930D02*
X386550Y1289930D01*
X386550Y1290880D02*
X396550Y1290880D01*
X396550Y1291830D02*
X386550Y1291830D01*
X403550Y1283280D02*
X413550Y1283280D01*
X403550Y1283280D02*
X403550Y1292280D01*
X413550Y1292280D01*
X413550Y1283280D01*
X413550Y1284230D02*
X403550Y1284230D01*
X403550Y1285180D02*
X413550Y1285180D01*
X413550Y1286130D02*
X403550Y1286130D01*
X403550Y1287080D02*
X413550Y1287080D01*
X413550Y1288030D02*
X403550Y1288030D01*
X403550Y1288980D02*
X413550Y1288980D01*
X413550Y1289930D02*
X403550Y1289930D01*
X403550Y1290880D02*
X413550Y1290880D01*
X413550Y1291830D02*
X403550Y1291830D01*
X396550Y1410280D02*
X386550Y1410280D01*
X386550Y1419280D01*
X396550Y1419280D01*
X396550Y1410280D01*
X396550Y1411230D02*
X386550Y1411230D01*
X386550Y1412180D02*
X396550Y1412180D01*
X396550Y1413130D02*
X386550Y1413130D01*
X386550Y1414080D02*
X396550Y1414080D01*
X396550Y1415030D02*
X386550Y1415030D01*
X386550Y1415980D02*
X396550Y1415980D01*
X396550Y1416930D02*
X386550Y1416930D01*
X386550Y1417880D02*
X396550Y1417880D01*
X396550Y1418830D02*
X386550Y1418830D01*
X403550Y1410280D02*
X413550Y1410280D01*
X403550Y1410280D02*
X403550Y1419280D01*
X413550Y1419280D01*
X413550Y1410280D01*
X413550Y1411230D02*
X403550Y1411230D01*
X403550Y1412180D02*
X413550Y1412180D01*
X413550Y1413130D02*
X403550Y1413130D01*
X403550Y1414080D02*
X413550Y1414080D01*
X413550Y1415030D02*
X403550Y1415030D01*
X403550Y1415980D02*
X413550Y1415980D01*
X413550Y1416930D02*
X403550Y1416930D01*
X403550Y1417880D02*
X413550Y1417880D01*
X413550Y1418830D02*
X403550Y1418830D01*
X551650Y1283280D02*
X561650Y1283280D01*
X551650Y1283280D02*
X551650Y1292280D01*
X561650Y1292280D01*
X561650Y1283280D01*
X561650Y1284230D02*
X551650Y1284230D01*
X551650Y1285180D02*
X561650Y1285180D01*
X561650Y1286130D02*
X551650Y1286130D01*
X551650Y1287080D02*
X561650Y1287080D01*
X561650Y1288030D02*
X551650Y1288030D01*
X551650Y1288980D02*
X561650Y1288980D01*
X561650Y1289930D02*
X551650Y1289930D01*
X551650Y1290880D02*
X561650Y1290880D01*
X561650Y1291830D02*
X551650Y1291830D01*
X568650Y1283280D02*
X578650Y1283280D01*
X568650Y1283280D02*
X568650Y1292280D01*
X578650Y1292280D01*
X578650Y1283280D01*
X578650Y1284230D02*
X568650Y1284230D01*
X568650Y1285180D02*
X578650Y1285180D01*
X578650Y1286130D02*
X568650Y1286130D01*
X568650Y1287080D02*
X578650Y1287080D01*
X578650Y1288030D02*
X568650Y1288030D01*
X568650Y1288980D02*
X578650Y1288980D01*
X578650Y1289930D02*
X568650Y1289930D01*
X568650Y1290880D02*
X578650Y1290880D01*
X578650Y1291830D02*
X568650Y1291830D01*
X561650Y1410280D02*
X551650Y1410280D01*
X551650Y1419280D01*
X561650Y1419280D01*
X561650Y1410280D01*
X561650Y1411230D02*
X551650Y1411230D01*
X551650Y1412180D02*
X561650Y1412180D01*
X561650Y1413130D02*
X551650Y1413130D01*
X551650Y1414080D02*
X561650Y1414080D01*
X561650Y1415030D02*
X551650Y1415030D01*
X551650Y1415980D02*
X561650Y1415980D01*
X561650Y1416930D02*
X551650Y1416930D01*
X551650Y1417880D02*
X561650Y1417880D01*
X561650Y1418830D02*
X551650Y1418830D01*
X568650Y1410280D02*
X578650Y1410280D01*
X568650Y1410280D02*
X568650Y1419280D01*
X578650Y1419280D01*
X578650Y1410280D01*
X578650Y1411230D02*
X568650Y1411230D01*
X568650Y1412180D02*
X578650Y1412180D01*
X578650Y1413130D02*
X568650Y1413130D01*
X568650Y1414080D02*
X578650Y1414080D01*
X578650Y1415030D02*
X568650Y1415030D01*
X568650Y1415980D02*
X578650Y1415980D01*
X578650Y1416930D02*
X568650Y1416930D01*
X568650Y1417880D02*
X578650Y1417880D01*
X578650Y1418830D02*
X568650Y1418830D01*
X716750Y1283280D02*
X726750Y1283280D01*
X716750Y1283280D02*
X716750Y1292280D01*
X726750Y1292280D01*
X726750Y1283280D01*
X726750Y1284230D02*
X716750Y1284230D01*
X716750Y1285180D02*
X726750Y1285180D01*
X726750Y1286130D02*
X716750Y1286130D01*
X716750Y1287080D02*
X726750Y1287080D01*
X726750Y1288030D02*
X716750Y1288030D01*
X716750Y1288980D02*
X726750Y1288980D01*
X726750Y1289930D02*
X716750Y1289930D01*
X716750Y1290880D02*
X726750Y1290880D01*
X726750Y1291830D02*
X716750Y1291830D01*
X733750Y1283280D02*
X743750Y1283280D01*
X733750Y1283280D02*
X733750Y1292280D01*
X743750Y1292280D01*
X743750Y1283280D01*
X743750Y1284230D02*
X733750Y1284230D01*
X733750Y1285180D02*
X743750Y1285180D01*
X743750Y1286130D02*
X733750Y1286130D01*
X733750Y1287080D02*
X743750Y1287080D01*
X743750Y1288030D02*
X733750Y1288030D01*
X733750Y1288980D02*
X743750Y1288980D01*
X743750Y1289930D02*
X733750Y1289930D01*
X733750Y1290880D02*
X743750Y1290880D01*
X743750Y1291830D02*
X733750Y1291830D01*
X726750Y1410280D02*
X716750Y1410280D01*
X716750Y1419280D01*
X726750Y1419280D01*
X726750Y1410280D01*
X726750Y1411230D02*
X716750Y1411230D01*
X716750Y1412180D02*
X726750Y1412180D01*
X726750Y1413130D02*
X716750Y1413130D01*
X716750Y1414080D02*
X726750Y1414080D01*
X726750Y1415030D02*
X716750Y1415030D01*
X716750Y1415980D02*
X726750Y1415980D01*
X726750Y1416930D02*
X716750Y1416930D01*
X716750Y1417880D02*
X726750Y1417880D01*
X726750Y1418830D02*
X716750Y1418830D01*
X733750Y1410280D02*
X743750Y1410280D01*
X733750Y1410280D02*
X733750Y1419280D01*
X743750Y1419280D01*
X743750Y1410280D01*
X743750Y1411230D02*
X733750Y1411230D01*
X733750Y1412180D02*
X743750Y1412180D01*
X743750Y1413130D02*
X733750Y1413130D01*
X733750Y1414080D02*
X743750Y1414080D01*
X743750Y1415030D02*
X733750Y1415030D01*
X733750Y1415980D02*
X743750Y1415980D01*
X743750Y1416930D02*
X733750Y1416930D01*
X733750Y1417880D02*
X743750Y1417880D01*
X743750Y1418830D02*
X733750Y1418830D01*
X881850Y1283280D02*
X891850Y1283280D01*
X881850Y1283280D02*
X881850Y1292280D01*
X891850Y1292280D01*
X891850Y1283280D01*
X891850Y1284230D02*
X881850Y1284230D01*
X881850Y1285180D02*
X891850Y1285180D01*
X891850Y1286130D02*
X881850Y1286130D01*
X881850Y1287080D02*
X891850Y1287080D01*
X891850Y1288030D02*
X881850Y1288030D01*
X881850Y1288980D02*
X891850Y1288980D01*
X891850Y1289930D02*
X881850Y1289930D01*
X881850Y1290880D02*
X891850Y1290880D01*
X891850Y1291830D02*
X881850Y1291830D01*
X898850Y1283280D02*
X908850Y1283280D01*
X898850Y1283280D02*
X898850Y1292280D01*
X908850Y1292280D01*
X908850Y1283280D01*
X908850Y1284230D02*
X898850Y1284230D01*
X898850Y1285180D02*
X908850Y1285180D01*
X908850Y1286130D02*
X898850Y1286130D01*
X898850Y1287080D02*
X908850Y1287080D01*
X908850Y1288030D02*
X898850Y1288030D01*
X898850Y1288980D02*
X908850Y1288980D01*
X908850Y1289930D02*
X898850Y1289930D01*
X898850Y1290880D02*
X908850Y1290880D01*
X908850Y1291830D02*
X898850Y1291830D01*
X891850Y1410280D02*
X881850Y1410280D01*
X881850Y1419280D01*
X891850Y1419280D01*
X891850Y1410280D01*
X891850Y1411230D02*
X881850Y1411230D01*
X881850Y1412180D02*
X891850Y1412180D01*
X891850Y1413130D02*
X881850Y1413130D01*
X881850Y1414080D02*
X891850Y1414080D01*
X891850Y1415030D02*
X881850Y1415030D01*
X881850Y1415980D02*
X891850Y1415980D01*
X891850Y1416930D02*
X881850Y1416930D01*
X881850Y1417880D02*
X891850Y1417880D01*
X891850Y1418830D02*
X881850Y1418830D01*
X898850Y1410280D02*
X908850Y1410280D01*
X898850Y1410280D02*
X898850Y1419280D01*
X908850Y1419280D01*
X908850Y1410280D01*
X908850Y1411230D02*
X898850Y1411230D01*
X898850Y1412180D02*
X908850Y1412180D01*
X908850Y1413130D02*
X898850Y1413130D01*
X898850Y1414080D02*
X908850Y1414080D01*
X908850Y1415030D02*
X898850Y1415030D01*
X898850Y1415980D02*
X908850Y1415980D01*
X908850Y1416930D02*
X898850Y1416930D01*
X898850Y1417880D02*
X908850Y1417880D01*
X908850Y1418830D02*
X898850Y1418830D01*
X1046950Y1283280D02*
X1056950Y1283280D01*
X1046950Y1283280D02*
X1046950Y1292280D01*
X1056950Y1292280D01*
X1056950Y1283280D01*
X1056950Y1284230D02*
X1046950Y1284230D01*
X1046950Y1285180D02*
X1056950Y1285180D01*
X1056950Y1286130D02*
X1046950Y1286130D01*
X1046950Y1287080D02*
X1056950Y1287080D01*
X1056950Y1288030D02*
X1046950Y1288030D01*
X1046950Y1288980D02*
X1056950Y1288980D01*
X1056950Y1289930D02*
X1046950Y1289930D01*
X1046950Y1290880D02*
X1056950Y1290880D01*
X1056950Y1291830D02*
X1046950Y1291830D01*
X1063950Y1283280D02*
X1073950Y1283280D01*
X1063950Y1283280D02*
X1063950Y1292280D01*
X1073950Y1292280D01*
X1073950Y1283280D01*
X1073950Y1284230D02*
X1063950Y1284230D01*
X1063950Y1285180D02*
X1073950Y1285180D01*
X1073950Y1286130D02*
X1063950Y1286130D01*
X1063950Y1287080D02*
X1073950Y1287080D01*
X1073950Y1288030D02*
X1063950Y1288030D01*
X1063950Y1288980D02*
X1073950Y1288980D01*
X1073950Y1289930D02*
X1063950Y1289930D01*
X1063950Y1290880D02*
X1073950Y1290880D01*
X1073950Y1291830D02*
X1063950Y1291830D01*
X1056950Y1410280D02*
X1046950Y1410280D01*
X1046950Y1419280D01*
X1056950Y1419280D01*
X1056950Y1410280D01*
X1056950Y1411230D02*
X1046950Y1411230D01*
X1046950Y1412180D02*
X1056950Y1412180D01*
X1056950Y1413130D02*
X1046950Y1413130D01*
X1046950Y1414080D02*
X1056950Y1414080D01*
X1056950Y1415030D02*
X1046950Y1415030D01*
X1046950Y1415980D02*
X1056950Y1415980D01*
X1056950Y1416930D02*
X1046950Y1416930D01*
X1046950Y1417880D02*
X1056950Y1417880D01*
X1056950Y1418830D02*
X1046950Y1418830D01*
X1063950Y1410280D02*
X1073950Y1410280D01*
X1063950Y1410280D02*
X1063950Y1419280D01*
X1073950Y1419280D01*
X1073950Y1410280D01*
X1073950Y1411230D02*
X1063950Y1411230D01*
X1063950Y1412180D02*
X1073950Y1412180D01*
X1073950Y1413130D02*
X1063950Y1413130D01*
X1063950Y1414080D02*
X1073950Y1414080D01*
X1073950Y1415030D02*
X1063950Y1415030D01*
X1063950Y1415980D02*
X1073950Y1415980D01*
X1073950Y1416930D02*
X1063950Y1416930D01*
X1063950Y1417880D02*
X1073950Y1417880D01*
X1073950Y1418830D02*
X1063950Y1418830D01*
X1212050Y1283280D02*
X1222050Y1283280D01*
X1212050Y1283280D02*
X1212050Y1292280D01*
X1222050Y1292280D01*
X1222050Y1283280D01*
X1222050Y1284230D02*
X1212050Y1284230D01*
X1212050Y1285180D02*
X1222050Y1285180D01*
X1222050Y1286130D02*
X1212050Y1286130D01*
X1212050Y1287080D02*
X1222050Y1287080D01*
X1222050Y1288030D02*
X1212050Y1288030D01*
X1212050Y1288980D02*
X1222050Y1288980D01*
X1222050Y1289930D02*
X1212050Y1289930D01*
X1212050Y1290880D02*
X1222050Y1290880D01*
X1222050Y1291830D02*
X1212050Y1291830D01*
X1229050Y1283280D02*
X1239050Y1283280D01*
X1229050Y1283280D02*
X1229050Y1292280D01*
X1239050Y1292280D01*
X1239050Y1283280D01*
X1239050Y1284230D02*
X1229050Y1284230D01*
X1229050Y1285180D02*
X1239050Y1285180D01*
X1239050Y1286130D02*
X1229050Y1286130D01*
X1229050Y1287080D02*
X1239050Y1287080D01*
X1239050Y1288030D02*
X1229050Y1288030D01*
X1229050Y1288980D02*
X1239050Y1288980D01*
X1239050Y1289930D02*
X1229050Y1289930D01*
X1229050Y1290880D02*
X1239050Y1290880D01*
X1239050Y1291830D02*
X1229050Y1291830D01*
X1222050Y1410280D02*
X1212050Y1410280D01*
X1212050Y1419280D01*
X1222050Y1419280D01*
X1222050Y1410280D01*
X1222050Y1411230D02*
X1212050Y1411230D01*
X1212050Y1412180D02*
X1222050Y1412180D01*
X1222050Y1413130D02*
X1212050Y1413130D01*
X1212050Y1414080D02*
X1222050Y1414080D01*
X1222050Y1415030D02*
X1212050Y1415030D01*
X1212050Y1415980D02*
X1222050Y1415980D01*
X1222050Y1416930D02*
X1212050Y1416930D01*
X1212050Y1417880D02*
X1222050Y1417880D01*
X1222050Y1418830D02*
X1212050Y1418830D01*
X1229050Y1410280D02*
X1239050Y1410280D01*
X1229050Y1410280D02*
X1229050Y1419280D01*
X1239050Y1419280D01*
X1239050Y1410280D01*
X1239050Y1411230D02*
X1229050Y1411230D01*
X1229050Y1412180D02*
X1239050Y1412180D01*
X1239050Y1413130D02*
X1229050Y1413130D01*
X1229050Y1414080D02*
X1239050Y1414080D01*
X1239050Y1415030D02*
X1229050Y1415030D01*
X1229050Y1415980D02*
X1239050Y1415980D01*
X1239050Y1416930D02*
X1229050Y1416930D01*
X1229050Y1417880D02*
X1239050Y1417880D01*
X1239050Y1418830D02*
X1229050Y1418830D01*
X1377150Y1283280D02*
X1387150Y1283280D01*
X1377150Y1283280D02*
X1377150Y1292280D01*
X1387150Y1292280D01*
X1387150Y1283280D01*
X1387150Y1284230D02*
X1377150Y1284230D01*
X1377150Y1285180D02*
X1387150Y1285180D01*
X1387150Y1286130D02*
X1377150Y1286130D01*
X1377150Y1287080D02*
X1387150Y1287080D01*
X1387150Y1288030D02*
X1377150Y1288030D01*
X1377150Y1288980D02*
X1387150Y1288980D01*
X1387150Y1289930D02*
X1377150Y1289930D01*
X1377150Y1290880D02*
X1387150Y1290880D01*
X1387150Y1291830D02*
X1377150Y1291830D01*
X1394150Y1283280D02*
X1404150Y1283280D01*
X1394150Y1283280D02*
X1394150Y1292280D01*
X1404150Y1292280D01*
X1404150Y1283280D01*
X1404150Y1284230D02*
X1394150Y1284230D01*
X1394150Y1285180D02*
X1404150Y1285180D01*
X1404150Y1286130D02*
X1394150Y1286130D01*
X1394150Y1287080D02*
X1404150Y1287080D01*
X1404150Y1288030D02*
X1394150Y1288030D01*
X1394150Y1288980D02*
X1404150Y1288980D01*
X1404150Y1289930D02*
X1394150Y1289930D01*
X1394150Y1290880D02*
X1404150Y1290880D01*
X1404150Y1291830D02*
X1394150Y1291830D01*
X1387150Y1410280D02*
X1377150Y1410280D01*
X1377150Y1419280D01*
X1387150Y1419280D01*
X1387150Y1410280D01*
X1387150Y1411230D02*
X1377150Y1411230D01*
X1377150Y1412180D02*
X1387150Y1412180D01*
X1387150Y1413130D02*
X1377150Y1413130D01*
X1377150Y1414080D02*
X1387150Y1414080D01*
X1387150Y1415030D02*
X1377150Y1415030D01*
X1377150Y1415980D02*
X1387150Y1415980D01*
X1387150Y1416930D02*
X1377150Y1416930D01*
X1377150Y1417880D02*
X1387150Y1417880D01*
X1387150Y1418830D02*
X1377150Y1418830D01*
X1394150Y1410280D02*
X1404150Y1410280D01*
X1394150Y1410280D02*
X1394150Y1419280D01*
X1404150Y1419280D01*
X1404150Y1410280D01*
X1404150Y1411230D02*
X1394150Y1411230D01*
X1394150Y1412180D02*
X1404150Y1412180D01*
X1404150Y1413130D02*
X1394150Y1413130D01*
X1394150Y1414080D02*
X1404150Y1414080D01*
X1404150Y1415030D02*
X1394150Y1415030D01*
X1394150Y1415980D02*
X1404150Y1415980D01*
X1404150Y1416930D02*
X1394150Y1416930D01*
X1394150Y1417880D02*
X1404150Y1417880D01*
X1404150Y1418830D02*
X1394150Y1418830D01*
X1542250Y1283280D02*
X1552250Y1283280D01*
X1542250Y1283280D02*
X1542250Y1292280D01*
X1552250Y1292280D01*
X1552250Y1283280D01*
X1552250Y1284230D02*
X1542250Y1284230D01*
X1542250Y1285180D02*
X1552250Y1285180D01*
X1552250Y1286130D02*
X1542250Y1286130D01*
X1542250Y1287080D02*
X1552250Y1287080D01*
X1552250Y1288030D02*
X1542250Y1288030D01*
X1542250Y1288980D02*
X1552250Y1288980D01*
X1552250Y1289930D02*
X1542250Y1289930D01*
X1542250Y1290880D02*
X1552250Y1290880D01*
X1552250Y1291830D02*
X1542250Y1291830D01*
X1559250Y1283280D02*
X1569250Y1283280D01*
X1559250Y1283280D02*
X1559250Y1292280D01*
X1569250Y1292280D01*
X1569250Y1283280D01*
X1569250Y1284230D02*
X1559250Y1284230D01*
X1559250Y1285180D02*
X1569250Y1285180D01*
X1569250Y1286130D02*
X1559250Y1286130D01*
X1559250Y1287080D02*
X1569250Y1287080D01*
X1569250Y1288030D02*
X1559250Y1288030D01*
X1559250Y1288980D02*
X1569250Y1288980D01*
X1569250Y1289930D02*
X1559250Y1289930D01*
X1559250Y1290880D02*
X1569250Y1290880D01*
X1569250Y1291830D02*
X1559250Y1291830D01*
X1552250Y1410280D02*
X1542250Y1410280D01*
X1542250Y1419280D01*
X1552250Y1419280D01*
X1552250Y1410280D01*
X1552250Y1411230D02*
X1542250Y1411230D01*
X1542250Y1412180D02*
X1552250Y1412180D01*
X1552250Y1413130D02*
X1542250Y1413130D01*
X1542250Y1414080D02*
X1552250Y1414080D01*
X1552250Y1415030D02*
X1542250Y1415030D01*
X1542250Y1415980D02*
X1552250Y1415980D01*
X1552250Y1416930D02*
X1542250Y1416930D01*
X1542250Y1417880D02*
X1552250Y1417880D01*
X1552250Y1418830D02*
X1542250Y1418830D01*
X1559250Y1410280D02*
X1569250Y1410280D01*
X1559250Y1410280D02*
X1559250Y1419280D01*
X1569250Y1419280D01*
X1569250Y1410280D01*
X1569250Y1411230D02*
X1559250Y1411230D01*
X1559250Y1412180D02*
X1569250Y1412180D01*
X1569250Y1413130D02*
X1559250Y1413130D01*
X1559250Y1414080D02*
X1569250Y1414080D01*
X1569250Y1415030D02*
X1559250Y1415030D01*
X1559250Y1415980D02*
X1569250Y1415980D01*
X1569250Y1416930D02*
X1559250Y1416930D01*
X1559250Y1417880D02*
X1569250Y1417880D01*
X1569250Y1418830D02*
X1559250Y1418830D01*
M02*
