G04 EAGLE Gerber RS-274X export*
G75*
%MOMM*%
%FSLAX34Y34*%
%LPD*%
%INSolderpaste Bottom*%
%IPPOS*%
%AMOC8*
5,1,8,0,0,1.08239X$1,22.5*%
G01*
%ADD10C,0.100000*%


D10*
X72700Y109800D02*
X62700Y109800D01*
X62700Y118800D01*
X72700Y118800D01*
X72700Y109800D01*
X72700Y110750D02*
X62700Y110750D01*
X62700Y111700D02*
X72700Y111700D01*
X72700Y112650D02*
X62700Y112650D01*
X62700Y113600D02*
X72700Y113600D01*
X72700Y114550D02*
X62700Y114550D01*
X62700Y115500D02*
X72700Y115500D01*
X72700Y116450D02*
X62700Y116450D01*
X62700Y117400D02*
X72700Y117400D01*
X72700Y118350D02*
X62700Y118350D01*
X79700Y109800D02*
X89700Y109800D01*
X79700Y109800D02*
X79700Y118800D01*
X89700Y118800D01*
X89700Y109800D01*
X89700Y110750D02*
X79700Y110750D01*
X79700Y111700D02*
X89700Y111700D01*
X89700Y112650D02*
X79700Y112650D01*
X79700Y113600D02*
X89700Y113600D01*
X89700Y114550D02*
X79700Y114550D01*
X79700Y115500D02*
X89700Y115500D01*
X89700Y116450D02*
X79700Y116450D01*
X79700Y117400D02*
X89700Y117400D01*
X89700Y118350D02*
X79700Y118350D01*
X72700Y135200D02*
X62700Y135200D01*
X62700Y144200D01*
X72700Y144200D01*
X72700Y135200D01*
X72700Y136150D02*
X62700Y136150D01*
X62700Y137100D02*
X72700Y137100D01*
X72700Y138050D02*
X62700Y138050D01*
X62700Y139000D02*
X72700Y139000D01*
X72700Y139950D02*
X62700Y139950D01*
X62700Y140900D02*
X72700Y140900D01*
X72700Y141850D02*
X62700Y141850D01*
X62700Y142800D02*
X72700Y142800D01*
X72700Y143750D02*
X62700Y143750D01*
X79700Y135200D02*
X89700Y135200D01*
X79700Y135200D02*
X79700Y144200D01*
X89700Y144200D01*
X89700Y135200D01*
X89700Y136150D02*
X79700Y136150D01*
X79700Y137100D02*
X89700Y137100D01*
X89700Y138050D02*
X79700Y138050D01*
X79700Y139000D02*
X89700Y139000D01*
X89700Y139950D02*
X79700Y139950D01*
X79700Y140900D02*
X89700Y140900D01*
X89700Y141850D02*
X79700Y141850D01*
X79700Y142800D02*
X89700Y142800D01*
X89700Y143750D02*
X79700Y143750D01*
X182080Y109800D02*
X192080Y109800D01*
X182080Y109800D02*
X182080Y118800D01*
X192080Y118800D01*
X192080Y109800D01*
X192080Y110750D02*
X182080Y110750D01*
X182080Y111700D02*
X192080Y111700D01*
X192080Y112650D02*
X182080Y112650D01*
X182080Y113600D02*
X192080Y113600D01*
X192080Y114550D02*
X182080Y114550D01*
X182080Y115500D02*
X192080Y115500D01*
X192080Y116450D02*
X182080Y116450D01*
X182080Y117400D02*
X192080Y117400D01*
X192080Y118350D02*
X182080Y118350D01*
X199080Y109800D02*
X209080Y109800D01*
X199080Y109800D02*
X199080Y118800D01*
X209080Y118800D01*
X209080Y109800D01*
X209080Y110750D02*
X199080Y110750D01*
X199080Y111700D02*
X209080Y111700D01*
X209080Y112650D02*
X199080Y112650D01*
X199080Y113600D02*
X209080Y113600D01*
X209080Y114550D02*
X199080Y114550D01*
X199080Y115500D02*
X209080Y115500D01*
X209080Y116450D02*
X199080Y116450D01*
X199080Y117400D02*
X209080Y117400D01*
X209080Y118350D02*
X199080Y118350D01*
X192080Y135200D02*
X182080Y135200D01*
X182080Y144200D01*
X192080Y144200D01*
X192080Y135200D01*
X192080Y136150D02*
X182080Y136150D01*
X182080Y137100D02*
X192080Y137100D01*
X192080Y138050D02*
X182080Y138050D01*
X182080Y139000D02*
X192080Y139000D01*
X192080Y139950D02*
X182080Y139950D01*
X182080Y140900D02*
X192080Y140900D01*
X192080Y141850D02*
X182080Y141850D01*
X182080Y142800D02*
X192080Y142800D01*
X192080Y143750D02*
X182080Y143750D01*
X199080Y135200D02*
X209080Y135200D01*
X199080Y135200D02*
X199080Y144200D01*
X209080Y144200D01*
X209080Y135200D01*
X209080Y136150D02*
X199080Y136150D01*
X199080Y137100D02*
X209080Y137100D01*
X209080Y138050D02*
X199080Y138050D01*
X199080Y139000D02*
X209080Y139000D01*
X209080Y139950D02*
X199080Y139950D01*
X199080Y140900D02*
X209080Y140900D01*
X209080Y141850D02*
X199080Y141850D01*
X199080Y142800D02*
X209080Y142800D01*
X209080Y143750D02*
X199080Y143750D01*
X301460Y109800D02*
X311460Y109800D01*
X301460Y109800D02*
X301460Y118800D01*
X311460Y118800D01*
X311460Y109800D01*
X311460Y110750D02*
X301460Y110750D01*
X301460Y111700D02*
X311460Y111700D01*
X311460Y112650D02*
X301460Y112650D01*
X301460Y113600D02*
X311460Y113600D01*
X311460Y114550D02*
X301460Y114550D01*
X301460Y115500D02*
X311460Y115500D01*
X311460Y116450D02*
X301460Y116450D01*
X301460Y117400D02*
X311460Y117400D01*
X311460Y118350D02*
X301460Y118350D01*
X318460Y109800D02*
X328460Y109800D01*
X318460Y109800D02*
X318460Y118800D01*
X328460Y118800D01*
X328460Y109800D01*
X328460Y110750D02*
X318460Y110750D01*
X318460Y111700D02*
X328460Y111700D01*
X328460Y112650D02*
X318460Y112650D01*
X318460Y113600D02*
X328460Y113600D01*
X328460Y114550D02*
X318460Y114550D01*
X318460Y115500D02*
X328460Y115500D01*
X328460Y116450D02*
X318460Y116450D01*
X318460Y117400D02*
X328460Y117400D01*
X328460Y118350D02*
X318460Y118350D01*
X311460Y135200D02*
X301460Y135200D01*
X301460Y144200D01*
X311460Y144200D01*
X311460Y135200D01*
X311460Y136150D02*
X301460Y136150D01*
X301460Y137100D02*
X311460Y137100D01*
X311460Y138050D02*
X301460Y138050D01*
X301460Y139000D02*
X311460Y139000D01*
X311460Y139950D02*
X301460Y139950D01*
X301460Y140900D02*
X311460Y140900D01*
X311460Y141850D02*
X301460Y141850D01*
X301460Y142800D02*
X311460Y142800D01*
X311460Y143750D02*
X301460Y143750D01*
X318460Y135200D02*
X328460Y135200D01*
X318460Y135200D02*
X318460Y144200D01*
X328460Y144200D01*
X328460Y135200D01*
X328460Y136150D02*
X318460Y136150D01*
X318460Y137100D02*
X328460Y137100D01*
X328460Y138050D02*
X318460Y138050D01*
X318460Y139000D02*
X328460Y139000D01*
X328460Y139950D02*
X318460Y139950D01*
X318460Y140900D02*
X328460Y140900D01*
X328460Y141850D02*
X318460Y141850D01*
X318460Y142800D02*
X328460Y142800D01*
X328460Y143750D02*
X318460Y143750D01*
X420840Y109800D02*
X430840Y109800D01*
X420840Y109800D02*
X420840Y118800D01*
X430840Y118800D01*
X430840Y109800D01*
X430840Y110750D02*
X420840Y110750D01*
X420840Y111700D02*
X430840Y111700D01*
X430840Y112650D02*
X420840Y112650D01*
X420840Y113600D02*
X430840Y113600D01*
X430840Y114550D02*
X420840Y114550D01*
X420840Y115500D02*
X430840Y115500D01*
X430840Y116450D02*
X420840Y116450D01*
X420840Y117400D02*
X430840Y117400D01*
X430840Y118350D02*
X420840Y118350D01*
X437840Y109800D02*
X447840Y109800D01*
X437840Y109800D02*
X437840Y118800D01*
X447840Y118800D01*
X447840Y109800D01*
X447840Y110750D02*
X437840Y110750D01*
X437840Y111700D02*
X447840Y111700D01*
X447840Y112650D02*
X437840Y112650D01*
X437840Y113600D02*
X447840Y113600D01*
X447840Y114550D02*
X437840Y114550D01*
X437840Y115500D02*
X447840Y115500D01*
X447840Y116450D02*
X437840Y116450D01*
X437840Y117400D02*
X447840Y117400D01*
X447840Y118350D02*
X437840Y118350D01*
X430840Y135200D02*
X420840Y135200D01*
X420840Y144200D01*
X430840Y144200D01*
X430840Y135200D01*
X430840Y136150D02*
X420840Y136150D01*
X420840Y137100D02*
X430840Y137100D01*
X430840Y138050D02*
X420840Y138050D01*
X420840Y139000D02*
X430840Y139000D01*
X430840Y139950D02*
X420840Y139950D01*
X420840Y140900D02*
X430840Y140900D01*
X430840Y141850D02*
X420840Y141850D01*
X420840Y142800D02*
X430840Y142800D01*
X430840Y143750D02*
X420840Y143750D01*
X437840Y135200D02*
X447840Y135200D01*
X437840Y135200D02*
X437840Y144200D01*
X447840Y144200D01*
X447840Y135200D01*
X447840Y136150D02*
X437840Y136150D01*
X437840Y137100D02*
X447840Y137100D01*
X447840Y138050D02*
X437840Y138050D01*
X437840Y139000D02*
X447840Y139000D01*
X447840Y139950D02*
X437840Y139950D01*
X437840Y140900D02*
X447840Y140900D01*
X447840Y141850D02*
X437840Y141850D01*
X437840Y142800D02*
X447840Y142800D01*
X447840Y143750D02*
X437840Y143750D01*
X540220Y109800D02*
X550220Y109800D01*
X540220Y109800D02*
X540220Y118800D01*
X550220Y118800D01*
X550220Y109800D01*
X550220Y110750D02*
X540220Y110750D01*
X540220Y111700D02*
X550220Y111700D01*
X550220Y112650D02*
X540220Y112650D01*
X540220Y113600D02*
X550220Y113600D01*
X550220Y114550D02*
X540220Y114550D01*
X540220Y115500D02*
X550220Y115500D01*
X550220Y116450D02*
X540220Y116450D01*
X540220Y117400D02*
X550220Y117400D01*
X550220Y118350D02*
X540220Y118350D01*
X557220Y109800D02*
X567220Y109800D01*
X557220Y109800D02*
X557220Y118800D01*
X567220Y118800D01*
X567220Y109800D01*
X567220Y110750D02*
X557220Y110750D01*
X557220Y111700D02*
X567220Y111700D01*
X567220Y112650D02*
X557220Y112650D01*
X557220Y113600D02*
X567220Y113600D01*
X567220Y114550D02*
X557220Y114550D01*
X557220Y115500D02*
X567220Y115500D01*
X567220Y116450D02*
X557220Y116450D01*
X557220Y117400D02*
X567220Y117400D01*
X567220Y118350D02*
X557220Y118350D01*
X550220Y135200D02*
X540220Y135200D01*
X540220Y144200D01*
X550220Y144200D01*
X550220Y135200D01*
X550220Y136150D02*
X540220Y136150D01*
X540220Y137100D02*
X550220Y137100D01*
X550220Y138050D02*
X540220Y138050D01*
X540220Y139000D02*
X550220Y139000D01*
X550220Y139950D02*
X540220Y139950D01*
X540220Y140900D02*
X550220Y140900D01*
X550220Y141850D02*
X540220Y141850D01*
X540220Y142800D02*
X550220Y142800D01*
X550220Y143750D02*
X540220Y143750D01*
X557220Y135200D02*
X567220Y135200D01*
X557220Y135200D02*
X557220Y144200D01*
X567220Y144200D01*
X567220Y135200D01*
X567220Y136150D02*
X557220Y136150D01*
X557220Y137100D02*
X567220Y137100D01*
X567220Y138050D02*
X557220Y138050D01*
X557220Y139000D02*
X567220Y139000D01*
X567220Y139950D02*
X557220Y139950D01*
X557220Y140900D02*
X567220Y140900D01*
X567220Y141850D02*
X557220Y141850D01*
X557220Y142800D02*
X567220Y142800D01*
X567220Y143750D02*
X557220Y143750D01*
X659600Y109800D02*
X669600Y109800D01*
X659600Y109800D02*
X659600Y118800D01*
X669600Y118800D01*
X669600Y109800D01*
X669600Y110750D02*
X659600Y110750D01*
X659600Y111700D02*
X669600Y111700D01*
X669600Y112650D02*
X659600Y112650D01*
X659600Y113600D02*
X669600Y113600D01*
X669600Y114550D02*
X659600Y114550D01*
X659600Y115500D02*
X669600Y115500D01*
X669600Y116450D02*
X659600Y116450D01*
X659600Y117400D02*
X669600Y117400D01*
X669600Y118350D02*
X659600Y118350D01*
X676600Y109800D02*
X686600Y109800D01*
X676600Y109800D02*
X676600Y118800D01*
X686600Y118800D01*
X686600Y109800D01*
X686600Y110750D02*
X676600Y110750D01*
X676600Y111700D02*
X686600Y111700D01*
X686600Y112650D02*
X676600Y112650D01*
X676600Y113600D02*
X686600Y113600D01*
X686600Y114550D02*
X676600Y114550D01*
X676600Y115500D02*
X686600Y115500D01*
X686600Y116450D02*
X676600Y116450D01*
X676600Y117400D02*
X686600Y117400D01*
X686600Y118350D02*
X676600Y118350D01*
X669600Y135200D02*
X659600Y135200D01*
X659600Y144200D01*
X669600Y144200D01*
X669600Y135200D01*
X669600Y136150D02*
X659600Y136150D01*
X659600Y137100D02*
X669600Y137100D01*
X669600Y138050D02*
X659600Y138050D01*
X659600Y139000D02*
X669600Y139000D01*
X669600Y139950D02*
X659600Y139950D01*
X659600Y140900D02*
X669600Y140900D01*
X669600Y141850D02*
X659600Y141850D01*
X659600Y142800D02*
X669600Y142800D01*
X669600Y143750D02*
X659600Y143750D01*
X676600Y135200D02*
X686600Y135200D01*
X676600Y135200D02*
X676600Y144200D01*
X686600Y144200D01*
X686600Y135200D01*
X686600Y136150D02*
X676600Y136150D01*
X676600Y137100D02*
X686600Y137100D01*
X686600Y138050D02*
X676600Y138050D01*
X676600Y139000D02*
X686600Y139000D01*
X686600Y139950D02*
X676600Y139950D01*
X676600Y140900D02*
X686600Y140900D01*
X686600Y141850D02*
X676600Y141850D01*
X676600Y142800D02*
X686600Y142800D01*
X686600Y143750D02*
X676600Y143750D01*
X778980Y109800D02*
X788980Y109800D01*
X778980Y109800D02*
X778980Y118800D01*
X788980Y118800D01*
X788980Y109800D01*
X788980Y110750D02*
X778980Y110750D01*
X778980Y111700D02*
X788980Y111700D01*
X788980Y112650D02*
X778980Y112650D01*
X778980Y113600D02*
X788980Y113600D01*
X788980Y114550D02*
X778980Y114550D01*
X778980Y115500D02*
X788980Y115500D01*
X788980Y116450D02*
X778980Y116450D01*
X778980Y117400D02*
X788980Y117400D01*
X788980Y118350D02*
X778980Y118350D01*
X795980Y109800D02*
X805980Y109800D01*
X795980Y109800D02*
X795980Y118800D01*
X805980Y118800D01*
X805980Y109800D01*
X805980Y110750D02*
X795980Y110750D01*
X795980Y111700D02*
X805980Y111700D01*
X805980Y112650D02*
X795980Y112650D01*
X795980Y113600D02*
X805980Y113600D01*
X805980Y114550D02*
X795980Y114550D01*
X795980Y115500D02*
X805980Y115500D01*
X805980Y116450D02*
X795980Y116450D01*
X795980Y117400D02*
X805980Y117400D01*
X805980Y118350D02*
X795980Y118350D01*
X788980Y135200D02*
X778980Y135200D01*
X778980Y144200D01*
X788980Y144200D01*
X788980Y135200D01*
X788980Y136150D02*
X778980Y136150D01*
X778980Y137100D02*
X788980Y137100D01*
X788980Y138050D02*
X778980Y138050D01*
X778980Y139000D02*
X788980Y139000D01*
X788980Y139950D02*
X778980Y139950D01*
X778980Y140900D02*
X788980Y140900D01*
X788980Y141850D02*
X778980Y141850D01*
X778980Y142800D02*
X788980Y142800D01*
X788980Y143750D02*
X778980Y143750D01*
X795980Y135200D02*
X805980Y135200D01*
X795980Y135200D02*
X795980Y144200D01*
X805980Y144200D01*
X805980Y135200D01*
X805980Y136150D02*
X795980Y136150D01*
X795980Y137100D02*
X805980Y137100D01*
X805980Y138050D02*
X795980Y138050D01*
X795980Y139000D02*
X805980Y139000D01*
X805980Y139950D02*
X795980Y139950D01*
X795980Y140900D02*
X805980Y140900D01*
X805980Y141850D02*
X795980Y141850D01*
X795980Y142800D02*
X805980Y142800D01*
X805980Y143750D02*
X795980Y143750D01*
X898360Y109800D02*
X908360Y109800D01*
X898360Y109800D02*
X898360Y118800D01*
X908360Y118800D01*
X908360Y109800D01*
X908360Y110750D02*
X898360Y110750D01*
X898360Y111700D02*
X908360Y111700D01*
X908360Y112650D02*
X898360Y112650D01*
X898360Y113600D02*
X908360Y113600D01*
X908360Y114550D02*
X898360Y114550D01*
X898360Y115500D02*
X908360Y115500D01*
X908360Y116450D02*
X898360Y116450D01*
X898360Y117400D02*
X908360Y117400D01*
X908360Y118350D02*
X898360Y118350D01*
X915360Y109800D02*
X925360Y109800D01*
X915360Y109800D02*
X915360Y118800D01*
X925360Y118800D01*
X925360Y109800D01*
X925360Y110750D02*
X915360Y110750D01*
X915360Y111700D02*
X925360Y111700D01*
X925360Y112650D02*
X915360Y112650D01*
X915360Y113600D02*
X925360Y113600D01*
X925360Y114550D02*
X915360Y114550D01*
X915360Y115500D02*
X925360Y115500D01*
X925360Y116450D02*
X915360Y116450D01*
X915360Y117400D02*
X925360Y117400D01*
X925360Y118350D02*
X915360Y118350D01*
X908360Y135200D02*
X898360Y135200D01*
X898360Y144200D01*
X908360Y144200D01*
X908360Y135200D01*
X908360Y136150D02*
X898360Y136150D01*
X898360Y137100D02*
X908360Y137100D01*
X908360Y138050D02*
X898360Y138050D01*
X898360Y139000D02*
X908360Y139000D01*
X908360Y139950D02*
X898360Y139950D01*
X898360Y140900D02*
X908360Y140900D01*
X908360Y141850D02*
X898360Y141850D01*
X898360Y142800D02*
X908360Y142800D01*
X908360Y143750D02*
X898360Y143750D01*
X915360Y135200D02*
X925360Y135200D01*
X915360Y135200D02*
X915360Y144200D01*
X925360Y144200D01*
X925360Y135200D01*
X925360Y136150D02*
X915360Y136150D01*
X915360Y137100D02*
X925360Y137100D01*
X925360Y138050D02*
X915360Y138050D01*
X915360Y139000D02*
X925360Y139000D01*
X925360Y139950D02*
X915360Y139950D01*
X915360Y140900D02*
X925360Y140900D01*
X925360Y141850D02*
X915360Y141850D01*
X915360Y142800D02*
X925360Y142800D01*
X925360Y143750D02*
X915360Y143750D01*
X72700Y318080D02*
X62700Y318080D01*
X62700Y327080D01*
X72700Y327080D01*
X72700Y318080D01*
X72700Y319030D02*
X62700Y319030D01*
X62700Y319980D02*
X72700Y319980D01*
X72700Y320930D02*
X62700Y320930D01*
X62700Y321880D02*
X72700Y321880D01*
X72700Y322830D02*
X62700Y322830D01*
X62700Y323780D02*
X72700Y323780D01*
X72700Y324730D02*
X62700Y324730D01*
X62700Y325680D02*
X72700Y325680D01*
X72700Y326630D02*
X62700Y326630D01*
X79700Y318080D02*
X89700Y318080D01*
X79700Y318080D02*
X79700Y327080D01*
X89700Y327080D01*
X89700Y318080D01*
X89700Y319030D02*
X79700Y319030D01*
X79700Y319980D02*
X89700Y319980D01*
X89700Y320930D02*
X79700Y320930D01*
X79700Y321880D02*
X89700Y321880D01*
X89700Y322830D02*
X79700Y322830D01*
X79700Y323780D02*
X89700Y323780D01*
X89700Y324730D02*
X79700Y324730D01*
X79700Y325680D02*
X89700Y325680D01*
X89700Y326630D02*
X79700Y326630D01*
X72700Y343480D02*
X62700Y343480D01*
X62700Y352480D01*
X72700Y352480D01*
X72700Y343480D01*
X72700Y344430D02*
X62700Y344430D01*
X62700Y345380D02*
X72700Y345380D01*
X72700Y346330D02*
X62700Y346330D01*
X62700Y347280D02*
X72700Y347280D01*
X72700Y348230D02*
X62700Y348230D01*
X62700Y349180D02*
X72700Y349180D01*
X72700Y350130D02*
X62700Y350130D01*
X62700Y351080D02*
X72700Y351080D01*
X72700Y352030D02*
X62700Y352030D01*
X79700Y343480D02*
X89700Y343480D01*
X79700Y343480D02*
X79700Y352480D01*
X89700Y352480D01*
X89700Y343480D01*
X89700Y344430D02*
X79700Y344430D01*
X79700Y345380D02*
X89700Y345380D01*
X89700Y346330D02*
X79700Y346330D01*
X79700Y347280D02*
X89700Y347280D01*
X89700Y348230D02*
X79700Y348230D01*
X79700Y349180D02*
X89700Y349180D01*
X89700Y350130D02*
X79700Y350130D01*
X79700Y351080D02*
X89700Y351080D01*
X89700Y352030D02*
X79700Y352030D01*
X182080Y318080D02*
X192080Y318080D01*
X182080Y318080D02*
X182080Y327080D01*
X192080Y327080D01*
X192080Y318080D01*
X192080Y319030D02*
X182080Y319030D01*
X182080Y319980D02*
X192080Y319980D01*
X192080Y320930D02*
X182080Y320930D01*
X182080Y321880D02*
X192080Y321880D01*
X192080Y322830D02*
X182080Y322830D01*
X182080Y323780D02*
X192080Y323780D01*
X192080Y324730D02*
X182080Y324730D01*
X182080Y325680D02*
X192080Y325680D01*
X192080Y326630D02*
X182080Y326630D01*
X199080Y318080D02*
X209080Y318080D01*
X199080Y318080D02*
X199080Y327080D01*
X209080Y327080D01*
X209080Y318080D01*
X209080Y319030D02*
X199080Y319030D01*
X199080Y319980D02*
X209080Y319980D01*
X209080Y320930D02*
X199080Y320930D01*
X199080Y321880D02*
X209080Y321880D01*
X209080Y322830D02*
X199080Y322830D01*
X199080Y323780D02*
X209080Y323780D01*
X209080Y324730D02*
X199080Y324730D01*
X199080Y325680D02*
X209080Y325680D01*
X209080Y326630D02*
X199080Y326630D01*
X192080Y343480D02*
X182080Y343480D01*
X182080Y352480D01*
X192080Y352480D01*
X192080Y343480D01*
X192080Y344430D02*
X182080Y344430D01*
X182080Y345380D02*
X192080Y345380D01*
X192080Y346330D02*
X182080Y346330D01*
X182080Y347280D02*
X192080Y347280D01*
X192080Y348230D02*
X182080Y348230D01*
X182080Y349180D02*
X192080Y349180D01*
X192080Y350130D02*
X182080Y350130D01*
X182080Y351080D02*
X192080Y351080D01*
X192080Y352030D02*
X182080Y352030D01*
X199080Y343480D02*
X209080Y343480D01*
X199080Y343480D02*
X199080Y352480D01*
X209080Y352480D01*
X209080Y343480D01*
X209080Y344430D02*
X199080Y344430D01*
X199080Y345380D02*
X209080Y345380D01*
X209080Y346330D02*
X199080Y346330D01*
X199080Y347280D02*
X209080Y347280D01*
X209080Y348230D02*
X199080Y348230D01*
X199080Y349180D02*
X209080Y349180D01*
X209080Y350130D02*
X199080Y350130D01*
X199080Y351080D02*
X209080Y351080D01*
X209080Y352030D02*
X199080Y352030D01*
X301460Y318080D02*
X311460Y318080D01*
X301460Y318080D02*
X301460Y327080D01*
X311460Y327080D01*
X311460Y318080D01*
X311460Y319030D02*
X301460Y319030D01*
X301460Y319980D02*
X311460Y319980D01*
X311460Y320930D02*
X301460Y320930D01*
X301460Y321880D02*
X311460Y321880D01*
X311460Y322830D02*
X301460Y322830D01*
X301460Y323780D02*
X311460Y323780D01*
X311460Y324730D02*
X301460Y324730D01*
X301460Y325680D02*
X311460Y325680D01*
X311460Y326630D02*
X301460Y326630D01*
X318460Y318080D02*
X328460Y318080D01*
X318460Y318080D02*
X318460Y327080D01*
X328460Y327080D01*
X328460Y318080D01*
X328460Y319030D02*
X318460Y319030D01*
X318460Y319980D02*
X328460Y319980D01*
X328460Y320930D02*
X318460Y320930D01*
X318460Y321880D02*
X328460Y321880D01*
X328460Y322830D02*
X318460Y322830D01*
X318460Y323780D02*
X328460Y323780D01*
X328460Y324730D02*
X318460Y324730D01*
X318460Y325680D02*
X328460Y325680D01*
X328460Y326630D02*
X318460Y326630D01*
X311460Y343480D02*
X301460Y343480D01*
X301460Y352480D01*
X311460Y352480D01*
X311460Y343480D01*
X311460Y344430D02*
X301460Y344430D01*
X301460Y345380D02*
X311460Y345380D01*
X311460Y346330D02*
X301460Y346330D01*
X301460Y347280D02*
X311460Y347280D01*
X311460Y348230D02*
X301460Y348230D01*
X301460Y349180D02*
X311460Y349180D01*
X311460Y350130D02*
X301460Y350130D01*
X301460Y351080D02*
X311460Y351080D01*
X311460Y352030D02*
X301460Y352030D01*
X318460Y343480D02*
X328460Y343480D01*
X318460Y343480D02*
X318460Y352480D01*
X328460Y352480D01*
X328460Y343480D01*
X328460Y344430D02*
X318460Y344430D01*
X318460Y345380D02*
X328460Y345380D01*
X328460Y346330D02*
X318460Y346330D01*
X318460Y347280D02*
X328460Y347280D01*
X328460Y348230D02*
X318460Y348230D01*
X318460Y349180D02*
X328460Y349180D01*
X328460Y350130D02*
X318460Y350130D01*
X318460Y351080D02*
X328460Y351080D01*
X328460Y352030D02*
X318460Y352030D01*
X420840Y318080D02*
X430840Y318080D01*
X420840Y318080D02*
X420840Y327080D01*
X430840Y327080D01*
X430840Y318080D01*
X430840Y319030D02*
X420840Y319030D01*
X420840Y319980D02*
X430840Y319980D01*
X430840Y320930D02*
X420840Y320930D01*
X420840Y321880D02*
X430840Y321880D01*
X430840Y322830D02*
X420840Y322830D01*
X420840Y323780D02*
X430840Y323780D01*
X430840Y324730D02*
X420840Y324730D01*
X420840Y325680D02*
X430840Y325680D01*
X430840Y326630D02*
X420840Y326630D01*
X437840Y318080D02*
X447840Y318080D01*
X437840Y318080D02*
X437840Y327080D01*
X447840Y327080D01*
X447840Y318080D01*
X447840Y319030D02*
X437840Y319030D01*
X437840Y319980D02*
X447840Y319980D01*
X447840Y320930D02*
X437840Y320930D01*
X437840Y321880D02*
X447840Y321880D01*
X447840Y322830D02*
X437840Y322830D01*
X437840Y323780D02*
X447840Y323780D01*
X447840Y324730D02*
X437840Y324730D01*
X437840Y325680D02*
X447840Y325680D01*
X447840Y326630D02*
X437840Y326630D01*
X430840Y343480D02*
X420840Y343480D01*
X420840Y352480D01*
X430840Y352480D01*
X430840Y343480D01*
X430840Y344430D02*
X420840Y344430D01*
X420840Y345380D02*
X430840Y345380D01*
X430840Y346330D02*
X420840Y346330D01*
X420840Y347280D02*
X430840Y347280D01*
X430840Y348230D02*
X420840Y348230D01*
X420840Y349180D02*
X430840Y349180D01*
X430840Y350130D02*
X420840Y350130D01*
X420840Y351080D02*
X430840Y351080D01*
X430840Y352030D02*
X420840Y352030D01*
X437840Y343480D02*
X447840Y343480D01*
X437840Y343480D02*
X437840Y352480D01*
X447840Y352480D01*
X447840Y343480D01*
X447840Y344430D02*
X437840Y344430D01*
X437840Y345380D02*
X447840Y345380D01*
X447840Y346330D02*
X437840Y346330D01*
X437840Y347280D02*
X447840Y347280D01*
X447840Y348230D02*
X437840Y348230D01*
X437840Y349180D02*
X447840Y349180D01*
X447840Y350130D02*
X437840Y350130D01*
X437840Y351080D02*
X447840Y351080D01*
X447840Y352030D02*
X437840Y352030D01*
X540220Y318080D02*
X550220Y318080D01*
X540220Y318080D02*
X540220Y327080D01*
X550220Y327080D01*
X550220Y318080D01*
X550220Y319030D02*
X540220Y319030D01*
X540220Y319980D02*
X550220Y319980D01*
X550220Y320930D02*
X540220Y320930D01*
X540220Y321880D02*
X550220Y321880D01*
X550220Y322830D02*
X540220Y322830D01*
X540220Y323780D02*
X550220Y323780D01*
X550220Y324730D02*
X540220Y324730D01*
X540220Y325680D02*
X550220Y325680D01*
X550220Y326630D02*
X540220Y326630D01*
X557220Y318080D02*
X567220Y318080D01*
X557220Y318080D02*
X557220Y327080D01*
X567220Y327080D01*
X567220Y318080D01*
X567220Y319030D02*
X557220Y319030D01*
X557220Y319980D02*
X567220Y319980D01*
X567220Y320930D02*
X557220Y320930D01*
X557220Y321880D02*
X567220Y321880D01*
X567220Y322830D02*
X557220Y322830D01*
X557220Y323780D02*
X567220Y323780D01*
X567220Y324730D02*
X557220Y324730D01*
X557220Y325680D02*
X567220Y325680D01*
X567220Y326630D02*
X557220Y326630D01*
X550220Y343480D02*
X540220Y343480D01*
X540220Y352480D01*
X550220Y352480D01*
X550220Y343480D01*
X550220Y344430D02*
X540220Y344430D01*
X540220Y345380D02*
X550220Y345380D01*
X550220Y346330D02*
X540220Y346330D01*
X540220Y347280D02*
X550220Y347280D01*
X550220Y348230D02*
X540220Y348230D01*
X540220Y349180D02*
X550220Y349180D01*
X550220Y350130D02*
X540220Y350130D01*
X540220Y351080D02*
X550220Y351080D01*
X550220Y352030D02*
X540220Y352030D01*
X557220Y343480D02*
X567220Y343480D01*
X557220Y343480D02*
X557220Y352480D01*
X567220Y352480D01*
X567220Y343480D01*
X567220Y344430D02*
X557220Y344430D01*
X557220Y345380D02*
X567220Y345380D01*
X567220Y346330D02*
X557220Y346330D01*
X557220Y347280D02*
X567220Y347280D01*
X567220Y348230D02*
X557220Y348230D01*
X557220Y349180D02*
X567220Y349180D01*
X567220Y350130D02*
X557220Y350130D01*
X557220Y351080D02*
X567220Y351080D01*
X567220Y352030D02*
X557220Y352030D01*
X659600Y318080D02*
X669600Y318080D01*
X659600Y318080D02*
X659600Y327080D01*
X669600Y327080D01*
X669600Y318080D01*
X669600Y319030D02*
X659600Y319030D01*
X659600Y319980D02*
X669600Y319980D01*
X669600Y320930D02*
X659600Y320930D01*
X659600Y321880D02*
X669600Y321880D01*
X669600Y322830D02*
X659600Y322830D01*
X659600Y323780D02*
X669600Y323780D01*
X669600Y324730D02*
X659600Y324730D01*
X659600Y325680D02*
X669600Y325680D01*
X669600Y326630D02*
X659600Y326630D01*
X676600Y318080D02*
X686600Y318080D01*
X676600Y318080D02*
X676600Y327080D01*
X686600Y327080D01*
X686600Y318080D01*
X686600Y319030D02*
X676600Y319030D01*
X676600Y319980D02*
X686600Y319980D01*
X686600Y320930D02*
X676600Y320930D01*
X676600Y321880D02*
X686600Y321880D01*
X686600Y322830D02*
X676600Y322830D01*
X676600Y323780D02*
X686600Y323780D01*
X686600Y324730D02*
X676600Y324730D01*
X676600Y325680D02*
X686600Y325680D01*
X686600Y326630D02*
X676600Y326630D01*
X669600Y343480D02*
X659600Y343480D01*
X659600Y352480D01*
X669600Y352480D01*
X669600Y343480D01*
X669600Y344430D02*
X659600Y344430D01*
X659600Y345380D02*
X669600Y345380D01*
X669600Y346330D02*
X659600Y346330D01*
X659600Y347280D02*
X669600Y347280D01*
X669600Y348230D02*
X659600Y348230D01*
X659600Y349180D02*
X669600Y349180D01*
X669600Y350130D02*
X659600Y350130D01*
X659600Y351080D02*
X669600Y351080D01*
X669600Y352030D02*
X659600Y352030D01*
X676600Y343480D02*
X686600Y343480D01*
X676600Y343480D02*
X676600Y352480D01*
X686600Y352480D01*
X686600Y343480D01*
X686600Y344430D02*
X676600Y344430D01*
X676600Y345380D02*
X686600Y345380D01*
X686600Y346330D02*
X676600Y346330D01*
X676600Y347280D02*
X686600Y347280D01*
X686600Y348230D02*
X676600Y348230D01*
X676600Y349180D02*
X686600Y349180D01*
X686600Y350130D02*
X676600Y350130D01*
X676600Y351080D02*
X686600Y351080D01*
X686600Y352030D02*
X676600Y352030D01*
X778980Y318080D02*
X788980Y318080D01*
X778980Y318080D02*
X778980Y327080D01*
X788980Y327080D01*
X788980Y318080D01*
X788980Y319030D02*
X778980Y319030D01*
X778980Y319980D02*
X788980Y319980D01*
X788980Y320930D02*
X778980Y320930D01*
X778980Y321880D02*
X788980Y321880D01*
X788980Y322830D02*
X778980Y322830D01*
X778980Y323780D02*
X788980Y323780D01*
X788980Y324730D02*
X778980Y324730D01*
X778980Y325680D02*
X788980Y325680D01*
X788980Y326630D02*
X778980Y326630D01*
X795980Y318080D02*
X805980Y318080D01*
X795980Y318080D02*
X795980Y327080D01*
X805980Y327080D01*
X805980Y318080D01*
X805980Y319030D02*
X795980Y319030D01*
X795980Y319980D02*
X805980Y319980D01*
X805980Y320930D02*
X795980Y320930D01*
X795980Y321880D02*
X805980Y321880D01*
X805980Y322830D02*
X795980Y322830D01*
X795980Y323780D02*
X805980Y323780D01*
X805980Y324730D02*
X795980Y324730D01*
X795980Y325680D02*
X805980Y325680D01*
X805980Y326630D02*
X795980Y326630D01*
X788980Y343480D02*
X778980Y343480D01*
X778980Y352480D01*
X788980Y352480D01*
X788980Y343480D01*
X788980Y344430D02*
X778980Y344430D01*
X778980Y345380D02*
X788980Y345380D01*
X788980Y346330D02*
X778980Y346330D01*
X778980Y347280D02*
X788980Y347280D01*
X788980Y348230D02*
X778980Y348230D01*
X778980Y349180D02*
X788980Y349180D01*
X788980Y350130D02*
X778980Y350130D01*
X778980Y351080D02*
X788980Y351080D01*
X788980Y352030D02*
X778980Y352030D01*
X795980Y343480D02*
X805980Y343480D01*
X795980Y343480D02*
X795980Y352480D01*
X805980Y352480D01*
X805980Y343480D01*
X805980Y344430D02*
X795980Y344430D01*
X795980Y345380D02*
X805980Y345380D01*
X805980Y346330D02*
X795980Y346330D01*
X795980Y347280D02*
X805980Y347280D01*
X805980Y348230D02*
X795980Y348230D01*
X795980Y349180D02*
X805980Y349180D01*
X805980Y350130D02*
X795980Y350130D01*
X795980Y351080D02*
X805980Y351080D01*
X805980Y352030D02*
X795980Y352030D01*
X898360Y318080D02*
X908360Y318080D01*
X898360Y318080D02*
X898360Y327080D01*
X908360Y327080D01*
X908360Y318080D01*
X908360Y319030D02*
X898360Y319030D01*
X898360Y319980D02*
X908360Y319980D01*
X908360Y320930D02*
X898360Y320930D01*
X898360Y321880D02*
X908360Y321880D01*
X908360Y322830D02*
X898360Y322830D01*
X898360Y323780D02*
X908360Y323780D01*
X908360Y324730D02*
X898360Y324730D01*
X898360Y325680D02*
X908360Y325680D01*
X908360Y326630D02*
X898360Y326630D01*
X915360Y318080D02*
X925360Y318080D01*
X915360Y318080D02*
X915360Y327080D01*
X925360Y327080D01*
X925360Y318080D01*
X925360Y319030D02*
X915360Y319030D01*
X915360Y319980D02*
X925360Y319980D01*
X925360Y320930D02*
X915360Y320930D01*
X915360Y321880D02*
X925360Y321880D01*
X925360Y322830D02*
X915360Y322830D01*
X915360Y323780D02*
X925360Y323780D01*
X925360Y324730D02*
X915360Y324730D01*
X915360Y325680D02*
X925360Y325680D01*
X925360Y326630D02*
X915360Y326630D01*
X908360Y343480D02*
X898360Y343480D01*
X898360Y352480D01*
X908360Y352480D01*
X908360Y343480D01*
X908360Y344430D02*
X898360Y344430D01*
X898360Y345380D02*
X908360Y345380D01*
X908360Y346330D02*
X898360Y346330D01*
X898360Y347280D02*
X908360Y347280D01*
X908360Y348230D02*
X898360Y348230D01*
X898360Y349180D02*
X908360Y349180D01*
X908360Y350130D02*
X898360Y350130D01*
X898360Y351080D02*
X908360Y351080D01*
X908360Y352030D02*
X898360Y352030D01*
X915360Y343480D02*
X925360Y343480D01*
X915360Y343480D02*
X915360Y352480D01*
X925360Y352480D01*
X925360Y343480D01*
X925360Y344430D02*
X915360Y344430D01*
X915360Y345380D02*
X925360Y345380D01*
X925360Y346330D02*
X915360Y346330D01*
X915360Y347280D02*
X925360Y347280D01*
X925360Y348230D02*
X915360Y348230D01*
X915360Y349180D02*
X925360Y349180D01*
X925360Y350130D02*
X915360Y350130D01*
X915360Y351080D02*
X925360Y351080D01*
X925360Y352030D02*
X915360Y352030D01*
X72700Y526360D02*
X62700Y526360D01*
X62700Y535360D01*
X72700Y535360D01*
X72700Y526360D01*
X72700Y527310D02*
X62700Y527310D01*
X62700Y528260D02*
X72700Y528260D01*
X72700Y529210D02*
X62700Y529210D01*
X62700Y530160D02*
X72700Y530160D01*
X72700Y531110D02*
X62700Y531110D01*
X62700Y532060D02*
X72700Y532060D01*
X72700Y533010D02*
X62700Y533010D01*
X62700Y533960D02*
X72700Y533960D01*
X72700Y534910D02*
X62700Y534910D01*
X79700Y526360D02*
X89700Y526360D01*
X79700Y526360D02*
X79700Y535360D01*
X89700Y535360D01*
X89700Y526360D01*
X89700Y527310D02*
X79700Y527310D01*
X79700Y528260D02*
X89700Y528260D01*
X89700Y529210D02*
X79700Y529210D01*
X79700Y530160D02*
X89700Y530160D01*
X89700Y531110D02*
X79700Y531110D01*
X79700Y532060D02*
X89700Y532060D01*
X89700Y533010D02*
X79700Y533010D01*
X79700Y533960D02*
X89700Y533960D01*
X89700Y534910D02*
X79700Y534910D01*
X72700Y551760D02*
X62700Y551760D01*
X62700Y560760D01*
X72700Y560760D01*
X72700Y551760D01*
X72700Y552710D02*
X62700Y552710D01*
X62700Y553660D02*
X72700Y553660D01*
X72700Y554610D02*
X62700Y554610D01*
X62700Y555560D02*
X72700Y555560D01*
X72700Y556510D02*
X62700Y556510D01*
X62700Y557460D02*
X72700Y557460D01*
X72700Y558410D02*
X62700Y558410D01*
X62700Y559360D02*
X72700Y559360D01*
X72700Y560310D02*
X62700Y560310D01*
X79700Y551760D02*
X89700Y551760D01*
X79700Y551760D02*
X79700Y560760D01*
X89700Y560760D01*
X89700Y551760D01*
X89700Y552710D02*
X79700Y552710D01*
X79700Y553660D02*
X89700Y553660D01*
X89700Y554610D02*
X79700Y554610D01*
X79700Y555560D02*
X89700Y555560D01*
X89700Y556510D02*
X79700Y556510D01*
X79700Y557460D02*
X89700Y557460D01*
X89700Y558410D02*
X79700Y558410D01*
X79700Y559360D02*
X89700Y559360D01*
X89700Y560310D02*
X79700Y560310D01*
X182080Y526360D02*
X192080Y526360D01*
X182080Y526360D02*
X182080Y535360D01*
X192080Y535360D01*
X192080Y526360D01*
X192080Y527310D02*
X182080Y527310D01*
X182080Y528260D02*
X192080Y528260D01*
X192080Y529210D02*
X182080Y529210D01*
X182080Y530160D02*
X192080Y530160D01*
X192080Y531110D02*
X182080Y531110D01*
X182080Y532060D02*
X192080Y532060D01*
X192080Y533010D02*
X182080Y533010D01*
X182080Y533960D02*
X192080Y533960D01*
X192080Y534910D02*
X182080Y534910D01*
X199080Y526360D02*
X209080Y526360D01*
X199080Y526360D02*
X199080Y535360D01*
X209080Y535360D01*
X209080Y526360D01*
X209080Y527310D02*
X199080Y527310D01*
X199080Y528260D02*
X209080Y528260D01*
X209080Y529210D02*
X199080Y529210D01*
X199080Y530160D02*
X209080Y530160D01*
X209080Y531110D02*
X199080Y531110D01*
X199080Y532060D02*
X209080Y532060D01*
X209080Y533010D02*
X199080Y533010D01*
X199080Y533960D02*
X209080Y533960D01*
X209080Y534910D02*
X199080Y534910D01*
X192080Y551760D02*
X182080Y551760D01*
X182080Y560760D01*
X192080Y560760D01*
X192080Y551760D01*
X192080Y552710D02*
X182080Y552710D01*
X182080Y553660D02*
X192080Y553660D01*
X192080Y554610D02*
X182080Y554610D01*
X182080Y555560D02*
X192080Y555560D01*
X192080Y556510D02*
X182080Y556510D01*
X182080Y557460D02*
X192080Y557460D01*
X192080Y558410D02*
X182080Y558410D01*
X182080Y559360D02*
X192080Y559360D01*
X192080Y560310D02*
X182080Y560310D01*
X199080Y551760D02*
X209080Y551760D01*
X199080Y551760D02*
X199080Y560760D01*
X209080Y560760D01*
X209080Y551760D01*
X209080Y552710D02*
X199080Y552710D01*
X199080Y553660D02*
X209080Y553660D01*
X209080Y554610D02*
X199080Y554610D01*
X199080Y555560D02*
X209080Y555560D01*
X209080Y556510D02*
X199080Y556510D01*
X199080Y557460D02*
X209080Y557460D01*
X209080Y558410D02*
X199080Y558410D01*
X199080Y559360D02*
X209080Y559360D01*
X209080Y560310D02*
X199080Y560310D01*
X301460Y526360D02*
X311460Y526360D01*
X301460Y526360D02*
X301460Y535360D01*
X311460Y535360D01*
X311460Y526360D01*
X311460Y527310D02*
X301460Y527310D01*
X301460Y528260D02*
X311460Y528260D01*
X311460Y529210D02*
X301460Y529210D01*
X301460Y530160D02*
X311460Y530160D01*
X311460Y531110D02*
X301460Y531110D01*
X301460Y532060D02*
X311460Y532060D01*
X311460Y533010D02*
X301460Y533010D01*
X301460Y533960D02*
X311460Y533960D01*
X311460Y534910D02*
X301460Y534910D01*
X318460Y526360D02*
X328460Y526360D01*
X318460Y526360D02*
X318460Y535360D01*
X328460Y535360D01*
X328460Y526360D01*
X328460Y527310D02*
X318460Y527310D01*
X318460Y528260D02*
X328460Y528260D01*
X328460Y529210D02*
X318460Y529210D01*
X318460Y530160D02*
X328460Y530160D01*
X328460Y531110D02*
X318460Y531110D01*
X318460Y532060D02*
X328460Y532060D01*
X328460Y533010D02*
X318460Y533010D01*
X318460Y533960D02*
X328460Y533960D01*
X328460Y534910D02*
X318460Y534910D01*
X311460Y551760D02*
X301460Y551760D01*
X301460Y560760D01*
X311460Y560760D01*
X311460Y551760D01*
X311460Y552710D02*
X301460Y552710D01*
X301460Y553660D02*
X311460Y553660D01*
X311460Y554610D02*
X301460Y554610D01*
X301460Y555560D02*
X311460Y555560D01*
X311460Y556510D02*
X301460Y556510D01*
X301460Y557460D02*
X311460Y557460D01*
X311460Y558410D02*
X301460Y558410D01*
X301460Y559360D02*
X311460Y559360D01*
X311460Y560310D02*
X301460Y560310D01*
X318460Y551760D02*
X328460Y551760D01*
X318460Y551760D02*
X318460Y560760D01*
X328460Y560760D01*
X328460Y551760D01*
X328460Y552710D02*
X318460Y552710D01*
X318460Y553660D02*
X328460Y553660D01*
X328460Y554610D02*
X318460Y554610D01*
X318460Y555560D02*
X328460Y555560D01*
X328460Y556510D02*
X318460Y556510D01*
X318460Y557460D02*
X328460Y557460D01*
X328460Y558410D02*
X318460Y558410D01*
X318460Y559360D02*
X328460Y559360D01*
X328460Y560310D02*
X318460Y560310D01*
X420840Y526360D02*
X430840Y526360D01*
X420840Y526360D02*
X420840Y535360D01*
X430840Y535360D01*
X430840Y526360D01*
X430840Y527310D02*
X420840Y527310D01*
X420840Y528260D02*
X430840Y528260D01*
X430840Y529210D02*
X420840Y529210D01*
X420840Y530160D02*
X430840Y530160D01*
X430840Y531110D02*
X420840Y531110D01*
X420840Y532060D02*
X430840Y532060D01*
X430840Y533010D02*
X420840Y533010D01*
X420840Y533960D02*
X430840Y533960D01*
X430840Y534910D02*
X420840Y534910D01*
X437840Y526360D02*
X447840Y526360D01*
X437840Y526360D02*
X437840Y535360D01*
X447840Y535360D01*
X447840Y526360D01*
X447840Y527310D02*
X437840Y527310D01*
X437840Y528260D02*
X447840Y528260D01*
X447840Y529210D02*
X437840Y529210D01*
X437840Y530160D02*
X447840Y530160D01*
X447840Y531110D02*
X437840Y531110D01*
X437840Y532060D02*
X447840Y532060D01*
X447840Y533010D02*
X437840Y533010D01*
X437840Y533960D02*
X447840Y533960D01*
X447840Y534910D02*
X437840Y534910D01*
X430840Y551760D02*
X420840Y551760D01*
X420840Y560760D01*
X430840Y560760D01*
X430840Y551760D01*
X430840Y552710D02*
X420840Y552710D01*
X420840Y553660D02*
X430840Y553660D01*
X430840Y554610D02*
X420840Y554610D01*
X420840Y555560D02*
X430840Y555560D01*
X430840Y556510D02*
X420840Y556510D01*
X420840Y557460D02*
X430840Y557460D01*
X430840Y558410D02*
X420840Y558410D01*
X420840Y559360D02*
X430840Y559360D01*
X430840Y560310D02*
X420840Y560310D01*
X437840Y551760D02*
X447840Y551760D01*
X437840Y551760D02*
X437840Y560760D01*
X447840Y560760D01*
X447840Y551760D01*
X447840Y552710D02*
X437840Y552710D01*
X437840Y553660D02*
X447840Y553660D01*
X447840Y554610D02*
X437840Y554610D01*
X437840Y555560D02*
X447840Y555560D01*
X447840Y556510D02*
X437840Y556510D01*
X437840Y557460D02*
X447840Y557460D01*
X447840Y558410D02*
X437840Y558410D01*
X437840Y559360D02*
X447840Y559360D01*
X447840Y560310D02*
X437840Y560310D01*
X540220Y526360D02*
X550220Y526360D01*
X540220Y526360D02*
X540220Y535360D01*
X550220Y535360D01*
X550220Y526360D01*
X550220Y527310D02*
X540220Y527310D01*
X540220Y528260D02*
X550220Y528260D01*
X550220Y529210D02*
X540220Y529210D01*
X540220Y530160D02*
X550220Y530160D01*
X550220Y531110D02*
X540220Y531110D01*
X540220Y532060D02*
X550220Y532060D01*
X550220Y533010D02*
X540220Y533010D01*
X540220Y533960D02*
X550220Y533960D01*
X550220Y534910D02*
X540220Y534910D01*
X557220Y526360D02*
X567220Y526360D01*
X557220Y526360D02*
X557220Y535360D01*
X567220Y535360D01*
X567220Y526360D01*
X567220Y527310D02*
X557220Y527310D01*
X557220Y528260D02*
X567220Y528260D01*
X567220Y529210D02*
X557220Y529210D01*
X557220Y530160D02*
X567220Y530160D01*
X567220Y531110D02*
X557220Y531110D01*
X557220Y532060D02*
X567220Y532060D01*
X567220Y533010D02*
X557220Y533010D01*
X557220Y533960D02*
X567220Y533960D01*
X567220Y534910D02*
X557220Y534910D01*
X550220Y551760D02*
X540220Y551760D01*
X540220Y560760D01*
X550220Y560760D01*
X550220Y551760D01*
X550220Y552710D02*
X540220Y552710D01*
X540220Y553660D02*
X550220Y553660D01*
X550220Y554610D02*
X540220Y554610D01*
X540220Y555560D02*
X550220Y555560D01*
X550220Y556510D02*
X540220Y556510D01*
X540220Y557460D02*
X550220Y557460D01*
X550220Y558410D02*
X540220Y558410D01*
X540220Y559360D02*
X550220Y559360D01*
X550220Y560310D02*
X540220Y560310D01*
X557220Y551760D02*
X567220Y551760D01*
X557220Y551760D02*
X557220Y560760D01*
X567220Y560760D01*
X567220Y551760D01*
X567220Y552710D02*
X557220Y552710D01*
X557220Y553660D02*
X567220Y553660D01*
X567220Y554610D02*
X557220Y554610D01*
X557220Y555560D02*
X567220Y555560D01*
X567220Y556510D02*
X557220Y556510D01*
X557220Y557460D02*
X567220Y557460D01*
X567220Y558410D02*
X557220Y558410D01*
X557220Y559360D02*
X567220Y559360D01*
X567220Y560310D02*
X557220Y560310D01*
X659600Y526360D02*
X669600Y526360D01*
X659600Y526360D02*
X659600Y535360D01*
X669600Y535360D01*
X669600Y526360D01*
X669600Y527310D02*
X659600Y527310D01*
X659600Y528260D02*
X669600Y528260D01*
X669600Y529210D02*
X659600Y529210D01*
X659600Y530160D02*
X669600Y530160D01*
X669600Y531110D02*
X659600Y531110D01*
X659600Y532060D02*
X669600Y532060D01*
X669600Y533010D02*
X659600Y533010D01*
X659600Y533960D02*
X669600Y533960D01*
X669600Y534910D02*
X659600Y534910D01*
X676600Y526360D02*
X686600Y526360D01*
X676600Y526360D02*
X676600Y535360D01*
X686600Y535360D01*
X686600Y526360D01*
X686600Y527310D02*
X676600Y527310D01*
X676600Y528260D02*
X686600Y528260D01*
X686600Y529210D02*
X676600Y529210D01*
X676600Y530160D02*
X686600Y530160D01*
X686600Y531110D02*
X676600Y531110D01*
X676600Y532060D02*
X686600Y532060D01*
X686600Y533010D02*
X676600Y533010D01*
X676600Y533960D02*
X686600Y533960D01*
X686600Y534910D02*
X676600Y534910D01*
X669600Y551760D02*
X659600Y551760D01*
X659600Y560760D01*
X669600Y560760D01*
X669600Y551760D01*
X669600Y552710D02*
X659600Y552710D01*
X659600Y553660D02*
X669600Y553660D01*
X669600Y554610D02*
X659600Y554610D01*
X659600Y555560D02*
X669600Y555560D01*
X669600Y556510D02*
X659600Y556510D01*
X659600Y557460D02*
X669600Y557460D01*
X669600Y558410D02*
X659600Y558410D01*
X659600Y559360D02*
X669600Y559360D01*
X669600Y560310D02*
X659600Y560310D01*
X676600Y551760D02*
X686600Y551760D01*
X676600Y551760D02*
X676600Y560760D01*
X686600Y560760D01*
X686600Y551760D01*
X686600Y552710D02*
X676600Y552710D01*
X676600Y553660D02*
X686600Y553660D01*
X686600Y554610D02*
X676600Y554610D01*
X676600Y555560D02*
X686600Y555560D01*
X686600Y556510D02*
X676600Y556510D01*
X676600Y557460D02*
X686600Y557460D01*
X686600Y558410D02*
X676600Y558410D01*
X676600Y559360D02*
X686600Y559360D01*
X686600Y560310D02*
X676600Y560310D01*
X778980Y526360D02*
X788980Y526360D01*
X778980Y526360D02*
X778980Y535360D01*
X788980Y535360D01*
X788980Y526360D01*
X788980Y527310D02*
X778980Y527310D01*
X778980Y528260D02*
X788980Y528260D01*
X788980Y529210D02*
X778980Y529210D01*
X778980Y530160D02*
X788980Y530160D01*
X788980Y531110D02*
X778980Y531110D01*
X778980Y532060D02*
X788980Y532060D01*
X788980Y533010D02*
X778980Y533010D01*
X778980Y533960D02*
X788980Y533960D01*
X788980Y534910D02*
X778980Y534910D01*
X795980Y526360D02*
X805980Y526360D01*
X795980Y526360D02*
X795980Y535360D01*
X805980Y535360D01*
X805980Y526360D01*
X805980Y527310D02*
X795980Y527310D01*
X795980Y528260D02*
X805980Y528260D01*
X805980Y529210D02*
X795980Y529210D01*
X795980Y530160D02*
X805980Y530160D01*
X805980Y531110D02*
X795980Y531110D01*
X795980Y532060D02*
X805980Y532060D01*
X805980Y533010D02*
X795980Y533010D01*
X795980Y533960D02*
X805980Y533960D01*
X805980Y534910D02*
X795980Y534910D01*
X788980Y551760D02*
X778980Y551760D01*
X778980Y560760D01*
X788980Y560760D01*
X788980Y551760D01*
X788980Y552710D02*
X778980Y552710D01*
X778980Y553660D02*
X788980Y553660D01*
X788980Y554610D02*
X778980Y554610D01*
X778980Y555560D02*
X788980Y555560D01*
X788980Y556510D02*
X778980Y556510D01*
X778980Y557460D02*
X788980Y557460D01*
X788980Y558410D02*
X778980Y558410D01*
X778980Y559360D02*
X788980Y559360D01*
X788980Y560310D02*
X778980Y560310D01*
X795980Y551760D02*
X805980Y551760D01*
X795980Y551760D02*
X795980Y560760D01*
X805980Y560760D01*
X805980Y551760D01*
X805980Y552710D02*
X795980Y552710D01*
X795980Y553660D02*
X805980Y553660D01*
X805980Y554610D02*
X795980Y554610D01*
X795980Y555560D02*
X805980Y555560D01*
X805980Y556510D02*
X795980Y556510D01*
X795980Y557460D02*
X805980Y557460D01*
X805980Y558410D02*
X795980Y558410D01*
X795980Y559360D02*
X805980Y559360D01*
X805980Y560310D02*
X795980Y560310D01*
X898360Y526360D02*
X908360Y526360D01*
X898360Y526360D02*
X898360Y535360D01*
X908360Y535360D01*
X908360Y526360D01*
X908360Y527310D02*
X898360Y527310D01*
X898360Y528260D02*
X908360Y528260D01*
X908360Y529210D02*
X898360Y529210D01*
X898360Y530160D02*
X908360Y530160D01*
X908360Y531110D02*
X898360Y531110D01*
X898360Y532060D02*
X908360Y532060D01*
X908360Y533010D02*
X898360Y533010D01*
X898360Y533960D02*
X908360Y533960D01*
X908360Y534910D02*
X898360Y534910D01*
X915360Y526360D02*
X925360Y526360D01*
X915360Y526360D02*
X915360Y535360D01*
X925360Y535360D01*
X925360Y526360D01*
X925360Y527310D02*
X915360Y527310D01*
X915360Y528260D02*
X925360Y528260D01*
X925360Y529210D02*
X915360Y529210D01*
X915360Y530160D02*
X925360Y530160D01*
X925360Y531110D02*
X915360Y531110D01*
X915360Y532060D02*
X925360Y532060D01*
X925360Y533010D02*
X915360Y533010D01*
X915360Y533960D02*
X925360Y533960D01*
X925360Y534910D02*
X915360Y534910D01*
X908360Y551760D02*
X898360Y551760D01*
X898360Y560760D01*
X908360Y560760D01*
X908360Y551760D01*
X908360Y552710D02*
X898360Y552710D01*
X898360Y553660D02*
X908360Y553660D01*
X908360Y554610D02*
X898360Y554610D01*
X898360Y555560D02*
X908360Y555560D01*
X908360Y556510D02*
X898360Y556510D01*
X898360Y557460D02*
X908360Y557460D01*
X908360Y558410D02*
X898360Y558410D01*
X898360Y559360D02*
X908360Y559360D01*
X908360Y560310D02*
X898360Y560310D01*
X915360Y551760D02*
X925360Y551760D01*
X915360Y551760D02*
X915360Y560760D01*
X925360Y560760D01*
X925360Y551760D01*
X925360Y552710D02*
X915360Y552710D01*
X915360Y553660D02*
X925360Y553660D01*
X925360Y554610D02*
X915360Y554610D01*
X915360Y555560D02*
X925360Y555560D01*
X925360Y556510D02*
X915360Y556510D01*
X915360Y557460D02*
X925360Y557460D01*
X925360Y558410D02*
X915360Y558410D01*
X915360Y559360D02*
X925360Y559360D01*
X925360Y560310D02*
X915360Y560310D01*
X72700Y734640D02*
X62700Y734640D01*
X62700Y743640D01*
X72700Y743640D01*
X72700Y734640D01*
X72700Y735590D02*
X62700Y735590D01*
X62700Y736540D02*
X72700Y736540D01*
X72700Y737490D02*
X62700Y737490D01*
X62700Y738440D02*
X72700Y738440D01*
X72700Y739390D02*
X62700Y739390D01*
X62700Y740340D02*
X72700Y740340D01*
X72700Y741290D02*
X62700Y741290D01*
X62700Y742240D02*
X72700Y742240D01*
X72700Y743190D02*
X62700Y743190D01*
X79700Y734640D02*
X89700Y734640D01*
X79700Y734640D02*
X79700Y743640D01*
X89700Y743640D01*
X89700Y734640D01*
X89700Y735590D02*
X79700Y735590D01*
X79700Y736540D02*
X89700Y736540D01*
X89700Y737490D02*
X79700Y737490D01*
X79700Y738440D02*
X89700Y738440D01*
X89700Y739390D02*
X79700Y739390D01*
X79700Y740340D02*
X89700Y740340D01*
X89700Y741290D02*
X79700Y741290D01*
X79700Y742240D02*
X89700Y742240D01*
X89700Y743190D02*
X79700Y743190D01*
X72700Y760040D02*
X62700Y760040D01*
X62700Y769040D01*
X72700Y769040D01*
X72700Y760040D01*
X72700Y760990D02*
X62700Y760990D01*
X62700Y761940D02*
X72700Y761940D01*
X72700Y762890D02*
X62700Y762890D01*
X62700Y763840D02*
X72700Y763840D01*
X72700Y764790D02*
X62700Y764790D01*
X62700Y765740D02*
X72700Y765740D01*
X72700Y766690D02*
X62700Y766690D01*
X62700Y767640D02*
X72700Y767640D01*
X72700Y768590D02*
X62700Y768590D01*
X79700Y760040D02*
X89700Y760040D01*
X79700Y760040D02*
X79700Y769040D01*
X89700Y769040D01*
X89700Y760040D01*
X89700Y760990D02*
X79700Y760990D01*
X79700Y761940D02*
X89700Y761940D01*
X89700Y762890D02*
X79700Y762890D01*
X79700Y763840D02*
X89700Y763840D01*
X89700Y764790D02*
X79700Y764790D01*
X79700Y765740D02*
X89700Y765740D01*
X89700Y766690D02*
X79700Y766690D01*
X79700Y767640D02*
X89700Y767640D01*
X89700Y768590D02*
X79700Y768590D01*
X182080Y734640D02*
X192080Y734640D01*
X182080Y734640D02*
X182080Y743640D01*
X192080Y743640D01*
X192080Y734640D01*
X192080Y735590D02*
X182080Y735590D01*
X182080Y736540D02*
X192080Y736540D01*
X192080Y737490D02*
X182080Y737490D01*
X182080Y738440D02*
X192080Y738440D01*
X192080Y739390D02*
X182080Y739390D01*
X182080Y740340D02*
X192080Y740340D01*
X192080Y741290D02*
X182080Y741290D01*
X182080Y742240D02*
X192080Y742240D01*
X192080Y743190D02*
X182080Y743190D01*
X199080Y734640D02*
X209080Y734640D01*
X199080Y734640D02*
X199080Y743640D01*
X209080Y743640D01*
X209080Y734640D01*
X209080Y735590D02*
X199080Y735590D01*
X199080Y736540D02*
X209080Y736540D01*
X209080Y737490D02*
X199080Y737490D01*
X199080Y738440D02*
X209080Y738440D01*
X209080Y739390D02*
X199080Y739390D01*
X199080Y740340D02*
X209080Y740340D01*
X209080Y741290D02*
X199080Y741290D01*
X199080Y742240D02*
X209080Y742240D01*
X209080Y743190D02*
X199080Y743190D01*
X192080Y760040D02*
X182080Y760040D01*
X182080Y769040D01*
X192080Y769040D01*
X192080Y760040D01*
X192080Y760990D02*
X182080Y760990D01*
X182080Y761940D02*
X192080Y761940D01*
X192080Y762890D02*
X182080Y762890D01*
X182080Y763840D02*
X192080Y763840D01*
X192080Y764790D02*
X182080Y764790D01*
X182080Y765740D02*
X192080Y765740D01*
X192080Y766690D02*
X182080Y766690D01*
X182080Y767640D02*
X192080Y767640D01*
X192080Y768590D02*
X182080Y768590D01*
X199080Y760040D02*
X209080Y760040D01*
X199080Y760040D02*
X199080Y769040D01*
X209080Y769040D01*
X209080Y760040D01*
X209080Y760990D02*
X199080Y760990D01*
X199080Y761940D02*
X209080Y761940D01*
X209080Y762890D02*
X199080Y762890D01*
X199080Y763840D02*
X209080Y763840D01*
X209080Y764790D02*
X199080Y764790D01*
X199080Y765740D02*
X209080Y765740D01*
X209080Y766690D02*
X199080Y766690D01*
X199080Y767640D02*
X209080Y767640D01*
X209080Y768590D02*
X199080Y768590D01*
X301460Y734640D02*
X311460Y734640D01*
X301460Y734640D02*
X301460Y743640D01*
X311460Y743640D01*
X311460Y734640D01*
X311460Y735590D02*
X301460Y735590D01*
X301460Y736540D02*
X311460Y736540D01*
X311460Y737490D02*
X301460Y737490D01*
X301460Y738440D02*
X311460Y738440D01*
X311460Y739390D02*
X301460Y739390D01*
X301460Y740340D02*
X311460Y740340D01*
X311460Y741290D02*
X301460Y741290D01*
X301460Y742240D02*
X311460Y742240D01*
X311460Y743190D02*
X301460Y743190D01*
X318460Y734640D02*
X328460Y734640D01*
X318460Y734640D02*
X318460Y743640D01*
X328460Y743640D01*
X328460Y734640D01*
X328460Y735590D02*
X318460Y735590D01*
X318460Y736540D02*
X328460Y736540D01*
X328460Y737490D02*
X318460Y737490D01*
X318460Y738440D02*
X328460Y738440D01*
X328460Y739390D02*
X318460Y739390D01*
X318460Y740340D02*
X328460Y740340D01*
X328460Y741290D02*
X318460Y741290D01*
X318460Y742240D02*
X328460Y742240D01*
X328460Y743190D02*
X318460Y743190D01*
X311460Y760040D02*
X301460Y760040D01*
X301460Y769040D01*
X311460Y769040D01*
X311460Y760040D01*
X311460Y760990D02*
X301460Y760990D01*
X301460Y761940D02*
X311460Y761940D01*
X311460Y762890D02*
X301460Y762890D01*
X301460Y763840D02*
X311460Y763840D01*
X311460Y764790D02*
X301460Y764790D01*
X301460Y765740D02*
X311460Y765740D01*
X311460Y766690D02*
X301460Y766690D01*
X301460Y767640D02*
X311460Y767640D01*
X311460Y768590D02*
X301460Y768590D01*
X318460Y760040D02*
X328460Y760040D01*
X318460Y760040D02*
X318460Y769040D01*
X328460Y769040D01*
X328460Y760040D01*
X328460Y760990D02*
X318460Y760990D01*
X318460Y761940D02*
X328460Y761940D01*
X328460Y762890D02*
X318460Y762890D01*
X318460Y763840D02*
X328460Y763840D01*
X328460Y764790D02*
X318460Y764790D01*
X318460Y765740D02*
X328460Y765740D01*
X328460Y766690D02*
X318460Y766690D01*
X318460Y767640D02*
X328460Y767640D01*
X328460Y768590D02*
X318460Y768590D01*
X420840Y734640D02*
X430840Y734640D01*
X420840Y734640D02*
X420840Y743640D01*
X430840Y743640D01*
X430840Y734640D01*
X430840Y735590D02*
X420840Y735590D01*
X420840Y736540D02*
X430840Y736540D01*
X430840Y737490D02*
X420840Y737490D01*
X420840Y738440D02*
X430840Y738440D01*
X430840Y739390D02*
X420840Y739390D01*
X420840Y740340D02*
X430840Y740340D01*
X430840Y741290D02*
X420840Y741290D01*
X420840Y742240D02*
X430840Y742240D01*
X430840Y743190D02*
X420840Y743190D01*
X437840Y734640D02*
X447840Y734640D01*
X437840Y734640D02*
X437840Y743640D01*
X447840Y743640D01*
X447840Y734640D01*
X447840Y735590D02*
X437840Y735590D01*
X437840Y736540D02*
X447840Y736540D01*
X447840Y737490D02*
X437840Y737490D01*
X437840Y738440D02*
X447840Y738440D01*
X447840Y739390D02*
X437840Y739390D01*
X437840Y740340D02*
X447840Y740340D01*
X447840Y741290D02*
X437840Y741290D01*
X437840Y742240D02*
X447840Y742240D01*
X447840Y743190D02*
X437840Y743190D01*
X430840Y760040D02*
X420840Y760040D01*
X420840Y769040D01*
X430840Y769040D01*
X430840Y760040D01*
X430840Y760990D02*
X420840Y760990D01*
X420840Y761940D02*
X430840Y761940D01*
X430840Y762890D02*
X420840Y762890D01*
X420840Y763840D02*
X430840Y763840D01*
X430840Y764790D02*
X420840Y764790D01*
X420840Y765740D02*
X430840Y765740D01*
X430840Y766690D02*
X420840Y766690D01*
X420840Y767640D02*
X430840Y767640D01*
X430840Y768590D02*
X420840Y768590D01*
X437840Y760040D02*
X447840Y760040D01*
X437840Y760040D02*
X437840Y769040D01*
X447840Y769040D01*
X447840Y760040D01*
X447840Y760990D02*
X437840Y760990D01*
X437840Y761940D02*
X447840Y761940D01*
X447840Y762890D02*
X437840Y762890D01*
X437840Y763840D02*
X447840Y763840D01*
X447840Y764790D02*
X437840Y764790D01*
X437840Y765740D02*
X447840Y765740D01*
X447840Y766690D02*
X437840Y766690D01*
X437840Y767640D02*
X447840Y767640D01*
X447840Y768590D02*
X437840Y768590D01*
X540220Y734640D02*
X550220Y734640D01*
X540220Y734640D02*
X540220Y743640D01*
X550220Y743640D01*
X550220Y734640D01*
X550220Y735590D02*
X540220Y735590D01*
X540220Y736540D02*
X550220Y736540D01*
X550220Y737490D02*
X540220Y737490D01*
X540220Y738440D02*
X550220Y738440D01*
X550220Y739390D02*
X540220Y739390D01*
X540220Y740340D02*
X550220Y740340D01*
X550220Y741290D02*
X540220Y741290D01*
X540220Y742240D02*
X550220Y742240D01*
X550220Y743190D02*
X540220Y743190D01*
X557220Y734640D02*
X567220Y734640D01*
X557220Y734640D02*
X557220Y743640D01*
X567220Y743640D01*
X567220Y734640D01*
X567220Y735590D02*
X557220Y735590D01*
X557220Y736540D02*
X567220Y736540D01*
X567220Y737490D02*
X557220Y737490D01*
X557220Y738440D02*
X567220Y738440D01*
X567220Y739390D02*
X557220Y739390D01*
X557220Y740340D02*
X567220Y740340D01*
X567220Y741290D02*
X557220Y741290D01*
X557220Y742240D02*
X567220Y742240D01*
X567220Y743190D02*
X557220Y743190D01*
X550220Y760040D02*
X540220Y760040D01*
X540220Y769040D01*
X550220Y769040D01*
X550220Y760040D01*
X550220Y760990D02*
X540220Y760990D01*
X540220Y761940D02*
X550220Y761940D01*
X550220Y762890D02*
X540220Y762890D01*
X540220Y763840D02*
X550220Y763840D01*
X550220Y764790D02*
X540220Y764790D01*
X540220Y765740D02*
X550220Y765740D01*
X550220Y766690D02*
X540220Y766690D01*
X540220Y767640D02*
X550220Y767640D01*
X550220Y768590D02*
X540220Y768590D01*
X557220Y760040D02*
X567220Y760040D01*
X557220Y760040D02*
X557220Y769040D01*
X567220Y769040D01*
X567220Y760040D01*
X567220Y760990D02*
X557220Y760990D01*
X557220Y761940D02*
X567220Y761940D01*
X567220Y762890D02*
X557220Y762890D01*
X557220Y763840D02*
X567220Y763840D01*
X567220Y764790D02*
X557220Y764790D01*
X557220Y765740D02*
X567220Y765740D01*
X567220Y766690D02*
X557220Y766690D01*
X557220Y767640D02*
X567220Y767640D01*
X567220Y768590D02*
X557220Y768590D01*
X659600Y734640D02*
X669600Y734640D01*
X659600Y734640D02*
X659600Y743640D01*
X669600Y743640D01*
X669600Y734640D01*
X669600Y735590D02*
X659600Y735590D01*
X659600Y736540D02*
X669600Y736540D01*
X669600Y737490D02*
X659600Y737490D01*
X659600Y738440D02*
X669600Y738440D01*
X669600Y739390D02*
X659600Y739390D01*
X659600Y740340D02*
X669600Y740340D01*
X669600Y741290D02*
X659600Y741290D01*
X659600Y742240D02*
X669600Y742240D01*
X669600Y743190D02*
X659600Y743190D01*
X676600Y734640D02*
X686600Y734640D01*
X676600Y734640D02*
X676600Y743640D01*
X686600Y743640D01*
X686600Y734640D01*
X686600Y735590D02*
X676600Y735590D01*
X676600Y736540D02*
X686600Y736540D01*
X686600Y737490D02*
X676600Y737490D01*
X676600Y738440D02*
X686600Y738440D01*
X686600Y739390D02*
X676600Y739390D01*
X676600Y740340D02*
X686600Y740340D01*
X686600Y741290D02*
X676600Y741290D01*
X676600Y742240D02*
X686600Y742240D01*
X686600Y743190D02*
X676600Y743190D01*
X669600Y760040D02*
X659600Y760040D01*
X659600Y769040D01*
X669600Y769040D01*
X669600Y760040D01*
X669600Y760990D02*
X659600Y760990D01*
X659600Y761940D02*
X669600Y761940D01*
X669600Y762890D02*
X659600Y762890D01*
X659600Y763840D02*
X669600Y763840D01*
X669600Y764790D02*
X659600Y764790D01*
X659600Y765740D02*
X669600Y765740D01*
X669600Y766690D02*
X659600Y766690D01*
X659600Y767640D02*
X669600Y767640D01*
X669600Y768590D02*
X659600Y768590D01*
X676600Y760040D02*
X686600Y760040D01*
X676600Y760040D02*
X676600Y769040D01*
X686600Y769040D01*
X686600Y760040D01*
X686600Y760990D02*
X676600Y760990D01*
X676600Y761940D02*
X686600Y761940D01*
X686600Y762890D02*
X676600Y762890D01*
X676600Y763840D02*
X686600Y763840D01*
X686600Y764790D02*
X676600Y764790D01*
X676600Y765740D02*
X686600Y765740D01*
X686600Y766690D02*
X676600Y766690D01*
X676600Y767640D02*
X686600Y767640D01*
X686600Y768590D02*
X676600Y768590D01*
X778980Y734640D02*
X788980Y734640D01*
X778980Y734640D02*
X778980Y743640D01*
X788980Y743640D01*
X788980Y734640D01*
X788980Y735590D02*
X778980Y735590D01*
X778980Y736540D02*
X788980Y736540D01*
X788980Y737490D02*
X778980Y737490D01*
X778980Y738440D02*
X788980Y738440D01*
X788980Y739390D02*
X778980Y739390D01*
X778980Y740340D02*
X788980Y740340D01*
X788980Y741290D02*
X778980Y741290D01*
X778980Y742240D02*
X788980Y742240D01*
X788980Y743190D02*
X778980Y743190D01*
X795980Y734640D02*
X805980Y734640D01*
X795980Y734640D02*
X795980Y743640D01*
X805980Y743640D01*
X805980Y734640D01*
X805980Y735590D02*
X795980Y735590D01*
X795980Y736540D02*
X805980Y736540D01*
X805980Y737490D02*
X795980Y737490D01*
X795980Y738440D02*
X805980Y738440D01*
X805980Y739390D02*
X795980Y739390D01*
X795980Y740340D02*
X805980Y740340D01*
X805980Y741290D02*
X795980Y741290D01*
X795980Y742240D02*
X805980Y742240D01*
X805980Y743190D02*
X795980Y743190D01*
X788980Y760040D02*
X778980Y760040D01*
X778980Y769040D01*
X788980Y769040D01*
X788980Y760040D01*
X788980Y760990D02*
X778980Y760990D01*
X778980Y761940D02*
X788980Y761940D01*
X788980Y762890D02*
X778980Y762890D01*
X778980Y763840D02*
X788980Y763840D01*
X788980Y764790D02*
X778980Y764790D01*
X778980Y765740D02*
X788980Y765740D01*
X788980Y766690D02*
X778980Y766690D01*
X778980Y767640D02*
X788980Y767640D01*
X788980Y768590D02*
X778980Y768590D01*
X795980Y760040D02*
X805980Y760040D01*
X795980Y760040D02*
X795980Y769040D01*
X805980Y769040D01*
X805980Y760040D01*
X805980Y760990D02*
X795980Y760990D01*
X795980Y761940D02*
X805980Y761940D01*
X805980Y762890D02*
X795980Y762890D01*
X795980Y763840D02*
X805980Y763840D01*
X805980Y764790D02*
X795980Y764790D01*
X795980Y765740D02*
X805980Y765740D01*
X805980Y766690D02*
X795980Y766690D01*
X795980Y767640D02*
X805980Y767640D01*
X805980Y768590D02*
X795980Y768590D01*
X898360Y734640D02*
X908360Y734640D01*
X898360Y734640D02*
X898360Y743640D01*
X908360Y743640D01*
X908360Y734640D01*
X908360Y735590D02*
X898360Y735590D01*
X898360Y736540D02*
X908360Y736540D01*
X908360Y737490D02*
X898360Y737490D01*
X898360Y738440D02*
X908360Y738440D01*
X908360Y739390D02*
X898360Y739390D01*
X898360Y740340D02*
X908360Y740340D01*
X908360Y741290D02*
X898360Y741290D01*
X898360Y742240D02*
X908360Y742240D01*
X908360Y743190D02*
X898360Y743190D01*
X915360Y734640D02*
X925360Y734640D01*
X915360Y734640D02*
X915360Y743640D01*
X925360Y743640D01*
X925360Y734640D01*
X925360Y735590D02*
X915360Y735590D01*
X915360Y736540D02*
X925360Y736540D01*
X925360Y737490D02*
X915360Y737490D01*
X915360Y738440D02*
X925360Y738440D01*
X925360Y739390D02*
X915360Y739390D01*
X915360Y740340D02*
X925360Y740340D01*
X925360Y741290D02*
X915360Y741290D01*
X915360Y742240D02*
X925360Y742240D01*
X925360Y743190D02*
X915360Y743190D01*
X908360Y760040D02*
X898360Y760040D01*
X898360Y769040D01*
X908360Y769040D01*
X908360Y760040D01*
X908360Y760990D02*
X898360Y760990D01*
X898360Y761940D02*
X908360Y761940D01*
X908360Y762890D02*
X898360Y762890D01*
X898360Y763840D02*
X908360Y763840D01*
X908360Y764790D02*
X898360Y764790D01*
X898360Y765740D02*
X908360Y765740D01*
X908360Y766690D02*
X898360Y766690D01*
X898360Y767640D02*
X908360Y767640D01*
X908360Y768590D02*
X898360Y768590D01*
X915360Y760040D02*
X925360Y760040D01*
X915360Y760040D02*
X915360Y769040D01*
X925360Y769040D01*
X925360Y760040D01*
X925360Y760990D02*
X915360Y760990D01*
X915360Y761940D02*
X925360Y761940D01*
X925360Y762890D02*
X915360Y762890D01*
X915360Y763840D02*
X925360Y763840D01*
X925360Y764790D02*
X915360Y764790D01*
X915360Y765740D02*
X925360Y765740D01*
X925360Y766690D02*
X915360Y766690D01*
X915360Y767640D02*
X925360Y767640D01*
X925360Y768590D02*
X915360Y768590D01*
X72700Y942920D02*
X62700Y942920D01*
X62700Y951920D01*
X72700Y951920D01*
X72700Y942920D01*
X72700Y943870D02*
X62700Y943870D01*
X62700Y944820D02*
X72700Y944820D01*
X72700Y945770D02*
X62700Y945770D01*
X62700Y946720D02*
X72700Y946720D01*
X72700Y947670D02*
X62700Y947670D01*
X62700Y948620D02*
X72700Y948620D01*
X72700Y949570D02*
X62700Y949570D01*
X62700Y950520D02*
X72700Y950520D01*
X72700Y951470D02*
X62700Y951470D01*
X79700Y942920D02*
X89700Y942920D01*
X79700Y942920D02*
X79700Y951920D01*
X89700Y951920D01*
X89700Y942920D01*
X89700Y943870D02*
X79700Y943870D01*
X79700Y944820D02*
X89700Y944820D01*
X89700Y945770D02*
X79700Y945770D01*
X79700Y946720D02*
X89700Y946720D01*
X89700Y947670D02*
X79700Y947670D01*
X79700Y948620D02*
X89700Y948620D01*
X89700Y949570D02*
X79700Y949570D01*
X79700Y950520D02*
X89700Y950520D01*
X89700Y951470D02*
X79700Y951470D01*
X72700Y968320D02*
X62700Y968320D01*
X62700Y977320D01*
X72700Y977320D01*
X72700Y968320D01*
X72700Y969270D02*
X62700Y969270D01*
X62700Y970220D02*
X72700Y970220D01*
X72700Y971170D02*
X62700Y971170D01*
X62700Y972120D02*
X72700Y972120D01*
X72700Y973070D02*
X62700Y973070D01*
X62700Y974020D02*
X72700Y974020D01*
X72700Y974970D02*
X62700Y974970D01*
X62700Y975920D02*
X72700Y975920D01*
X72700Y976870D02*
X62700Y976870D01*
X79700Y968320D02*
X89700Y968320D01*
X79700Y968320D02*
X79700Y977320D01*
X89700Y977320D01*
X89700Y968320D01*
X89700Y969270D02*
X79700Y969270D01*
X79700Y970220D02*
X89700Y970220D01*
X89700Y971170D02*
X79700Y971170D01*
X79700Y972120D02*
X89700Y972120D01*
X89700Y973070D02*
X79700Y973070D01*
X79700Y974020D02*
X89700Y974020D01*
X89700Y974970D02*
X79700Y974970D01*
X79700Y975920D02*
X89700Y975920D01*
X89700Y976870D02*
X79700Y976870D01*
X182080Y942920D02*
X192080Y942920D01*
X182080Y942920D02*
X182080Y951920D01*
X192080Y951920D01*
X192080Y942920D01*
X192080Y943870D02*
X182080Y943870D01*
X182080Y944820D02*
X192080Y944820D01*
X192080Y945770D02*
X182080Y945770D01*
X182080Y946720D02*
X192080Y946720D01*
X192080Y947670D02*
X182080Y947670D01*
X182080Y948620D02*
X192080Y948620D01*
X192080Y949570D02*
X182080Y949570D01*
X182080Y950520D02*
X192080Y950520D01*
X192080Y951470D02*
X182080Y951470D01*
X199080Y942920D02*
X209080Y942920D01*
X199080Y942920D02*
X199080Y951920D01*
X209080Y951920D01*
X209080Y942920D01*
X209080Y943870D02*
X199080Y943870D01*
X199080Y944820D02*
X209080Y944820D01*
X209080Y945770D02*
X199080Y945770D01*
X199080Y946720D02*
X209080Y946720D01*
X209080Y947670D02*
X199080Y947670D01*
X199080Y948620D02*
X209080Y948620D01*
X209080Y949570D02*
X199080Y949570D01*
X199080Y950520D02*
X209080Y950520D01*
X209080Y951470D02*
X199080Y951470D01*
X192080Y968320D02*
X182080Y968320D01*
X182080Y977320D01*
X192080Y977320D01*
X192080Y968320D01*
X192080Y969270D02*
X182080Y969270D01*
X182080Y970220D02*
X192080Y970220D01*
X192080Y971170D02*
X182080Y971170D01*
X182080Y972120D02*
X192080Y972120D01*
X192080Y973070D02*
X182080Y973070D01*
X182080Y974020D02*
X192080Y974020D01*
X192080Y974970D02*
X182080Y974970D01*
X182080Y975920D02*
X192080Y975920D01*
X192080Y976870D02*
X182080Y976870D01*
X199080Y968320D02*
X209080Y968320D01*
X199080Y968320D02*
X199080Y977320D01*
X209080Y977320D01*
X209080Y968320D01*
X209080Y969270D02*
X199080Y969270D01*
X199080Y970220D02*
X209080Y970220D01*
X209080Y971170D02*
X199080Y971170D01*
X199080Y972120D02*
X209080Y972120D01*
X209080Y973070D02*
X199080Y973070D01*
X199080Y974020D02*
X209080Y974020D01*
X209080Y974970D02*
X199080Y974970D01*
X199080Y975920D02*
X209080Y975920D01*
X209080Y976870D02*
X199080Y976870D01*
X301460Y942920D02*
X311460Y942920D01*
X301460Y942920D02*
X301460Y951920D01*
X311460Y951920D01*
X311460Y942920D01*
X311460Y943870D02*
X301460Y943870D01*
X301460Y944820D02*
X311460Y944820D01*
X311460Y945770D02*
X301460Y945770D01*
X301460Y946720D02*
X311460Y946720D01*
X311460Y947670D02*
X301460Y947670D01*
X301460Y948620D02*
X311460Y948620D01*
X311460Y949570D02*
X301460Y949570D01*
X301460Y950520D02*
X311460Y950520D01*
X311460Y951470D02*
X301460Y951470D01*
X318460Y942920D02*
X328460Y942920D01*
X318460Y942920D02*
X318460Y951920D01*
X328460Y951920D01*
X328460Y942920D01*
X328460Y943870D02*
X318460Y943870D01*
X318460Y944820D02*
X328460Y944820D01*
X328460Y945770D02*
X318460Y945770D01*
X318460Y946720D02*
X328460Y946720D01*
X328460Y947670D02*
X318460Y947670D01*
X318460Y948620D02*
X328460Y948620D01*
X328460Y949570D02*
X318460Y949570D01*
X318460Y950520D02*
X328460Y950520D01*
X328460Y951470D02*
X318460Y951470D01*
X311460Y968320D02*
X301460Y968320D01*
X301460Y977320D01*
X311460Y977320D01*
X311460Y968320D01*
X311460Y969270D02*
X301460Y969270D01*
X301460Y970220D02*
X311460Y970220D01*
X311460Y971170D02*
X301460Y971170D01*
X301460Y972120D02*
X311460Y972120D01*
X311460Y973070D02*
X301460Y973070D01*
X301460Y974020D02*
X311460Y974020D01*
X311460Y974970D02*
X301460Y974970D01*
X301460Y975920D02*
X311460Y975920D01*
X311460Y976870D02*
X301460Y976870D01*
X318460Y968320D02*
X328460Y968320D01*
X318460Y968320D02*
X318460Y977320D01*
X328460Y977320D01*
X328460Y968320D01*
X328460Y969270D02*
X318460Y969270D01*
X318460Y970220D02*
X328460Y970220D01*
X328460Y971170D02*
X318460Y971170D01*
X318460Y972120D02*
X328460Y972120D01*
X328460Y973070D02*
X318460Y973070D01*
X318460Y974020D02*
X328460Y974020D01*
X328460Y974970D02*
X318460Y974970D01*
X318460Y975920D02*
X328460Y975920D01*
X328460Y976870D02*
X318460Y976870D01*
X420840Y942920D02*
X430840Y942920D01*
X420840Y942920D02*
X420840Y951920D01*
X430840Y951920D01*
X430840Y942920D01*
X430840Y943870D02*
X420840Y943870D01*
X420840Y944820D02*
X430840Y944820D01*
X430840Y945770D02*
X420840Y945770D01*
X420840Y946720D02*
X430840Y946720D01*
X430840Y947670D02*
X420840Y947670D01*
X420840Y948620D02*
X430840Y948620D01*
X430840Y949570D02*
X420840Y949570D01*
X420840Y950520D02*
X430840Y950520D01*
X430840Y951470D02*
X420840Y951470D01*
X437840Y942920D02*
X447840Y942920D01*
X437840Y942920D02*
X437840Y951920D01*
X447840Y951920D01*
X447840Y942920D01*
X447840Y943870D02*
X437840Y943870D01*
X437840Y944820D02*
X447840Y944820D01*
X447840Y945770D02*
X437840Y945770D01*
X437840Y946720D02*
X447840Y946720D01*
X447840Y947670D02*
X437840Y947670D01*
X437840Y948620D02*
X447840Y948620D01*
X447840Y949570D02*
X437840Y949570D01*
X437840Y950520D02*
X447840Y950520D01*
X447840Y951470D02*
X437840Y951470D01*
X430840Y968320D02*
X420840Y968320D01*
X420840Y977320D01*
X430840Y977320D01*
X430840Y968320D01*
X430840Y969270D02*
X420840Y969270D01*
X420840Y970220D02*
X430840Y970220D01*
X430840Y971170D02*
X420840Y971170D01*
X420840Y972120D02*
X430840Y972120D01*
X430840Y973070D02*
X420840Y973070D01*
X420840Y974020D02*
X430840Y974020D01*
X430840Y974970D02*
X420840Y974970D01*
X420840Y975920D02*
X430840Y975920D01*
X430840Y976870D02*
X420840Y976870D01*
X437840Y968320D02*
X447840Y968320D01*
X437840Y968320D02*
X437840Y977320D01*
X447840Y977320D01*
X447840Y968320D01*
X447840Y969270D02*
X437840Y969270D01*
X437840Y970220D02*
X447840Y970220D01*
X447840Y971170D02*
X437840Y971170D01*
X437840Y972120D02*
X447840Y972120D01*
X447840Y973070D02*
X437840Y973070D01*
X437840Y974020D02*
X447840Y974020D01*
X447840Y974970D02*
X437840Y974970D01*
X437840Y975920D02*
X447840Y975920D01*
X447840Y976870D02*
X437840Y976870D01*
X540220Y942920D02*
X550220Y942920D01*
X540220Y942920D02*
X540220Y951920D01*
X550220Y951920D01*
X550220Y942920D01*
X550220Y943870D02*
X540220Y943870D01*
X540220Y944820D02*
X550220Y944820D01*
X550220Y945770D02*
X540220Y945770D01*
X540220Y946720D02*
X550220Y946720D01*
X550220Y947670D02*
X540220Y947670D01*
X540220Y948620D02*
X550220Y948620D01*
X550220Y949570D02*
X540220Y949570D01*
X540220Y950520D02*
X550220Y950520D01*
X550220Y951470D02*
X540220Y951470D01*
X557220Y942920D02*
X567220Y942920D01*
X557220Y942920D02*
X557220Y951920D01*
X567220Y951920D01*
X567220Y942920D01*
X567220Y943870D02*
X557220Y943870D01*
X557220Y944820D02*
X567220Y944820D01*
X567220Y945770D02*
X557220Y945770D01*
X557220Y946720D02*
X567220Y946720D01*
X567220Y947670D02*
X557220Y947670D01*
X557220Y948620D02*
X567220Y948620D01*
X567220Y949570D02*
X557220Y949570D01*
X557220Y950520D02*
X567220Y950520D01*
X567220Y951470D02*
X557220Y951470D01*
X550220Y968320D02*
X540220Y968320D01*
X540220Y977320D01*
X550220Y977320D01*
X550220Y968320D01*
X550220Y969270D02*
X540220Y969270D01*
X540220Y970220D02*
X550220Y970220D01*
X550220Y971170D02*
X540220Y971170D01*
X540220Y972120D02*
X550220Y972120D01*
X550220Y973070D02*
X540220Y973070D01*
X540220Y974020D02*
X550220Y974020D01*
X550220Y974970D02*
X540220Y974970D01*
X540220Y975920D02*
X550220Y975920D01*
X550220Y976870D02*
X540220Y976870D01*
X557220Y968320D02*
X567220Y968320D01*
X557220Y968320D02*
X557220Y977320D01*
X567220Y977320D01*
X567220Y968320D01*
X567220Y969270D02*
X557220Y969270D01*
X557220Y970220D02*
X567220Y970220D01*
X567220Y971170D02*
X557220Y971170D01*
X557220Y972120D02*
X567220Y972120D01*
X567220Y973070D02*
X557220Y973070D01*
X557220Y974020D02*
X567220Y974020D01*
X567220Y974970D02*
X557220Y974970D01*
X557220Y975920D02*
X567220Y975920D01*
X567220Y976870D02*
X557220Y976870D01*
X659600Y942920D02*
X669600Y942920D01*
X659600Y942920D02*
X659600Y951920D01*
X669600Y951920D01*
X669600Y942920D01*
X669600Y943870D02*
X659600Y943870D01*
X659600Y944820D02*
X669600Y944820D01*
X669600Y945770D02*
X659600Y945770D01*
X659600Y946720D02*
X669600Y946720D01*
X669600Y947670D02*
X659600Y947670D01*
X659600Y948620D02*
X669600Y948620D01*
X669600Y949570D02*
X659600Y949570D01*
X659600Y950520D02*
X669600Y950520D01*
X669600Y951470D02*
X659600Y951470D01*
X676600Y942920D02*
X686600Y942920D01*
X676600Y942920D02*
X676600Y951920D01*
X686600Y951920D01*
X686600Y942920D01*
X686600Y943870D02*
X676600Y943870D01*
X676600Y944820D02*
X686600Y944820D01*
X686600Y945770D02*
X676600Y945770D01*
X676600Y946720D02*
X686600Y946720D01*
X686600Y947670D02*
X676600Y947670D01*
X676600Y948620D02*
X686600Y948620D01*
X686600Y949570D02*
X676600Y949570D01*
X676600Y950520D02*
X686600Y950520D01*
X686600Y951470D02*
X676600Y951470D01*
X669600Y968320D02*
X659600Y968320D01*
X659600Y977320D01*
X669600Y977320D01*
X669600Y968320D01*
X669600Y969270D02*
X659600Y969270D01*
X659600Y970220D02*
X669600Y970220D01*
X669600Y971170D02*
X659600Y971170D01*
X659600Y972120D02*
X669600Y972120D01*
X669600Y973070D02*
X659600Y973070D01*
X659600Y974020D02*
X669600Y974020D01*
X669600Y974970D02*
X659600Y974970D01*
X659600Y975920D02*
X669600Y975920D01*
X669600Y976870D02*
X659600Y976870D01*
X676600Y968320D02*
X686600Y968320D01*
X676600Y968320D02*
X676600Y977320D01*
X686600Y977320D01*
X686600Y968320D01*
X686600Y969270D02*
X676600Y969270D01*
X676600Y970220D02*
X686600Y970220D01*
X686600Y971170D02*
X676600Y971170D01*
X676600Y972120D02*
X686600Y972120D01*
X686600Y973070D02*
X676600Y973070D01*
X676600Y974020D02*
X686600Y974020D01*
X686600Y974970D02*
X676600Y974970D01*
X676600Y975920D02*
X686600Y975920D01*
X686600Y976870D02*
X676600Y976870D01*
X778980Y942920D02*
X788980Y942920D01*
X778980Y942920D02*
X778980Y951920D01*
X788980Y951920D01*
X788980Y942920D01*
X788980Y943870D02*
X778980Y943870D01*
X778980Y944820D02*
X788980Y944820D01*
X788980Y945770D02*
X778980Y945770D01*
X778980Y946720D02*
X788980Y946720D01*
X788980Y947670D02*
X778980Y947670D01*
X778980Y948620D02*
X788980Y948620D01*
X788980Y949570D02*
X778980Y949570D01*
X778980Y950520D02*
X788980Y950520D01*
X788980Y951470D02*
X778980Y951470D01*
X795980Y942920D02*
X805980Y942920D01*
X795980Y942920D02*
X795980Y951920D01*
X805980Y951920D01*
X805980Y942920D01*
X805980Y943870D02*
X795980Y943870D01*
X795980Y944820D02*
X805980Y944820D01*
X805980Y945770D02*
X795980Y945770D01*
X795980Y946720D02*
X805980Y946720D01*
X805980Y947670D02*
X795980Y947670D01*
X795980Y948620D02*
X805980Y948620D01*
X805980Y949570D02*
X795980Y949570D01*
X795980Y950520D02*
X805980Y950520D01*
X805980Y951470D02*
X795980Y951470D01*
X788980Y968320D02*
X778980Y968320D01*
X778980Y977320D01*
X788980Y977320D01*
X788980Y968320D01*
X788980Y969270D02*
X778980Y969270D01*
X778980Y970220D02*
X788980Y970220D01*
X788980Y971170D02*
X778980Y971170D01*
X778980Y972120D02*
X788980Y972120D01*
X788980Y973070D02*
X778980Y973070D01*
X778980Y974020D02*
X788980Y974020D01*
X788980Y974970D02*
X778980Y974970D01*
X778980Y975920D02*
X788980Y975920D01*
X788980Y976870D02*
X778980Y976870D01*
X795980Y968320D02*
X805980Y968320D01*
X795980Y968320D02*
X795980Y977320D01*
X805980Y977320D01*
X805980Y968320D01*
X805980Y969270D02*
X795980Y969270D01*
X795980Y970220D02*
X805980Y970220D01*
X805980Y971170D02*
X795980Y971170D01*
X795980Y972120D02*
X805980Y972120D01*
X805980Y973070D02*
X795980Y973070D01*
X795980Y974020D02*
X805980Y974020D01*
X805980Y974970D02*
X795980Y974970D01*
X795980Y975920D02*
X805980Y975920D01*
X805980Y976870D02*
X795980Y976870D01*
X898360Y942920D02*
X908360Y942920D01*
X898360Y942920D02*
X898360Y951920D01*
X908360Y951920D01*
X908360Y942920D01*
X908360Y943870D02*
X898360Y943870D01*
X898360Y944820D02*
X908360Y944820D01*
X908360Y945770D02*
X898360Y945770D01*
X898360Y946720D02*
X908360Y946720D01*
X908360Y947670D02*
X898360Y947670D01*
X898360Y948620D02*
X908360Y948620D01*
X908360Y949570D02*
X898360Y949570D01*
X898360Y950520D02*
X908360Y950520D01*
X908360Y951470D02*
X898360Y951470D01*
X915360Y942920D02*
X925360Y942920D01*
X915360Y942920D02*
X915360Y951920D01*
X925360Y951920D01*
X925360Y942920D01*
X925360Y943870D02*
X915360Y943870D01*
X915360Y944820D02*
X925360Y944820D01*
X925360Y945770D02*
X915360Y945770D01*
X915360Y946720D02*
X925360Y946720D01*
X925360Y947670D02*
X915360Y947670D01*
X915360Y948620D02*
X925360Y948620D01*
X925360Y949570D02*
X915360Y949570D01*
X915360Y950520D02*
X925360Y950520D01*
X925360Y951470D02*
X915360Y951470D01*
X908360Y968320D02*
X898360Y968320D01*
X898360Y977320D01*
X908360Y977320D01*
X908360Y968320D01*
X908360Y969270D02*
X898360Y969270D01*
X898360Y970220D02*
X908360Y970220D01*
X908360Y971170D02*
X898360Y971170D01*
X898360Y972120D02*
X908360Y972120D01*
X908360Y973070D02*
X898360Y973070D01*
X898360Y974020D02*
X908360Y974020D01*
X908360Y974970D02*
X898360Y974970D01*
X898360Y975920D02*
X908360Y975920D01*
X908360Y976870D02*
X898360Y976870D01*
X915360Y968320D02*
X925360Y968320D01*
X915360Y968320D02*
X915360Y977320D01*
X925360Y977320D01*
X925360Y968320D01*
X925360Y969270D02*
X915360Y969270D01*
X915360Y970220D02*
X925360Y970220D01*
X925360Y971170D02*
X915360Y971170D01*
X915360Y972120D02*
X925360Y972120D01*
X925360Y973070D02*
X915360Y973070D01*
X915360Y974020D02*
X925360Y974020D01*
X925360Y974970D02*
X915360Y974970D01*
X915360Y975920D02*
X925360Y975920D01*
X925360Y976870D02*
X915360Y976870D01*
M02*
