G04 EAGLE Gerber RS-274X export*
G75*
%MOMM*%
%FSLAX34Y34*%
%LPD*%
%INBottom Copper*%
%IPPOS*%
%AMOC8*
5,1,8,0,0,1.08239X$1,22.5*%
G01*
%ADD10C,0.635000*%
%ADD11C,0.100000*%
%ADD12C,0.101600*%
%ADD13C,0.654000*%
%ADD14C,0.800000*%
%ADD15C,1.000000*%
%ADD16C,1.879600*%
%ADD17C,1.000000*%
%ADD18C,1.500000*%
%ADD19C,0.304800*%
%ADD20C,0.558800*%
%ADD21C,0.177800*%


D10*
X6350Y196850D03*
X107950Y6350D03*
D11*
X72700Y109800D02*
X62700Y109800D01*
X62700Y118800D01*
X72700Y118800D01*
X72700Y109800D01*
X72700Y110750D02*
X62700Y110750D01*
X62700Y111700D02*
X72700Y111700D01*
X72700Y112650D02*
X62700Y112650D01*
X62700Y113600D02*
X72700Y113600D01*
X72700Y114550D02*
X62700Y114550D01*
X62700Y115500D02*
X72700Y115500D01*
X72700Y116450D02*
X62700Y116450D01*
X62700Y117400D02*
X72700Y117400D01*
X72700Y118350D02*
X62700Y118350D01*
X79700Y109800D02*
X89700Y109800D01*
X79700Y109800D02*
X79700Y118800D01*
X89700Y118800D01*
X89700Y109800D01*
X89700Y110750D02*
X79700Y110750D01*
X79700Y111700D02*
X89700Y111700D01*
X89700Y112650D02*
X79700Y112650D01*
X79700Y113600D02*
X89700Y113600D01*
X89700Y114550D02*
X79700Y114550D01*
X79700Y115500D02*
X89700Y115500D01*
X89700Y116450D02*
X79700Y116450D01*
X79700Y117400D02*
X89700Y117400D01*
X89700Y118350D02*
X79700Y118350D01*
D12*
X58293Y187198D02*
X52959Y187198D01*
X52959Y198882D01*
X58293Y198882D01*
X58293Y187198D01*
X58293Y188163D02*
X52959Y188163D01*
X52959Y189128D02*
X58293Y189128D01*
X58293Y190093D02*
X52959Y190093D01*
X52959Y191058D02*
X58293Y191058D01*
X58293Y192023D02*
X52959Y192023D01*
X52959Y192988D02*
X58293Y192988D01*
X58293Y193953D02*
X52959Y193953D01*
X52959Y194918D02*
X58293Y194918D01*
X58293Y195883D02*
X52959Y195883D01*
X52959Y196848D02*
X58293Y196848D01*
X58293Y197813D02*
X52959Y197813D01*
X52959Y198778D02*
X58293Y198778D01*
X61087Y187198D02*
X66421Y187198D01*
X61087Y187198D02*
X61087Y198882D01*
X66421Y198882D01*
X66421Y187198D01*
X66421Y188163D02*
X61087Y188163D01*
X61087Y189128D02*
X66421Y189128D01*
X66421Y190093D02*
X61087Y190093D01*
X61087Y191058D02*
X66421Y191058D01*
X66421Y192023D02*
X61087Y192023D01*
X61087Y192988D02*
X66421Y192988D01*
X66421Y193953D02*
X61087Y193953D01*
X61087Y194918D02*
X66421Y194918D01*
X66421Y195883D02*
X61087Y195883D01*
X61087Y196848D02*
X66421Y196848D01*
X66421Y197813D02*
X61087Y197813D01*
X61087Y198778D02*
X66421Y198778D01*
D13*
X8640Y124870D02*
X8640Y118330D01*
D14*
X20690Y97100D03*
X20690Y106100D03*
X35190Y97100D03*
X35190Y106100D03*
X20690Y88100D03*
X35190Y115100D03*
X35190Y124600D03*
X35190Y134100D03*
X35190Y78600D03*
X35190Y69100D03*
X20690Y78600D03*
X20690Y69100D03*
X20690Y124600D03*
X20690Y134100D03*
D13*
X8640Y84870D02*
X8640Y78330D01*
X47240Y118330D02*
X47240Y124870D01*
X47240Y84870D02*
X47240Y78330D01*
D15*
X47240Y116600D02*
X47240Y126600D01*
X47240Y86600D02*
X47240Y76600D01*
X8640Y76600D02*
X8640Y86600D01*
X8640Y116600D02*
X8640Y126600D01*
D16*
X101600Y177800D03*
X101600Y152400D03*
X101600Y127000D03*
X101600Y101600D03*
X101600Y76200D03*
X101600Y50800D03*
X101600Y25400D03*
D11*
X72700Y135200D02*
X62700Y135200D01*
X62700Y144200D01*
X72700Y144200D01*
X72700Y135200D01*
X72700Y136150D02*
X62700Y136150D01*
X62700Y137100D02*
X72700Y137100D01*
X72700Y138050D02*
X62700Y138050D01*
X62700Y139000D02*
X72700Y139000D01*
X72700Y139950D02*
X62700Y139950D01*
X62700Y140900D02*
X72700Y140900D01*
X72700Y141850D02*
X62700Y141850D01*
X62700Y142800D02*
X72700Y142800D01*
X72700Y143750D02*
X62700Y143750D01*
X79700Y135200D02*
X89700Y135200D01*
X79700Y135200D02*
X79700Y144200D01*
X89700Y144200D01*
X89700Y135200D01*
X89700Y136150D02*
X79700Y136150D01*
X79700Y137100D02*
X89700Y137100D01*
X89700Y138050D02*
X79700Y138050D01*
X79700Y139000D02*
X89700Y139000D01*
X89700Y139950D02*
X79700Y139950D01*
X79700Y140900D02*
X89700Y140900D01*
X89700Y141850D02*
X79700Y141850D01*
X79700Y142800D02*
X89700Y142800D01*
X89700Y143750D02*
X79700Y143750D01*
D10*
X125730Y196850D03*
X227330Y6350D03*
D11*
X192080Y109800D02*
X182080Y109800D01*
X182080Y118800D01*
X192080Y118800D01*
X192080Y109800D01*
X192080Y110750D02*
X182080Y110750D01*
X182080Y111700D02*
X192080Y111700D01*
X192080Y112650D02*
X182080Y112650D01*
X182080Y113600D02*
X192080Y113600D01*
X192080Y114550D02*
X182080Y114550D01*
X182080Y115500D02*
X192080Y115500D01*
X192080Y116450D02*
X182080Y116450D01*
X182080Y117400D02*
X192080Y117400D01*
X192080Y118350D02*
X182080Y118350D01*
X199080Y109800D02*
X209080Y109800D01*
X199080Y109800D02*
X199080Y118800D01*
X209080Y118800D01*
X209080Y109800D01*
X209080Y110750D02*
X199080Y110750D01*
X199080Y111700D02*
X209080Y111700D01*
X209080Y112650D02*
X199080Y112650D01*
X199080Y113600D02*
X209080Y113600D01*
X209080Y114550D02*
X199080Y114550D01*
X199080Y115500D02*
X209080Y115500D01*
X209080Y116450D02*
X199080Y116450D01*
X199080Y117400D02*
X209080Y117400D01*
X209080Y118350D02*
X199080Y118350D01*
D12*
X177673Y187198D02*
X172339Y187198D01*
X172339Y198882D01*
X177673Y198882D01*
X177673Y187198D01*
X177673Y188163D02*
X172339Y188163D01*
X172339Y189128D02*
X177673Y189128D01*
X177673Y190093D02*
X172339Y190093D01*
X172339Y191058D02*
X177673Y191058D01*
X177673Y192023D02*
X172339Y192023D01*
X172339Y192988D02*
X177673Y192988D01*
X177673Y193953D02*
X172339Y193953D01*
X172339Y194918D02*
X177673Y194918D01*
X177673Y195883D02*
X172339Y195883D01*
X172339Y196848D02*
X177673Y196848D01*
X177673Y197813D02*
X172339Y197813D01*
X172339Y198778D02*
X177673Y198778D01*
X180467Y187198D02*
X185801Y187198D01*
X180467Y187198D02*
X180467Y198882D01*
X185801Y198882D01*
X185801Y187198D01*
X185801Y188163D02*
X180467Y188163D01*
X180467Y189128D02*
X185801Y189128D01*
X185801Y190093D02*
X180467Y190093D01*
X180467Y191058D02*
X185801Y191058D01*
X185801Y192023D02*
X180467Y192023D01*
X180467Y192988D02*
X185801Y192988D01*
X185801Y193953D02*
X180467Y193953D01*
X180467Y194918D02*
X185801Y194918D01*
X185801Y195883D02*
X180467Y195883D01*
X180467Y196848D02*
X185801Y196848D01*
X185801Y197813D02*
X180467Y197813D01*
X180467Y198778D02*
X185801Y198778D01*
D13*
X128020Y124870D02*
X128020Y118330D01*
D14*
X140070Y97100D03*
X140070Y106100D03*
X154570Y97100D03*
X154570Y106100D03*
X140070Y88100D03*
X154570Y115100D03*
X154570Y124600D03*
X154570Y134100D03*
X154570Y78600D03*
X154570Y69100D03*
X140070Y78600D03*
X140070Y69100D03*
X140070Y124600D03*
X140070Y134100D03*
D13*
X128020Y84870D02*
X128020Y78330D01*
X166620Y118330D02*
X166620Y124870D01*
X166620Y84870D02*
X166620Y78330D01*
D15*
X166620Y116600D02*
X166620Y126600D01*
X166620Y86600D02*
X166620Y76600D01*
X128020Y76600D02*
X128020Y86600D01*
X128020Y116600D02*
X128020Y126600D01*
D16*
X220980Y177800D03*
X220980Y152400D03*
X220980Y127000D03*
X220980Y101600D03*
X220980Y76200D03*
X220980Y50800D03*
X220980Y25400D03*
D11*
X192080Y135200D02*
X182080Y135200D01*
X182080Y144200D01*
X192080Y144200D01*
X192080Y135200D01*
X192080Y136150D02*
X182080Y136150D01*
X182080Y137100D02*
X192080Y137100D01*
X192080Y138050D02*
X182080Y138050D01*
X182080Y139000D02*
X192080Y139000D01*
X192080Y139950D02*
X182080Y139950D01*
X182080Y140900D02*
X192080Y140900D01*
X192080Y141850D02*
X182080Y141850D01*
X182080Y142800D02*
X192080Y142800D01*
X192080Y143750D02*
X182080Y143750D01*
X199080Y135200D02*
X209080Y135200D01*
X199080Y135200D02*
X199080Y144200D01*
X209080Y144200D01*
X209080Y135200D01*
X209080Y136150D02*
X199080Y136150D01*
X199080Y137100D02*
X209080Y137100D01*
X209080Y138050D02*
X199080Y138050D01*
X199080Y139000D02*
X209080Y139000D01*
X209080Y139950D02*
X199080Y139950D01*
X199080Y140900D02*
X209080Y140900D01*
X209080Y141850D02*
X199080Y141850D01*
X199080Y142800D02*
X209080Y142800D01*
X209080Y143750D02*
X199080Y143750D01*
D10*
X245110Y196850D03*
X346710Y6350D03*
D11*
X311460Y109800D02*
X301460Y109800D01*
X301460Y118800D01*
X311460Y118800D01*
X311460Y109800D01*
X311460Y110750D02*
X301460Y110750D01*
X301460Y111700D02*
X311460Y111700D01*
X311460Y112650D02*
X301460Y112650D01*
X301460Y113600D02*
X311460Y113600D01*
X311460Y114550D02*
X301460Y114550D01*
X301460Y115500D02*
X311460Y115500D01*
X311460Y116450D02*
X301460Y116450D01*
X301460Y117400D02*
X311460Y117400D01*
X311460Y118350D02*
X301460Y118350D01*
X318460Y109800D02*
X328460Y109800D01*
X318460Y109800D02*
X318460Y118800D01*
X328460Y118800D01*
X328460Y109800D01*
X328460Y110750D02*
X318460Y110750D01*
X318460Y111700D02*
X328460Y111700D01*
X328460Y112650D02*
X318460Y112650D01*
X318460Y113600D02*
X328460Y113600D01*
X328460Y114550D02*
X318460Y114550D01*
X318460Y115500D02*
X328460Y115500D01*
X328460Y116450D02*
X318460Y116450D01*
X318460Y117400D02*
X328460Y117400D01*
X328460Y118350D02*
X318460Y118350D01*
D12*
X297053Y187198D02*
X291719Y187198D01*
X291719Y198882D01*
X297053Y198882D01*
X297053Y187198D01*
X297053Y188163D02*
X291719Y188163D01*
X291719Y189128D02*
X297053Y189128D01*
X297053Y190093D02*
X291719Y190093D01*
X291719Y191058D02*
X297053Y191058D01*
X297053Y192023D02*
X291719Y192023D01*
X291719Y192988D02*
X297053Y192988D01*
X297053Y193953D02*
X291719Y193953D01*
X291719Y194918D02*
X297053Y194918D01*
X297053Y195883D02*
X291719Y195883D01*
X291719Y196848D02*
X297053Y196848D01*
X297053Y197813D02*
X291719Y197813D01*
X291719Y198778D02*
X297053Y198778D01*
X299847Y187198D02*
X305181Y187198D01*
X299847Y187198D02*
X299847Y198882D01*
X305181Y198882D01*
X305181Y187198D01*
X305181Y188163D02*
X299847Y188163D01*
X299847Y189128D02*
X305181Y189128D01*
X305181Y190093D02*
X299847Y190093D01*
X299847Y191058D02*
X305181Y191058D01*
X305181Y192023D02*
X299847Y192023D01*
X299847Y192988D02*
X305181Y192988D01*
X305181Y193953D02*
X299847Y193953D01*
X299847Y194918D02*
X305181Y194918D01*
X305181Y195883D02*
X299847Y195883D01*
X299847Y196848D02*
X305181Y196848D01*
X305181Y197813D02*
X299847Y197813D01*
X299847Y198778D02*
X305181Y198778D01*
D13*
X247400Y124870D02*
X247400Y118330D01*
D14*
X259450Y97100D03*
X259450Y106100D03*
X273950Y97100D03*
X273950Y106100D03*
X259450Y88100D03*
X273950Y115100D03*
X273950Y124600D03*
X273950Y134100D03*
X273950Y78600D03*
X273950Y69100D03*
X259450Y78600D03*
X259450Y69100D03*
X259450Y124600D03*
X259450Y134100D03*
D13*
X247400Y84870D02*
X247400Y78330D01*
X286000Y118330D02*
X286000Y124870D01*
X286000Y84870D02*
X286000Y78330D01*
D15*
X286000Y116600D02*
X286000Y126600D01*
X286000Y86600D02*
X286000Y76600D01*
X247400Y76600D02*
X247400Y86600D01*
X247400Y116600D02*
X247400Y126600D01*
D16*
X340360Y177800D03*
X340360Y152400D03*
X340360Y127000D03*
X340360Y101600D03*
X340360Y76200D03*
X340360Y50800D03*
X340360Y25400D03*
D11*
X311460Y135200D02*
X301460Y135200D01*
X301460Y144200D01*
X311460Y144200D01*
X311460Y135200D01*
X311460Y136150D02*
X301460Y136150D01*
X301460Y137100D02*
X311460Y137100D01*
X311460Y138050D02*
X301460Y138050D01*
X301460Y139000D02*
X311460Y139000D01*
X311460Y139950D02*
X301460Y139950D01*
X301460Y140900D02*
X311460Y140900D01*
X311460Y141850D02*
X301460Y141850D01*
X301460Y142800D02*
X311460Y142800D01*
X311460Y143750D02*
X301460Y143750D01*
X318460Y135200D02*
X328460Y135200D01*
X318460Y135200D02*
X318460Y144200D01*
X328460Y144200D01*
X328460Y135200D01*
X328460Y136150D02*
X318460Y136150D01*
X318460Y137100D02*
X328460Y137100D01*
X328460Y138050D02*
X318460Y138050D01*
X318460Y139000D02*
X328460Y139000D01*
X328460Y139950D02*
X318460Y139950D01*
X318460Y140900D02*
X328460Y140900D01*
X328460Y141850D02*
X318460Y141850D01*
X318460Y142800D02*
X328460Y142800D01*
X328460Y143750D02*
X318460Y143750D01*
D10*
X364490Y196850D03*
X466090Y6350D03*
D11*
X430840Y109800D02*
X420840Y109800D01*
X420840Y118800D01*
X430840Y118800D01*
X430840Y109800D01*
X430840Y110750D02*
X420840Y110750D01*
X420840Y111700D02*
X430840Y111700D01*
X430840Y112650D02*
X420840Y112650D01*
X420840Y113600D02*
X430840Y113600D01*
X430840Y114550D02*
X420840Y114550D01*
X420840Y115500D02*
X430840Y115500D01*
X430840Y116450D02*
X420840Y116450D01*
X420840Y117400D02*
X430840Y117400D01*
X430840Y118350D02*
X420840Y118350D01*
X437840Y109800D02*
X447840Y109800D01*
X437840Y109800D02*
X437840Y118800D01*
X447840Y118800D01*
X447840Y109800D01*
X447840Y110750D02*
X437840Y110750D01*
X437840Y111700D02*
X447840Y111700D01*
X447840Y112650D02*
X437840Y112650D01*
X437840Y113600D02*
X447840Y113600D01*
X447840Y114550D02*
X437840Y114550D01*
X437840Y115500D02*
X447840Y115500D01*
X447840Y116450D02*
X437840Y116450D01*
X437840Y117400D02*
X447840Y117400D01*
X447840Y118350D02*
X437840Y118350D01*
D12*
X416433Y187198D02*
X411099Y187198D01*
X411099Y198882D01*
X416433Y198882D01*
X416433Y187198D01*
X416433Y188163D02*
X411099Y188163D01*
X411099Y189128D02*
X416433Y189128D01*
X416433Y190093D02*
X411099Y190093D01*
X411099Y191058D02*
X416433Y191058D01*
X416433Y192023D02*
X411099Y192023D01*
X411099Y192988D02*
X416433Y192988D01*
X416433Y193953D02*
X411099Y193953D01*
X411099Y194918D02*
X416433Y194918D01*
X416433Y195883D02*
X411099Y195883D01*
X411099Y196848D02*
X416433Y196848D01*
X416433Y197813D02*
X411099Y197813D01*
X411099Y198778D02*
X416433Y198778D01*
X419227Y187198D02*
X424561Y187198D01*
X419227Y187198D02*
X419227Y198882D01*
X424561Y198882D01*
X424561Y187198D01*
X424561Y188163D02*
X419227Y188163D01*
X419227Y189128D02*
X424561Y189128D01*
X424561Y190093D02*
X419227Y190093D01*
X419227Y191058D02*
X424561Y191058D01*
X424561Y192023D02*
X419227Y192023D01*
X419227Y192988D02*
X424561Y192988D01*
X424561Y193953D02*
X419227Y193953D01*
X419227Y194918D02*
X424561Y194918D01*
X424561Y195883D02*
X419227Y195883D01*
X419227Y196848D02*
X424561Y196848D01*
X424561Y197813D02*
X419227Y197813D01*
X419227Y198778D02*
X424561Y198778D01*
D13*
X366780Y124870D02*
X366780Y118330D01*
D14*
X378830Y97100D03*
X378830Y106100D03*
X393330Y97100D03*
X393330Y106100D03*
X378830Y88100D03*
X393330Y115100D03*
X393330Y124600D03*
X393330Y134100D03*
X393330Y78600D03*
X393330Y69100D03*
X378830Y78600D03*
X378830Y69100D03*
X378830Y124600D03*
X378830Y134100D03*
D13*
X366780Y84870D02*
X366780Y78330D01*
X405380Y118330D02*
X405380Y124870D01*
X405380Y84870D02*
X405380Y78330D01*
D15*
X405380Y116600D02*
X405380Y126600D01*
X405380Y86600D02*
X405380Y76600D01*
X366780Y76600D02*
X366780Y86600D01*
X366780Y116600D02*
X366780Y126600D01*
D16*
X459740Y177800D03*
X459740Y152400D03*
X459740Y127000D03*
X459740Y101600D03*
X459740Y76200D03*
X459740Y50800D03*
X459740Y25400D03*
D11*
X430840Y135200D02*
X420840Y135200D01*
X420840Y144200D01*
X430840Y144200D01*
X430840Y135200D01*
X430840Y136150D02*
X420840Y136150D01*
X420840Y137100D02*
X430840Y137100D01*
X430840Y138050D02*
X420840Y138050D01*
X420840Y139000D02*
X430840Y139000D01*
X430840Y139950D02*
X420840Y139950D01*
X420840Y140900D02*
X430840Y140900D01*
X430840Y141850D02*
X420840Y141850D01*
X420840Y142800D02*
X430840Y142800D01*
X430840Y143750D02*
X420840Y143750D01*
X437840Y135200D02*
X447840Y135200D01*
X437840Y135200D02*
X437840Y144200D01*
X447840Y144200D01*
X447840Y135200D01*
X447840Y136150D02*
X437840Y136150D01*
X437840Y137100D02*
X447840Y137100D01*
X447840Y138050D02*
X437840Y138050D01*
X437840Y139000D02*
X447840Y139000D01*
X447840Y139950D02*
X437840Y139950D01*
X437840Y140900D02*
X447840Y140900D01*
X447840Y141850D02*
X437840Y141850D01*
X437840Y142800D02*
X447840Y142800D01*
X447840Y143750D02*
X437840Y143750D01*
D10*
X483870Y196850D03*
X585470Y6350D03*
D11*
X550220Y109800D02*
X540220Y109800D01*
X540220Y118800D01*
X550220Y118800D01*
X550220Y109800D01*
X550220Y110750D02*
X540220Y110750D01*
X540220Y111700D02*
X550220Y111700D01*
X550220Y112650D02*
X540220Y112650D01*
X540220Y113600D02*
X550220Y113600D01*
X550220Y114550D02*
X540220Y114550D01*
X540220Y115500D02*
X550220Y115500D01*
X550220Y116450D02*
X540220Y116450D01*
X540220Y117400D02*
X550220Y117400D01*
X550220Y118350D02*
X540220Y118350D01*
X557220Y109800D02*
X567220Y109800D01*
X557220Y109800D02*
X557220Y118800D01*
X567220Y118800D01*
X567220Y109800D01*
X567220Y110750D02*
X557220Y110750D01*
X557220Y111700D02*
X567220Y111700D01*
X567220Y112650D02*
X557220Y112650D01*
X557220Y113600D02*
X567220Y113600D01*
X567220Y114550D02*
X557220Y114550D01*
X557220Y115500D02*
X567220Y115500D01*
X567220Y116450D02*
X557220Y116450D01*
X557220Y117400D02*
X567220Y117400D01*
X567220Y118350D02*
X557220Y118350D01*
D12*
X535813Y187198D02*
X530479Y187198D01*
X530479Y198882D01*
X535813Y198882D01*
X535813Y187198D01*
X535813Y188163D02*
X530479Y188163D01*
X530479Y189128D02*
X535813Y189128D01*
X535813Y190093D02*
X530479Y190093D01*
X530479Y191058D02*
X535813Y191058D01*
X535813Y192023D02*
X530479Y192023D01*
X530479Y192988D02*
X535813Y192988D01*
X535813Y193953D02*
X530479Y193953D01*
X530479Y194918D02*
X535813Y194918D01*
X535813Y195883D02*
X530479Y195883D01*
X530479Y196848D02*
X535813Y196848D01*
X535813Y197813D02*
X530479Y197813D01*
X530479Y198778D02*
X535813Y198778D01*
X538607Y187198D02*
X543941Y187198D01*
X538607Y187198D02*
X538607Y198882D01*
X543941Y198882D01*
X543941Y187198D01*
X543941Y188163D02*
X538607Y188163D01*
X538607Y189128D02*
X543941Y189128D01*
X543941Y190093D02*
X538607Y190093D01*
X538607Y191058D02*
X543941Y191058D01*
X543941Y192023D02*
X538607Y192023D01*
X538607Y192988D02*
X543941Y192988D01*
X543941Y193953D02*
X538607Y193953D01*
X538607Y194918D02*
X543941Y194918D01*
X543941Y195883D02*
X538607Y195883D01*
X538607Y196848D02*
X543941Y196848D01*
X543941Y197813D02*
X538607Y197813D01*
X538607Y198778D02*
X543941Y198778D01*
D13*
X486160Y124870D02*
X486160Y118330D01*
D14*
X498210Y97100D03*
X498210Y106100D03*
X512710Y97100D03*
X512710Y106100D03*
X498210Y88100D03*
X512710Y115100D03*
X512710Y124600D03*
X512710Y134100D03*
X512710Y78600D03*
X512710Y69100D03*
X498210Y78600D03*
X498210Y69100D03*
X498210Y124600D03*
X498210Y134100D03*
D13*
X486160Y84870D02*
X486160Y78330D01*
X524760Y118330D02*
X524760Y124870D01*
X524760Y84870D02*
X524760Y78330D01*
D15*
X524760Y116600D02*
X524760Y126600D01*
X524760Y86600D02*
X524760Y76600D01*
X486160Y76600D02*
X486160Y86600D01*
X486160Y116600D02*
X486160Y126600D01*
D16*
X579120Y177800D03*
X579120Y152400D03*
X579120Y127000D03*
X579120Y101600D03*
X579120Y76200D03*
X579120Y50800D03*
X579120Y25400D03*
D11*
X550220Y135200D02*
X540220Y135200D01*
X540220Y144200D01*
X550220Y144200D01*
X550220Y135200D01*
X550220Y136150D02*
X540220Y136150D01*
X540220Y137100D02*
X550220Y137100D01*
X550220Y138050D02*
X540220Y138050D01*
X540220Y139000D02*
X550220Y139000D01*
X550220Y139950D02*
X540220Y139950D01*
X540220Y140900D02*
X550220Y140900D01*
X550220Y141850D02*
X540220Y141850D01*
X540220Y142800D02*
X550220Y142800D01*
X550220Y143750D02*
X540220Y143750D01*
X557220Y135200D02*
X567220Y135200D01*
X557220Y135200D02*
X557220Y144200D01*
X567220Y144200D01*
X567220Y135200D01*
X567220Y136150D02*
X557220Y136150D01*
X557220Y137100D02*
X567220Y137100D01*
X567220Y138050D02*
X557220Y138050D01*
X557220Y139000D02*
X567220Y139000D01*
X567220Y139950D02*
X557220Y139950D01*
X557220Y140900D02*
X567220Y140900D01*
X567220Y141850D02*
X557220Y141850D01*
X557220Y142800D02*
X567220Y142800D01*
X567220Y143750D02*
X557220Y143750D01*
D10*
X603250Y196850D03*
X704850Y6350D03*
D11*
X669600Y109800D02*
X659600Y109800D01*
X659600Y118800D01*
X669600Y118800D01*
X669600Y109800D01*
X669600Y110750D02*
X659600Y110750D01*
X659600Y111700D02*
X669600Y111700D01*
X669600Y112650D02*
X659600Y112650D01*
X659600Y113600D02*
X669600Y113600D01*
X669600Y114550D02*
X659600Y114550D01*
X659600Y115500D02*
X669600Y115500D01*
X669600Y116450D02*
X659600Y116450D01*
X659600Y117400D02*
X669600Y117400D01*
X669600Y118350D02*
X659600Y118350D01*
X676600Y109800D02*
X686600Y109800D01*
X676600Y109800D02*
X676600Y118800D01*
X686600Y118800D01*
X686600Y109800D01*
X686600Y110750D02*
X676600Y110750D01*
X676600Y111700D02*
X686600Y111700D01*
X686600Y112650D02*
X676600Y112650D01*
X676600Y113600D02*
X686600Y113600D01*
X686600Y114550D02*
X676600Y114550D01*
X676600Y115500D02*
X686600Y115500D01*
X686600Y116450D02*
X676600Y116450D01*
X676600Y117400D02*
X686600Y117400D01*
X686600Y118350D02*
X676600Y118350D01*
D12*
X655193Y187198D02*
X649859Y187198D01*
X649859Y198882D01*
X655193Y198882D01*
X655193Y187198D01*
X655193Y188163D02*
X649859Y188163D01*
X649859Y189128D02*
X655193Y189128D01*
X655193Y190093D02*
X649859Y190093D01*
X649859Y191058D02*
X655193Y191058D01*
X655193Y192023D02*
X649859Y192023D01*
X649859Y192988D02*
X655193Y192988D01*
X655193Y193953D02*
X649859Y193953D01*
X649859Y194918D02*
X655193Y194918D01*
X655193Y195883D02*
X649859Y195883D01*
X649859Y196848D02*
X655193Y196848D01*
X655193Y197813D02*
X649859Y197813D01*
X649859Y198778D02*
X655193Y198778D01*
X657987Y187198D02*
X663321Y187198D01*
X657987Y187198D02*
X657987Y198882D01*
X663321Y198882D01*
X663321Y187198D01*
X663321Y188163D02*
X657987Y188163D01*
X657987Y189128D02*
X663321Y189128D01*
X663321Y190093D02*
X657987Y190093D01*
X657987Y191058D02*
X663321Y191058D01*
X663321Y192023D02*
X657987Y192023D01*
X657987Y192988D02*
X663321Y192988D01*
X663321Y193953D02*
X657987Y193953D01*
X657987Y194918D02*
X663321Y194918D01*
X663321Y195883D02*
X657987Y195883D01*
X657987Y196848D02*
X663321Y196848D01*
X663321Y197813D02*
X657987Y197813D01*
X657987Y198778D02*
X663321Y198778D01*
D13*
X605540Y124870D02*
X605540Y118330D01*
D14*
X617590Y97100D03*
X617590Y106100D03*
X632090Y97100D03*
X632090Y106100D03*
X617590Y88100D03*
X632090Y115100D03*
X632090Y124600D03*
X632090Y134100D03*
X632090Y78600D03*
X632090Y69100D03*
X617590Y78600D03*
X617590Y69100D03*
X617590Y124600D03*
X617590Y134100D03*
D13*
X605540Y84870D02*
X605540Y78330D01*
X644140Y118330D02*
X644140Y124870D01*
X644140Y84870D02*
X644140Y78330D01*
D15*
X644140Y116600D02*
X644140Y126600D01*
X644140Y86600D02*
X644140Y76600D01*
X605540Y76600D02*
X605540Y86600D01*
X605540Y116600D02*
X605540Y126600D01*
D16*
X698500Y177800D03*
X698500Y152400D03*
X698500Y127000D03*
X698500Y101600D03*
X698500Y76200D03*
X698500Y50800D03*
X698500Y25400D03*
D11*
X669600Y135200D02*
X659600Y135200D01*
X659600Y144200D01*
X669600Y144200D01*
X669600Y135200D01*
X669600Y136150D02*
X659600Y136150D01*
X659600Y137100D02*
X669600Y137100D01*
X669600Y138050D02*
X659600Y138050D01*
X659600Y139000D02*
X669600Y139000D01*
X669600Y139950D02*
X659600Y139950D01*
X659600Y140900D02*
X669600Y140900D01*
X669600Y141850D02*
X659600Y141850D01*
X659600Y142800D02*
X669600Y142800D01*
X669600Y143750D02*
X659600Y143750D01*
X676600Y135200D02*
X686600Y135200D01*
X676600Y135200D02*
X676600Y144200D01*
X686600Y144200D01*
X686600Y135200D01*
X686600Y136150D02*
X676600Y136150D01*
X676600Y137100D02*
X686600Y137100D01*
X686600Y138050D02*
X676600Y138050D01*
X676600Y139000D02*
X686600Y139000D01*
X686600Y139950D02*
X676600Y139950D01*
X676600Y140900D02*
X686600Y140900D01*
X686600Y141850D02*
X676600Y141850D01*
X676600Y142800D02*
X686600Y142800D01*
X686600Y143750D02*
X676600Y143750D01*
D10*
X722630Y196850D03*
X824230Y6350D03*
D11*
X788980Y109800D02*
X778980Y109800D01*
X778980Y118800D01*
X788980Y118800D01*
X788980Y109800D01*
X788980Y110750D02*
X778980Y110750D01*
X778980Y111700D02*
X788980Y111700D01*
X788980Y112650D02*
X778980Y112650D01*
X778980Y113600D02*
X788980Y113600D01*
X788980Y114550D02*
X778980Y114550D01*
X778980Y115500D02*
X788980Y115500D01*
X788980Y116450D02*
X778980Y116450D01*
X778980Y117400D02*
X788980Y117400D01*
X788980Y118350D02*
X778980Y118350D01*
X795980Y109800D02*
X805980Y109800D01*
X795980Y109800D02*
X795980Y118800D01*
X805980Y118800D01*
X805980Y109800D01*
X805980Y110750D02*
X795980Y110750D01*
X795980Y111700D02*
X805980Y111700D01*
X805980Y112650D02*
X795980Y112650D01*
X795980Y113600D02*
X805980Y113600D01*
X805980Y114550D02*
X795980Y114550D01*
X795980Y115500D02*
X805980Y115500D01*
X805980Y116450D02*
X795980Y116450D01*
X795980Y117400D02*
X805980Y117400D01*
X805980Y118350D02*
X795980Y118350D01*
D12*
X774573Y187198D02*
X769239Y187198D01*
X769239Y198882D01*
X774573Y198882D01*
X774573Y187198D01*
X774573Y188163D02*
X769239Y188163D01*
X769239Y189128D02*
X774573Y189128D01*
X774573Y190093D02*
X769239Y190093D01*
X769239Y191058D02*
X774573Y191058D01*
X774573Y192023D02*
X769239Y192023D01*
X769239Y192988D02*
X774573Y192988D01*
X774573Y193953D02*
X769239Y193953D01*
X769239Y194918D02*
X774573Y194918D01*
X774573Y195883D02*
X769239Y195883D01*
X769239Y196848D02*
X774573Y196848D01*
X774573Y197813D02*
X769239Y197813D01*
X769239Y198778D02*
X774573Y198778D01*
X777367Y187198D02*
X782701Y187198D01*
X777367Y187198D02*
X777367Y198882D01*
X782701Y198882D01*
X782701Y187198D01*
X782701Y188163D02*
X777367Y188163D01*
X777367Y189128D02*
X782701Y189128D01*
X782701Y190093D02*
X777367Y190093D01*
X777367Y191058D02*
X782701Y191058D01*
X782701Y192023D02*
X777367Y192023D01*
X777367Y192988D02*
X782701Y192988D01*
X782701Y193953D02*
X777367Y193953D01*
X777367Y194918D02*
X782701Y194918D01*
X782701Y195883D02*
X777367Y195883D01*
X777367Y196848D02*
X782701Y196848D01*
X782701Y197813D02*
X777367Y197813D01*
X777367Y198778D02*
X782701Y198778D01*
D13*
X724920Y124870D02*
X724920Y118330D01*
D14*
X736970Y97100D03*
X736970Y106100D03*
X751470Y97100D03*
X751470Y106100D03*
X736970Y88100D03*
X751470Y115100D03*
X751470Y124600D03*
X751470Y134100D03*
X751470Y78600D03*
X751470Y69100D03*
X736970Y78600D03*
X736970Y69100D03*
X736970Y124600D03*
X736970Y134100D03*
D13*
X724920Y84870D02*
X724920Y78330D01*
X763520Y118330D02*
X763520Y124870D01*
X763520Y84870D02*
X763520Y78330D01*
D15*
X763520Y116600D02*
X763520Y126600D01*
X763520Y86600D02*
X763520Y76600D01*
X724920Y76600D02*
X724920Y86600D01*
X724920Y116600D02*
X724920Y126600D01*
D16*
X817880Y177800D03*
X817880Y152400D03*
X817880Y127000D03*
X817880Y101600D03*
X817880Y76200D03*
X817880Y50800D03*
X817880Y25400D03*
D11*
X788980Y135200D02*
X778980Y135200D01*
X778980Y144200D01*
X788980Y144200D01*
X788980Y135200D01*
X788980Y136150D02*
X778980Y136150D01*
X778980Y137100D02*
X788980Y137100D01*
X788980Y138050D02*
X778980Y138050D01*
X778980Y139000D02*
X788980Y139000D01*
X788980Y139950D02*
X778980Y139950D01*
X778980Y140900D02*
X788980Y140900D01*
X788980Y141850D02*
X778980Y141850D01*
X778980Y142800D02*
X788980Y142800D01*
X788980Y143750D02*
X778980Y143750D01*
X795980Y135200D02*
X805980Y135200D01*
X795980Y135200D02*
X795980Y144200D01*
X805980Y144200D01*
X805980Y135200D01*
X805980Y136150D02*
X795980Y136150D01*
X795980Y137100D02*
X805980Y137100D01*
X805980Y138050D02*
X795980Y138050D01*
X795980Y139000D02*
X805980Y139000D01*
X805980Y139950D02*
X795980Y139950D01*
X795980Y140900D02*
X805980Y140900D01*
X805980Y141850D02*
X795980Y141850D01*
X795980Y142800D02*
X805980Y142800D01*
X805980Y143750D02*
X795980Y143750D01*
D10*
X842010Y196850D03*
X943610Y6350D03*
D11*
X908360Y109800D02*
X898360Y109800D01*
X898360Y118800D01*
X908360Y118800D01*
X908360Y109800D01*
X908360Y110750D02*
X898360Y110750D01*
X898360Y111700D02*
X908360Y111700D01*
X908360Y112650D02*
X898360Y112650D01*
X898360Y113600D02*
X908360Y113600D01*
X908360Y114550D02*
X898360Y114550D01*
X898360Y115500D02*
X908360Y115500D01*
X908360Y116450D02*
X898360Y116450D01*
X898360Y117400D02*
X908360Y117400D01*
X908360Y118350D02*
X898360Y118350D01*
X915360Y109800D02*
X925360Y109800D01*
X915360Y109800D02*
X915360Y118800D01*
X925360Y118800D01*
X925360Y109800D01*
X925360Y110750D02*
X915360Y110750D01*
X915360Y111700D02*
X925360Y111700D01*
X925360Y112650D02*
X915360Y112650D01*
X915360Y113600D02*
X925360Y113600D01*
X925360Y114550D02*
X915360Y114550D01*
X915360Y115500D02*
X925360Y115500D01*
X925360Y116450D02*
X915360Y116450D01*
X915360Y117400D02*
X925360Y117400D01*
X925360Y118350D02*
X915360Y118350D01*
D12*
X893953Y187198D02*
X888619Y187198D01*
X888619Y198882D01*
X893953Y198882D01*
X893953Y187198D01*
X893953Y188163D02*
X888619Y188163D01*
X888619Y189128D02*
X893953Y189128D01*
X893953Y190093D02*
X888619Y190093D01*
X888619Y191058D02*
X893953Y191058D01*
X893953Y192023D02*
X888619Y192023D01*
X888619Y192988D02*
X893953Y192988D01*
X893953Y193953D02*
X888619Y193953D01*
X888619Y194918D02*
X893953Y194918D01*
X893953Y195883D02*
X888619Y195883D01*
X888619Y196848D02*
X893953Y196848D01*
X893953Y197813D02*
X888619Y197813D01*
X888619Y198778D02*
X893953Y198778D01*
X896747Y187198D02*
X902081Y187198D01*
X896747Y187198D02*
X896747Y198882D01*
X902081Y198882D01*
X902081Y187198D01*
X902081Y188163D02*
X896747Y188163D01*
X896747Y189128D02*
X902081Y189128D01*
X902081Y190093D02*
X896747Y190093D01*
X896747Y191058D02*
X902081Y191058D01*
X902081Y192023D02*
X896747Y192023D01*
X896747Y192988D02*
X902081Y192988D01*
X902081Y193953D02*
X896747Y193953D01*
X896747Y194918D02*
X902081Y194918D01*
X902081Y195883D02*
X896747Y195883D01*
X896747Y196848D02*
X902081Y196848D01*
X902081Y197813D02*
X896747Y197813D01*
X896747Y198778D02*
X902081Y198778D01*
D13*
X844300Y124870D02*
X844300Y118330D01*
D14*
X856350Y97100D03*
X856350Y106100D03*
X870850Y97100D03*
X870850Y106100D03*
X856350Y88100D03*
X870850Y115100D03*
X870850Y124600D03*
X870850Y134100D03*
X870850Y78600D03*
X870850Y69100D03*
X856350Y78600D03*
X856350Y69100D03*
X856350Y124600D03*
X856350Y134100D03*
D13*
X844300Y84870D02*
X844300Y78330D01*
X882900Y118330D02*
X882900Y124870D01*
X882900Y84870D02*
X882900Y78330D01*
D15*
X882900Y116600D02*
X882900Y126600D01*
X882900Y86600D02*
X882900Y76600D01*
X844300Y76600D02*
X844300Y86600D01*
X844300Y116600D02*
X844300Y126600D01*
D16*
X937260Y177800D03*
X937260Y152400D03*
X937260Y127000D03*
X937260Y101600D03*
X937260Y76200D03*
X937260Y50800D03*
X937260Y25400D03*
D11*
X908360Y135200D02*
X898360Y135200D01*
X898360Y144200D01*
X908360Y144200D01*
X908360Y135200D01*
X908360Y136150D02*
X898360Y136150D01*
X898360Y137100D02*
X908360Y137100D01*
X908360Y138050D02*
X898360Y138050D01*
X898360Y139000D02*
X908360Y139000D01*
X908360Y139950D02*
X898360Y139950D01*
X898360Y140900D02*
X908360Y140900D01*
X908360Y141850D02*
X898360Y141850D01*
X898360Y142800D02*
X908360Y142800D01*
X908360Y143750D02*
X898360Y143750D01*
X915360Y135200D02*
X925360Y135200D01*
X915360Y135200D02*
X915360Y144200D01*
X925360Y144200D01*
X925360Y135200D01*
X925360Y136150D02*
X915360Y136150D01*
X915360Y137100D02*
X925360Y137100D01*
X925360Y138050D02*
X915360Y138050D01*
X915360Y139000D02*
X925360Y139000D01*
X925360Y139950D02*
X915360Y139950D01*
X915360Y140900D02*
X925360Y140900D01*
X925360Y141850D02*
X915360Y141850D01*
X915360Y142800D02*
X925360Y142800D01*
X925360Y143750D02*
X915360Y143750D01*
D10*
X6350Y405130D03*
X107950Y214630D03*
D11*
X72700Y318080D02*
X62700Y318080D01*
X62700Y327080D01*
X72700Y327080D01*
X72700Y318080D01*
X72700Y319030D02*
X62700Y319030D01*
X62700Y319980D02*
X72700Y319980D01*
X72700Y320930D02*
X62700Y320930D01*
X62700Y321880D02*
X72700Y321880D01*
X72700Y322830D02*
X62700Y322830D01*
X62700Y323780D02*
X72700Y323780D01*
X72700Y324730D02*
X62700Y324730D01*
X62700Y325680D02*
X72700Y325680D01*
X72700Y326630D02*
X62700Y326630D01*
X79700Y318080D02*
X89700Y318080D01*
X79700Y318080D02*
X79700Y327080D01*
X89700Y327080D01*
X89700Y318080D01*
X89700Y319030D02*
X79700Y319030D01*
X79700Y319980D02*
X89700Y319980D01*
X89700Y320930D02*
X79700Y320930D01*
X79700Y321880D02*
X89700Y321880D01*
X89700Y322830D02*
X79700Y322830D01*
X79700Y323780D02*
X89700Y323780D01*
X89700Y324730D02*
X79700Y324730D01*
X79700Y325680D02*
X89700Y325680D01*
X89700Y326630D02*
X79700Y326630D01*
D12*
X58293Y395478D02*
X52959Y395478D01*
X52959Y407162D01*
X58293Y407162D01*
X58293Y395478D01*
X58293Y396443D02*
X52959Y396443D01*
X52959Y397408D02*
X58293Y397408D01*
X58293Y398373D02*
X52959Y398373D01*
X52959Y399338D02*
X58293Y399338D01*
X58293Y400303D02*
X52959Y400303D01*
X52959Y401268D02*
X58293Y401268D01*
X58293Y402233D02*
X52959Y402233D01*
X52959Y403198D02*
X58293Y403198D01*
X58293Y404163D02*
X52959Y404163D01*
X52959Y405128D02*
X58293Y405128D01*
X58293Y406093D02*
X52959Y406093D01*
X52959Y407058D02*
X58293Y407058D01*
X61087Y395478D02*
X66421Y395478D01*
X61087Y395478D02*
X61087Y407162D01*
X66421Y407162D01*
X66421Y395478D01*
X66421Y396443D02*
X61087Y396443D01*
X61087Y397408D02*
X66421Y397408D01*
X66421Y398373D02*
X61087Y398373D01*
X61087Y399338D02*
X66421Y399338D01*
X66421Y400303D02*
X61087Y400303D01*
X61087Y401268D02*
X66421Y401268D01*
X66421Y402233D02*
X61087Y402233D01*
X61087Y403198D02*
X66421Y403198D01*
X66421Y404163D02*
X61087Y404163D01*
X61087Y405128D02*
X66421Y405128D01*
X66421Y406093D02*
X61087Y406093D01*
X61087Y407058D02*
X66421Y407058D01*
D13*
X8640Y333150D02*
X8640Y326610D01*
D14*
X20690Y305380D03*
X20690Y314380D03*
X35190Y305380D03*
X35190Y314380D03*
X20690Y296380D03*
X35190Y323380D03*
X35190Y332880D03*
X35190Y342380D03*
X35190Y286880D03*
X35190Y277380D03*
X20690Y286880D03*
X20690Y277380D03*
X20690Y332880D03*
X20690Y342380D03*
D13*
X8640Y293150D02*
X8640Y286610D01*
X47240Y326610D02*
X47240Y333150D01*
X47240Y293150D02*
X47240Y286610D01*
D15*
X47240Y324880D02*
X47240Y334880D01*
X47240Y294880D02*
X47240Y284880D01*
X8640Y284880D02*
X8640Y294880D01*
X8640Y324880D02*
X8640Y334880D01*
D16*
X101600Y386080D03*
X101600Y360680D03*
X101600Y335280D03*
X101600Y309880D03*
X101600Y284480D03*
X101600Y259080D03*
X101600Y233680D03*
D11*
X72700Y343480D02*
X62700Y343480D01*
X62700Y352480D01*
X72700Y352480D01*
X72700Y343480D01*
X72700Y344430D02*
X62700Y344430D01*
X62700Y345380D02*
X72700Y345380D01*
X72700Y346330D02*
X62700Y346330D01*
X62700Y347280D02*
X72700Y347280D01*
X72700Y348230D02*
X62700Y348230D01*
X62700Y349180D02*
X72700Y349180D01*
X72700Y350130D02*
X62700Y350130D01*
X62700Y351080D02*
X72700Y351080D01*
X72700Y352030D02*
X62700Y352030D01*
X79700Y343480D02*
X89700Y343480D01*
X79700Y343480D02*
X79700Y352480D01*
X89700Y352480D01*
X89700Y343480D01*
X89700Y344430D02*
X79700Y344430D01*
X79700Y345380D02*
X89700Y345380D01*
X89700Y346330D02*
X79700Y346330D01*
X79700Y347280D02*
X89700Y347280D01*
X89700Y348230D02*
X79700Y348230D01*
X79700Y349180D02*
X89700Y349180D01*
X89700Y350130D02*
X79700Y350130D01*
X79700Y351080D02*
X89700Y351080D01*
X89700Y352030D02*
X79700Y352030D01*
D10*
X125730Y405130D03*
X227330Y214630D03*
D11*
X192080Y318080D02*
X182080Y318080D01*
X182080Y327080D01*
X192080Y327080D01*
X192080Y318080D01*
X192080Y319030D02*
X182080Y319030D01*
X182080Y319980D02*
X192080Y319980D01*
X192080Y320930D02*
X182080Y320930D01*
X182080Y321880D02*
X192080Y321880D01*
X192080Y322830D02*
X182080Y322830D01*
X182080Y323780D02*
X192080Y323780D01*
X192080Y324730D02*
X182080Y324730D01*
X182080Y325680D02*
X192080Y325680D01*
X192080Y326630D02*
X182080Y326630D01*
X199080Y318080D02*
X209080Y318080D01*
X199080Y318080D02*
X199080Y327080D01*
X209080Y327080D01*
X209080Y318080D01*
X209080Y319030D02*
X199080Y319030D01*
X199080Y319980D02*
X209080Y319980D01*
X209080Y320930D02*
X199080Y320930D01*
X199080Y321880D02*
X209080Y321880D01*
X209080Y322830D02*
X199080Y322830D01*
X199080Y323780D02*
X209080Y323780D01*
X209080Y324730D02*
X199080Y324730D01*
X199080Y325680D02*
X209080Y325680D01*
X209080Y326630D02*
X199080Y326630D01*
D12*
X177673Y395478D02*
X172339Y395478D01*
X172339Y407162D01*
X177673Y407162D01*
X177673Y395478D01*
X177673Y396443D02*
X172339Y396443D01*
X172339Y397408D02*
X177673Y397408D01*
X177673Y398373D02*
X172339Y398373D01*
X172339Y399338D02*
X177673Y399338D01*
X177673Y400303D02*
X172339Y400303D01*
X172339Y401268D02*
X177673Y401268D01*
X177673Y402233D02*
X172339Y402233D01*
X172339Y403198D02*
X177673Y403198D01*
X177673Y404163D02*
X172339Y404163D01*
X172339Y405128D02*
X177673Y405128D01*
X177673Y406093D02*
X172339Y406093D01*
X172339Y407058D02*
X177673Y407058D01*
X180467Y395478D02*
X185801Y395478D01*
X180467Y395478D02*
X180467Y407162D01*
X185801Y407162D01*
X185801Y395478D01*
X185801Y396443D02*
X180467Y396443D01*
X180467Y397408D02*
X185801Y397408D01*
X185801Y398373D02*
X180467Y398373D01*
X180467Y399338D02*
X185801Y399338D01*
X185801Y400303D02*
X180467Y400303D01*
X180467Y401268D02*
X185801Y401268D01*
X185801Y402233D02*
X180467Y402233D01*
X180467Y403198D02*
X185801Y403198D01*
X185801Y404163D02*
X180467Y404163D01*
X180467Y405128D02*
X185801Y405128D01*
X185801Y406093D02*
X180467Y406093D01*
X180467Y407058D02*
X185801Y407058D01*
D13*
X128020Y333150D02*
X128020Y326610D01*
D14*
X140070Y305380D03*
X140070Y314380D03*
X154570Y305380D03*
X154570Y314380D03*
X140070Y296380D03*
X154570Y323380D03*
X154570Y332880D03*
X154570Y342380D03*
X154570Y286880D03*
X154570Y277380D03*
X140070Y286880D03*
X140070Y277380D03*
X140070Y332880D03*
X140070Y342380D03*
D13*
X128020Y293150D02*
X128020Y286610D01*
X166620Y326610D02*
X166620Y333150D01*
X166620Y293150D02*
X166620Y286610D01*
D15*
X166620Y324880D02*
X166620Y334880D01*
X166620Y294880D02*
X166620Y284880D01*
X128020Y284880D02*
X128020Y294880D01*
X128020Y324880D02*
X128020Y334880D01*
D16*
X220980Y386080D03*
X220980Y360680D03*
X220980Y335280D03*
X220980Y309880D03*
X220980Y284480D03*
X220980Y259080D03*
X220980Y233680D03*
D11*
X192080Y343480D02*
X182080Y343480D01*
X182080Y352480D01*
X192080Y352480D01*
X192080Y343480D01*
X192080Y344430D02*
X182080Y344430D01*
X182080Y345380D02*
X192080Y345380D01*
X192080Y346330D02*
X182080Y346330D01*
X182080Y347280D02*
X192080Y347280D01*
X192080Y348230D02*
X182080Y348230D01*
X182080Y349180D02*
X192080Y349180D01*
X192080Y350130D02*
X182080Y350130D01*
X182080Y351080D02*
X192080Y351080D01*
X192080Y352030D02*
X182080Y352030D01*
X199080Y343480D02*
X209080Y343480D01*
X199080Y343480D02*
X199080Y352480D01*
X209080Y352480D01*
X209080Y343480D01*
X209080Y344430D02*
X199080Y344430D01*
X199080Y345380D02*
X209080Y345380D01*
X209080Y346330D02*
X199080Y346330D01*
X199080Y347280D02*
X209080Y347280D01*
X209080Y348230D02*
X199080Y348230D01*
X199080Y349180D02*
X209080Y349180D01*
X209080Y350130D02*
X199080Y350130D01*
X199080Y351080D02*
X209080Y351080D01*
X209080Y352030D02*
X199080Y352030D01*
D10*
X245110Y405130D03*
X346710Y214630D03*
D11*
X311460Y318080D02*
X301460Y318080D01*
X301460Y327080D01*
X311460Y327080D01*
X311460Y318080D01*
X311460Y319030D02*
X301460Y319030D01*
X301460Y319980D02*
X311460Y319980D01*
X311460Y320930D02*
X301460Y320930D01*
X301460Y321880D02*
X311460Y321880D01*
X311460Y322830D02*
X301460Y322830D01*
X301460Y323780D02*
X311460Y323780D01*
X311460Y324730D02*
X301460Y324730D01*
X301460Y325680D02*
X311460Y325680D01*
X311460Y326630D02*
X301460Y326630D01*
X318460Y318080D02*
X328460Y318080D01*
X318460Y318080D02*
X318460Y327080D01*
X328460Y327080D01*
X328460Y318080D01*
X328460Y319030D02*
X318460Y319030D01*
X318460Y319980D02*
X328460Y319980D01*
X328460Y320930D02*
X318460Y320930D01*
X318460Y321880D02*
X328460Y321880D01*
X328460Y322830D02*
X318460Y322830D01*
X318460Y323780D02*
X328460Y323780D01*
X328460Y324730D02*
X318460Y324730D01*
X318460Y325680D02*
X328460Y325680D01*
X328460Y326630D02*
X318460Y326630D01*
D12*
X297053Y395478D02*
X291719Y395478D01*
X291719Y407162D01*
X297053Y407162D01*
X297053Y395478D01*
X297053Y396443D02*
X291719Y396443D01*
X291719Y397408D02*
X297053Y397408D01*
X297053Y398373D02*
X291719Y398373D01*
X291719Y399338D02*
X297053Y399338D01*
X297053Y400303D02*
X291719Y400303D01*
X291719Y401268D02*
X297053Y401268D01*
X297053Y402233D02*
X291719Y402233D01*
X291719Y403198D02*
X297053Y403198D01*
X297053Y404163D02*
X291719Y404163D01*
X291719Y405128D02*
X297053Y405128D01*
X297053Y406093D02*
X291719Y406093D01*
X291719Y407058D02*
X297053Y407058D01*
X299847Y395478D02*
X305181Y395478D01*
X299847Y395478D02*
X299847Y407162D01*
X305181Y407162D01*
X305181Y395478D01*
X305181Y396443D02*
X299847Y396443D01*
X299847Y397408D02*
X305181Y397408D01*
X305181Y398373D02*
X299847Y398373D01*
X299847Y399338D02*
X305181Y399338D01*
X305181Y400303D02*
X299847Y400303D01*
X299847Y401268D02*
X305181Y401268D01*
X305181Y402233D02*
X299847Y402233D01*
X299847Y403198D02*
X305181Y403198D01*
X305181Y404163D02*
X299847Y404163D01*
X299847Y405128D02*
X305181Y405128D01*
X305181Y406093D02*
X299847Y406093D01*
X299847Y407058D02*
X305181Y407058D01*
D13*
X247400Y333150D02*
X247400Y326610D01*
D14*
X259450Y305380D03*
X259450Y314380D03*
X273950Y305380D03*
X273950Y314380D03*
X259450Y296380D03*
X273950Y323380D03*
X273950Y332880D03*
X273950Y342380D03*
X273950Y286880D03*
X273950Y277380D03*
X259450Y286880D03*
X259450Y277380D03*
X259450Y332880D03*
X259450Y342380D03*
D13*
X247400Y293150D02*
X247400Y286610D01*
X286000Y326610D02*
X286000Y333150D01*
X286000Y293150D02*
X286000Y286610D01*
D15*
X286000Y324880D02*
X286000Y334880D01*
X286000Y294880D02*
X286000Y284880D01*
X247400Y284880D02*
X247400Y294880D01*
X247400Y324880D02*
X247400Y334880D01*
D16*
X340360Y386080D03*
X340360Y360680D03*
X340360Y335280D03*
X340360Y309880D03*
X340360Y284480D03*
X340360Y259080D03*
X340360Y233680D03*
D11*
X311460Y343480D02*
X301460Y343480D01*
X301460Y352480D01*
X311460Y352480D01*
X311460Y343480D01*
X311460Y344430D02*
X301460Y344430D01*
X301460Y345380D02*
X311460Y345380D01*
X311460Y346330D02*
X301460Y346330D01*
X301460Y347280D02*
X311460Y347280D01*
X311460Y348230D02*
X301460Y348230D01*
X301460Y349180D02*
X311460Y349180D01*
X311460Y350130D02*
X301460Y350130D01*
X301460Y351080D02*
X311460Y351080D01*
X311460Y352030D02*
X301460Y352030D01*
X318460Y343480D02*
X328460Y343480D01*
X318460Y343480D02*
X318460Y352480D01*
X328460Y352480D01*
X328460Y343480D01*
X328460Y344430D02*
X318460Y344430D01*
X318460Y345380D02*
X328460Y345380D01*
X328460Y346330D02*
X318460Y346330D01*
X318460Y347280D02*
X328460Y347280D01*
X328460Y348230D02*
X318460Y348230D01*
X318460Y349180D02*
X328460Y349180D01*
X328460Y350130D02*
X318460Y350130D01*
X318460Y351080D02*
X328460Y351080D01*
X328460Y352030D02*
X318460Y352030D01*
D10*
X364490Y405130D03*
X466090Y214630D03*
D11*
X430840Y318080D02*
X420840Y318080D01*
X420840Y327080D01*
X430840Y327080D01*
X430840Y318080D01*
X430840Y319030D02*
X420840Y319030D01*
X420840Y319980D02*
X430840Y319980D01*
X430840Y320930D02*
X420840Y320930D01*
X420840Y321880D02*
X430840Y321880D01*
X430840Y322830D02*
X420840Y322830D01*
X420840Y323780D02*
X430840Y323780D01*
X430840Y324730D02*
X420840Y324730D01*
X420840Y325680D02*
X430840Y325680D01*
X430840Y326630D02*
X420840Y326630D01*
X437840Y318080D02*
X447840Y318080D01*
X437840Y318080D02*
X437840Y327080D01*
X447840Y327080D01*
X447840Y318080D01*
X447840Y319030D02*
X437840Y319030D01*
X437840Y319980D02*
X447840Y319980D01*
X447840Y320930D02*
X437840Y320930D01*
X437840Y321880D02*
X447840Y321880D01*
X447840Y322830D02*
X437840Y322830D01*
X437840Y323780D02*
X447840Y323780D01*
X447840Y324730D02*
X437840Y324730D01*
X437840Y325680D02*
X447840Y325680D01*
X447840Y326630D02*
X437840Y326630D01*
D12*
X416433Y395478D02*
X411099Y395478D01*
X411099Y407162D01*
X416433Y407162D01*
X416433Y395478D01*
X416433Y396443D02*
X411099Y396443D01*
X411099Y397408D02*
X416433Y397408D01*
X416433Y398373D02*
X411099Y398373D01*
X411099Y399338D02*
X416433Y399338D01*
X416433Y400303D02*
X411099Y400303D01*
X411099Y401268D02*
X416433Y401268D01*
X416433Y402233D02*
X411099Y402233D01*
X411099Y403198D02*
X416433Y403198D01*
X416433Y404163D02*
X411099Y404163D01*
X411099Y405128D02*
X416433Y405128D01*
X416433Y406093D02*
X411099Y406093D01*
X411099Y407058D02*
X416433Y407058D01*
X419227Y395478D02*
X424561Y395478D01*
X419227Y395478D02*
X419227Y407162D01*
X424561Y407162D01*
X424561Y395478D01*
X424561Y396443D02*
X419227Y396443D01*
X419227Y397408D02*
X424561Y397408D01*
X424561Y398373D02*
X419227Y398373D01*
X419227Y399338D02*
X424561Y399338D01*
X424561Y400303D02*
X419227Y400303D01*
X419227Y401268D02*
X424561Y401268D01*
X424561Y402233D02*
X419227Y402233D01*
X419227Y403198D02*
X424561Y403198D01*
X424561Y404163D02*
X419227Y404163D01*
X419227Y405128D02*
X424561Y405128D01*
X424561Y406093D02*
X419227Y406093D01*
X419227Y407058D02*
X424561Y407058D01*
D13*
X366780Y333150D02*
X366780Y326610D01*
D14*
X378830Y305380D03*
X378830Y314380D03*
X393330Y305380D03*
X393330Y314380D03*
X378830Y296380D03*
X393330Y323380D03*
X393330Y332880D03*
X393330Y342380D03*
X393330Y286880D03*
X393330Y277380D03*
X378830Y286880D03*
X378830Y277380D03*
X378830Y332880D03*
X378830Y342380D03*
D13*
X366780Y293150D02*
X366780Y286610D01*
X405380Y326610D02*
X405380Y333150D01*
X405380Y293150D02*
X405380Y286610D01*
D15*
X405380Y324880D02*
X405380Y334880D01*
X405380Y294880D02*
X405380Y284880D01*
X366780Y284880D02*
X366780Y294880D01*
X366780Y324880D02*
X366780Y334880D01*
D16*
X459740Y386080D03*
X459740Y360680D03*
X459740Y335280D03*
X459740Y309880D03*
X459740Y284480D03*
X459740Y259080D03*
X459740Y233680D03*
D11*
X430840Y343480D02*
X420840Y343480D01*
X420840Y352480D01*
X430840Y352480D01*
X430840Y343480D01*
X430840Y344430D02*
X420840Y344430D01*
X420840Y345380D02*
X430840Y345380D01*
X430840Y346330D02*
X420840Y346330D01*
X420840Y347280D02*
X430840Y347280D01*
X430840Y348230D02*
X420840Y348230D01*
X420840Y349180D02*
X430840Y349180D01*
X430840Y350130D02*
X420840Y350130D01*
X420840Y351080D02*
X430840Y351080D01*
X430840Y352030D02*
X420840Y352030D01*
X437840Y343480D02*
X447840Y343480D01*
X437840Y343480D02*
X437840Y352480D01*
X447840Y352480D01*
X447840Y343480D01*
X447840Y344430D02*
X437840Y344430D01*
X437840Y345380D02*
X447840Y345380D01*
X447840Y346330D02*
X437840Y346330D01*
X437840Y347280D02*
X447840Y347280D01*
X447840Y348230D02*
X437840Y348230D01*
X437840Y349180D02*
X447840Y349180D01*
X447840Y350130D02*
X437840Y350130D01*
X437840Y351080D02*
X447840Y351080D01*
X447840Y352030D02*
X437840Y352030D01*
D10*
X483870Y405130D03*
X585470Y214630D03*
D11*
X550220Y318080D02*
X540220Y318080D01*
X540220Y327080D01*
X550220Y327080D01*
X550220Y318080D01*
X550220Y319030D02*
X540220Y319030D01*
X540220Y319980D02*
X550220Y319980D01*
X550220Y320930D02*
X540220Y320930D01*
X540220Y321880D02*
X550220Y321880D01*
X550220Y322830D02*
X540220Y322830D01*
X540220Y323780D02*
X550220Y323780D01*
X550220Y324730D02*
X540220Y324730D01*
X540220Y325680D02*
X550220Y325680D01*
X550220Y326630D02*
X540220Y326630D01*
X557220Y318080D02*
X567220Y318080D01*
X557220Y318080D02*
X557220Y327080D01*
X567220Y327080D01*
X567220Y318080D01*
X567220Y319030D02*
X557220Y319030D01*
X557220Y319980D02*
X567220Y319980D01*
X567220Y320930D02*
X557220Y320930D01*
X557220Y321880D02*
X567220Y321880D01*
X567220Y322830D02*
X557220Y322830D01*
X557220Y323780D02*
X567220Y323780D01*
X567220Y324730D02*
X557220Y324730D01*
X557220Y325680D02*
X567220Y325680D01*
X567220Y326630D02*
X557220Y326630D01*
D12*
X535813Y395478D02*
X530479Y395478D01*
X530479Y407162D01*
X535813Y407162D01*
X535813Y395478D01*
X535813Y396443D02*
X530479Y396443D01*
X530479Y397408D02*
X535813Y397408D01*
X535813Y398373D02*
X530479Y398373D01*
X530479Y399338D02*
X535813Y399338D01*
X535813Y400303D02*
X530479Y400303D01*
X530479Y401268D02*
X535813Y401268D01*
X535813Y402233D02*
X530479Y402233D01*
X530479Y403198D02*
X535813Y403198D01*
X535813Y404163D02*
X530479Y404163D01*
X530479Y405128D02*
X535813Y405128D01*
X535813Y406093D02*
X530479Y406093D01*
X530479Y407058D02*
X535813Y407058D01*
X538607Y395478D02*
X543941Y395478D01*
X538607Y395478D02*
X538607Y407162D01*
X543941Y407162D01*
X543941Y395478D01*
X543941Y396443D02*
X538607Y396443D01*
X538607Y397408D02*
X543941Y397408D01*
X543941Y398373D02*
X538607Y398373D01*
X538607Y399338D02*
X543941Y399338D01*
X543941Y400303D02*
X538607Y400303D01*
X538607Y401268D02*
X543941Y401268D01*
X543941Y402233D02*
X538607Y402233D01*
X538607Y403198D02*
X543941Y403198D01*
X543941Y404163D02*
X538607Y404163D01*
X538607Y405128D02*
X543941Y405128D01*
X543941Y406093D02*
X538607Y406093D01*
X538607Y407058D02*
X543941Y407058D01*
D13*
X486160Y333150D02*
X486160Y326610D01*
D14*
X498210Y305380D03*
X498210Y314380D03*
X512710Y305380D03*
X512710Y314380D03*
X498210Y296380D03*
X512710Y323380D03*
X512710Y332880D03*
X512710Y342380D03*
X512710Y286880D03*
X512710Y277380D03*
X498210Y286880D03*
X498210Y277380D03*
X498210Y332880D03*
X498210Y342380D03*
D13*
X486160Y293150D02*
X486160Y286610D01*
X524760Y326610D02*
X524760Y333150D01*
X524760Y293150D02*
X524760Y286610D01*
D15*
X524760Y324880D02*
X524760Y334880D01*
X524760Y294880D02*
X524760Y284880D01*
X486160Y284880D02*
X486160Y294880D01*
X486160Y324880D02*
X486160Y334880D01*
D16*
X579120Y386080D03*
X579120Y360680D03*
X579120Y335280D03*
X579120Y309880D03*
X579120Y284480D03*
X579120Y259080D03*
X579120Y233680D03*
D11*
X550220Y343480D02*
X540220Y343480D01*
X540220Y352480D01*
X550220Y352480D01*
X550220Y343480D01*
X550220Y344430D02*
X540220Y344430D01*
X540220Y345380D02*
X550220Y345380D01*
X550220Y346330D02*
X540220Y346330D01*
X540220Y347280D02*
X550220Y347280D01*
X550220Y348230D02*
X540220Y348230D01*
X540220Y349180D02*
X550220Y349180D01*
X550220Y350130D02*
X540220Y350130D01*
X540220Y351080D02*
X550220Y351080D01*
X550220Y352030D02*
X540220Y352030D01*
X557220Y343480D02*
X567220Y343480D01*
X557220Y343480D02*
X557220Y352480D01*
X567220Y352480D01*
X567220Y343480D01*
X567220Y344430D02*
X557220Y344430D01*
X557220Y345380D02*
X567220Y345380D01*
X567220Y346330D02*
X557220Y346330D01*
X557220Y347280D02*
X567220Y347280D01*
X567220Y348230D02*
X557220Y348230D01*
X557220Y349180D02*
X567220Y349180D01*
X567220Y350130D02*
X557220Y350130D01*
X557220Y351080D02*
X567220Y351080D01*
X567220Y352030D02*
X557220Y352030D01*
D10*
X603250Y405130D03*
X704850Y214630D03*
D11*
X669600Y318080D02*
X659600Y318080D01*
X659600Y327080D01*
X669600Y327080D01*
X669600Y318080D01*
X669600Y319030D02*
X659600Y319030D01*
X659600Y319980D02*
X669600Y319980D01*
X669600Y320930D02*
X659600Y320930D01*
X659600Y321880D02*
X669600Y321880D01*
X669600Y322830D02*
X659600Y322830D01*
X659600Y323780D02*
X669600Y323780D01*
X669600Y324730D02*
X659600Y324730D01*
X659600Y325680D02*
X669600Y325680D01*
X669600Y326630D02*
X659600Y326630D01*
X676600Y318080D02*
X686600Y318080D01*
X676600Y318080D02*
X676600Y327080D01*
X686600Y327080D01*
X686600Y318080D01*
X686600Y319030D02*
X676600Y319030D01*
X676600Y319980D02*
X686600Y319980D01*
X686600Y320930D02*
X676600Y320930D01*
X676600Y321880D02*
X686600Y321880D01*
X686600Y322830D02*
X676600Y322830D01*
X676600Y323780D02*
X686600Y323780D01*
X686600Y324730D02*
X676600Y324730D01*
X676600Y325680D02*
X686600Y325680D01*
X686600Y326630D02*
X676600Y326630D01*
D12*
X655193Y395478D02*
X649859Y395478D01*
X649859Y407162D01*
X655193Y407162D01*
X655193Y395478D01*
X655193Y396443D02*
X649859Y396443D01*
X649859Y397408D02*
X655193Y397408D01*
X655193Y398373D02*
X649859Y398373D01*
X649859Y399338D02*
X655193Y399338D01*
X655193Y400303D02*
X649859Y400303D01*
X649859Y401268D02*
X655193Y401268D01*
X655193Y402233D02*
X649859Y402233D01*
X649859Y403198D02*
X655193Y403198D01*
X655193Y404163D02*
X649859Y404163D01*
X649859Y405128D02*
X655193Y405128D01*
X655193Y406093D02*
X649859Y406093D01*
X649859Y407058D02*
X655193Y407058D01*
X657987Y395478D02*
X663321Y395478D01*
X657987Y395478D02*
X657987Y407162D01*
X663321Y407162D01*
X663321Y395478D01*
X663321Y396443D02*
X657987Y396443D01*
X657987Y397408D02*
X663321Y397408D01*
X663321Y398373D02*
X657987Y398373D01*
X657987Y399338D02*
X663321Y399338D01*
X663321Y400303D02*
X657987Y400303D01*
X657987Y401268D02*
X663321Y401268D01*
X663321Y402233D02*
X657987Y402233D01*
X657987Y403198D02*
X663321Y403198D01*
X663321Y404163D02*
X657987Y404163D01*
X657987Y405128D02*
X663321Y405128D01*
X663321Y406093D02*
X657987Y406093D01*
X657987Y407058D02*
X663321Y407058D01*
D13*
X605540Y333150D02*
X605540Y326610D01*
D14*
X617590Y305380D03*
X617590Y314380D03*
X632090Y305380D03*
X632090Y314380D03*
X617590Y296380D03*
X632090Y323380D03*
X632090Y332880D03*
X632090Y342380D03*
X632090Y286880D03*
X632090Y277380D03*
X617590Y286880D03*
X617590Y277380D03*
X617590Y332880D03*
X617590Y342380D03*
D13*
X605540Y293150D02*
X605540Y286610D01*
X644140Y326610D02*
X644140Y333150D01*
X644140Y293150D02*
X644140Y286610D01*
D15*
X644140Y324880D02*
X644140Y334880D01*
X644140Y294880D02*
X644140Y284880D01*
X605540Y284880D02*
X605540Y294880D01*
X605540Y324880D02*
X605540Y334880D01*
D16*
X698500Y386080D03*
X698500Y360680D03*
X698500Y335280D03*
X698500Y309880D03*
X698500Y284480D03*
X698500Y259080D03*
X698500Y233680D03*
D11*
X669600Y343480D02*
X659600Y343480D01*
X659600Y352480D01*
X669600Y352480D01*
X669600Y343480D01*
X669600Y344430D02*
X659600Y344430D01*
X659600Y345380D02*
X669600Y345380D01*
X669600Y346330D02*
X659600Y346330D01*
X659600Y347280D02*
X669600Y347280D01*
X669600Y348230D02*
X659600Y348230D01*
X659600Y349180D02*
X669600Y349180D01*
X669600Y350130D02*
X659600Y350130D01*
X659600Y351080D02*
X669600Y351080D01*
X669600Y352030D02*
X659600Y352030D01*
X676600Y343480D02*
X686600Y343480D01*
X676600Y343480D02*
X676600Y352480D01*
X686600Y352480D01*
X686600Y343480D01*
X686600Y344430D02*
X676600Y344430D01*
X676600Y345380D02*
X686600Y345380D01*
X686600Y346330D02*
X676600Y346330D01*
X676600Y347280D02*
X686600Y347280D01*
X686600Y348230D02*
X676600Y348230D01*
X676600Y349180D02*
X686600Y349180D01*
X686600Y350130D02*
X676600Y350130D01*
X676600Y351080D02*
X686600Y351080D01*
X686600Y352030D02*
X676600Y352030D01*
D10*
X722630Y405130D03*
X824230Y214630D03*
D11*
X788980Y318080D02*
X778980Y318080D01*
X778980Y327080D01*
X788980Y327080D01*
X788980Y318080D01*
X788980Y319030D02*
X778980Y319030D01*
X778980Y319980D02*
X788980Y319980D01*
X788980Y320930D02*
X778980Y320930D01*
X778980Y321880D02*
X788980Y321880D01*
X788980Y322830D02*
X778980Y322830D01*
X778980Y323780D02*
X788980Y323780D01*
X788980Y324730D02*
X778980Y324730D01*
X778980Y325680D02*
X788980Y325680D01*
X788980Y326630D02*
X778980Y326630D01*
X795980Y318080D02*
X805980Y318080D01*
X795980Y318080D02*
X795980Y327080D01*
X805980Y327080D01*
X805980Y318080D01*
X805980Y319030D02*
X795980Y319030D01*
X795980Y319980D02*
X805980Y319980D01*
X805980Y320930D02*
X795980Y320930D01*
X795980Y321880D02*
X805980Y321880D01*
X805980Y322830D02*
X795980Y322830D01*
X795980Y323780D02*
X805980Y323780D01*
X805980Y324730D02*
X795980Y324730D01*
X795980Y325680D02*
X805980Y325680D01*
X805980Y326630D02*
X795980Y326630D01*
D12*
X774573Y395478D02*
X769239Y395478D01*
X769239Y407162D01*
X774573Y407162D01*
X774573Y395478D01*
X774573Y396443D02*
X769239Y396443D01*
X769239Y397408D02*
X774573Y397408D01*
X774573Y398373D02*
X769239Y398373D01*
X769239Y399338D02*
X774573Y399338D01*
X774573Y400303D02*
X769239Y400303D01*
X769239Y401268D02*
X774573Y401268D01*
X774573Y402233D02*
X769239Y402233D01*
X769239Y403198D02*
X774573Y403198D01*
X774573Y404163D02*
X769239Y404163D01*
X769239Y405128D02*
X774573Y405128D01*
X774573Y406093D02*
X769239Y406093D01*
X769239Y407058D02*
X774573Y407058D01*
X777367Y395478D02*
X782701Y395478D01*
X777367Y395478D02*
X777367Y407162D01*
X782701Y407162D01*
X782701Y395478D01*
X782701Y396443D02*
X777367Y396443D01*
X777367Y397408D02*
X782701Y397408D01*
X782701Y398373D02*
X777367Y398373D01*
X777367Y399338D02*
X782701Y399338D01*
X782701Y400303D02*
X777367Y400303D01*
X777367Y401268D02*
X782701Y401268D01*
X782701Y402233D02*
X777367Y402233D01*
X777367Y403198D02*
X782701Y403198D01*
X782701Y404163D02*
X777367Y404163D01*
X777367Y405128D02*
X782701Y405128D01*
X782701Y406093D02*
X777367Y406093D01*
X777367Y407058D02*
X782701Y407058D01*
D13*
X724920Y333150D02*
X724920Y326610D01*
D14*
X736970Y305380D03*
X736970Y314380D03*
X751470Y305380D03*
X751470Y314380D03*
X736970Y296380D03*
X751470Y323380D03*
X751470Y332880D03*
X751470Y342380D03*
X751470Y286880D03*
X751470Y277380D03*
X736970Y286880D03*
X736970Y277380D03*
X736970Y332880D03*
X736970Y342380D03*
D13*
X724920Y293150D02*
X724920Y286610D01*
X763520Y326610D02*
X763520Y333150D01*
X763520Y293150D02*
X763520Y286610D01*
D15*
X763520Y324880D02*
X763520Y334880D01*
X763520Y294880D02*
X763520Y284880D01*
X724920Y284880D02*
X724920Y294880D01*
X724920Y324880D02*
X724920Y334880D01*
D16*
X817880Y386080D03*
X817880Y360680D03*
X817880Y335280D03*
X817880Y309880D03*
X817880Y284480D03*
X817880Y259080D03*
X817880Y233680D03*
D11*
X788980Y343480D02*
X778980Y343480D01*
X778980Y352480D01*
X788980Y352480D01*
X788980Y343480D01*
X788980Y344430D02*
X778980Y344430D01*
X778980Y345380D02*
X788980Y345380D01*
X788980Y346330D02*
X778980Y346330D01*
X778980Y347280D02*
X788980Y347280D01*
X788980Y348230D02*
X778980Y348230D01*
X778980Y349180D02*
X788980Y349180D01*
X788980Y350130D02*
X778980Y350130D01*
X778980Y351080D02*
X788980Y351080D01*
X788980Y352030D02*
X778980Y352030D01*
X795980Y343480D02*
X805980Y343480D01*
X795980Y343480D02*
X795980Y352480D01*
X805980Y352480D01*
X805980Y343480D01*
X805980Y344430D02*
X795980Y344430D01*
X795980Y345380D02*
X805980Y345380D01*
X805980Y346330D02*
X795980Y346330D01*
X795980Y347280D02*
X805980Y347280D01*
X805980Y348230D02*
X795980Y348230D01*
X795980Y349180D02*
X805980Y349180D01*
X805980Y350130D02*
X795980Y350130D01*
X795980Y351080D02*
X805980Y351080D01*
X805980Y352030D02*
X795980Y352030D01*
D10*
X842010Y405130D03*
X943610Y214630D03*
D11*
X908360Y318080D02*
X898360Y318080D01*
X898360Y327080D01*
X908360Y327080D01*
X908360Y318080D01*
X908360Y319030D02*
X898360Y319030D01*
X898360Y319980D02*
X908360Y319980D01*
X908360Y320930D02*
X898360Y320930D01*
X898360Y321880D02*
X908360Y321880D01*
X908360Y322830D02*
X898360Y322830D01*
X898360Y323780D02*
X908360Y323780D01*
X908360Y324730D02*
X898360Y324730D01*
X898360Y325680D02*
X908360Y325680D01*
X908360Y326630D02*
X898360Y326630D01*
X915360Y318080D02*
X925360Y318080D01*
X915360Y318080D02*
X915360Y327080D01*
X925360Y327080D01*
X925360Y318080D01*
X925360Y319030D02*
X915360Y319030D01*
X915360Y319980D02*
X925360Y319980D01*
X925360Y320930D02*
X915360Y320930D01*
X915360Y321880D02*
X925360Y321880D01*
X925360Y322830D02*
X915360Y322830D01*
X915360Y323780D02*
X925360Y323780D01*
X925360Y324730D02*
X915360Y324730D01*
X915360Y325680D02*
X925360Y325680D01*
X925360Y326630D02*
X915360Y326630D01*
D12*
X893953Y395478D02*
X888619Y395478D01*
X888619Y407162D01*
X893953Y407162D01*
X893953Y395478D01*
X893953Y396443D02*
X888619Y396443D01*
X888619Y397408D02*
X893953Y397408D01*
X893953Y398373D02*
X888619Y398373D01*
X888619Y399338D02*
X893953Y399338D01*
X893953Y400303D02*
X888619Y400303D01*
X888619Y401268D02*
X893953Y401268D01*
X893953Y402233D02*
X888619Y402233D01*
X888619Y403198D02*
X893953Y403198D01*
X893953Y404163D02*
X888619Y404163D01*
X888619Y405128D02*
X893953Y405128D01*
X893953Y406093D02*
X888619Y406093D01*
X888619Y407058D02*
X893953Y407058D01*
X896747Y395478D02*
X902081Y395478D01*
X896747Y395478D02*
X896747Y407162D01*
X902081Y407162D01*
X902081Y395478D01*
X902081Y396443D02*
X896747Y396443D01*
X896747Y397408D02*
X902081Y397408D01*
X902081Y398373D02*
X896747Y398373D01*
X896747Y399338D02*
X902081Y399338D01*
X902081Y400303D02*
X896747Y400303D01*
X896747Y401268D02*
X902081Y401268D01*
X902081Y402233D02*
X896747Y402233D01*
X896747Y403198D02*
X902081Y403198D01*
X902081Y404163D02*
X896747Y404163D01*
X896747Y405128D02*
X902081Y405128D01*
X902081Y406093D02*
X896747Y406093D01*
X896747Y407058D02*
X902081Y407058D01*
D13*
X844300Y333150D02*
X844300Y326610D01*
D14*
X856350Y305380D03*
X856350Y314380D03*
X870850Y305380D03*
X870850Y314380D03*
X856350Y296380D03*
X870850Y323380D03*
X870850Y332880D03*
X870850Y342380D03*
X870850Y286880D03*
X870850Y277380D03*
X856350Y286880D03*
X856350Y277380D03*
X856350Y332880D03*
X856350Y342380D03*
D13*
X844300Y293150D02*
X844300Y286610D01*
X882900Y326610D02*
X882900Y333150D01*
X882900Y293150D02*
X882900Y286610D01*
D15*
X882900Y324880D02*
X882900Y334880D01*
X882900Y294880D02*
X882900Y284880D01*
X844300Y284880D02*
X844300Y294880D01*
X844300Y324880D02*
X844300Y334880D01*
D16*
X937260Y386080D03*
X937260Y360680D03*
X937260Y335280D03*
X937260Y309880D03*
X937260Y284480D03*
X937260Y259080D03*
X937260Y233680D03*
D11*
X908360Y343480D02*
X898360Y343480D01*
X898360Y352480D01*
X908360Y352480D01*
X908360Y343480D01*
X908360Y344430D02*
X898360Y344430D01*
X898360Y345380D02*
X908360Y345380D01*
X908360Y346330D02*
X898360Y346330D01*
X898360Y347280D02*
X908360Y347280D01*
X908360Y348230D02*
X898360Y348230D01*
X898360Y349180D02*
X908360Y349180D01*
X908360Y350130D02*
X898360Y350130D01*
X898360Y351080D02*
X908360Y351080D01*
X908360Y352030D02*
X898360Y352030D01*
X915360Y343480D02*
X925360Y343480D01*
X915360Y343480D02*
X915360Y352480D01*
X925360Y352480D01*
X925360Y343480D01*
X925360Y344430D02*
X915360Y344430D01*
X915360Y345380D02*
X925360Y345380D01*
X925360Y346330D02*
X915360Y346330D01*
X915360Y347280D02*
X925360Y347280D01*
X925360Y348230D02*
X915360Y348230D01*
X915360Y349180D02*
X925360Y349180D01*
X925360Y350130D02*
X915360Y350130D01*
X915360Y351080D02*
X925360Y351080D01*
X925360Y352030D02*
X915360Y352030D01*
D10*
X6350Y613410D03*
X107950Y422910D03*
D11*
X72700Y526360D02*
X62700Y526360D01*
X62700Y535360D01*
X72700Y535360D01*
X72700Y526360D01*
X72700Y527310D02*
X62700Y527310D01*
X62700Y528260D02*
X72700Y528260D01*
X72700Y529210D02*
X62700Y529210D01*
X62700Y530160D02*
X72700Y530160D01*
X72700Y531110D02*
X62700Y531110D01*
X62700Y532060D02*
X72700Y532060D01*
X72700Y533010D02*
X62700Y533010D01*
X62700Y533960D02*
X72700Y533960D01*
X72700Y534910D02*
X62700Y534910D01*
X79700Y526360D02*
X89700Y526360D01*
X79700Y526360D02*
X79700Y535360D01*
X89700Y535360D01*
X89700Y526360D01*
X89700Y527310D02*
X79700Y527310D01*
X79700Y528260D02*
X89700Y528260D01*
X89700Y529210D02*
X79700Y529210D01*
X79700Y530160D02*
X89700Y530160D01*
X89700Y531110D02*
X79700Y531110D01*
X79700Y532060D02*
X89700Y532060D01*
X89700Y533010D02*
X79700Y533010D01*
X79700Y533960D02*
X89700Y533960D01*
X89700Y534910D02*
X79700Y534910D01*
D12*
X58293Y603758D02*
X52959Y603758D01*
X52959Y615442D01*
X58293Y615442D01*
X58293Y603758D01*
X58293Y604723D02*
X52959Y604723D01*
X52959Y605688D02*
X58293Y605688D01*
X58293Y606653D02*
X52959Y606653D01*
X52959Y607618D02*
X58293Y607618D01*
X58293Y608583D02*
X52959Y608583D01*
X52959Y609548D02*
X58293Y609548D01*
X58293Y610513D02*
X52959Y610513D01*
X52959Y611478D02*
X58293Y611478D01*
X58293Y612443D02*
X52959Y612443D01*
X52959Y613408D02*
X58293Y613408D01*
X58293Y614373D02*
X52959Y614373D01*
X52959Y615338D02*
X58293Y615338D01*
X61087Y603758D02*
X66421Y603758D01*
X61087Y603758D02*
X61087Y615442D01*
X66421Y615442D01*
X66421Y603758D01*
X66421Y604723D02*
X61087Y604723D01*
X61087Y605688D02*
X66421Y605688D01*
X66421Y606653D02*
X61087Y606653D01*
X61087Y607618D02*
X66421Y607618D01*
X66421Y608583D02*
X61087Y608583D01*
X61087Y609548D02*
X66421Y609548D01*
X66421Y610513D02*
X61087Y610513D01*
X61087Y611478D02*
X66421Y611478D01*
X66421Y612443D02*
X61087Y612443D01*
X61087Y613408D02*
X66421Y613408D01*
X66421Y614373D02*
X61087Y614373D01*
X61087Y615338D02*
X66421Y615338D01*
D13*
X8640Y541430D02*
X8640Y534890D01*
D14*
X20690Y513660D03*
X20690Y522660D03*
X35190Y513660D03*
X35190Y522660D03*
X20690Y504660D03*
X35190Y531660D03*
X35190Y541160D03*
X35190Y550660D03*
X35190Y495160D03*
X35190Y485660D03*
X20690Y495160D03*
X20690Y485660D03*
X20690Y541160D03*
X20690Y550660D03*
D13*
X8640Y501430D02*
X8640Y494890D01*
X47240Y534890D02*
X47240Y541430D01*
X47240Y501430D02*
X47240Y494890D01*
D15*
X47240Y533160D02*
X47240Y543160D01*
X47240Y503160D02*
X47240Y493160D01*
X8640Y493160D02*
X8640Y503160D01*
X8640Y533160D02*
X8640Y543160D01*
D16*
X101600Y594360D03*
X101600Y568960D03*
X101600Y543560D03*
X101600Y518160D03*
X101600Y492760D03*
X101600Y467360D03*
X101600Y441960D03*
D11*
X72700Y551760D02*
X62700Y551760D01*
X62700Y560760D01*
X72700Y560760D01*
X72700Y551760D01*
X72700Y552710D02*
X62700Y552710D01*
X62700Y553660D02*
X72700Y553660D01*
X72700Y554610D02*
X62700Y554610D01*
X62700Y555560D02*
X72700Y555560D01*
X72700Y556510D02*
X62700Y556510D01*
X62700Y557460D02*
X72700Y557460D01*
X72700Y558410D02*
X62700Y558410D01*
X62700Y559360D02*
X72700Y559360D01*
X72700Y560310D02*
X62700Y560310D01*
X79700Y551760D02*
X89700Y551760D01*
X79700Y551760D02*
X79700Y560760D01*
X89700Y560760D01*
X89700Y551760D01*
X89700Y552710D02*
X79700Y552710D01*
X79700Y553660D02*
X89700Y553660D01*
X89700Y554610D02*
X79700Y554610D01*
X79700Y555560D02*
X89700Y555560D01*
X89700Y556510D02*
X79700Y556510D01*
X79700Y557460D02*
X89700Y557460D01*
X89700Y558410D02*
X79700Y558410D01*
X79700Y559360D02*
X89700Y559360D01*
X89700Y560310D02*
X79700Y560310D01*
D10*
X125730Y613410D03*
X227330Y422910D03*
D11*
X192080Y526360D02*
X182080Y526360D01*
X182080Y535360D01*
X192080Y535360D01*
X192080Y526360D01*
X192080Y527310D02*
X182080Y527310D01*
X182080Y528260D02*
X192080Y528260D01*
X192080Y529210D02*
X182080Y529210D01*
X182080Y530160D02*
X192080Y530160D01*
X192080Y531110D02*
X182080Y531110D01*
X182080Y532060D02*
X192080Y532060D01*
X192080Y533010D02*
X182080Y533010D01*
X182080Y533960D02*
X192080Y533960D01*
X192080Y534910D02*
X182080Y534910D01*
X199080Y526360D02*
X209080Y526360D01*
X199080Y526360D02*
X199080Y535360D01*
X209080Y535360D01*
X209080Y526360D01*
X209080Y527310D02*
X199080Y527310D01*
X199080Y528260D02*
X209080Y528260D01*
X209080Y529210D02*
X199080Y529210D01*
X199080Y530160D02*
X209080Y530160D01*
X209080Y531110D02*
X199080Y531110D01*
X199080Y532060D02*
X209080Y532060D01*
X209080Y533010D02*
X199080Y533010D01*
X199080Y533960D02*
X209080Y533960D01*
X209080Y534910D02*
X199080Y534910D01*
D12*
X177673Y603758D02*
X172339Y603758D01*
X172339Y615442D01*
X177673Y615442D01*
X177673Y603758D01*
X177673Y604723D02*
X172339Y604723D01*
X172339Y605688D02*
X177673Y605688D01*
X177673Y606653D02*
X172339Y606653D01*
X172339Y607618D02*
X177673Y607618D01*
X177673Y608583D02*
X172339Y608583D01*
X172339Y609548D02*
X177673Y609548D01*
X177673Y610513D02*
X172339Y610513D01*
X172339Y611478D02*
X177673Y611478D01*
X177673Y612443D02*
X172339Y612443D01*
X172339Y613408D02*
X177673Y613408D01*
X177673Y614373D02*
X172339Y614373D01*
X172339Y615338D02*
X177673Y615338D01*
X180467Y603758D02*
X185801Y603758D01*
X180467Y603758D02*
X180467Y615442D01*
X185801Y615442D01*
X185801Y603758D01*
X185801Y604723D02*
X180467Y604723D01*
X180467Y605688D02*
X185801Y605688D01*
X185801Y606653D02*
X180467Y606653D01*
X180467Y607618D02*
X185801Y607618D01*
X185801Y608583D02*
X180467Y608583D01*
X180467Y609548D02*
X185801Y609548D01*
X185801Y610513D02*
X180467Y610513D01*
X180467Y611478D02*
X185801Y611478D01*
X185801Y612443D02*
X180467Y612443D01*
X180467Y613408D02*
X185801Y613408D01*
X185801Y614373D02*
X180467Y614373D01*
X180467Y615338D02*
X185801Y615338D01*
D13*
X128020Y541430D02*
X128020Y534890D01*
D14*
X140070Y513660D03*
X140070Y522660D03*
X154570Y513660D03*
X154570Y522660D03*
X140070Y504660D03*
X154570Y531660D03*
X154570Y541160D03*
X154570Y550660D03*
X154570Y495160D03*
X154570Y485660D03*
X140070Y495160D03*
X140070Y485660D03*
X140070Y541160D03*
X140070Y550660D03*
D13*
X128020Y501430D02*
X128020Y494890D01*
X166620Y534890D02*
X166620Y541430D01*
X166620Y501430D02*
X166620Y494890D01*
D15*
X166620Y533160D02*
X166620Y543160D01*
X166620Y503160D02*
X166620Y493160D01*
X128020Y493160D02*
X128020Y503160D01*
X128020Y533160D02*
X128020Y543160D01*
D16*
X220980Y594360D03*
X220980Y568960D03*
X220980Y543560D03*
X220980Y518160D03*
X220980Y492760D03*
X220980Y467360D03*
X220980Y441960D03*
D11*
X192080Y551760D02*
X182080Y551760D01*
X182080Y560760D01*
X192080Y560760D01*
X192080Y551760D01*
X192080Y552710D02*
X182080Y552710D01*
X182080Y553660D02*
X192080Y553660D01*
X192080Y554610D02*
X182080Y554610D01*
X182080Y555560D02*
X192080Y555560D01*
X192080Y556510D02*
X182080Y556510D01*
X182080Y557460D02*
X192080Y557460D01*
X192080Y558410D02*
X182080Y558410D01*
X182080Y559360D02*
X192080Y559360D01*
X192080Y560310D02*
X182080Y560310D01*
X199080Y551760D02*
X209080Y551760D01*
X199080Y551760D02*
X199080Y560760D01*
X209080Y560760D01*
X209080Y551760D01*
X209080Y552710D02*
X199080Y552710D01*
X199080Y553660D02*
X209080Y553660D01*
X209080Y554610D02*
X199080Y554610D01*
X199080Y555560D02*
X209080Y555560D01*
X209080Y556510D02*
X199080Y556510D01*
X199080Y557460D02*
X209080Y557460D01*
X209080Y558410D02*
X199080Y558410D01*
X199080Y559360D02*
X209080Y559360D01*
X209080Y560310D02*
X199080Y560310D01*
D10*
X245110Y613410D03*
X346710Y422910D03*
D11*
X311460Y526360D02*
X301460Y526360D01*
X301460Y535360D01*
X311460Y535360D01*
X311460Y526360D01*
X311460Y527310D02*
X301460Y527310D01*
X301460Y528260D02*
X311460Y528260D01*
X311460Y529210D02*
X301460Y529210D01*
X301460Y530160D02*
X311460Y530160D01*
X311460Y531110D02*
X301460Y531110D01*
X301460Y532060D02*
X311460Y532060D01*
X311460Y533010D02*
X301460Y533010D01*
X301460Y533960D02*
X311460Y533960D01*
X311460Y534910D02*
X301460Y534910D01*
X318460Y526360D02*
X328460Y526360D01*
X318460Y526360D02*
X318460Y535360D01*
X328460Y535360D01*
X328460Y526360D01*
X328460Y527310D02*
X318460Y527310D01*
X318460Y528260D02*
X328460Y528260D01*
X328460Y529210D02*
X318460Y529210D01*
X318460Y530160D02*
X328460Y530160D01*
X328460Y531110D02*
X318460Y531110D01*
X318460Y532060D02*
X328460Y532060D01*
X328460Y533010D02*
X318460Y533010D01*
X318460Y533960D02*
X328460Y533960D01*
X328460Y534910D02*
X318460Y534910D01*
D12*
X297053Y603758D02*
X291719Y603758D01*
X291719Y615442D01*
X297053Y615442D01*
X297053Y603758D01*
X297053Y604723D02*
X291719Y604723D01*
X291719Y605688D02*
X297053Y605688D01*
X297053Y606653D02*
X291719Y606653D01*
X291719Y607618D02*
X297053Y607618D01*
X297053Y608583D02*
X291719Y608583D01*
X291719Y609548D02*
X297053Y609548D01*
X297053Y610513D02*
X291719Y610513D01*
X291719Y611478D02*
X297053Y611478D01*
X297053Y612443D02*
X291719Y612443D01*
X291719Y613408D02*
X297053Y613408D01*
X297053Y614373D02*
X291719Y614373D01*
X291719Y615338D02*
X297053Y615338D01*
X299847Y603758D02*
X305181Y603758D01*
X299847Y603758D02*
X299847Y615442D01*
X305181Y615442D01*
X305181Y603758D01*
X305181Y604723D02*
X299847Y604723D01*
X299847Y605688D02*
X305181Y605688D01*
X305181Y606653D02*
X299847Y606653D01*
X299847Y607618D02*
X305181Y607618D01*
X305181Y608583D02*
X299847Y608583D01*
X299847Y609548D02*
X305181Y609548D01*
X305181Y610513D02*
X299847Y610513D01*
X299847Y611478D02*
X305181Y611478D01*
X305181Y612443D02*
X299847Y612443D01*
X299847Y613408D02*
X305181Y613408D01*
X305181Y614373D02*
X299847Y614373D01*
X299847Y615338D02*
X305181Y615338D01*
D13*
X247400Y541430D02*
X247400Y534890D01*
D14*
X259450Y513660D03*
X259450Y522660D03*
X273950Y513660D03*
X273950Y522660D03*
X259450Y504660D03*
X273950Y531660D03*
X273950Y541160D03*
X273950Y550660D03*
X273950Y495160D03*
X273950Y485660D03*
X259450Y495160D03*
X259450Y485660D03*
X259450Y541160D03*
X259450Y550660D03*
D13*
X247400Y501430D02*
X247400Y494890D01*
X286000Y534890D02*
X286000Y541430D01*
X286000Y501430D02*
X286000Y494890D01*
D15*
X286000Y533160D02*
X286000Y543160D01*
X286000Y503160D02*
X286000Y493160D01*
X247400Y493160D02*
X247400Y503160D01*
X247400Y533160D02*
X247400Y543160D01*
D16*
X340360Y594360D03*
X340360Y568960D03*
X340360Y543560D03*
X340360Y518160D03*
X340360Y492760D03*
X340360Y467360D03*
X340360Y441960D03*
D11*
X311460Y551760D02*
X301460Y551760D01*
X301460Y560760D01*
X311460Y560760D01*
X311460Y551760D01*
X311460Y552710D02*
X301460Y552710D01*
X301460Y553660D02*
X311460Y553660D01*
X311460Y554610D02*
X301460Y554610D01*
X301460Y555560D02*
X311460Y555560D01*
X311460Y556510D02*
X301460Y556510D01*
X301460Y557460D02*
X311460Y557460D01*
X311460Y558410D02*
X301460Y558410D01*
X301460Y559360D02*
X311460Y559360D01*
X311460Y560310D02*
X301460Y560310D01*
X318460Y551760D02*
X328460Y551760D01*
X318460Y551760D02*
X318460Y560760D01*
X328460Y560760D01*
X328460Y551760D01*
X328460Y552710D02*
X318460Y552710D01*
X318460Y553660D02*
X328460Y553660D01*
X328460Y554610D02*
X318460Y554610D01*
X318460Y555560D02*
X328460Y555560D01*
X328460Y556510D02*
X318460Y556510D01*
X318460Y557460D02*
X328460Y557460D01*
X328460Y558410D02*
X318460Y558410D01*
X318460Y559360D02*
X328460Y559360D01*
X328460Y560310D02*
X318460Y560310D01*
D10*
X364490Y613410D03*
X466090Y422910D03*
D11*
X430840Y526360D02*
X420840Y526360D01*
X420840Y535360D01*
X430840Y535360D01*
X430840Y526360D01*
X430840Y527310D02*
X420840Y527310D01*
X420840Y528260D02*
X430840Y528260D01*
X430840Y529210D02*
X420840Y529210D01*
X420840Y530160D02*
X430840Y530160D01*
X430840Y531110D02*
X420840Y531110D01*
X420840Y532060D02*
X430840Y532060D01*
X430840Y533010D02*
X420840Y533010D01*
X420840Y533960D02*
X430840Y533960D01*
X430840Y534910D02*
X420840Y534910D01*
X437840Y526360D02*
X447840Y526360D01*
X437840Y526360D02*
X437840Y535360D01*
X447840Y535360D01*
X447840Y526360D01*
X447840Y527310D02*
X437840Y527310D01*
X437840Y528260D02*
X447840Y528260D01*
X447840Y529210D02*
X437840Y529210D01*
X437840Y530160D02*
X447840Y530160D01*
X447840Y531110D02*
X437840Y531110D01*
X437840Y532060D02*
X447840Y532060D01*
X447840Y533010D02*
X437840Y533010D01*
X437840Y533960D02*
X447840Y533960D01*
X447840Y534910D02*
X437840Y534910D01*
D12*
X416433Y603758D02*
X411099Y603758D01*
X411099Y615442D01*
X416433Y615442D01*
X416433Y603758D01*
X416433Y604723D02*
X411099Y604723D01*
X411099Y605688D02*
X416433Y605688D01*
X416433Y606653D02*
X411099Y606653D01*
X411099Y607618D02*
X416433Y607618D01*
X416433Y608583D02*
X411099Y608583D01*
X411099Y609548D02*
X416433Y609548D01*
X416433Y610513D02*
X411099Y610513D01*
X411099Y611478D02*
X416433Y611478D01*
X416433Y612443D02*
X411099Y612443D01*
X411099Y613408D02*
X416433Y613408D01*
X416433Y614373D02*
X411099Y614373D01*
X411099Y615338D02*
X416433Y615338D01*
X419227Y603758D02*
X424561Y603758D01*
X419227Y603758D02*
X419227Y615442D01*
X424561Y615442D01*
X424561Y603758D01*
X424561Y604723D02*
X419227Y604723D01*
X419227Y605688D02*
X424561Y605688D01*
X424561Y606653D02*
X419227Y606653D01*
X419227Y607618D02*
X424561Y607618D01*
X424561Y608583D02*
X419227Y608583D01*
X419227Y609548D02*
X424561Y609548D01*
X424561Y610513D02*
X419227Y610513D01*
X419227Y611478D02*
X424561Y611478D01*
X424561Y612443D02*
X419227Y612443D01*
X419227Y613408D02*
X424561Y613408D01*
X424561Y614373D02*
X419227Y614373D01*
X419227Y615338D02*
X424561Y615338D01*
D13*
X366780Y541430D02*
X366780Y534890D01*
D14*
X378830Y513660D03*
X378830Y522660D03*
X393330Y513660D03*
X393330Y522660D03*
X378830Y504660D03*
X393330Y531660D03*
X393330Y541160D03*
X393330Y550660D03*
X393330Y495160D03*
X393330Y485660D03*
X378830Y495160D03*
X378830Y485660D03*
X378830Y541160D03*
X378830Y550660D03*
D13*
X366780Y501430D02*
X366780Y494890D01*
X405380Y534890D02*
X405380Y541430D01*
X405380Y501430D02*
X405380Y494890D01*
D15*
X405380Y533160D02*
X405380Y543160D01*
X405380Y503160D02*
X405380Y493160D01*
X366780Y493160D02*
X366780Y503160D01*
X366780Y533160D02*
X366780Y543160D01*
D16*
X459740Y594360D03*
X459740Y568960D03*
X459740Y543560D03*
X459740Y518160D03*
X459740Y492760D03*
X459740Y467360D03*
X459740Y441960D03*
D11*
X430840Y551760D02*
X420840Y551760D01*
X420840Y560760D01*
X430840Y560760D01*
X430840Y551760D01*
X430840Y552710D02*
X420840Y552710D01*
X420840Y553660D02*
X430840Y553660D01*
X430840Y554610D02*
X420840Y554610D01*
X420840Y555560D02*
X430840Y555560D01*
X430840Y556510D02*
X420840Y556510D01*
X420840Y557460D02*
X430840Y557460D01*
X430840Y558410D02*
X420840Y558410D01*
X420840Y559360D02*
X430840Y559360D01*
X430840Y560310D02*
X420840Y560310D01*
X437840Y551760D02*
X447840Y551760D01*
X437840Y551760D02*
X437840Y560760D01*
X447840Y560760D01*
X447840Y551760D01*
X447840Y552710D02*
X437840Y552710D01*
X437840Y553660D02*
X447840Y553660D01*
X447840Y554610D02*
X437840Y554610D01*
X437840Y555560D02*
X447840Y555560D01*
X447840Y556510D02*
X437840Y556510D01*
X437840Y557460D02*
X447840Y557460D01*
X447840Y558410D02*
X437840Y558410D01*
X437840Y559360D02*
X447840Y559360D01*
X447840Y560310D02*
X437840Y560310D01*
D10*
X483870Y613410D03*
X585470Y422910D03*
D11*
X550220Y526360D02*
X540220Y526360D01*
X540220Y535360D01*
X550220Y535360D01*
X550220Y526360D01*
X550220Y527310D02*
X540220Y527310D01*
X540220Y528260D02*
X550220Y528260D01*
X550220Y529210D02*
X540220Y529210D01*
X540220Y530160D02*
X550220Y530160D01*
X550220Y531110D02*
X540220Y531110D01*
X540220Y532060D02*
X550220Y532060D01*
X550220Y533010D02*
X540220Y533010D01*
X540220Y533960D02*
X550220Y533960D01*
X550220Y534910D02*
X540220Y534910D01*
X557220Y526360D02*
X567220Y526360D01*
X557220Y526360D02*
X557220Y535360D01*
X567220Y535360D01*
X567220Y526360D01*
X567220Y527310D02*
X557220Y527310D01*
X557220Y528260D02*
X567220Y528260D01*
X567220Y529210D02*
X557220Y529210D01*
X557220Y530160D02*
X567220Y530160D01*
X567220Y531110D02*
X557220Y531110D01*
X557220Y532060D02*
X567220Y532060D01*
X567220Y533010D02*
X557220Y533010D01*
X557220Y533960D02*
X567220Y533960D01*
X567220Y534910D02*
X557220Y534910D01*
D12*
X535813Y603758D02*
X530479Y603758D01*
X530479Y615442D01*
X535813Y615442D01*
X535813Y603758D01*
X535813Y604723D02*
X530479Y604723D01*
X530479Y605688D02*
X535813Y605688D01*
X535813Y606653D02*
X530479Y606653D01*
X530479Y607618D02*
X535813Y607618D01*
X535813Y608583D02*
X530479Y608583D01*
X530479Y609548D02*
X535813Y609548D01*
X535813Y610513D02*
X530479Y610513D01*
X530479Y611478D02*
X535813Y611478D01*
X535813Y612443D02*
X530479Y612443D01*
X530479Y613408D02*
X535813Y613408D01*
X535813Y614373D02*
X530479Y614373D01*
X530479Y615338D02*
X535813Y615338D01*
X538607Y603758D02*
X543941Y603758D01*
X538607Y603758D02*
X538607Y615442D01*
X543941Y615442D01*
X543941Y603758D01*
X543941Y604723D02*
X538607Y604723D01*
X538607Y605688D02*
X543941Y605688D01*
X543941Y606653D02*
X538607Y606653D01*
X538607Y607618D02*
X543941Y607618D01*
X543941Y608583D02*
X538607Y608583D01*
X538607Y609548D02*
X543941Y609548D01*
X543941Y610513D02*
X538607Y610513D01*
X538607Y611478D02*
X543941Y611478D01*
X543941Y612443D02*
X538607Y612443D01*
X538607Y613408D02*
X543941Y613408D01*
X543941Y614373D02*
X538607Y614373D01*
X538607Y615338D02*
X543941Y615338D01*
D13*
X486160Y541430D02*
X486160Y534890D01*
D14*
X498210Y513660D03*
X498210Y522660D03*
X512710Y513660D03*
X512710Y522660D03*
X498210Y504660D03*
X512710Y531660D03*
X512710Y541160D03*
X512710Y550660D03*
X512710Y495160D03*
X512710Y485660D03*
X498210Y495160D03*
X498210Y485660D03*
X498210Y541160D03*
X498210Y550660D03*
D13*
X486160Y501430D02*
X486160Y494890D01*
X524760Y534890D02*
X524760Y541430D01*
X524760Y501430D02*
X524760Y494890D01*
D15*
X524760Y533160D02*
X524760Y543160D01*
X524760Y503160D02*
X524760Y493160D01*
X486160Y493160D02*
X486160Y503160D01*
X486160Y533160D02*
X486160Y543160D01*
D16*
X579120Y594360D03*
X579120Y568960D03*
X579120Y543560D03*
X579120Y518160D03*
X579120Y492760D03*
X579120Y467360D03*
X579120Y441960D03*
D11*
X550220Y551760D02*
X540220Y551760D01*
X540220Y560760D01*
X550220Y560760D01*
X550220Y551760D01*
X550220Y552710D02*
X540220Y552710D01*
X540220Y553660D02*
X550220Y553660D01*
X550220Y554610D02*
X540220Y554610D01*
X540220Y555560D02*
X550220Y555560D01*
X550220Y556510D02*
X540220Y556510D01*
X540220Y557460D02*
X550220Y557460D01*
X550220Y558410D02*
X540220Y558410D01*
X540220Y559360D02*
X550220Y559360D01*
X550220Y560310D02*
X540220Y560310D01*
X557220Y551760D02*
X567220Y551760D01*
X557220Y551760D02*
X557220Y560760D01*
X567220Y560760D01*
X567220Y551760D01*
X567220Y552710D02*
X557220Y552710D01*
X557220Y553660D02*
X567220Y553660D01*
X567220Y554610D02*
X557220Y554610D01*
X557220Y555560D02*
X567220Y555560D01*
X567220Y556510D02*
X557220Y556510D01*
X557220Y557460D02*
X567220Y557460D01*
X567220Y558410D02*
X557220Y558410D01*
X557220Y559360D02*
X567220Y559360D01*
X567220Y560310D02*
X557220Y560310D01*
D10*
X603250Y613410D03*
X704850Y422910D03*
D11*
X669600Y526360D02*
X659600Y526360D01*
X659600Y535360D01*
X669600Y535360D01*
X669600Y526360D01*
X669600Y527310D02*
X659600Y527310D01*
X659600Y528260D02*
X669600Y528260D01*
X669600Y529210D02*
X659600Y529210D01*
X659600Y530160D02*
X669600Y530160D01*
X669600Y531110D02*
X659600Y531110D01*
X659600Y532060D02*
X669600Y532060D01*
X669600Y533010D02*
X659600Y533010D01*
X659600Y533960D02*
X669600Y533960D01*
X669600Y534910D02*
X659600Y534910D01*
X676600Y526360D02*
X686600Y526360D01*
X676600Y526360D02*
X676600Y535360D01*
X686600Y535360D01*
X686600Y526360D01*
X686600Y527310D02*
X676600Y527310D01*
X676600Y528260D02*
X686600Y528260D01*
X686600Y529210D02*
X676600Y529210D01*
X676600Y530160D02*
X686600Y530160D01*
X686600Y531110D02*
X676600Y531110D01*
X676600Y532060D02*
X686600Y532060D01*
X686600Y533010D02*
X676600Y533010D01*
X676600Y533960D02*
X686600Y533960D01*
X686600Y534910D02*
X676600Y534910D01*
D12*
X655193Y603758D02*
X649859Y603758D01*
X649859Y615442D01*
X655193Y615442D01*
X655193Y603758D01*
X655193Y604723D02*
X649859Y604723D01*
X649859Y605688D02*
X655193Y605688D01*
X655193Y606653D02*
X649859Y606653D01*
X649859Y607618D02*
X655193Y607618D01*
X655193Y608583D02*
X649859Y608583D01*
X649859Y609548D02*
X655193Y609548D01*
X655193Y610513D02*
X649859Y610513D01*
X649859Y611478D02*
X655193Y611478D01*
X655193Y612443D02*
X649859Y612443D01*
X649859Y613408D02*
X655193Y613408D01*
X655193Y614373D02*
X649859Y614373D01*
X649859Y615338D02*
X655193Y615338D01*
X657987Y603758D02*
X663321Y603758D01*
X657987Y603758D02*
X657987Y615442D01*
X663321Y615442D01*
X663321Y603758D01*
X663321Y604723D02*
X657987Y604723D01*
X657987Y605688D02*
X663321Y605688D01*
X663321Y606653D02*
X657987Y606653D01*
X657987Y607618D02*
X663321Y607618D01*
X663321Y608583D02*
X657987Y608583D01*
X657987Y609548D02*
X663321Y609548D01*
X663321Y610513D02*
X657987Y610513D01*
X657987Y611478D02*
X663321Y611478D01*
X663321Y612443D02*
X657987Y612443D01*
X657987Y613408D02*
X663321Y613408D01*
X663321Y614373D02*
X657987Y614373D01*
X657987Y615338D02*
X663321Y615338D01*
D13*
X605540Y541430D02*
X605540Y534890D01*
D14*
X617590Y513660D03*
X617590Y522660D03*
X632090Y513660D03*
X632090Y522660D03*
X617590Y504660D03*
X632090Y531660D03*
X632090Y541160D03*
X632090Y550660D03*
X632090Y495160D03*
X632090Y485660D03*
X617590Y495160D03*
X617590Y485660D03*
X617590Y541160D03*
X617590Y550660D03*
D13*
X605540Y501430D02*
X605540Y494890D01*
X644140Y534890D02*
X644140Y541430D01*
X644140Y501430D02*
X644140Y494890D01*
D15*
X644140Y533160D02*
X644140Y543160D01*
X644140Y503160D02*
X644140Y493160D01*
X605540Y493160D02*
X605540Y503160D01*
X605540Y533160D02*
X605540Y543160D01*
D16*
X698500Y594360D03*
X698500Y568960D03*
X698500Y543560D03*
X698500Y518160D03*
X698500Y492760D03*
X698500Y467360D03*
X698500Y441960D03*
D11*
X669600Y551760D02*
X659600Y551760D01*
X659600Y560760D01*
X669600Y560760D01*
X669600Y551760D01*
X669600Y552710D02*
X659600Y552710D01*
X659600Y553660D02*
X669600Y553660D01*
X669600Y554610D02*
X659600Y554610D01*
X659600Y555560D02*
X669600Y555560D01*
X669600Y556510D02*
X659600Y556510D01*
X659600Y557460D02*
X669600Y557460D01*
X669600Y558410D02*
X659600Y558410D01*
X659600Y559360D02*
X669600Y559360D01*
X669600Y560310D02*
X659600Y560310D01*
X676600Y551760D02*
X686600Y551760D01*
X676600Y551760D02*
X676600Y560760D01*
X686600Y560760D01*
X686600Y551760D01*
X686600Y552710D02*
X676600Y552710D01*
X676600Y553660D02*
X686600Y553660D01*
X686600Y554610D02*
X676600Y554610D01*
X676600Y555560D02*
X686600Y555560D01*
X686600Y556510D02*
X676600Y556510D01*
X676600Y557460D02*
X686600Y557460D01*
X686600Y558410D02*
X676600Y558410D01*
X676600Y559360D02*
X686600Y559360D01*
X686600Y560310D02*
X676600Y560310D01*
D10*
X722630Y613410D03*
X824230Y422910D03*
D11*
X788980Y526360D02*
X778980Y526360D01*
X778980Y535360D01*
X788980Y535360D01*
X788980Y526360D01*
X788980Y527310D02*
X778980Y527310D01*
X778980Y528260D02*
X788980Y528260D01*
X788980Y529210D02*
X778980Y529210D01*
X778980Y530160D02*
X788980Y530160D01*
X788980Y531110D02*
X778980Y531110D01*
X778980Y532060D02*
X788980Y532060D01*
X788980Y533010D02*
X778980Y533010D01*
X778980Y533960D02*
X788980Y533960D01*
X788980Y534910D02*
X778980Y534910D01*
X795980Y526360D02*
X805980Y526360D01*
X795980Y526360D02*
X795980Y535360D01*
X805980Y535360D01*
X805980Y526360D01*
X805980Y527310D02*
X795980Y527310D01*
X795980Y528260D02*
X805980Y528260D01*
X805980Y529210D02*
X795980Y529210D01*
X795980Y530160D02*
X805980Y530160D01*
X805980Y531110D02*
X795980Y531110D01*
X795980Y532060D02*
X805980Y532060D01*
X805980Y533010D02*
X795980Y533010D01*
X795980Y533960D02*
X805980Y533960D01*
X805980Y534910D02*
X795980Y534910D01*
D12*
X774573Y603758D02*
X769239Y603758D01*
X769239Y615442D01*
X774573Y615442D01*
X774573Y603758D01*
X774573Y604723D02*
X769239Y604723D01*
X769239Y605688D02*
X774573Y605688D01*
X774573Y606653D02*
X769239Y606653D01*
X769239Y607618D02*
X774573Y607618D01*
X774573Y608583D02*
X769239Y608583D01*
X769239Y609548D02*
X774573Y609548D01*
X774573Y610513D02*
X769239Y610513D01*
X769239Y611478D02*
X774573Y611478D01*
X774573Y612443D02*
X769239Y612443D01*
X769239Y613408D02*
X774573Y613408D01*
X774573Y614373D02*
X769239Y614373D01*
X769239Y615338D02*
X774573Y615338D01*
X777367Y603758D02*
X782701Y603758D01*
X777367Y603758D02*
X777367Y615442D01*
X782701Y615442D01*
X782701Y603758D01*
X782701Y604723D02*
X777367Y604723D01*
X777367Y605688D02*
X782701Y605688D01*
X782701Y606653D02*
X777367Y606653D01*
X777367Y607618D02*
X782701Y607618D01*
X782701Y608583D02*
X777367Y608583D01*
X777367Y609548D02*
X782701Y609548D01*
X782701Y610513D02*
X777367Y610513D01*
X777367Y611478D02*
X782701Y611478D01*
X782701Y612443D02*
X777367Y612443D01*
X777367Y613408D02*
X782701Y613408D01*
X782701Y614373D02*
X777367Y614373D01*
X777367Y615338D02*
X782701Y615338D01*
D13*
X724920Y541430D02*
X724920Y534890D01*
D14*
X736970Y513660D03*
X736970Y522660D03*
X751470Y513660D03*
X751470Y522660D03*
X736970Y504660D03*
X751470Y531660D03*
X751470Y541160D03*
X751470Y550660D03*
X751470Y495160D03*
X751470Y485660D03*
X736970Y495160D03*
X736970Y485660D03*
X736970Y541160D03*
X736970Y550660D03*
D13*
X724920Y501430D02*
X724920Y494890D01*
X763520Y534890D02*
X763520Y541430D01*
X763520Y501430D02*
X763520Y494890D01*
D15*
X763520Y533160D02*
X763520Y543160D01*
X763520Y503160D02*
X763520Y493160D01*
X724920Y493160D02*
X724920Y503160D01*
X724920Y533160D02*
X724920Y543160D01*
D16*
X817880Y594360D03*
X817880Y568960D03*
X817880Y543560D03*
X817880Y518160D03*
X817880Y492760D03*
X817880Y467360D03*
X817880Y441960D03*
D11*
X788980Y551760D02*
X778980Y551760D01*
X778980Y560760D01*
X788980Y560760D01*
X788980Y551760D01*
X788980Y552710D02*
X778980Y552710D01*
X778980Y553660D02*
X788980Y553660D01*
X788980Y554610D02*
X778980Y554610D01*
X778980Y555560D02*
X788980Y555560D01*
X788980Y556510D02*
X778980Y556510D01*
X778980Y557460D02*
X788980Y557460D01*
X788980Y558410D02*
X778980Y558410D01*
X778980Y559360D02*
X788980Y559360D01*
X788980Y560310D02*
X778980Y560310D01*
X795980Y551760D02*
X805980Y551760D01*
X795980Y551760D02*
X795980Y560760D01*
X805980Y560760D01*
X805980Y551760D01*
X805980Y552710D02*
X795980Y552710D01*
X795980Y553660D02*
X805980Y553660D01*
X805980Y554610D02*
X795980Y554610D01*
X795980Y555560D02*
X805980Y555560D01*
X805980Y556510D02*
X795980Y556510D01*
X795980Y557460D02*
X805980Y557460D01*
X805980Y558410D02*
X795980Y558410D01*
X795980Y559360D02*
X805980Y559360D01*
X805980Y560310D02*
X795980Y560310D01*
D10*
X842010Y613410D03*
X943610Y422910D03*
D11*
X908360Y526360D02*
X898360Y526360D01*
X898360Y535360D01*
X908360Y535360D01*
X908360Y526360D01*
X908360Y527310D02*
X898360Y527310D01*
X898360Y528260D02*
X908360Y528260D01*
X908360Y529210D02*
X898360Y529210D01*
X898360Y530160D02*
X908360Y530160D01*
X908360Y531110D02*
X898360Y531110D01*
X898360Y532060D02*
X908360Y532060D01*
X908360Y533010D02*
X898360Y533010D01*
X898360Y533960D02*
X908360Y533960D01*
X908360Y534910D02*
X898360Y534910D01*
X915360Y526360D02*
X925360Y526360D01*
X915360Y526360D02*
X915360Y535360D01*
X925360Y535360D01*
X925360Y526360D01*
X925360Y527310D02*
X915360Y527310D01*
X915360Y528260D02*
X925360Y528260D01*
X925360Y529210D02*
X915360Y529210D01*
X915360Y530160D02*
X925360Y530160D01*
X925360Y531110D02*
X915360Y531110D01*
X915360Y532060D02*
X925360Y532060D01*
X925360Y533010D02*
X915360Y533010D01*
X915360Y533960D02*
X925360Y533960D01*
X925360Y534910D02*
X915360Y534910D01*
D12*
X893953Y603758D02*
X888619Y603758D01*
X888619Y615442D01*
X893953Y615442D01*
X893953Y603758D01*
X893953Y604723D02*
X888619Y604723D01*
X888619Y605688D02*
X893953Y605688D01*
X893953Y606653D02*
X888619Y606653D01*
X888619Y607618D02*
X893953Y607618D01*
X893953Y608583D02*
X888619Y608583D01*
X888619Y609548D02*
X893953Y609548D01*
X893953Y610513D02*
X888619Y610513D01*
X888619Y611478D02*
X893953Y611478D01*
X893953Y612443D02*
X888619Y612443D01*
X888619Y613408D02*
X893953Y613408D01*
X893953Y614373D02*
X888619Y614373D01*
X888619Y615338D02*
X893953Y615338D01*
X896747Y603758D02*
X902081Y603758D01*
X896747Y603758D02*
X896747Y615442D01*
X902081Y615442D01*
X902081Y603758D01*
X902081Y604723D02*
X896747Y604723D01*
X896747Y605688D02*
X902081Y605688D01*
X902081Y606653D02*
X896747Y606653D01*
X896747Y607618D02*
X902081Y607618D01*
X902081Y608583D02*
X896747Y608583D01*
X896747Y609548D02*
X902081Y609548D01*
X902081Y610513D02*
X896747Y610513D01*
X896747Y611478D02*
X902081Y611478D01*
X902081Y612443D02*
X896747Y612443D01*
X896747Y613408D02*
X902081Y613408D01*
X902081Y614373D02*
X896747Y614373D01*
X896747Y615338D02*
X902081Y615338D01*
D13*
X844300Y541430D02*
X844300Y534890D01*
D14*
X856350Y513660D03*
X856350Y522660D03*
X870850Y513660D03*
X870850Y522660D03*
X856350Y504660D03*
X870850Y531660D03*
X870850Y541160D03*
X870850Y550660D03*
X870850Y495160D03*
X870850Y485660D03*
X856350Y495160D03*
X856350Y485660D03*
X856350Y541160D03*
X856350Y550660D03*
D13*
X844300Y501430D02*
X844300Y494890D01*
X882900Y534890D02*
X882900Y541430D01*
X882900Y501430D02*
X882900Y494890D01*
D15*
X882900Y533160D02*
X882900Y543160D01*
X882900Y503160D02*
X882900Y493160D01*
X844300Y493160D02*
X844300Y503160D01*
X844300Y533160D02*
X844300Y543160D01*
D16*
X937260Y594360D03*
X937260Y568960D03*
X937260Y543560D03*
X937260Y518160D03*
X937260Y492760D03*
X937260Y467360D03*
X937260Y441960D03*
D11*
X908360Y551760D02*
X898360Y551760D01*
X898360Y560760D01*
X908360Y560760D01*
X908360Y551760D01*
X908360Y552710D02*
X898360Y552710D01*
X898360Y553660D02*
X908360Y553660D01*
X908360Y554610D02*
X898360Y554610D01*
X898360Y555560D02*
X908360Y555560D01*
X908360Y556510D02*
X898360Y556510D01*
X898360Y557460D02*
X908360Y557460D01*
X908360Y558410D02*
X898360Y558410D01*
X898360Y559360D02*
X908360Y559360D01*
X908360Y560310D02*
X898360Y560310D01*
X915360Y551760D02*
X925360Y551760D01*
X915360Y551760D02*
X915360Y560760D01*
X925360Y560760D01*
X925360Y551760D01*
X925360Y552710D02*
X915360Y552710D01*
X915360Y553660D02*
X925360Y553660D01*
X925360Y554610D02*
X915360Y554610D01*
X915360Y555560D02*
X925360Y555560D01*
X925360Y556510D02*
X915360Y556510D01*
X915360Y557460D02*
X925360Y557460D01*
X925360Y558410D02*
X915360Y558410D01*
X915360Y559360D02*
X925360Y559360D01*
X925360Y560310D02*
X915360Y560310D01*
D10*
X6350Y821690D03*
X107950Y631190D03*
D11*
X72700Y734640D02*
X62700Y734640D01*
X62700Y743640D01*
X72700Y743640D01*
X72700Y734640D01*
X72700Y735590D02*
X62700Y735590D01*
X62700Y736540D02*
X72700Y736540D01*
X72700Y737490D02*
X62700Y737490D01*
X62700Y738440D02*
X72700Y738440D01*
X72700Y739390D02*
X62700Y739390D01*
X62700Y740340D02*
X72700Y740340D01*
X72700Y741290D02*
X62700Y741290D01*
X62700Y742240D02*
X72700Y742240D01*
X72700Y743190D02*
X62700Y743190D01*
X79700Y734640D02*
X89700Y734640D01*
X79700Y734640D02*
X79700Y743640D01*
X89700Y743640D01*
X89700Y734640D01*
X89700Y735590D02*
X79700Y735590D01*
X79700Y736540D02*
X89700Y736540D01*
X89700Y737490D02*
X79700Y737490D01*
X79700Y738440D02*
X89700Y738440D01*
X89700Y739390D02*
X79700Y739390D01*
X79700Y740340D02*
X89700Y740340D01*
X89700Y741290D02*
X79700Y741290D01*
X79700Y742240D02*
X89700Y742240D01*
X89700Y743190D02*
X79700Y743190D01*
D12*
X58293Y812038D02*
X52959Y812038D01*
X52959Y823722D01*
X58293Y823722D01*
X58293Y812038D01*
X58293Y813003D02*
X52959Y813003D01*
X52959Y813968D02*
X58293Y813968D01*
X58293Y814933D02*
X52959Y814933D01*
X52959Y815898D02*
X58293Y815898D01*
X58293Y816863D02*
X52959Y816863D01*
X52959Y817828D02*
X58293Y817828D01*
X58293Y818793D02*
X52959Y818793D01*
X52959Y819758D02*
X58293Y819758D01*
X58293Y820723D02*
X52959Y820723D01*
X52959Y821688D02*
X58293Y821688D01*
X58293Y822653D02*
X52959Y822653D01*
X52959Y823618D02*
X58293Y823618D01*
X61087Y812038D02*
X66421Y812038D01*
X61087Y812038D02*
X61087Y823722D01*
X66421Y823722D01*
X66421Y812038D01*
X66421Y813003D02*
X61087Y813003D01*
X61087Y813968D02*
X66421Y813968D01*
X66421Y814933D02*
X61087Y814933D01*
X61087Y815898D02*
X66421Y815898D01*
X66421Y816863D02*
X61087Y816863D01*
X61087Y817828D02*
X66421Y817828D01*
X66421Y818793D02*
X61087Y818793D01*
X61087Y819758D02*
X66421Y819758D01*
X66421Y820723D02*
X61087Y820723D01*
X61087Y821688D02*
X66421Y821688D01*
X66421Y822653D02*
X61087Y822653D01*
X61087Y823618D02*
X66421Y823618D01*
D13*
X8640Y749710D02*
X8640Y743170D01*
D14*
X20690Y721940D03*
X20690Y730940D03*
X35190Y721940D03*
X35190Y730940D03*
X20690Y712940D03*
X35190Y739940D03*
X35190Y749440D03*
X35190Y758940D03*
X35190Y703440D03*
X35190Y693940D03*
X20690Y703440D03*
X20690Y693940D03*
X20690Y749440D03*
X20690Y758940D03*
D13*
X8640Y709710D02*
X8640Y703170D01*
X47240Y743170D02*
X47240Y749710D01*
X47240Y709710D02*
X47240Y703170D01*
D15*
X47240Y741440D02*
X47240Y751440D01*
X47240Y711440D02*
X47240Y701440D01*
X8640Y701440D02*
X8640Y711440D01*
X8640Y741440D02*
X8640Y751440D01*
D16*
X101600Y802640D03*
X101600Y777240D03*
X101600Y751840D03*
X101600Y726440D03*
X101600Y701040D03*
X101600Y675640D03*
X101600Y650240D03*
D11*
X72700Y760040D02*
X62700Y760040D01*
X62700Y769040D01*
X72700Y769040D01*
X72700Y760040D01*
X72700Y760990D02*
X62700Y760990D01*
X62700Y761940D02*
X72700Y761940D01*
X72700Y762890D02*
X62700Y762890D01*
X62700Y763840D02*
X72700Y763840D01*
X72700Y764790D02*
X62700Y764790D01*
X62700Y765740D02*
X72700Y765740D01*
X72700Y766690D02*
X62700Y766690D01*
X62700Y767640D02*
X72700Y767640D01*
X72700Y768590D02*
X62700Y768590D01*
X79700Y760040D02*
X89700Y760040D01*
X79700Y760040D02*
X79700Y769040D01*
X89700Y769040D01*
X89700Y760040D01*
X89700Y760990D02*
X79700Y760990D01*
X79700Y761940D02*
X89700Y761940D01*
X89700Y762890D02*
X79700Y762890D01*
X79700Y763840D02*
X89700Y763840D01*
X89700Y764790D02*
X79700Y764790D01*
X79700Y765740D02*
X89700Y765740D01*
X89700Y766690D02*
X79700Y766690D01*
X79700Y767640D02*
X89700Y767640D01*
X89700Y768590D02*
X79700Y768590D01*
D10*
X125730Y821690D03*
X227330Y631190D03*
D11*
X192080Y734640D02*
X182080Y734640D01*
X182080Y743640D01*
X192080Y743640D01*
X192080Y734640D01*
X192080Y735590D02*
X182080Y735590D01*
X182080Y736540D02*
X192080Y736540D01*
X192080Y737490D02*
X182080Y737490D01*
X182080Y738440D02*
X192080Y738440D01*
X192080Y739390D02*
X182080Y739390D01*
X182080Y740340D02*
X192080Y740340D01*
X192080Y741290D02*
X182080Y741290D01*
X182080Y742240D02*
X192080Y742240D01*
X192080Y743190D02*
X182080Y743190D01*
X199080Y734640D02*
X209080Y734640D01*
X199080Y734640D02*
X199080Y743640D01*
X209080Y743640D01*
X209080Y734640D01*
X209080Y735590D02*
X199080Y735590D01*
X199080Y736540D02*
X209080Y736540D01*
X209080Y737490D02*
X199080Y737490D01*
X199080Y738440D02*
X209080Y738440D01*
X209080Y739390D02*
X199080Y739390D01*
X199080Y740340D02*
X209080Y740340D01*
X209080Y741290D02*
X199080Y741290D01*
X199080Y742240D02*
X209080Y742240D01*
X209080Y743190D02*
X199080Y743190D01*
D12*
X177673Y812038D02*
X172339Y812038D01*
X172339Y823722D01*
X177673Y823722D01*
X177673Y812038D01*
X177673Y813003D02*
X172339Y813003D01*
X172339Y813968D02*
X177673Y813968D01*
X177673Y814933D02*
X172339Y814933D01*
X172339Y815898D02*
X177673Y815898D01*
X177673Y816863D02*
X172339Y816863D01*
X172339Y817828D02*
X177673Y817828D01*
X177673Y818793D02*
X172339Y818793D01*
X172339Y819758D02*
X177673Y819758D01*
X177673Y820723D02*
X172339Y820723D01*
X172339Y821688D02*
X177673Y821688D01*
X177673Y822653D02*
X172339Y822653D01*
X172339Y823618D02*
X177673Y823618D01*
X180467Y812038D02*
X185801Y812038D01*
X180467Y812038D02*
X180467Y823722D01*
X185801Y823722D01*
X185801Y812038D01*
X185801Y813003D02*
X180467Y813003D01*
X180467Y813968D02*
X185801Y813968D01*
X185801Y814933D02*
X180467Y814933D01*
X180467Y815898D02*
X185801Y815898D01*
X185801Y816863D02*
X180467Y816863D01*
X180467Y817828D02*
X185801Y817828D01*
X185801Y818793D02*
X180467Y818793D01*
X180467Y819758D02*
X185801Y819758D01*
X185801Y820723D02*
X180467Y820723D01*
X180467Y821688D02*
X185801Y821688D01*
X185801Y822653D02*
X180467Y822653D01*
X180467Y823618D02*
X185801Y823618D01*
D13*
X128020Y749710D02*
X128020Y743170D01*
D14*
X140070Y721940D03*
X140070Y730940D03*
X154570Y721940D03*
X154570Y730940D03*
X140070Y712940D03*
X154570Y739940D03*
X154570Y749440D03*
X154570Y758940D03*
X154570Y703440D03*
X154570Y693940D03*
X140070Y703440D03*
X140070Y693940D03*
X140070Y749440D03*
X140070Y758940D03*
D13*
X128020Y709710D02*
X128020Y703170D01*
X166620Y743170D02*
X166620Y749710D01*
X166620Y709710D02*
X166620Y703170D01*
D15*
X166620Y741440D02*
X166620Y751440D01*
X166620Y711440D02*
X166620Y701440D01*
X128020Y701440D02*
X128020Y711440D01*
X128020Y741440D02*
X128020Y751440D01*
D16*
X220980Y802640D03*
X220980Y777240D03*
X220980Y751840D03*
X220980Y726440D03*
X220980Y701040D03*
X220980Y675640D03*
X220980Y650240D03*
D11*
X192080Y760040D02*
X182080Y760040D01*
X182080Y769040D01*
X192080Y769040D01*
X192080Y760040D01*
X192080Y760990D02*
X182080Y760990D01*
X182080Y761940D02*
X192080Y761940D01*
X192080Y762890D02*
X182080Y762890D01*
X182080Y763840D02*
X192080Y763840D01*
X192080Y764790D02*
X182080Y764790D01*
X182080Y765740D02*
X192080Y765740D01*
X192080Y766690D02*
X182080Y766690D01*
X182080Y767640D02*
X192080Y767640D01*
X192080Y768590D02*
X182080Y768590D01*
X199080Y760040D02*
X209080Y760040D01*
X199080Y760040D02*
X199080Y769040D01*
X209080Y769040D01*
X209080Y760040D01*
X209080Y760990D02*
X199080Y760990D01*
X199080Y761940D02*
X209080Y761940D01*
X209080Y762890D02*
X199080Y762890D01*
X199080Y763840D02*
X209080Y763840D01*
X209080Y764790D02*
X199080Y764790D01*
X199080Y765740D02*
X209080Y765740D01*
X209080Y766690D02*
X199080Y766690D01*
X199080Y767640D02*
X209080Y767640D01*
X209080Y768590D02*
X199080Y768590D01*
D10*
X245110Y821690D03*
X346710Y631190D03*
D11*
X311460Y734640D02*
X301460Y734640D01*
X301460Y743640D01*
X311460Y743640D01*
X311460Y734640D01*
X311460Y735590D02*
X301460Y735590D01*
X301460Y736540D02*
X311460Y736540D01*
X311460Y737490D02*
X301460Y737490D01*
X301460Y738440D02*
X311460Y738440D01*
X311460Y739390D02*
X301460Y739390D01*
X301460Y740340D02*
X311460Y740340D01*
X311460Y741290D02*
X301460Y741290D01*
X301460Y742240D02*
X311460Y742240D01*
X311460Y743190D02*
X301460Y743190D01*
X318460Y734640D02*
X328460Y734640D01*
X318460Y734640D02*
X318460Y743640D01*
X328460Y743640D01*
X328460Y734640D01*
X328460Y735590D02*
X318460Y735590D01*
X318460Y736540D02*
X328460Y736540D01*
X328460Y737490D02*
X318460Y737490D01*
X318460Y738440D02*
X328460Y738440D01*
X328460Y739390D02*
X318460Y739390D01*
X318460Y740340D02*
X328460Y740340D01*
X328460Y741290D02*
X318460Y741290D01*
X318460Y742240D02*
X328460Y742240D01*
X328460Y743190D02*
X318460Y743190D01*
D12*
X297053Y812038D02*
X291719Y812038D01*
X291719Y823722D01*
X297053Y823722D01*
X297053Y812038D01*
X297053Y813003D02*
X291719Y813003D01*
X291719Y813968D02*
X297053Y813968D01*
X297053Y814933D02*
X291719Y814933D01*
X291719Y815898D02*
X297053Y815898D01*
X297053Y816863D02*
X291719Y816863D01*
X291719Y817828D02*
X297053Y817828D01*
X297053Y818793D02*
X291719Y818793D01*
X291719Y819758D02*
X297053Y819758D01*
X297053Y820723D02*
X291719Y820723D01*
X291719Y821688D02*
X297053Y821688D01*
X297053Y822653D02*
X291719Y822653D01*
X291719Y823618D02*
X297053Y823618D01*
X299847Y812038D02*
X305181Y812038D01*
X299847Y812038D02*
X299847Y823722D01*
X305181Y823722D01*
X305181Y812038D01*
X305181Y813003D02*
X299847Y813003D01*
X299847Y813968D02*
X305181Y813968D01*
X305181Y814933D02*
X299847Y814933D01*
X299847Y815898D02*
X305181Y815898D01*
X305181Y816863D02*
X299847Y816863D01*
X299847Y817828D02*
X305181Y817828D01*
X305181Y818793D02*
X299847Y818793D01*
X299847Y819758D02*
X305181Y819758D01*
X305181Y820723D02*
X299847Y820723D01*
X299847Y821688D02*
X305181Y821688D01*
X305181Y822653D02*
X299847Y822653D01*
X299847Y823618D02*
X305181Y823618D01*
D13*
X247400Y749710D02*
X247400Y743170D01*
D14*
X259450Y721940D03*
X259450Y730940D03*
X273950Y721940D03*
X273950Y730940D03*
X259450Y712940D03*
X273950Y739940D03*
X273950Y749440D03*
X273950Y758940D03*
X273950Y703440D03*
X273950Y693940D03*
X259450Y703440D03*
X259450Y693940D03*
X259450Y749440D03*
X259450Y758940D03*
D13*
X247400Y709710D02*
X247400Y703170D01*
X286000Y743170D02*
X286000Y749710D01*
X286000Y709710D02*
X286000Y703170D01*
D15*
X286000Y741440D02*
X286000Y751440D01*
X286000Y711440D02*
X286000Y701440D01*
X247400Y701440D02*
X247400Y711440D01*
X247400Y741440D02*
X247400Y751440D01*
D16*
X340360Y802640D03*
X340360Y777240D03*
X340360Y751840D03*
X340360Y726440D03*
X340360Y701040D03*
X340360Y675640D03*
X340360Y650240D03*
D11*
X311460Y760040D02*
X301460Y760040D01*
X301460Y769040D01*
X311460Y769040D01*
X311460Y760040D01*
X311460Y760990D02*
X301460Y760990D01*
X301460Y761940D02*
X311460Y761940D01*
X311460Y762890D02*
X301460Y762890D01*
X301460Y763840D02*
X311460Y763840D01*
X311460Y764790D02*
X301460Y764790D01*
X301460Y765740D02*
X311460Y765740D01*
X311460Y766690D02*
X301460Y766690D01*
X301460Y767640D02*
X311460Y767640D01*
X311460Y768590D02*
X301460Y768590D01*
X318460Y760040D02*
X328460Y760040D01*
X318460Y760040D02*
X318460Y769040D01*
X328460Y769040D01*
X328460Y760040D01*
X328460Y760990D02*
X318460Y760990D01*
X318460Y761940D02*
X328460Y761940D01*
X328460Y762890D02*
X318460Y762890D01*
X318460Y763840D02*
X328460Y763840D01*
X328460Y764790D02*
X318460Y764790D01*
X318460Y765740D02*
X328460Y765740D01*
X328460Y766690D02*
X318460Y766690D01*
X318460Y767640D02*
X328460Y767640D01*
X328460Y768590D02*
X318460Y768590D01*
D10*
X364490Y821690D03*
X466090Y631190D03*
D11*
X430840Y734640D02*
X420840Y734640D01*
X420840Y743640D01*
X430840Y743640D01*
X430840Y734640D01*
X430840Y735590D02*
X420840Y735590D01*
X420840Y736540D02*
X430840Y736540D01*
X430840Y737490D02*
X420840Y737490D01*
X420840Y738440D02*
X430840Y738440D01*
X430840Y739390D02*
X420840Y739390D01*
X420840Y740340D02*
X430840Y740340D01*
X430840Y741290D02*
X420840Y741290D01*
X420840Y742240D02*
X430840Y742240D01*
X430840Y743190D02*
X420840Y743190D01*
X437840Y734640D02*
X447840Y734640D01*
X437840Y734640D02*
X437840Y743640D01*
X447840Y743640D01*
X447840Y734640D01*
X447840Y735590D02*
X437840Y735590D01*
X437840Y736540D02*
X447840Y736540D01*
X447840Y737490D02*
X437840Y737490D01*
X437840Y738440D02*
X447840Y738440D01*
X447840Y739390D02*
X437840Y739390D01*
X437840Y740340D02*
X447840Y740340D01*
X447840Y741290D02*
X437840Y741290D01*
X437840Y742240D02*
X447840Y742240D01*
X447840Y743190D02*
X437840Y743190D01*
D12*
X416433Y812038D02*
X411099Y812038D01*
X411099Y823722D01*
X416433Y823722D01*
X416433Y812038D01*
X416433Y813003D02*
X411099Y813003D01*
X411099Y813968D02*
X416433Y813968D01*
X416433Y814933D02*
X411099Y814933D01*
X411099Y815898D02*
X416433Y815898D01*
X416433Y816863D02*
X411099Y816863D01*
X411099Y817828D02*
X416433Y817828D01*
X416433Y818793D02*
X411099Y818793D01*
X411099Y819758D02*
X416433Y819758D01*
X416433Y820723D02*
X411099Y820723D01*
X411099Y821688D02*
X416433Y821688D01*
X416433Y822653D02*
X411099Y822653D01*
X411099Y823618D02*
X416433Y823618D01*
X419227Y812038D02*
X424561Y812038D01*
X419227Y812038D02*
X419227Y823722D01*
X424561Y823722D01*
X424561Y812038D01*
X424561Y813003D02*
X419227Y813003D01*
X419227Y813968D02*
X424561Y813968D01*
X424561Y814933D02*
X419227Y814933D01*
X419227Y815898D02*
X424561Y815898D01*
X424561Y816863D02*
X419227Y816863D01*
X419227Y817828D02*
X424561Y817828D01*
X424561Y818793D02*
X419227Y818793D01*
X419227Y819758D02*
X424561Y819758D01*
X424561Y820723D02*
X419227Y820723D01*
X419227Y821688D02*
X424561Y821688D01*
X424561Y822653D02*
X419227Y822653D01*
X419227Y823618D02*
X424561Y823618D01*
D13*
X366780Y749710D02*
X366780Y743170D01*
D14*
X378830Y721940D03*
X378830Y730940D03*
X393330Y721940D03*
X393330Y730940D03*
X378830Y712940D03*
X393330Y739940D03*
X393330Y749440D03*
X393330Y758940D03*
X393330Y703440D03*
X393330Y693940D03*
X378830Y703440D03*
X378830Y693940D03*
X378830Y749440D03*
X378830Y758940D03*
D13*
X366780Y709710D02*
X366780Y703170D01*
X405380Y743170D02*
X405380Y749710D01*
X405380Y709710D02*
X405380Y703170D01*
D15*
X405380Y741440D02*
X405380Y751440D01*
X405380Y711440D02*
X405380Y701440D01*
X366780Y701440D02*
X366780Y711440D01*
X366780Y741440D02*
X366780Y751440D01*
D16*
X459740Y802640D03*
X459740Y777240D03*
X459740Y751840D03*
X459740Y726440D03*
X459740Y701040D03*
X459740Y675640D03*
X459740Y650240D03*
D11*
X430840Y760040D02*
X420840Y760040D01*
X420840Y769040D01*
X430840Y769040D01*
X430840Y760040D01*
X430840Y760990D02*
X420840Y760990D01*
X420840Y761940D02*
X430840Y761940D01*
X430840Y762890D02*
X420840Y762890D01*
X420840Y763840D02*
X430840Y763840D01*
X430840Y764790D02*
X420840Y764790D01*
X420840Y765740D02*
X430840Y765740D01*
X430840Y766690D02*
X420840Y766690D01*
X420840Y767640D02*
X430840Y767640D01*
X430840Y768590D02*
X420840Y768590D01*
X437840Y760040D02*
X447840Y760040D01*
X437840Y760040D02*
X437840Y769040D01*
X447840Y769040D01*
X447840Y760040D01*
X447840Y760990D02*
X437840Y760990D01*
X437840Y761940D02*
X447840Y761940D01*
X447840Y762890D02*
X437840Y762890D01*
X437840Y763840D02*
X447840Y763840D01*
X447840Y764790D02*
X437840Y764790D01*
X437840Y765740D02*
X447840Y765740D01*
X447840Y766690D02*
X437840Y766690D01*
X437840Y767640D02*
X447840Y767640D01*
X447840Y768590D02*
X437840Y768590D01*
D10*
X483870Y821690D03*
X585470Y631190D03*
D11*
X550220Y734640D02*
X540220Y734640D01*
X540220Y743640D01*
X550220Y743640D01*
X550220Y734640D01*
X550220Y735590D02*
X540220Y735590D01*
X540220Y736540D02*
X550220Y736540D01*
X550220Y737490D02*
X540220Y737490D01*
X540220Y738440D02*
X550220Y738440D01*
X550220Y739390D02*
X540220Y739390D01*
X540220Y740340D02*
X550220Y740340D01*
X550220Y741290D02*
X540220Y741290D01*
X540220Y742240D02*
X550220Y742240D01*
X550220Y743190D02*
X540220Y743190D01*
X557220Y734640D02*
X567220Y734640D01*
X557220Y734640D02*
X557220Y743640D01*
X567220Y743640D01*
X567220Y734640D01*
X567220Y735590D02*
X557220Y735590D01*
X557220Y736540D02*
X567220Y736540D01*
X567220Y737490D02*
X557220Y737490D01*
X557220Y738440D02*
X567220Y738440D01*
X567220Y739390D02*
X557220Y739390D01*
X557220Y740340D02*
X567220Y740340D01*
X567220Y741290D02*
X557220Y741290D01*
X557220Y742240D02*
X567220Y742240D01*
X567220Y743190D02*
X557220Y743190D01*
D12*
X535813Y812038D02*
X530479Y812038D01*
X530479Y823722D01*
X535813Y823722D01*
X535813Y812038D01*
X535813Y813003D02*
X530479Y813003D01*
X530479Y813968D02*
X535813Y813968D01*
X535813Y814933D02*
X530479Y814933D01*
X530479Y815898D02*
X535813Y815898D01*
X535813Y816863D02*
X530479Y816863D01*
X530479Y817828D02*
X535813Y817828D01*
X535813Y818793D02*
X530479Y818793D01*
X530479Y819758D02*
X535813Y819758D01*
X535813Y820723D02*
X530479Y820723D01*
X530479Y821688D02*
X535813Y821688D01*
X535813Y822653D02*
X530479Y822653D01*
X530479Y823618D02*
X535813Y823618D01*
X538607Y812038D02*
X543941Y812038D01*
X538607Y812038D02*
X538607Y823722D01*
X543941Y823722D01*
X543941Y812038D01*
X543941Y813003D02*
X538607Y813003D01*
X538607Y813968D02*
X543941Y813968D01*
X543941Y814933D02*
X538607Y814933D01*
X538607Y815898D02*
X543941Y815898D01*
X543941Y816863D02*
X538607Y816863D01*
X538607Y817828D02*
X543941Y817828D01*
X543941Y818793D02*
X538607Y818793D01*
X538607Y819758D02*
X543941Y819758D01*
X543941Y820723D02*
X538607Y820723D01*
X538607Y821688D02*
X543941Y821688D01*
X543941Y822653D02*
X538607Y822653D01*
X538607Y823618D02*
X543941Y823618D01*
D13*
X486160Y749710D02*
X486160Y743170D01*
D14*
X498210Y721940D03*
X498210Y730940D03*
X512710Y721940D03*
X512710Y730940D03*
X498210Y712940D03*
X512710Y739940D03*
X512710Y749440D03*
X512710Y758940D03*
X512710Y703440D03*
X512710Y693940D03*
X498210Y703440D03*
X498210Y693940D03*
X498210Y749440D03*
X498210Y758940D03*
D13*
X486160Y709710D02*
X486160Y703170D01*
X524760Y743170D02*
X524760Y749710D01*
X524760Y709710D02*
X524760Y703170D01*
D15*
X524760Y741440D02*
X524760Y751440D01*
X524760Y711440D02*
X524760Y701440D01*
X486160Y701440D02*
X486160Y711440D01*
X486160Y741440D02*
X486160Y751440D01*
D16*
X579120Y802640D03*
X579120Y777240D03*
X579120Y751840D03*
X579120Y726440D03*
X579120Y701040D03*
X579120Y675640D03*
X579120Y650240D03*
D11*
X550220Y760040D02*
X540220Y760040D01*
X540220Y769040D01*
X550220Y769040D01*
X550220Y760040D01*
X550220Y760990D02*
X540220Y760990D01*
X540220Y761940D02*
X550220Y761940D01*
X550220Y762890D02*
X540220Y762890D01*
X540220Y763840D02*
X550220Y763840D01*
X550220Y764790D02*
X540220Y764790D01*
X540220Y765740D02*
X550220Y765740D01*
X550220Y766690D02*
X540220Y766690D01*
X540220Y767640D02*
X550220Y767640D01*
X550220Y768590D02*
X540220Y768590D01*
X557220Y760040D02*
X567220Y760040D01*
X557220Y760040D02*
X557220Y769040D01*
X567220Y769040D01*
X567220Y760040D01*
X567220Y760990D02*
X557220Y760990D01*
X557220Y761940D02*
X567220Y761940D01*
X567220Y762890D02*
X557220Y762890D01*
X557220Y763840D02*
X567220Y763840D01*
X567220Y764790D02*
X557220Y764790D01*
X557220Y765740D02*
X567220Y765740D01*
X567220Y766690D02*
X557220Y766690D01*
X557220Y767640D02*
X567220Y767640D01*
X567220Y768590D02*
X557220Y768590D01*
D10*
X603250Y821690D03*
X704850Y631190D03*
D11*
X669600Y734640D02*
X659600Y734640D01*
X659600Y743640D01*
X669600Y743640D01*
X669600Y734640D01*
X669600Y735590D02*
X659600Y735590D01*
X659600Y736540D02*
X669600Y736540D01*
X669600Y737490D02*
X659600Y737490D01*
X659600Y738440D02*
X669600Y738440D01*
X669600Y739390D02*
X659600Y739390D01*
X659600Y740340D02*
X669600Y740340D01*
X669600Y741290D02*
X659600Y741290D01*
X659600Y742240D02*
X669600Y742240D01*
X669600Y743190D02*
X659600Y743190D01*
X676600Y734640D02*
X686600Y734640D01*
X676600Y734640D02*
X676600Y743640D01*
X686600Y743640D01*
X686600Y734640D01*
X686600Y735590D02*
X676600Y735590D01*
X676600Y736540D02*
X686600Y736540D01*
X686600Y737490D02*
X676600Y737490D01*
X676600Y738440D02*
X686600Y738440D01*
X686600Y739390D02*
X676600Y739390D01*
X676600Y740340D02*
X686600Y740340D01*
X686600Y741290D02*
X676600Y741290D01*
X676600Y742240D02*
X686600Y742240D01*
X686600Y743190D02*
X676600Y743190D01*
D12*
X655193Y812038D02*
X649859Y812038D01*
X649859Y823722D01*
X655193Y823722D01*
X655193Y812038D01*
X655193Y813003D02*
X649859Y813003D01*
X649859Y813968D02*
X655193Y813968D01*
X655193Y814933D02*
X649859Y814933D01*
X649859Y815898D02*
X655193Y815898D01*
X655193Y816863D02*
X649859Y816863D01*
X649859Y817828D02*
X655193Y817828D01*
X655193Y818793D02*
X649859Y818793D01*
X649859Y819758D02*
X655193Y819758D01*
X655193Y820723D02*
X649859Y820723D01*
X649859Y821688D02*
X655193Y821688D01*
X655193Y822653D02*
X649859Y822653D01*
X649859Y823618D02*
X655193Y823618D01*
X657987Y812038D02*
X663321Y812038D01*
X657987Y812038D02*
X657987Y823722D01*
X663321Y823722D01*
X663321Y812038D01*
X663321Y813003D02*
X657987Y813003D01*
X657987Y813968D02*
X663321Y813968D01*
X663321Y814933D02*
X657987Y814933D01*
X657987Y815898D02*
X663321Y815898D01*
X663321Y816863D02*
X657987Y816863D01*
X657987Y817828D02*
X663321Y817828D01*
X663321Y818793D02*
X657987Y818793D01*
X657987Y819758D02*
X663321Y819758D01*
X663321Y820723D02*
X657987Y820723D01*
X657987Y821688D02*
X663321Y821688D01*
X663321Y822653D02*
X657987Y822653D01*
X657987Y823618D02*
X663321Y823618D01*
D13*
X605540Y749710D02*
X605540Y743170D01*
D14*
X617590Y721940D03*
X617590Y730940D03*
X632090Y721940D03*
X632090Y730940D03*
X617590Y712940D03*
X632090Y739940D03*
X632090Y749440D03*
X632090Y758940D03*
X632090Y703440D03*
X632090Y693940D03*
X617590Y703440D03*
X617590Y693940D03*
X617590Y749440D03*
X617590Y758940D03*
D13*
X605540Y709710D02*
X605540Y703170D01*
X644140Y743170D02*
X644140Y749710D01*
X644140Y709710D02*
X644140Y703170D01*
D15*
X644140Y741440D02*
X644140Y751440D01*
X644140Y711440D02*
X644140Y701440D01*
X605540Y701440D02*
X605540Y711440D01*
X605540Y741440D02*
X605540Y751440D01*
D16*
X698500Y802640D03*
X698500Y777240D03*
X698500Y751840D03*
X698500Y726440D03*
X698500Y701040D03*
X698500Y675640D03*
X698500Y650240D03*
D11*
X669600Y760040D02*
X659600Y760040D01*
X659600Y769040D01*
X669600Y769040D01*
X669600Y760040D01*
X669600Y760990D02*
X659600Y760990D01*
X659600Y761940D02*
X669600Y761940D01*
X669600Y762890D02*
X659600Y762890D01*
X659600Y763840D02*
X669600Y763840D01*
X669600Y764790D02*
X659600Y764790D01*
X659600Y765740D02*
X669600Y765740D01*
X669600Y766690D02*
X659600Y766690D01*
X659600Y767640D02*
X669600Y767640D01*
X669600Y768590D02*
X659600Y768590D01*
X676600Y760040D02*
X686600Y760040D01*
X676600Y760040D02*
X676600Y769040D01*
X686600Y769040D01*
X686600Y760040D01*
X686600Y760990D02*
X676600Y760990D01*
X676600Y761940D02*
X686600Y761940D01*
X686600Y762890D02*
X676600Y762890D01*
X676600Y763840D02*
X686600Y763840D01*
X686600Y764790D02*
X676600Y764790D01*
X676600Y765740D02*
X686600Y765740D01*
X686600Y766690D02*
X676600Y766690D01*
X676600Y767640D02*
X686600Y767640D01*
X686600Y768590D02*
X676600Y768590D01*
D10*
X722630Y821690D03*
X824230Y631190D03*
D11*
X788980Y734640D02*
X778980Y734640D01*
X778980Y743640D01*
X788980Y743640D01*
X788980Y734640D01*
X788980Y735590D02*
X778980Y735590D01*
X778980Y736540D02*
X788980Y736540D01*
X788980Y737490D02*
X778980Y737490D01*
X778980Y738440D02*
X788980Y738440D01*
X788980Y739390D02*
X778980Y739390D01*
X778980Y740340D02*
X788980Y740340D01*
X788980Y741290D02*
X778980Y741290D01*
X778980Y742240D02*
X788980Y742240D01*
X788980Y743190D02*
X778980Y743190D01*
X795980Y734640D02*
X805980Y734640D01*
X795980Y734640D02*
X795980Y743640D01*
X805980Y743640D01*
X805980Y734640D01*
X805980Y735590D02*
X795980Y735590D01*
X795980Y736540D02*
X805980Y736540D01*
X805980Y737490D02*
X795980Y737490D01*
X795980Y738440D02*
X805980Y738440D01*
X805980Y739390D02*
X795980Y739390D01*
X795980Y740340D02*
X805980Y740340D01*
X805980Y741290D02*
X795980Y741290D01*
X795980Y742240D02*
X805980Y742240D01*
X805980Y743190D02*
X795980Y743190D01*
D12*
X774573Y812038D02*
X769239Y812038D01*
X769239Y823722D01*
X774573Y823722D01*
X774573Y812038D01*
X774573Y813003D02*
X769239Y813003D01*
X769239Y813968D02*
X774573Y813968D01*
X774573Y814933D02*
X769239Y814933D01*
X769239Y815898D02*
X774573Y815898D01*
X774573Y816863D02*
X769239Y816863D01*
X769239Y817828D02*
X774573Y817828D01*
X774573Y818793D02*
X769239Y818793D01*
X769239Y819758D02*
X774573Y819758D01*
X774573Y820723D02*
X769239Y820723D01*
X769239Y821688D02*
X774573Y821688D01*
X774573Y822653D02*
X769239Y822653D01*
X769239Y823618D02*
X774573Y823618D01*
X777367Y812038D02*
X782701Y812038D01*
X777367Y812038D02*
X777367Y823722D01*
X782701Y823722D01*
X782701Y812038D01*
X782701Y813003D02*
X777367Y813003D01*
X777367Y813968D02*
X782701Y813968D01*
X782701Y814933D02*
X777367Y814933D01*
X777367Y815898D02*
X782701Y815898D01*
X782701Y816863D02*
X777367Y816863D01*
X777367Y817828D02*
X782701Y817828D01*
X782701Y818793D02*
X777367Y818793D01*
X777367Y819758D02*
X782701Y819758D01*
X782701Y820723D02*
X777367Y820723D01*
X777367Y821688D02*
X782701Y821688D01*
X782701Y822653D02*
X777367Y822653D01*
X777367Y823618D02*
X782701Y823618D01*
D13*
X724920Y749710D02*
X724920Y743170D01*
D14*
X736970Y721940D03*
X736970Y730940D03*
X751470Y721940D03*
X751470Y730940D03*
X736970Y712940D03*
X751470Y739940D03*
X751470Y749440D03*
X751470Y758940D03*
X751470Y703440D03*
X751470Y693940D03*
X736970Y703440D03*
X736970Y693940D03*
X736970Y749440D03*
X736970Y758940D03*
D13*
X724920Y709710D02*
X724920Y703170D01*
X763520Y743170D02*
X763520Y749710D01*
X763520Y709710D02*
X763520Y703170D01*
D15*
X763520Y741440D02*
X763520Y751440D01*
X763520Y711440D02*
X763520Y701440D01*
X724920Y701440D02*
X724920Y711440D01*
X724920Y741440D02*
X724920Y751440D01*
D16*
X817880Y802640D03*
X817880Y777240D03*
X817880Y751840D03*
X817880Y726440D03*
X817880Y701040D03*
X817880Y675640D03*
X817880Y650240D03*
D11*
X788980Y760040D02*
X778980Y760040D01*
X778980Y769040D01*
X788980Y769040D01*
X788980Y760040D01*
X788980Y760990D02*
X778980Y760990D01*
X778980Y761940D02*
X788980Y761940D01*
X788980Y762890D02*
X778980Y762890D01*
X778980Y763840D02*
X788980Y763840D01*
X788980Y764790D02*
X778980Y764790D01*
X778980Y765740D02*
X788980Y765740D01*
X788980Y766690D02*
X778980Y766690D01*
X778980Y767640D02*
X788980Y767640D01*
X788980Y768590D02*
X778980Y768590D01*
X795980Y760040D02*
X805980Y760040D01*
X795980Y760040D02*
X795980Y769040D01*
X805980Y769040D01*
X805980Y760040D01*
X805980Y760990D02*
X795980Y760990D01*
X795980Y761940D02*
X805980Y761940D01*
X805980Y762890D02*
X795980Y762890D01*
X795980Y763840D02*
X805980Y763840D01*
X805980Y764790D02*
X795980Y764790D01*
X795980Y765740D02*
X805980Y765740D01*
X805980Y766690D02*
X795980Y766690D01*
X795980Y767640D02*
X805980Y767640D01*
X805980Y768590D02*
X795980Y768590D01*
D10*
X842010Y821690D03*
X943610Y631190D03*
D11*
X908360Y734640D02*
X898360Y734640D01*
X898360Y743640D01*
X908360Y743640D01*
X908360Y734640D01*
X908360Y735590D02*
X898360Y735590D01*
X898360Y736540D02*
X908360Y736540D01*
X908360Y737490D02*
X898360Y737490D01*
X898360Y738440D02*
X908360Y738440D01*
X908360Y739390D02*
X898360Y739390D01*
X898360Y740340D02*
X908360Y740340D01*
X908360Y741290D02*
X898360Y741290D01*
X898360Y742240D02*
X908360Y742240D01*
X908360Y743190D02*
X898360Y743190D01*
X915360Y734640D02*
X925360Y734640D01*
X915360Y734640D02*
X915360Y743640D01*
X925360Y743640D01*
X925360Y734640D01*
X925360Y735590D02*
X915360Y735590D01*
X915360Y736540D02*
X925360Y736540D01*
X925360Y737490D02*
X915360Y737490D01*
X915360Y738440D02*
X925360Y738440D01*
X925360Y739390D02*
X915360Y739390D01*
X915360Y740340D02*
X925360Y740340D01*
X925360Y741290D02*
X915360Y741290D01*
X915360Y742240D02*
X925360Y742240D01*
X925360Y743190D02*
X915360Y743190D01*
D12*
X893953Y812038D02*
X888619Y812038D01*
X888619Y823722D01*
X893953Y823722D01*
X893953Y812038D01*
X893953Y813003D02*
X888619Y813003D01*
X888619Y813968D02*
X893953Y813968D01*
X893953Y814933D02*
X888619Y814933D01*
X888619Y815898D02*
X893953Y815898D01*
X893953Y816863D02*
X888619Y816863D01*
X888619Y817828D02*
X893953Y817828D01*
X893953Y818793D02*
X888619Y818793D01*
X888619Y819758D02*
X893953Y819758D01*
X893953Y820723D02*
X888619Y820723D01*
X888619Y821688D02*
X893953Y821688D01*
X893953Y822653D02*
X888619Y822653D01*
X888619Y823618D02*
X893953Y823618D01*
X896747Y812038D02*
X902081Y812038D01*
X896747Y812038D02*
X896747Y823722D01*
X902081Y823722D01*
X902081Y812038D01*
X902081Y813003D02*
X896747Y813003D01*
X896747Y813968D02*
X902081Y813968D01*
X902081Y814933D02*
X896747Y814933D01*
X896747Y815898D02*
X902081Y815898D01*
X902081Y816863D02*
X896747Y816863D01*
X896747Y817828D02*
X902081Y817828D01*
X902081Y818793D02*
X896747Y818793D01*
X896747Y819758D02*
X902081Y819758D01*
X902081Y820723D02*
X896747Y820723D01*
X896747Y821688D02*
X902081Y821688D01*
X902081Y822653D02*
X896747Y822653D01*
X896747Y823618D02*
X902081Y823618D01*
D13*
X844300Y749710D02*
X844300Y743170D01*
D14*
X856350Y721940D03*
X856350Y730940D03*
X870850Y721940D03*
X870850Y730940D03*
X856350Y712940D03*
X870850Y739940D03*
X870850Y749440D03*
X870850Y758940D03*
X870850Y703440D03*
X870850Y693940D03*
X856350Y703440D03*
X856350Y693940D03*
X856350Y749440D03*
X856350Y758940D03*
D13*
X844300Y709710D02*
X844300Y703170D01*
X882900Y743170D02*
X882900Y749710D01*
X882900Y709710D02*
X882900Y703170D01*
D15*
X882900Y741440D02*
X882900Y751440D01*
X882900Y711440D02*
X882900Y701440D01*
X844300Y701440D02*
X844300Y711440D01*
X844300Y741440D02*
X844300Y751440D01*
D16*
X937260Y802640D03*
X937260Y777240D03*
X937260Y751840D03*
X937260Y726440D03*
X937260Y701040D03*
X937260Y675640D03*
X937260Y650240D03*
D11*
X908360Y760040D02*
X898360Y760040D01*
X898360Y769040D01*
X908360Y769040D01*
X908360Y760040D01*
X908360Y760990D02*
X898360Y760990D01*
X898360Y761940D02*
X908360Y761940D01*
X908360Y762890D02*
X898360Y762890D01*
X898360Y763840D02*
X908360Y763840D01*
X908360Y764790D02*
X898360Y764790D01*
X898360Y765740D02*
X908360Y765740D01*
X908360Y766690D02*
X898360Y766690D01*
X898360Y767640D02*
X908360Y767640D01*
X908360Y768590D02*
X898360Y768590D01*
X915360Y760040D02*
X925360Y760040D01*
X915360Y760040D02*
X915360Y769040D01*
X925360Y769040D01*
X925360Y760040D01*
X925360Y760990D02*
X915360Y760990D01*
X915360Y761940D02*
X925360Y761940D01*
X925360Y762890D02*
X915360Y762890D01*
X915360Y763840D02*
X925360Y763840D01*
X925360Y764790D02*
X915360Y764790D01*
X915360Y765740D02*
X925360Y765740D01*
X925360Y766690D02*
X915360Y766690D01*
X915360Y767640D02*
X925360Y767640D01*
X925360Y768590D02*
X915360Y768590D01*
D10*
X6350Y1029970D03*
X107950Y839470D03*
D11*
X72700Y942920D02*
X62700Y942920D01*
X62700Y951920D01*
X72700Y951920D01*
X72700Y942920D01*
X72700Y943870D02*
X62700Y943870D01*
X62700Y944820D02*
X72700Y944820D01*
X72700Y945770D02*
X62700Y945770D01*
X62700Y946720D02*
X72700Y946720D01*
X72700Y947670D02*
X62700Y947670D01*
X62700Y948620D02*
X72700Y948620D01*
X72700Y949570D02*
X62700Y949570D01*
X62700Y950520D02*
X72700Y950520D01*
X72700Y951470D02*
X62700Y951470D01*
X79700Y942920D02*
X89700Y942920D01*
X79700Y942920D02*
X79700Y951920D01*
X89700Y951920D01*
X89700Y942920D01*
X89700Y943870D02*
X79700Y943870D01*
X79700Y944820D02*
X89700Y944820D01*
X89700Y945770D02*
X79700Y945770D01*
X79700Y946720D02*
X89700Y946720D01*
X89700Y947670D02*
X79700Y947670D01*
X79700Y948620D02*
X89700Y948620D01*
X89700Y949570D02*
X79700Y949570D01*
X79700Y950520D02*
X89700Y950520D01*
X89700Y951470D02*
X79700Y951470D01*
D12*
X58293Y1020318D02*
X52959Y1020318D01*
X52959Y1032002D01*
X58293Y1032002D01*
X58293Y1020318D01*
X58293Y1021283D02*
X52959Y1021283D01*
X52959Y1022248D02*
X58293Y1022248D01*
X58293Y1023213D02*
X52959Y1023213D01*
X52959Y1024178D02*
X58293Y1024178D01*
X58293Y1025143D02*
X52959Y1025143D01*
X52959Y1026108D02*
X58293Y1026108D01*
X58293Y1027073D02*
X52959Y1027073D01*
X52959Y1028038D02*
X58293Y1028038D01*
X58293Y1029003D02*
X52959Y1029003D01*
X52959Y1029968D02*
X58293Y1029968D01*
X58293Y1030933D02*
X52959Y1030933D01*
X52959Y1031898D02*
X58293Y1031898D01*
X61087Y1020318D02*
X66421Y1020318D01*
X61087Y1020318D02*
X61087Y1032002D01*
X66421Y1032002D01*
X66421Y1020318D01*
X66421Y1021283D02*
X61087Y1021283D01*
X61087Y1022248D02*
X66421Y1022248D01*
X66421Y1023213D02*
X61087Y1023213D01*
X61087Y1024178D02*
X66421Y1024178D01*
X66421Y1025143D02*
X61087Y1025143D01*
X61087Y1026108D02*
X66421Y1026108D01*
X66421Y1027073D02*
X61087Y1027073D01*
X61087Y1028038D02*
X66421Y1028038D01*
X66421Y1029003D02*
X61087Y1029003D01*
X61087Y1029968D02*
X66421Y1029968D01*
X66421Y1030933D02*
X61087Y1030933D01*
X61087Y1031898D02*
X66421Y1031898D01*
D13*
X8640Y957990D02*
X8640Y951450D01*
D14*
X20690Y930220D03*
X20690Y939220D03*
X35190Y930220D03*
X35190Y939220D03*
X20690Y921220D03*
X35190Y948220D03*
X35190Y957720D03*
X35190Y967220D03*
X35190Y911720D03*
X35190Y902220D03*
X20690Y911720D03*
X20690Y902220D03*
X20690Y957720D03*
X20690Y967220D03*
D13*
X8640Y917990D02*
X8640Y911450D01*
X47240Y951450D02*
X47240Y957990D01*
X47240Y917990D02*
X47240Y911450D01*
D15*
X47240Y949720D02*
X47240Y959720D01*
X47240Y919720D02*
X47240Y909720D01*
X8640Y909720D02*
X8640Y919720D01*
X8640Y949720D02*
X8640Y959720D01*
D16*
X101600Y1010920D03*
X101600Y985520D03*
X101600Y960120D03*
X101600Y934720D03*
X101600Y909320D03*
X101600Y883920D03*
X101600Y858520D03*
D11*
X72700Y968320D02*
X62700Y968320D01*
X62700Y977320D01*
X72700Y977320D01*
X72700Y968320D01*
X72700Y969270D02*
X62700Y969270D01*
X62700Y970220D02*
X72700Y970220D01*
X72700Y971170D02*
X62700Y971170D01*
X62700Y972120D02*
X72700Y972120D01*
X72700Y973070D02*
X62700Y973070D01*
X62700Y974020D02*
X72700Y974020D01*
X72700Y974970D02*
X62700Y974970D01*
X62700Y975920D02*
X72700Y975920D01*
X72700Y976870D02*
X62700Y976870D01*
X79700Y968320D02*
X89700Y968320D01*
X79700Y968320D02*
X79700Y977320D01*
X89700Y977320D01*
X89700Y968320D01*
X89700Y969270D02*
X79700Y969270D01*
X79700Y970220D02*
X89700Y970220D01*
X89700Y971170D02*
X79700Y971170D01*
X79700Y972120D02*
X89700Y972120D01*
X89700Y973070D02*
X79700Y973070D01*
X79700Y974020D02*
X89700Y974020D01*
X89700Y974970D02*
X79700Y974970D01*
X79700Y975920D02*
X89700Y975920D01*
X89700Y976870D02*
X79700Y976870D01*
D10*
X125730Y1029970D03*
X227330Y839470D03*
D11*
X192080Y942920D02*
X182080Y942920D01*
X182080Y951920D01*
X192080Y951920D01*
X192080Y942920D01*
X192080Y943870D02*
X182080Y943870D01*
X182080Y944820D02*
X192080Y944820D01*
X192080Y945770D02*
X182080Y945770D01*
X182080Y946720D02*
X192080Y946720D01*
X192080Y947670D02*
X182080Y947670D01*
X182080Y948620D02*
X192080Y948620D01*
X192080Y949570D02*
X182080Y949570D01*
X182080Y950520D02*
X192080Y950520D01*
X192080Y951470D02*
X182080Y951470D01*
X199080Y942920D02*
X209080Y942920D01*
X199080Y942920D02*
X199080Y951920D01*
X209080Y951920D01*
X209080Y942920D01*
X209080Y943870D02*
X199080Y943870D01*
X199080Y944820D02*
X209080Y944820D01*
X209080Y945770D02*
X199080Y945770D01*
X199080Y946720D02*
X209080Y946720D01*
X209080Y947670D02*
X199080Y947670D01*
X199080Y948620D02*
X209080Y948620D01*
X209080Y949570D02*
X199080Y949570D01*
X199080Y950520D02*
X209080Y950520D01*
X209080Y951470D02*
X199080Y951470D01*
D12*
X177673Y1020318D02*
X172339Y1020318D01*
X172339Y1032002D01*
X177673Y1032002D01*
X177673Y1020318D01*
X177673Y1021283D02*
X172339Y1021283D01*
X172339Y1022248D02*
X177673Y1022248D01*
X177673Y1023213D02*
X172339Y1023213D01*
X172339Y1024178D02*
X177673Y1024178D01*
X177673Y1025143D02*
X172339Y1025143D01*
X172339Y1026108D02*
X177673Y1026108D01*
X177673Y1027073D02*
X172339Y1027073D01*
X172339Y1028038D02*
X177673Y1028038D01*
X177673Y1029003D02*
X172339Y1029003D01*
X172339Y1029968D02*
X177673Y1029968D01*
X177673Y1030933D02*
X172339Y1030933D01*
X172339Y1031898D02*
X177673Y1031898D01*
X180467Y1020318D02*
X185801Y1020318D01*
X180467Y1020318D02*
X180467Y1032002D01*
X185801Y1032002D01*
X185801Y1020318D01*
X185801Y1021283D02*
X180467Y1021283D01*
X180467Y1022248D02*
X185801Y1022248D01*
X185801Y1023213D02*
X180467Y1023213D01*
X180467Y1024178D02*
X185801Y1024178D01*
X185801Y1025143D02*
X180467Y1025143D01*
X180467Y1026108D02*
X185801Y1026108D01*
X185801Y1027073D02*
X180467Y1027073D01*
X180467Y1028038D02*
X185801Y1028038D01*
X185801Y1029003D02*
X180467Y1029003D01*
X180467Y1029968D02*
X185801Y1029968D01*
X185801Y1030933D02*
X180467Y1030933D01*
X180467Y1031898D02*
X185801Y1031898D01*
D13*
X128020Y957990D02*
X128020Y951450D01*
D14*
X140070Y930220D03*
X140070Y939220D03*
X154570Y930220D03*
X154570Y939220D03*
X140070Y921220D03*
X154570Y948220D03*
X154570Y957720D03*
X154570Y967220D03*
X154570Y911720D03*
X154570Y902220D03*
X140070Y911720D03*
X140070Y902220D03*
X140070Y957720D03*
X140070Y967220D03*
D13*
X128020Y917990D02*
X128020Y911450D01*
X166620Y951450D02*
X166620Y957990D01*
X166620Y917990D02*
X166620Y911450D01*
D15*
X166620Y949720D02*
X166620Y959720D01*
X166620Y919720D02*
X166620Y909720D01*
X128020Y909720D02*
X128020Y919720D01*
X128020Y949720D02*
X128020Y959720D01*
D16*
X220980Y1010920D03*
X220980Y985520D03*
X220980Y960120D03*
X220980Y934720D03*
X220980Y909320D03*
X220980Y883920D03*
X220980Y858520D03*
D11*
X192080Y968320D02*
X182080Y968320D01*
X182080Y977320D01*
X192080Y977320D01*
X192080Y968320D01*
X192080Y969270D02*
X182080Y969270D01*
X182080Y970220D02*
X192080Y970220D01*
X192080Y971170D02*
X182080Y971170D01*
X182080Y972120D02*
X192080Y972120D01*
X192080Y973070D02*
X182080Y973070D01*
X182080Y974020D02*
X192080Y974020D01*
X192080Y974970D02*
X182080Y974970D01*
X182080Y975920D02*
X192080Y975920D01*
X192080Y976870D02*
X182080Y976870D01*
X199080Y968320D02*
X209080Y968320D01*
X199080Y968320D02*
X199080Y977320D01*
X209080Y977320D01*
X209080Y968320D01*
X209080Y969270D02*
X199080Y969270D01*
X199080Y970220D02*
X209080Y970220D01*
X209080Y971170D02*
X199080Y971170D01*
X199080Y972120D02*
X209080Y972120D01*
X209080Y973070D02*
X199080Y973070D01*
X199080Y974020D02*
X209080Y974020D01*
X209080Y974970D02*
X199080Y974970D01*
X199080Y975920D02*
X209080Y975920D01*
X209080Y976870D02*
X199080Y976870D01*
D10*
X245110Y1029970D03*
X346710Y839470D03*
D11*
X311460Y942920D02*
X301460Y942920D01*
X301460Y951920D01*
X311460Y951920D01*
X311460Y942920D01*
X311460Y943870D02*
X301460Y943870D01*
X301460Y944820D02*
X311460Y944820D01*
X311460Y945770D02*
X301460Y945770D01*
X301460Y946720D02*
X311460Y946720D01*
X311460Y947670D02*
X301460Y947670D01*
X301460Y948620D02*
X311460Y948620D01*
X311460Y949570D02*
X301460Y949570D01*
X301460Y950520D02*
X311460Y950520D01*
X311460Y951470D02*
X301460Y951470D01*
X318460Y942920D02*
X328460Y942920D01*
X318460Y942920D02*
X318460Y951920D01*
X328460Y951920D01*
X328460Y942920D01*
X328460Y943870D02*
X318460Y943870D01*
X318460Y944820D02*
X328460Y944820D01*
X328460Y945770D02*
X318460Y945770D01*
X318460Y946720D02*
X328460Y946720D01*
X328460Y947670D02*
X318460Y947670D01*
X318460Y948620D02*
X328460Y948620D01*
X328460Y949570D02*
X318460Y949570D01*
X318460Y950520D02*
X328460Y950520D01*
X328460Y951470D02*
X318460Y951470D01*
D12*
X297053Y1020318D02*
X291719Y1020318D01*
X291719Y1032002D01*
X297053Y1032002D01*
X297053Y1020318D01*
X297053Y1021283D02*
X291719Y1021283D01*
X291719Y1022248D02*
X297053Y1022248D01*
X297053Y1023213D02*
X291719Y1023213D01*
X291719Y1024178D02*
X297053Y1024178D01*
X297053Y1025143D02*
X291719Y1025143D01*
X291719Y1026108D02*
X297053Y1026108D01*
X297053Y1027073D02*
X291719Y1027073D01*
X291719Y1028038D02*
X297053Y1028038D01*
X297053Y1029003D02*
X291719Y1029003D01*
X291719Y1029968D02*
X297053Y1029968D01*
X297053Y1030933D02*
X291719Y1030933D01*
X291719Y1031898D02*
X297053Y1031898D01*
X299847Y1020318D02*
X305181Y1020318D01*
X299847Y1020318D02*
X299847Y1032002D01*
X305181Y1032002D01*
X305181Y1020318D01*
X305181Y1021283D02*
X299847Y1021283D01*
X299847Y1022248D02*
X305181Y1022248D01*
X305181Y1023213D02*
X299847Y1023213D01*
X299847Y1024178D02*
X305181Y1024178D01*
X305181Y1025143D02*
X299847Y1025143D01*
X299847Y1026108D02*
X305181Y1026108D01*
X305181Y1027073D02*
X299847Y1027073D01*
X299847Y1028038D02*
X305181Y1028038D01*
X305181Y1029003D02*
X299847Y1029003D01*
X299847Y1029968D02*
X305181Y1029968D01*
X305181Y1030933D02*
X299847Y1030933D01*
X299847Y1031898D02*
X305181Y1031898D01*
D13*
X247400Y957990D02*
X247400Y951450D01*
D14*
X259450Y930220D03*
X259450Y939220D03*
X273950Y930220D03*
X273950Y939220D03*
X259450Y921220D03*
X273950Y948220D03*
X273950Y957720D03*
X273950Y967220D03*
X273950Y911720D03*
X273950Y902220D03*
X259450Y911720D03*
X259450Y902220D03*
X259450Y957720D03*
X259450Y967220D03*
D13*
X247400Y917990D02*
X247400Y911450D01*
X286000Y951450D02*
X286000Y957990D01*
X286000Y917990D02*
X286000Y911450D01*
D15*
X286000Y949720D02*
X286000Y959720D01*
X286000Y919720D02*
X286000Y909720D01*
X247400Y909720D02*
X247400Y919720D01*
X247400Y949720D02*
X247400Y959720D01*
D16*
X340360Y1010920D03*
X340360Y985520D03*
X340360Y960120D03*
X340360Y934720D03*
X340360Y909320D03*
X340360Y883920D03*
X340360Y858520D03*
D11*
X311460Y968320D02*
X301460Y968320D01*
X301460Y977320D01*
X311460Y977320D01*
X311460Y968320D01*
X311460Y969270D02*
X301460Y969270D01*
X301460Y970220D02*
X311460Y970220D01*
X311460Y971170D02*
X301460Y971170D01*
X301460Y972120D02*
X311460Y972120D01*
X311460Y973070D02*
X301460Y973070D01*
X301460Y974020D02*
X311460Y974020D01*
X311460Y974970D02*
X301460Y974970D01*
X301460Y975920D02*
X311460Y975920D01*
X311460Y976870D02*
X301460Y976870D01*
X318460Y968320D02*
X328460Y968320D01*
X318460Y968320D02*
X318460Y977320D01*
X328460Y977320D01*
X328460Y968320D01*
X328460Y969270D02*
X318460Y969270D01*
X318460Y970220D02*
X328460Y970220D01*
X328460Y971170D02*
X318460Y971170D01*
X318460Y972120D02*
X328460Y972120D01*
X328460Y973070D02*
X318460Y973070D01*
X318460Y974020D02*
X328460Y974020D01*
X328460Y974970D02*
X318460Y974970D01*
X318460Y975920D02*
X328460Y975920D01*
X328460Y976870D02*
X318460Y976870D01*
D10*
X364490Y1029970D03*
X466090Y839470D03*
D11*
X430840Y942920D02*
X420840Y942920D01*
X420840Y951920D01*
X430840Y951920D01*
X430840Y942920D01*
X430840Y943870D02*
X420840Y943870D01*
X420840Y944820D02*
X430840Y944820D01*
X430840Y945770D02*
X420840Y945770D01*
X420840Y946720D02*
X430840Y946720D01*
X430840Y947670D02*
X420840Y947670D01*
X420840Y948620D02*
X430840Y948620D01*
X430840Y949570D02*
X420840Y949570D01*
X420840Y950520D02*
X430840Y950520D01*
X430840Y951470D02*
X420840Y951470D01*
X437840Y942920D02*
X447840Y942920D01*
X437840Y942920D02*
X437840Y951920D01*
X447840Y951920D01*
X447840Y942920D01*
X447840Y943870D02*
X437840Y943870D01*
X437840Y944820D02*
X447840Y944820D01*
X447840Y945770D02*
X437840Y945770D01*
X437840Y946720D02*
X447840Y946720D01*
X447840Y947670D02*
X437840Y947670D01*
X437840Y948620D02*
X447840Y948620D01*
X447840Y949570D02*
X437840Y949570D01*
X437840Y950520D02*
X447840Y950520D01*
X447840Y951470D02*
X437840Y951470D01*
D12*
X416433Y1020318D02*
X411099Y1020318D01*
X411099Y1032002D01*
X416433Y1032002D01*
X416433Y1020318D01*
X416433Y1021283D02*
X411099Y1021283D01*
X411099Y1022248D02*
X416433Y1022248D01*
X416433Y1023213D02*
X411099Y1023213D01*
X411099Y1024178D02*
X416433Y1024178D01*
X416433Y1025143D02*
X411099Y1025143D01*
X411099Y1026108D02*
X416433Y1026108D01*
X416433Y1027073D02*
X411099Y1027073D01*
X411099Y1028038D02*
X416433Y1028038D01*
X416433Y1029003D02*
X411099Y1029003D01*
X411099Y1029968D02*
X416433Y1029968D01*
X416433Y1030933D02*
X411099Y1030933D01*
X411099Y1031898D02*
X416433Y1031898D01*
X419227Y1020318D02*
X424561Y1020318D01*
X419227Y1020318D02*
X419227Y1032002D01*
X424561Y1032002D01*
X424561Y1020318D01*
X424561Y1021283D02*
X419227Y1021283D01*
X419227Y1022248D02*
X424561Y1022248D01*
X424561Y1023213D02*
X419227Y1023213D01*
X419227Y1024178D02*
X424561Y1024178D01*
X424561Y1025143D02*
X419227Y1025143D01*
X419227Y1026108D02*
X424561Y1026108D01*
X424561Y1027073D02*
X419227Y1027073D01*
X419227Y1028038D02*
X424561Y1028038D01*
X424561Y1029003D02*
X419227Y1029003D01*
X419227Y1029968D02*
X424561Y1029968D01*
X424561Y1030933D02*
X419227Y1030933D01*
X419227Y1031898D02*
X424561Y1031898D01*
D13*
X366780Y957990D02*
X366780Y951450D01*
D14*
X378830Y930220D03*
X378830Y939220D03*
X393330Y930220D03*
X393330Y939220D03*
X378830Y921220D03*
X393330Y948220D03*
X393330Y957720D03*
X393330Y967220D03*
X393330Y911720D03*
X393330Y902220D03*
X378830Y911720D03*
X378830Y902220D03*
X378830Y957720D03*
X378830Y967220D03*
D13*
X366780Y917990D02*
X366780Y911450D01*
X405380Y951450D02*
X405380Y957990D01*
X405380Y917990D02*
X405380Y911450D01*
D15*
X405380Y949720D02*
X405380Y959720D01*
X405380Y919720D02*
X405380Y909720D01*
X366780Y909720D02*
X366780Y919720D01*
X366780Y949720D02*
X366780Y959720D01*
D16*
X459740Y1010920D03*
X459740Y985520D03*
X459740Y960120D03*
X459740Y934720D03*
X459740Y909320D03*
X459740Y883920D03*
X459740Y858520D03*
D11*
X430840Y968320D02*
X420840Y968320D01*
X420840Y977320D01*
X430840Y977320D01*
X430840Y968320D01*
X430840Y969270D02*
X420840Y969270D01*
X420840Y970220D02*
X430840Y970220D01*
X430840Y971170D02*
X420840Y971170D01*
X420840Y972120D02*
X430840Y972120D01*
X430840Y973070D02*
X420840Y973070D01*
X420840Y974020D02*
X430840Y974020D01*
X430840Y974970D02*
X420840Y974970D01*
X420840Y975920D02*
X430840Y975920D01*
X430840Y976870D02*
X420840Y976870D01*
X437840Y968320D02*
X447840Y968320D01*
X437840Y968320D02*
X437840Y977320D01*
X447840Y977320D01*
X447840Y968320D01*
X447840Y969270D02*
X437840Y969270D01*
X437840Y970220D02*
X447840Y970220D01*
X447840Y971170D02*
X437840Y971170D01*
X437840Y972120D02*
X447840Y972120D01*
X447840Y973070D02*
X437840Y973070D01*
X437840Y974020D02*
X447840Y974020D01*
X447840Y974970D02*
X437840Y974970D01*
X437840Y975920D02*
X447840Y975920D01*
X447840Y976870D02*
X437840Y976870D01*
D10*
X483870Y1029970D03*
X585470Y839470D03*
D11*
X550220Y942920D02*
X540220Y942920D01*
X540220Y951920D01*
X550220Y951920D01*
X550220Y942920D01*
X550220Y943870D02*
X540220Y943870D01*
X540220Y944820D02*
X550220Y944820D01*
X550220Y945770D02*
X540220Y945770D01*
X540220Y946720D02*
X550220Y946720D01*
X550220Y947670D02*
X540220Y947670D01*
X540220Y948620D02*
X550220Y948620D01*
X550220Y949570D02*
X540220Y949570D01*
X540220Y950520D02*
X550220Y950520D01*
X550220Y951470D02*
X540220Y951470D01*
X557220Y942920D02*
X567220Y942920D01*
X557220Y942920D02*
X557220Y951920D01*
X567220Y951920D01*
X567220Y942920D01*
X567220Y943870D02*
X557220Y943870D01*
X557220Y944820D02*
X567220Y944820D01*
X567220Y945770D02*
X557220Y945770D01*
X557220Y946720D02*
X567220Y946720D01*
X567220Y947670D02*
X557220Y947670D01*
X557220Y948620D02*
X567220Y948620D01*
X567220Y949570D02*
X557220Y949570D01*
X557220Y950520D02*
X567220Y950520D01*
X567220Y951470D02*
X557220Y951470D01*
D12*
X535813Y1020318D02*
X530479Y1020318D01*
X530479Y1032002D01*
X535813Y1032002D01*
X535813Y1020318D01*
X535813Y1021283D02*
X530479Y1021283D01*
X530479Y1022248D02*
X535813Y1022248D01*
X535813Y1023213D02*
X530479Y1023213D01*
X530479Y1024178D02*
X535813Y1024178D01*
X535813Y1025143D02*
X530479Y1025143D01*
X530479Y1026108D02*
X535813Y1026108D01*
X535813Y1027073D02*
X530479Y1027073D01*
X530479Y1028038D02*
X535813Y1028038D01*
X535813Y1029003D02*
X530479Y1029003D01*
X530479Y1029968D02*
X535813Y1029968D01*
X535813Y1030933D02*
X530479Y1030933D01*
X530479Y1031898D02*
X535813Y1031898D01*
X538607Y1020318D02*
X543941Y1020318D01*
X538607Y1020318D02*
X538607Y1032002D01*
X543941Y1032002D01*
X543941Y1020318D01*
X543941Y1021283D02*
X538607Y1021283D01*
X538607Y1022248D02*
X543941Y1022248D01*
X543941Y1023213D02*
X538607Y1023213D01*
X538607Y1024178D02*
X543941Y1024178D01*
X543941Y1025143D02*
X538607Y1025143D01*
X538607Y1026108D02*
X543941Y1026108D01*
X543941Y1027073D02*
X538607Y1027073D01*
X538607Y1028038D02*
X543941Y1028038D01*
X543941Y1029003D02*
X538607Y1029003D01*
X538607Y1029968D02*
X543941Y1029968D01*
X543941Y1030933D02*
X538607Y1030933D01*
X538607Y1031898D02*
X543941Y1031898D01*
D13*
X486160Y957990D02*
X486160Y951450D01*
D14*
X498210Y930220D03*
X498210Y939220D03*
X512710Y930220D03*
X512710Y939220D03*
X498210Y921220D03*
X512710Y948220D03*
X512710Y957720D03*
X512710Y967220D03*
X512710Y911720D03*
X512710Y902220D03*
X498210Y911720D03*
X498210Y902220D03*
X498210Y957720D03*
X498210Y967220D03*
D13*
X486160Y917990D02*
X486160Y911450D01*
X524760Y951450D02*
X524760Y957990D01*
X524760Y917990D02*
X524760Y911450D01*
D15*
X524760Y949720D02*
X524760Y959720D01*
X524760Y919720D02*
X524760Y909720D01*
X486160Y909720D02*
X486160Y919720D01*
X486160Y949720D02*
X486160Y959720D01*
D16*
X579120Y1010920D03*
X579120Y985520D03*
X579120Y960120D03*
X579120Y934720D03*
X579120Y909320D03*
X579120Y883920D03*
X579120Y858520D03*
D11*
X550220Y968320D02*
X540220Y968320D01*
X540220Y977320D01*
X550220Y977320D01*
X550220Y968320D01*
X550220Y969270D02*
X540220Y969270D01*
X540220Y970220D02*
X550220Y970220D01*
X550220Y971170D02*
X540220Y971170D01*
X540220Y972120D02*
X550220Y972120D01*
X550220Y973070D02*
X540220Y973070D01*
X540220Y974020D02*
X550220Y974020D01*
X550220Y974970D02*
X540220Y974970D01*
X540220Y975920D02*
X550220Y975920D01*
X550220Y976870D02*
X540220Y976870D01*
X557220Y968320D02*
X567220Y968320D01*
X557220Y968320D02*
X557220Y977320D01*
X567220Y977320D01*
X567220Y968320D01*
X567220Y969270D02*
X557220Y969270D01*
X557220Y970220D02*
X567220Y970220D01*
X567220Y971170D02*
X557220Y971170D01*
X557220Y972120D02*
X567220Y972120D01*
X567220Y973070D02*
X557220Y973070D01*
X557220Y974020D02*
X567220Y974020D01*
X567220Y974970D02*
X557220Y974970D01*
X557220Y975920D02*
X567220Y975920D01*
X567220Y976870D02*
X557220Y976870D01*
D10*
X603250Y1029970D03*
X704850Y839470D03*
D11*
X669600Y942920D02*
X659600Y942920D01*
X659600Y951920D01*
X669600Y951920D01*
X669600Y942920D01*
X669600Y943870D02*
X659600Y943870D01*
X659600Y944820D02*
X669600Y944820D01*
X669600Y945770D02*
X659600Y945770D01*
X659600Y946720D02*
X669600Y946720D01*
X669600Y947670D02*
X659600Y947670D01*
X659600Y948620D02*
X669600Y948620D01*
X669600Y949570D02*
X659600Y949570D01*
X659600Y950520D02*
X669600Y950520D01*
X669600Y951470D02*
X659600Y951470D01*
X676600Y942920D02*
X686600Y942920D01*
X676600Y942920D02*
X676600Y951920D01*
X686600Y951920D01*
X686600Y942920D01*
X686600Y943870D02*
X676600Y943870D01*
X676600Y944820D02*
X686600Y944820D01*
X686600Y945770D02*
X676600Y945770D01*
X676600Y946720D02*
X686600Y946720D01*
X686600Y947670D02*
X676600Y947670D01*
X676600Y948620D02*
X686600Y948620D01*
X686600Y949570D02*
X676600Y949570D01*
X676600Y950520D02*
X686600Y950520D01*
X686600Y951470D02*
X676600Y951470D01*
D12*
X655193Y1020318D02*
X649859Y1020318D01*
X649859Y1032002D01*
X655193Y1032002D01*
X655193Y1020318D01*
X655193Y1021283D02*
X649859Y1021283D01*
X649859Y1022248D02*
X655193Y1022248D01*
X655193Y1023213D02*
X649859Y1023213D01*
X649859Y1024178D02*
X655193Y1024178D01*
X655193Y1025143D02*
X649859Y1025143D01*
X649859Y1026108D02*
X655193Y1026108D01*
X655193Y1027073D02*
X649859Y1027073D01*
X649859Y1028038D02*
X655193Y1028038D01*
X655193Y1029003D02*
X649859Y1029003D01*
X649859Y1029968D02*
X655193Y1029968D01*
X655193Y1030933D02*
X649859Y1030933D01*
X649859Y1031898D02*
X655193Y1031898D01*
X657987Y1020318D02*
X663321Y1020318D01*
X657987Y1020318D02*
X657987Y1032002D01*
X663321Y1032002D01*
X663321Y1020318D01*
X663321Y1021283D02*
X657987Y1021283D01*
X657987Y1022248D02*
X663321Y1022248D01*
X663321Y1023213D02*
X657987Y1023213D01*
X657987Y1024178D02*
X663321Y1024178D01*
X663321Y1025143D02*
X657987Y1025143D01*
X657987Y1026108D02*
X663321Y1026108D01*
X663321Y1027073D02*
X657987Y1027073D01*
X657987Y1028038D02*
X663321Y1028038D01*
X663321Y1029003D02*
X657987Y1029003D01*
X657987Y1029968D02*
X663321Y1029968D01*
X663321Y1030933D02*
X657987Y1030933D01*
X657987Y1031898D02*
X663321Y1031898D01*
D13*
X605540Y957990D02*
X605540Y951450D01*
D14*
X617590Y930220D03*
X617590Y939220D03*
X632090Y930220D03*
X632090Y939220D03*
X617590Y921220D03*
X632090Y948220D03*
X632090Y957720D03*
X632090Y967220D03*
X632090Y911720D03*
X632090Y902220D03*
X617590Y911720D03*
X617590Y902220D03*
X617590Y957720D03*
X617590Y967220D03*
D13*
X605540Y917990D02*
X605540Y911450D01*
X644140Y951450D02*
X644140Y957990D01*
X644140Y917990D02*
X644140Y911450D01*
D15*
X644140Y949720D02*
X644140Y959720D01*
X644140Y919720D02*
X644140Y909720D01*
X605540Y909720D02*
X605540Y919720D01*
X605540Y949720D02*
X605540Y959720D01*
D16*
X698500Y1010920D03*
X698500Y985520D03*
X698500Y960120D03*
X698500Y934720D03*
X698500Y909320D03*
X698500Y883920D03*
X698500Y858520D03*
D11*
X669600Y968320D02*
X659600Y968320D01*
X659600Y977320D01*
X669600Y977320D01*
X669600Y968320D01*
X669600Y969270D02*
X659600Y969270D01*
X659600Y970220D02*
X669600Y970220D01*
X669600Y971170D02*
X659600Y971170D01*
X659600Y972120D02*
X669600Y972120D01*
X669600Y973070D02*
X659600Y973070D01*
X659600Y974020D02*
X669600Y974020D01*
X669600Y974970D02*
X659600Y974970D01*
X659600Y975920D02*
X669600Y975920D01*
X669600Y976870D02*
X659600Y976870D01*
X676600Y968320D02*
X686600Y968320D01*
X676600Y968320D02*
X676600Y977320D01*
X686600Y977320D01*
X686600Y968320D01*
X686600Y969270D02*
X676600Y969270D01*
X676600Y970220D02*
X686600Y970220D01*
X686600Y971170D02*
X676600Y971170D01*
X676600Y972120D02*
X686600Y972120D01*
X686600Y973070D02*
X676600Y973070D01*
X676600Y974020D02*
X686600Y974020D01*
X686600Y974970D02*
X676600Y974970D01*
X676600Y975920D02*
X686600Y975920D01*
X686600Y976870D02*
X676600Y976870D01*
D10*
X722630Y1029970D03*
X824230Y839470D03*
D11*
X788980Y942920D02*
X778980Y942920D01*
X778980Y951920D01*
X788980Y951920D01*
X788980Y942920D01*
X788980Y943870D02*
X778980Y943870D01*
X778980Y944820D02*
X788980Y944820D01*
X788980Y945770D02*
X778980Y945770D01*
X778980Y946720D02*
X788980Y946720D01*
X788980Y947670D02*
X778980Y947670D01*
X778980Y948620D02*
X788980Y948620D01*
X788980Y949570D02*
X778980Y949570D01*
X778980Y950520D02*
X788980Y950520D01*
X788980Y951470D02*
X778980Y951470D01*
X795980Y942920D02*
X805980Y942920D01*
X795980Y942920D02*
X795980Y951920D01*
X805980Y951920D01*
X805980Y942920D01*
X805980Y943870D02*
X795980Y943870D01*
X795980Y944820D02*
X805980Y944820D01*
X805980Y945770D02*
X795980Y945770D01*
X795980Y946720D02*
X805980Y946720D01*
X805980Y947670D02*
X795980Y947670D01*
X795980Y948620D02*
X805980Y948620D01*
X805980Y949570D02*
X795980Y949570D01*
X795980Y950520D02*
X805980Y950520D01*
X805980Y951470D02*
X795980Y951470D01*
D12*
X774573Y1020318D02*
X769239Y1020318D01*
X769239Y1032002D01*
X774573Y1032002D01*
X774573Y1020318D01*
X774573Y1021283D02*
X769239Y1021283D01*
X769239Y1022248D02*
X774573Y1022248D01*
X774573Y1023213D02*
X769239Y1023213D01*
X769239Y1024178D02*
X774573Y1024178D01*
X774573Y1025143D02*
X769239Y1025143D01*
X769239Y1026108D02*
X774573Y1026108D01*
X774573Y1027073D02*
X769239Y1027073D01*
X769239Y1028038D02*
X774573Y1028038D01*
X774573Y1029003D02*
X769239Y1029003D01*
X769239Y1029968D02*
X774573Y1029968D01*
X774573Y1030933D02*
X769239Y1030933D01*
X769239Y1031898D02*
X774573Y1031898D01*
X777367Y1020318D02*
X782701Y1020318D01*
X777367Y1020318D02*
X777367Y1032002D01*
X782701Y1032002D01*
X782701Y1020318D01*
X782701Y1021283D02*
X777367Y1021283D01*
X777367Y1022248D02*
X782701Y1022248D01*
X782701Y1023213D02*
X777367Y1023213D01*
X777367Y1024178D02*
X782701Y1024178D01*
X782701Y1025143D02*
X777367Y1025143D01*
X777367Y1026108D02*
X782701Y1026108D01*
X782701Y1027073D02*
X777367Y1027073D01*
X777367Y1028038D02*
X782701Y1028038D01*
X782701Y1029003D02*
X777367Y1029003D01*
X777367Y1029968D02*
X782701Y1029968D01*
X782701Y1030933D02*
X777367Y1030933D01*
X777367Y1031898D02*
X782701Y1031898D01*
D13*
X724920Y957990D02*
X724920Y951450D01*
D14*
X736970Y930220D03*
X736970Y939220D03*
X751470Y930220D03*
X751470Y939220D03*
X736970Y921220D03*
X751470Y948220D03*
X751470Y957720D03*
X751470Y967220D03*
X751470Y911720D03*
X751470Y902220D03*
X736970Y911720D03*
X736970Y902220D03*
X736970Y957720D03*
X736970Y967220D03*
D13*
X724920Y917990D02*
X724920Y911450D01*
X763520Y951450D02*
X763520Y957990D01*
X763520Y917990D02*
X763520Y911450D01*
D15*
X763520Y949720D02*
X763520Y959720D01*
X763520Y919720D02*
X763520Y909720D01*
X724920Y909720D02*
X724920Y919720D01*
X724920Y949720D02*
X724920Y959720D01*
D16*
X817880Y1010920D03*
X817880Y985520D03*
X817880Y960120D03*
X817880Y934720D03*
X817880Y909320D03*
X817880Y883920D03*
X817880Y858520D03*
D11*
X788980Y968320D02*
X778980Y968320D01*
X778980Y977320D01*
X788980Y977320D01*
X788980Y968320D01*
X788980Y969270D02*
X778980Y969270D01*
X778980Y970220D02*
X788980Y970220D01*
X788980Y971170D02*
X778980Y971170D01*
X778980Y972120D02*
X788980Y972120D01*
X788980Y973070D02*
X778980Y973070D01*
X778980Y974020D02*
X788980Y974020D01*
X788980Y974970D02*
X778980Y974970D01*
X778980Y975920D02*
X788980Y975920D01*
X788980Y976870D02*
X778980Y976870D01*
X795980Y968320D02*
X805980Y968320D01*
X795980Y968320D02*
X795980Y977320D01*
X805980Y977320D01*
X805980Y968320D01*
X805980Y969270D02*
X795980Y969270D01*
X795980Y970220D02*
X805980Y970220D01*
X805980Y971170D02*
X795980Y971170D01*
X795980Y972120D02*
X805980Y972120D01*
X805980Y973070D02*
X795980Y973070D01*
X795980Y974020D02*
X805980Y974020D01*
X805980Y974970D02*
X795980Y974970D01*
X795980Y975920D02*
X805980Y975920D01*
X805980Y976870D02*
X795980Y976870D01*
D10*
X842010Y1029970D03*
X943610Y839470D03*
D11*
X908360Y942920D02*
X898360Y942920D01*
X898360Y951920D01*
X908360Y951920D01*
X908360Y942920D01*
X908360Y943870D02*
X898360Y943870D01*
X898360Y944820D02*
X908360Y944820D01*
X908360Y945770D02*
X898360Y945770D01*
X898360Y946720D02*
X908360Y946720D01*
X908360Y947670D02*
X898360Y947670D01*
X898360Y948620D02*
X908360Y948620D01*
X908360Y949570D02*
X898360Y949570D01*
X898360Y950520D02*
X908360Y950520D01*
X908360Y951470D02*
X898360Y951470D01*
X915360Y942920D02*
X925360Y942920D01*
X915360Y942920D02*
X915360Y951920D01*
X925360Y951920D01*
X925360Y942920D01*
X925360Y943870D02*
X915360Y943870D01*
X915360Y944820D02*
X925360Y944820D01*
X925360Y945770D02*
X915360Y945770D01*
X915360Y946720D02*
X925360Y946720D01*
X925360Y947670D02*
X915360Y947670D01*
X915360Y948620D02*
X925360Y948620D01*
X925360Y949570D02*
X915360Y949570D01*
X915360Y950520D02*
X925360Y950520D01*
X925360Y951470D02*
X915360Y951470D01*
D12*
X893953Y1020318D02*
X888619Y1020318D01*
X888619Y1032002D01*
X893953Y1032002D01*
X893953Y1020318D01*
X893953Y1021283D02*
X888619Y1021283D01*
X888619Y1022248D02*
X893953Y1022248D01*
X893953Y1023213D02*
X888619Y1023213D01*
X888619Y1024178D02*
X893953Y1024178D01*
X893953Y1025143D02*
X888619Y1025143D01*
X888619Y1026108D02*
X893953Y1026108D01*
X893953Y1027073D02*
X888619Y1027073D01*
X888619Y1028038D02*
X893953Y1028038D01*
X893953Y1029003D02*
X888619Y1029003D01*
X888619Y1029968D02*
X893953Y1029968D01*
X893953Y1030933D02*
X888619Y1030933D01*
X888619Y1031898D02*
X893953Y1031898D01*
X896747Y1020318D02*
X902081Y1020318D01*
X896747Y1020318D02*
X896747Y1032002D01*
X902081Y1032002D01*
X902081Y1020318D01*
X902081Y1021283D02*
X896747Y1021283D01*
X896747Y1022248D02*
X902081Y1022248D01*
X902081Y1023213D02*
X896747Y1023213D01*
X896747Y1024178D02*
X902081Y1024178D01*
X902081Y1025143D02*
X896747Y1025143D01*
X896747Y1026108D02*
X902081Y1026108D01*
X902081Y1027073D02*
X896747Y1027073D01*
X896747Y1028038D02*
X902081Y1028038D01*
X902081Y1029003D02*
X896747Y1029003D01*
X896747Y1029968D02*
X902081Y1029968D01*
X902081Y1030933D02*
X896747Y1030933D01*
X896747Y1031898D02*
X902081Y1031898D01*
D13*
X844300Y957990D02*
X844300Y951450D01*
D14*
X856350Y930220D03*
X856350Y939220D03*
X870850Y930220D03*
X870850Y939220D03*
X856350Y921220D03*
X870850Y948220D03*
X870850Y957720D03*
X870850Y967220D03*
X870850Y911720D03*
X870850Y902220D03*
X856350Y911720D03*
X856350Y902220D03*
X856350Y957720D03*
X856350Y967220D03*
D13*
X844300Y917990D02*
X844300Y911450D01*
X882900Y951450D02*
X882900Y957990D01*
X882900Y917990D02*
X882900Y911450D01*
D15*
X882900Y949720D02*
X882900Y959720D01*
X882900Y919720D02*
X882900Y909720D01*
X844300Y909720D02*
X844300Y919720D01*
X844300Y949720D02*
X844300Y959720D01*
D16*
X937260Y1010920D03*
X937260Y985520D03*
X937260Y960120D03*
X937260Y934720D03*
X937260Y909320D03*
X937260Y883920D03*
X937260Y858520D03*
D11*
X908360Y968320D02*
X898360Y968320D01*
X898360Y977320D01*
X908360Y977320D01*
X908360Y968320D01*
X908360Y969270D02*
X898360Y969270D01*
X898360Y970220D02*
X908360Y970220D01*
X908360Y971170D02*
X898360Y971170D01*
X898360Y972120D02*
X908360Y972120D01*
X908360Y973070D02*
X898360Y973070D01*
X898360Y974020D02*
X908360Y974020D01*
X908360Y974970D02*
X898360Y974970D01*
X898360Y975920D02*
X908360Y975920D01*
X908360Y976870D02*
X898360Y976870D01*
X915360Y968320D02*
X925360Y968320D01*
X915360Y968320D02*
X915360Y977320D01*
X925360Y977320D01*
X925360Y968320D01*
X925360Y969270D02*
X915360Y969270D01*
X915360Y970220D02*
X925360Y970220D01*
X925360Y971170D02*
X915360Y971170D01*
X915360Y972120D02*
X925360Y972120D01*
X925360Y973070D02*
X915360Y973070D01*
X915360Y974020D02*
X925360Y974020D01*
X925360Y974970D02*
X915360Y974970D01*
X915360Y975920D02*
X925360Y975920D01*
X925360Y976870D02*
X915360Y976870D01*
D17*
X-26238Y1009650D03*
X976198Y1009650D03*
D18*
X-26238Y63500D03*
D19*
X20690Y134100D02*
X35190Y134100D01*
X40790Y139700D01*
X55880Y139700D01*
X67700Y139700D01*
X67700Y114300D01*
X55626Y177800D02*
X55626Y193040D01*
X55626Y177800D02*
X55626Y139954D01*
X55880Y139700D01*
X55626Y177800D02*
X101600Y177800D01*
X35190Y68738D02*
X37662Y66266D01*
X35190Y68738D02*
X35190Y69100D01*
X37662Y66266D02*
X62456Y66266D01*
X67700Y71510D02*
X67700Y114300D01*
X67700Y71510D02*
X62456Y66266D01*
D20*
X84990Y63400D03*
D21*
X84700Y101600D02*
X84700Y114300D01*
X84700Y101600D02*
X84700Y63690D01*
X84990Y63400D01*
X84700Y101600D02*
X101600Y101600D01*
D19*
X8640Y81600D02*
X8640Y121600D01*
X47240Y121600D02*
X47240Y81600D01*
X63754Y193040D02*
X69850Y193040D01*
X72390Y190500D01*
D20*
X72390Y190500D03*
X76200Y89027D03*
D21*
X76200Y62230D01*
X87630Y50800D02*
X101600Y50800D01*
X87630Y50800D02*
X76200Y62230D01*
D19*
X27940Y124600D02*
X20690Y124600D01*
X27940Y124600D02*
X35190Y124600D01*
X27940Y124600D02*
X27940Y78600D01*
X20690Y78600D01*
X27940Y78600D02*
X35190Y78600D01*
X66040Y25400D02*
X101600Y25400D01*
X66040Y25400D02*
X27940Y63500D01*
X27940Y78600D01*
D21*
X84700Y128660D02*
X84700Y139700D01*
X84700Y128660D02*
X86360Y127000D01*
X101600Y127000D01*
D19*
X140070Y134100D02*
X154570Y134100D01*
X160170Y139700D01*
X175260Y139700D01*
X187080Y139700D01*
X187080Y114300D01*
X175006Y177800D02*
X175006Y193040D01*
X175006Y177800D02*
X175006Y139954D01*
X175260Y139700D01*
X175006Y177800D02*
X220980Y177800D01*
X154570Y68738D02*
X157042Y66266D01*
X154570Y68738D02*
X154570Y69100D01*
X157042Y66266D02*
X181836Y66266D01*
X187080Y71510D02*
X187080Y114300D01*
X187080Y71510D02*
X181836Y66266D01*
D20*
X204370Y63400D03*
D21*
X204080Y101600D02*
X204080Y114300D01*
X204080Y101600D02*
X204080Y63690D01*
X204370Y63400D01*
X204080Y101600D02*
X220980Y101600D01*
D19*
X128020Y81600D02*
X128020Y121600D01*
X166620Y121600D02*
X166620Y81600D01*
X183134Y193040D02*
X189230Y193040D01*
X191770Y190500D01*
D20*
X191770Y190500D03*
X195580Y89027D03*
D21*
X195580Y62230D01*
X207010Y50800D02*
X220980Y50800D01*
X207010Y50800D02*
X195580Y62230D01*
D19*
X147320Y124600D02*
X140070Y124600D01*
X147320Y124600D02*
X154570Y124600D01*
X147320Y124600D02*
X147320Y78600D01*
X140070Y78600D01*
X147320Y78600D02*
X154570Y78600D01*
X185420Y25400D02*
X220980Y25400D01*
X185420Y25400D02*
X147320Y63500D01*
X147320Y78600D01*
D21*
X204080Y128660D02*
X204080Y139700D01*
X204080Y128660D02*
X205740Y127000D01*
X220980Y127000D01*
D19*
X259450Y134100D02*
X273950Y134100D01*
X279550Y139700D01*
X294640Y139700D01*
X306460Y139700D01*
X306460Y114300D01*
X294386Y177800D02*
X294386Y193040D01*
X294386Y177800D02*
X294386Y139954D01*
X294640Y139700D01*
X294386Y177800D02*
X340360Y177800D01*
X273950Y68738D02*
X276422Y66266D01*
X273950Y68738D02*
X273950Y69100D01*
X276422Y66266D02*
X301216Y66266D01*
X306460Y71510D02*
X306460Y114300D01*
X306460Y71510D02*
X301216Y66266D01*
D20*
X323750Y63400D03*
D21*
X323460Y101600D02*
X323460Y114300D01*
X323460Y101600D02*
X323460Y63690D01*
X323750Y63400D01*
X323460Y101600D02*
X340360Y101600D01*
D19*
X247400Y81600D02*
X247400Y121600D01*
X286000Y121600D02*
X286000Y81600D01*
X302514Y193040D02*
X308610Y193040D01*
X311150Y190500D01*
D20*
X311150Y190500D03*
X314960Y89027D03*
D21*
X314960Y62230D01*
X326390Y50800D02*
X340360Y50800D01*
X326390Y50800D02*
X314960Y62230D01*
D19*
X266700Y124600D02*
X259450Y124600D01*
X266700Y124600D02*
X273950Y124600D01*
X266700Y124600D02*
X266700Y78600D01*
X259450Y78600D01*
X266700Y78600D02*
X273950Y78600D01*
X304800Y25400D02*
X340360Y25400D01*
X304800Y25400D02*
X266700Y63500D01*
X266700Y78600D01*
D21*
X323460Y128660D02*
X323460Y139700D01*
X323460Y128660D02*
X325120Y127000D01*
X340360Y127000D01*
D19*
X378830Y134100D02*
X393330Y134100D01*
X398930Y139700D01*
X414020Y139700D01*
X425840Y139700D01*
X425840Y114300D01*
X413766Y177800D02*
X413766Y193040D01*
X413766Y177800D02*
X413766Y139954D01*
X414020Y139700D01*
X413766Y177800D02*
X459740Y177800D01*
X393330Y68738D02*
X395802Y66266D01*
X393330Y68738D02*
X393330Y69100D01*
X395802Y66266D02*
X420596Y66266D01*
X425840Y71510D02*
X425840Y114300D01*
X425840Y71510D02*
X420596Y66266D01*
D20*
X443130Y63400D03*
D21*
X442840Y101600D02*
X442840Y114300D01*
X442840Y101600D02*
X442840Y63690D01*
X443130Y63400D01*
X442840Y101600D02*
X459740Y101600D01*
D19*
X366780Y81600D02*
X366780Y121600D01*
X405380Y121600D02*
X405380Y81600D01*
X421894Y193040D02*
X427990Y193040D01*
X430530Y190500D01*
D20*
X430530Y190500D03*
X434340Y89027D03*
D21*
X434340Y62230D01*
X445770Y50800D02*
X459740Y50800D01*
X445770Y50800D02*
X434340Y62230D01*
D19*
X386080Y124600D02*
X378830Y124600D01*
X386080Y124600D02*
X393330Y124600D01*
X386080Y124600D02*
X386080Y78600D01*
X378830Y78600D01*
X386080Y78600D02*
X393330Y78600D01*
X424180Y25400D02*
X459740Y25400D01*
X424180Y25400D02*
X386080Y63500D01*
X386080Y78600D01*
D21*
X442840Y128660D02*
X442840Y139700D01*
X442840Y128660D02*
X444500Y127000D01*
X459740Y127000D01*
D19*
X498210Y134100D02*
X512710Y134100D01*
X518310Y139700D01*
X533400Y139700D01*
X545220Y139700D01*
X545220Y114300D01*
X533146Y177800D02*
X533146Y193040D01*
X533146Y177800D02*
X533146Y139954D01*
X533400Y139700D01*
X533146Y177800D02*
X579120Y177800D01*
X512710Y68738D02*
X515182Y66266D01*
X512710Y68738D02*
X512710Y69100D01*
X515182Y66266D02*
X539976Y66266D01*
X545220Y71510D02*
X545220Y114300D01*
X545220Y71510D02*
X539976Y66266D01*
D20*
X562510Y63400D03*
D21*
X562220Y101600D02*
X562220Y114300D01*
X562220Y101600D02*
X562220Y63690D01*
X562510Y63400D01*
X562220Y101600D02*
X579120Y101600D01*
D19*
X486160Y81600D02*
X486160Y121600D01*
X524760Y121600D02*
X524760Y81600D01*
X541274Y193040D02*
X547370Y193040D01*
X549910Y190500D01*
D20*
X549910Y190500D03*
X553720Y89027D03*
D21*
X553720Y62230D01*
X565150Y50800D02*
X579120Y50800D01*
X565150Y50800D02*
X553720Y62230D01*
D19*
X505460Y124600D02*
X498210Y124600D01*
X505460Y124600D02*
X512710Y124600D01*
X505460Y124600D02*
X505460Y78600D01*
X498210Y78600D01*
X505460Y78600D02*
X512710Y78600D01*
X543560Y25400D02*
X579120Y25400D01*
X543560Y25400D02*
X505460Y63500D01*
X505460Y78600D01*
D21*
X562220Y128660D02*
X562220Y139700D01*
X562220Y128660D02*
X563880Y127000D01*
X579120Y127000D01*
D19*
X617590Y134100D02*
X632090Y134100D01*
X637690Y139700D01*
X652780Y139700D01*
X664600Y139700D01*
X664600Y114300D01*
X652526Y177800D02*
X652526Y193040D01*
X652526Y177800D02*
X652526Y139954D01*
X652780Y139700D01*
X652526Y177800D02*
X698500Y177800D01*
X632090Y68738D02*
X634562Y66266D01*
X632090Y68738D02*
X632090Y69100D01*
X634562Y66266D02*
X659356Y66266D01*
X664600Y71510D02*
X664600Y114300D01*
X664600Y71510D02*
X659356Y66266D01*
D20*
X681890Y63400D03*
D21*
X681600Y101600D02*
X681600Y114300D01*
X681600Y101600D02*
X681600Y63690D01*
X681890Y63400D01*
X681600Y101600D02*
X698500Y101600D01*
D19*
X605540Y81600D02*
X605540Y121600D01*
X644140Y121600D02*
X644140Y81600D01*
X660654Y193040D02*
X666750Y193040D01*
X669290Y190500D01*
D20*
X669290Y190500D03*
X673100Y89027D03*
D21*
X673100Y62230D01*
X684530Y50800D02*
X698500Y50800D01*
X684530Y50800D02*
X673100Y62230D01*
D19*
X624840Y124600D02*
X617590Y124600D01*
X624840Y124600D02*
X632090Y124600D01*
X624840Y124600D02*
X624840Y78600D01*
X617590Y78600D01*
X624840Y78600D02*
X632090Y78600D01*
X662940Y25400D02*
X698500Y25400D01*
X662940Y25400D02*
X624840Y63500D01*
X624840Y78600D01*
D21*
X681600Y128660D02*
X681600Y139700D01*
X681600Y128660D02*
X683260Y127000D01*
X698500Y127000D01*
D19*
X736970Y134100D02*
X751470Y134100D01*
X757070Y139700D01*
X772160Y139700D01*
X783980Y139700D01*
X783980Y114300D01*
X771906Y177800D02*
X771906Y193040D01*
X771906Y177800D02*
X771906Y139954D01*
X772160Y139700D01*
X771906Y177800D02*
X817880Y177800D01*
X751470Y68738D02*
X753942Y66266D01*
X751470Y68738D02*
X751470Y69100D01*
X753942Y66266D02*
X778736Y66266D01*
X783980Y71510D02*
X783980Y114300D01*
X783980Y71510D02*
X778736Y66266D01*
D20*
X801270Y63400D03*
D21*
X800980Y101600D02*
X800980Y114300D01*
X800980Y101600D02*
X800980Y63690D01*
X801270Y63400D01*
X800980Y101600D02*
X817880Y101600D01*
D19*
X724920Y81600D02*
X724920Y121600D01*
X763520Y121600D02*
X763520Y81600D01*
X780034Y193040D02*
X786130Y193040D01*
X788670Y190500D01*
D20*
X788670Y190500D03*
X792480Y89027D03*
D21*
X792480Y62230D01*
X803910Y50800D02*
X817880Y50800D01*
X803910Y50800D02*
X792480Y62230D01*
D19*
X744220Y124600D02*
X736970Y124600D01*
X744220Y124600D02*
X751470Y124600D01*
X744220Y124600D02*
X744220Y78600D01*
X736970Y78600D01*
X744220Y78600D02*
X751470Y78600D01*
X782320Y25400D02*
X817880Y25400D01*
X782320Y25400D02*
X744220Y63500D01*
X744220Y78600D01*
D21*
X800980Y128660D02*
X800980Y139700D01*
X800980Y128660D02*
X802640Y127000D01*
X817880Y127000D01*
D19*
X856350Y134100D02*
X870850Y134100D01*
X876450Y139700D01*
X891540Y139700D01*
X903360Y139700D01*
X903360Y114300D01*
X891286Y177800D02*
X891286Y193040D01*
X891286Y177800D02*
X891286Y139954D01*
X891540Y139700D01*
X891286Y177800D02*
X937260Y177800D01*
X870850Y68738D02*
X873322Y66266D01*
X870850Y68738D02*
X870850Y69100D01*
X873322Y66266D02*
X898116Y66266D01*
X903360Y71510D02*
X903360Y114300D01*
X903360Y71510D02*
X898116Y66266D01*
D20*
X920650Y63400D03*
D21*
X920360Y101600D02*
X920360Y114300D01*
X920360Y101600D02*
X920360Y63690D01*
X920650Y63400D01*
X920360Y101600D02*
X937260Y101600D01*
D19*
X844300Y81600D02*
X844300Y121600D01*
X882900Y121600D02*
X882900Y81600D01*
X899414Y193040D02*
X905510Y193040D01*
X908050Y190500D01*
D20*
X908050Y190500D03*
X911860Y89027D03*
D21*
X911860Y62230D01*
X923290Y50800D02*
X937260Y50800D01*
X923290Y50800D02*
X911860Y62230D01*
D19*
X863600Y124600D02*
X856350Y124600D01*
X863600Y124600D02*
X870850Y124600D01*
X863600Y124600D02*
X863600Y78600D01*
X856350Y78600D01*
X863600Y78600D02*
X870850Y78600D01*
X901700Y25400D02*
X937260Y25400D01*
X901700Y25400D02*
X863600Y63500D01*
X863600Y78600D01*
D21*
X920360Y128660D02*
X920360Y139700D01*
X920360Y128660D02*
X922020Y127000D01*
X937260Y127000D01*
D19*
X35190Y342380D02*
X20690Y342380D01*
X35190Y342380D02*
X40790Y347980D01*
X55880Y347980D01*
X67700Y347980D01*
X67700Y322580D01*
X55626Y386080D02*
X55626Y401320D01*
X55626Y386080D02*
X55626Y348234D01*
X55880Y347980D01*
X55626Y386080D02*
X101600Y386080D01*
X35190Y277018D02*
X37662Y274546D01*
X35190Y277018D02*
X35190Y277380D01*
X37662Y274546D02*
X62456Y274546D01*
X67700Y279790D02*
X67700Y322580D01*
X67700Y279790D02*
X62456Y274546D01*
D20*
X84990Y271680D03*
D21*
X84700Y309880D02*
X84700Y322580D01*
X84700Y309880D02*
X84700Y271970D01*
X84990Y271680D01*
X84700Y309880D02*
X101600Y309880D01*
D19*
X8640Y289880D02*
X8640Y329880D01*
X47240Y329880D02*
X47240Y289880D01*
X63754Y401320D02*
X69850Y401320D01*
X72390Y398780D01*
D20*
X72390Y398780D03*
X76200Y297307D03*
D21*
X76200Y270510D01*
X87630Y259080D02*
X101600Y259080D01*
X87630Y259080D02*
X76200Y270510D01*
D19*
X27940Y332880D02*
X20690Y332880D01*
X27940Y332880D02*
X35190Y332880D01*
X27940Y332880D02*
X27940Y286880D01*
X20690Y286880D01*
X27940Y286880D02*
X35190Y286880D01*
X66040Y233680D02*
X101600Y233680D01*
X66040Y233680D02*
X27940Y271780D01*
X27940Y286880D01*
D21*
X84700Y336940D02*
X84700Y347980D01*
X84700Y336940D02*
X86360Y335280D01*
X101600Y335280D01*
D19*
X140070Y342380D02*
X154570Y342380D01*
X160170Y347980D01*
X175260Y347980D01*
X187080Y347980D01*
X187080Y322580D01*
X175006Y386080D02*
X175006Y401320D01*
X175006Y386080D02*
X175006Y348234D01*
X175260Y347980D01*
X175006Y386080D02*
X220980Y386080D01*
X154570Y277018D02*
X157042Y274546D01*
X154570Y277018D02*
X154570Y277380D01*
X157042Y274546D02*
X181836Y274546D01*
X187080Y279790D02*
X187080Y322580D01*
X187080Y279790D02*
X181836Y274546D01*
D20*
X204370Y271680D03*
D21*
X204080Y309880D02*
X204080Y322580D01*
X204080Y309880D02*
X204080Y271970D01*
X204370Y271680D01*
X204080Y309880D02*
X220980Y309880D01*
D19*
X128020Y289880D02*
X128020Y329880D01*
X166620Y329880D02*
X166620Y289880D01*
X183134Y401320D02*
X189230Y401320D01*
X191770Y398780D01*
D20*
X191770Y398780D03*
X195580Y297307D03*
D21*
X195580Y270510D01*
X207010Y259080D02*
X220980Y259080D01*
X207010Y259080D02*
X195580Y270510D01*
D19*
X147320Y332880D02*
X140070Y332880D01*
X147320Y332880D02*
X154570Y332880D01*
X147320Y332880D02*
X147320Y286880D01*
X140070Y286880D01*
X147320Y286880D02*
X154570Y286880D01*
X185420Y233680D02*
X220980Y233680D01*
X185420Y233680D02*
X147320Y271780D01*
X147320Y286880D01*
D21*
X204080Y336940D02*
X204080Y347980D01*
X204080Y336940D02*
X205740Y335280D01*
X220980Y335280D01*
D19*
X259450Y342380D02*
X273950Y342380D01*
X279550Y347980D01*
X294640Y347980D01*
X306460Y347980D01*
X306460Y322580D01*
X294386Y386080D02*
X294386Y401320D01*
X294386Y386080D02*
X294386Y348234D01*
X294640Y347980D01*
X294386Y386080D02*
X340360Y386080D01*
X273950Y277018D02*
X276422Y274546D01*
X273950Y277018D02*
X273950Y277380D01*
X276422Y274546D02*
X301216Y274546D01*
X306460Y279790D02*
X306460Y322580D01*
X306460Y279790D02*
X301216Y274546D01*
D20*
X323750Y271680D03*
D21*
X323460Y309880D02*
X323460Y322580D01*
X323460Y309880D02*
X323460Y271970D01*
X323750Y271680D01*
X323460Y309880D02*
X340360Y309880D01*
D19*
X247400Y289880D02*
X247400Y329880D01*
X286000Y329880D02*
X286000Y289880D01*
X302514Y401320D02*
X308610Y401320D01*
X311150Y398780D01*
D20*
X311150Y398780D03*
X314960Y297307D03*
D21*
X314960Y270510D01*
X326390Y259080D02*
X340360Y259080D01*
X326390Y259080D02*
X314960Y270510D01*
D19*
X266700Y332880D02*
X259450Y332880D01*
X266700Y332880D02*
X273950Y332880D01*
X266700Y332880D02*
X266700Y286880D01*
X259450Y286880D01*
X266700Y286880D02*
X273950Y286880D01*
X304800Y233680D02*
X340360Y233680D01*
X304800Y233680D02*
X266700Y271780D01*
X266700Y286880D01*
D21*
X323460Y336940D02*
X323460Y347980D01*
X323460Y336940D02*
X325120Y335280D01*
X340360Y335280D01*
D19*
X378830Y342380D02*
X393330Y342380D01*
X398930Y347980D01*
X414020Y347980D01*
X425840Y347980D01*
X425840Y322580D01*
X413766Y386080D02*
X413766Y401320D01*
X413766Y386080D02*
X413766Y348234D01*
X414020Y347980D01*
X413766Y386080D02*
X459740Y386080D01*
X393330Y277018D02*
X395802Y274546D01*
X393330Y277018D02*
X393330Y277380D01*
X395802Y274546D02*
X420596Y274546D01*
X425840Y279790D02*
X425840Y322580D01*
X425840Y279790D02*
X420596Y274546D01*
D20*
X443130Y271680D03*
D21*
X442840Y309880D02*
X442840Y322580D01*
X442840Y309880D02*
X442840Y271970D01*
X443130Y271680D01*
X442840Y309880D02*
X459740Y309880D01*
D19*
X366780Y289880D02*
X366780Y329880D01*
X405380Y329880D02*
X405380Y289880D01*
X421894Y401320D02*
X427990Y401320D01*
X430530Y398780D01*
D20*
X430530Y398780D03*
X434340Y297307D03*
D21*
X434340Y270510D01*
X445770Y259080D02*
X459740Y259080D01*
X445770Y259080D02*
X434340Y270510D01*
D19*
X386080Y332880D02*
X378830Y332880D01*
X386080Y332880D02*
X393330Y332880D01*
X386080Y332880D02*
X386080Y286880D01*
X378830Y286880D01*
X386080Y286880D02*
X393330Y286880D01*
X424180Y233680D02*
X459740Y233680D01*
X424180Y233680D02*
X386080Y271780D01*
X386080Y286880D01*
D21*
X442840Y336940D02*
X442840Y347980D01*
X442840Y336940D02*
X444500Y335280D01*
X459740Y335280D01*
D19*
X498210Y342380D02*
X512710Y342380D01*
X518310Y347980D01*
X533400Y347980D01*
X545220Y347980D01*
X545220Y322580D01*
X533146Y386080D02*
X533146Y401320D01*
X533146Y386080D02*
X533146Y348234D01*
X533400Y347980D01*
X533146Y386080D02*
X579120Y386080D01*
X512710Y277018D02*
X515182Y274546D01*
X512710Y277018D02*
X512710Y277380D01*
X515182Y274546D02*
X539976Y274546D01*
X545220Y279790D02*
X545220Y322580D01*
X545220Y279790D02*
X539976Y274546D01*
D20*
X562510Y271680D03*
D21*
X562220Y309880D02*
X562220Y322580D01*
X562220Y309880D02*
X562220Y271970D01*
X562510Y271680D01*
X562220Y309880D02*
X579120Y309880D01*
D19*
X486160Y289880D02*
X486160Y329880D01*
X524760Y329880D02*
X524760Y289880D01*
X541274Y401320D02*
X547370Y401320D01*
X549910Y398780D01*
D20*
X549910Y398780D03*
X553720Y297307D03*
D21*
X553720Y270510D01*
X565150Y259080D02*
X579120Y259080D01*
X565150Y259080D02*
X553720Y270510D01*
D19*
X505460Y332880D02*
X498210Y332880D01*
X505460Y332880D02*
X512710Y332880D01*
X505460Y332880D02*
X505460Y286880D01*
X498210Y286880D01*
X505460Y286880D02*
X512710Y286880D01*
X543560Y233680D02*
X579120Y233680D01*
X543560Y233680D02*
X505460Y271780D01*
X505460Y286880D01*
D21*
X562220Y336940D02*
X562220Y347980D01*
X562220Y336940D02*
X563880Y335280D01*
X579120Y335280D01*
D19*
X617590Y342380D02*
X632090Y342380D01*
X637690Y347980D01*
X652780Y347980D01*
X664600Y347980D01*
X664600Y322580D01*
X652526Y386080D02*
X652526Y401320D01*
X652526Y386080D02*
X652526Y348234D01*
X652780Y347980D01*
X652526Y386080D02*
X698500Y386080D01*
X632090Y277018D02*
X634562Y274546D01*
X632090Y277018D02*
X632090Y277380D01*
X634562Y274546D02*
X659356Y274546D01*
X664600Y279790D02*
X664600Y322580D01*
X664600Y279790D02*
X659356Y274546D01*
D20*
X681890Y271680D03*
D21*
X681600Y309880D02*
X681600Y322580D01*
X681600Y309880D02*
X681600Y271970D01*
X681890Y271680D01*
X681600Y309880D02*
X698500Y309880D01*
D19*
X605540Y289880D02*
X605540Y329880D01*
X644140Y329880D02*
X644140Y289880D01*
X660654Y401320D02*
X666750Y401320D01*
X669290Y398780D01*
D20*
X669290Y398780D03*
X673100Y297307D03*
D21*
X673100Y270510D01*
X684530Y259080D02*
X698500Y259080D01*
X684530Y259080D02*
X673100Y270510D01*
D19*
X624840Y332880D02*
X617590Y332880D01*
X624840Y332880D02*
X632090Y332880D01*
X624840Y332880D02*
X624840Y286880D01*
X617590Y286880D01*
X624840Y286880D02*
X632090Y286880D01*
X662940Y233680D02*
X698500Y233680D01*
X662940Y233680D02*
X624840Y271780D01*
X624840Y286880D01*
D21*
X681600Y336940D02*
X681600Y347980D01*
X681600Y336940D02*
X683260Y335280D01*
X698500Y335280D01*
D19*
X736970Y342380D02*
X751470Y342380D01*
X757070Y347980D01*
X772160Y347980D01*
X783980Y347980D01*
X783980Y322580D01*
X771906Y386080D02*
X771906Y401320D01*
X771906Y386080D02*
X771906Y348234D01*
X772160Y347980D01*
X771906Y386080D02*
X817880Y386080D01*
X751470Y277018D02*
X753942Y274546D01*
X751470Y277018D02*
X751470Y277380D01*
X753942Y274546D02*
X778736Y274546D01*
X783980Y279790D02*
X783980Y322580D01*
X783980Y279790D02*
X778736Y274546D01*
D20*
X801270Y271680D03*
D21*
X800980Y309880D02*
X800980Y322580D01*
X800980Y309880D02*
X800980Y271970D01*
X801270Y271680D01*
X800980Y309880D02*
X817880Y309880D01*
D19*
X724920Y289880D02*
X724920Y329880D01*
X763520Y329880D02*
X763520Y289880D01*
X780034Y401320D02*
X786130Y401320D01*
X788670Y398780D01*
D20*
X788670Y398780D03*
X792480Y297307D03*
D21*
X792480Y270510D01*
X803910Y259080D02*
X817880Y259080D01*
X803910Y259080D02*
X792480Y270510D01*
D19*
X744220Y332880D02*
X736970Y332880D01*
X744220Y332880D02*
X751470Y332880D01*
X744220Y332880D02*
X744220Y286880D01*
X736970Y286880D01*
X744220Y286880D02*
X751470Y286880D01*
X782320Y233680D02*
X817880Y233680D01*
X782320Y233680D02*
X744220Y271780D01*
X744220Y286880D01*
D21*
X800980Y336940D02*
X800980Y347980D01*
X800980Y336940D02*
X802640Y335280D01*
X817880Y335280D01*
D19*
X856350Y342380D02*
X870850Y342380D01*
X876450Y347980D01*
X891540Y347980D01*
X903360Y347980D01*
X903360Y322580D01*
X891286Y386080D02*
X891286Y401320D01*
X891286Y386080D02*
X891286Y348234D01*
X891540Y347980D01*
X891286Y386080D02*
X937260Y386080D01*
X870850Y277018D02*
X873322Y274546D01*
X870850Y277018D02*
X870850Y277380D01*
X873322Y274546D02*
X898116Y274546D01*
X903360Y279790D02*
X903360Y322580D01*
X903360Y279790D02*
X898116Y274546D01*
D20*
X920650Y271680D03*
D21*
X920360Y309880D02*
X920360Y322580D01*
X920360Y309880D02*
X920360Y271970D01*
X920650Y271680D01*
X920360Y309880D02*
X937260Y309880D01*
D19*
X844300Y289880D02*
X844300Y329880D01*
X882900Y329880D02*
X882900Y289880D01*
X899414Y401320D02*
X905510Y401320D01*
X908050Y398780D01*
D20*
X908050Y398780D03*
X911860Y297307D03*
D21*
X911860Y270510D01*
X923290Y259080D02*
X937260Y259080D01*
X923290Y259080D02*
X911860Y270510D01*
D19*
X863600Y332880D02*
X856350Y332880D01*
X863600Y332880D02*
X870850Y332880D01*
X863600Y332880D02*
X863600Y286880D01*
X856350Y286880D01*
X863600Y286880D02*
X870850Y286880D01*
X901700Y233680D02*
X937260Y233680D01*
X901700Y233680D02*
X863600Y271780D01*
X863600Y286880D01*
D21*
X920360Y336940D02*
X920360Y347980D01*
X920360Y336940D02*
X922020Y335280D01*
X937260Y335280D01*
D19*
X35190Y550660D02*
X20690Y550660D01*
X35190Y550660D02*
X40790Y556260D01*
X55880Y556260D01*
X67700Y556260D01*
X67700Y530860D01*
X55626Y594360D02*
X55626Y609600D01*
X55626Y594360D02*
X55626Y556514D01*
X55880Y556260D01*
X55626Y594360D02*
X101600Y594360D01*
X35190Y485298D02*
X37662Y482826D01*
X35190Y485298D02*
X35190Y485660D01*
X37662Y482826D02*
X62456Y482826D01*
X67700Y488070D02*
X67700Y530860D01*
X67700Y488070D02*
X62456Y482826D01*
D20*
X84990Y479960D03*
D21*
X84700Y518160D02*
X84700Y530860D01*
X84700Y518160D02*
X84700Y480250D01*
X84990Y479960D01*
X84700Y518160D02*
X101600Y518160D01*
D19*
X8640Y498160D02*
X8640Y538160D01*
X47240Y538160D02*
X47240Y498160D01*
X63754Y609600D02*
X69850Y609600D01*
X72390Y607060D01*
D20*
X72390Y607060D03*
X76200Y505587D03*
D21*
X76200Y478790D01*
X87630Y467360D02*
X101600Y467360D01*
X87630Y467360D02*
X76200Y478790D01*
D19*
X27940Y541160D02*
X20690Y541160D01*
X27940Y541160D02*
X35190Y541160D01*
X27940Y541160D02*
X27940Y495160D01*
X20690Y495160D01*
X27940Y495160D02*
X35190Y495160D01*
X66040Y441960D02*
X101600Y441960D01*
X66040Y441960D02*
X27940Y480060D01*
X27940Y495160D01*
D21*
X84700Y545220D02*
X84700Y556260D01*
X84700Y545220D02*
X86360Y543560D01*
X101600Y543560D01*
D19*
X140070Y550660D02*
X154570Y550660D01*
X160170Y556260D01*
X175260Y556260D01*
X187080Y556260D01*
X187080Y530860D01*
X175006Y594360D02*
X175006Y609600D01*
X175006Y594360D02*
X175006Y556514D01*
X175260Y556260D01*
X175006Y594360D02*
X220980Y594360D01*
X154570Y485298D02*
X157042Y482826D01*
X154570Y485298D02*
X154570Y485660D01*
X157042Y482826D02*
X181836Y482826D01*
X187080Y488070D02*
X187080Y530860D01*
X187080Y488070D02*
X181836Y482826D01*
D20*
X204370Y479960D03*
D21*
X204080Y518160D02*
X204080Y530860D01*
X204080Y518160D02*
X204080Y480250D01*
X204370Y479960D01*
X204080Y518160D02*
X220980Y518160D01*
D19*
X128020Y498160D02*
X128020Y538160D01*
X166620Y538160D02*
X166620Y498160D01*
X183134Y609600D02*
X189230Y609600D01*
X191770Y607060D01*
D20*
X191770Y607060D03*
X195580Y505587D03*
D21*
X195580Y478790D01*
X207010Y467360D02*
X220980Y467360D01*
X207010Y467360D02*
X195580Y478790D01*
D19*
X147320Y541160D02*
X140070Y541160D01*
X147320Y541160D02*
X154570Y541160D01*
X147320Y541160D02*
X147320Y495160D01*
X140070Y495160D01*
X147320Y495160D02*
X154570Y495160D01*
X185420Y441960D02*
X220980Y441960D01*
X185420Y441960D02*
X147320Y480060D01*
X147320Y495160D01*
D21*
X204080Y545220D02*
X204080Y556260D01*
X204080Y545220D02*
X205740Y543560D01*
X220980Y543560D01*
D19*
X259450Y550660D02*
X273950Y550660D01*
X279550Y556260D01*
X294640Y556260D01*
X306460Y556260D01*
X306460Y530860D01*
X294386Y594360D02*
X294386Y609600D01*
X294386Y594360D02*
X294386Y556514D01*
X294640Y556260D01*
X294386Y594360D02*
X340360Y594360D01*
X273950Y485298D02*
X276422Y482826D01*
X273950Y485298D02*
X273950Y485660D01*
X276422Y482826D02*
X301216Y482826D01*
X306460Y488070D02*
X306460Y530860D01*
X306460Y488070D02*
X301216Y482826D01*
D20*
X323750Y479960D03*
D21*
X323460Y518160D02*
X323460Y530860D01*
X323460Y518160D02*
X323460Y480250D01*
X323750Y479960D01*
X323460Y518160D02*
X340360Y518160D01*
D19*
X247400Y498160D02*
X247400Y538160D01*
X286000Y538160D02*
X286000Y498160D01*
X302514Y609600D02*
X308610Y609600D01*
X311150Y607060D01*
D20*
X311150Y607060D03*
X314960Y505587D03*
D21*
X314960Y478790D01*
X326390Y467360D02*
X340360Y467360D01*
X326390Y467360D02*
X314960Y478790D01*
D19*
X266700Y541160D02*
X259450Y541160D01*
X266700Y541160D02*
X273950Y541160D01*
X266700Y541160D02*
X266700Y495160D01*
X259450Y495160D01*
X266700Y495160D02*
X273950Y495160D01*
X304800Y441960D02*
X340360Y441960D01*
X304800Y441960D02*
X266700Y480060D01*
X266700Y495160D01*
D21*
X323460Y545220D02*
X323460Y556260D01*
X323460Y545220D02*
X325120Y543560D01*
X340360Y543560D01*
D19*
X378830Y550660D02*
X393330Y550660D01*
X398930Y556260D01*
X414020Y556260D01*
X425840Y556260D01*
X425840Y530860D01*
X413766Y594360D02*
X413766Y609600D01*
X413766Y594360D02*
X413766Y556514D01*
X414020Y556260D01*
X413766Y594360D02*
X459740Y594360D01*
X393330Y485298D02*
X395802Y482826D01*
X393330Y485298D02*
X393330Y485660D01*
X395802Y482826D02*
X420596Y482826D01*
X425840Y488070D02*
X425840Y530860D01*
X425840Y488070D02*
X420596Y482826D01*
D20*
X443130Y479960D03*
D21*
X442840Y518160D02*
X442840Y530860D01*
X442840Y518160D02*
X442840Y480250D01*
X443130Y479960D01*
X442840Y518160D02*
X459740Y518160D01*
D19*
X366780Y498160D02*
X366780Y538160D01*
X405380Y538160D02*
X405380Y498160D01*
X421894Y609600D02*
X427990Y609600D01*
X430530Y607060D01*
D20*
X430530Y607060D03*
X434340Y505587D03*
D21*
X434340Y478790D01*
X445770Y467360D02*
X459740Y467360D01*
X445770Y467360D02*
X434340Y478790D01*
D19*
X386080Y541160D02*
X378830Y541160D01*
X386080Y541160D02*
X393330Y541160D01*
X386080Y541160D02*
X386080Y495160D01*
X378830Y495160D01*
X386080Y495160D02*
X393330Y495160D01*
X424180Y441960D02*
X459740Y441960D01*
X424180Y441960D02*
X386080Y480060D01*
X386080Y495160D01*
D21*
X442840Y545220D02*
X442840Y556260D01*
X442840Y545220D02*
X444500Y543560D01*
X459740Y543560D01*
D19*
X498210Y550660D02*
X512710Y550660D01*
X518310Y556260D01*
X533400Y556260D01*
X545220Y556260D01*
X545220Y530860D01*
X533146Y594360D02*
X533146Y609600D01*
X533146Y594360D02*
X533146Y556514D01*
X533400Y556260D01*
X533146Y594360D02*
X579120Y594360D01*
X512710Y485298D02*
X515182Y482826D01*
X512710Y485298D02*
X512710Y485660D01*
X515182Y482826D02*
X539976Y482826D01*
X545220Y488070D02*
X545220Y530860D01*
X545220Y488070D02*
X539976Y482826D01*
D20*
X562510Y479960D03*
D21*
X562220Y518160D02*
X562220Y530860D01*
X562220Y518160D02*
X562220Y480250D01*
X562510Y479960D01*
X562220Y518160D02*
X579120Y518160D01*
D19*
X486160Y498160D02*
X486160Y538160D01*
X524760Y538160D02*
X524760Y498160D01*
X541274Y609600D02*
X547370Y609600D01*
X549910Y607060D01*
D20*
X549910Y607060D03*
X553720Y505587D03*
D21*
X553720Y478790D01*
X565150Y467360D02*
X579120Y467360D01*
X565150Y467360D02*
X553720Y478790D01*
D19*
X505460Y541160D02*
X498210Y541160D01*
X505460Y541160D02*
X512710Y541160D01*
X505460Y541160D02*
X505460Y495160D01*
X498210Y495160D01*
X505460Y495160D02*
X512710Y495160D01*
X543560Y441960D02*
X579120Y441960D01*
X543560Y441960D02*
X505460Y480060D01*
X505460Y495160D01*
D21*
X562220Y545220D02*
X562220Y556260D01*
X562220Y545220D02*
X563880Y543560D01*
X579120Y543560D01*
D19*
X617590Y550660D02*
X632090Y550660D01*
X637690Y556260D01*
X652780Y556260D01*
X664600Y556260D01*
X664600Y530860D01*
X652526Y594360D02*
X652526Y609600D01*
X652526Y594360D02*
X652526Y556514D01*
X652780Y556260D01*
X652526Y594360D02*
X698500Y594360D01*
X632090Y485298D02*
X634562Y482826D01*
X632090Y485298D02*
X632090Y485660D01*
X634562Y482826D02*
X659356Y482826D01*
X664600Y488070D02*
X664600Y530860D01*
X664600Y488070D02*
X659356Y482826D01*
D20*
X681890Y479960D03*
D21*
X681600Y518160D02*
X681600Y530860D01*
X681600Y518160D02*
X681600Y480250D01*
X681890Y479960D01*
X681600Y518160D02*
X698500Y518160D01*
D19*
X605540Y498160D02*
X605540Y538160D01*
X644140Y538160D02*
X644140Y498160D01*
X660654Y609600D02*
X666750Y609600D01*
X669290Y607060D01*
D20*
X669290Y607060D03*
X673100Y505587D03*
D21*
X673100Y478790D01*
X684530Y467360D02*
X698500Y467360D01*
X684530Y467360D02*
X673100Y478790D01*
D19*
X624840Y541160D02*
X617590Y541160D01*
X624840Y541160D02*
X632090Y541160D01*
X624840Y541160D02*
X624840Y495160D01*
X617590Y495160D01*
X624840Y495160D02*
X632090Y495160D01*
X662940Y441960D02*
X698500Y441960D01*
X662940Y441960D02*
X624840Y480060D01*
X624840Y495160D01*
D21*
X681600Y545220D02*
X681600Y556260D01*
X681600Y545220D02*
X683260Y543560D01*
X698500Y543560D01*
D19*
X736970Y550660D02*
X751470Y550660D01*
X757070Y556260D01*
X772160Y556260D01*
X783980Y556260D01*
X783980Y530860D01*
X771906Y594360D02*
X771906Y609600D01*
X771906Y594360D02*
X771906Y556514D01*
X772160Y556260D01*
X771906Y594360D02*
X817880Y594360D01*
X751470Y485298D02*
X753942Y482826D01*
X751470Y485298D02*
X751470Y485660D01*
X753942Y482826D02*
X778736Y482826D01*
X783980Y488070D02*
X783980Y530860D01*
X783980Y488070D02*
X778736Y482826D01*
D20*
X801270Y479960D03*
D21*
X800980Y518160D02*
X800980Y530860D01*
X800980Y518160D02*
X800980Y480250D01*
X801270Y479960D01*
X800980Y518160D02*
X817880Y518160D01*
D19*
X724920Y498160D02*
X724920Y538160D01*
X763520Y538160D02*
X763520Y498160D01*
X780034Y609600D02*
X786130Y609600D01*
X788670Y607060D01*
D20*
X788670Y607060D03*
X792480Y505587D03*
D21*
X792480Y478790D01*
X803910Y467360D02*
X817880Y467360D01*
X803910Y467360D02*
X792480Y478790D01*
D19*
X744220Y541160D02*
X736970Y541160D01*
X744220Y541160D02*
X751470Y541160D01*
X744220Y541160D02*
X744220Y495160D01*
X736970Y495160D01*
X744220Y495160D02*
X751470Y495160D01*
X782320Y441960D02*
X817880Y441960D01*
X782320Y441960D02*
X744220Y480060D01*
X744220Y495160D01*
D21*
X800980Y545220D02*
X800980Y556260D01*
X800980Y545220D02*
X802640Y543560D01*
X817880Y543560D01*
D19*
X856350Y550660D02*
X870850Y550660D01*
X876450Y556260D01*
X891540Y556260D01*
X903360Y556260D01*
X903360Y530860D01*
X891286Y594360D02*
X891286Y609600D01*
X891286Y594360D02*
X891286Y556514D01*
X891540Y556260D01*
X891286Y594360D02*
X937260Y594360D01*
X870850Y485298D02*
X873322Y482826D01*
X870850Y485298D02*
X870850Y485660D01*
X873322Y482826D02*
X898116Y482826D01*
X903360Y488070D02*
X903360Y530860D01*
X903360Y488070D02*
X898116Y482826D01*
D20*
X920650Y479960D03*
D21*
X920360Y518160D02*
X920360Y530860D01*
X920360Y518160D02*
X920360Y480250D01*
X920650Y479960D01*
X920360Y518160D02*
X937260Y518160D01*
D19*
X844300Y498160D02*
X844300Y538160D01*
X882900Y538160D02*
X882900Y498160D01*
X899414Y609600D02*
X905510Y609600D01*
X908050Y607060D01*
D20*
X908050Y607060D03*
X911860Y505587D03*
D21*
X911860Y478790D01*
X923290Y467360D02*
X937260Y467360D01*
X923290Y467360D02*
X911860Y478790D01*
D19*
X863600Y541160D02*
X856350Y541160D01*
X863600Y541160D02*
X870850Y541160D01*
X863600Y541160D02*
X863600Y495160D01*
X856350Y495160D01*
X863600Y495160D02*
X870850Y495160D01*
X901700Y441960D02*
X937260Y441960D01*
X901700Y441960D02*
X863600Y480060D01*
X863600Y495160D01*
D21*
X920360Y545220D02*
X920360Y556260D01*
X920360Y545220D02*
X922020Y543560D01*
X937260Y543560D01*
D19*
X35190Y758940D02*
X20690Y758940D01*
X35190Y758940D02*
X40790Y764540D01*
X55880Y764540D01*
X67700Y764540D01*
X67700Y739140D01*
X55626Y802640D02*
X55626Y817880D01*
X55626Y802640D02*
X55626Y764794D01*
X55880Y764540D01*
X55626Y802640D02*
X101600Y802640D01*
X35190Y693578D02*
X37662Y691106D01*
X35190Y693578D02*
X35190Y693940D01*
X37662Y691106D02*
X62456Y691106D01*
X67700Y696350D02*
X67700Y739140D01*
X67700Y696350D02*
X62456Y691106D01*
D20*
X84990Y688240D03*
D21*
X84700Y726440D02*
X84700Y739140D01*
X84700Y726440D02*
X84700Y688530D01*
X84990Y688240D01*
X84700Y726440D02*
X101600Y726440D01*
D19*
X8640Y706440D02*
X8640Y746440D01*
X47240Y746440D02*
X47240Y706440D01*
X63754Y817880D02*
X69850Y817880D01*
X72390Y815340D01*
D20*
X72390Y815340D03*
X76200Y713867D03*
D21*
X76200Y687070D01*
X87630Y675640D02*
X101600Y675640D01*
X87630Y675640D02*
X76200Y687070D01*
D19*
X27940Y749440D02*
X20690Y749440D01*
X27940Y749440D02*
X35190Y749440D01*
X27940Y749440D02*
X27940Y703440D01*
X20690Y703440D01*
X27940Y703440D02*
X35190Y703440D01*
X66040Y650240D02*
X101600Y650240D01*
X66040Y650240D02*
X27940Y688340D01*
X27940Y703440D01*
D21*
X84700Y753500D02*
X84700Y764540D01*
X84700Y753500D02*
X86360Y751840D01*
X101600Y751840D01*
D19*
X140070Y758940D02*
X154570Y758940D01*
X160170Y764540D01*
X175260Y764540D01*
X187080Y764540D01*
X187080Y739140D01*
X175006Y802640D02*
X175006Y817880D01*
X175006Y802640D02*
X175006Y764794D01*
X175260Y764540D01*
X175006Y802640D02*
X220980Y802640D01*
X154570Y693578D02*
X157042Y691106D01*
X154570Y693578D02*
X154570Y693940D01*
X157042Y691106D02*
X181836Y691106D01*
X187080Y696350D02*
X187080Y739140D01*
X187080Y696350D02*
X181836Y691106D01*
D20*
X204370Y688240D03*
D21*
X204080Y726440D02*
X204080Y739140D01*
X204080Y726440D02*
X204080Y688530D01*
X204370Y688240D01*
X204080Y726440D02*
X220980Y726440D01*
D19*
X128020Y706440D02*
X128020Y746440D01*
X166620Y746440D02*
X166620Y706440D01*
X183134Y817880D02*
X189230Y817880D01*
X191770Y815340D01*
D20*
X191770Y815340D03*
X195580Y713867D03*
D21*
X195580Y687070D01*
X207010Y675640D02*
X220980Y675640D01*
X207010Y675640D02*
X195580Y687070D01*
D19*
X147320Y749440D02*
X140070Y749440D01*
X147320Y749440D02*
X154570Y749440D01*
X147320Y749440D02*
X147320Y703440D01*
X140070Y703440D01*
X147320Y703440D02*
X154570Y703440D01*
X185420Y650240D02*
X220980Y650240D01*
X185420Y650240D02*
X147320Y688340D01*
X147320Y703440D01*
D21*
X204080Y753500D02*
X204080Y764540D01*
X204080Y753500D02*
X205740Y751840D01*
X220980Y751840D01*
D19*
X259450Y758940D02*
X273950Y758940D01*
X279550Y764540D01*
X294640Y764540D01*
X306460Y764540D01*
X306460Y739140D01*
X294386Y802640D02*
X294386Y817880D01*
X294386Y802640D02*
X294386Y764794D01*
X294640Y764540D01*
X294386Y802640D02*
X340360Y802640D01*
X273950Y693578D02*
X276422Y691106D01*
X273950Y693578D02*
X273950Y693940D01*
X276422Y691106D02*
X301216Y691106D01*
X306460Y696350D02*
X306460Y739140D01*
X306460Y696350D02*
X301216Y691106D01*
D20*
X323750Y688240D03*
D21*
X323460Y726440D02*
X323460Y739140D01*
X323460Y726440D02*
X323460Y688530D01*
X323750Y688240D01*
X323460Y726440D02*
X340360Y726440D01*
D19*
X247400Y706440D02*
X247400Y746440D01*
X286000Y746440D02*
X286000Y706440D01*
X302514Y817880D02*
X308610Y817880D01*
X311150Y815340D01*
D20*
X311150Y815340D03*
X314960Y713867D03*
D21*
X314960Y687070D01*
X326390Y675640D02*
X340360Y675640D01*
X326390Y675640D02*
X314960Y687070D01*
D19*
X266700Y749440D02*
X259450Y749440D01*
X266700Y749440D02*
X273950Y749440D01*
X266700Y749440D02*
X266700Y703440D01*
X259450Y703440D01*
X266700Y703440D02*
X273950Y703440D01*
X304800Y650240D02*
X340360Y650240D01*
X304800Y650240D02*
X266700Y688340D01*
X266700Y703440D01*
D21*
X323460Y753500D02*
X323460Y764540D01*
X323460Y753500D02*
X325120Y751840D01*
X340360Y751840D01*
D19*
X378830Y758940D02*
X393330Y758940D01*
X398930Y764540D01*
X414020Y764540D01*
X425840Y764540D01*
X425840Y739140D01*
X413766Y802640D02*
X413766Y817880D01*
X413766Y802640D02*
X413766Y764794D01*
X414020Y764540D01*
X413766Y802640D02*
X459740Y802640D01*
X393330Y693578D02*
X395802Y691106D01*
X393330Y693578D02*
X393330Y693940D01*
X395802Y691106D02*
X420596Y691106D01*
X425840Y696350D02*
X425840Y739140D01*
X425840Y696350D02*
X420596Y691106D01*
D20*
X443130Y688240D03*
D21*
X442840Y726440D02*
X442840Y739140D01*
X442840Y726440D02*
X442840Y688530D01*
X443130Y688240D01*
X442840Y726440D02*
X459740Y726440D01*
D19*
X366780Y706440D02*
X366780Y746440D01*
X405380Y746440D02*
X405380Y706440D01*
X421894Y817880D02*
X427990Y817880D01*
X430530Y815340D01*
D20*
X430530Y815340D03*
X434340Y713867D03*
D21*
X434340Y687070D01*
X445770Y675640D02*
X459740Y675640D01*
X445770Y675640D02*
X434340Y687070D01*
D19*
X386080Y749440D02*
X378830Y749440D01*
X386080Y749440D02*
X393330Y749440D01*
X386080Y749440D02*
X386080Y703440D01*
X378830Y703440D01*
X386080Y703440D02*
X393330Y703440D01*
X424180Y650240D02*
X459740Y650240D01*
X424180Y650240D02*
X386080Y688340D01*
X386080Y703440D01*
D21*
X442840Y753500D02*
X442840Y764540D01*
X442840Y753500D02*
X444500Y751840D01*
X459740Y751840D01*
D19*
X498210Y758940D02*
X512710Y758940D01*
X518310Y764540D01*
X533400Y764540D01*
X545220Y764540D01*
X545220Y739140D01*
X533146Y802640D02*
X533146Y817880D01*
X533146Y802640D02*
X533146Y764794D01*
X533400Y764540D01*
X533146Y802640D02*
X579120Y802640D01*
X512710Y693578D02*
X515182Y691106D01*
X512710Y693578D02*
X512710Y693940D01*
X515182Y691106D02*
X539976Y691106D01*
X545220Y696350D02*
X545220Y739140D01*
X545220Y696350D02*
X539976Y691106D01*
D20*
X562510Y688240D03*
D21*
X562220Y726440D02*
X562220Y739140D01*
X562220Y726440D02*
X562220Y688530D01*
X562510Y688240D01*
X562220Y726440D02*
X579120Y726440D01*
D19*
X486160Y706440D02*
X486160Y746440D01*
X524760Y746440D02*
X524760Y706440D01*
X541274Y817880D02*
X547370Y817880D01*
X549910Y815340D01*
D20*
X549910Y815340D03*
X553720Y713867D03*
D21*
X553720Y687070D01*
X565150Y675640D02*
X579120Y675640D01*
X565150Y675640D02*
X553720Y687070D01*
D19*
X505460Y749440D02*
X498210Y749440D01*
X505460Y749440D02*
X512710Y749440D01*
X505460Y749440D02*
X505460Y703440D01*
X498210Y703440D01*
X505460Y703440D02*
X512710Y703440D01*
X543560Y650240D02*
X579120Y650240D01*
X543560Y650240D02*
X505460Y688340D01*
X505460Y703440D01*
D21*
X562220Y753500D02*
X562220Y764540D01*
X562220Y753500D02*
X563880Y751840D01*
X579120Y751840D01*
D19*
X617590Y758940D02*
X632090Y758940D01*
X637690Y764540D01*
X652780Y764540D01*
X664600Y764540D01*
X664600Y739140D01*
X652526Y802640D02*
X652526Y817880D01*
X652526Y802640D02*
X652526Y764794D01*
X652780Y764540D01*
X652526Y802640D02*
X698500Y802640D01*
X632090Y693578D02*
X634562Y691106D01*
X632090Y693578D02*
X632090Y693940D01*
X634562Y691106D02*
X659356Y691106D01*
X664600Y696350D02*
X664600Y739140D01*
X664600Y696350D02*
X659356Y691106D01*
D20*
X681890Y688240D03*
D21*
X681600Y726440D02*
X681600Y739140D01*
X681600Y726440D02*
X681600Y688530D01*
X681890Y688240D01*
X681600Y726440D02*
X698500Y726440D01*
D19*
X605540Y706440D02*
X605540Y746440D01*
X644140Y746440D02*
X644140Y706440D01*
X660654Y817880D02*
X666750Y817880D01*
X669290Y815340D01*
D20*
X669290Y815340D03*
X673100Y713867D03*
D21*
X673100Y687070D01*
X684530Y675640D02*
X698500Y675640D01*
X684530Y675640D02*
X673100Y687070D01*
D19*
X624840Y749440D02*
X617590Y749440D01*
X624840Y749440D02*
X632090Y749440D01*
X624840Y749440D02*
X624840Y703440D01*
X617590Y703440D01*
X624840Y703440D02*
X632090Y703440D01*
X662940Y650240D02*
X698500Y650240D01*
X662940Y650240D02*
X624840Y688340D01*
X624840Y703440D01*
D21*
X681600Y753500D02*
X681600Y764540D01*
X681600Y753500D02*
X683260Y751840D01*
X698500Y751840D01*
D19*
X736970Y758940D02*
X751470Y758940D01*
X757070Y764540D01*
X772160Y764540D01*
X783980Y764540D01*
X783980Y739140D01*
X771906Y802640D02*
X771906Y817880D01*
X771906Y802640D02*
X771906Y764794D01*
X772160Y764540D01*
X771906Y802640D02*
X817880Y802640D01*
X751470Y693578D02*
X753942Y691106D01*
X751470Y693578D02*
X751470Y693940D01*
X753942Y691106D02*
X778736Y691106D01*
X783980Y696350D02*
X783980Y739140D01*
X783980Y696350D02*
X778736Y691106D01*
D20*
X801270Y688240D03*
D21*
X800980Y726440D02*
X800980Y739140D01*
X800980Y726440D02*
X800980Y688530D01*
X801270Y688240D01*
X800980Y726440D02*
X817880Y726440D01*
D19*
X724920Y706440D02*
X724920Y746440D01*
X763520Y746440D02*
X763520Y706440D01*
X780034Y817880D02*
X786130Y817880D01*
X788670Y815340D01*
D20*
X788670Y815340D03*
X792480Y713867D03*
D21*
X792480Y687070D01*
X803910Y675640D02*
X817880Y675640D01*
X803910Y675640D02*
X792480Y687070D01*
D19*
X744220Y749440D02*
X736970Y749440D01*
X744220Y749440D02*
X751470Y749440D01*
X744220Y749440D02*
X744220Y703440D01*
X736970Y703440D01*
X744220Y703440D02*
X751470Y703440D01*
X782320Y650240D02*
X817880Y650240D01*
X782320Y650240D02*
X744220Y688340D01*
X744220Y703440D01*
D21*
X800980Y753500D02*
X800980Y764540D01*
X800980Y753500D02*
X802640Y751840D01*
X817880Y751840D01*
D19*
X856350Y758940D02*
X870850Y758940D01*
X876450Y764540D01*
X891540Y764540D01*
X903360Y764540D01*
X903360Y739140D01*
X891286Y802640D02*
X891286Y817880D01*
X891286Y802640D02*
X891286Y764794D01*
X891540Y764540D01*
X891286Y802640D02*
X937260Y802640D01*
X870850Y693578D02*
X873322Y691106D01*
X870850Y693578D02*
X870850Y693940D01*
X873322Y691106D02*
X898116Y691106D01*
X903360Y696350D02*
X903360Y739140D01*
X903360Y696350D02*
X898116Y691106D01*
D20*
X920650Y688240D03*
D21*
X920360Y726440D02*
X920360Y739140D01*
X920360Y726440D02*
X920360Y688530D01*
X920650Y688240D01*
X920360Y726440D02*
X937260Y726440D01*
D19*
X844300Y706440D02*
X844300Y746440D01*
X882900Y746440D02*
X882900Y706440D01*
X899414Y817880D02*
X905510Y817880D01*
X908050Y815340D01*
D20*
X908050Y815340D03*
X911860Y713867D03*
D21*
X911860Y687070D01*
X923290Y675640D02*
X937260Y675640D01*
X923290Y675640D02*
X911860Y687070D01*
D19*
X863600Y749440D02*
X856350Y749440D01*
X863600Y749440D02*
X870850Y749440D01*
X863600Y749440D02*
X863600Y703440D01*
X856350Y703440D01*
X863600Y703440D02*
X870850Y703440D01*
X901700Y650240D02*
X937260Y650240D01*
X901700Y650240D02*
X863600Y688340D01*
X863600Y703440D01*
D21*
X920360Y753500D02*
X920360Y764540D01*
X920360Y753500D02*
X922020Y751840D01*
X937260Y751840D01*
D19*
X35190Y967220D02*
X20690Y967220D01*
X35190Y967220D02*
X40790Y972820D01*
X55880Y972820D01*
X67700Y972820D01*
X67700Y947420D01*
X55626Y1010920D02*
X55626Y1026160D01*
X55626Y1010920D02*
X55626Y973074D01*
X55880Y972820D01*
X55626Y1010920D02*
X101600Y1010920D01*
X35190Y901858D02*
X37662Y899386D01*
X35190Y901858D02*
X35190Y902220D01*
X37662Y899386D02*
X62456Y899386D01*
X67700Y904630D02*
X67700Y947420D01*
X67700Y904630D02*
X62456Y899386D01*
D20*
X84990Y896520D03*
D21*
X84700Y934720D02*
X84700Y947420D01*
X84700Y934720D02*
X84700Y896810D01*
X84990Y896520D01*
X84700Y934720D02*
X101600Y934720D01*
D19*
X8640Y914720D02*
X8640Y954720D01*
X47240Y954720D02*
X47240Y914720D01*
X63754Y1026160D02*
X69850Y1026160D01*
X72390Y1023620D01*
D20*
X72390Y1023620D03*
X76200Y922147D03*
D21*
X76200Y895350D01*
X87630Y883920D02*
X101600Y883920D01*
X87630Y883920D02*
X76200Y895350D01*
D19*
X27940Y957720D02*
X20690Y957720D01*
X27940Y957720D02*
X35190Y957720D01*
X27940Y957720D02*
X27940Y911720D01*
X20690Y911720D01*
X27940Y911720D02*
X35190Y911720D01*
X66040Y858520D02*
X101600Y858520D01*
X66040Y858520D02*
X27940Y896620D01*
X27940Y911720D01*
D21*
X84700Y961780D02*
X84700Y972820D01*
X84700Y961780D02*
X86360Y960120D01*
X101600Y960120D01*
D19*
X140070Y967220D02*
X154570Y967220D01*
X160170Y972820D01*
X175260Y972820D01*
X187080Y972820D01*
X187080Y947420D01*
X175006Y1010920D02*
X175006Y1026160D01*
X175006Y1010920D02*
X175006Y973074D01*
X175260Y972820D01*
X175006Y1010920D02*
X220980Y1010920D01*
X154570Y901858D02*
X157042Y899386D01*
X154570Y901858D02*
X154570Y902220D01*
X157042Y899386D02*
X181836Y899386D01*
X187080Y904630D02*
X187080Y947420D01*
X187080Y904630D02*
X181836Y899386D01*
D20*
X204370Y896520D03*
D21*
X204080Y934720D02*
X204080Y947420D01*
X204080Y934720D02*
X204080Y896810D01*
X204370Y896520D01*
X204080Y934720D02*
X220980Y934720D01*
D19*
X128020Y914720D02*
X128020Y954720D01*
X166620Y954720D02*
X166620Y914720D01*
X183134Y1026160D02*
X189230Y1026160D01*
X191770Y1023620D01*
D20*
X191770Y1023620D03*
X195580Y922147D03*
D21*
X195580Y895350D01*
X207010Y883920D02*
X220980Y883920D01*
X207010Y883920D02*
X195580Y895350D01*
D19*
X147320Y957720D02*
X140070Y957720D01*
X147320Y957720D02*
X154570Y957720D01*
X147320Y957720D02*
X147320Y911720D01*
X140070Y911720D01*
X147320Y911720D02*
X154570Y911720D01*
X185420Y858520D02*
X220980Y858520D01*
X185420Y858520D02*
X147320Y896620D01*
X147320Y911720D01*
D21*
X204080Y961780D02*
X204080Y972820D01*
X204080Y961780D02*
X205740Y960120D01*
X220980Y960120D01*
D19*
X259450Y967220D02*
X273950Y967220D01*
X279550Y972820D01*
X294640Y972820D01*
X306460Y972820D01*
X306460Y947420D01*
X294386Y1010920D02*
X294386Y1026160D01*
X294386Y1010920D02*
X294386Y973074D01*
X294640Y972820D01*
X294386Y1010920D02*
X340360Y1010920D01*
X273950Y901858D02*
X276422Y899386D01*
X273950Y901858D02*
X273950Y902220D01*
X276422Y899386D02*
X301216Y899386D01*
X306460Y904630D02*
X306460Y947420D01*
X306460Y904630D02*
X301216Y899386D01*
D20*
X323750Y896520D03*
D21*
X323460Y934720D02*
X323460Y947420D01*
X323460Y934720D02*
X323460Y896810D01*
X323750Y896520D01*
X323460Y934720D02*
X340360Y934720D01*
D19*
X247400Y914720D02*
X247400Y954720D01*
X286000Y954720D02*
X286000Y914720D01*
X302514Y1026160D02*
X308610Y1026160D01*
X311150Y1023620D01*
D20*
X311150Y1023620D03*
X314960Y922147D03*
D21*
X314960Y895350D01*
X326390Y883920D02*
X340360Y883920D01*
X326390Y883920D02*
X314960Y895350D01*
D19*
X266700Y957720D02*
X259450Y957720D01*
X266700Y957720D02*
X273950Y957720D01*
X266700Y957720D02*
X266700Y911720D01*
X259450Y911720D01*
X266700Y911720D02*
X273950Y911720D01*
X304800Y858520D02*
X340360Y858520D01*
X304800Y858520D02*
X266700Y896620D01*
X266700Y911720D01*
D21*
X323460Y961780D02*
X323460Y972820D01*
X323460Y961780D02*
X325120Y960120D01*
X340360Y960120D01*
D19*
X378830Y967220D02*
X393330Y967220D01*
X398930Y972820D01*
X414020Y972820D01*
X425840Y972820D01*
X425840Y947420D01*
X413766Y1010920D02*
X413766Y1026160D01*
X413766Y1010920D02*
X413766Y973074D01*
X414020Y972820D01*
X413766Y1010920D02*
X459740Y1010920D01*
X393330Y901858D02*
X395802Y899386D01*
X393330Y901858D02*
X393330Y902220D01*
X395802Y899386D02*
X420596Y899386D01*
X425840Y904630D02*
X425840Y947420D01*
X425840Y904630D02*
X420596Y899386D01*
D20*
X443130Y896520D03*
D21*
X442840Y934720D02*
X442840Y947420D01*
X442840Y934720D02*
X442840Y896810D01*
X443130Y896520D01*
X442840Y934720D02*
X459740Y934720D01*
D19*
X366780Y914720D02*
X366780Y954720D01*
X405380Y954720D02*
X405380Y914720D01*
X421894Y1026160D02*
X427990Y1026160D01*
X430530Y1023620D01*
D20*
X430530Y1023620D03*
X434340Y922147D03*
D21*
X434340Y895350D01*
X445770Y883920D02*
X459740Y883920D01*
X445770Y883920D02*
X434340Y895350D01*
D19*
X386080Y957720D02*
X378830Y957720D01*
X386080Y957720D02*
X393330Y957720D01*
X386080Y957720D02*
X386080Y911720D01*
X378830Y911720D01*
X386080Y911720D02*
X393330Y911720D01*
X424180Y858520D02*
X459740Y858520D01*
X424180Y858520D02*
X386080Y896620D01*
X386080Y911720D01*
D21*
X442840Y961780D02*
X442840Y972820D01*
X442840Y961780D02*
X444500Y960120D01*
X459740Y960120D01*
D19*
X498210Y967220D02*
X512710Y967220D01*
X518310Y972820D01*
X533400Y972820D01*
X545220Y972820D01*
X545220Y947420D01*
X533146Y1010920D02*
X533146Y1026160D01*
X533146Y1010920D02*
X533146Y973074D01*
X533400Y972820D01*
X533146Y1010920D02*
X579120Y1010920D01*
X512710Y901858D02*
X515182Y899386D01*
X512710Y901858D02*
X512710Y902220D01*
X515182Y899386D02*
X539976Y899386D01*
X545220Y904630D02*
X545220Y947420D01*
X545220Y904630D02*
X539976Y899386D01*
D20*
X562510Y896520D03*
D21*
X562220Y934720D02*
X562220Y947420D01*
X562220Y934720D02*
X562220Y896810D01*
X562510Y896520D01*
X562220Y934720D02*
X579120Y934720D01*
D19*
X486160Y914720D02*
X486160Y954720D01*
X524760Y954720D02*
X524760Y914720D01*
X541274Y1026160D02*
X547370Y1026160D01*
X549910Y1023620D01*
D20*
X549910Y1023620D03*
X553720Y922147D03*
D21*
X553720Y895350D01*
X565150Y883920D02*
X579120Y883920D01*
X565150Y883920D02*
X553720Y895350D01*
D19*
X505460Y957720D02*
X498210Y957720D01*
X505460Y957720D02*
X512710Y957720D01*
X505460Y957720D02*
X505460Y911720D01*
X498210Y911720D01*
X505460Y911720D02*
X512710Y911720D01*
X543560Y858520D02*
X579120Y858520D01*
X543560Y858520D02*
X505460Y896620D01*
X505460Y911720D01*
D21*
X562220Y961780D02*
X562220Y972820D01*
X562220Y961780D02*
X563880Y960120D01*
X579120Y960120D01*
D19*
X617590Y967220D02*
X632090Y967220D01*
X637690Y972820D01*
X652780Y972820D01*
X664600Y972820D01*
X664600Y947420D01*
X652526Y1010920D02*
X652526Y1026160D01*
X652526Y1010920D02*
X652526Y973074D01*
X652780Y972820D01*
X652526Y1010920D02*
X698500Y1010920D01*
X632090Y901858D02*
X634562Y899386D01*
X632090Y901858D02*
X632090Y902220D01*
X634562Y899386D02*
X659356Y899386D01*
X664600Y904630D02*
X664600Y947420D01*
X664600Y904630D02*
X659356Y899386D01*
D20*
X681890Y896520D03*
D21*
X681600Y934720D02*
X681600Y947420D01*
X681600Y934720D02*
X681600Y896810D01*
X681890Y896520D01*
X681600Y934720D02*
X698500Y934720D01*
D19*
X605540Y914720D02*
X605540Y954720D01*
X644140Y954720D02*
X644140Y914720D01*
X660654Y1026160D02*
X666750Y1026160D01*
X669290Y1023620D01*
D20*
X669290Y1023620D03*
X673100Y922147D03*
D21*
X673100Y895350D01*
X684530Y883920D02*
X698500Y883920D01*
X684530Y883920D02*
X673100Y895350D01*
D19*
X624840Y957720D02*
X617590Y957720D01*
X624840Y957720D02*
X632090Y957720D01*
X624840Y957720D02*
X624840Y911720D01*
X617590Y911720D01*
X624840Y911720D02*
X632090Y911720D01*
X662940Y858520D02*
X698500Y858520D01*
X662940Y858520D02*
X624840Y896620D01*
X624840Y911720D01*
D21*
X681600Y961780D02*
X681600Y972820D01*
X681600Y961780D02*
X683260Y960120D01*
X698500Y960120D01*
D19*
X736970Y967220D02*
X751470Y967220D01*
X757070Y972820D01*
X772160Y972820D01*
X783980Y972820D01*
X783980Y947420D01*
X771906Y1010920D02*
X771906Y1026160D01*
X771906Y1010920D02*
X771906Y973074D01*
X772160Y972820D01*
X771906Y1010920D02*
X817880Y1010920D01*
X751470Y901858D02*
X753942Y899386D01*
X751470Y901858D02*
X751470Y902220D01*
X753942Y899386D02*
X778736Y899386D01*
X783980Y904630D02*
X783980Y947420D01*
X783980Y904630D02*
X778736Y899386D01*
D20*
X801270Y896520D03*
D21*
X800980Y934720D02*
X800980Y947420D01*
X800980Y934720D02*
X800980Y896810D01*
X801270Y896520D01*
X800980Y934720D02*
X817880Y934720D01*
D19*
X724920Y914720D02*
X724920Y954720D01*
X763520Y954720D02*
X763520Y914720D01*
X780034Y1026160D02*
X786130Y1026160D01*
X788670Y1023620D01*
D20*
X788670Y1023620D03*
X792480Y922147D03*
D21*
X792480Y895350D01*
X803910Y883920D02*
X817880Y883920D01*
X803910Y883920D02*
X792480Y895350D01*
D19*
X744220Y957720D02*
X736970Y957720D01*
X744220Y957720D02*
X751470Y957720D01*
X744220Y957720D02*
X744220Y911720D01*
X736970Y911720D01*
X744220Y911720D02*
X751470Y911720D01*
X782320Y858520D02*
X817880Y858520D01*
X782320Y858520D02*
X744220Y896620D01*
X744220Y911720D01*
D21*
X800980Y961780D02*
X800980Y972820D01*
X800980Y961780D02*
X802640Y960120D01*
X817880Y960120D01*
D19*
X856350Y967220D02*
X870850Y967220D01*
X876450Y972820D01*
X891540Y972820D01*
X903360Y972820D01*
X903360Y947420D01*
X891286Y1010920D02*
X891286Y1026160D01*
X891286Y1010920D02*
X891286Y973074D01*
X891540Y972820D01*
X891286Y1010920D02*
X937260Y1010920D01*
X870850Y901858D02*
X873322Y899386D01*
X870850Y901858D02*
X870850Y902220D01*
X873322Y899386D02*
X898116Y899386D01*
X903360Y904630D02*
X903360Y947420D01*
X903360Y904630D02*
X898116Y899386D01*
D20*
X920650Y896520D03*
D21*
X920360Y934720D02*
X920360Y947420D01*
X920360Y934720D02*
X920360Y896810D01*
X920650Y896520D01*
X920360Y934720D02*
X937260Y934720D01*
D19*
X844300Y914720D02*
X844300Y954720D01*
X882900Y954720D02*
X882900Y914720D01*
X899414Y1026160D02*
X905510Y1026160D01*
X908050Y1023620D01*
D20*
X908050Y1023620D03*
X911860Y922147D03*
D21*
X911860Y895350D01*
X923290Y883920D02*
X937260Y883920D01*
X923290Y883920D02*
X911860Y895350D01*
D19*
X863600Y957720D02*
X856350Y957720D01*
X863600Y957720D02*
X870850Y957720D01*
X863600Y957720D02*
X863600Y911720D01*
X856350Y911720D01*
X863600Y911720D02*
X870850Y911720D01*
X901700Y858520D02*
X937260Y858520D01*
X901700Y858520D02*
X863600Y896620D01*
X863600Y911720D01*
D21*
X920360Y961780D02*
X920360Y972820D01*
X920360Y961780D02*
X922020Y960120D01*
X937260Y960120D01*
M02*
